<?xml version="1.0" encoding="utf-8"?>
<!-- Generator: Adobe Illustrator 25.2.3, SVG Export Plug-In . SVG Version: 6.00 Build 0)  -->
<svg version="1.1" id="Layer_1" xmlns="http://www.w3.org/2000/svg" xmlns:xlink="http://www.w3.org/1999/xlink" x="0px" y="0px"
	 viewBox="0 0 36 36" style="enable-background:new 0 0 36 36;" xml:space="preserve">
<style type="text/css">
	.st0{fill:#FFA200;}
	.st1{fill:#FFFFFF;}
</style>
<g>
	<path class="st0" d="M27.12,36H8.88C3.95,36,0,31.98,0,27.12V8.88C0,3.95,4.02,0,8.88,0h18.25C32.05,0,36,4.02,36,8.88v18.25
		C36,31.98,32.05,36,27.12,36z"/>
	<g>
		<path class="st1" d="M16.06,19.66h3.8c0.63,0,1.13,0.49,1.13,1.13l0,0c0,0.63-0.49,1.13-1.13,1.13h-3.8
			c-0.63,0-1.13-0.49-1.13-1.13l0,0C15.01,20.15,15.5,19.66,16.06,19.66z"/>
		<path class="st1" d="M9.44,14.72c-0.77,0.77-0.7,1.69-0.7,1.69v9.16c0,0.56,0.42,0.99,0.99,0.99s0.99-0.42,0.99-0.99v-8.81
			c0-1.06,0.92-1.9,2.04-1.83c0.99,0.07,1.69,0.99,1.69,1.97v7.26c0,3.24-2.61,5.85-5.85,5.85H7.54c-0.77,0-1.48-0.63-1.48-1.48
			V16.41c0-1.62,1.27-3.38,1.27-3.38l7.4-6.62c0.42-0.35,0.99-0.49,1.48-0.28c0.92,0.42,1.06,1.62,0.35,2.25L9.44,14.72z"/>
		<path class="st1" d="M26.56,14.72c0.77,0.77,0.7,1.69,0.7,1.69v9.16c0,0.56-0.42,0.99-0.99,0.99c-0.56,0-0.99-0.42-0.99-0.99
			v-8.81c0-1.06-0.92-1.9-2.04-1.83c-0.99,0.07-1.69,0.99-1.69,1.97v7.26c0,3.24,2.61,5.85,5.85,5.85h1.06
			c0.77,0,1.48-0.63,1.48-1.48V16.41c0-1.62-1.27-3.38-1.27-3.38l-7.4-6.62c-0.42-0.35-0.99-0.49-1.48-0.28
			c-0.92,0.42-1.06,1.62-0.35,2.25L26.56,14.72z"/>
	</g>
</g>
</svg>
