<svg version="1.2" baseProfile="tiny-ps" xmlns="http://www.w3.org/2000/svg" viewBox="0 0 489 407" width="489" height="407">
	<title>forgot-password-svg</title>
	<style>
		tspan { white-space:pre }
		.shp0 { fill: #e0e0e0 } 
		.shp1 { fill: #455a64 } 
		.shp2 { fill: #263238 } 
		.shp3 { fill: #37474f } 
		.shp4 { fill: #ffc100 } 
		.shp5 { fill: #ffffff } 
		.shp6 { fill: #fafafa } 
		.shp7 { fill: #70c4a6 } 
		.shp8 { fill: #000000 } 
		.shp9 { fill: #ffa8a7 } 
		.shp10 { opacity: 0.6;fill: #ffffff } 
		.shp11 { opacity: 0.102;fill: #000000 } 
		.shp12 { fill: #b16668 } 
		.shp13 { fill: #f28f8f } 
		.shp14 { fill: #7fd3b4 } 
	</style>
	<g id="freepik--Shadow--inject-145">
		<path id="freepik--shadow--inject-145" class="shp0" d="M194.3 407C149.4 407 113.1 386.04 113.1 360.1C113.1 334.16 149.4 313.2 194.3 313.2C239.2 313.2 275.5 334.16 275.5 360.1C275.5 386.04 239.2 407 194.3 407Z" />
	</g>
	<g id="freepik--speech-bubble--inject-145">
		<g id="freepik--speach-bubble--inject-145">
			<path id="Layer" class="shp1" d="M294.2 271.7L290.4 269.5C289.1 268.7 288.3 267.3 288.2 265.7L288.2 108.3C288.3 106.8 289.1 105.4 290.4 104.5L395.8 43.7C397.2 43 398.8 43 400.1 43.7L403.9 45.9C405.2 46.7 406 48.1 406.1 49.7L406.1 207.2C406 208.7 405.2 210.1 403.9 211L298.5 271.8C297.1 272.4 295.5 272.4 294.2 271.7Z" />
			<path id="Layer" class="shp1" d="M406 49.3C405.9 48.2 404.9 47.8 403.9 48.4L298.5 109.2C297.9 109.6 297.3 110.2 297 110.8L288.9 106.1C289.3 105.4 289.8 104.9 290.4 104.5L395.8 43.7C397.2 43 398.8 43 400.1 43.7L403.9 45.9C405 46.7 405.8 47.9 406 49.3Z" />
			<path id="Layer" class="shp2" d="M298.1 271.9C296.8 272.4 295.3 272.4 294.1 271.7L290.3 269.5C289 268.7 288.2 267.3 288.1 265.7L288.1 108.3C288.1 107.5 288.3 106.8 288.7 106.2L296.8 110.9C296.4 111.5 296.2 112.3 296.2 113L296.2 270.5C296.3 271.7 297.1 272.3 298.1 271.9Z" />
			<path id="Layer" class="shp3" d="M296.3 113L296.3 270.5C296.3 271.9 297.3 272.4 298.5 271.8L403.9 211C405.2 210.2 406 208.8 406.1 207.2L406.1 49.7C406.1 48.3 405.1 47.8 403.9 48.4L298.5 109.2C297.2 110.1 296.4 111.5 296.3 113Z" />
			<path id="Layer" class="shp1" d="M271.7 173C270.3 172.2 264 168.6 263.7 168.4C262.8 167.8 262.4 166.6 263 165.7C263.1 165.6 263.2 165.5 263.3 165.4L288.2 138.7L296.3 143.4L271.4 170C270.6 170.8 270.7 172.1 271.5 172.8C271.6 172.9 271.6 172.9 271.7 173Z" />
			<path id="Layer" class="shp3" d="M296.3 143.3L271.4 170C270.6 170.8 270.7 172.1 271.5 172.8C271.9 173.2 272.5 173.4 273 173.3L296.3 171.4L296.3 143.3Z" />
			<path id="Layer" class="shp4" d="M351.2 95.2C363.5 88.1 373.4 93.9 373.4 108C373.4 122.1 363.4 139.4 351.2 146.5C339 153.6 329 147.8 329 133.7C329 119.6 338.9 102.3 351.2 95.2Z" />
			<path id="Layer" class="shp5" d="M351 106.4C355 104.1 358.2 106 358.2 110.6C357.9 115.7 355.2 120.3 351 123.1C347 125.4 343.8 123.5 343.8 118.9C344.1 113.8 346.7 109.1 351 106.4Z" />
			<path id="Layer" class="shp5" d="M365.2 130.9C365.2 123.3 359.9 120.3 353.3 124.1L349.2 126.5C342.7 130.3 337.3 139.5 337.3 147L337.3 149.1C338.5 149.5 339.8 149.7 341.1 149.7C344.6 149.6 348 148.5 351 146.7C356.7 143.2 361.5 138.4 365.1 132.8L365.1 130.9L365.2 130.9Z" />
			<path id="Layer" class="shp4" d="M337.1 216.7L365.3 200.4C366.5 199.7 367.5 200.3 367.5 201.7L367.5 210.8C367.4 212.3 366.6 213.7 365.3 214.6L337.1 230.9C335.9 231.6 334.9 231 334.9 229.6L334.9 220.5C335 219 335.8 217.6 337.1 216.7Z" />
			<path id="Layer" class="shp6" d="M323.3 196.5L379 164.3C380.4 163.5 381.6 164.1 381.6 165.8L381.6 169.2C381.5 171 380.5 172.7 379 173.7L323.3 205.9C321.9 206.7 320.7 206.1 320.7 204.4L320.7 201C320.8 199.2 321.7 197.5 323.3 196.5Z" />
			<path id="Layer" fill-rule="evenodd" class="shp6" d="M329.8 173.2C330.6 172.8 331.2 172.7 331.6 173C332 173.3 332.2 174 332.2 175.1C332.2 176.1 332 177 331.6 177.9C331.2 178.7 330.6 179.3 329.8 179.8L328.3 180.7L328.3 183.9C328.3 184 328.3 184.1 328.2 184.2C328.2 184.3 328.1 184.4 328 184.4L327.2 184.8C327.1 184.8 327.1 184.8 327 184.8C326.9 184.7 326.9 184.6 326.9 184.6L326.9 175.2C326.9 175.1 326.9 175 327 174.9C327 174.8 327.1 174.7 327.2 174.7L329.8 173.2ZM328.3 178.8L329.8 178C330.2 177.8 330.4 177.5 330.7 177.2C330.9 176.8 331 176.3 331 175.9C331 175.4 330.9 175 330.7 175C330.4 174.9 330.1 175 329.8 175.2L328.3 176L328.3 178.8Z" />
			<path id="Layer" fill-rule="evenodd" class="shp6" d="M336.4 169.4C336.5 169.3 336.6 169.3 336.6 169.4C336.7 169.5 336.7 169.6 336.7 169.7L339 177.5L339 177.6C339 177.7 339 177.8 338.9 177.9C338.9 178 338.8 178.1 338.7 178.1L338 178.5C337.9 178.6 337.8 178.6 337.7 178.5C337.7 178.4 337.6 178.4 337.6 178.3L337.2 176.9L334.2 178.6L333.8 180.4C333.8 180.5 333.7 180.6 333.7 180.7C333.7 180.8 333.6 180.9 333.4 181L332.7 181.4C332.6 181.4 332.6 181.4 332.5 181.4C332.4 181.3 332.4 181.3 332.4 181.2L332.4 181.1L334.7 170.6C334.7 170.4 334.8 170.3 334.8 170.2C334.8 170.1 334.9 170 335 169.9L336.4 169.4ZM336.9 175.4L335.9 171.9L334.9 176.6L336.9 175.4Z" />
			<path id="Layer" class="shp6" d="M342.6 165.7C342.9 165.5 343.3 165.4 343.7 165.3C344 165.3 344.3 165.3 344.5 165.5C344.7 165.6 344.9 165.8 345 166.1C345.1 166.3 345.2 166.6 345.2 166.9C345.2 167 345.2 167.1 345.1 167.2C345.1 167.3 345 167.4 344.9 167.4L344.2 167.8C344.1 167.9 344 167.9 344 167.8C343.9 167.8 343.9 167.7 343.9 167.6C343.8 167.4 343.7 167.3 343.5 167.2C343.2 167.2 342.9 167.2 342.6 167.4C342.4 167.5 342.3 167.6 342.1 167.8C342 167.9 341.8 168.1 341.7 168.3C341.6 168.5 341.5 168.6 341.4 168.8C341.3 169 341.3 169.2 341.3 169.3C341.3 169.5 341.3 169.6 341.4 169.8C341.5 169.9 341.6 170 341.7 170C341.9 170 342.1 170 342.3 170L343.2 169.8C343.5 169.7 343.9 169.7 344.2 169.7C344.4 169.7 344.7 169.8 344.9 169.9C345.1 170.1 345.2 170.3 345.3 170.5C345.4 170.8 345.4 171.2 345.4 171.5C345.4 171.9 345.3 172.4 345.2 172.8C345.1 173.2 344.9 173.7 344.7 174.1C344.5 174.5 344.2 174.9 343.8 175.2C343.5 175.5 343.1 175.8 342.7 176.1C342.4 176.3 342.1 176.4 341.7 176.5C341.4 176.6 341.1 176.5 340.8 176.4C340.5 176.3 340.3 176.1 340.2 175.8C340 175.5 339.9 175.1 339.9 174.8C339.9 174.7 339.9 174.6 340 174.5C340 174.4 340.1 174.3 340.2 174.3L340.9 173.9C341 173.8 341.1 173.8 341.1 173.8C341.1 173.8 341.2 173.9 341.2 174C341.2 174.1 341.3 174.2 341.4 174.3C341.5 174.4 341.5 174.5 341.7 174.5C341.8 174.5 342 174.5 342.1 174.5C342.3 174.4 342.5 174.4 342.7 174.2C342.9 174.1 343.1 174 343.2 173.8C343.5 173.5 343.8 173.2 344 172.8C344.1 172.6 344.1 172.4 344.1 172.2C344.1 172 344.1 171.9 344 171.8C343.9 171.7 343.7 171.7 343.6 171.7C343.4 171.7 343.1 171.7 342.9 171.8C342.6 171.9 342.3 171.9 342 172C341.7 172.1 341.5 172.1 341.2 172.1C341 172.1 340.8 172 340.6 171.8C340.4 171.6 340.3 171.4 340.2 171.2C340.1 170.9 340.1 170.5 340.1 170.1C340.1 169.7 340.2 169.2 340.3 168.8C340.4 168.4 340.6 167.9 340.8 167.6C341 167.2 341.3 166.9 341.6 166.5C341.9 166.2 342.2 165.9 342.6 165.7Z" />
			<path id="Layer" class="shp6" d="M349.1 161.9C349.4 161.7 349.8 161.6 350.2 161.5C350.5 161.5 350.8 161.5 351 161.7C351.2 161.8 351.4 162.1 351.5 162.3C351.6 162.5 351.7 162.8 351.7 163.1C351.7 163.2 351.7 163.3 351.6 163.4C351.6 163.5 351.5 163.6 351.4 163.6L350.7 164C350.6 164.1 350.5 164.1 350.5 164C350.4 164 350.4 163.9 350.4 163.8C350.3 163.6 350.2 163.5 350 163.4C349.7 163.4 349.4 163.4 349.1 163.6C348.9 163.7 348.8 163.8 348.6 164C348.5 164.1 348.3 164.3 348.2 164.5C348.1 164.7 348 164.8 347.9 165C347.8 165.2 347.8 165.4 347.8 165.5C347.8 165.7 347.8 165.8 347.9 166C348 166.1 348.1 166.2 348.2 166.2C348.4 166.2 348.6 166.2 348.8 166.2L349.7 166C350 165.9 350.4 165.9 350.7 165.9C350.9 165.9 351.2 166 351.4 166.1C351.6 166.3 351.7 166.5 351.8 166.7C351.9 167 351.9 167.4 351.9 167.7C351.9 168.1 351.8 168.6 351.7 169C351.6 169.4 351.4 169.9 351.2 170.3C351 170.7 350.7 171.1 350.3 171.4C350 171.7 349.6 172 349.2 172.3C348.9 172.5 348.6 172.6 348.2 172.7C347.9 172.8 347.6 172.7 347.3 172.6C347 172.5 346.8 172.3 346.7 172C346.5 171.7 346.4 171.3 346.4 171C346.4 170.9 346.4 170.8 346.5 170.7C346.5 170.6 346.6 170.5 346.7 170.5L347.4 170.1C347.5 170 347.6 170 347.6 170C347.7 170 347.7 170.1 347.7 170.2C347.7 170.3 347.8 170.4 347.9 170.5C348 170.6 348.1 170.7 348.2 170.7C348.3 170.7 348.5 170.7 348.6 170.7C348.8 170.6 349 170.6 349.2 170.4C349.4 170.3 349.6 170.2 349.7 170C349.9 169.9 350 169.7 350.2 169.5C350.3 169.3 350.4 169.1 350.5 168.9C350.6 168.7 350.6 168.5 350.6 168.3C350.6 168.1 350.6 168 350.5 167.9C350.4 167.8 350.2 167.8 350.1 167.8C349.9 167.8 349.7 167.9 349.4 167.9C349.1 168 348.8 168 348.5 168.1C348.2 168.2 347.9 168.2 347.7 168.2C347.5 168.2 347.3 168.1 347.1 167.9C346.9 167.7 346.8 167.5 346.8 167.3C346.7 167 346.7 166.6 346.7 166.2C346.7 165.8 346.8 165.3 346.9 164.9C347 164.5 347.2 164.1 347.4 163.7C347.6 163.3 347.9 163 348.2 162.6C348.5 162.4 348.8 162.1 349.1 161.9Z" />
			<path id="Layer" class="shp6" d="M356.4 163.1L355.6 167.9C355.6 168 355.5 168.2 355.5 168.3C355.5 168.4 355.4 168.5 355.3 168.6L354.5 169C354.4 169.1 354.3 169.1 354.3 169C354.2 168.9 354.2 168.8 354.2 168.7L353 160.3L353 160.2C353 160.1 353 160 353.1 159.9C353.1 159.8 353.2 159.7 353.3 159.7L354 159.3C354.1 159.3 354.1 159.3 354.2 159.3C354.3 159.3 354.3 159.4 354.3 159.5L355.1 165.2L355.8 160.9C355.8 160.8 355.8 160.7 355.9 160.6C355.9 160.5 356 160.4 356.1 160.3L356.9 159.9C357 159.8 357.1 159.8 357.1 159.9C357.1 160 357.2 160 357.2 160.1L357.9 163.6L358.7 157C358.7 156.9 358.7 156.7 358.8 156.6C358.8 156.5 358.9 156.5 359 156.4L359.7 156C359.8 156 359.8 156 359.9 156C360 156.1 360 156.2 360 156.2L360 156.3L358.8 166.1C358.8 166.2 358.7 166.4 358.7 166.5C358.7 166.6 358.6 166.7 358.5 166.8L357.7 167.2C357.6 167.3 357.5 167.3 357.5 167.2C357.4 167.1 357.4 167 357.4 166.9L356.4 163.1Z" />
			<path id="Layer" fill-rule="evenodd" class="shp6" d="M361.1 158.9C361.1 158.3 361.2 157.8 361.3 157.3C361.4 156.8 361.6 156.3 361.8 155.8C362 155.3 362.3 154.9 362.6 154.5C362.9 154.1 363.4 153.8 363.8 153.5C364.2 153.3 364.6 153.1 365 153.1C365.3 153.1 365.6 153.2 365.9 153.5C366.1 153.8 366.3 154.1 366.4 154.4C366.5 154.9 366.6 155.3 366.6 155.8C366.6 156 366.6 156.2 366.6 156.4C366.6 156.6 366.6 156.8 366.6 157.1C366.6 157.4 366.6 157.6 366.6 157.8C366.6 158 366.6 158.2 366.6 158.4C366.6 159 366.5 159.5 366.4 160C366.3 160.5 366.1 161 365.9 161.5C365.7 162 365.4 162.4 365 162.8C364.7 163.2 364.3 163.5 363.8 163.8C363.4 164 363 164.2 362.6 164.2C362.3 164.2 362 164.1 361.8 163.9C361.5 163.6 361.4 163.3 361.3 162.9C361.2 162.4 361.1 162 361.1 161.5C361.1 161.3 361.1 161.1 361.1 160.9C361.1 160.7 361.1 160.5 361.1 160.2C361.1 159.9 361.1 159.7 361.1 159.5C361.1 159.3 361.1 159.1 361.1 158.9ZM365.4 156.5C365.4 156 365.3 155.5 365 155.1C364.7 154.9 364.4 154.9 364 155.1C363.5 155.4 363.2 155.8 362.9 156.3C362.6 156.9 362.5 157.5 362.5 158.2C362.5 158.6 362.5 159 362.5 159.4C362.5 159.8 362.5 160.3 362.5 160.6C362.5 161.1 362.6 161.6 362.9 162C363.2 162.2 363.5 162.2 364 161.9C364.5 161.6 364.8 161.2 365 160.7C365.3 160.1 365.4 159.5 365.4 158.8C365.4 158.4 365.4 158 365.4 157.6C365.4 157.2 365.4 156.9 365.4 156.5Z" />
			<path id="Layer" fill-rule="evenodd" class="shp6" d="M371 149.4C371.8 149 372.4 148.9 372.8 149.2C373.3 149.7 373.5 150.5 373.4 151.2C373.4 151.9 373.3 152.6 373.1 153.2C372.9 153.8 372.6 154.4 372.2 154.8L373.5 157.6L373.5 157.7C373.5 157.8 373.5 157.9 373.4 158C373.4 158.1 373.3 158.1 373.3 158.2L372.5 158.7C372.4 158.8 372.3 158.8 372.2 158.7C372.1 158.6 372.1 158.6 372.1 158.5L370.9 155.8L369.6 156.5L369.6 159.9C369.6 160 369.6 160.1 369.5 160.2C369.5 160.3 369.4 160.4 369.3 160.4L368.5 160.8C368.4 160.8 368.4 160.8 368.3 160.8C368.2 160.7 368.2 160.7 368.2 160.6L368.2 151.2C368.2 151.1 368.2 151 368.3 150.9C368.3 150.8 368.4 150.7 368.5 150.7L371 149.4ZM369.6 154.8L371 154C371.3 153.8 371.6 153.5 371.9 153.2C372.1 152.8 372.2 152.4 372.2 151.9C372.2 151.4 372.1 151.1 371.9 151C371.6 151 371.3 151 371 151.2L369.6 152L369.6 154.8Z" />
			<path id="Layer" fill-rule="evenodd" class="shp6" d="M377.7 145.5C378.1 145.3 378.5 145.1 378.9 145.1C379.2 145.1 379.5 145.2 379.8 145.4C380.1 145.7 380.2 146 380.3 146.4C380.4 146.9 380.5 147.4 380.5 147.9C380.5 148.6 380.5 149.3 380.5 150C380.5 150.6 380.4 151.2 380.3 151.8C380.2 152.3 380 152.9 379.8 153.4C379.6 153.9 379.3 154.3 379 154.7C378.7 155.1 378.3 155.4 377.8 155.7L375.4 157C375.3 157 375.3 157 375.2 157C375.1 156.9 375.1 156.9 375.1 156.8L375.1 147.4C375.1 147.3 375.1 147.2 375.2 147.1C375.2 147 375.3 146.9 375.4 146.9L377.7 145.5ZM379.1 147.8C379.1 147.6 379 147.4 378.8 147.3C378.7 147.2 378.5 147.1 378.3 147.1C378 147.1 377.8 147.2 377.6 147.3L376.3 148L376.3 154.5L377.6 153.7C377.9 153.6 378.1 153.4 378.3 153.1C378.5 152.9 378.6 152.6 378.8 152.4C378.9 152.1 379 151.8 379.1 151.5C379.2 151.2 379.2 150.9 379.2 150.6C379.3 150.1 379.3 149.3 379.2 148.6C379.2 148.3 379.2 148.1 379.1 147.8Z" />
		</g>
	</g>
	<g id="freepik--question-marks--inject-145_1_">
		<g id="freepik--question-marks--inject-145">
			<path id="Layer" class="shp7" d="M240.4 0.4C242.1 0.8 243.8 1.4 245.3 2.3C246.8 3.1 248.1 4.2 249.2 5.4C250.3 6.6 251.1 8 251.5 9.6C252 11.3 252 13 251.6 14.7C251.3 16 250.8 17.3 250.1 18.4C249.4 19.4 248.6 20.2 247.7 21C246.8 21.7 245.8 22.3 244.8 22.9L241.9 24.4C241 24.9 240.2 25.4 239.4 26C238.7 26.5 238.2 27.3 237.9 28.1C237.7 28.5 237.5 28.8 237.2 29C236.9 29.2 236.5 29.3 236.1 29.2L231.9 28.3C231.5 28.2 231.1 28 230.9 27.6C230.7 27.3 230.6 26.8 230.7 26.4C231 25.1 231.6 23.9 232.5 22.8C233.3 21.8 234.1 21 235.1 20.3C236 19.6 237.1 19 238.1 18.5C239.1 18 240.1 17.5 241 17C241.8 16.6 242.6 16 243.3 15.5C243.9 15 244.3 14.3 244.5 13.5C244.8 12.1 244.4 10.7 243.5 9.6C242.3 8.3 240.8 7.5 239.1 7.2C235.9 6.5 233.3 7.6 231.1 10.4C230.9 10.7 230.6 11 230.3 11.2C230 11.4 229.6 11.4 229.2 11.3L224.7 10.3C224.4 10.2 224.1 10.1 223.9 9.8C223.7 9.5 223.6 9.1 223.7 8.8C224.1 7.4 224.8 6.1 225.8 5.1C226.9 3.9 228.2 2.9 229.7 2.1C231.3 1.3 233 0.7 234.8 0.4C236.5 -0.1 238.5 0 240.4 0.4ZM235.6 32.6C236.4 32.8 236.9 33.6 236.8 34.4L235.7 39.3C235.6 39.7 235.4 40.1 235 40.3C234.7 40.5 234.2 40.6 233.8 40.5L229 39.4C228.6 39.3 228.2 39.1 228 38.7C227.8 38.4 227.7 37.9 227.8 37.5L228.9 32.6C229.1 31.8 229.9 31.3 230.7 31.4L235.6 32.6Z" />
			<path id="Layer" class="shp4" d="M245.7 47.3C246.9 47.1 248.1 47.1 249.3 47.2C250.5 47.3 251.6 47.7 252.6 48.2C253.6 48.7 254.5 49.4 255.2 50.3C256.5 52 256.9 54.2 256.5 56.3C256.3 57.1 256 57.9 255.6 58.6C255.2 59.3 254.7 59.9 254.2 60.5C253.7 61.1 253.2 61.7 252.7 62.2C252.3 62.7 251.9 63.3 251.5 63.9C251.2 64.4 251 65 251 65.6C251 65.9 250.9 66.2 250.8 66.4C250.7 66.6 250.4 66.8 250.2 66.8L247.2 67.3C246.9 67.4 246.6 67.3 246.4 67.1C246.2 66.9 246 66.7 246 66.4C245.9 65.5 245.9 64.5 246.2 63.6C246.4 62.8 246.8 62 247.2 61.3C247.6 60.6 248.1 60 248.6 59.4C249.1 58.8 249.6 58.2 250.1 57.7C250.5 57.2 250.9 56.7 251.2 56.1C251.5 55.6 251.6 55.1 251.5 54.5C251.3 53.5 250.7 52.7 249.9 52.3C248.8 51.8 247.6 51.6 246.4 51.9C244.2 52.2 242.5 53.9 242.1 56C242 56.3 241.9 56.5 241.8 56.7C241.6 56.9 241.4 57 241.1 57L237.9 57.5C237.7 57.5 237.4 57.5 237.3 57.4C237.1 57.3 237 57.1 236.9 56.8C236.8 55.8 237 54.8 237.4 53.9C237.8 52.8 238.4 51.8 239.1 51C239.9 50.1 240.9 49.2 241.9 48.6C243.1 48 244.4 47.5 245.7 47.3ZM250.9 69.2C251.2 69.2 251.5 69.2 251.7 69.4C251.9 69.6 252.1 69.8 252.1 70.1L252.7 73.5C252.8 74.1 252.4 74.6 251.8 74.7L248.4 75.3C248.1 75.3 247.8 75.3 247.6 75.1C247.4 74.9 247.2 74.7 247.2 74.4L246.6 71C246.5 70.7 246.6 70.4 246.8 70.2C247 70 247.2 69.8 247.5 69.8L250.9 69.2Z" />
			<g id="Layer" style="opacity: 0.2">
				<path id="Layer" class="shp8" d="M245.7 47.3C246.9 47.1 248.1 47.1 249.3 47.2C250.5 47.3 251.6 47.7 252.6 48.2C253.6 48.7 254.5 49.4 255.2 50.3C256.5 52 256.9 54.2 256.5 56.3C256.3 57.1 256 57.9 255.6 58.6C255.2 59.3 254.7 59.9 254.2 60.5C253.7 61.1 253.2 61.7 252.7 62.2C252.3 62.7 251.9 63.3 251.5 63.9C251.2 64.4 251 65 251 65.6C251 65.9 250.9 66.2 250.8 66.4C250.7 66.6 250.4 66.8 250.2 66.8L247.2 67.3C246.9 67.4 246.6 67.3 246.4 67.1C246.2 66.9 246 66.7 246 66.4C245.9 65.5 245.9 64.5 246.2 63.6C246.4 62.8 246.8 62 247.2 61.3C247.6 60.6 248.1 60 248.6 59.4C249.1 58.8 249.6 58.2 250.1 57.7C250.5 57.2 250.9 56.7 251.2 56.1C251.5 55.6 251.6 55.1 251.5 54.5C251.3 53.5 250.7 52.7 249.9 52.3C248.8 51.8 247.6 51.6 246.4 51.9C244.2 52.2 242.5 53.9 242.1 56C242 56.3 241.9 56.5 241.8 56.7C241.6 56.9 241.4 57 241.1 57L237.9 57.5C237.7 57.5 237.4 57.5 237.3 57.4C237.1 57.3 237 57.1 236.9 56.8C236.8 55.8 237 54.8 237.4 53.9C237.8 52.8 238.4 51.8 239.1 51C239.9 50.1 240.9 49.2 241.9 48.6C243.1 48 244.4 47.5 245.7 47.3ZM250.9 69.2C251.2 69.2 251.5 69.2 251.7 69.4C251.9 69.6 252.1 69.8 252.1 70.1L252.7 73.5C252.8 74.1 252.4 74.6 251.8 74.7L248.4 75.3C248.1 75.3 247.8 75.3 247.6 75.1C247.4 74.9 247.2 74.7 247.2 74.4L246.6 71C246.5 70.7 246.6 70.4 246.8 70.2C247 70 247.2 69.8 247.5 69.8L250.9 69.2Z" />
			</g>
			<path id="Layer" class="shp4" d="M274 52.7C274.3 52.9 274.5 53.2 274.5 53.5C274.6 53.8 274.5 54.2 274.3 54.4L271.9 57.7C271.7 58 271.4 58.2 271.1 58.2C270.8 58.3 270.4 58.2 270.2 58L266.9 55.7C266.6 55.5 266.4 55.2 266.4 54.9C266.3 54.6 266.4 54.2 266.6 54L269 50.7C269.4 50.1 270.2 50 270.8 50.4L274 52.7ZM287.8 30C289 30.8 290.1 31.8 291 33C291.9 34.1 292.6 35.3 293 36.6C293.4 37.9 293.6 39.2 293.4 40.5C293.2 41.9 292.7 43.2 291.9 44.4C291.3 45.3 290.5 46.1 289.5 46.7C288.7 47.2 287.8 47.6 286.9 47.9C286 48.1 285.1 48.3 284.1 48.4L281.4 48.6C280.6 48.7 279.8 48.8 279 49C278.3 49.2 277.6 49.5 277.1 50C276.9 50.2 276.6 50.4 276.2 50.5C275.9 50.6 275.6 50.5 275.3 50.3L272.4 48.2C272.1 48 271.9 47.7 271.9 47.4C271.8 47.1 271.9 46.7 272.1 46.5C272.8 45.6 273.6 44.9 274.6 44.3C275.5 43.8 276.4 43.5 277.4 43.2C278.3 43 279.3 42.8 280.2 42.8C281.1 42.7 282 42.7 282.8 42.6C283.6 42.5 284.3 42.4 285 42.2C285.6 42 286.2 41.6 286.5 41C287.2 40.1 287.4 38.8 287 37.7C286.5 36.4 285.6 35.2 284.4 34.5C282.2 33 279.9 32.9 277.3 34.3C277 34.5 276.8 34.6 276.5 34.6C276.2 34.6 275.9 34.5 275.6 34.3L272.5 32.1C272.3 32 272.1 31.7 272.1 31.4C272.1 31.1 272.1 30.8 272.3 30.6C273 29.7 274 28.9 275.1 28.4C276.3 27.8 277.6 27.5 279 27.4C280.5 27.3 282 27.4 283.4 27.7C285.1 28.4 286.6 29.1 287.8 30Z" />
			<g id="Layer" style="opacity: 0.6">
				<path id="Layer" class="shp5" d="M274 52.7C274.3 52.9 274.5 53.2 274.5 53.5C274.6 53.8 274.5 54.2 274.3 54.4L271.9 57.7C271.7 58 271.4 58.2 271.1 58.2C270.8 58.3 270.4 58.2 270.2 58L266.9 55.7C266.6 55.5 266.4 55.2 266.4 54.9C266.3 54.6 266.4 54.2 266.6 54L269 50.7C269.4 50.1 270.2 50 270.8 50.4L274 52.7ZM287.8 30C289 30.8 290.1 31.8 291 33C291.9 34.1 292.6 35.3 293 36.6C293.4 37.9 293.6 39.2 293.4 40.5C293.2 41.9 292.7 43.2 291.9 44.4C291.3 45.3 290.5 46.1 289.5 46.7C288.7 47.2 287.8 47.6 286.9 47.9C286 48.1 285.1 48.3 284.1 48.4L281.4 48.6C280.6 48.7 279.8 48.8 279 49C278.3 49.2 277.6 49.5 277.1 50C276.9 50.2 276.6 50.4 276.2 50.5C275.9 50.6 275.6 50.5 275.3 50.3L272.4 48.2C272.1 48 271.9 47.7 271.9 47.4C271.8 47.1 271.9 46.7 272.1 46.5C272.8 45.6 273.6 44.9 274.6 44.3C275.5 43.8 276.4 43.5 277.4 43.2C278.3 43 279.3 42.8 280.2 42.8C281.1 42.7 282 42.7 282.8 42.6C283.6 42.5 284.3 42.4 285 42.2C285.6 42 286.2 41.6 286.5 41C287.2 40.1 287.4 38.8 287 37.7C286.5 36.4 285.6 35.2 284.4 34.5C282.2 33 279.9 32.9 277.3 34.3C277 34.5 276.8 34.6 276.5 34.6C276.2 34.6 275.9 34.5 275.6 34.3L272.5 32.1C272.3 32 272.1 31.7 272.1 31.4C272.1 31.1 272.1 30.8 272.3 30.6C273 29.7 274 28.9 275.1 28.4C276.3 27.8 277.6 27.5 279 27.4C280.5 27.3 282 27.4 283.4 27.7C285.1 28.4 286.6 29.1 287.8 30Z" />
			</g>
		</g>
	</g>
	<g id="freepik--Character--inject-145">
		<g id="freepik--character--inject-145">
			<path id="Layer" class="shp2" d="M199.5 141.2L164 141.2L164 55.1C164 39.5 176.6 26.9 192.2 26.9L192.2 26.9L195.5 26.9C211.1 26.9 223.7 39.5 223.7 55.1L223.7 55.1L223.7 117.1C223.6 130.4 212.8 141.2 199.5 141.2Z" />
			<path id="Layer" class="shp2" d="M160.5 348.4C159.9 352 159.5 355.6 159.5 359.2C159.4 365.8 158.2 368.1 158 373.5C157.8 379.6 158.9 382 161.4 385.4C163.9 388.8 170.4 392 173.2 386.2C176 380.4 175.6 376.5 174.7 370.5C173.8 364.3 173.7 360.8 173.1 356.1C172.6 351.9 172.1 348.7 172.1 348.7L160.5 348.4Z" />
			<path id="Layer" class="shp9" d="M179.2 304.9L157.6 304.5C157.9 318.9 160.2 334.9 160.6 348.5C160.7 351 160.5 368.3 161.5 373.5C162.9 381.4 172.3 380.3 172.8 375.6C173.3 370.9 172.2 350.8 172.2 348.7C172.1 340 176.2 325.4 178.3 309.8C178.4 309 179.1 305.6 179.2 304.9Z" />
			<path id="Layer" class="shp2" d="M206.9 337.2C206.9 337.2 206 336.7 205.9 337.7C205.7 338.8 205.4 341 204.9 342.8C204.3 345.3 203.8 349.3 204.1 351.4C204.4 353.5 209.2 356 212.2 356.9C216 358.1 219.4 360.1 222.2 362.9C225.2 365.7 231.7 368.4 236.2 368.4C241.5 368.4 245.1 366.6 246.8 363.8C248.5 361 245.2 360.7 239.2 356.8L234.6 353.8C225.1 347.6 221.6 344.3 218.9 338.1L206.9 337.2Z" />
			<path id="Layer" class="shp9" d="M219.1 333.4C218.9 328.9 222 291 222 291L201.5 300.4C205.9 326.6 206.8 332.8 206.9 337.1L206.9 337.1C206.8 337.5 206.8 337.8 206.8 338.2C206.8 343.3 212.6 346 217.1 349.4C220.9 352.4 225 355 229.2 357.3C232.5 358.9 239.1 359.1 239.9 357C234.4 352.8 226.5 346.6 222.2 341.8C220 339.6 219.2 337.8 219.1 333.4Z" />
			<path id="Layer" class="shp1" d="M166.4 164.2C158.5 181.5 158.5 194.9 159.8 216.9C161 237.1 162.9 255 162.9 255C162.6 258.6 157.6 265.6 157 281.5C156.4 296.3 158 315.2 158 315.2C158 315.2 169.2 321.4 177.5 315.1C177.5 315.1 185.5 276.9 187.8 258.3C189.8 242.1 193.4 221.4 193.4 221.4L201 258.2C199.4 263.4 198.2 268.8 197.5 274.2C196.4 285.1 202.6 306.6 202.6 306.6C202.6 306.6 214.2 310.1 221.2 303.8C221.2 303.8 223.8 268.9 224.8 255.8C226.1 238.2 223.3 190.4 221.2 165.2L166.4 164.2Z" />
			<path id="Layer" class="shp2" d="M193.4 221.4L196.5 193.7C196.5 193.7 210.4 191.8 216.8 185.9C213.1 191.6 207.1 195.4 200.4 196.3L195.9 222.1L201 258.3L193.4 221.4Z" />
			<path id="Layer" class="shp9" d="M249.9 157.3C250.5 152.2 250.7 147.1 250.7 142C250.4 137.6 249.6 136.9 243.4 129.1C235.1 118.6 228 109.1 220.5 99.7C215.1 93 209.5 91.9 204 92.3C200.2 92.5 207.7 111 211.4 121.9L232.9 145.1C233.6 146 233.9 147.1 233.8 148.3L232.5 168L238.9 176.6C239 176.6 248.8 168.2 249.9 157.3Z" />
			<path id="Layer" class="shp4" d="M183.3 92.9L183.3 92.9C179.1 93.2 171.5 93.9 171.5 93.9C167.1 96.3 166 98.3 165.2 104.2C164.8 106.7 166.9 113.3 168.6 122.6L171.9 140L171.5 148.6C169.8 153.9 165.9 160.4 162.6 170C179.3 179.3 193.3 179.7 206 178C215.7 176.7 220.8 174.4 222.5 172.1C222.1 162.6 221.5 156.7 221.3 146.8C221.2 142.6 221.5 138.4 221.7 133.6C228.2 128.3 228.3 119.4 224.7 113.6C216.5 100.3 208.5 91.9 203.2 92.3L183.3 92.9Z" />
			<path id="Layer" class="shp10" d="M183.3 92.9L183.3 92.9C179.1 93.2 171.5 93.9 171.5 93.9C167.1 96.3 166 98.3 165.2 104.2C164.8 106.7 166.9 113.3 168.6 122.6L171.9 140L171.5 148.6C169.8 153.9 165.9 160.4 162.6 170C179.3 179.3 193.3 179.7 206 178C215.7 176.7 220.8 174.4 222.5 172.1C222.1 162.6 221.5 156.7 221.3 146.8C221.2 142.6 221.5 138.4 221.7 133.6C228.2 128.3 228.3 119.4 224.7 113.6C216.5 100.3 208.5 91.9 203.2 92.3L183.3 92.9Z" />
			<path id="Layer" class="shp11" d="M208.8 133.7C208.8 133.7 201.2 139.6 192.5 136.5C187.5 134.9 183.7 130.9 182.5 125.8C182.5 125.8 181.6 135.7 192.6 139.1C203.1 142.5 208.8 133.7 208.8 133.7Z" />
			<path id="Layer" class="shp9" d="M219.1 65.6C218.8 80 214.1 83.6 211.7 84.6C209.3 85.6 204.8 85 200.4 84.3L200.4 93C200.4 93 205.5 98.3 205.1 102.3C204.7 106.3 197.1 106.7 191.4 102.8C188.3 100.6 185.4 98.1 183 95.2C182.5 94.6 182.3 93.9 182.3 93.2L182.3 72.8C182.3 72.8 179.9 75.4 175.6 72.4C171.9 70.1 170.9 65.2 173.2 61.5C173.3 61.3 173.5 61.1 173.6 60.9C175.5 58.7 180.2 58.6 182.4 61.9C183.7 64.4 183.8 66.9 185.3 65.9C189.1 63.2 187.1 56.9 191.7 53.9L191.7 53.9C193.2 53.1 194.8 52.4 196.4 51.9C204.6 49.1 211.7 46.7 213.4 41.1C216.6 43.1 219.5 48.6 219.1 65.6Z" />
			<path id="Layer" class="shp12" d="M202.9 78.5C201.85 78.5 201 77.65 201 76.6C201 75.55 201.85 74.7 202.9 74.7C203.95 74.7 204.8 75.55 204.8 76.6C204.8 77.65 203.95 78.5 202.9 78.5Z" />
			<path id="Layer" class="shp2" d="M201.7 63.4C201.7 64.5 200.8 65.4 199.7 65.4C198.6 65.4 197.7 64.5 197.7 63.4C197.7 62.3 198.5 61.5 199.6 61.4C200.7 61.3 201.6 62.2 201.7 63.3C201.7 63.4 201.7 63.4 201.7 63.4Z" />
			<path id="Layer" class="shp2" d="M216.8 63.6C216.9 64.6 216.1 65.5 215.1 65.6L215.1 65.6C214.1 65.7 213.3 65 213.2 64C213.2 63.9 213.2 63.9 213.2 63.8C213.1 62.8 213.8 61.9 214.8 61.8C215.8 61.7 216.7 62.4 216.8 63.4C216.8 63.5 216.8 63.6 216.8 63.6L216.8 63.6Z" />
			<path id="Layer" fill-rule="evenodd" class="shp1" d="M199.1 68.6C195.5 68.6 192.6 65.7 192.6 62.1C192.6 57.7 197.2 57.7 199.1 57.7C201 57.7 205.6 57.7 205.6 62.1C205.6 65.6 202.7 68.6 199.1 68.6ZM199.1 58.7C195.1 58.7 193.6 59.7 193.6 62.1C193.6 65.1 196.1 67.6 199.1 67.6C202.1 67.6 204.6 65.1 204.6 62.1C204.6 59.6 203.1 58.7 199.1 58.7Z" />
			<path id="Layer" fill-rule="evenodd" class="shp1" d="M215.6 68.6C212 68.6 209.1 65.7 209.1 62.1C209.1 57.7 213.7 57.7 215.6 57.7C217.5 57.7 222.1 57.7 222.1 62.1C222.1 65.6 219.2 68.6 215.6 68.6ZM215.6 58.7C211.7 58.7 210.1 59.7 210.1 62.1C210.1 65.1 212.6 67.6 215.6 67.6C218.6 67.6 221.1 65.1 221.1 62.1C221.1 59.6 219.6 58.7 215.6 58.7Z" />
			<path id="Layer" class="shp13" d="M206.6 60L206.9 72.1L213.3 70.1L206.6 60Z" />
			<path id="Layer" class="shp13" d="M200.4 84.3C195.8 83.7 186.2 81 184.7 77.2C185.3 79.1 186.5 80.8 188.1 82C191 84.4 200.4 87.2 200.4 87.2L200.4 84.3Z" />
			<path id="Layer" class="shp2" d="M200.7 54.1L196.5 56.7C195.8 55.5 196.2 53.9 197.4 53.2C198.4 52.5 199.9 52.8 200.7 54.1C200.6 54 200.7 54 200.7 54.1Z" />
			<path id="Layer" class="shp2" d="M217.9 56.9L213.2 55.2C213.6 53.9 214.9 53.2 216.2 53.6L216.3 53.6C217.6 54.2 218.3 55.6 217.9 56.9Z" />
			<path id="Layer" class="shp1" d="M205.1 62.6C204.8 62.6 204.6 62.4 204.6 62.1L204.6 62.1C204.6 61.3 206.2 60.7 207.7 60.7C209.2 60.7 210.1 61.2 210.1 62.1C210 62.4 209.7 62.5 209.5 62.5C209.3 62.5 209.2 62.3 209.1 62.1C209.1 62 208.6 61.8 207.7 61.8C207 61.8 206.3 61.9 205.6 62.2C205.6 62.4 205.4 62.6 205.1 62.6L205.1 62.6Z" />
			<path id="Layer" class="shp1" d="M193.1 62.1L193.1 62.1L181.6 61.1C181.1 60.6 180.4 60.2 179.7 59.9L193.1 61.1C193.4 61.1 193.6 61.4 193.5 61.7C193.6 62 193.4 62.1 193.1 62.1Z" />
			<path id="Layer" class="shp9" d="M146.2 74.1C149.9 69.1 152.5 65.3 155.9 61.1C157.8 58.7 159.1 56.9 160.9 54.4C162.2 52.7 162.9 51.2 164.4 50.7C166 50.1 167.4 49.1 168.6 47.8C169.3 47 170 46.2 170.6 45.3C172.7 42.4 175.3 39.9 178.2 37.7C181.2 35.4 184.6 33.7 187.6 31.5C189.4 30.2 191.4 28.1 189.2 26.1C188.5 25.5 187.7 25.1 186.8 24.9C181.4 23.7 176.6 25.6 171.3 27C169 27.6 166.7 28.3 164.5 29.3C163.4 29.7 162.4 30.3 161.5 31C160.2 32.3 159.2 33.8 158.4 35.4C156.1 39.6 151.1 43.3 147.6 46.6C143.5 50.4 139.8 54 135.2 58.2C131 62 126.9 65.5 123 69.7C119.8 73.1 121 75.9 121.4 76.8C124 82.1 126.9 84.1 130.4 87.4C136.4 93.1 157.2 109.6 164 115.1C165.5 116.3 166.6 117.8 167.4 119.5L168.7 122.6C176.5 124 181.8 112.3 175.3 98.1C174.2 95.8 172.6 93.8 170.5 92.3C162.3 86.3 146.2 74.1 146.2 74.1Z" />
			<path id="Layer" class="shp13" d="M146.2 74.1C143.7 77.2 140.4 79.5 136.6 80.7C136.6 80.7 141.6 82 148.5 75.8L146.2 74.1Z" />
			<path id="Layer" class="shp1" d="M247.9 146.9L247.9 146.9L246.6 145.8L246.6 145.8C246.2 145.5 245.7 145.5 245.3 145.7L231.4 149.5C230 150 228.8 151 228.3 152.4L218.3 181.2C218.1 181.7 218.1 182.3 218.5 182.7L218.5 182.7L219.8 183.8L219.8 183.8C220.2 184.1 220.7 184.1 221.1 184L235 180.2C236.4 179.7 237.6 178.7 238.1 177.3C240.1 171.6 246.1 154.1 248.1 148.5C248.4 147.7 248.2 147.2 247.9 146.9Z" />
			<path id="Layer" class="shp4" d="M219.6 182.3L229.6 153.5C230.2 152.1 231.3 151.1 232.7 150.6L246.6 146.8C247.9 146.4 248.6 147.2 248.1 148.4C246.1 154.1 240.1 171.6 238.1 177.2C237.5 178.6 236.4 179.6 235 180.1L221.1 183.9C219.8 184.3 219.1 183.6 219.6 182.3Z" />
			<path id="Layer" class="shp3" d="M231.2 151.4C230.5 151.9 229.9 152.7 229.6 153.5L219.6 182.3C219.4 182.8 219.4 183.3 219.7 183.7L218.5 182.6L218.5 182.6C218.1 182.2 218.1 181.6 218.3 181.1L228.3 152.3C228.6 151.5 229.1 150.8 229.8 150.3L231.2 151.4Z" />
			<path id="Layer" class="shp13" d="M244.1 160.1C243.1 163 239.6 165 233.9 166.4C228.2 167.8 225 173.8 225.9 175.7C226.8 177.6 236.1 179.3 239.8 178.8C243.5 178.3 247.2 172.9 248.4 171.2C249.6 169.5 250.8 158 249.6 156.4C248.4 154.8 245.9 155.1 245.9 155.1L244.1 160.1Z" />
		</g>
	</g>
	<g id="freepik--plants--inject-145">
		<path id="Layer" class="shp4" d="M478.9 275.8L467.9 275.9C467.9 275.9 455.6 259.5 448.9 245.1C439.5 224.9 438.4 194.6 456.3 191.3C474.2 188 464.2 220.2 468.9 239.2C473.7 258.2 478.9 275.8 478.9 275.8Z" />
		<path id="Layer" class="shp7" d="M478.9 275.8L467.9 275.9C467.9 275.9 455.6 259.5 448.9 245.1C439.5 224.9 438.4 194.6 456.3 191.3C474.2 188 464.2 220.2 468.9 239.2C473.7 258.2 478.9 275.8 478.9 275.8Z" />
		<path id="Layer" class="shp5" d="M473.4 276.3L473.4 276.3C473.7 276.1 473.7 275.8 473.6 275.5C447.2 233.8 455.8 200 455.8 199.6C455.9 199.3 455.7 199 455.4 198.9C455.1 198.8 454.8 199 454.7 199.3L454.7 199.3C454.6 199.6 445.9 234 472.6 276.1C472.8 276.4 473.2 276.5 473.4 276.3L473.4 276.3Z" />
		<path id="Layer" class="shp14" d="M485.8 275.7L478 275.8C478 275.8 469.9 264.3 467.2 246.2C464.9 230.4 471.4 212.3 479.1 210.8C486.8 209.3 489.4 213.9 489 220.5C488.8 227.1 476.4 249.7 485.8 275.7Z" />
		<path id="Layer" class="shp5" d="M482 276.2L482 276.2C482.3 276 482.4 275.7 482.2 275.4C466.3 248.6 480.8 215.6 481 215.2C481.1 214.9 481 214.6 480.7 214.5L480.7 214.5C480.4 214.4 480.1 214.5 479.9 214.8C479.7 215.1 464.9 248.7 481.2 276C481.4 276.3 481.7 276.4 482 276.2Z" />
	</g>
	<g id="freepik--Plants--inject-145">
		<g id="freepik--plants--inject-145_1_">
			<path id="Layer" class="shp7" d="M34 312.6L44.6 312C44.6 312 59.8 294.3 67.1 275C77.4 248 65.4 229.8 57.9 228.7C50.4 227.6 44.7 234.2 47.6 254.8C49.3 267.1 47.4 289.7 34 312.6Z" />
			<path id="Layer" class="shp5" d="M42.5 304.4L42.5 304.4C42.1 304.2 42.1 303.8 42.3 303.5C42.3 303.5 42.3 303.5 42.3 303.4C58.8 282.1 64.1 251.3 59.5 235.1C59.4 234.8 59.6 234.4 60 234.3C60.3 234.2 60.7 234.4 60.8 234.8L60.8 234.8C65.5 251.4 60.2 282.6 43.4 304.3C43.1 304.5 42.7 304.5 42.5 304.4Z" />
			<path id="Layer" class="shp14" d="M6.3 314.1C4.7 314.1 2.7 309.4 2.1 308.2C1.1 306.1 0.6 303.8 0.8 301.5C1 298.9 2 296.4 3.6 294.4C4.5 293.3 5.4 292.4 6.4 291.4C7.4 290.5 8.3 289.5 9.3 288.5C10.3 287.6 11.2 286.5 11.8 285.3C12.8 282.8 11.7 280 10.6 277.5C9.4 274.8 8.4 271.4 10.1 268.7C11.5 266.6 13.6 265 16 264.2C18.3 263.3 20.8 262.7 23 261.6C24.7 260.9 26 259.7 26.9 258.1C27.3 257.1 27.5 256 27.5 254.8C27.6 252.4 27.2 250 27.7 247.7C28.1 245.4 29.6 243 32 242.5C33.9 242.1 35.9 243 37.5 244.1C39 245.2 40.2 246.6 41.1 248.2C44.1 253.2 43.6 259.9 47.3 264.5C48.7 266.3 50.6 267.6 52.2 269.2C53.8 270.8 55.2 272.9 55.1 275.1C54.8 279.6 49.2 282 48.3 286.3C47.5 290.2 50 293.2 50 297.2C50 298.9 49.4 300.5 48.3 301.9C46.7 304.3 44.7 306.4 42.4 308C39.9 309.7 37.3 311.2 34.6 312.5C34.4 312.6 6.5 314.1 6.3 314.1Z" />
			<path id="Layer" class="shp5" d="M22.1 313.9L22.1 313.9C21.8 313.7 21.7 313.3 21.9 313L21.9 313C35.4 291.6 39 261.4 35.5 250C35.4 249.7 35.6 249.3 35.9 249.2C36.2 249.1 36.6 249.3 36.7 249.7L36.7 249.7C40.2 261.3 36.7 292 23 313.7C22.8 314 22.4 314.1 22.1 313.9L22.1 313.9Z" />
			<path id="Layer" class="shp5" d="M34 285.1C33.9 285.1 33.9 285.1 33.8 285C28 278.8 19.4 273.3 19.3 273.3C19 273.1 18.9 272.7 19.1 272.4L19.1 272.4C19.3 272.1 19.6 272 19.9 272.2L19.9 272.2C20 272.3 28.7 277.8 34.6 284.1C34.8 284.4 34.8 284.8 34.6 285C34.5 285.2 34.2 285.2 34 285.1Z" />
		</g>
	</g>
</svg>