<svg version="1.2" baseProfile="tiny-ps" xmlns="http://www.w3.org/2000/svg" viewBox="0 0 1500 1500" width="1500" height="1500">
	<title>Vector Smart Object-ai</title>
	<style>
		tspan { white-space:pre }
		.shp0 { fill: #e6e6e6 } 
		.shp1 { fill: #f0f0f0 } 
		.shp2 { fill: #f5f5f5 } 
		.shp3 { fill: #fafafa } 
		.shp4 { fill: #ebebeb } 
		.shp5 { fill: #e0e0e0 } 
		.shp6 { fill: #9ae9cf } 
		.shp7 { opacity: 0.4;fill: #ffffff } 
		.shp8 { opacity: 0.698;fill: #ffffff } 
		.shp9 { fill: #2f54c6 } 
		.shp10 { opacity: 0.302;fill: #000000 } 
		.shp11 { fill: #ffc100 } 
		.shp12 { opacity: 0.502;fill: #ffffff } 
		.shp13 { fill: #ebb376 } 
		.shp14 { fill: #da9d62 } 
		.shp15 { fill: #263238 } 
		.shp16 { fill: #de5753 } 
		.shp17 { opacity: 0.6;fill: #ffffff } 
		.shp18 { opacity: 0.6;fill: #000000 } 
		.shp19 { opacity: 0.2;fill: #fafafa } 
		.shp20 { opacity: 0.102;fill: #e6e6e6 } 
	</style>
	<g id="Layer 1">
		<g id="freepik--background-complete--inject-1">
			<path id="&lt;Path&gt;" class="shp0" d="M0 1147.2L1500 1147.2L1500 1147.95L0 1147.95L0 1147.2Z" />
			<path id="&lt;Path&gt;" class="shp0" d="M154.95 1180.68L234.66 1180.68L234.66 1181.43L154.95 1181.43L154.95 1180.68Z" />
			<path id="&lt;Path&gt;" class="shp0" d="M194.79 1165.68L263.49 1165.68L263.49 1166.43L194.79 1166.43L194.79 1165.68Z" />
			<path id="&lt;Path&gt;" class="shp0" d="M791.88 1167.9L976.23 1167.9L976.23 1168.65L791.88 1168.65L791.88 1167.9Z" />
			<path id="&lt;Path&gt;" class="shp0" d="M993.51 1167.9L1037.73 1167.9L1037.73 1168.65L993.51 1168.65L993.51 1167.9Z" />
			<path id="&lt;Path&gt;" class="shp0" d="M1143.18 1173.03L1289.16 1173.03L1289.16 1173.78L1143.18 1173.78L1143.18 1173.03Z" />
			<path id="&lt;Path&gt;" class="shp0" d="M319.62 1185L579.51 1185L579.51 1185.75L319.62 1185.75L319.62 1185Z" />
			<path id="&lt;Path&gt;" class="shp0" d="M1315.5 1173.03L1336.77 1173.03L1336.77 1173.78L1315.5 1173.78L1315.5 1173.03Z" />
			<path id="&lt;Compound Path&gt;" fill-rule="evenodd" class="shp0" d="M711 1013.4L131.73 1013.4C122.28 1013.38 114.63 1005.72 114.63 996.27L114.63 181.98C114.71 172.59 122.34 165.02 131.73 165L711 165C720.46 165 728.13 172.67 728.13 182.13C728.13 182.13 728.13 182.13 728.13 182.13L728.13 996.27C728.13 1005.73 720.46 1013.4 711 1013.4ZM131.73 165.6C122.7 165.62 115.38 172.95 115.38 181.98L115.38 996.27C115.38 1005.3 122.7 1012.63 131.73 1012.65L711 1012.65C720.04 1012.63 727.36 1005.31 727.38 996.27L727.38 181.98C727.36 172.94 720.04 165.62 711 165.6L131.73 165.6Z" />
			<path id="&lt;Compound Path&gt;" fill-rule="evenodd" class="shp0" d="M1359.93 1013.4L780.63 1013.4C771.18 1013.38 763.52 1005.72 763.5 996.27L763.5 181.98C763.6 172.58 771.23 165.02 780.63 165L1359.93 165C1369.31 165.03 1376.92 172.6 1377 181.98L1377 996.27C1377 1005.71 1369.37 1013.37 1359.93 1013.4ZM780.63 165.6C771.59 165.62 764.27 172.94 764.25 181.98L764.25 996.27C764.27 1005.31 771.59 1012.63 780.63 1012.65L1359.93 1012.65C1368.97 1012.63 1376.29 1005.31 1376.31 996.27L1376.31 181.98C1376.29 172.94 1368.97 165.62 1359.93 165.6L780.63 165.6Z" />
			<path id="&lt;Path&gt;" class="shp1" d="M329.09 601.03C337.44 564.8 373.58 542.2 409.81 550.55C446.04 558.9 468.64 595.04 460.29 631.27C451.94 667.5 415.8 690.1 379.57 681.75C343.34 673.4 320.74 637.26 329.09 601.03Z" />
			<path id="&lt;Path&gt;" class="shp2" d="M853.74 602.22C845.37 584.22 852.03 571.17 872.55 571.17C885.39 571.17 901.35 576.27 916.89 584.52C918.66 579.81 923.58 576.99 931.53 576.99C945.54 576.99 964.83 585.72 979.95 597.99C984.62 594.87 990.12 593.23 995.73 593.28C1009.14 592.74 1025.34 597.75 1039.44 605.91C1041.11 604.33 1043.35 603.48 1045.65 603.57C1054.69 603.87 1063.17 607.98 1069.02 614.88C1069.35 615.27 1069.62 615.69 1069.92 616.08L843.33 616.08C836.16 609.69 844.08 602.55 853.74 602.22Z" />
			<path id="&lt;Path&gt;" class="shp3" d="M412.32 741.51L597.96 699L597.96 1147.2L412.32 1147.2L412.32 741.51Z" />
			<path id="&lt;Path&gt;" class="shp4" d="M597.96 699L694.29 699L694.29 1147.2L597.96 1147.2L597.96 699Z" />
			<path id="&lt;Path&gt;" class="shp3" d="M820.83 1147.2L662.82 1147.2L662.82 591.81L820.83 591.81L820.83 1147.2Z" />
			<path id="&lt;Path&gt;" class="shp4" d="M820.83 591.81L902.82 591.81L902.82 1147.2L820.83 1147.2L820.83 591.81Z" />
			<path id="&lt;Path&gt;" class="shp3" d="M820.83 591.81L684.09 591.81L684.09 550.53L820.83 550.53L820.83 591.81Z" />
			<path id="&lt;Path&gt;" class="shp4" d="M820.83 591.81L684.09 591.81L684.09 582.54L820.83 582.54L820.83 591.81Z" />
			<path id="&lt;Path&gt;" class="shp4" d="M820.83 550.53L881.58 550.53L881.58 591.81L820.83 591.81L820.83 550.53Z" />
			<path id="&lt;Path&gt;" class="shp3" d="M820.8 550.53L705.33 550.53L705.33 509.25L820.8 509.25L820.8 550.53Z" />
			<path id="&lt;Path&gt;" class="shp4" d="M820.8 550.53L705.33 550.53L705.33 541.26L820.8 541.26L820.8 550.53Z" />
			<path id="&lt;Path&gt;" class="shp4" d="M820.83 509.28L860.31 509.28L860.31 550.56L820.83 550.56L820.83 509.28Z" />
			<path id="&lt;Path&gt;" class="shp4" d="M778.98 451.62L786.66 451.62L786.66 509.28L778.98 509.28L778.98 451.62Z" />
			<path id="&lt;Path&gt;" class="shp3" d="M992.01 1147.2L876.63 1147.2L876.63 663.99L992.01 663.99L992.01 1147.2Z" />
			<path id="&lt;Path&gt;" class="shp4" d="M992.04 663.99L1051.92 663.99L1051.92 1147.2L992.04 1147.2L992.04 663.99Z" />
			<path id="&lt;Path&gt;" class="shp3" d="M1021.98 762L1109.46 837L1109.46 1147.2L1021.98 1147.2L1021.98 762Z" />
			<path id="&lt;Path&gt;" class="shp4" d="M1109.46 837L1154.88 837L1154.88 1147.2L1109.46 1147.2L1109.46 837Z" />
			<path id="&lt;Path&gt;" class="shp4" d="M1154.88 837L1109.46 837L1021.98 762L1067.37 762L1154.88 837Z" />
			<path id="&lt;Path&gt;" class="shp4" d="M1319.7 1147.2C1322.31 1132.56 1332.14 1120.23 1345.83 1114.41C1339.92 1124.27 1337.23 1135.74 1338.15 1147.2L1319.7 1147.2Z" />
			<path id="&lt;Path&gt;" class="shp4" d="M558.9 1147.2C556.29 1132.56 546.46 1120.23 532.77 1114.41C538.68 1124.27 541.37 1135.74 540.45 1147.2L558.9 1147.2Z" />
			<path id="&lt;Path&gt;" class="shp4" d="M176.61 1147.2C175.63 1121.6 169.79 1105.08 159.09 1097.64C163.47 1108.1 165.19 1124.62 164.25 1147.2L176.61 1147.2Z" />
			<path id="&lt;Path&gt;" class="shp4" d="M170.58 1147.2C171.58 1132.5 177.43 1123.02 188.13 1118.76C183.73 1124.76 182.01 1134.24 182.97 1147.2L170.58 1147.2Z" />
			<path id="&lt;Path&gt;" class="shp4" d="M572.64 1147.2C571.56 1122.96 561.32 1106.44 541.92 1097.64C550.6 1110.08 554.69 1126.6 554.19 1147.2L572.64 1147.2Z" />
			<path id="&lt;Path&gt;" class="shp5" d="M281.04 902.43L302.22 1051.83L304.32 1066.77L317.91 1066.77L315.78 1051.83L294.6 902.43L281.04 902.43Z" />
			<path id="&lt;Path&gt;" class="shp5" d="M863.01 902.43L884.19 1051.83L886.29 1066.77L899.88 1066.77L897.75 1051.83L876.57 902.43L863.01 902.43Z" />
			<path id="&lt;Path&gt;" class="shp0" d="M368.01 1051.83L370.14 1066.77L381.57 1147.32L395.16 1147.32L383.73 1066.77L381.63 1051.83L368.01 1051.83Z" />
			<path id="&lt;Path&gt;" class="shp0" d="M950.01 1051.83L952.14 1066.77L963.54 1147.32L977.1 1147.32L965.7 1066.77L963.6 1051.83L950.01 1051.83Z" />
			<path id="&lt;Path&gt;" class="shp0" d="M881.43 1051.83L879.3 1066.77L867.87 1147.32L854.28 1147.32L865.71 1066.77L867.81 1051.83L881.43 1051.83Z" />
			<path id="&lt;Path&gt;" class="shp0" d="M299.43 1051.83L297.3 1066.77L285.9 1147.32L272.34 1147.32L283.74 1066.77L285.87 1051.83L299.43 1051.83Z" />
			<path id="&lt;Path&gt;" class="shp2" d="M261.51 923.22L883.5 923.22L871.95 881.61L249.96 881.61L261.51 923.22Z" />
			<path id="&lt;Path&gt;" class="shp0" d="M275.7 923.22L897.72 923.22L886.17 881.61L264.15 881.61L275.7 923.22Z" />
			<path id="&lt;Path&gt;" class="shp2" d="M270.18 975.09L892.17 975.09L880.62 933.51L258.6 933.51L270.18 975.09Z" />
			<path id="&lt;Path&gt;" class="shp0" d="M284.37 975.09L906.36 975.09L894.81 933.51L272.82 933.51L284.37 975.09Z" />
			<path id="&lt;Path&gt;" class="shp2" d="M278.82 1027.05L900.84 1027.05L889.29 985.47L267.27 985.47L278.82 1027.05Z" />
			<path id="&lt;Path&gt;" class="shp0" d="M293.04 1027.05L915.03 1027.05L903.48 985.47L281.49 985.47L293.04 1027.05Z" />
			<path id="&lt;Path&gt;" class="shp0" d="M352.38 1051.83L971.64 1051.83L971.64 1066.77L352.38 1066.77L352.38 1051.83Z" />
			<path id="&lt;Path&gt;" class="shp2" d="M267.27 1051.83L352.38 1051.83L352.38 1066.77L267.27 1066.77L267.27 1051.83Z" />
			<path id="&lt;Path&gt;" class="shp2" d="M220.5 442.41C208.89 417.33 218.13 399.48 246.51 399.48C264.3 399.48 286.35 406.5 307.86 417.93C310.29 411.42 317.13 407.52 328.11 407.52C347.49 407.52 374.16 419.52 395.1 436.65C401.55 432.33 409.15 430.06 416.91 430.14C435.45 429.36 457.89 436.32 477.39 447.6C479.71 445.43 482.79 444.26 485.97 444.36C496.65 443.91 511.11 450.93 518.28 459.99C518.73 460.56 519.12 461.1 519.51 461.67L206.1 461.67C196.2 452.76 207.15 442.86 220.5 442.41Z" />
			<path id="&lt;Path&gt;" class="shp2" d="M1043.73 494.13C1044.52 494.08 1045.31 494.08 1046.1 494.13C1045.38 485.94 1049.61 480.69 1058.7 480.69C1066.78 481.24 1074.6 483.76 1081.47 488.04C1079.13 472.14 1086.66 461.79 1103.64 461.79C1117.35 461.79 1134.72 468.51 1151.88 479.49C1153.38 473.25 1158.42 469.5 1166.88 469.5C1181.88 469.5 1202.88 481.08 1219.98 497.4C1224.47 493.32 1230.35 491.09 1236.42 491.16C1250.61 490.41 1268.25 497.16 1283.88 507.9C1285.41 505.9 1287.82 504.78 1290.33 504.9C1298.1 504.51 1308.78 510.48 1315.02 518.46L1031.25 518.46C1024.56 506.1 1029.87 495.51 1043.73 494.13Z" />
			<path id="&lt;Path&gt;" class="shp2" d="M566.34 312.69C567.12 312.64 567.9 312.64 568.68 312.69C567.96 304.47 572.22 299.25 581.28 299.25C589.37 299.79 597.2 302.32 604.08 306.6C601.74 290.67 609.24 280.32 626.22 280.32C639.96 280.32 657.3 287.07 674.46 298.05C675.96 291.81 681 288.06 689.46 288.06C704.46 288.06 725.46 299.61 742.56 315.96C747.06 311.89 752.93 309.65 759 309.69C773.19 308.97 790.83 315.69 806.46 326.43C807.99 324.43 810.4 323.31 812.91 323.43C820.68 323.01 831.39 328.98 837.6 336.99L553.83 336.99C547.17 324.66 552.48 314.07 566.34 312.69Z" />
			<path id="&lt;Path&gt;" class="shp4" d="M1274.31 1095.3L1221 1041.99L1179.48 1041.99L1225.56 1088.07L1212.9 1088.07L1212.9 1147.2L1261.65 1147.2L1261.65 1095.3L1274.31 1095.3Z" />
			<path id="&lt;Path&gt;" class="shp3" d="M1232.79 1095.3L1179.48 1041.99L1126.17 1095.3L1146.06 1095.3L1146.06 1147.2L1212.9 1147.2L1212.9 1095.3L1232.79 1095.3Z" />
		</g>
		<g id="freepik--Shadow--inject-1">
			<path id="&lt;Path&gt;" class="shp2" d="M750 1214.76C1071.25 1214.76 1331.67 1229.96 1331.67 1248.72C1331.67 1267.48 1071.25 1282.68 750 1282.68C428.75 1282.68 168.33 1267.48 168.33 1248.72C168.33 1229.96 428.75 1214.76 750 1214.76Z" />
		</g>
		<g id="freepik--Houses--inject-1">
			<path id="&lt;Path&gt;" class="shp6" d="M1203.48 323.16L1123.53 243.21L1061.25 243.21L1130.37 312.33L1111.35 312.33L1111.35 400.98L1184.46 400.98L1184.46 323.16L1203.48 323.16Z" />
			<path id="&lt;Path&gt;" class="shp7" d="M1203.48 323.16L1123.53 243.21L1061.25 243.21L1130.37 312.33L1111.35 312.33L1111.35 400.98L1184.46 400.98L1184.46 323.16L1203.48 323.16Z" />
			<path id="&lt;Path&gt;" class="shp6" d="M1141.2 323.16L1061.25 243.21L981.3 323.16L1011.15 323.16L1011.15 400.98L1111.35 400.98L1111.35 323.16L1141.2 323.16Z" />
			<path id="&lt;Path&gt;" class="shp8" d="M1141.2 323.16L1061.25 243.21L981.3 323.16L1011.15 323.16L1011.15 400.98L1111.35 400.98L1111.35 323.16L1141.2 323.16Z" />
			<path id="&lt;Path&gt;" class="shp6" d="M1254.96 642.3L1175.01 562.32L1112.73 562.32L1181.85 631.44L1162.83 631.44L1162.83 720.09L1235.94 720.09L1235.94 642.3L1254.96 642.3Z" />
			<path id="&lt;Path&gt;" class="shp7" d="M1254.96 642.3L1175.01 562.32L1112.73 562.32L1181.85 631.44L1162.83 631.44L1162.83 720.09L1235.94 720.09L1235.94 642.3L1254.96 642.3Z" />
			<path id="&lt;Path&gt;" class="shp6" d="M1192.68 642.3L1112.73 562.32L1032.78 642.3L1062.6 642.3L1062.6 720.09L1162.83 720.09L1162.83 642.3L1192.68 642.3Z" />
			<path id="&lt;Path&gt;" class="shp8" d="M1192.68 642.3L1112.73 562.32L1032.78 642.3L1062.6 642.3L1062.6 720.09L1162.83 720.09L1162.83 642.3L1192.68 642.3Z" />
			<path id="&lt;Path&gt;" class="shp6" d="M895.14 725.43L815.16 645.48L752.91 645.48L822.03 714.57L803.01 714.57L803.01 803.25L876.12 803.25L876.12 725.43L895.14 725.43Z" />
			<path id="&lt;Path&gt;" class="shp7" d="M895.14 725.43L815.16 645.48L752.91 645.48L822.03 714.57L803.01 714.57L803.01 803.25L876.12 803.25L876.12 725.43L895.14 725.43Z" />
			<path id="&lt;Path&gt;" class="shp6" d="M832.86 725.43L752.91 645.48L672.96 725.43L702.78 725.43L702.78 803.22L803.01 803.22L803.01 725.43L832.86 725.43Z" />
			<path id="&lt;Path&gt;" class="shp8" d="M832.86 725.43L752.91 645.48L672.96 725.43L702.78 725.43L702.78 803.22L803.01 803.22L803.01 725.43L832.86 725.43Z" />
			<path id="&lt;Path&gt;" class="shp9" d="M890.37 456.78L847.35 456.78L841.2 450.66L791.25 357.66L890.37 456.78Z" />
			<path id="&lt;Path&gt;" class="shp6" d="M937.83 547.11L847.2 547.11L847.2 437.19L937.83 437.19L937.83 547.11Z" />
			<path id="&lt;Path&gt;" class="shp10" d="M937.83 547.11L847.2 547.11L847.2 437.19L937.83 437.19L937.83 547.11Z" />
			<path id="&lt;Path&gt;" class="shp6" d="M884.22 450.66L961.44 450.66L862.29 351.51L785.1 351.51L884.22 450.66Z" />
			<path id="&lt;Path&gt;" class="shp10" d="M884.22 450.66L961.44 450.66L862.29 351.51L785.1 351.51L884.22 450.66Z" />
			<path id="&lt;Path&gt;" class="shp6" d="M847.2 422.85L847.2 547.11L722.97 547.11L722.97 422.85L785.1 362.52L785.73 363.15L791.25 368.49L847.2 422.85Z" />
			<path id="&lt;Path&gt;" class="shp10" d="M791.25 357.66L791.25 400.68L735.12 456.78L722.97 456.78L722.97 425.94L785.73 363.15L791.25 357.66Z" />
			<path id="&lt;Path&gt;" class="shp6" d="M884.22 450.66L841.2 450.66L785.1 394.53L785.1 351.51L884.22 450.66Z" />
			<path id="&lt;Path&gt;" class="shp6" d="M685.95 450.66L728.97 450.66L785.1 394.53L785.1 351.51L685.95 450.66Z" />
		</g>
		<g id="freepik--Character--inject-1">
			<path id="&lt;Path&gt;" class="shp11" d="M672 577.14C646.41 597.9 620.01 617.43 593.46 636.63C566.91 655.83 540 674.49 513 693C486 711.51 458.55 729.33 430.98 747C417.27 756 403.35 764.52 389.52 773.28C382.7 777.98 375.16 781.55 367.2 783.84C362.88 785 358.46 785.73 354 786C348.99 786.41 343.94 786.14 339 785.19C322.76 781.89 312.28 766.05 315.58 749.81C315.59 749.78 315.59 749.76 315.6 749.73C315.6 749.28 315.81 748.71 315.93 748.23C317.28 743.37 319.3 738.73 321.93 734.43C324.15 730.6 326.75 727.01 329.7 723.72C335.26 717.57 341.77 712.37 348.99 708.3C362.94 699.72 376.77 690.99 390.78 682.59C418.71 665.52 446.91 648.93 475.26 632.55C503.61 616.17 532.26 600.3 561.15 584.82C590.04 569.34 619.17 554.25 649.05 540.33C660.16 535.51 673.08 540.61 677.89 551.73C681.73 560.57 679.34 570.89 672 577.14Z" />
			<path id="&lt;Path&gt;" class="shp11" d="M672 577.14C646.41 597.9 620.01 617.43 593.46 636.63C566.91 655.83 540 674.49 513 693C486 711.51 458.55 729.33 430.98 747C417.27 756 403.35 764.52 389.52 773.28C382.7 777.98 375.16 781.55 367.2 783.84C362.88 785 358.46 785.73 354 786C348.99 786.41 343.94 786.14 339 785.19C322.76 781.89 312.28 766.05 315.58 749.81C315.59 749.78 315.59 749.76 315.6 749.73C315.6 749.28 315.81 748.71 315.93 748.23C317.28 743.37 319.3 738.73 321.93 734.43C324.15 730.6 326.75 727.01 329.7 723.72C335.26 717.57 341.77 712.37 348.99 708.3C362.94 699.72 376.77 690.99 390.78 682.59C418.71 665.52 446.91 648.93 475.26 632.55C503.61 616.17 532.26 600.3 561.15 584.82C590.04 569.34 619.17 554.25 649.05 540.33C660.16 535.51 673.08 540.61 677.89 551.73C681.73 560.57 679.34 570.89 672 577.14Z" />
			<path id="&lt;Path&gt;" class="shp12" d="M672 577.14C646.41 597.9 620.01 617.43 593.46 636.63C566.91 655.83 540 674.49 513 693C486 711.51 458.55 729.33 430.98 747C417.27 756 403.35 764.52 389.52 773.28C382.7 777.98 375.16 781.55 367.2 783.84C362.88 785 358.46 785.73 354 786C348.99 786.41 343.94 786.14 339 785.19C322.76 781.89 312.28 766.05 315.58 749.81C315.59 749.78 315.59 749.76 315.6 749.73C315.6 749.28 315.81 748.71 315.93 748.23C317.28 743.37 319.3 738.73 321.93 734.43C324.15 730.6 326.75 727.01 329.7 723.72C335.26 717.57 341.77 712.37 348.99 708.3C362.94 699.72 376.77 690.99 390.78 682.59C418.71 665.52 446.91 648.93 475.26 632.55C503.61 616.17 532.26 600.3 561.15 584.82C590.04 569.34 619.17 554.25 649.05 540.33C660.16 535.51 673.08 540.61 677.89 551.73C681.73 560.57 679.34 570.89 672 577.14Z" />
			<path id="&lt;Path&gt;" class="shp13" d="M561.3 1222.89L585.78 1217.22L574.32 1160.13L549.84 1165.8L561.3 1222.89Z" />
			<path id="&lt;Path&gt;" class="shp13" d="M396.24 540.69C392.85 552.69 389.58 565.32 386.46 577.68C383.34 590.04 380.46 602.58 378.06 615.06C376.74 621.27 375.6 627.63 374.61 633.48C373.62 639.33 373.05 645.48 372.69 651.63C372.38 657.75 372.38 663.87 372.69 669.99C372.69 672.99 373.08 675.99 373.38 679.17C373.68 682.35 374.22 685.38 374.64 687.99L362.64 692.52C361.07 689.3 359.71 685.97 358.59 682.56C357.42 679.28 356.41 675.95 355.59 672.57C353.95 665.83 352.83 658.97 352.23 652.05C351.67 645.06 351.57 638.05 351.93 631.05C352.41 623.97 353.25 617.46 354.18 610.86C356.07 597.69 358.5 584.64 361.38 571.86C364.26 559.08 367.38 546.21 371.43 533.28L396.24 540.69Z" />
			<path id="&lt;Path&gt;" class="shp11" d="M360.93 544.83L386.16 564.93L401.31 576.93C402.37 574.11 403.54 570.68 404.82 566.64C408.48 554.94 413.25 536.4 409.95 527.88C404.76 514.38 394.95 502.2 382.53 504.9C375.51 506.48 368.31 519.79 360.93 544.83Z" />
			<path id="&lt;Path&gt;" class="shp13" d="M395.79 1223.07L420.9 1223.07L418.95 1164.87L393.81 1164.87L395.79 1223.07Z" />
			<path id="&lt;Path&gt;" class="shp14" d="M574.32 1160.16L580.47 1190.73L555.75 1195.23L549.81 1165.83L574.32 1160.16Z" />
			<path id="&lt;Path&gt;" class="shp14" d="M393.81 1164.87L418.95 1164.87L419.94 1194.87L394.8 1194.87L393.81 1164.87Z" />
			<path id="&lt;Path&gt;" class="shp11" d="M475.71 657.36C465.99 772.34 456.09 862.23 446.01 927.03C437.87 979.37 430.58 1066.72 424.14 1189.08L390 1189.08C379.12 1070.92 375.75 985.92 379.89 934.08C395.58 737.61 367.89 702.81 400.74 657.27L475.71 657.36Z" />
			<path id="&lt;Path&gt;" class="shp15" d="M475.71 657.36C465.99 772.34 456.09 862.23 446.01 927.03C437.87 979.37 430.58 1066.72 424.14 1189.08L390 1189.08C379.12 1070.92 375.75 985.92 379.89 934.08C395.58 737.61 367.89 702.81 400.74 657.27L475.71 657.36Z" />
			<path id="&lt;Path&gt;" class="shp13" d="M364.29 690.57L349.47 700.65L351.57 709.26C372.15 698.58 379.69 691.1 374.19 686.82L364.29 690.57Z" />
			<path id="&lt;Compound Path&gt;" fill-rule="evenodd" class="shp11" d="M431.49 1224.54C429.25 1224.48 427.03 1224.18 424.86 1223.64C424.64 1223.57 424.46 1223.39 424.41 1223.16C424.37 1222.92 424.48 1222.69 424.68 1222.56C425.55 1221.99 433.14 1217.07 436.08 1218.39C436.76 1218.69 437.22 1219.33 437.28 1220.07C437.52 1221.22 437.14 1222.41 436.29 1223.22C434.9 1224.22 433.2 1224.69 431.49 1224.54ZM426.54 1222.77C430.92 1223.67 434.22 1223.49 435.54 1222.35C436.1 1221.79 436.34 1220.99 436.17 1220.22C436.15 1219.9 435.95 1219.61 435.66 1219.47C434.07 1218.78 429.66 1221 426.54 1222.77L426.54 1222.77Z" />
			<path id="&lt;Compound Path&gt;" fill-rule="evenodd" class="shp11" d="M425.01 1223.64C424.91 1223.67 424.81 1223.67 424.71 1223.64C424.53 1223.53 424.42 1223.34 424.41 1223.13C424.41 1222.8 424.41 1215.57 427.17 1213.14C427.84 1212.5 428.77 1212.22 429.69 1212.36C430.66 1212.37 431.5 1213.06 431.7 1214.01C432.27 1217.01 427.68 1222.29 425.31 1223.64C425.21 1223.67 425.11 1223.67 425.01 1223.64ZM429.27 1213.47C428.78 1213.48 428.32 1213.66 427.95 1213.98C426.38 1216.32 425.57 1219.08 425.64 1221.9C428.01 1219.98 430.89 1215.9 430.53 1214.19C430.53 1213.92 430.32 1213.56 429.54 1213.47L429.27 1213.47Z" />
			<path id="&lt;Compound Path&gt;" fill-rule="evenodd" class="shp11" d="M588 1213.44C587.65 1213.42 587.39 1213.12 587.41 1212.77C587.41 1212.66 587.45 1212.55 587.52 1212.45C588.33 1211.49 595.32 1203.27 598.89 1203.27L599.13 1203.27C599.79 1203.32 600.38 1203.72 600.66 1204.32C601.15 1205.26 601.15 1206.38 600.66 1207.32C599.1 1210.62 592.05 1212.48 587.97 1213.32L588 1213.44ZM598.86 1204.44C596.91 1204.44 592.59 1208.52 589.62 1211.85C595.11 1210.56 598.83 1208.85 599.7 1206.9C600.06 1206.28 600.06 1205.51 599.7 1204.89C599.59 1204.64 599.37 1204.47 599.1 1204.44L598.86 1204.44Z" />
			<path id="&lt;Compound Path&gt;" fill-rule="evenodd" class="shp11" d="M588 1213.44C587.79 1213.41 587.63 1213.25 587.58 1213.05C587.58 1212.78 585.42 1206.3 587.34 1202.67C587.87 1201.6 588.83 1200.79 589.98 1200.45C591.57 1199.97 592.35 1200.45 592.68 1201.14C594.21 1203.6 590.82 1210.86 588.57 1213.14C588.45 1213.34 588.23 1213.45 588 1213.44ZM590.82 1201.44C590.83 1201.43 590.85 1201.43 590.86 1201.42C590.91 1201.43 590.95 1201.43 591 1201.44L590.82 1201.44ZM590.31 1201.44C589.46 1201.68 588.75 1202.27 588.36 1203.06C587.49 1205.79 587.49 1208.73 588.36 1211.46C590.49 1208.46 592.56 1203.09 591.66 1201.62C591.47 1201.38 591.14 1201.3 590.86 1201.42C590.68 1201.41 590.49 1201.41 590.31 1201.44Z" />
			<path id="&lt;Path&gt;" class="shp13" d="M427.2 444.21C430.2 459.21 436.2 489.21 425.85 499.26C428.57 509.26 439.17 514.26 457.65 514.26C477.95 514.26 482.8 509.26 472.2 499.26C455.58 495.3 456 482.97 458.91 471.36L427.2 444.21Z" />
			<path id="&lt;Path&gt;" class="shp15" d="M487.74 412.23C487.49 412.23 487.25 412.16 487.05 412.02C486.51 411.63 486.39 410.88 486.78 410.35C486.78 410.34 486.78 410.34 486.78 410.34C488.98 407.21 492.53 405.32 496.35 405.24C497 405.34 497.45 405.96 497.35 406.61C497.26 407.13 496.86 407.53 496.35 407.61C493.31 407.69 490.5 409.23 488.79 411.75C488.55 412.08 488.15 412.27 487.74 412.23Z" />
			<path id="&lt;Path&gt;" class="shp16" d="M494.4 426.54C496.02 431.24 498.28 435.69 501.12 439.77C498.96 441.17 496.3 441.55 493.83 440.82L494.4 426.54Z" />
			<path id="&lt;Path&gt;" class="shp15" d="M492.72 423C492.72 425.04 493.65 426.72 494.97 426.75C496.29 426.78 497.43 425.22 497.52 423.18C497.61 421.14 496.59 419.49 495.27 419.43C493.95 419.37 492.81 420.99 492.72 423Z" />
			<path id="&lt;Path&gt;" class="shp15" d="M494.67 419.52L499.59 418.32C497.83 420.78 496.19 421.18 494.67 419.52Z" />
			<path id="&lt;Path&gt;" class="shp15" d="M423 1220.16L394.77 1220.16C393.76 1220.12 392.88 1220.86 392.76 1221.87L389.55 1244.19C389.28 1246.38 390.84 1248.37 393.03 1248.63C393.21 1248.65 393.39 1248.66 393.57 1248.66C403.41 1248.51 408.15 1247.91 420.57 1247.91C428.22 1247.91 439.35 1248.72 449.91 1248.72C460.47 1248.72 461.01 1238.28 456.63 1237.35C436.95 1233.09 433.83 1227.27 427.2 1221.69C426.02 1220.71 424.53 1220.17 423 1220.16Z" />
			<path id="&lt;Path&gt;" class="shp15" d="M585.3 1210.77L559.23 1221.6C558.29 1221.96 557.78 1222.97 558.03 1223.94L563.61 1245.81C564.23 1247.94 566.46 1249.17 568.59 1248.55C568.74 1248.51 568.89 1248.45 569.04 1248.39C578.04 1244.46 582.24 1242.12 593.7 1237.35C600.75 1234.35 615.66 1229.1 625.41 1225.05C635.16 1221 631.65 1211.16 627.24 1211.97C607.44 1215.63 598.02 1213.2 589.77 1210.59C588.31 1210.12 586.72 1210.19 585.3 1210.77Z" />
			<path id="&lt;Path&gt;" class="shp13" d="M528.54 530.37C533.43 541.89 538.71 553.68 544.05 565.14C546.75 570.9 549.56 576.56 552.48 582.12C555.48 587.7 558.48 593.16 561.48 598.38C563.07 600.96 564.66 603.54 566.31 605.91L568.77 609.33C569.27 610.04 569.85 610.71 570.48 611.31C573.75 614.15 577.83 615.89 582.15 616.29C592.38 617.76 605.22 615.69 616.71 612.6L622.05 624.15C619.01 625.97 615.87 627.61 612.63 629.04C609.44 630.52 606.17 631.81 602.82 632.88C595.76 635.28 588.37 636.55 580.92 636.63C576.76 636.67 572.62 636.12 568.62 635.01C564.18 633.79 560 631.75 556.29 629.01C554.39 627.57 552.64 625.95 551.04 624.18C549.69 622.65 548.7 621.36 547.5 619.92C545.25 617.1 543.24 614.25 541.23 611.4C533.75 600.15 527.02 588.43 521.07 576.3C515.07 564.3 509.67 552.3 504.69 539.88L528.54 530.37Z" />
			<path id="&lt;Path&gt;" class="shp13" d="M614.13 625.56L641.55 621.24L634.26 605.7C620.1 608.16 611.66 612.59 608.94 618.99L614.13 625.56Z" />
			<path id="&lt;Path&gt;" class="shp13" d="M641.52 609.12L638.52 602.49L634.26 605.7L641.52 621.24L641.52 609.12Z" />
			<path id="&lt;Path&gt;" class="shp13" d="M424.92 413.37C425.46 438.3 425.16 448.86 437.22 462.12C455.22 482.07 485.88 475.95 492.78 451.35C498.99 429.21 497.04 392.16 473.1 381.3C456.02 373.47 435.83 380.97 428 398.04C425.8 402.85 424.74 408.09 424.92 413.37Z" />
			<path id="&lt;Path&gt;" class="shp15" d="M404.82 368.34C430.44 349.77 459.06 360.3 474.72 373.14C491.1 386.58 488.49 412.41 478.47 423.09C480.57 426.29 481.19 430.24 480.15 433.92C482.77 450.48 472.38 466.32 456.15 470.52L454.74 470.88C422.73 478.5 385.74 456.84 380.16 424.44C376.77 404.67 382.17 384.72 404.82 368.34Z" />
			<path id="&lt;Path&gt;" class="shp13" d="M472.74 424.92C473.15 429.62 475.16 434.04 478.44 437.43C482.88 442.02 487.44 439.38 488.25 433.95C488.94 429.06 487.47 420.78 482.07 418.17C476.67 415.56 472.35 419.37 472.74 424.92Z" />
			<path id="&lt;Path&gt;" class="shp10" d="M441 738C438.15 789.54 450.57 828.45 456.24 851.22C460.26 817.56 463.95 782.43 467.04 751.44C456.45 716.34 443.07 699.21 441 738Z" />
			<path id="&lt;Path&gt;" class="shp11" d="M428.85 1189.74L385.2 1189.74L382.89 1174.44L429.09 1172.88L428.85 1189.74Z" />
			<path id="&lt;Path&gt;" class="shp10" d="M386.16 564.93L401.31 576.93C402.37 574.11 403.54 570.68 404.82 566.64L395.82 522.09L386.16 564.93Z" />
			<path id="&lt;Path&gt;" class="shp15" d="M419.1 372.51C426.93 363.84 453.54 350.61 476.37 360.99C489.67 367.05 498.19 380.33 498.15 394.95L477.57 408.75L419.1 372.51Z" />
			<path id="&lt;Path&gt;" class="shp11" d="M398.1 395.28C409.41 386.01 422.1 352.41 398.1 364.11C374.1 375.81 366.81 420.93 398.1 395.28Z" />
			<path id="&lt;Path&gt;" class="shp15" d="M400.65 373.74C405.54 359.46 373.29 331.05 351.54 358.05C329.79 385.05 386.58 414.84 400.65 373.74Z" />
			<path id="&lt;Path&gt;" class="shp11" d="M451.11 393.66C432.36 385.68 423.03 355.44 455.22 356.31C487.41 357.18 486.48 408.75 451.11 393.66Z" />
			<path id="&lt;Path&gt;" class="shp15" d="M445.05 378C433.68 363.81 446.25 327.33 478.86 339C511.47 350.67 471.15 410.43 445.05 378Z" />
			<path id="&lt;Path&gt;" class="shp15" d="M502.68 657.36C521.56 786.36 534.32 876.24 540.96 927C547.86 979.7 561.39 1065.13 581.55 1183.29L547.95 1188.42C512.55 1075.72 489.92 993.72 480.06 942.42C469.3 886.52 453.3 791.52 432.06 657.42L502.68 657.36Z" />
			<path id="&lt;Path&gt;" class="shp15" d="M502.68 657.36C521.56 786.36 534.32 876.24 540.96 927C547.86 979.7 561.39 1065.13 581.55 1183.29L547.95 1188.42C512.55 1075.72 489.92 993.72 480.06 942.42C469.3 886.52 453.3 791.52 432.06 657.42L502.68 657.36Z" />
			<path id="&lt;Path&gt;" class="shp11" d="M514.68 505.71C523 507.71 532.29 520.15 542.55 543.03L512.82 581.13C492.34 552.15 483.47 533.24 486.21 524.4C490.47 510.57 499.53 502.02 514.68 505.71Z" />
			<path id="&lt;Path&gt;" class="shp11" d="M474 504.15C478.11 504.75 474.3 495.36 472.59 494.37C468.66 492.03 418.59 487.32 419.16 492.6C419.46 495.75 420.82 498.71 423 501C425.25 502.5 438 498.36 474 504.15Z" />
			<path id="&lt;Path&gt;" class="shp17" d="M474 504.15C478.11 504.75 474.3 495.36 472.59 494.37C468.66 492.03 418.59 487.32 419.16 492.6C419.46 495.75 420.82 498.71 423 501C425.25 502.5 438 498.36 474 504.15Z" />
			<path id="&lt;Path&gt;" class="shp11" d="M514.68 505.71C522.68 508.51 518.68 559.06 502.68 657.36L400.68 657.36C402.39 615.84 402.45 590.22 382.68 504.96C396.96 502.01 411.44 500.11 426 499.26C441.43 498.15 456.92 498.15 472.35 499.26C485.45 500.42 499.56 502.57 514.68 505.71Z" />
			<path id="&lt;Path&gt;" class="shp11" d="M399 651.39L394.41 660.39C394.05 661.11 394.89 661.83 396.06 661.83L503.1 661.83C504 661.83 504.78 661.38 504.84 660.78L505.74 651.78C505.74 651.15 505.02 650.61 504 650.61L400.74 650.61C400.06 650.52 399.38 650.82 399 651.39Z" />
			<path id="&lt;Path&gt;" class="shp17" d="M399 651.39L394.41 660.39C394.05 661.11 394.89 661.83 396.06 661.83L503.1 661.83C504 661.83 504.78 661.38 504.84 660.78L505.74 651.78C505.74 651.15 505.02 650.61 504 650.61L400.74 650.61C400.06 650.52 399.38 650.82 399 651.39Z" />
			<path id="&lt;Path&gt;" class="shp11" d="M412.98 663L410.19 663C409.65 663 409.23 662.7 409.26 662.37L410.58 650.37C410.58 650.01 411.09 649.74 411.63 649.74L414.42 649.74C414.96 649.74 415.38 650.01 415.35 650.37L414.03 662.37C414 662.64 413.52 663 412.98 663Z" />
			<path id="&lt;Path&gt;" class="shp11" d="M480 663L477.24 663C476.67 663 476.25 662.7 476.31 662.37L477.6 650.37C477.6 650.01 478.11 649.74 478.68 649.74L481.44 649.74C481.98 649.74 482.4 650.01 482.37 650.37L481.08 662.37C481.08 662.64 480.6 663 480 663Z" />
			<path id="&lt;Path&gt;" class="shp18" d="M412.98 663L410.19 663C409.65 663 409.23 662.7 409.26 662.37L410.58 650.37C410.58 650.01 411.09 649.74 411.63 649.74L414.42 649.74C414.96 649.74 415.38 650.01 415.35 650.37L414.03 662.37C414 662.64 413.52 663 412.98 663Z" />
			<path id="&lt;Path&gt;" class="shp18" d="M480 663L477.24 663C476.67 663 476.25 662.7 476.31 662.37L477.6 650.37C477.6 650.01 478.11 649.74 478.68 649.74L481.44 649.74C481.98 649.74 482.4 650.01 482.37 650.37L481.08 662.37C481.08 662.64 480.6 663 480 663Z" />
			<path id="&lt;Path&gt;" class="shp11" d="M586.5 1183.29L543.48 1190.61L538.59 1174.38L584.64 1166.49L586.5 1183.29Z" />
			<path id="&lt;Compound Path&gt;" fill-rule="evenodd" class="shp11" d="M1015.25 345.81C1079.13 448.14 1047.96 582.89 945.63 646.77C843.31 710.65 708.58 679.49 644.69 577.18C580.79 474.86 611.94 340.11 714.26 276.21C816.58 212.31 951.33 243.46 1015.23 345.78C1015.24 345.79 1015.24 345.8 1015.25 345.81ZM683.76 552.75C683.76 552.76 683.77 552.76 683.77 552.77C734.18 633.52 840.49 658.11 921.24 607.71C1001.98 557.3 1026.57 450.99 976.17 370.25C925.76 289.5 819.44 264.91 738.7 315.31C657.95 365.72 633.36 472.03 683.76 552.78L683.76 552.75Z" />
			<path id="&lt;Compound Path&gt;" fill-rule="evenodd" class="shp11" d="M1015.25 345.81C1079.13 448.14 1047.96 582.89 945.63 646.77C843.31 710.65 708.58 679.49 644.69 577.18C580.79 474.86 611.94 340.11 714.26 276.21C816.58 212.31 951.33 243.46 1015.23 345.78C1015.24 345.79 1015.24 345.8 1015.25 345.81ZM683.76 552.75C683.76 552.76 683.77 552.76 683.77 552.77C734.18 633.52 840.49 658.11 921.24 607.71C1001.98 557.3 1026.57 450.99 976.17 370.25C925.76 289.5 819.44 264.91 738.7 315.31C657.95 365.72 633.36 472.03 683.76 552.78L683.76 552.75Z" />
			<path id="&lt;Compound Path&gt;" fill-rule="evenodd" class="shp12" d="M1015.25 345.81C1079.13 448.14 1047.96 582.89 945.63 646.77C843.31 710.65 708.58 679.49 644.69 577.18C580.79 474.86 611.94 340.11 714.26 276.21C816.58 212.31 951.33 243.46 1015.23 345.78C1015.24 345.79 1015.24 345.8 1015.25 345.81ZM683.76 552.75C683.76 552.76 683.77 552.76 683.77 552.77C734.18 633.52 840.49 658.11 921.24 607.71C1001.98 557.3 1026.57 450.99 976.17 370.25C925.76 289.5 819.44 264.91 738.7 315.31C657.95 365.72 633.36 472.03 683.76 552.78L683.76 552.75Z" />
			<path id="&lt;Path&gt;" class="shp19" d="M990.6 361.17C1045.98 449.9 1018.94 566.73 930.2 622.11C841.47 677.49 724.64 650.45 669.26 561.71C613.9 473 640.91 356.21 729.6 300.81C818.31 245.4 935.15 272.4 990.56 361.11C990.57 361.13 990.59 361.15 990.6 361.17Z" />
			<path id="&lt;Path&gt;" class="shp20" d="M1017.51 434.67L723.51 618.21C699.54 601.94 679.61 580.39 665.28 555.21L986.28 354.78C1002.66 378.67 1013.34 406 1017.51 434.67Z" />
		</g>
	</g>
</svg>