<svg version="1.2" baseProfile="tiny-ps" xmlns="http://www.w3.org/2000/svg" viewBox="0 0 1536 1536" width="1536" height="1536">
	<title>Vector Smart Object-ai</title>
	<style>
		tspan { white-space:pre }
		.shp0 { fill: #efefef } 
		.shp1 { fill: #a4afc1 } 
		.shp2 { fill: #f3f3f1 } 
		.shp3 { fill: #d5dbe1 } 
		.shp4 { fill: #000000 } 
		.shp5 { fill: #46525e } 
		.shp6 { fill: #e9ded7 } 
		.shp7 { fill: #6c7a88 } 
		.shp8 { fill: #35404a } 
		.shp9 { fill: #2fdf84 } 
		.shp10 { fill: #fed2a4 } 
		.shp11 { fill: #ffbd86 } 
		.shp12 { fill: #00b871 } 
		.shp13 { fill: #f7a16e } 
		.shp14 { fill: #ce795f } 
		.shp15 { fill: #ffc98c } 
		.shp16 { fill: #c6c3b2 } 
		.shp17 { fill: #020201 } 
	</style>
	<g id="LINE">
		<path id="&lt;Path&gt;" class="shp0" d="M346.2 237.4C269.18 522.28 68.69 678.02 31.57 815.32C-5.55 952.62 -4.57 1262.25 626.99 1433C1258.54 1603.75 1456.09 1240.96 1496.87 1089.92C1688.06 382.85 482.6 -267.18 346.2 237.4L346.2 237.4Z" />
		<path id="&lt;Compound Path&gt;" fill-rule="evenodd" class="shp1" d="M132.31 272C97.02 272 68.31 243.29 68.31 208C68.31 172.71 97.02 144 132.31 144C167.59 144 196.31 172.71 196.31 208C196.31 243.29 167.59 272 132.31 272ZM132.31 186.67C120.53 186.67 110.98 196.22 110.98 208C110.98 219.78 120.53 229.33 132.31 229.33C144.09 229.33 153.64 219.78 153.64 208C153.64 196.22 144.09 186.67 132.31 186.67Z" />
		<path id="&lt;Path&gt;" class="shp2" d="M992 736C992 732.44 992 725.33 992 714.67L1098.67 714.67C1110.61 714.67 1120 705.28 1120 693.33C1120 687.36 1117.44 681.81 1113.17 677.97L992 562.35L992 330.67L864 330.67L864 440.32L704 288L294.83 677.97C290.56 681.81 288 687.36 288 693.33C288 705.28 297.39 714.67 309.33 714.67L416 714.67L416 1013.33C416 1048.75 444.59 1077.33 480 1077.33L989.99 1077.33L992 736Z" />
		<path id="&lt;Path&gt;" class="shp2" d="M757.33 1002.67L757.33 1130.67C757.33 1195.48 867.16 1248 1002.67 1248C1138.18 1248 1248 1195.48 1248 1130.67L1248 1002.67L757.33 1002.67Z" />
		<g id="&lt;Group&gt;">
			<path id="&lt;Path&gt;" class="shp3" d="M374.12 1354.77L314.12 1354.77C278.79 1354.77 250.12 1326.1 250.12 1290.77L250.12 692.1L267.45 692.1C291 692.1 310.12 711.22 310.12 734.77L310.12 1290.77C310.12 1326.18 338.7 1354.77 374.12 1354.77Z" />
			<path id="&lt;Path&gt;" class="shp3" d="M526.98 148.44L575.19 194.09L309.8 418.41C305.54 422.25 302.98 427.8 302.98 433.77C302.98 445.72 312.36 455.1 324.31 455.1L228.31 455.1C216.36 455.1 206.98 445.72 206.98 433.77C206.98 427.8 209.54 422.25 213.8 418.41L526.98 148.44Z" />
		</g>
		<g id="&lt;Group&gt;">
			<path id="&lt;Path&gt;" class="shp4" d="M893.96 405.75C893.53 406.5 892.99 407.21 892.67 408.02C885.12 427.43 864.76 424.18 848.69 410.93C814.52 382.77 798.6 363.31 764.58 334.96C699.16 280.43 624.74 216.9 559.31 162.37C558.29 161.52 548.18 160.78 546.64 159.63C531.69 172.08 507.79 193.46 492.91 205.86C412.56 272.83 332.26 339.85 251.76 406.63C246.54 410.97 244.66 415.3 244.67 421.98C244.88 527.05 244.82 1202.12 244.82 1307.19C244.82 1309.88 244.82 1324.56 244.82 1328.16C247.81 1328.16 259.43 1328.16 262.04 1328.16C351.75 1328.16 441.45 1325.14 531.16 1325.18C555.87 1325.19 562.61 1343.22 558.12 1353.91C555.13 1361.01 549.86 1365.27 543.54 1368.32C540.53 1369.78 537.19 1370.41 533.85 1370.41L221.27 1370.41C210.31 1366.91 203.05 1359.69 199.57 1348.71C199.57 1220.32 199.57 521.93 199.57 393.54C203.47 388.17 206.46 381.71 211.4 377.58C315.56 290.43 419.93 203.51 524.37 116.7C529.47 112.46 535.66 109.55 541.34 106.02C544.81 106 548.65 105.98 552.11 105.97C557.48 109.22 563.38 111.83 568.15 115.79C671.19 201.47 774.09 287.33 877.11 373.03C884.12 378.86 890.59 384.85 893.96 393.54C893.96 397.61 893.96 401.68 893.96 405.75Z" />
		</g>
		<path id="&lt;Path&gt;" class="shp5" d="M875.88 1153.6C749.47 1153.6 645.54 1249.82 633.31 1373.02L875.88 1421.78L1118.45 1373.02C1106.22 1249.82 1002.29 1153.6 875.88 1153.6Z" />
		<path id="&lt;Path&gt;" class="shp6" d="M633.31 1373.02C632.74 1378.81 632.36 1384.66 632.19 1390.56L729.61 1426.83C776.25 1439.4 825.27 1446.15 875.88 1446.15C926.2 1446.15 977.17 1438.87 1023.58 1426.43L1119.57 1390.56C1119.41 1384.66 1119.03 1378.81 1118.45 1373.02L633.31 1373.02Z" />
		<path id="&lt;Path&gt;" class="shp7" d="M729.61 1385.2C729.61 1331.96 715.38 1282.05 690.53 1239.05C655.48 1280.04 633.78 1332.79 632.19 1390.56C662.3 1405.11 694.9 1417.28 726.76 1426.04C726.76 1426.04 726.76 1426.03 726.76 1426.02C727.71 1426.28 728.65 1426.58 729.61 1426.83L729.61 1385.2Z" />
		<path id="&lt;Path&gt;" class="shp8" d="M1022.16 1385.2C1022.16 1331.96 1036.38 1282.05 1061.24 1239.05C1096.29 1280.04 1117.98 1332.79 1119.57 1390.56C1089.46 1405.11 1055.44 1417.66 1023.58 1426.43C1023.58 1426.42 1023.58 1426.44 1023.58 1426.43C1022.63 1426.7 1024.54 1426.17 1023.58 1426.43L1022.16 1385.2Z" />
		<path id="&lt;Path&gt;" class="shp6" d="M924.64 1153.6C900.26 1153.6 851.5 1153.6 827.12 1153.6C786.73 1153.6 753.99 1186.35 753.99 1226.74C753.99 1267.13 786.73 1299.88 827.12 1299.88C845.86 1299.88 862.94 1292.83 875.88 1281.24C888.82 1292.83 905.9 1299.88 924.64 1299.88C965.03 1299.88 997.78 1267.13 997.78 1226.74C997.78 1186.35 965.03 1153.6 924.64 1153.6Z" />
		<path id="&lt;Path&gt;" class="shp9" d="M875.88 279.62C1057.65 279.62 1205 426.97 1205 608.73C1205 790.5 1057.65 937.85 875.88 937.85C694.12 937.85 546.77 790.5 546.77 608.73C546.77 426.97 694.12 279.62 875.88 279.62Z" />
		<path id="&lt;Path&gt;" class="shp6" d="M1119.67 568.51C1119.67 506.75 1073.74 455.76 1014.18 447.74C994.42 390.35 939.99 349.1 875.88 349.1C811.78 349.1 757.34 390.35 737.58 447.74C678.02 455.76 632.09 506.76 632.09 568.51C632.09 585.85 635.74 602.33 642.26 617.27L1109.5 617.27C1116.03 602.33 1119.67 585.85 1119.67 568.51Z" />
		<path id="&lt;Path&gt;" class="shp10" d="M875.88 495.37C719.97 495.37 588.48 633.28 547.68 787.63C532.76 780.04 515.89 775.73 498.01 775.73C437.42 775.73 388.3 824.85 388.3 885.44C388.3 946.02 437.42 995.14 498.01 995.14C522.55 995.14 545.2 987.08 563.47 973.47C605.87 1047.42 685.9 1125.87 741.51 1175.53C777.19 1207.39 824.7 1226.74 875.88 1226.74C925.45 1226.74 973.28 1208.54 1010.25 1175.53C1065.86 1125.87 1145.9 1047.42 1188.29 973.47L1204.09 787.62C1163.27 633.17 1031.63 495.37 875.88 495.37Z" />
		<path id="&lt;Path&gt;" class="shp11" d="M1204.09 787.62L690.28 621.05C644.69 653.1 608.45 696.11 584.67 745.57C579.11 742.12 571.45 737.75 565.09 735.61C558.17 752.62 552.33 770.01 547.67 787.63C569.5 798.73 587.24 816.98 597.63 839.46C612.51 871.64 660.08 868.67 669.05 833.09C675.37 808.02 686.2 784.49 700.81 763.54C747.4 840.87 833.03 891.53 927.84 891.53C928.27 891.53 928.69 891.53 929.11 891.53C970.35 891.53 991.34 940.93 962.86 970.76C934.91 1000.04 906.55 1026.65 882.68 1047.96C809.45 1113.35 699.2 1116.64 622.07 1054.8C661.15 1100.96 706.24 1144.04 741.51 1175.53C777.19 1207.39 824.7 1226.74 875.88 1226.74C925.45 1226.74 973.28 1208.54 1010.25 1175.53C1065.86 1125.87 1145.9 1047.42 1188.29 973.47C1206.64 987.14 1229.41 995.21 1254.07 995.14C1319.14 994.96 1370.17 937.05 1362.72 872.41C1354.13 797.91 1272.66 752.74 1204.09 787.62Z" />
		<path id="&lt;Path&gt;" class="shp9" d="M1204.09 787.62C1163.27 633.17 1031.63 495.37 875.88 495.37C719.97 495.37 588.48 633.28 547.68 787.63C564.23 796.05 578.36 808.55 588.75 823.8C591.41 827.71 595.52 830.55 600.24 830.94C607.59 831.54 614.1 826.7 615.87 819.68C631.79 756.54 670.07 702.31 721.83 665.92C722.24 668.12 722.67 670.31 723.12 672.48C743.26 768.68 829.56 836.68 927.85 836.68L1128.91 836.68C1144.02 836.68 1158.16 829.58 1167.5 817.7C1177.32 805.21 1189.8 794.89 1204.09 787.62Z" />
		<path id="&lt;Path&gt;" class="shp12" d="M1204.09 787.62C1199.37 769.77 1193.23 751.74 1186.67 735.61C1186.67 735.61 1186.66 735.61 1186.66 735.61C1159.19 668.11 1114.66 606.85 1059.26 563.09C1081.61 591.07 1100.66 622.17 1115.65 655.04C1138.84 705.87 1111.43 772.89 1065.12 772.89L875.83 772.89C826.3 755.41 786.28 713.31 775.78 656.01C768.56 616.67 723.01 598.04 690.28 621.05C651.28 648.47 619.12 683.91 595.75 724.55C589.97 734.61 577.63 739.86 565.1 735.61C558.3 752.28 552.28 770.21 547.67 787.63C563.44 795.65 578 808.02 588.75 823.81C596.88 835.74 612.83 831.72 615.86 819.68C631.78 756.55 670.07 702.31 721.83 665.92C726.84 693.24 736.85 718.07 750.64 739.84C750.57 739.8 750.5 739.76 750.43 739.71C788.04 799.02 854.9 836.68 927.85 836.68C1143.65 836.68 1136.39 838.44 1150.09 831.77C1169.51 822.33 1172.04 803.93 1204.09 787.62Z" />
		<path id="&lt;Path&gt;" class="shp13" d="M498.01 848.87C518.2 848.87 534.58 865.24 534.58 885.44C534.58 905.63 518.2 922 498.01 922C477.81 922 461.44 905.63 461.44 885.44C461.44 865.24 477.81 848.87 498.01 848.87Z" />
		<path id="&lt;Path&gt;" class="shp14" d="M1253.76 848.87C1273.95 848.87 1290.32 865.24 1290.32 885.44C1290.32 905.63 1273.95 922 1253.76 922C1233.56 922 1217.19 905.63 1217.19 885.44C1217.19 865.24 1233.56 848.87 1253.76 848.87Z" />
		<path id="&lt;Path&gt;" class="shp15" d="M1147.15 1361.03L1153.37 1409.78L1117.59 1396.32C1107.25 1408.66 1088.31 1408.77 1077.84 1396.55C1069.55 1386.87 1069.47 1372.63 1077.65 1362.87L1107.21 1327.57C1117.55 1315.23 1136.49 1315.13 1146.96 1327.35C1155.25 1337.02 1155.33 1351.26 1147.15 1361.03Z" />
		<path id="&lt;Path&gt;" class="shp11" d="M1111.07 1472.81C1130.04 1494.95 1163.37 1497.52 1185.51 1478.55L1200.96 1465.32C1231.63 1439.04 1235.19 1392.87 1208.92 1362.19C1192.31 1342.81 1162.27 1342.98 1145.88 1362.54L1110.69 1404.56C1094.12 1424.35 1094.28 1453.21 1111.07 1472.81Z" />
		<path id="&lt;Path&gt;" class="shp16" d="M1279.71 1088.06L1216.2 1151.58C1180.85 1186.92 1178.94 1244.49 1213.44 1280.67C1248.98 1317.93 1308.23 1318.45 1344.44 1282.25L1409.17 1217.52L1406.05 1187.05C1400.9 1136.72 1361.25 1096.86 1310.96 1091.43L1279.71 1088.06Z" />
		<g id="&lt;Group&gt;">
			<path id="&lt;Compound Path&gt;" fill-rule="evenodd" class="shp17" d="M1465.13 1230.44C1457.99 1237.58 1446.42 1237.58 1439.28 1230.44C1434.5 1225.67 1426.75 1225.67 1421.98 1230.44L1357.26 1295.17C1319.68 1332.75 1259.76 1338.18 1216.09 1307.08L1195.1 1332.15C1245.54 1347.76 1267.2 1432.54 1212.77 1479.19L1197.32 1492.42C1167.51 1517.97 1122.68 1514.54 1097.11 1484.69C1091.68 1478.36 1087.58 1471.32 1084.73 1463.93L1052.02 1502.98C1048.41 1507.3 1043.22 1509.52 1038 1509.52C1022.65 1509.52 1013.98 1491.46 1023.99 1479.5L1075.49 1418.01C1051.59 1404.28 1045.73 1372.4 1063.56 1351.11L1088.25 1321.63C1082.17 1304.55 1074.13 1288.39 1064.16 1273.32C1034.63 1339.48 1040.61 1391.78 1041.78 1425.79C1042.14 1436.1 1033.88 1444.7 1023.5 1444.7C1013.69 1444.7 1005.58 1436.93 1005.24 1427.05L1004 1391.29L747.85 1391.29L747.85 1426.82C747.85 1436.91 739.66 1445.1 729.57 1445.1C719.47 1445.1 711.29 1436.91 711.29 1426.82C711.29 1379.25 714.45 1333.74 687.52 1273.37C664.59 1308.22 651.6 1349.11 650.44 1391.05C650.16 1401.14 641.74 1409.13 631.66 1408.82C621.57 1408.55 613.61 1400.14 613.89 1390.04C616.14 1308.4 656.78 1231.82 723.63 1184.07C649.25 1116.99 516.27 985.2 516.27 885.43C516.27 875.34 508.07 867.14 497.99 867.14C487.91 867.14 479.71 875.34 479.71 885.43C479.71 895.52 471.53 903.71 461.43 903.71C426.67 903.71 443.5 830.57 497.99 830.57C528.24 830.57 552.84 855.18 552.84 885.43C552.84 914.79 567.95 944.54 579.31 964.36C618.93 1033.47 694.47 1109.02 753.65 1161.87C761.2 1168.62 770.59 1175.53 772.97 1176.92C803.16 1197.37 838.9 1208.44 875.83 1208.44C941.12 1208.44 995.76 1183.3 1113.2 1045.86C1138.26 1016.53 1158.16 989.11 1172.35 964.36C1183.71 944.54 1198.82 914.79 1198.82 885.43C1198.82 855.18 1223.42 830.57 1253.66 830.57C1307.78 830.57 1325.47 903.71 1290.23 903.71C1280.13 903.71 1271.95 895.52 1271.95 885.43C1271.95 875.34 1263.74 867.14 1253.66 867.14C1243.58 867.14 1235.38 875.34 1235.38 885.43C1235.38 949.03 1182.37 1021.19 1141 1069.61C1097.02 1121.08 1060.99 1158.04 1028.66 1184.54C1069.04 1213.56 1100.92 1253.91 1119.45 1300.68C1136.03 1297.78 1151.38 1304.25 1161.07 1315.82L1190.13 1281.12C1159.83 1238.22 1164.29 1177.54 1202.95 1138.87L1266.69 1075.12C1271.46 1070.35 1271.46 1062.6 1266.69 1057.83C1259.55 1050.69 1259.55 1039.11 1266.69 1031.97C1290.65 1008 1327.29 1066.23 1292.55 1100.98L1228.81 1164.72C1182.42 1211.11 1213.75 1290.21 1279.05 1290.71C1298.78 1290.82 1317.45 1283.26 1331.41 1269.3L1396.13 1204.58C1430.95 1169.76 1489 1206.57 1465.13 1230.44ZM772.74 1219.36C768.26 1252.54 794.18 1281.58 827.08 1281.58C840.59 1281.58 853.57 1276.62 863.64 1267.61C870.58 1261.39 881.08 1261.39 888.03 1267.61C925.76 1301.39 986.1 1269.78 978.86 1218.96C913.16 1255.3 834.66 1252.21 772.74 1219.36ZM712.78 1241.72C731.06 1276.83 742.48 1315.24 746.36 1354.72L1005.31 1354.72C1009.19 1315.24 1020.6 1276.84 1038.88 1241.72C1031.66 1234.14 1023.95 1227.1 1015.78 1220.62C1020.8 1295.36 938.53 1343.66 875.83 1304.06C813.1 1343.67 730.86 1295.29 735.88 1220.61C727.71 1227.09 720 1234.14 712.78 1241.72ZM1103.47 1384.59L1133.06 1349.27C1135.5 1346.34 1135.48 1342.13 1133 1339.23C1129.77 1335.46 1124.38 1335.99 1121.84 1338.58C1121.21 1339.17 1092.15 1373.93 1091.59 1374.59C1085.02 1382.43 1096.85 1392.44 1103.47 1384.59ZM1194.94 1374.07C1185.7 1363.28 1168.95 1363.36 1159.82 1374.27L1124.63 1416.29C1113.75 1429.27 1113.86 1448.03 1124.88 1460.9C1137.29 1475.38 1159.05 1477.06 1173.53 1464.65L1188.98 1451.42C1212 1431.69 1214.67 1397.09 1194.94 1374.07Z" />
			<path id="&lt;Path&gt;" class="shp17" d="M1353.67 1067.93C1346.53 1060.79 1334.95 1060.79 1327.81 1067.93L1315.23 1080.52C1308.09 1087.66 1308.09 1099.24 1315.23 1106.38C1322.36 1113.51 1333.94 1113.52 1341.08 1106.38L1353.67 1093.79C1360.81 1086.65 1360.81 1075.07 1353.67 1067.93Z" />
			<path id="&lt;Path&gt;" class="shp17" d="M1390.74 1156.03C1383.6 1163.17 1383.6 1174.75 1390.74 1181.89C1397.87 1189.03 1409.45 1189.03 1416.59 1181.89L1429.18 1169.3C1436.32 1162.16 1436.32 1150.59 1429.18 1143.45C1422.04 1136.31 1410.46 1136.31 1403.32 1143.45L1390.74 1156.03Z" />
			<path id="&lt;Path&gt;" class="shp17" d="M1352.98 1118.27C1345.84 1125.41 1345.84 1136.99 1352.98 1144.13C1360.12 1151.27 1371.7 1151.27 1378.84 1144.13L1404.01 1118.96C1411.14 1111.82 1411.14 1100.24 1404.01 1093.1C1396.87 1085.96 1385.29 1085.96 1378.15 1093.1L1352.98 1118.27Z" />
			<path id="&lt;Compound Path&gt;" fill-rule="evenodd" class="shp17" d="M512.69 995.84C512.3 1005.94 503.78 1013.8 493.71 1013.4C432.91 1011.04 370.02 962.52 370.02 885.43C370.02 798.27 454.79 737.91 535.77 763.17C539.65 750.81 544.06 738.63 549 726.65C467.68 501.35 634.93 261.33 875.83 261.33C1116.29 261.33 1284.15 500.9 1202.66 726.64C1207.59 738.61 1212 750.78 1215.88 763.11C1292.1 739.14 1371.73 791.83 1380.78 870.31C1389.9 949.4 1326.74 1013.55 1252.34 1013.55C1242.24 1013.53 1234.07 1005.32 1234.1 995.22C1234.13 985.14 1242.31 976.99 1252.38 976.99C1301.39 977.65 1351.35 934.34 1344.45 874.5C1335.17 794.03 1231.94 765.22 1181.78 829C1168.82 845.5 1149.51 854.96 1128.83 854.96L927.79 854.96C872.7 854.96 821.24 835.12 781.25 801.83C759.66 806.58 736.79 805.81 714.4 798.52C704.8 795.4 699.55 785.08 702.67 775.48C705.8 765.88 716.12 760.62 725.72 763.75C733.11 766.16 740.68 767.59 748.28 768.07C731.89 747.33 719.07 723.63 710.85 697.77C673.01 731.06 645.93 775.09 633.57 824.14C626.66 851.55 590.56 858.97 573.61 834.08C522.78 759.44 406.58 796.23 406.58 885.43C406.58 940.51 451.6 975.17 495.13 976.86C505.22 977.25 513.08 985.75 512.69 995.84ZM1182.57 779.05C1142.7 648 1024.65 513.65 875.83 513.65C727.01 513.65 608.97 647.99 569.1 779.04C580.9 786.95 591.37 796.81 599.99 808.15C617.73 744.71 657.04 689.09 711.28 650.96C722.12 643.33 737.37 649.46 739.78 662.61C756.98 756.41 838.81 818.39 927.79 818.39L1128.83 818.39C1152.31 818.39 1150.55 800.53 1182.57 779.05ZM572.69 677.6C586.31 653.22 602.1 630.17 619.76 608.94C595.82 529.64 645.87 448.51 724.17 431.54C780.59 297.36 971.23 297.72 1027.49 431.54C1105.76 448.51 1155.86 529.6 1131.9 608.95C1149.56 630.18 1165.36 653.23 1178.97 677.6C1223.21 482.1 1073.72 297.9 875.83 297.9C677.82 297.9 528.48 482.22 572.69 677.6ZM650.61 575.58C785.15 444.93 964.88 443.41 1101.04 575.6C1104.78 520.41 1064.63 472.99 1011.68 465.86C1004.83 464.94 999.08 460.23 996.83 453.7C957.29 338.86 794.32 339.01 754.83 453.7C752.58 460.23 746.83 464.94 739.98 465.86C687.28 472.96 646.86 520.16 650.61 575.58Z" />
			<path id="&lt;Path&gt;" class="shp17" d="M772.23 885.43C772.23 895.51 764.03 903.71 753.95 903.71C743.87 903.71 735.67 895.51 735.67 885.43C735.67 875.33 727.48 867.14 717.38 867.14C682.14 867.14 699.83 940.28 753.95 940.28C808.16 940.28 825.68 867.14 790.51 867.14C780.41 867.14 772.23 875.33 772.23 885.43Z" />
			<path id="&lt;Path&gt;" class="shp17" d="M1016 885.43C1016 895.51 1007.79 903.71 997.71 903.71C987.63 903.71 979.43 895.51 979.43 885.43C979.43 875.33 971.25 867.14 961.15 867.14C951.05 867.14 942.87 875.33 942.87 885.43C942.87 915.68 967.47 940.28 997.72 940.28C1027.96 940.28 1052.56 915.68 1052.56 885.43C1052.56 875.33 1044.38 867.14 1034.28 867.14C1024.18 867.14 1016 875.33 1016 885.43Z" />
			<path id="&lt;Path&gt;" class="shp17" d="M888.76 949.29C885.3 952.75 880.71 954.65 875.83 954.65C870.95 954.65 866.36 952.75 862.91 949.29C855.77 942.15 844.19 942.15 837.05 949.29C829.91 956.43 829.91 968.01 837.05 975.15C847.41 985.51 861.18 991.22 875.83 991.22C890.48 991.22 904.26 985.51 914.62 975.15C921.76 968.01 921.76 956.43 914.62 949.29C907.47 942.15 895.9 942.15 888.76 949.29Z" />
		</g>
	</g>
</svg>