<svg version="1.2" baseProfile="tiny-ps" xmlns="http://www.w3.org/2000/svg" viewBox="0 0 1536 1536" width="1536" height="1536">
	<title>Vector Smart Object-ai</title>
	<style>
		tspan { white-space:pre }
		.shp0 { fill: #efefef } 
		.shp1 { fill: #f3f3f1 } 
		.shp2 { fill: #000000 } 
		.shp3 { fill: #a4afc1 } 
		.shp4 { fill: #2fdf84 } 
		.shp5 { fill: #00b871 } 
		.shp6 { fill: #2fdf84;stroke: #000000;stroke-width: 36 } 
		.shp7 { fill: #d59f63 } 
		.shp8 { fill: #cd915a } 
		.shp9 { fill: #fad7a5 } 
		.shp10 { fill: #f0c891 } 
		.shp11 { fill: #ffe1b4 } 
		.shp12 { fill: #fad098 } 
		.shp13 { fill: #ff507d } 
		.shp14 { fill: #d23c69 } 
		.shp15 { fill: #b48764 } 
		.shp16 { fill: #00aaf0 } 
		.shp17 { fill: #0096dc } 
		.shp18 { fill: #966d50 } 
		.shp19 { fill: #c39772 } 
		.shp20 { fill: #64463c } 
		.shp21 { fill: #553732 } 
		.shp22 { fill: #e6af78 } 
		.shp23 { fill: #d29b6e } 
		.shp24 { fill: #f0c087 } 
		.shp25 { fill: #ffdc64 } 
	</style>
	<g id="effect">
		<path id="&lt;Path&gt;" class="shp0" d="M346.2 237.4C269.18 522.28 68.69 678.02 31.57 815.32C-5.55 952.62 -4.57 1262.25 626.99 1433C1258.54 1603.75 1456.09 1240.96 1496.87 1089.92C1688.06 382.85 482.6 -267.18 346.2 237.4L346.2 237.4Z" />
		<path id="&lt;Path&gt;" class="shp1" d="M1130.67 682.67C1130.67 694.61 1121.28 704 1109.33 704L1002.67 704L1002.67 1024C1002.67 1059.41 974.08 1088 938.67 1088L469.33 1088C433.92 1088 405.33 1059.41 405.33 1024L405.33 704L298.67 704C286.72 704 277.33 694.61 277.33 682.67C277.33 676.69 279.89 670.72 284.16 666.88L704 277.33L874.67 435.63L874.67 320L1002.67 320L1002.67 554.24L1051.73 599.89L1123.84 666.88C1128.11 670.72 1130.67 676.69 1130.67 682.67L1130.67 682.67Z" />
		<path id="&lt;Compound Path&gt;" fill-rule="evenodd" class="shp2" d="M661.33 1120L469.33 1120C416.38 1120 373.33 1076.91 373.33 1024L373.33 736L298.67 736C269.27 736 245.33 712.06 245.33 682.67C245.33 667.65 251.86 652.89 262.78 643.03L682.24 253.87C694.53 242.43 713.47 242.43 725.8 253.87L842.71 362.28L842.71 320C842.71 302.34 857.05 288 874.71 288L1002.71 288C1020.37 288 1034.71 302.34 1034.71 320L1034.71 540.29L1145.69 643.41L1102.12 690.35L980.95 577.71C974.46 571.61 970.75 563.11 970.75 554.24L970.75 352L906.75 352L906.75 435.63C906.75 448.34 899.2 459.86 887.55 464.98C875.99 470.06 862.34 467.71 852.99 459.09L704 320.98L325.67 672L405.33 672C423 672 437.33 686.34 437.33 704L437.33 1024C437.33 1041.62 451.67 1056 469.33 1056L661.33 1056L661.33 1120ZM306.22 690.09L305.92 690.35C306.01 690.26 306.13 690.18 306.22 690.09Z" />
		<g id="&lt;Group&gt;">
			<path id="&lt;Path&gt;" class="shp3" d="M1350.16 292.18L1380.33 262.01L1440.66 322.34L1410.49 352.51L1350.16 292.18Z" />
			<path id="&lt;Path&gt;" class="shp3" d="M1176.71 118.7L1206.87 88.53L1267.21 148.86L1237.04 179.03L1176.71 118.7Z" />
			<path id="&lt;Path&gt;" class="shp3" d="M1357.74 148.87L1418.07 88.54L1448.23 118.7L1387.9 179.03L1357.74 148.87Z" />
		</g>
		<g id="&lt;Group&gt;">
			<g id="&lt;Group&gt;">
				<g id="&lt;Group&gt;">
					<path id="&lt;Path&gt;" class="shp4" d="M718.09 1214.88C748.05 1236 787.95 1236 817.91 1214.88C956.14 1117.44 1333.84 827.26 1333.84 565.58C1333.84 388.69 1190.44 245.29 1013.55 245.29C914.93 245.29 826.75 289.9 768 360C709.24 289.9 621.07 245.29 522.44 245.29C345.55 245.29 202.16 388.69 202.16 565.58C202.16 827.26 579.86 1117.44 718.09 1214.88Z" />
				</g>
				<g id="&lt;Group&gt;">
					<path id="&lt;Path&gt;" class="shp5" d="M1108.61 259.64C1127.38 302.58 1137.85 349.97 1137.85 399.82C1137.85 683.72 731.68 998.24 577.26 1107.55C632.86 1153.26 683.14 1190.24 718.09 1214.88C748.05 1236 787.95 1236 817.91 1214.88C956.14 1117.44 1333.84 827.26 1333.84 565.58C1333.84 421.79 1239.09 300.14 1108.61 259.64L1108.61 259.64Z" />
				</g>
			</g>
		</g>
		<g id="&lt;Group&gt;">
			<path id="&lt;Path&gt;" class="shp6" d="M718.44 1217C748.4 1238.12 788.3 1238.12 818.26 1217C956.49 1119.56 1334.2 829.38 1334.2 567.7C1334.2 390.81 1190.8 247.41 1013.91 247.41C915.28 247.41 827.11 292.02 768.35 362.12C709.6 292.02 621.42 247.41 522.8 247.41C345.91 247.41 202.51 390.81 202.51 567.7C202.51 829.38 580.21 1119.56 718.44 1217Z" />
		</g>
		<g id="&lt;Group&gt;">
			<path id="&lt;Path&gt;" class="shp7" d="M1037.86 553.08C1142.13 553.08 1226.65 637.6 1226.65 741.87C1226.65 821.96 1232.37 902.05 1243.81 982.14C1186.6 1016.47 1117.95 1039.35 1037.86 1050.79C957.77 1039.35 889.12 1016.47 831.91 982.14C843.36 902.05 849.08 821.96 849.08 741.87C849.08 637.6 933.6 553.08 1037.86 553.08Z" />
			<path id="&lt;Path&gt;" class="shp8" d="M969.22 724.71L969.22 673.22C969.22 614.88 1010.81 566.29 1065.96 555.4C1056.77 554.03 1047.44 553.08 1037.87 553.08L1037.86 553.08C933.6 553.08 849.08 637.61 849.08 741.87C849.08 821.96 843.36 902.05 831.91 982.14C889.12 1016.47 957.77 1039.35 1037.86 1050.79L1037.86 793.36L969.22 724.71Z" />
			<path id="&lt;Path&gt;" class="shp9" d="M1245.77 1106.49L1128.09 1059.42C1115.06 1054.21 1106.51 1041.59 1106.51 1027.55L1106.51 964.98L969.22 964.98L969.22 1027.55C969.22 1041.59 960.67 1054.21 947.64 1059.42L829.96 1106.49C810.41 1114.31 797.59 1133.24 797.59 1154.3L797.59 1222.41C797.59 1231.89 805.28 1239.57 814.76 1239.57L814.76 1394.04L1260.98 1394.04L1260.98 1239.57C1267.3 1239.57 1273.02 1239.57 1278.14 1239.57L1278.14 1154.3C1278.14 1133.24 1265.32 1114.31 1245.77 1106.49Z" />
			<g id="&lt;Group&gt;">
				<path id="&lt;Path&gt;" class="shp10" d="M1037.86 1050.79C1062.63 1050.79 1086.27 1046.19 1108.27 1038.17C1107.17 1034.79 1106.51 1031.23 1106.51 1027.55L1106.51 964.98L969.21 964.98L969.21 1027.55C969.21 1031.23 968.56 1034.79 967.45 1038.17C989.45 1046.19 1013.09 1050.79 1037.86 1050.79Z" />
				<path id="&lt;Path&gt;" class="shp10" d="M814.75 1222.41L814.75 1273.9L831.92 1273.9C841.39 1273.9 849.08 1281.58 849.08 1291.06L849.08 1394.04L900.57 1394.04L900.57 1222.41L814.75 1222.41Z" />
			</g>
			<path id="&lt;Path&gt;" class="shp11" d="M1037.87 999.3C952.56 999.3 900.57 930.15 900.57 844.84L900.57 776.19C949.94 776.19 955.52 740.68 964.4 720.74C967.08 714.72 974.55 712.77 979.8 716.73C1052.52 771.59 1192.33 730.54 1192.33 844.84C1192.32 930.15 1123.17 999.3 1037.87 999.3Z" />
			<path id="&lt;Path&gt;" class="shp12" d="M969.22 844.84L969.22 715.98C967.21 716.99 965.41 718.46 964.4 720.74C955.52 740.68 949.94 776.19 900.57 776.19L900.57 839.37C900.57 910.31 929.1 975.1 997.53 993.82C1027.01 1001.89 1055.17 1000.53 1080.77 993.14C1016.36 974.53 969.22 915.24 969.22 844.84Z" />
			<path id="&lt;Path&gt;" class="shp13" d="M1245.77 1106.49L1172.56 1077.21C1160.24 1140.39 1104.65 1188.09 1037.87 1188.09C971.08 1188.09 915.49 1140.38 903.17 1077.21L829.96 1106.49C810.41 1114.31 797.59 1133.24 797.59 1154.3L797.59 1394.03L1192.33 1394.03L1192.33 1239.57L1278.14 1239.57L1278.14 1154.29C1278.14 1133.24 1265.32 1114.31 1245.77 1106.49Z" />
			<g id="&lt;Group&gt;">
				<path id="&lt;Path&gt;" class="shp14" d="M1192.32 1205.25L1270.33 1127.25C1275.26 1135.22 1278.13 1144.5 1278.13 1154.3L1278.13 1239.58L1192.32 1239.58L1192.32 1205.25Z" />
				<path id="&lt;Path&gt;" class="shp14" d="M1172.56 1077.21C1160.24 1140.39 1104.65 1188.09 1037.86 1188.09C971.08 1188.09 915.49 1140.39 903.16 1077.21L854.89 1096.52C875.36 1178.64 949.4 1239.57 1037.86 1239.57C1126.33 1239.57 1200.36 1178.64 1220.84 1096.52L1172.56 1077.21Z" />
			</g>
			<path id="&lt;Path&gt;" class="shp15" d="M299.89 1205.25L402.85 1205.25L402.85 1394.04L299.89 1394.04L299.89 1205.25Z" />
			<path id="&lt;Path&gt;" class="shp16" d="M759.65 988.95L608.81 947.81L471.51 947.81L320.66 988.95C298.26 995.06 282.72 1015.41 282.72 1038.63L282.72 1205.25L385.7 1205.25L385.7 1394.04L797.59 1394.04L797.59 1038.63C797.59 1015.41 782.05 995.06 759.65 988.95Z" />
			<path id="&lt;Path&gt;" class="shp17" d="M692.74 970.71L608.81 947.81L471.51 947.81L387.58 970.71C398.66 1045.13 462.65 1102.28 540.15 1102.28C617.66 1102.28 681.65 1045.13 692.74 970.71Z" />
			<path id="&lt;Path&gt;" class="shp15" d="M454.35 887.75L454.35 947.81C454.35 995.21 492.77 1033.63 540.16 1033.63C587.55 1033.63 625.97 995.21 625.97 947.81L625.97 887.75L454.35 887.75L454.35 887.75Z" />
			<path id="&lt;Path&gt;" class="shp18" d="M454.35 946.07C480.5 958.09 509.49 964.98 540.16 964.98C570.83 964.98 599.82 958.09 625.97 946.07L625.97 887.75L454.35 887.75L454.35 946.07Z" />
			<path id="&lt;Path&gt;" class="shp19" d="M694.62 690.38L694.62 587.41L385.7 587.41L385.7 690.38C366.74 690.38 351.37 705.75 351.37 724.71C351.37 743.66 366.74 759.03 385.7 759.03C385.7 844.34 454.85 913.49 540.16 913.49C625.47 913.49 694.62 844.34 694.62 759.03C713.58 759.03 728.94 743.66 728.94 724.71C728.94 705.75 713.57 690.38 694.62 690.38Z" />
			<path id="&lt;Path&gt;" class="shp15" d="M471.51 759.03L471.51 587.41L385.7 587.41L385.7 690.38C366.74 690.38 351.37 705.75 351.37 724.71C351.37 743.66 366.74 759.03 385.7 759.03C385.7 844.34 454.85 913.49 540.16 913.49C555.06 913.49 569.43 911.27 583.06 907.33C518.66 888.72 471.51 829.43 471.51 759.03Z" />
			<path id="&lt;Path&gt;" class="shp20" d="M673.8 697.59C679.59 693.13 686.75 690.38 694.62 690.38C700.9 690.38 706.72 692.19 711.78 695.14L711.78 587.41C711.78 561.73 697.52 539.61 676.64 527.84C672.74 503.27 651.64 484.43 625.97 484.43L488.67 484.43C422.32 484.43 368.54 538.22 368.54 604.57L368.54 695.14C373.6 692.19 379.41 690.38 385.7 690.38C387.9 690.38 390.06 690.6 392.14 691.01C408.85 694.3 425.59 685.06 429.77 668.54L433.99 651.66C435.86 644.2 442.4 638.88 450.09 638.67C485.84 637.71 587.24 632.52 643.13 604.57L653.13 664.52C655.42 678.29 663.16 689.87 673.8 697.59Z" />
			<path id="&lt;Path&gt;" class="shp21" d="M471.51 587.41C471.51 530.54 517.61 484.43 574.48 484.43L488.67 484.43C422.32 484.43 368.54 538.22 368.54 604.57L368.54 695.14C373.6 692.19 379.41 690.38 385.7 690.38C391.05 690.38 396.06 691.64 400.55 693.88C411.63 699.4 423.67 692.96 426.67 680.96L433.99 651.66C435.86 644.2 442.4 638.88 450.09 638.67C455.72 638.52 463.05 638.26 471.51 637.82L471.51 587.41L471.51 587.41Z" />
			<path id="&lt;Path&gt;" class="shp17" d="M282.72 1038.63L282.72 1205.25L385.7 1205.25L385.7 1148.88C385.7 1129.8 379.34 1111.26 367.62 1096.2L296.11 1004.25C287.79 1013.48 282.72 1025.54 282.72 1038.63Z" />
			<path id="&lt;Path&gt;" class="shp22" d="M916.85 1296.49L860.81 1277.81C853.81 1275.48 849.08 1268.92 849.08 1261.53L849.08 1222.41L746.11 1222.41L746.11 1261.53C746.11 1268.92 741.38 1275.48 734.37 1277.81L678.34 1296.49C657.31 1303.5 643.13 1323.17 643.13 1345.33L643.13 1394.04L952.05 1394.04L952.05 1345.33C952.05 1323.17 937.87 1303.5 916.85 1296.49Z" />
			<path id="&lt;Path&gt;" class="shp23" d="M797.59 1291.06C820.52 1291.06 842.36 1286.48 862.35 1278.32L860.81 1277.81C853.8 1275.48 849.08 1268.92 849.08 1261.53L849.08 1222.41L746.1 1222.41L746.1 1261.53C746.1 1268.92 741.38 1275.48 734.37 1277.81L732.83 1278.32C752.83 1286.48 774.66 1291.06 797.59 1291.06Z" />
			<path id="&lt;Path&gt;" class="shp20" d="M797.59 862C712.29 862 643.13 931.16 643.13 1016.47L643.13 1067.95L952.05 1067.95L952.05 1016.46C952.05 931.16 882.9 862 797.59 862Z" />
			<path id="&lt;Path&gt;" class="shp21" d="M849.08 870.98C832.95 865.27 815.67 862 797.59 862C712.29 862 643.13 931.16 643.13 1016.47L643.13 1067.95L746.11 1067.95L746.11 1016.46C746.11 949.24 789.13 892.21 849.08 870.98Z" />
			<path id="&lt;Path&gt;" class="shp24" d="M934.19 1033.63L933 1033.63C915.09 1033.63 900.57 1019.1 900.57 1001.19C900.57 991.98 891.45 985.56 882.77 988.63C798.19 1018.63 729.75 1033.63 677.46 1033.63L661 1033.63C643.83 1033.63 628.72 1045.96 626.32 1062.96C623.34 1084.14 639.7 1102.28 660.3 1102.28L677.46 1102.28L677.46 1117.65C677.46 1182.19 727.67 1236.61 792.16 1239.45C860.98 1242.49 917.73 1187.59 917.73 1119.44L917.73 1102.28L934.89 1102.28C955.49 1102.28 971.85 1084.14 968.87 1062.96C966.47 1045.96 951.36 1033.63 934.19 1033.63Z" />
			<path id="&lt;Path&gt;" class="shp25" d="M900.57 827.68L797.59 871.81L694.62 827.68L694.62 930.65L797.59 886.52L900.57 930.65L900.57 827.68Z" />
			<path id="&lt;Path&gt;" class="shp22" d="M746.11 1119.44L746.11 1026.45C719.05 1031.17 696.17 1033.56 677.46 1033.63L660.29 1033.63C641.34 1033.63 625.97 1048.99 625.97 1067.95C625.97 1086.91 641.34 1102.28 660.29 1102.28L677.46 1102.28L677.46 1114.4C677.46 1180.18 728.14 1237.54 793.9 1239.52C807.15 1239.92 819.91 1238.11 831.92 1234.53C782.3 1219.76 746.11 1173.85 746.11 1119.44Z" />
			<path id="&lt;Path&gt;" class="shp25" d="M916.85 1296.49L888.86 1287.16C871.67 1320.06 837.28 1342.55 797.59 1342.55C757.9 1342.55 723.51 1320.06 706.32 1287.16L678.34 1296.49C657.31 1303.5 643.13 1323.17 643.13 1345.33L643.13 1394.04L952.05 1394.04L952.05 1345.33C952.05 1323.17 937.87 1303.5 916.85 1296.49Z" />
			<path id="&lt;Path&gt;" class="shp2" d="M540.16 842.7C557.68 842.7 574.44 834.42 586.15 819.98C591.38 813.54 590.39 804.08 583.94 798.85C577.5 793.63 568.04 794.61 562.82 801.06C556.75 808.54 548.7 812.66 540.16 812.66C531.61 812.66 523.57 808.54 517.5 801.06C512.28 794.61 502.81 793.63 496.37 798.85C489.93 804.08 488.94 813.54 494.17 819.98C505.88 834.42 522.64 842.7 540.16 842.7Z" />
			<path id="&lt;Path&gt;" class="shp2" d="M471.51 756.89C479.81 756.89 486.53 750.16 486.53 741.87L486.53 724.71C486.53 716.41 479.81 709.68 471.51 709.68C463.21 709.68 456.49 716.41 456.49 724.71L456.49 741.87C456.49 750.16 463.21 756.89 471.51 756.89Z" />
			<path id="&lt;Path&gt;" class="shp2" d="M608.81 756.89C617.1 756.89 623.83 750.16 623.83 741.87L623.83 724.71C623.83 716.41 617.1 709.68 608.81 709.68C600.51 709.68 593.79 716.41 593.79 724.71L593.79 741.87C593.79 750.16 600.51 756.89 608.81 756.89Z" />
			<path id="&lt;Path&gt;" class="shp2" d="M1037.87 928.51C1055.38 928.51 1072.14 920.23 1083.85 905.79C1089.08 899.35 1088.09 889.89 1081.65 884.66C1075.21 879.44 1065.75 880.42 1060.52 886.87C1054.45 894.35 1046.41 898.47 1037.87 898.47C1029.32 898.47 1021.28 894.35 1015.21 886.87C1009.98 880.42 1000.52 879.44 994.08 884.66C987.64 889.89 986.65 899.35 991.88 905.79C1003.58 920.23 1020.35 928.51 1037.87 928.51Z" />
			<path id="&lt;Path&gt;" class="shp2" d="M969.22 842.7C977.51 842.7 984.24 835.98 984.24 827.68L984.24 810.52C984.24 802.22 977.51 795.5 969.22 795.5C960.92 795.5 954.19 802.22 954.19 810.52L954.19 827.68C954.19 835.98 960.92 842.7 969.22 842.7Z" />
			<path id="&lt;Path&gt;" class="shp2" d="M1106.51 842.7C1114.81 842.7 1121.54 835.98 1121.54 827.68L1121.54 810.52C1121.54 802.22 1114.81 795.5 1106.51 795.5C1098.22 795.5 1091.49 802.22 1091.49 810.52L1091.49 827.68C1091.49 835.98 1098.22 842.7 1106.51 842.7Z" />
			<path id="&lt;Compound Path&gt;" fill-rule="evenodd" class="shp2" d="M1293.15 1154.3L1293.15 1239.58C1293.15 1243.56 1291.57 1247.38 1288.75 1250.2C1285.93 1253.02 1282.11 1254.6 1278.13 1254.6L1275.99 1254.6L1275.99 1394.04C1275.99 1402.33 1269.26 1409.06 1260.97 1409.06C1252.67 1409.06 1245.95 1402.33 1245.95 1394.04L1245.95 1254.6L1207.34 1254.6L1207.34 1394.04C1207.34 1402.33 1200.61 1409.06 1192.32 1409.06C1184.02 1409.06 1177.3 1402.33 1177.3 1394.04L1177.3 1205.25C1177.3 1196.96 1184.02 1190.23 1192.32 1190.23C1200.61 1190.23 1207.34 1196.96 1207.34 1205.25L1207.34 1224.56L1263.11 1224.56L1263.11 1154.3C1263.11 1139.3 1254.11 1126.01 1240.19 1120.44L1182.85 1097.51C1162.74 1160.11 1104.38 1203.11 1037.86 1203.11C995.73 1203.11 956.08 1185.66 927.69 1155.95C917.96 1190.59 894.75 1219.62 864.1 1237.03L864.1 1261.53C864.1 1262.46 864.69 1263.27 865.56 1263.56L921.59 1282.24C948.79 1291.31 967.07 1316.66 967.07 1345.33L967.07 1394.04C967.07 1402.33 960.35 1409.06 952.05 1409.06C943.75 1409.06 937.03 1402.33 937.03 1394.04L937.03 1345.33C937.03 1329.61 927.01 1315.71 912.09 1310.74L895.62 1305.25C873.83 1337.77 837.2 1357.57 797.59 1357.57C758.02 1357.57 721.36 1337.76 699.56 1305.25L683.09 1310.74C668.17 1315.71 658.15 1329.61 658.15 1345.33L658.15 1394.04C658.15 1402.33 651.43 1409.06 643.13 1409.06C634.84 1409.06 628.11 1402.33 628.11 1394.04L628.11 1345.33C628.11 1316.66 646.39 1291.31 673.59 1282.24L729.62 1263.56C730.49 1263.27 731.08 1262.45 731.08 1261.53L731.08 1237.03C690.14 1213.78 662.43 1169.8 662.43 1119.44L662.43 1117.3L660.29 1117.3C643.96 1117.3 629.47 1109.32 620.48 1097.06C595.89 1110.33 568.43 1117.3 540.16 1117.3C461.46 1117.3 393.26 1062.4 375.3 987.21L323.73 1002.68C308.19 1007.35 297.74 1021.38 297.74 1037.61L297.74 1190.23L370.68 1190.23L370.68 1135.03C370.68 1127.8 368.56 1120.81 364.55 1114.8L338.88 1076.28C334.27 1069.38 336.14 1060.05 343.04 1055.45C349.94 1050.85 359.27 1052.72 363.87 1059.62L389.55 1098.14C396.86 1109.1 400.72 1121.85 400.72 1135.03L400.72 1394.04C400.72 1402.33 393.99 1409.06 385.7 1409.06C377.4 1409.06 370.68 1402.33 370.68 1394.04L370.68 1220.27L314.91 1220.27L314.91 1394.04C314.91 1402.33 308.18 1409.06 299.89 1409.06C291.59 1409.06 284.86 1402.33 284.86 1394.04L284.86 1220.27L282.72 1220.27C274.43 1220.27 267.7 1213.55 267.7 1205.25L267.7 1037.61C267.7 1008.01 286.75 982.41 315.1 973.91L439.32 936.64L439.32 895.12C400.94 866.61 374.95 822.3 371.15 771.87C351.02 765.65 336.35 746.86 336.35 724.71C336.35 709.79 343.01 696.4 353.51 687.35L353.51 604.57C353.51 530.04 414.14 469.41 488.67 469.41L625.97 469.41C656.35 469.41 682.22 489.64 689.97 518.44C712.85 533.97 726.8 559.8 726.8 587.41L726.8 687.35C737.3 696.41 743.96 709.79 743.96 724.71C743.96 746.86 729.29 765.65 709.16 771.87C708.06 786.47 705.06 800.54 700.48 813.89C700.77 814.01 701.06 814.11 701.33 814.25L797.59 862.37L830.38 845.98C832.66 810.32 834.06 772.66 834.06 741.87C834.06 629.49 925.48 538.06 1037.86 538.06C1150.24 538.06 1241.67 629.49 1241.67 741.87C1241.67 859.58 1258.51 978.83 1258.68 980.02C1259.42 985.22 1257.39 990.43 1253.33 993.76C1251.62 995.16 1213.13 1026.09 1131.85 1044.58C1132.44 1044.89 1133.03 1045.22 1133.67 1045.47L1251.35 1092.55C1276.75 1102.7 1293.16 1126.94 1293.15 1154.3ZM861.42 830.46L893.85 814.25C898.51 811.92 904.04 812.17 908.46 814.91C912.89 817.64 915.59 822.48 915.59 827.68L915.59 894.83C934.03 912.73 948.01 934.47 956.71 958.22C980.47 975.26 1008.46 984.28 1037.87 984.28C1070.13 984.28 1100.41 973.59 1125.45 953.35C1149.78 933.68 1166.97 906.16 1173.85 875.85C1176.14 865.74 1177.31 855.31 1177.31 844.85C1177.31 787.29 1144.18 778.03 1080.72 765.43C1047.88 758.91 1011.39 751.67 978.81 732.37C970.93 752.34 951.6 778.92 904.21 790.77C896.16 792.78 888.01 787.89 886 779.84C883.98 771.79 888.88 763.64 896.93 761.62C953.54 747.47 954.2 707.95 954.2 707.55C954.2 701.77 957.51 696.51 962.71 694.01C967.92 691.51 974.09 692.21 978.6 695.82C1009.71 720.71 1048.78 728.46 1086.57 735.96C1145.95 747.75 1207.35 759.94 1207.35 844.84C1207.35 857.54 1205.93 870.21 1203.15 882.5C1194.78 919.36 1173.89 952.82 1144.34 976.71C1137.15 982.52 1129.52 987.68 1121.54 992.2L1121.54 1016.11C1179.8 1003.36 1214.26 983.96 1227.72 975.16C1223.77 944.7 1211.63 842.74 1211.63 741.87C1211.63 646.05 1133.68 568.1 1037.87 568.1C942.05 568.1 864.1 646.05 864.1 741.87C864.1 769.44 863.2 799.18 861.42 830.46ZM831.18 879.17L885.54 906.35L885.54 851.98L831.18 879.17ZM709.64 906.35L764 879.17L709.64 851.98L709.64 906.35ZM679.6 855.21C668.99 870.53 655.93 884.02 640.99 895.12L640.99 947.82C640.99 949.22 640.94 950.61 640.88 951.99C649.66 930.67 662.77 911.16 679.6 894.83L679.6 855.21ZM540.16 898.47C617.05 898.47 679.6 835.92 679.6 759.03C679.6 750.73 686.32 744.01 694.62 744.01C705.27 744.01 713.92 735.35 713.92 724.7C713.92 714.06 705.26 705.4 694.62 705.4L677.46 705.4C669.16 705.4 662.44 698.68 662.44 690.38C662.44 682.08 669.16 675.36 677.46 675.36L694.62 675.36C695.34 675.36 696.05 675.38 696.76 675.41L696.76 587.41C696.76 568.3 686.22 550.48 669.26 540.92C665.27 538.67 662.53 534.72 661.81 530.19C658.98 512.38 643.91 499.45 625.97 499.45L488.67 499.45C430.71 499.45 383.56 546.61 383.56 604.57L383.56 675.42C384.27 675.39 384.98 675.36 385.7 675.36L409.2 675.36L422.93 634.15C424.98 628.01 430.72 623.88 437.18 623.87C438.52 623.87 571.76 623.46 636.41 591.14C643.84 587.43 652.86 590.43 656.57 597.85C660.28 605.27 657.27 614.3 649.85 618.01C589.59 648.14 482.58 652.99 448.06 653.77L434.27 695.13C432.23 701.27 426.49 705.4 420.02 705.4L385.7 705.4C375.05 705.4 366.39 714.06 366.39 724.71C366.39 735.35 375.05 744.01 385.7 744.01C393.99 744.01 400.72 750.73 400.72 759.03C400.72 835.92 463.27 898.47 540.16 898.47ZM469.37 913L469.37 947.79C469.37 947.86 469.37 947.93 469.37 948C469.48 986.95 501.19 1018.6 540.16 1018.6C579.19 1018.6 610.95 986.85 610.95 947.81L610.95 913C589.39 922.95 565.41 928.51 540.16 928.51C514.9 928.51 490.92 922.95 469.37 913ZM540.16 1087.25C565.25 1087.25 589.55 1080.59 610.95 1067.95C610.95 1053.61 617.35 1040.02 628.11 1030.73L628.11 1016.46C628.11 1009.03 628.6 1001.64 629.57 994.35C612.72 1026.58 578.98 1048.65 540.16 1048.65C491.27 1048.65 450.41 1013.67 441.25 967.43L404.14 978.56C418.29 1041.27 474.82 1087.25 540.16 1087.25ZM834.06 1261.53L834.06 1249.56C822.45 1252.82 810.23 1254.6 797.59 1254.6C784.96 1254.6 772.74 1252.82 761.13 1249.56L761.13 1261.53C761.13 1275.41 752.28 1287.68 739.12 1292.06L729.55 1295.25C746.09 1315.45 770.95 1327.53 797.59 1327.53C824.27 1327.53 849.11 1315.46 865.65 1295.26L856.07 1292.06C842.9 1287.67 834.06 1275.4 834.06 1261.53ZM902.71 1119.44L902.71 1117.6C902.71 1117.47 902.71 1117.34 902.71 1117.21L902.71 1102.28C902.71 1093.98 909.43 1087.25 917.73 1087.25L934.89 1087.25C945.54 1087.25 954.2 1078.59 954.2 1067.95C954.2 1061.1 950.57 1054.9 944.5 1051.37C939.87 1048.68 937.03 1043.73 937.03 1038.39L937.03 1016.46C937.03 988.53 928.57 961.47 913.24 938.66C912.04 940.56 910.44 942.21 908.47 943.43C906.05 944.92 903.32 945.67 900.57 945.67C898.27 945.67 895.97 945.15 893.85 944.09L797.59 895.96L701.34 944.09C699.22 945.15 696.92 945.67 694.62 945.67C691.87 945.67 689.14 944.92 686.72 943.43C684.75 942.21 683.14 940.56 681.94 938.66C666.61 961.47 658.15 988.53 658.15 1016.46L658.15 1018.21C697.75 1016.63 806.65 1008.7 875.95 969.1C883.15 964.98 892.33 967.48 896.45 974.69C900.56 981.89 898.06 991.07 890.86 995.18C811.75 1040.39 691.38 1047.38 654.24 1048.45C653.22 1049.58 652.04 1050.58 650.69 1051.37C644.62 1054.9 640.99 1061.1 640.99 1067.95C640.99 1078.6 649.65 1087.25 660.3 1087.25L677.46 1087.25C685.75 1087.25 692.48 1093.98 692.48 1102.28L692.48 1119.44C692.48 1177.4 739.63 1224.55 797.59 1224.55C855.55 1224.55 902.71 1177.4 902.71 1119.44ZM1154.9 1086.32L1122.51 1073.37C1103.67 1065.83 1091.49 1047.84 1091.49 1027.55L1091.49 1005.55C1074.29 1011.29 1056.18 1014.32 1037.87 1014.32C1012.7 1014.32 988.38 1008.89 966.11 998.45C966.75 1004.41 967.07 1010.42 967.07 1016.47L967.07 1030.73C977.83 1040.02 984.24 1053.61 984.24 1067.95C984.24 1095.05 962.29 1117.1 935.24 1117.29C957.7 1151.89 996.28 1173.07 1037.87 1173.07C1091.97 1173.07 1139.38 1137.65 1154.9 1086.32Z" />
			<path id="&lt;Path&gt;" class="shp2" d="M841.38 1142.1C834.94 1136.87 825.48 1137.86 820.25 1144.3C814.18 1151.78 806.14 1155.9 797.59 1155.9C789.05 1155.9 781 1151.78 774.94 1144.3C769.71 1137.86 760.25 1136.87 753.81 1142.1C747.36 1147.32 746.38 1156.78 751.6 1163.22C763.32 1177.66 780.08 1185.95 797.59 1185.95C815.11 1185.95 831.87 1177.66 843.59 1163.23C848.81 1156.78 847.82 1147.32 841.38 1142.1Z" />
			<path id="&lt;Path&gt;" class="shp2" d="M746.38 1070.16C754.68 1070.16 761.4 1076.89 761.4 1085.18C761.4 1093.48 754.68 1100.2 746.38 1100.2C738.09 1100.2 731.36 1093.48 731.36 1085.18C731.36 1076.89 738.09 1070.16 746.38 1070.16Z" />
			<path id="&lt;Path&gt;" class="shp2" d="M848.53 1070.16C856.82 1070.16 863.55 1076.89 863.55 1085.18C863.55 1093.48 856.82 1100.2 848.53 1100.2C840.23 1100.2 833.51 1093.48 833.51 1085.18C833.51 1076.89 840.23 1070.16 848.53 1070.16Z" />
		</g>
	</g>
</svg>