<svg version="1.2" baseProfile="tiny-ps" xmlns="http://www.w3.org/2000/svg" viewBox="0 0 1341 1125" width="1341" height="1125">
	<title>Vector Smart Object-ai</title>
	<style>
		tspan { white-space:pre }
		.shp0 { fill: #e0e0e0 } 
		.shp1 { fill: #fafafa } 
		.shp2 { fill: #ffffff } 
		.shp3 { fill: #f0f0f0 } 
		.shp4 { fill: #ffc100 } 
		.shp5 { fill: #000000 } 
		.shp6 { opacity: 0.302;fill: #000000 } 
		.shp7 { opacity: 0.502;fill: #000000 } 
		.shp8 { fill: #263238 } 
		.shp9 { opacity: 0.698;fill: #000000 } 
		.shp10 { opacity: 0.149;fill: #000000 } 
		.shp11 { opacity: 0.502;fill: #ffffff } 
		.shp12 { fill: #455a64 } 
		.shp13 { fill: #37474f } 
		.shp14 { opacity: 0.4;fill: #ffffff } 
		.shp15 { opacity: 0.2;fill: #000000 } 
		.shp16 { opacity: 0.102;fill: #000000 } 
		.shp17 { fill: #70c4a6 } 
		.shp18 { fill: #7fd3b4 } 
		.shp19 { fill: #ffa8a7 } 
		.shp20 { fill: #f28f8f } 
		.shp21 { opacity: 0.4;fill: #000000 } 
	</style>
	<g id="Layer 1">
		<g id="freepik--Shadow--inject-126">
			<path id="freepik--shadow--inject-126" class="shp0" d="M1070.08 1104.66C1023.73 1077.9 1023.73 1034.52 1070.08 1007.76C1116.43 981 1191.58 981 1237.93 1007.76C1284.28 1034.52 1284.28 1077.9 1237.93 1104.66C1191.58 1131.42 1116.43 1131.42 1070.08 1104.66Z" />
			<path id="freepik--shadow--inject-126 1 " class="shp0" d="M127.36 1108.38L5.44 1038C-1.43 1034.04 -1.43 1027.59 5.44 1023.63L714.61 614.19C722.43 610.23 731.66 610.23 739.48 614.19L861.43 684.57C868.3 688.53 868.3 694.98 861.43 698.94L152.26 1108.38C144.43 1112.34 135.19 1112.34 127.36 1108.38Z" />
		</g>
		<g id="freepik--Window--inject-65">
			<g id="freepik--window--inject-65 1 ">
				<g id="freepik--window--inject-65">
					<g id="freepik--Frame--inject-65">
						<path id="&lt;Path&gt;" class="shp1" d="M1292.14 868.88L1285.75 872.72L1068.04 747.02L1074.43 743.21L1292.14 868.88Z" />
						<path id="&lt;Path&gt;" class="shp2" d="M1074.43 743.21L1285.75 865.19L1285.75 366.29L1074.43 244.34L1074.43 743.21Z" />
						<path id="&lt;Compound Path&gt;" fill-rule="evenodd" class="shp3" d="M1055.95 219.68L1297.84 359.3L1297.84 893.63L1055.95 753.98L1055.95 219.68ZM1067.95 747.02L1285.66 872.72L1285.66 366.29L1067.95 240.59L1067.95 747.02Z" />
						<path id="&lt;Path&gt;" class="shp0" d="M1068.04 747.02L1074.43 743.21L1074.43 244.34L1068.04 240.59L1068.04 747.02Z" />
						<path id="&lt;Path&gt;" class="shp1" d="M1285.75 701.24L1285.75 708.74L1068.04 583.04L1074.43 579.23L1285.75 701.24Z" />
						<path id="&lt;Path&gt;" class="shp1" d="M1285.75 508.82L1285.75 516.35L1068.04 390.65L1074.43 386.84L1285.75 508.82Z" />
						<path id="&lt;Path&gt;" class="shp1" d="M1055.95 219.68L1062.46 215.96L1304.32 355.58L1297.84 359.3L1055.95 219.68Z" />
						<path id="&lt;Path&gt;" class="shp0" d="M1304.32 355.58L1297.84 359.3L1297.84 893.63L1304.32 889.91L1304.32 355.58Z" />
						<path id="&lt;Path&gt;" class="shp0" d="M1192.63 312.53L1186.12 308.78L1186.12 815.21L1192.63 811.49L1192.63 312.53Z" />
					</g>
					<path id="&lt;Path&gt;" class="shp3" d="M1174.06 301.82L1186.12 308.78L1186.12 815.21L1174.06 808.22L1174.06 301.82Z" />
					<path id="&lt;Path&gt;" class="shp3" d="M1055.95 383.69L1055.95 397.61L1297.84 537.26L1297.84 523.31L1055.95 383.69Z" />
					<path id="&lt;Path&gt;" class="shp3" d="M1055.95 576.05L1055.95 589.97L1297.84 729.62L1297.84 715.7L1055.95 576.05Z" />
					<path id="&lt;Path&gt;" class="shp1" d="M1186.12 458.84L1192.63 455.06L1285.75 508.82L1285.75 516.35L1186.12 458.84Z" />
					<path id="&lt;Path&gt;" class="shp1" d="M1186.12 651.17L1192.63 647.39L1285.75 701.15L1285.75 708.68L1186.12 651.17Z" />
				</g>
			</g>
		</g>
		<g id="freepik--Device--inject-126">
			<g id="freepik--device--inject-126">
				<path id="&lt;Path&gt;" class="shp4" d="M565.6 982.92L670.42 922.32C681.22 916.08 686.62 907.92 686.62 899.73C686.62 894.27 686.62 889.41 686.62 885.15L577.9 823.83C571.74 819.85 567.86 813.15 567.46 805.83L567.46 676.56L384.46 782.34L384.46 911.55C384.89 918.87 388.76 925.55 394.9 929.55L487.42 982.83C508.96 995.4 544 995.4 565.6 982.92Z" />
				<g id="&lt;Group&gt;" style="opacity: 0.6">
					<path id="&lt;Path&gt;" class="shp5" d="M565.6 982.92L670.42 922.32C681.22 916.08 686.62 907.92 686.62 899.73C686.62 894.27 686.62 889.41 686.62 885.15L577.9 823.83C571.74 819.85 567.86 813.15 567.46 805.83L567.46 676.56L384.46 782.34L384.46 911.55C384.89 918.87 388.76 925.55 394.9 929.55L487.42 982.83C508.96 995.4 544 995.4 565.6 982.92Z" />
				</g>
				<path id="&lt;Path&gt;" class="shp6" d="M428.35 934.44L428.35 948.96L394.81 929.61C388.67 925.61 384.81 918.93 384.4 911.61L384.4 782.34L419.26 762.21C419.98 771.06 420.76 780.21 421.51 789.21L397 803.31L397 904.26C397.39 911.59 401.28 918.28 407.44 922.26L428.35 934.44Z" />
				<path id="&lt;Path&gt;" class="shp4" d="M397 904.29C397.42 911.61 401.29 918.29 407.44 922.29L487.3 968.31C508.9 980.76 543.94 980.79 565.57 968.31L670.57 907.71C692.2 895.23 692.2 875.01 670.57 862.53L590.65 816.51C584.52 812.5 580.66 805.82 580.24 798.51L580.24 697.53L397.24 803.31L397 904.29Z" />
				<path id="&lt;Path&gt;" class="shp6" d="M397 904.29C397.42 911.61 401.29 918.29 407.44 922.29L487.3 968.31C508.9 980.76 543.94 980.79 565.57 968.31L670.57 907.71C692.2 895.23 692.2 875.01 670.57 862.53L590.65 816.51C584.52 812.5 580.66 805.82 580.24 798.51L580.24 697.53L397.24 803.31L397 904.29Z" />
				<path id="&lt;Path&gt;" class="shp7" d="M611.8 828.84L590.53 816.57C584.4 812.56 580.54 805.88 580.12 798.57L580.12 697.53L397.12 803.31L397.12 904.29C397.54 911.61 401.41 918.29 407.56 922.29L428.56 934.29L611.8 828.84Z" />
				<path id="&lt;Path&gt;" class="shp4" d="M686.65 885.18L686.65 899.76C686.65 907.95 681.22 916.08 670.45 922.35L565.45 982.92C553.96 989.05 541.13 992.24 528.1 992.19L528.1 977.67C541.13 977.72 553.96 974.53 565.45 968.4L670.45 907.77C681.22 901.56 686.65 893.37 686.65 885.18Z" />
				<path id="&lt;Path&gt;" class="shp7" d="M686.65 885.18L686.65 899.76C686.65 907.95 681.22 916.08 670.45 922.35L565.45 982.92C553.96 989.05 541.13 992.24 528.1 992.19L528.1 977.67C541.13 977.72 553.96 974.53 565.45 968.4L670.45 907.77C681.22 901.56 686.65 893.37 686.65 885.18Z" />
				<path id="&lt;Path&gt;" class="shp4" d="M103 1029.78C111.02 1033.66 120.41 1033.49 128.29 1029.33L836.29 620.58C843.99 615.56 848.84 607.17 849.34 597.99L849.34 25.23C849.07 16.3 844.54 8.04 837.16 3C829.15 -0.88 819.76 -0.7 811.9 3.48L103.9 412.35C96.23 417.4 91.43 425.82 91 435L91 1007.67C91.27 1016.52 95.72 1024.73 103 1029.78Z" />
				<path id="&lt;Path&gt;" class="shp4" d="M128.38 1029.3L836.38 620.55C844.09 615.54 848.94 607.14 849.43 597.96L849.43 25.23C849.43 16.92 843.58 13.53 836.38 17.7L128.38 426.45C120.68 431.47 115.83 439.86 115.33 449.04L115.33 1021.77C115.33 1030.08 121.18 1033.47 128.38 1029.3Z" />
				<path id="&lt;Path&gt;" class="shp7" d="M128.38 1029.3L836.38 620.55C844.09 615.54 848.94 607.14 849.43 597.96L849.43 25.23C849.43 16.92 843.58 13.53 836.38 17.7L128.38 426.45C120.68 431.47 115.83 439.86 115.33 449.04L115.33 1021.77C115.33 1030.08 121.18 1033.47 128.38 1029.3Z" />
				<path id="&lt;Path&gt;" class="shp4" d="M126.46 1044.18C118.95 1047.46 110.37 1047.28 103 1043.7C95.71 1038.63 91.25 1030.41 91 1021.53L91 969.39L115.45 983.55L115.45 1035.69C115.3 1043.28 120.13 1046.73 126.46 1044.18Z" />
				<path id="&lt;Path&gt;" class="shp7" d="M126.46 1044.18C118.95 1047.46 110.37 1047.28 103 1043.7C95.71 1038.63 91.25 1030.41 91 1021.53L91 969.39L115.45 983.55L115.45 1035.69C115.3 1043.28 120.13 1046.73 126.46 1044.18Z" />
				<path id="&lt;Path&gt;" class="shp4" d="M115.3 983.55L115.3 1035.69C115.3 1044 121.3 1047.36 128.35 1043.22L836.35 634.47C844.02 629.47 848.86 621.14 849.4 612L849.4 559.62L115.3 983.55Z" />
				<path id="&lt;Path&gt;" class="shp6" d="M115.33 983.43L115.33 1035.69C115.33 1044 121.33 1047.36 128.38 1043.22L836.38 634.47C844.04 629.47 848.87 621.13 849.4 612L849.4 559.62L115.33 983.43Z" />
				<path id="&lt;Path&gt;" class="shp4" d="M139.78 918L139.78 457.17C140.06 451.66 142.96 446.62 147.58 443.61L817 57C821.32 54.51 824.83 56.52 824.83 61.5L824.83 522.57C824.54 528.08 821.63 533.12 817 536.13L147.61 922.65C143.29 925.14 139.78 923.1 139.78 918Z" />
				<path id="&lt;Path&gt;" class="shp8" d="M139.78 918L139.78 457.17C140.06 451.66 142.96 446.62 147.58 443.61L817 57C821.32 54.51 824.83 56.52 824.83 61.5L824.83 522.57C824.54 528.08 821.63 533.12 817 536.13L147.61 922.65C143.29 925.14 139.78 923.1 139.78 918Z" />
				<path id="&lt;Path&gt;" class="shp4" d="M482.35 788.19C475.12 792.89 470.57 800.76 470.11 809.37C470.11 817.17 475.6 820.35 482.35 816.45C489.59 811.74 494.14 803.86 494.59 795.24C494.59 787.44 489.1 784.29 482.35 788.19Z" />
				<path id="&lt;Path&gt;" class="shp9" d="M119.17 436.14C116.84 440.05 115.52 444.47 115.3 449.01L115.3 983.55L91 969.39L91 435C91.16 430.44 92.48 426 94.84 422.1L119.17 436.14Z" />
				<path id="&lt;Path&gt;" class="shp6" d="M849.28 23.07C848.35 16.35 842.92 14.07 836.35 17.7L128.35 426.45C124.51 428.85 121.34 432.18 119.14 436.14L94.66 422.01C96.88 418.06 100.06 414.72 103.9 412.32L811.9 3.6C819.77 -0.58 829.17 -0.76 837.19 3.12C843.92 7.7 848.33 14.98 849.28 23.07Z" />
			</g>
		</g>
		<g id="freepik--Window--inject-126">
			<g id="freepik--window--inject-126 2 ">
				<g id="freepik--window--inject-126 1 ">
					<g id="freepik--window--inject-126">
						<path id="&lt;Path&gt;" class="shp4" d="M887.47 93.57C885.33 92.49 882.76 92.69 880.81 94.08L212.77 480C207.42 483.54 204.08 489.41 203.77 495.81L203.77 953.82C203.58 956.96 205.05 959.98 207.64 961.77C209.11 962.58 216.97 967.14 219.31 968.4C221 969.26 223.01 969.14 224.59 968.1L892.48 582.18C897.83 578.64 901.17 572.77 901.48 566.37L901.48 105.99C901.75 103.62 900.66 101.29 898.66 99.99C897.16 99 889.15 94.56 887.47 93.57Z" />
						<path id="&lt;Path&gt;" class="shp1" d="M224.44 486.48L892.51 100.71C897.55 97.71 901.51 100.17 901.51 105.99L901.51 566.37C901.2 572.77 897.86 578.64 892.51 582.18L224.44 968.1C219.4 971.1 215.44 966.27 215.44 960.45L215.44 502.29C215.76 495.89 219.1 490.02 224.44 486.48Z" />
						<path id="&lt;Compound Path&gt;" fill-rule="evenodd" class="shp0" d="M896.59 99.45C896.58 99.45 896.57 99.45 896.56 99.45C896.52 99.45 896.48 99.45 896.44 99.45L896.59 99.45ZM896.56 99.45C899.49 99.51 901.48 101.91 901.48 105.99L901.48 566.37C901.17 572.77 897.83 578.64 892.48 582.18L224.44 968.1C223.53 968.65 222.5 968.95 221.44 968.97C218.02 968.97 215.44 965.07 215.44 960.45L215.44 502.29C215.76 495.89 219.1 490.02 224.44 486.48L892.51 100.71C893.73 99.95 895.13 99.52 896.56 99.45ZM894.01 103.29L226 489C221.57 492.02 218.79 496.93 218.5 502.29L218.5 960.45C218.5 963.39 219.82 965.97 221.5 965.97C222.03 965.95 222.55 965.78 223 965.49L890.98 579.57C895.47 576.62 898.3 571.73 898.63 566.37L898.63 105.99C898.63 104.67 898.36 102.45 896.59 102.45C895.67 102.5 894.78 102.79 894.01 103.29Z" />
						<path id="&lt;Path&gt;" class="shp3" d="M207.46 961.77C208.45 962.28 215.56 966.33 218.68 968.13C216.41 966.25 215.16 963.4 215.32 960.45L215.32 532.2L203.62 525.36L203.62 953.82C203.42 956.96 204.88 959.97 207.46 961.77Z" />
						<path id="&lt;Path&gt;" class="shp4" d="M901.63 105.9C901.63 100.14 897.52 97.8 892.63 100.71L224.44 486.48C219.1 490.02 215.76 495.89 215.44 502.29L215.44 532.29L901.63 135.9L901.63 105.9Z" />
						<g id="&lt;Group&gt;" style="opacity: 0.4">
							<path id="&lt;Path&gt;" class="shp2" d="M892.51 100.71L224.44 486.45C221.76 488.14 219.55 490.48 218.02 493.26L206.41 486.51C207.94 483.83 210.13 481.59 212.77 480L880.81 94.08C882.76 92.68 885.32 92.47 887.47 93.54C889.09 94.56 896.68 98.85 898.63 99.9C896.58 99.14 894.29 99.44 892.51 100.71Z" />
						</g>
						<path id="&lt;Path&gt;" class="shp10" d="M203.62 525.39L203.62 495.66C203.74 492.42 204.7 489.27 206.41 486.51L218.05 493.23C216.37 495.94 215.43 499.04 215.32 502.23L215.32 532.23L203.62 525.39Z" />
					</g>
				</g>
				<path id="&lt;Path&gt;" class="shp4" d="M760.75 451.26L360.64 682.26C356.69 684.82 354.21 689.11 353.95 693.81L353.95 808.53C354.21 813.23 356.69 817.52 360.64 820.08L372.31 826.8C376.52 828.93 381.48 828.93 385.69 826.8L785.74 595.8C789.69 593.23 792.17 588.93 792.43 584.22L792.43 469.47C792.17 464.77 789.69 460.48 785.74 457.92L774.04 451.2C769.85 449.11 764.92 449.13 760.75 451.26Z" />
				<path id="&lt;Path&gt;" class="shp11" d="M792.43 468.45C791.95 465 789.16 463.74 785.8 465.69L385.69 696.69C383.72 697.92 382.09 699.63 380.98 701.67L355.93 687.21C357.05 685.2 358.66 683.51 360.61 682.29L760.75 451.29C764.94 449.16 769.91 449.16 774.1 451.29L785.8 458.01C789.41 460.37 791.82 464.18 792.43 468.45Z" />
				<path id="&lt;Path&gt;" class="shp8" d="M384.55 827.37C380.59 828.93 376.15 828.74 372.34 826.83L360.64 820.11C356.7 817.54 354.22 813.25 353.95 808.56L353.95 693.84C354.04 691.5 354.72 689.22 355.93 687.21L380.98 701.67C379.76 703.65 379.08 705.92 379 708.24L379 822.99C379 826.8 381.4 828.57 384.55 827.37Z" />
				<path id="&lt;Path&gt;" class="shp4" d="M385.69 696.69L785.8 465.69C789.49 463.56 792.49 465.27 792.49 469.53L792.49 584.28C792.23 588.99 789.75 593.29 785.8 595.86L385.75 826.86C382.06 828.99 379.06 827.25 379.06 822.99L379.06 708.27C379.3 703.58 381.77 699.28 385.69 696.69Z" />
				<path id="&lt;Path&gt;" class="shp12" d="M654.67 512.52L360.67 682.29C358.72 683.51 357.11 685.2 355.99 687.21L381.04 701.67C382.15 699.63 383.78 697.92 385.75 696.69L679.75 526.95L654.67 512.52Z" />
				<path id="&lt;Path&gt;" class="shp13" d="M679.69 526.95L385.69 696.69C381.74 699.26 379.26 703.56 379 708.27L379 822.96C379 827.22 382 828.96 385.69 826.83L679.69 657.09L679.69 526.95Z" />
				<path id="&lt;Path&gt;" class="shp4" d="M453.49 682.71L605.2 595.14C611.47 591.51 616.57 594.09 616.57 600.9C616 608.66 611.77 615.68 605.17 619.8L453.49 707.4C447.22 711.03 442.09 708.45 442.09 701.64C442.66 693.88 446.9 686.85 453.49 682.71Z" />
				<path id="&lt;Path&gt;" class="shp1" d="M484.57 711.72C484.68 711.6 484.87 711.58 484.99 711.69C485 711.7 485.01 711.71 485.02 711.72C485.15 711.92 485.22 712.17 485.2 712.41L485.2 729.48C485.2 731.13 485.06 732.78 484.78 734.4C484.53 735.88 484.11 737.33 483.52 738.72C482.98 739.99 482.28 741.18 481.42 742.26C480.58 743.26 479.56 744.11 478.42 744.75C477.53 745.33 476.49 745.64 475.42 745.65C474.6 745.58 473.84 745.18 473.32 744.54C472.66 743.66 472.23 742.63 472.06 741.54C471.77 740.09 471.64 738.61 471.67 737.13L471.67 720.03C471.67 719.73 471.73 719.43 471.85 719.16C471.92 718.91 472.08 718.7 472.3 718.56L474.19 717.45C474.32 717.33 474.51 717.33 474.64 717.45C474.78 717.65 474.84 717.9 474.82 718.14L474.82 735C474.8 735.93 474.89 736.85 475.09 737.76C475.17 738.34 475.42 738.88 475.81 739.32C476.08 739.65 476.49 739.82 476.92 739.8C477.43 739.77 477.93 739.6 478.36 739.32C478.89 739 479.38 738.61 479.8 738.15C480.27 737.61 480.65 737 480.94 736.35C481.28 735.58 481.53 734.78 481.69 733.95C481.86 732.96 481.95 731.96 481.93 730.95L481.93 714.06C481.94 713.76 482.01 713.46 482.14 713.19C482.21 712.94 482.37 712.73 482.59 712.59L484.57 711.72Z" />
				<path id="&lt;Path&gt;" class="shp1" d="M496.33 727.86C496.35 727.64 496.29 727.42 496.18 727.23C496.04 727.07 495.82 726.99 495.61 727.02C495.24 726.97 494.87 726.97 494.5 727.02L492.76 727.35C492.2 727.49 491.61 727.49 491.05 727.35C490.61 727.21 490.23 726.92 489.97 726.54C489.68 726.05 489.48 725.51 489.4 724.95C489.11 723.34 489.11 721.7 489.4 720.09C489.63 719.17 489.95 718.27 490.36 717.42C490.77 716.57 491.27 715.76 491.86 715.02C492.43 714.31 493.12 713.71 493.9 713.25C494.53 712.87 495.24 712.62 495.97 712.53C496.5 712.47 497.04 712.59 497.5 712.86C497.94 713.13 498.29 713.53 498.49 714C498.73 714.56 498.86 715.16 498.88 715.77C498.91 716.07 498.85 716.38 498.7 716.64C498.63 716.89 498.47 717.1 498.25 717.24L496.45 718.29C496.28 718.39 496.08 718.39 495.91 718.29L495.52 717.99C495.36 717.87 495.18 717.79 494.98 717.78C494.59 717.82 494.22 717.96 493.9 718.17C493.43 718.45 493.01 718.82 492.67 719.25C492.31 719.72 492.12 720.3 492.13 720.9C492.09 721.13 492.09 721.36 492.13 721.59C492.25 721.76 492.43 721.87 492.64 721.89C492.97 721.94 493.3 721.94 493.63 721.89L495.31 721.59C496.72 721.32 497.68 721.59 498.31 722.37C498.97 723.48 499.28 724.77 499.18 726.06C499.17 726.95 499.05 727.84 498.82 728.7C498.58 729.64 498.24 730.54 497.8 731.4C497.36 732.29 496.8 733.12 496.15 733.86C495.53 734.59 494.79 735.21 493.96 735.69C493.3 736.11 492.55 736.37 491.77 736.44C491.21 736.46 490.65 736.3 490.18 735.99C489.72 735.67 489.36 735.22 489.16 734.7C488.92 734.13 488.8 733.52 488.8 732.9C488.77 732.59 488.83 732.28 488.98 732C489.05 731.75 489.21 731.54 489.43 731.4L491.23 730.35C491.47 730.35 491.65 730.2 491.77 730.35L492.16 730.77C492.32 730.95 492.55 731.06 492.79 731.07C493.21 731.07 493.62 730.94 493.96 730.68C494.5 730.37 494.99 729.98 495.4 729.51C495.6 729.26 495.78 728.99 495.91 728.7C496.12 728.46 496.27 728.17 496.33 727.86Z" />
				<path id="&lt;Compound Path&gt;" fill-rule="evenodd" class="shp1" d="M502.45 719.73C502.44 718.17 502.57 716.62 502.84 715.08C503.09 713.64 503.48 712.22 504.01 710.85C504.45 709.62 505.06 708.46 505.81 707.4C506.44 706.49 507.26 705.72 508.21 705.15C508.91 704.68 509.75 704.5 510.58 704.64C511.31 704.81 511.96 705.25 512.38 705.87C512.94 706.68 513.34 707.6 513.55 708.57C513.84 709.83 513.98 711.12 513.97 712.41L513.97 714.27C513.98 714.58 513.91 714.89 513.76 715.17C513.69 715.42 513.53 715.63 513.31 715.77L505.51 720.3C505.49 720.83 505.56 721.36 505.72 721.86C505.84 722.2 506.04 722.5 506.32 722.73C506.57 722.93 506.88 723.02 507.19 723C507.55 722.96 507.9 722.83 508.21 722.64C508.66 722.39 509.07 722.07 509.41 721.68C509.72 721.33 509.98 720.95 510.19 720.54C510.32 720.3 510.46 720.07 510.61 719.85C510.74 719.7 510.89 719.57 511.06 719.46L512.92 718.38C513.05 718.27 513.24 718.27 513.37 718.38C513.53 718.57 513.6 718.82 513.55 719.07C513.52 719.65 513.4 720.23 513.19 720.78C512.93 721.61 512.59 722.42 512.17 723.18C511.7 724.06 511.14 724.88 510.49 725.64C509.84 726.41 509.07 727.07 508.21 727.59C507.5 728.05 506.65 728.26 505.81 728.16C505.07 727.98 504.43 727.53 504.01 726.9C503.42 725.99 503.02 724.97 502.84 723.9C502.57 722.53 502.44 721.13 502.45 719.73ZM508.21 710.16C507.75 710.41 507.35 710.76 507.04 711.18C506.71 711.6 506.43 712.06 506.23 712.56C506.02 713.06 505.85 713.57 505.72 714.09C505.61 714.56 505.54 715.05 505.51 715.53L510.79 712.53C510.76 712.12 510.7 711.71 510.61 711.3C510.56 710.94 510.42 710.59 510.19 710.31C510.01 710.05 509.73 709.87 509.41 709.83C508.98 709.79 508.56 709.91 508.21 710.16L508.21 710.16Z" />
				<path id="&lt;Path&gt;" class="shp1" d="M523.39 701.79C522.48 702.31 521.76 703.11 521.35 704.07C520.88 705.34 520.67 706.68 520.72 708.03L520.72 718.86C520.72 719.17 520.66 719.48 520.54 719.76C520.47 720.01 520.31 720.22 520.09 720.36L518.32 721.38C518.21 721.5 518.02 721.52 517.9 721.41C517.89 721.4 517.88 721.39 517.87 721.38C517.74 721.18 517.67 720.93 517.69 720.69L517.69 701.28C517.69 700.97 517.75 700.67 517.87 700.38C517.95 700.14 518.11 699.93 518.32 699.78L520.09 698.76C520.22 698.64 520.41 698.64 520.54 698.76C520.68 698.95 520.74 699.19 520.72 699.42L520.72 700.38C521.08 699.58 521.52 698.81 522.04 698.1C522.51 697.44 523.13 696.9 523.84 696.51L524.92 695.88C525.04 695.77 525.22 695.77 525.34 695.88C525.48 696.08 525.56 696.32 525.55 696.57L525.55 699.3C525.54 699.61 525.47 699.92 525.34 700.2C525.26 700.44 525.12 700.65 524.92 700.8L523.39 701.79Z" />
				<path id="&lt;Path&gt;" class="shp1" d="M545.77 700.35C545.88 700.23 546.07 700.21 546.19 700.32C546.2 700.33 546.21 700.34 546.22 700.35C546.35 700.55 546.42 700.8 546.4 701.04L546.4 704.04C546.4 704.35 546.34 704.65 546.22 704.94C546.12 705.16 545.96 705.36 545.77 705.51L535.51 711.51C535.38 711.63 535.19 711.63 535.06 711.51C534.93 711.32 534.86 711.08 534.88 710.85L534.88 683.85C534.88 683.54 534.94 683.24 535.06 682.95C535.14 682.72 535.3 682.52 535.51 682.38L537.4 681.27C537.53 681.15 537.72 681.15 537.85 681.27C537.98 681.46 538.05 681.7 538.03 681.93L538.03 704.76L545.77 700.35Z" />
				<path id="&lt;Compound Path&gt;" fill-rule="evenodd" class="shp1" d="M554.98 678.15C555.66 677.68 556.47 677.46 557.29 677.52C557.99 677.58 558.65 677.9 559.12 678.42C559.68 679.06 560.09 679.82 560.32 680.64C560.64 681.7 560.82 682.8 560.86 683.91C560.86 684.15 560.86 684.48 560.86 684.87C560.86 685.23 560.86 687.87 560.86 688.14C560.8 689.44 560.62 690.74 560.32 692.01C560.04 693.25 559.64 694.45 559.12 695.61C558.64 696.69 558.03 697.69 557.29 698.61C556.66 699.44 555.87 700.14 554.98 700.68C554.29 701.13 553.47 701.35 552.64 701.31C551.95 701.25 551.3 700.93 550.84 700.41C550.26 699.79 549.85 699.04 549.64 698.22C549.32 697.16 549.14 696.06 549.1 694.95C549.1 694.71 549.1 694.41 549.1 694.02C549.1 693.63 549.1 690.99 549.1 690.75C549.14 689.44 549.31 688.13 549.61 686.85C549.9 685.6 550.31 684.39 550.84 683.22C551.32 682.15 551.92 681.14 552.64 680.22C553.28 679.38 554.07 678.68 554.98 678.15ZM557.8 685.89C557.8 685.23 557.69 684.57 557.47 683.94C557.36 683.56 557.13 683.22 556.81 682.98C556.55 682.81 556.25 682.73 555.94 682.77C555.6 682.83 555.27 682.97 554.98 683.16C554.63 683.35 554.3 683.6 554.02 683.88C553.68 684.24 553.38 684.64 553.15 685.08C552.85 685.63 552.63 686.21 552.49 686.82C552.29 687.59 552.17 688.37 552.13 689.16C552.13 689.4 552.13 689.67 552.13 690C552.13 690.33 552.13 692.73 552.13 692.91C552.16 693.57 552.28 694.23 552.49 694.86C552.6 695.24 552.83 695.58 553.15 695.82C553.4 696 553.72 696.06 554.02 696C554.36 695.94 554.69 695.82 554.98 695.64C555.33 695.44 555.65 695.2 555.94 694.92C556.27 694.55 556.57 694.15 556.81 693.72C557.1 693.17 557.32 692.58 557.47 691.98C557.67 691.21 557.78 690.43 557.8 689.64C557.82 689.36 557.82 689.08 557.8 688.8L557.8 686.7C557.82 686.43 557.82 686.16 557.8 685.89Z" />
				<path id="&lt;Compound Path&gt;" fill-rule="evenodd" class="shp1" d="M570.04 695.7C570.42 695.47 570.77 695.17 571.06 694.83C571.42 694.41 571.73 693.94 571.99 693.45C572.29 692.85 572.52 692.21 572.68 691.56C572.86 690.82 572.96 690.07 572.95 689.31L572.95 687.78C572.95 688.08 572.65 688.44 572.44 688.86C572.23 689.3 571.99 689.72 571.72 690.12C571.41 690.54 571.07 690.94 570.7 691.32C570.32 691.71 569.89 692.05 569.41 692.31C568.79 692.73 568.02 692.89 567.28 692.73C566.61 692.52 566.04 692.09 565.66 691.5C565.17 690.72 564.82 689.87 564.61 688.98C564.35 687.85 564.21 686.69 564.19 685.53C564.19 685.14 564.19 684.66 564.19 684.09C564.19 683.52 564.19 683.04 564.19 682.62C564.23 681.3 564.37 679.99 564.61 678.69C564.86 677.41 565.21 676.16 565.66 674.94C566.08 673.88 566.63 672.88 567.28 671.94C567.83 671.11 568.56 670.42 569.41 669.9C569.81 669.66 570.24 669.49 570.7 669.39C571.04 669.33 571.38 669.33 571.72 669.39C571.99 669.46 572.23 669.6 572.44 669.78C572.63 669.93 572.8 670.1 572.95 670.29L572.95 669.33C572.95 669.02 573.01 668.72 573.13 668.43C573.21 668.2 573.37 668 573.58 667.86L575.35 666.81C575.48 666.69 575.67 666.69 575.8 666.81C575.94 667.01 576.02 667.25 576.01 667.5L576.01 687C576.09 689.92 575.55 692.83 574.42 695.52C573.53 697.64 572 699.42 570.04 700.62C569.37 701.04 568.61 701.27 567.82 701.31C567.2 701.35 566.58 701.19 566.05 700.86C565.54 700.48 565.13 699.99 564.85 699.42C564.56 698.74 564.39 698 564.37 697.26C564.34 696.95 564.4 696.64 564.55 696.36C564.62 696.11 564.78 695.9 565 695.76L566.59 694.86C566.74 694.7 566.98 694.69 567.14 694.84C567.15 694.85 567.15 694.85 567.16 694.86C567.31 695.02 567.44 695.19 567.55 695.37C567.73 695.69 568.03 695.93 568.39 696.03C568.75 696.3 569.29 696 570.04 695.7ZM567.22 681.15C567.22 681.95 567.22 682.73 567.22 683.49C567.13 684.69 567.47 685.88 568.18 686.85C568.73 687.33 569.55 687.33 570.1 686.85C570.97 686.28 571.65 685.47 572.05 684.51C572.6 683.26 572.9 681.91 572.95 680.55C572.95 680.1 572.95 679.56 572.95 678.93C572.95 678.3 572.95 677.76 572.95 677.37C573.01 676.3 572.69 675.23 572.05 674.37C571.5 673.86 570.65 673.86 570.1 674.37C569.25 674.93 568.58 675.74 568.18 676.68C567.56 678.09 567.24 679.61 567.22 681.15L567.22 681.15Z" />
				<path id="&lt;Compound Path&gt;" class="shp1" d="M583 654.51C583.12 654.41 583.3 654.41 583.42 654.51C583.58 654.7 583.65 654.95 583.63 655.2L583.63 658.47C583.63 658.78 583.56 659.09 583.42 659.37C583.34 659.6 583.19 659.79 583 659.94L580.99 661.11C580.88 661.23 580.69 661.25 580.57 661.14C580.56 661.13 580.55 661.12 580.54 661.11C580.38 660.93 580.31 660.69 580.33 660.45L580.33 657.18C580.33 656.87 580.4 656.56 580.54 656.28C580.62 656.05 580.78 655.85 580.99 655.71L583 654.51ZM583.51 682.68C583.51 682.98 583.45 683.28 583.33 683.55C583.23 683.79 583.08 683.99 582.88 684.15L581.08 685.17C580.99 685.29 580.82 685.3 580.7 685.21C580.69 685.2 580.67 685.18 580.66 685.17C580.5 684.98 580.43 684.73 580.45 684.48L580.45 665.07C580.45 664.76 580.52 664.45 580.66 664.17C580.74 663.94 580.89 663.73 581.08 663.57L582.88 662.55C583.01 662.43 583.2 662.43 583.33 662.55C583.46 662.74 583.53 662.98 583.51 663.21L583.51 682.68Z" />
				<path id="&lt;Path&gt;" class="shp1" d="M599.29 673.53C599.29 673.84 599.23 674.14 599.11 674.43C599.03 674.66 598.87 674.86 598.66 675L596.86 676.05C596.74 676.16 596.56 676.16 596.44 676.05C596.28 675.86 596.21 675.61 596.23 675.36L596.23 664.8C596.32 663.55 596.1 662.3 595.57 661.17C595.15 660.42 594.49 660.3 593.56 660.84C592.63 661.46 591.94 662.38 591.61 663.45C591.11 664.87 590.87 666.36 590.89 667.86L590.89 678.45C590.89 678.76 590.83 679.06 590.71 679.35C590.64 679.6 590.48 679.81 590.26 679.95L588.49 680.97C588.38 681.09 588.19 681.11 588.07 681C588.06 680.99 588.05 680.98 588.04 680.97C587.9 680.78 587.84 680.54 587.86 680.31L587.86 660.9C587.86 660.59 587.92 660.28 588.04 660C588.11 659.75 588.27 659.54 588.49 659.4L590.26 658.38C590.37 658.26 590.56 658.24 590.68 658.35C590.69 658.36 590.7 658.37 590.71 658.38C590.84 658.58 590.91 658.83 590.89 659.07L590.89 660C591.28 659.09 591.77 658.21 592.33 657.39C592.82 656.63 593.49 656 594.28 655.56C594.96 655.06 595.81 654.85 596.65 654.96C597.32 655.13 597.89 655.58 598.21 656.19C598.65 657 598.93 657.89 599.05 658.8C599.21 659.99 599.29 661.2 599.29 662.4L599.29 673.53Z" />
				<path id="&lt;Path&gt;" class="shp12" d="M750.61 586.2L721.48 603L726.01 562.14C722.5 560.28 720.28 555.75 720.28 549.24C720.28 537.63 727.36 524.16 736.06 519.24C744.76 514.32 751.81 519.54 751.81 531.24C751.63 538.12 749.67 544.84 746.11 550.74L750.61 586.2Z" />
				<path id="&lt;Path&gt;" class="shp13" d="M750.64 586.2L724.99 571.41L721.48 603.03L750.64 586.2Z" />
				<path id="&lt;Path&gt;" class="shp13" d="M736 519.15C729.66 523.44 724.93 529.72 722.56 537L746.05 550.56C749.61 544.66 751.57 537.94 751.75 531.06C751.81 519.45 744.76 514.14 736 519.15Z" />
				<path id="&lt;Path&gt;" class="shp4" d="M594.4 383.1C584.41 377.34 570.64 378.15 555.4 386.94C524.98 404.52 500.32 447.21 500.32 482.34C500.32 499.98 506.56 512.34 516.58 518.04L535.99 529.32C545.95 535.08 559.72 534.24 574.99 525.45C605.41 507.9 630.07 465.18 630.07 430.05C630.07 412.5 623.89 400.05 613.93 394.44" />
				<path id="&lt;Path&gt;" class="shp4" d="M574.96 398.25C544.54 415.83 519.88 458.55 519.88 493.65C519.88 528.75 544.54 543.03 574.96 525.45C605.38 507.87 630.07 465.18 630.04 430.05C630.01 394.92 605.35 380.7 574.96 398.25Z" />
				<path id="&lt;Path&gt;" class="shp4" d="M605.35 476.19L605.35 480.21C598.06 493.22 587.61 504.18 574.96 512.07C563.11 518.88 552.4 519.63 544.54 515.28L544.54 507C545.36 489.52 554.59 473.52 569.32 464.07L577.33 459.45C584.41 455.37 591.31 454.83 596.71 457.98C602.11 461.13 605.35 467.76 605.35 476.19Z" />
				<path id="&lt;Path&gt;" class="shp14" d="M594.4 383.1L613.9 394.44C603.94 388.65 590.17 389.46 574.9 398.25C554.98 409.77 537.52 432.06 527.86 455.94L508.33 444.63C518.02 420.63 535.33 398.46 555.37 386.94C570.67 378.18 584.44 377.34 594.4 383.1Z" />
				<path id="&lt;Path&gt;" class="shp15" d="M535.3 528.87L516.61 518.04C506.59 512.34 500.35 500.04 500.35 482.34L519.88 493.68C520 510.78 525.76 522.96 535.3 528.87Z" />
				<path id="&lt;Path&gt;" class="shp16" d="M508.39 444.63L527.92 455.94C522.92 467.9 520.23 480.69 520 493.65L500.47 482.31C500.71 469.36 503.4 456.58 508.39 444.63Z" />
				<path id="&lt;Path&gt;" class="shp2" d="M568 457.56C566.14 457.58 564.31 457.1 562.69 456.18C558.72 453.53 556.52 448.93 556.96 444.18C557.48 433.09 563.34 422.94 572.68 416.94C577.76 412.89 585.16 413.72 589.21 418.79C591.26 421.36 592.14 424.67 591.64 427.92C591.11 439.01 585.26 449.16 575.92 455.16C573.54 456.65 570.81 457.47 568 457.56Z" />
				<path id="&lt;Path&gt;" class="shp2" d="M596.71 457.95C591.31 454.8 584.41 455.34 577.33 459.42L569.32 464.04C554.58 473.5 545.35 489.51 544.54 507L544.54 515.31C552.4 519.66 563.11 518.91 574.96 512.1C587.61 504.21 598.06 493.25 605.35 480.24L605.35 476.22C605.35 467.76 602.23 461.13 596.71 457.95Z" />
			</g>
		</g>
		<g id="freepik--Plants--inject-126">
			<g id="freepik--plants--inject-126">
				<path id="&lt;Path&gt;" class="shp4" d="M1213.45 976.95C1216.11 953.59 1223.25 932.84 1234.87 914.7C1252.3 887.49 1276.24 870.54 1298.59 868.77C1320.94 867 1339 887.58 1315.09 901.77C1291.18 915.96 1248.7 930.3 1229.14 983.1L1213.45 976.95Z" />
				<path id="&lt;Path&gt;" class="shp17" d="M1213.45 976.95C1216.11 953.59 1223.25 932.84 1234.87 914.7C1252.3 887.49 1276.24 870.54 1298.59 868.77C1320.94 867 1339 887.58 1315.09 901.77C1291.18 915.96 1248.7 930.3 1229.14 983.1L1213.45 976.95Z" />
				<path id="&lt;Path&gt;" class="shp2" d="M1220.02 967.83L1219.78 967.83C1219.17 967.58 1218.87 966.88 1219.12 966.27C1242.7 908.22 1287.58 883.95 1308.04 879.27C1308.69 879.12 1309.33 879.52 1309.48 880.17C1309.63 880.82 1309.23 881.46 1308.58 881.61C1288.54 886.23 1244.53 910.05 1221.34 967.2C1221.1 967.69 1220.55 967.95 1220.02 967.83Z" />
				<path id="&lt;Path&gt;" class="shp18" d="M1339.36 968.52C1337.35 973.08 1332.37 975.48 1327.75 977.34C1323.13 979.2 1318.09 981.21 1315.57 985.53C1310.53 994.23 1318.81 1006.53 1313.41 1014.96C1310.84 1018.39 1306.98 1020.62 1302.73 1021.14C1299.28 1021.77 1295.77 1021.77 1292.29 1022.07C1290.62 1022.05 1288.96 1021.92 1287.31 1021.68C1282.46 1020.6 1277.39 1021.14 1272.88 1023.21C1265.95 1027.11 1263.88 1035.84 1259.62 1042.59C1254.35 1050.63 1245.84 1055.98 1236.31 1057.23C1233.31 1057.62 1227.31 1058.19 1224.31 1056.42C1224.08 1056.3 1223.85 1056.16 1223.65 1056C1223.2 1055.52 1222.66 1054.89 1222.42 1054.56C1222.4 1054.49 1222.4 1054.42 1222.42 1054.35C1221.19 1049.82 1223.2 1045.14 1223.29 1040.46L1223.29 1039.62C1223.08 1034.19 1222.93 1028.79 1222.81 1023.39C1222.55 1013.39 1222.45 1003.39 1222.51 993.39C1222.51 986.91 1221.79 979.83 1224.55 973.74C1227.55 967.02 1235.11 966.87 1237.96 960.3C1239.1 957.66 1239.7 954.87 1240.81 952.2C1244.31 944.29 1251.92 938.98 1260.55 938.43C1273.72 937.77 1285.51 948.42 1298.68 947.43C1302.07 947.16 1305.4 946.11 1308.76 945.51C1319.41 943.5 1331.74 946.53 1337.74 955.56C1340.41 959.34 1341.02 964.2 1339.36 968.52Z" />
				<path id="&lt;Path&gt;" class="shp2" d="M1221.1 1033.56C1220.51 1033.39 1220.17 1032.78 1220.32 1032.18C1238.5 963.96 1310.32 954.18 1327.21 955.32C1327.82 955.35 1328.29 955.87 1328.26 956.48C1328.26 956.5 1328.26 956.51 1328.26 956.52C1328.2 957.13 1327.67 957.58 1327.06 957.54C1310.59 956.37 1240.27 966 1222.48 1032.78C1222.31 1033.37 1221.7 1033.71 1221.1 1033.56Z" />
				<path id="&lt;Path&gt;" class="shp2" d="M1300.99 999C1300.76 998.97 1300.55 998.86 1300.39 998.7C1286.95 987.05 1269.01 982 1251.46 984.93C1250.85 984.99 1250.31 984.57 1250.2 983.97C1250.11 983.36 1250.52 982.79 1251.13 982.68C1269.43 979.63 1288.14 984.93 1302.13 997.11C1302.57 997.54 1302.58 998.24 1302.15 998.68C1302.14 998.69 1302.14 998.69 1302.13 998.7C1301.85 999.03 1301.4 999.15 1300.99 999Z" />
			</g>
		</g>
		<g id="freepik--Character--inject-126">
			<g id="freepik--character--inject-126">
				<path id="&lt;Path&gt;" class="shp19" d="M1109.11 591.69C1096.51 612.99 1084.39 631.5 1075.87 640.38C1059.7 647.88 1021.72 659.46 1006.87 661.38C1004.26 661.71 1001.62 661.09 999.43 659.64C993.58 655.8 989.05 655.17 982.9 653.04C978.07 651.39 976.03 649.08 975.13 650.04C973.2 652.31 973.42 655.7 975.64 657.69C977.95 659.88 980.51 661.8 983.26 663.39C976.67 665.02 969.8 665.15 963.16 663.75C950.29 660.36 944.23 666.54 952.93 680.52C955.93 685.5 968.29 693.51 993.13 691.35C1001.99 690.87 1010.82 689.87 1019.56 688.35C1043.38 683.25 1069.87 678.33 1086.16 673.35C1092.22 670.97 1097.64 667.21 1102 662.37C1129.39 631.14 1138.48 608.88 1150.48 588.66L1149.46 555.66C1130.02 555 1119.64 573.87 1109.11 591.69Z" />
				<path id="&lt;Path&gt;" class="shp8" d="M1152.79 555C1141.3 553.39 1129.86 558.27 1123.09 567.69C1114.21 579.07 1101.91 598.42 1086.19 625.74C1091.33 639.44 1100.84 647.44 1114.72 649.74L1148.17 604.56C1158.73 583.64 1160.27 567.12 1152.79 555Z" />
				<path id="&lt;Path&gt;" class="shp19" d="M1203.31 1015.62L1225.12 1015.62L1225.12 1054.5L1203.31 1054.5L1203.31 1015.62Z" />
				<path id="&lt;Path&gt;" class="shp19" d="M1149.52 1013.55L1127.74 1014.33L1126.63 973.17L1149.52 972.39L1149.52 1013.55Z" />
				<path id="&lt;Path&gt;" class="shp8" d="M1228.18 679.05C1228.18 693.49 1227.12 758.88 1225 875.22C1225.48 881.46 1231 892.98 1229.89 916.95C1228.79 938.65 1227.51 978.02 1226.05 1035.06C1218.46 1038.94 1209.51 1039.12 1201.78 1035.54C1189.98 955.54 1182.78 904.83 1180.18 883.41C1177.9 864.63 1173.84 824.16 1168 762L1156.21 872.22C1158.71 884.05 1159.62 896.15 1158.91 908.22C1158.23 918.22 1155.55 949.1 1150.87 1000.86C1143.24 1005.36 1133.95 1006.11 1125.7 1002.87C1117.42 924.87 1113.2 881.29 1113.04 872.13C1112.84 861.73 1115.26 797.31 1120.3 678.87L1228.18 679.05Z" />
				<path id="&lt;Path&gt;" class="shp8" d="M1203.31 1043.28L1203.31 1040.04C1201.21 1040.97 1196.38 1060.23 1187.71 1068.45C1180.84 1074.99 1171.48 1082.52 1169.08 1089.81C1166.68 1097.1 1182.13 1101.57 1188.58 1100.4C1196.02 1099.02 1208.98 1093.53 1212.22 1088.4C1215.46 1083.27 1216.99 1075.83 1219.63 1072.11C1222.27 1068.39 1228.36 1064.25 1229.77 1059.93C1230.21 1055.89 1229.79 1051.8 1228.54 1047.93C1227.52 1043.91 1226.44 1039.5 1225.12 1039.89L1225.12 1042.35C1222.04 1044.87 1218.18 1046.23 1214.2 1046.19C1211.02 1046.46 1203.28 1045.8 1203.31 1043.28Z" />
				<path id="&lt;Path&gt;" class="shp8" d="M1127.5 1007.31C1126.36 1007.31 1125.43 1009.02 1122.94 1011.84C1119.24 1015.73 1114.91 1018.98 1110.13 1021.44C1101.97 1025.7 1086.13 1032.24 1078.9 1035.63C1074.4 1037.73 1074.61 1043.37 1079.26 1046.58C1083.91 1049.79 1095.1 1052.1 1108.54 1048.98C1115.86 1047.27 1125.4 1040.22 1131.46 1040.61C1137.52 1041 1148.77 1040.88 1153.24 1037.61C1157.71 1034.34 1155.91 1027.56 1154.65 1021.71C1153.27 1015.29 1151.65 1005.3 1149.52 1005.75L1149.52 1008C1146.91 1012.14 1133.38 1013.82 1127.62 1010.79L1127.5 1007.31Z" />
				<path id="&lt;Path&gt;" class="shp8" d="M1168 762C1156.65 758.29 1146.28 752.09 1137.64 743.85C1141.64 751.47 1149.4 758.83 1160.92 765.93L1157.2 864.36L1168 762Z" />
				<path id="&lt;Path&gt;" class="shp4" d="M1216 558.18C1228 560.94 1233.57 573.16 1232.71 594.84L1228.96 646.59L1228.96 724.29C1212.94 742.47 1141.96 741.15 1117.51 722.85C1119.35 661.55 1120.82 619.1 1121.92 595.5C1123.09 570.36 1128.88 557.7 1153.6 554.94L1183.99 556.26L1216 558.18Z" />
				<path id="&lt;Path&gt;" class="shp8" d="M1193.08 490.62C1193.51 508.84 1179.09 523.96 1160.87 524.39C1160.79 524.4 1160.7 524.4 1160.62 524.4C1142.62 524.4 1132.06 508.86 1128.16 490.62C1120.96 457.23 1142.68 456.81 1160.62 456.81C1178.92 457.19 1193.45 472.32 1193.08 490.62Z" />
				<path id="&lt;Path&gt;" class="shp8" d="M1209.64 504.27C1206.32 520.51 1203.99 529.97 1202.65 532.65C1201.39 535.07 1199.24 536.91 1196.65 537.78L1197.01 520.65L1209.64 504.27Z" />
				<path id="&lt;Path&gt;" class="shp8" d="M1203.37 469.38C1205.75 468.78 1208.21 470.46 1210.75 474.42C1213.99 479.49 1214.74 490.89 1209.64 504.42L1200.25 505.56L1203.37 469.38Z" />
				<path id="&lt;Path&gt;" class="shp8" d="M1206.82 474.33L1218.34 474.54C1218.66 471.56 1216.49 468.88 1213.51 468.57C1213.37 468.55 1213.23 468.54 1213.09 468.54C1209.83 468.59 1207.13 471.08 1206.82 474.33Z" />
				<path id="&lt;Path&gt;" class="shp8" d="M1208.23 471.6L1216.75 463.41C1214.79 461.1 1211.32 460.81 1209.01 462.77C1208.9 462.87 1208.79 462.97 1208.68 463.08C1206.34 465.37 1206.14 469.08 1208.23 471.6Z" />
				<path id="&lt;Path&gt;" class="shp19" d="M1197.43 505.41C1199.32 506.58 1201.99 502.83 1204.33 500.28C1206.67 497.73 1213.93 495.39 1217.71 503.67C1221.49 511.95 1215.04 520.14 1209.64 522.84C1203.18 526.04 1198.93 525.31 1196.89 520.65L1196.08 559.23C1182.46 580.23 1151.56 579.57 1162.69 558.21L1162.69 546.48C1158.11 547.24 1153.46 547.48 1148.83 547.2C1141.27 546 1136.53 539.79 1134.22 531.27C1130.56 517.59 1129.15 506.55 1132.27 479.64C1135.69 450.18 1168.63 449.85 1186.27 461.64C1198.03 469.5 1201.75 484.09 1197.43 505.41Z" />
				<path id="&lt;Path&gt;" class="shp8" d="M1156.39 475.05C1164.25 474.27 1172.02 472.65 1179.91 472.05C1181.61 471.84 1183.34 471.92 1185.01 472.29C1191.01 473.94 1190.29 480.96 1191.25 485.85C1192.9 494.31 1194.25 508.62 1197.43 508.68C1198.39 508.68 1201.99 502.47 1204.33 500.25C1205.62 498.34 1206.34 496.1 1206.43 493.8C1207.03 490.32 1207.33 486.75 1207.6 483.21C1207.84 480.21 1208.14 477.21 1208.14 474.21C1208.28 470.82 1208.01 467.43 1207.33 464.1C1206.58 461.27 1205.13 458.67 1203.13 456.54L1202.53 455.88C1198.58 451.75 1193.78 448.51 1188.46 446.4C1180.81 443.53 1172.79 441.79 1164.64 441.21C1156.5 440.63 1148.4 439.63 1140.37 438.21C1139.91 438.08 1139.42 438.08 1138.96 438.21C1138.3 438.58 1137.87 439.26 1137.82 440.01C1137.15 443.81 1138.72 447.67 1141.87 449.91C1136.44 450.33 1130.2 447.51 1124.98 446.07C1124.13 445.71 1123.16 445.71 1122.31 446.07C1121.79 446.44 1121.41 446.98 1121.26 447.6C1120.88 449.01 1120.83 450.49 1121.11 451.92C1121.59 456.26 1123.2 460.4 1125.79 463.92C1129.83 469.18 1135.55 472.92 1141.99 474.51C1146.73 475.42 1151.59 475.61 1156.39 475.05Z" />
				<path id="&lt;Path&gt;" class="shp20" d="M1162.72 546.48C1173.96 544.12 1181.54 541.85 1185.46 539.67C1188.96 537.75 1191.81 534.83 1193.62 531.27C1192.73 534.84 1191.15 538.21 1188.97 541.17C1186.11 545.01 1177.36 548.33 1162.72 551.13L1162.72 546.48Z" />
				<path id="&lt;Path&gt;" class="shp8" d="M1166.77 501C1166.7 502.93 1168.2 504.55 1170.13 504.63C1172.14 504.8 1173.91 503.3 1174.08 501.28C1174.24 499.27 1172.74 497.5 1170.73 497.33C1168.72 497.17 1166.95 498.67 1166.78 500.68C1166.77 500.79 1166.77 500.89 1166.77 501Z" />
				<path id="&lt;Path&gt;" class="shp8" d="M1172.17 486.45L1179.4 490.62C1180.49 488.49 1179.76 485.88 1177.72 484.62C1175.81 483.55 1173.4 484.23 1172.33 486.14C1172.27 486.24 1172.22 486.34 1172.17 486.45Z" />
				<path id="&lt;Path&gt;" class="shp20" d="M1164.22 525.33L1156.51 528.33C1157.13 530.46 1159.37 531.68 1161.5 531.06C1161.59 531.03 1161.67 531 1161.76 530.97C1163.94 530.03 1165.01 527.56 1164.22 525.33Z" />
				<path id="&lt;Path&gt;" class="shp8" d="M1135.75 489.54L1142.35 484.26C1141.19 482.45 1138.77 481.92 1136.96 483.08C1136.84 483.16 1136.73 483.24 1136.62 483.33C1134.79 484.88 1134.42 487.55 1135.75 489.54Z" />
				<path id="&lt;Path&gt;" class="shp8" d="M1138.66 500.01C1138.81 501.88 1140.44 503.27 1142.31 503.12C1144.18 502.97 1145.57 501.34 1145.42 499.47C1145.28 497.71 1143.81 496.36 1142.05 496.35C1140.11 496.41 1138.59 498.04 1138.66 499.97C1138.66 499.99 1138.66 500 1138.66 500.01Z" />
				<path id="&lt;Path&gt;" class="shp20" d="M1156.75 497.19L1156.36 518.52L1144.24 515.76L1156.75 497.19Z" />
				<path id="&lt;Path&gt;" class="shp4" d="M868.93 675.84L887.74 664.98L895.18 655.95L876.4 666.81L868.93 675.84Z" />
				<path id="&lt;Path&gt;" class="shp21" d="M868.93 675.84L887.74 664.98L895.18 655.95L876.4 666.81L868.93 675.84Z" />
				<path id="&lt;Path&gt;" class="shp4" d="M920.08 705.36L938.89 694.5L954.58 680.61L935.8 691.44L920.08 705.36Z" />
				<path id="&lt;Path&gt;" class="shp21" d="M920.08 705.36L938.89 694.5L954.58 680.61L935.8 691.44L920.08 705.36Z" />
				<path id="&lt;Compound Path&gt;" fill-rule="evenodd" class="shp4" d="M1125.34 766.23C1125.34 795.84 1116.1 816.78 1101.82 825.06C1098.94 826.68 1088.38 832.8 1084.09 835.26C1083.97 835.35 1083.84 835.42 1083.7 835.47L1082.92 835.95C1082.4 836.25 1081.85 836.52 1081.3 836.76C1080.76 837.08 1080.18 837.36 1079.59 837.57L1077.91 838.23C1077.2 838.5 1076.47 838.71 1075.72 838.86L1074.16 839.25C1070.37 839.94 1066.49 839.94 1062.7 839.25C1061.5 839.03 1060.3 838.76 1059.1 838.44C1057.73 838.07 1056.37 837.62 1055.05 837.09C1052.55 836.12 1050.13 834.95 1047.82 833.58C1028.56 822.45 1011.49 798.3 1000.75 770.1C1000.48 769.35 1000.21 768.66 1000 768C997.6 761.44 995.6 754.73 994 747.93L961.63 729.21L955.15 702.48L935.89 691.35L920.2 705.27L907.66 698.04L896.29 678.57L876.49 666.72L869.02 675.72L846.58 662.73L823.87 614.73L823.87 607.77L826.87 606L826.87 603.6L825.37 602.73L823.78 601.83L823.78 589.83L842.56 579L997.15 668.22C997.63 667.14 998.14 666.15 998.68 665.22C999.7 663.38 1000.86 661.62 1002.13 659.94C1002.73 659.13 1003.51 658.2 1004.02 657.6C1004.53 657 1005.1 656.37 1005.64 655.83L1006.24 655.26C1007.5 654.02 1008.87 652.9 1010.32 651.9C1011.05 651.37 1011.81 650.89 1012.6 650.46L1013.59 649.86L1031.29 639.66C1041.1 633.93 1053.34 634.2 1066.57 641.85C1094.11 657.78 1117.24 700.35 1123.57 743.4C1124.72 750.96 1125.32 758.59 1125.34 766.23ZM1087.63 763.29C1087 755.88 1084.31 748.79 1079.86 742.83C1080.51 750.24 1083.2 757.32 1087.63 763.29Z" />
				<path id="&lt;Compound Path&gt;" fill-rule="evenodd" class="shp4" d="M1106.56 777.09C1106.56 805.98 1097.77 826.62 1084.09 835.26C1083.97 835.35 1083.84 835.42 1083.7 835.47L1082.92 835.95C1082.4 836.25 1081.85 836.52 1081.3 836.76C1080.76 837.08 1080.18 837.36 1079.59 837.57L1077.91 838.23C1077.2 838.5 1076.47 838.71 1075.72 838.86L1074.16 839.25C1070.37 839.94 1066.49 839.94 1062.7 839.25C1061.5 839.03 1060.3 838.76 1059.1 838.44C1057.73 838.07 1056.37 837.62 1055.05 837.09C1052.55 836.12 1050.13 834.95 1047.82 833.58C1028.56 822.45 1011.49 798.3 1000.75 770.1C1000.48 769.35 1000.21 768.66 1000 768C997.6 761.44 995.6 754.73 994 747.93L961.6 729.21L955.12 702.48L935.86 691.35L920.17 705.27L907.63 698.04L896.26 678.57L876.46 666.72L868.99 675.72L846.55 662.73L823.84 614.73L823.84 607.77L826.84 606L826.84 603.6L825.34 602.73L823.75 601.83L823.75 589.83L991.12 686.49C992.31 680.16 994.32 674.02 997.12 668.22C997.6 667.14 998.11 666.15 998.65 665.22C999.67 663.38 1000.83 661.62 1002.1 659.94C1002.7 659.13 1003.48 658.2 1003.99 657.6C1004.5 657 1005.07 656.37 1005.61 655.83L1006.21 655.26C1007.47 654.02 1008.84 652.9 1010.29 651.9C1011.02 651.37 1011.78 650.89 1012.57 650.46L1013.56 649.86C1023.16 644.79 1034.98 645.33 1047.76 652.71C1075.33 668.61 1098.46 711.21 1104.76 754.23C1105.91 761.8 1106.51 769.44 1106.56 777.09ZM1087.78 766.26C1087.78 754.83 1081.81 742.08 1074.37 737.82C1066.93 733.56 1060.93 739.35 1060.93 750.75C1060.93 762.15 1066.93 774.87 1074.37 779.16C1081.78 783.45 1087.78 777.69 1087.78 766.26Z" />
				<path id="&lt;Path&gt;" class="shp21" d="M1087.78 766.23C1087.78 777.66 1081.78 783.45 1074.37 779.16C1066.96 774.87 1060.93 762.18 1060.93 750.75C1060.93 739.32 1066.93 733.53 1074.37 737.82C1076.51 739.12 1078.38 740.84 1079.86 742.86C1080.5 750.27 1083.19 757.35 1087.63 763.32C1087.74 764.29 1087.79 765.26 1087.78 766.23Z" />
				<path id="&lt;Path&gt;" class="shp14" d="M1125.28 766.2C1125.28 795.81 1116.04 816.75 1101.76 825.03C1098.76 826.65 1088.32 832.77 1084.03 835.23C1097.71 826.59 1106.5 805.95 1106.5 777.06C1106.47 769.42 1105.89 761.79 1104.76 754.23C1098.46 711.21 1075.33 668.61 1047.76 652.71C1034.98 645.33 1023.16 644.79 1013.56 649.86L1031.26 639.66C1041.07 633.93 1053.31 634.2 1066.54 641.85C1094.11 657.78 1117.24 700.35 1123.54 743.4C1124.68 750.95 1125.26 758.57 1125.28 766.2Z" />
				<path id="&lt;Path&gt;" class="shp4" d="M1106.5 777C1106.5 805.89 1097.71 826.53 1084.03 835.17C1088.32 832.71 1098.88 826.59 1101.76 824.97C1116.04 816.69 1125.28 795.75 1125.28 766.14C1125.28 765.06 1125.28 763.95 1125.28 762.84L1106.5 773.7C1106.47 774.87 1106.5 775.95 1106.5 777Z" />
				<path id="&lt;Path&gt;" class="shp16" d="M1106.5 777C1106.5 805.89 1097.71 826.53 1084.03 835.17C1088.32 832.71 1098.88 826.59 1101.76 824.97C1116.04 816.69 1125.28 795.75 1125.28 766.14C1125.28 765.06 1125.28 763.95 1125.28 762.84L1106.5 773.7C1106.47 774.87 1106.5 775.95 1106.5 777Z" />
				<path id="&lt;Path&gt;" class="shp10" d="M991.84 698.76L991.84 704.85L823.78 607.83L826.87 606.03L826.87 603.51L991.84 698.76Z" />
				<path id="&lt;Path&gt;" class="shp10" d="M991.84 701.28L991.84 704.85L823.78 607.83L826.87 606.03L826.87 606L991.84 701.28Z" />
				<path id="&lt;Compound Path&gt;" fill-rule="evenodd" class="shp10" d="M1064.92 825C1058.55 824.83 1052.34 822.98 1046.92 819.63C1019.53 803.82 997.24 756.78 997.24 714.78C997.24 690.27 1004.65 671.97 1017.58 664.5C1026.58 659.28 1037.23 659.94 1048.42 666.39C1075.78 682.2 1098.07 729.39 1098.07 771.39C1098.07 795.87 1090.66 814.2 1077.73 821.64C1073.83 823.87 1069.41 825.03 1064.92 825ZM1030.57 664.05C1026.57 664.03 1022.64 665.06 1019.17 667.05C1007.38 673.86 1000.33 691.71 1000.33 714.75C1000.33 755.79 1021.93 801.75 1048.51 816.99C1058.68 822.99 1068.31 823.53 1076.32 818.91C1088.11 812.1 1095.16 794.28 1095.16 771.24C1095.16 730.17 1073.56 684.24 1047.01 668.97C1042.05 665.95 1036.38 664.3 1030.57 664.17L1030.57 664.05Z" />
				<path id="&lt;Path&gt;" class="shp14" d="M997 668.16C994.2 673.96 992.19 680.1 991 686.43L823.63 589.77L842.41 578.94L997 668.16Z" />
				<path id="&lt;Path&gt;" class="shp19" d="M1214.53 677.55C1223.29 660.96 1233.31 623.7 1238.29 604.89C1245.37 578.19 1233.91 561.39 1220.89 560.7C1215.47 561.54 1203.83 594.43 1185.97 659.37C1182.97 661.74 1142.26 682.41 1129.18 687.6C1126.84 688.48 1124.26 688.48 1121.92 687.6C1115.65 685.32 1111.36 685.74 1105.21 685.14C1100.38 684.66 1097.95 682.95 1097.32 683.97C1096.13 686.6 1097.17 689.69 1099.69 691.08C1102.34 692.62 1105.16 693.85 1108.09 694.74C1102.83 696.33 1097.35 697.07 1091.86 696.93C1079.26 696.66 1074.73 702.12 1084.51 714.93C1090.51 722.91 1100.44 725.43 1122.61 717.78C1128.97 715.56 1137.61 711.27 1145.68 708.36C1162.3 702.36 1166.68 701.64 1179.34 697.35C1197.79 691.11 1210.63 684.93 1214.53 677.55Z" />
				<path id="&lt;Path&gt;" class="shp8" d="M1216 558.18C1223.65 559.23 1231 560.94 1235.53 567.18C1240.06 573.42 1243.69 582.18 1239.25 606.03C1235.85 622.8 1231.3 639.32 1225.63 655.47C1213.75 660.55 1201.5 656.65 1188.88 643.77L1201.9 593.43C1203.3 571.61 1208 559.86 1216 558.18Z" />
			</g>
		</g>
	</g>
</svg>