<?xml version="1.0" encoding="utf-8"?>
<!-- Generator: Adobe Illustrator 24.1.3, SVG Export Plug-In . SVG Version: 6.00 Build 0)  -->
<svg version="1.1" id="Layer_1" xmlns="http://www.w3.org/2000/svg" xmlns:xlink="http://www.w3.org/1999/xlink" x="0px" y="0px"
	 viewBox="0 0 270 52" style="enable-background:new 0 0 270 52;" xml:space="preserve">
<style type="text/css">
	.st0{fill:#FFA200;}
	.st1{fill:#FFFFFF;}
	.st2{fill:#057450;}
</style>
<g>
	<path class="st0" d="M41.3,51.5H15.4c-7,0-12.6-5.7-12.6-12.6V13c0-7,5.7-12.6,12.6-12.6h25.9c7,0,12.6,5.7,12.6,12.6v25.9
		C53.9,45.8,48.3,51.5,41.3,51.5z"/>
	<g>
		<path class="st1" d="M25.6,28.3l5.4,0c0.9,0,1.6,0.7,1.6,1.6v0c0,0.9-0.7,1.6-1.6,1.6h-5.4c-0.9,0-1.6-0.7-1.6-1.6v0
			C24.1,29,24.8,28.3,25.6,28.3z"/>
		<path class="st1" d="M16.2,21.3c-1.1,1.1-1,2.4-1,2.4v13c0,0.8,0.6,1.4,1.4,1.4c0.8,0,1.4-0.6,1.4-1.4V24.2c0-1.5,1.3-2.7,2.9-2.6
			c1.4,0.1,2.4,1.4,2.4,2.8v10.3c0,4.6-3.7,8.3-8.3,8.3h-1.5c-1.1,0-2.1-0.9-2.1-2.1V23.7c0-2.3,1.8-4.8,1.8-4.8
			c0,0,10.5-9.4,10.5-9.4c0.6-0.5,1.4-0.7,2.1-0.4c1.3,0.6,1.5,2.3,0.5,3.2L16.2,21.3z"/>
		<path class="st1" d="M40.5,21.3c1.1,1.1,1,2.4,1,2.4v13c0,0.8-0.6,1.4-1.4,1.4c-0.8,0-1.4-0.6-1.4-1.4V24.2c0-1.5-1.3-2.7-2.9-2.6
			c-1.4,0.1-2.4,1.4-2.4,2.8v10.3c0,4.6,3.7,8.3,8.3,8.3h1.5c1.1,0,2.1-0.9,2.1-2.1V23.7c0-2.3-1.8-4.8-1.8-4.8
			c0,0-10.5-9.4-10.5-9.4c-0.6-0.5-1.4-0.7-2.1-0.4c-1.3,0.6-1.5,2.3-0.5,3.2L40.5,21.3z"/>
	</g>
	<g>
		<path class="st2" d="M85.5,38.3c-0.8,0-1.5-0.3-2-0.9c-0.6-0.6-0.9-1.4-0.9-2.5V28h-9.3v10.3h-2c-0.9,0-1.6-0.3-2.1-0.9
			c-0.6-0.6-0.9-1.4-0.9-2.5V14.1h2.5c0.7,0,1.3,0.3,1.8,0.8c0.5,0.5,0.8,1.2,0.8,1.9v7h9.4v-9.7h2.3c0.7,0,1.3,0.2,1.9,0.7
			c0.6,0.5,0.9,1.2,0.9,2v21.6H85.5z"/>
		<path class="st2" d="M99.3,38.7c-2.6,0-4.7-0.9-6.3-2.7c-1.5-1.7-2.2-3.8-2.2-6.4c0-2.8,0.8-5.2,2.3-7c1.6-1.9,3.8-2.8,6.6-2.8
			c2.6,0,4.7,0.9,6.3,2.8c1.5,1.7,2.2,3.9,2.2,6.4c0,2.8-0.8,5.1-2.3,6.9C104.4,37.8,102.2,38.7,99.3,38.7z M99.3,24.1
			c-1.2,0-2.1,0.5-2.8,1.4c-0.6,0.9-0.9,2-0.9,3.5c0,4.5,2.2,5.5,4.1,5.5c1.7,0,3.7-0.8,3.7-4.9C103.4,25,101.2,24.1,99.3,24.1z"/>
		<path class="st2" d="M136.3,38.3c-2.4,0-3.5-1.1-3.5-3.3v-6.9c0-3.4-1.7-4.1-3.1-4.1c-1.3,0-2.9,0.6-2.9,3.5v10.7h-1.3
			c-2.3,0-3.3-1.1-3.3-3.3v-6.9c0-3.4-1.7-4.1-3.2-4.1c-0.9,0-1.6,0.3-2.1,1c-0.5,0.7-0.8,1.6-0.8,2.7v10.6h-1.3
			c-1,0-1.8-0.3-2.4-0.9c-0.7-0.6-1-1.4-1-2.5v-6.9c0-2.6,0.7-4.6,2-6c1.4-1.5,3.5-2.3,6.1-2.3c2,0,3.7,0.8,5,2.3l0.3,0.4l0.3-0.4
			c1.3-1.5,2.8-2.3,4.8-2.3c2.2,0,4,0.6,5.3,1.9c1.4,1.4,2.2,3.3,2.2,5.8v10.8H136.3z"/>
		<path class="st2" d="M149.5,38.7c-2.3,0-4.4-0.8-6.1-2.5c-1.8-1.7-2.8-4-2.8-6.6c0-2.9,0.8-5.4,2.5-7.1c1.6-1.8,3.7-2.6,6.3-2.6
			c2,0,3.6,0.6,5.1,1.9c1.5,1.3,2.2,3,2.2,5.1c0,1.7-0.6,2.8-1.9,3.4c-1.3,0.7-3.5,1-6.6,1h-2.7l0.2,0.6c0.6,1.9,2.2,2.8,4.6,2.8
			c1.9,0,3.9-0.5,5.8-1.4v1.3C156.1,37.3,153.9,38.7,149.5,38.7z M149.1,23.8c-1,0-1.9,0.4-2.5,1.2c-0.6,0.7-1,1.5-1.1,2.5l0,0.5
			h1.8c1.9,0,3.1-0.1,3.8-0.3c1-0.2,1.2-0.9,1.2-1.3C152.3,25.2,151.7,23.8,149.1,23.8z"/>
		<path class="st2" d="M176.8,38.3c-2,0-3-1-3-3.3v-2.5h-8.1c-0.8,0-1.5-0.2-2.1-0.8c-0.5-0.5-0.8-1-0.8-1.6c0-0.6,0.1-1.1,0.2-1.6
			c0.1-0.2,0.1-0.4,0.2-0.6l0.2-0.5c1.1-2,2.7-4.3,4.6-7c2.4-3.3,4.4-5.6,5.9-6.8l1.7,0.1c2.1,0,3,1.1,3,3.5v11h3.8v2
			c0,1.5-0.7,2.2-2.1,2.2h-1.7v5.7H176.8z M173.1,20.4c-1.5,2-3.1,4.4-4.8,7.3l-0.4,0.7h6v-9L173.1,20.4z"/>
		<path class="st2" d="M206.7,38.3c-0.8,0-1.5-0.3-2-0.9c-0.6-0.6-0.9-1.4-0.9-2.5V28h-9.3v10.3h-2c-0.9,0-1.6-0.3-2.1-0.9
			c-0.6-0.6-0.9-1.4-0.9-2.5V14.1h2.5c0.7,0,1.3,0.3,1.8,0.8c0.5,0.5,0.8,1.2,0.8,1.9v7h9.4v-9.7h2.3c0.7,0,1.3,0.2,1.9,0.7
			c0.6,0.5,0.9,1.2,0.9,2v21.6H206.7z"/>
		<path class="st2" d="M219.3,38.7c-2.2,0-4-0.6-5.3-1.7c-1.3-1.1-2-2.4-2-4.1c0-3.8,2.9-5.7,9-5.7h1.4l0-0.5
			c-0.1-1.3-0.8-2.7-3.6-2.7c-1.4,0-2.8,0.2-4.1,0.7c-0.7,0.3-1.3,0.5-1.8,0.8v-1.1c0-1.2,0.5-2.2,1.4-3c1.2-1,2.9-1.5,5.2-1.5
			c5.2,0,7.7,2.7,7.7,8.1v4.1c0,1.9-0.6,3.5-1.9,4.7c-1.3,1.2-3,1.8-5,1.8H219.3z M221,30.6c-2.8,0-4.2,0.7-4.2,2.1
			c0,0.9,0.5,2.1,2.9,2.1c1.7,0,2.7-0.9,2.7-2.6v-1.6H221z"/>
		<path class="st2" d="M244.8,38.3c-1,0-1.8-0.3-2.5-0.9c-0.6-0.6-0.9-1.3-0.9-2.2v-7.1c0-3.4-1.9-4.1-3.4-4.1c-0.9,0-1.7,0.4-2.2,1
			c-0.6,0.7-0.8,1.7-0.8,2.8v10.4h-1.5c-1,0-1.7-0.3-2.4-0.9c-0.6-0.6-0.9-1.3-0.9-2.2v-7.7c0-2.1,0.7-3.9,2-5.3
			c1.5-1.6,3.5-2.4,6.2-2.4c2.2,0,4.1,0.7,5.5,2.1c1.5,1.5,2.3,3.4,2.3,5.9v10.5H244.8z"/>
		<path class="st2" d="M257.6,38.7c-2.4,0-4.3-0.9-6-2.7c-1.6-1.7-2.4-3.9-2.4-6.4c0-3,0.7-5.5,2.1-7.2c1.4-1.8,3.4-2.6,6-2.6
			c1.3,0,2.5,0.5,3.5,1.5l0.8,0.7v-8.9h1.5c2.2,0,3.2,1,3.2,3.2V30C266.4,35.8,263.5,38.7,257.6,38.7z M257.4,23.8
			c-1.1,0-2,0.5-2.7,1.5c-0.6,0.9-0.9,2.1-0.9,3.5c0,1.7,0.4,3.2,1.2,4.3c0.8,1.1,1.9,1.7,3.1,1.7c1.6,0,3.4-0.9,3.4-4.9
			C261.6,25.8,260.2,23.8,257.4,23.8z"/>
	</g>
</g>
</svg>
