<svg version="1.2" baseProfile="tiny-ps" xmlns="http://www.w3.org/2000/svg" viewBox="0 0 1536 1536" width="1536" height="1536">
	<title>Vector Smart Object-ai</title>
	<style>
		tspan { white-space:pre }
		.shp0 { fill: #000000 } 
	</style>
	<g id="Capa 1">
		<g id="&lt;Group&gt;">
			<path id="&lt;Compound Path&gt;" fill-rule="evenodd" class="shp0" d="M1501.56 861.06C1501.56 861.06 1501.56 861.06 1501.56 861.06C1501.56 861.06 1501.56 861.06 1501.56 861.06L1501.56 861.06ZM1501.56 861.06C1522.96 884.95 1536 916.48 1536 951L1536 1491C1536 1515.85 1515.85 1536 1491 1536C1466.15 1536 1446 1515.85 1446 1491L1446 951C1446 926.19 1425.81 906 1401 906C1376.19 906 1356 926.19 1356 951L1356 981C1356 1005.85 1335.85 1026 1311 1026C1286.15 1026 1266 1005.85 1266 981L1266 951C1266 916.55 1278.99 885.09 1300.3 861.21L1238.14 799.05L1182.63 1048.85L1122.88 1496.95C1119.9 1519.3 1100.83 1536 1078.28 1536L868.28 1536C843.42 1536 823.28 1515.85 823.28 1491L823.28 1086L778.28 1086C753.42 1086 733.28 1065.85 733.28 1041L733.28 835C725.19 834.32 717.07 832.96 708.97 830.76L480 768.31L480 1035.13L568.67 1366.05C587.93 1437.95 545.11 1512.12 473.21 1531.39C461.56 1534.51 449.84 1536 438.3 1536C378.7 1536 324.01 1496.17 307.87 1435.93L286.66 1356.76L265.46 1435.88C256.13 1470.71 233.79 1499.82 202.56 1517.86C181.76 1529.86 158.67 1536 135.28 1536C123.55 1536 111.75 1534.46 100.12 1531.34C65.29 1522 36.17 1499.67 18.14 1468.44C0.11 1437.21 -4.67 1400.83 4.66 1366L79.68 1086L45 1086C20.15 1086 0 1065.85 0 1041L0 621C0 479.36 85.81 357.4 208.16 304.33C179.47 272.01 162 229.52 162 183C162 82.09 244.09 0 345 0C445.91 0 528 82.09 528 183C528 259.25 481.11 324.74 414.66 352.19L494.82 492.49L738.84 559.04C751.34 489.76 784.74 426.05 835.8 375.59C866.75 345.01 902.5 320.98 941.32 304.19C912.7 271.88 895.28 229.45 895.28 183C895.28 82.09 977.37 0 1078.28 0C1179.18 0 1261.28 82.09 1261.28 183C1261.28 252.54 1222.28 313.14 1165.01 344.1L1496.46 675.55C1547.33 726.42 1549.03 808.12 1501.56 861.06ZM1078.27 276C1129.55 276 1171.27 234.28 1171.27 183C1171.27 131.72 1129.55 90 1078.27 90C1027 90 985.27 131.72 985.27 183C985.27 234.28 1027 276 1078.27 276ZM345 276C396.28 276 438 234.28 438 183C438 131.72 396.28 90 345 90C293.72 90 252 131.72 252 183C252 234.28 293.72 276 345 276ZM240.07 1182.89L214.11 1086L172.86 1086L91.59 1389.29C85.17 1413.26 99.44 1437.98 123.41 1444.4C135.02 1447.52 147.15 1445.93 157.56 1439.91C167.97 1433.9 175.41 1424.2 178.52 1412.59L240.07 1182.89ZM481.73 1389.34L400.45 1086L307.28 1086L394.8 1412.63C401.23 1436.6 425.95 1450.88 449.92 1444.45C461.53 1441.34 471.23 1433.9 477.24 1423.49C483.25 1413.08 484.84 1400.95 481.73 1389.34ZM732.64 743.93C756.57 750.46 781.36 736.29 787.89 712.35C791.06 700.76 789.52 688.62 783.55 678.18C777.59 667.75 767.92 660.26 756.32 657.1L453.16 574.41C441.17 571.14 431.64 563.32 425.93 553.33L319.6 367.25C190.88 380.05 90 488.96 90 621L90 996L390 996L390 743.77L353.89 733.92C309.56 721.83 271.99 691.5 250.84 650.71L215.05 581.72C203.61 559.66 212.21 532.5 234.28 521.06C256.33 509.61 283.5 518.22 294.94 540.28L330.73 609.27C340.35 627.81 357.42 641.6 377.57 647.09L732.64 743.93ZM1086.88 1086L913.27 1086L913.27 1446L1038.88 1446L1086.88 1086ZM1162.7 723.62L986.45 547.37C968.88 529.79 968.88 501.3 986.45 483.73C1004.03 466.15 1032.52 466.15 1050.09 483.73L1369.19 802.83C1377.69 811.32 1388.99 816.01 1401.01 816.01C1413.02 816.01 1424.32 811.32 1432.82 802.82C1450.36 785.28 1450.36 756.74 1432.82 739.19L1060.27 366.64C938.2 375.29 838.78 471.18 824.96 592.08C839.76 603.06 852.28 617.06 861.7 633.54C879.59 664.85 884.22 701.25 874.72 736.04C866.26 767.06 847.56 792.59 823.27 810.03L823.27 996L1102.18 996L1162.7 723.62Z" />
		</g>
	</g>
</svg>