<?xml version="1.0" encoding="utf-8"?>
<!-- Generator: Adobe Illustrator 24.1.3, SVG Export Plug-In . SVG Version: 6.00 Build 0)  -->
<svg version="1.1" id="Layer_1" xmlns="http://www.w3.org/2000/svg" xmlns:xlink="http://www.w3.org/1999/xlink" x="0px" y="0px"
	 viewBox="0 0 124 22" style="enable-background:new 0 0 124 22;" xml:space="preserve">
<style type="text/css">
	.st0{fill:#FFA200;}
	.st1{fill:#FFFFFF;}
	.st2{fill-rule:evenodd;clip-rule:evenodd;fill:#FFA200;}
</style>
<g>
	<path class="st0" d="M69.5,21.8H54.5c-1.7,0-3-1.3-3-3V3.7c0-1.7,1.3-3,3-3h15.1c1.7,0,3,1.3,3,3v15.1
		C72.5,20.4,71.2,21.8,69.5,21.8z"/>
	<g>
		<path class="st1" d="M60.9,12.2h2.2c0.4,0,0.7,0.3,0.7,0.7v0c0,0.4-0.3,0.7-0.7,0.7h-2.2c-0.4,0-0.7-0.3-0.7-0.7v0
			C60.2,12.5,60.5,12.2,60.9,12.2z"/>
		<path class="st1" d="M57,9.3c-0.5,0.5-0.4,1-0.4,1v5.3c0,0.3,0.3,0.6,0.6,0.6c0.3,0,0.6-0.3,0.6-0.6v-5.1c0-0.6,0.5-1.1,1.2-1.1
			c0.6,0.1,1,0.6,1,1.2v4.2c0,1.9-1.5,3.4-3.4,3.4h-0.6c-0.5,0-0.8-0.4-0.8-0.8v-7.1c0-1,0.7-2,0.8-2c0,0,4.3-3.9,4.3-3.9
			c0.2-0.2,0.6-0.3,0.9-0.2c0.5,0.3,0.6,0.9,0.2,1.3L57,9.3z"/>
		<path class="st1" d="M67,9.3c0.5,0.5,0.4,1,0.4,1v5.3c0,0.3-0.3,0.6-0.6,0.6c-0.3,0-0.6-0.3-0.6-0.6v-5.1c0-0.6-0.5-1.1-1.2-1.1
			c-0.6,0.1-1,0.6-1,1.2v4.2c0,1.9,1.5,3.4,3.4,3.4h0.6c0.5,0,0.8-0.4,0.8-0.8v-7.1c0-1-0.7-2-0.8-2c0,0-4.3-3.9-4.3-3.9
			c-0.2-0.2-0.6-0.3-0.9-0.2c-0.5,0.3-0.6,0.9-0.2,1.3L67,9.3z"/>
	</g>
</g>
<path class="st2" d="M76.2,12.2v-2h47.7v2H76.2z"/>
<path class="st2" d="M0.2,12.2v-2h47.7v2H0.2z"/>
</svg>
