<?xml version="1.0" encoding="utf-8"?>
<!-- Generator: Adobe Illustrator 24.1.3, SVG Export Plug-In . SVG Version: 6.00 Build 0)  -->
<svg version="1.1" id="Layer_1" xmlns="http://www.w3.org/2000/svg" xmlns:xlink="http://www.w3.org/1999/xlink" x="0px" y="0px"
	 viewBox="0 0 74 22" style="enable-background:new 0 0 74 22;" xml:space="preserve">
<style type="text/css">
	.st0{fill:#FFA200;}
	.st1{fill:#FFFFFF;}
	.st2{fill-rule:evenodd;clip-rule:evenodd;fill:#FFA200;}
</style>
<g>
	<path class="st0" d="M19.2,21.6H4.1c-1.7,0-3-1.3-3-3V3.6c0-1.7,1.3-3,3-3h15.1c1.7,0,3,1.3,3,3v15.1
		C22.2,20.3,20.8,21.6,19.2,21.6z"/>
	<g>
		<path class="st1" d="M10.5,12.1h2.2c0.4,0,0.7,0.3,0.7,0.7v0c0,0.4-0.3,0.7-0.7,0.7h-2.2c-0.4,0-0.7-0.3-0.7-0.7v0
			C9.9,12.4,10.2,12.1,10.5,12.1z"/>
		<path class="st1" d="M6.6,9.2c-0.5,0.5-0.4,1-0.4,1v5.3c0,0.3,0.3,0.6,0.6,0.6c0.3,0,0.6-0.3,0.6-0.6v-5.1c0-0.6,0.5-1.1,1.2-1.1
			c0.6,0.1,1,0.6,1,1.2v4.2c0,1.9-1.5,3.4-3.4,3.4H5.5c-0.5,0-0.8-0.4-0.8-0.8v-7.1c0-1,0.7-2,0.8-2c0,0,4.3-3.9,4.3-3.9
			C10,4.1,10.3,4,10.6,4.2c0.5,0.3,0.6,0.9,0.2,1.3L6.6,9.2z"/>
		<path class="st1" d="M16.7,9.2c0.5,0.5,0.4,1,0.4,1v5.3c0,0.3-0.3,0.6-0.6,0.6c-0.3,0-0.6-0.3-0.6-0.6v-5.1c0-0.6-0.5-1.1-1.2-1.1
			c-0.6,0.1-1,0.6-1,1.2v4.2c0,1.9,1.5,3.4,3.4,3.4h0.6c0.5,0,0.8-0.4,0.8-0.8v-7.1c0-1-0.7-2-0.8-2c0,0-4.3-3.9-4.3-3.9
			C13.3,4.1,13,4,12.7,4.2c-0.5,0.3-0.6,0.9-0.2,1.3L16.7,9.2z"/>
	</g>
</g>
<path class="st2" d="M25.8,12.1v-2h47.7v2H25.8z"/>
</svg>
