<?xml version="1.0" standalone="no"?>
<!DOCTYPE svg PUBLIC "-//W3C//DTD SVG 1.1//EN" "http://www.w3.org/Graphics/SVG/1.1/DTD/svg11.dtd" >
<svg xmlns="http://www.w3.org/2000/svg" xmlns:xlink="http://www.w3.org/1999/xlink" version="1.1">
<metadata>
Created by FontForge 20170731 at Thu Mar 24 16:04:19 2022
 By Aleksey,,,
Copyright (c) 2014 Monotype Imaging Inc. All rights reserved.
</metadata>
<defs>
<font id="OptimaLTPro-BoldItalic" horiz-adv-x="1138" >
  <font-face 
    font-family="Optima LT Pro"
    font-weight="700"
    font-style="italic"
    font-stretch="normal"
    units-per-em="2048"
    panose-1="2 11 8 2 5 5 8 9 3 4"
    ascent="1501"
    descent="-547"
    x-height="975"
    cap-height="1395"
    bbox="-303 -541 2105 1987"
    underline-thickness="102"
    underline-position="-307"
    slope="-12"
    unicode-range="U+000D-FB04"
  />
<missing-glyph horiz-adv-x="993" 
d="M0 1393h993v-1393h-993v1393zM96 96h801v1198h-801v-1198zM430 227v129h109v-129h-109zM502 1182q108 0 174.5 -70.5t66.5 -183.5q0 -68 -28.5 -120.5t-96.5 -113.5q-65 -54 -78.5 -85.5t-13.5 -100.5v-16v-37h-94v28q0 99 20 150.5t68 95.5q72 68 91 94q32 46 32 97
q0 67 -43 115t-104 48q-67 0 -108.5 -48.5t-49.5 -135.5l-98 16q13 130 81 198.5t181 68.5z" />
    <glyph glyph-name="IJ" unicode="IJ" horiz-adv-x="1351" 
d="M377 1395q7 0 36.5 -3.5t65 -5.5t74.5 -2q25 0 162 11q-91 -288 -188.5 -717t-129.5 -688q-105 10 -174 10q-96 0 -164 -10q80 265 180.5 710t137.5 695zM1057 1395q124 -11 168 -11q16 0 159 11q-136 -529 -180 -789l-67 -387q-35 -199 -90.5 -312.5t-165.5 -168.5
q-136 -68 -330 -68h-10l-13 94q93 5 142.5 38.5t85.5 123.5q17 43 48.5 187.5t102.5 490.5q81 397 150 791z" />
    <glyph glyph-name="ij" unicode="ij" horiz-adv-x="1099" 
d="M459 1509q64 0 109.5 -45t45.5 -110t-45.5 -110.5t-109.5 -45.5q-65 0 -110.5 46t-45.5 110t45.5 109.5t110.5 45.5zM240 975q85 -10 153 -10q84 0 156 10q-45 -141 -117 -471t-96 -514q-78 10 -154 10q-59 0 -155 -10q62 216 127.5 517.5t85.5 467.5zM1028 1509
q63 0 108.5 -46t45.5 -109q0 -65 -46 -110.5t-108 -45.5q-67 0 -112.5 46t-45.5 110t45.5 109.5t112.5 45.5zM643 119q131 618 170 856q82 -10 143 -10q62 0 152 10q-44 -153 -105.5 -426t-93.5 -440l-51 -261q-38 -191 -139 -278t-260 -100q-65 -9 -117 -9l-14 72
q71 11 114 34.5t68 70.5q51 91 133 481z" />
    <glyph glyph-name="napostrophe" unicode="&#x22;n" 
d="M829 995q117 0 183.5 -57.5t66.5 -161.5q0 -63 -25 -171.5t-65.5 -279.5t-64.5 -335q-92 10 -152 10q-56 0 -154 -10q191 626 191 737q0 56 -31.5 85.5t-87.5 29.5q-86 0 -157 -73t-109 -202q-36 -116 -71.5 -282t-53.5 -295q-85 10 -141 10q-72 0 -150 -10
q136 512 219 985q72 -10 148 -10q59 0 131 10q-36 -129 -45 -172q79 99 168 145.5t200 46.5zM279 1530q44 0 75 -18t31 -46q0 -31 -23 -61l-192 -266h-104l81 303q12 42 47 65t85 23z" />
    <glyph glyph-name="f_f" unicode="ff" horiz-adv-x="1300" 
d="M879 868h-340q-122 -527 -160 -878q-83 10 -148 10q-73 0 -178 -10q44 135 109.5 412t97.5 466q-3 0 -66.5 -2t-97.5 -2q12 39 25 111h162q36 220 102 330q148 247 381 247q43 0 125 -14l-66 -260l-28 -8q-101 78 -195 78q-104 0 -104 -95q0 -82 53 -282h350
q37 223 103 334q148 247 380 247q43 0 125 -14l-65 -260l-29 -8q-101 78 -194 78q-105 0 -105 -95q0 -82 53 -282q179 0 211 4q-7 -25 -20 -109q-160 4 -203 4q-122 -528 -160 -880q-83 10 -147 10q-73 0 -178 -10q44 135 109.5 412t97.5 466z" />
    <glyph glyph-name="fi" unicode="fi" horiz-adv-x="1214" 
d="M766 1552q43 0 125 -14l-66 -260l-28 -8q-101 78 -195 78q-104 0 -104 -95q0 -82 53 -282q179 0 211 4q-9 -32 -21 -109q-160 4 -202 4q-122 -528 -160 -880q-83 10 -148 10q-73 0 -178 -10q44 131 109 410t98 470q-3 0 -66.5 -2t-97.5 -2q4 20 12 50.5t13 58.5
q98 -4 162 -4q37 225 102 334q148 247 381 247zM1108 1509q64 0 110 -45t46 -110t-46 -110.5t-110 -45.5q-65 0 -110.5 46t-45.5 110t45.5 109.5t110.5 45.5zM889 975q85 -10 153 -10q84 0 156 10q-45 -141 -117 -471t-96 -514q-78 10 -154 10q-59 0 -155 -10
q62 216 127.5 517.5t85.5 467.5z" />
    <glyph glyph-name="fl" unicode="fl" horiz-adv-x="1214" 
d="M766 1552q43 0 125 -14l-66 -260l-28 -8q-101 78 -195 78q-104 0 -104 -95q0 -82 53 -282q179 0 211 4q-9 -32 -21 -109q-160 4 -202 4q-122 -528 -160 -880q-83 10 -148 10q-73 0 -178 -10q44 131 109 410t98 470q-3 0 -66.5 -2t-97.5 -2q4 20 12 50.5t13 58.5
q98 -4 162 -4q37 225 102 334q148 247 381 247zM1008 1538q12 0 77.5 -5t81.5 -5q85 0 156 10q-100 -358 -195.5 -804t-144.5 -744q-82 10 -160 10q-73 0 -155 -10q61 210 175.5 731.5t164.5 816.5z" />
    <glyph glyph-name="f_f_i" unicode="ffi" horiz-adv-x="1832" 
d="M879 868h-340q-122 -527 -160 -878q-83 10 -148 10q-73 0 -178 -10q44 135 109.5 412t97.5 466q-3 0 -66.5 -2t-97.5 -2q12 39 25 111h162q36 220 102 330q148 247 381 247q43 0 125 -14l-66 -260l-28 -8q-101 78 -195 78q-104 0 -104 -95q0 -82 53 -282h350
q37 223 103 334q148 247 380 247q43 0 125 -14l-65 -260l-29 -8q-101 78 -194 78q-105 0 -105 -95q0 -82 53 -282q179 0 211 4q-7 -25 -20 -109q-160 4 -203 4q-122 -528 -160 -880q-83 10 -147 10q-73 0 -178 -10q44 135 109.5 412t97.5 466zM1726 1509q64 0 110 -45
t46 -110t-46 -110.5t-110 -45.5q-65 0 -110 46t-45 110t45 109.5t110 45.5zM1507 975q85 -10 154 -10q84 0 156 10q-45 -141 -117 -471t-96 -514q-78 10 -154 10q-60 0 -156 -10q62 216 127.5 517.5t85.5 467.5z" />
    <glyph glyph-name="f_f_l" unicode="ffl" horiz-adv-x="1830" 
d="M879 868h-340q-122 -527 -160 -878q-83 10 -148 10q-73 0 -178 -10q44 135 109.5 412t97.5 466q-3 0 -66.5 -2t-97.5 -2q12 39 25 111h162q36 220 102 330q148 247 381 247q43 0 125 -14l-66 -260l-28 -8q-101 78 -195 78q-104 0 -104 -95q0 -82 53 -282h350
q37 223 103 334q148 247 380 247q43 0 125 -14l-65 -260l-29 -8q-101 78 -194 78q-105 0 -105 -95q0 -82 53 -282q179 0 211 4q-7 -25 -20 -109q-160 4 -203 4q-122 -528 -160 -880q-83 10 -147 10q-73 0 -178 -10q44 135 109.5 412t97.5 466zM1624 1538q12 0 78 -5t82 -5
q84 0 155 10q-100 -358 -195.5 -804t-144.5 -744q-82 10 -159 10q-74 0 -156 -10q61 210 175.5 731.5t164.5 816.5z" />
    <glyph glyph-name=".notdef" horiz-adv-x="993" 
d="M0 1393h993v-1393h-993v1393zM96 96h801v1198h-801v-1198zM430 227v129h109v-129h-109zM502 1182q108 0 174.5 -70.5t66.5 -183.5q0 -68 -28.5 -120.5t-96.5 -113.5q-65 -54 -78.5 -85.5t-13.5 -100.5v-16v-37h-94v28q0 99 20 150.5t68 95.5q72 68 91 94q32 46 32 97
q0 67 -43 115t-104 48q-67 0 -108.5 -48.5t-49.5 -135.5l-98 16q13 130 81 198.5t181 68.5z" />
    <glyph glyph-name=".null" horiz-adv-x="0" 
 />
    <glyph glyph-name="nonmarkingreturn" horiz-adv-x="682" 
 />
    <glyph glyph-name="NULL" horiz-adv-x="0" 
 />
    <glyph glyph-name="NULL" horiz-adv-x="0" 
 />
    <glyph glyph-name="CR" unicode="&#xd;" horiz-adv-x="569" 
 />
    <glyph glyph-name="space" unicode=" " horiz-adv-x="569" 
 />
    <glyph glyph-name="exclam" unicode="!" horiz-adv-x="681" 
d="M516 1395q72 0 118 -41t46 -107q0 -14 -3 -31t-6.5 -31t-12.5 -37t-14.5 -36.5t-18.5 -45t-19 -46.5l-244 -584h-49l33 783q5 75 45.5 125.5t124.5 50.5zM291 295q67 0 115.5 -48.5t48.5 -115.5t-48.5 -115.5t-115.5 -48.5t-115.5 48.5t-48.5 115.5t48.5 115.5
t115.5 48.5z" />
    <glyph glyph-name="quotedbl" unicode="&#x22;" horiz-adv-x="1024" 
d="M360 1354h256l-219 -611h-112zM754 1354h256l-219 -611h-113z" />
    <glyph glyph-name="numbersign" unicode="#" 
d="M481 1354h160l-84 -391h225l84 391h160l-84 -391h188l-30 -140h-189l-61 -295h188l-30 -139h-189l-82 -389h-159l84 389h-226l-84 -389h-157l81 389h-188l31 139h188l62 295h-189l31 140h188zM754 823h-226l-63 -295h225z" />
    <glyph glyph-name="dollar" unicode="$" 
d="M725 1534q28 -4 63 -4q18 0 72 4q-31 -104 -45 -170q191 -30 318 -117q-60 -114 -95 -205h-26q-18 97 -69.5 155t-147.5 81l-99 -477q188 -82 269.5 -183t81.5 -223q0 -95 -42.5 -183t-119.5 -144q-132 -94 -355 -103q-28 -109 -38 -223q-27 6 -68 6q-47 0 -74 -6
q27 83 60 223q-221 15 -379 125q48 90 84 232h41q14 -111 82.5 -178.5t191.5 -84.5l100 508q-179 80 -255 169.5t-76 209.5q0 59 15 117t58.5 122t110.5 105q117 74 313 74q10 41 29 170zM446 1047q0 -61 34 -107.5t110 -83.5l88 422q-110 -7 -171 -74.5t-61 -156.5z
M637 506l-92 -447q122 11 185 78t63 158q0 67 -33.5 116.5t-122.5 94.5z" />
    <glyph glyph-name="percent" unicode="%" horiz-adv-x="1820" 
d="M424 -66l919 1481h113l-921 -1481h-111zM559 1368q141 0 219 -78t78 -196q0 -68 -24.5 -136.5t-71 -127.5t-124 -95.5t-173.5 -36.5q-145 0 -221 79t-76 212q0 51 15.5 103t48 102t77.5 88.5t110.5 62t141.5 23.5zM352 889q0 -53 29.5 -89t81.5 -36q45 0 82 34t59.5 83.5
t38 108.5t21.5 105t6 76q0 62 -28.5 97t-84.5 35q-49 0 -90 -44t-65 -110t-37 -134.5t-13 -125.5zM1434 647q141 0 219 -78t78 -196q0 -54 -15 -109t-47 -106.5t-77 -91.5t-111.5 -64.5t-143.5 -24.5q-145 0 -221 79t-76 212q0 64 25.5 129.5t72.5 122t124.5 92t171.5 35.5z
M1227 168q0 -54 29 -89.5t81 -35.5q45 0 82 34t59.5 84t38 108.5t21.5 105t6 76.5q0 62 -28 96.5t-84 34.5q-49 0 -90 -44t-65 -110t-37 -134.5t-13 -125.5z" />
    <glyph glyph-name="ampersand" unicode="&#x26;" horiz-adv-x="1478" 
d="M801 1395q171 0 264.5 -77.5t93.5 -193.5q0 -114 -85.5 -195.5t-276.5 -135.5q3 -4 23 -35.5t40 -61.5t52.5 -77t77.5 -109t97 -131q174 157 199 369l35 6q39 -92 109 -156q-117 -173 -275 -307l236 -301q-95 10 -179 10q-67 0 -176 -10l-92 131q-111 -80 -216 -117
t-222 -37q-198 0 -314 93t-116 259q0 141 98.5 253t319.5 206q-55 98 -76 160.5t-21 120.5q0 140 109 238t295 98zM674 1112q0 -96 74 -240q104 44 162.5 119.5t58.5 163.5q0 63 -39 102t-105 39t-108.5 -52t-42.5 -132zM340 418q0 -121 86.5 -207t220.5 -86q61 0 115.5 19
t120.5 65q-65 82 -165.5 226.5t-170.5 256.5q-120 -57 -163.5 -124t-43.5 -150z" />
    <glyph glyph-name="quotesingle" unicode="'" horiz-adv-x="569" 
d="M330 1354h256l-219 -611h-113z" />
    <glyph glyph-name="parenleft" unicode="(" horiz-adv-x="681" 
d="M838 1413l30 -57q-168 -110 -280 -293q-106 -173 -166 -414t-60 -454q0 -102 25 -202t86 -231l-49 -36q-244 294 -244 630q0 158 37.5 320t112.5 293q81 145 210 259t298 185z" />
    <glyph glyph-name="parenright" unicode=")" horiz-adv-x="681" 
d="M-119 -274l-31 57q170 111 281 293q106 170 165.5 412t59.5 456q0 102 -24.5 201.5t-85.5 230.5l49 37q244 -294 244 -631q0 -158 -37.5 -319.5t-112.5 -292.5q-81 -145 -210 -259t-298 -185z" />
    <glyph glyph-name="asterisk" unicode="*" horiz-adv-x="909" 
d="M535 1419q76 -22 157 -24q-22 -53 -58 -158t-50 -141q48 17 274 139q12 -61 51 -154q-177 -30 -301 -59q86 -69 258 -180q-46 -33 -112 -119q-175 224 -197 246q-9 -109 -14.5 -203t-7.5 -117q-80 20 -160 23q80 225 108 311q-86 -43 -145.5 -73.5t-87 -44.5t-41.5 -21
q-13 72 -53 153q16 0 76.5 11t137 27t87.5 18q-130 98 -256 182q54 44 104 125l203 -252q20 167 27 311z" />
    <glyph glyph-name="plus" unicode="+" horiz-adv-x="1214" 
d="M518 1038h180v-432h435v-172h-435v-434h-180v434h-434v172h434v432z" />
    <glyph glyph-name="comma" unicode="," horiz-adv-x="569" 
d="M293 307q54 0 94.5 -36t40.5 -85q0 -19 -4 -33.5t-27 -44.5t-67 -71l-434 -416l-35 25l266 497q18 35 26.5 49.5t26.5 42t32 39.5t35.5 22.5t45.5 10.5z" />
    <glyph glyph-name="hyphen" unicode="-" horiz-adv-x="681" 
d="M123 653h518l-49 -207h-510z" />
    <glyph glyph-name="period" unicode="." horiz-adv-x="569" 
d="M231 295q67 0 115.5 -49t48.5 -115t-48.5 -115t-115.5 -49t-115 49t-48 115t48 115t115 49z" />
    <glyph glyph-name="slash" unicode="/" horiz-adv-x="796" 
d="M813 1456h158l-897 -1532h-158z" />
    <glyph glyph-name="zero" unicode="0" 
d="M705 1356q197 0 301 -124.5t104 -330.5q0 -200 -74 -448q-74 -245 -193.5 -364.5t-312.5 -119.5q-139 0 -237 64.5t-143.5 173.5t-45.5 252q0 212 76 436q152 461 525 461zM358 236q0 -189 134 -189q30 0 54 10.5t45.5 37.5t37.5 55t35 83t32.5 99t36.5 125
q123 449 123 645q0 86 -34.5 131t-98.5 45q-37 0 -66 -17t-51 -45t-44.5 -82t-39.5 -109.5t-41 -145.5q-49 -182 -57 -230l-25 -112q-41 -185 -41 -301z" />
    <glyph glyph-name="one" unicode="1" 
d="M918 1389l38 -15q-83 -281 -171 -690t-132 -694q-100 10 -157 10q-58 0 -160 -10q167 629 254 1130h-10q-102 -44 -226 -90q-47 76 -73 111v18q316 81 637 230z" />
    <glyph glyph-name="two" unicode="2" 
d="M664 1354q210 0 324 -97t114 -260q0 -94 -39 -168q-28 -56 -61 -98.5t-115.5 -113t-220.5 -164.5q-224 -155 -285 -207v-15q1 0 44.5 -1t86.5 -1q236 0 438 17q-32 -110 -55 -256q-325 10 -459 10q-125 0 -430 -10v76q324 256 436 368q73 73 128 137.5t109.5 144.5
t84 163t29.5 163q0 105 -47.5 164.5t-133.5 59.5q-95 0 -153 -66.5t-68 -189.5l-20 -9q-46 59 -146 152q76 110 183.5 155.5t255.5 45.5z" />
    <glyph glyph-name="three" unicode="3" 
d="M629 1356q193 0 312.5 -94.5t119.5 -249.5q0 -140 -94.5 -222.5t-276.5 -107.5l-2 -14q120 -36 186 -119.5t66 -190.5q0 -176 -132.5 -282.5t-338.5 -106.5q-304 0 -479 187q88 85 145 168h27q14 -261 221 -261q78 0 138.5 57.5t90 142t29.5 177.5q0 99 -51.5 155
t-143.5 56q-29 0 -65 -8q20 64 20 107q33 -5 74 -5q295 0 295 320q0 103 -39.5 156t-112.5 53q-78 0 -127.5 -62t-60.5 -168h-29q-26 38 -39 55t-35 42t-48 47q105 168 350 168z" />
    <glyph glyph-name="four" unicode="4" 
d="M850 1362q65 -10 121 -10q47 0 129 10q-19 -76 -52.5 -211.5t-48 -196t-39 -174.5t-49.5 -248q108 0 193 17q-26 -61 -35.5 -112t-9.5 -126q-115 8 -191 8q-40 -191 -53 -329q-92 10 -151 10q-78 0 -142 -10q34 122 82 329q-143 5 -188 5q-129 0 -373 -13q33 116 49 221
q121 121 338 358t420 472zM780 1124h-28q-270 -324 -510 -575v-17h411q98 415 127 592z" />
    <glyph glyph-name="five" unicode="5" 
d="M436 1341l19 21q141 -16 368 -16q172 0 332 16q-42 -109 -57 -258q-203 24 -449 24q-106 0 -137 -2q-45 -144 -100 -362h12q94 27 174 27q172 0 279.5 -102t107.5 -267q0 -196 -137.5 -324.5t-366.5 -128.5q-124 0 -229.5 35.5t-208.5 114.5q70 99 117 200h30
q19 -143 76 -201.5t146 -58.5q66 0 120 39.5t86 102.5t49 133t17 137q0 99 -53 161t-139 62q-84 0 -152 -63l-57 35q104 311 153 675z" />
    <glyph glyph-name="six" unicode="6" 
d="M883 1354q94 0 176 -15l31 -88l-9 -10q-69 29 -139 29q-163 0 -283 -124.5t-198 -389.5h14q89 47 187 47q166 0 274 -107.5t108 -269.5q0 -205 -137 -331t-344 -126q-210 0 -326 122t-116 339q0 225 92 434q49 110 105 192.5t135.5 153t187.5 107.5t242 37zM367 254
q0 -91 37.5 -145t107.5 -54q58 0 106 52t75.5 129t42 156t14.5 143q0 78 -39.5 124t-108.5 46q-57 0 -104.5 -47.5t-74.5 -119.5t-41.5 -146.5t-14.5 -137.5z" />
    <glyph glyph-name="seven" unicode="7" 
d="M272 1362q46 -9 249 -18t427 -9q192 0 258 6l27 -34q-579 -739 -914 -1317q-59 10 -116 10q-41 0 -146 -10v14q416 495 606 727.5t265 339.5v14q-226 13 -353 13l-339 -2q20 58 28 114t8 152z" />
    <glyph glyph-name="eight" unicode="8" 
d="M690 1356q208 0 325.5 -95.5t117.5 -252.5q0 -124 -77 -201t-225 -100v-19q92 -41 144.5 -123t52.5 -186q0 -80 -29.5 -153t-85 -131t-144 -92t-198.5 -34q-229 0 -361 102t-132 289q0 153 99.5 254.5t271.5 118.5v19q-170 89 -170 276q0 146 108 237t303 91zM537 932
q0 -81 35 -126.5t100 -45.5q62 0 109.5 56t70 132.5t22.5 153.5q0 174 -137 174q-89 0 -144.5 -104t-55.5 -240zM358 227q0 -86 42 -135t112 -49q58 0 105 44.5t75 113.5t43 143.5t15 142.5q0 193 -148 193q-56 0 -103.5 -44t-77.5 -112.5t-46.5 -146.5t-16.5 -150z" />
    <glyph glyph-name="nine" unicode="9" 
d="M164 907q0 90 32 170t92 142.5t154 99.5t209 37q94 0 170 -26.5t126 -70.5t84 -104t48.5 -123.5t14.5 -132.5q0 -199 -90 -434q-94 -237 -259 -366.5t-389 -129.5q-111 0 -211 33q-19 83 -45 131l19 10q83 -92 205 -92q141 0 253 148t164 376l-10 11q-95 -56 -194 -56
q-155 0 -264 107t-109 270zM455 807q0 -82 37.5 -131t103.5 -49q73 0 126.5 73.5t77 174t23.5 208.5q0 189 -139 189q-53 0 -98.5 -47t-73 -118.5t-42.5 -150.5t-15 -149z" />
    <glyph glyph-name="colon" unicode=":" horiz-adv-x="681" 
d="M399 967q67 0 115.5 -48.5t48.5 -115.5t-48.5 -115.5t-115.5 -48.5t-115 49t-48 115t48 115t115 49zM262 295q68 0 116 -48.5t48 -115.5t-48 -115.5t-116 -48.5t-116 48.5t-48 115.5t48 115.5t116 48.5z" />
    <glyph glyph-name="semicolon" unicode=";" horiz-adv-x="681" 
d="M414 967q68 0 116 -48.5t48 -115.5t-48 -115.5t-116 -48.5t-116 48.5t-48 115.5t48 115.5t116 48.5zM293 307q54 0 94.5 -36t40.5 -85q0 -19 -4 -33.5t-27 -44.5t-67 -71l-434 -416l-35 25l266 497q18 35 26.5 49.5t26.5 42t32 39.5t35.5 22.5t45.5 10.5z" />
    <glyph glyph-name="less" unicode="&#x3c;" horiz-adv-x="1214" 
d="M1133 1018v-191l-820 -309l820 -307v-193l-1049 410v182z" />
    <glyph glyph-name="equal" unicode="=" horiz-adv-x="1214" 
d="M84 817h1049v-172h-1049v172zM84 393h1049v-172h-1049v172z" />
    <glyph glyph-name="greater" unicode="&#x3e;" horiz-adv-x="1214" 
d="M84 827v191l1049 -408v-182l-1049 -410v193l819 307z" />
    <glyph glyph-name="question" unicode="?" horiz-adv-x="909" 
d="M524 1395q186 0 286.5 -94t100.5 -228q0 -168 -237 -307q-139 -80 -179 -114.5t-40 -88.5q0 -40 32 -67t76 -27q39 0 80 25l16 -11q-14 -21 -38 -75q-35 -9 -64 -9q-127 0 -217 72t-90 186q0 31 3.5 53.5t18 54.5t40.5 61t73.5 66t114.5 77q96 57 134 98.5t38 95.5
q0 60 -43.5 102t-118.5 42q-52 0 -89 -16.5t-73 -57.5h-33q23 80 31 129q60 20 94.5 26.5t83.5 6.5zM348 295q68 0 116 -48.5t48 -115.5t-48 -115.5t-116 -48.5t-116 48.5t-48 115.5t48 115.5t116 48.5z" />
    <glyph glyph-name="at" unicode="@" horiz-adv-x="1529" 
d="M881 1421q139 0 260.5 -42.5t209 -117t137.5 -181.5t50 -232q0 -114 -36 -214t-93 -166.5t-127.5 -105t-140.5 -38.5q-72 0 -118 36t-46 105q0 7 1 15t2.5 17.5t2.5 14.5q-41 -83 -110 -135.5t-164 -52.5q-119 0 -192 82.5t-73 218.5q0 86 30.5 170.5t81.5 150.5t125 107
t155 41q172 0 227 -150l35 119h143l-125 -422q-26 -80 -26 -131q0 -82 86 -82q99 0 182.5 128.5t83.5 289.5q0 216 -155.5 350.5t-405.5 134.5q-153 0 -285 -54t-220.5 -144t-139 -208.5t-50.5 -246.5q0 -127 46 -239.5t129 -197.5t208.5 -134.5t276.5 -49.5q150 0 277.5 42
t271.5 145l51 -68q-157 -114 -296 -161.5t-300 -47.5q-175 0 -321.5 59t-240.5 157.5t-146 224t-52 260.5q0 213 103.5 385.5t284.5 270t403 97.5zM612 614q0 -87 38 -136.5t102 -49.5q49 0 92 32.5t72 82t50 107.5t30.5 108.5t9.5 85.5q0 68 -38.5 107.5t-101.5 39.5
q-66 0 -126.5 -61.5t-94 -148.5t-33.5 -167z" />
    <glyph glyph-name="A" unicode="A" horiz-adv-x="1366" 
d="M782 1411q51 -10 78 -10q33 0 78 10q50 -270 155.5 -730.5t168.5 -690.5q-98 10 -175 10q-84 0 -163 -10q-42 308 -64 428q-25 0 -111.5 2t-89.5 2q-108 0 -284 -4q-118 -203 -228 -428q-49 10 -88 10q-47 0 -102 -10q190 298 476 797.5t349 623.5zM731 1020
q-162 -258 -289 -479q4 0 40.5 -1t85 -2t81.5 -1q17 0 79.5 1t107.5 1q-43 254 -105 481z" />
    <glyph glyph-name="B" unicode="B" horiz-adv-x="1251" 
d="M375 1395q65 -11 168 -11q56 0 167 5.5t144 5.5q190 0 285.5 -73.5t95.5 -211.5q0 -146 -105.5 -249.5t-300.5 -127.5v-20h2q140 -13 219.5 -95t79.5 -212q0 -84 -32.5 -157t-97.5 -132t-176 -93t-255 -34q-13 0 -154 5t-153 5q-72 0 -182 -10q77 271 170 719t125 686z
M659 1276q-20 -72 -53.5 -228t-50.5 -260q9 0 41 -1t35 -1q43 0 83.5 8.5t81 31t70.5 56t49 87.5t19 123q0 89 -46 138.5t-159 49.5q-42 0 -70 -4zM563 678h-28q-12 -59 -38 -177.5t-43.5 -207.5t-35.5 -191q36 -4 92 -4q146 0 227.5 94t81.5 250q0 81 -31 138
q-31 56 -77.5 77t-147.5 21z" />
    <glyph glyph-name="C" unicode="C" horiz-adv-x="1366" 
d="M967 1419q272 0 501 -127q-41 -57 -94 -184h-20q-60 102 -146.5 147t-212.5 45q-136 0 -245.5 -66t-177 -177t-103 -248t-35.5 -287q0 -205 106.5 -320.5t301.5 -115.5q214 0 358 121l19 -14q-43 -82 -76 -168q-85 -32 -153.5 -44t-155.5 -12q-178 0 -316 49t-224.5 137
t-130.5 205t-44 258q0 165 63 312.5t173.5 255t269.5 170.5t342 63z" />
    <glyph glyph-name="D" unicode="D" horiz-adv-x="1593" 
d="M381 1395q115 -11 211 -11q49 1 171.5 6t184.5 5q275 0 447 -171t172 -438q0 -162 -71.5 -320.5t-195.5 -270.5q-123 -111 -280 -158t-402 -47q-22 0 -186 5t-184 5q-84 0 -172 -10q58 186 166 674q104 469 139 731zM674 1270q-56 -198 -141 -603.5t-107 -555.5
q10 0 62.5 -3.5t72.5 -3.5q204 0 359 76q149 72 237 256.5t88 403.5q0 218 -112 326t-345 108q-36 0 -114 -4z" />
    <glyph glyph-name="E" unicode="E" horiz-adv-x="1062" 
d="M367 1395q135 -11 301 -11q319 0 499 11q-37 -70 -37 -121q0 -7 1.5 -18.5t1.5 -18.5q-125 18 -467 18q-49 -175 -107 -450q361 0 471 10q-20 -43 -26.5 -67t-6.5 -64q0 -23 2 -29q-207 19 -469 19q-65 -300 -96 -545h150q192 0 325 14q-35 -84 -35 -118q0 -7 1.5 -17.5
t1.5 -17.5q-260 10 -428 10q-185 0 -377 -10q61 183 166.5 703.5t128.5 701.5z" />
    <glyph glyph-name="F" unicode="F" horiz-adv-x="1024" 
d="M385 1395q225 -11 412 -11q126 0 385 11q-37 -91 -37 -150v-18q-196 24 -465 24q-54 -185 -109 -446q46 -6 207 -6q123 0 254 8q-34 -87 -37 -164q-189 25 -452 25q-79 -326 -135 -678q-92 10 -172 10q-94 0 -166 -10q71 216 174 679t141 726z" />
    <glyph glyph-name="G" unicode="G" horiz-adv-x="1554" 
d="M1006 1419q288 0 563 -127q-41 -73 -84 -188h-25q-56 92 -166 143t-243 51q-122 0 -224.5 -43t-174.5 -116.5t-122 -172.5t-74 -210.5t-24 -231.5q0 -215 105.5 -327.5t308.5 -112.5q98 0 178 22q37 108 72.5 264t42.5 246q90 -10 161 -10q69 0 148 10
q-89 -294 -127 -581q-143 -40 -237.5 -54t-204.5 -14q-369 0 -564.5 164t-195.5 471q0 173 67 324.5t183.5 259.5t281.5 170.5t355 62.5z" />
    <glyph glyph-name="H" unicode="H" horiz-adv-x="1593" 
d="M371 1395q87 -11 170 -11q73 0 159 11q-73 -258 -145 -580q5 0 58 -1t120 -2t107 -1q246 0 340 4q86 410 114 580q105 -11 181 -11q59 0 149 11q-69 -209 -153.5 -596t-153.5 -809q-120 10 -170 10q-64 0 -164 -10q31 112 54.5 201t41 165.5t25.5 110.5t23 108.5t18 88.5
q-1 0 -15.5 0.5t-41.5 1t-62 1t-85 1t-103 0.5q-30 0 -157 -2t-157 -2q-39 -166 -64.5 -296t-36 -199t-24.5 -179q-92 10 -180 10q-64 0 -156 -10q71 226 170 684.5t138 720.5z" />
    <glyph glyph-name="I" unicode="I" horiz-adv-x="681" 
d="M377 1395q7 0 36.5 -3.5t65 -5.5t74.5 -2q25 0 162 11q-91 -288 -188.5 -717t-129.5 -688q-105 10 -174 10q-96 0 -164 -10q80 265 180.5 710t137.5 695z" />
    <glyph glyph-name="J" unicode="J" horiz-adv-x="681" 
d="M387 1395q124 -11 168 -11q17 0 160 11q-136 -529 -180 -789l-68 -387q-35 -199 -90.5 -312.5t-165.5 -168.5q-136 -68 -330 -68h-10l-12 94q93 5 142 38.5t85 123.5q27 69 152 678q74 362 149 791z" />
    <glyph glyph-name="K" unicode="K" horiz-adv-x="1251" 
d="M395 1395q86 -11 154 -11q78 0 164 11q-53 -204 -90 -369q-50 -226 -50 -229q0 -15 11 -15t56 41.5t177 173.5q166 162 375 398q57 -11 106 -11q72 0 129 11v-13q-88 -65 -319.5 -286t-304.5 -301q35 -95 165 -398t183 -407q-98 10 -176 10q-86 0 -154 -10
q-129 350 -246 596q-15 35 -28 35q-4 0 -7 -1.5t-5 -6.5t-3 -8.5t-3 -12t-3 -12.5l-77 -416q-20 -108 -29 -174q-82 10 -180 10q-66 0 -148 -10q57 215 171 741t132 664z" />
    <glyph glyph-name="L" unicode="L" horiz-adv-x="1024" 
d="M381 1395q75 -11 176 -11q74 0 164 11q-59 -199 -144 -577t-137 -685h187q182 0 297 10q-21 -46 -28 -75.5t-7 -77.5q-235 10 -418 10q-142 0 -387 -10q58 187 147.5 595.5t149.5 809.5z" />
    <glyph glyph-name="M" unicode="M" horiz-adv-x="1820" 
d="M395 1395q64 -11 99 -11q44 0 104 11q45 -185 142.5 -503.5t150.5 -469.5q121 150 408.5 531t328.5 442q60 -11 98 -11q15 0 60 5l53 6q-35 -113 -137.5 -645t-134.5 -760q-100 10 -156 10q-58 0 -158 -10q129 552 179 917q-139 -174 -221 -281t-212.5 -293.5
t-240.5 -369.5q-9 4 -33 4q-5 0 -33 -4q-34 175 -119 481.5t-145 487.5q-44 -159 -122.5 -467.5t-112.5 -474.5q-52 10 -80 10q-36 0 -78 -10q61 196 176.5 646.5t183.5 758.5z" />
    <glyph glyph-name="N" unicode="N" horiz-adv-x="1593" 
d="M385 1417q51 -10 90 -10q48 0 90 10q87 -162 312 -508.5t354 -523.5q38 143 102 449.5t109 560.5q46 -11 80 -11q27 0 84 11q-1 -4 -12 -43t-24.5 -92t-27.5 -115l-31 -133q-109 -472 -141 -641q-24 -127 -72 -404q-49 10 -86 10q-28 0 -82 -10q-96 167 -223.5 367.5
t-204.5 314t-247 363.5q-45 -176 -111.5 -512.5t-91.5 -509.5q-54 10 -88 10q-29 0 -84 -10q36 107 145 606q106 482 160 821z" />
    <glyph glyph-name="O" unicode="O" horiz-adv-x="1705" 
d="M977 1421q148 0 276 -41.5t224 -118.5t151 -196t55 -266q0 -139 -42.5 -267t-121.5 -230t-185.5 -177.5t-239 -116.5t-277.5 -41q-201 0 -358.5 73.5t-248.5 216.5t-91 335q0 171 64.5 323.5t176.5 264t272.5 176.5t344.5 65zM424 494q0 -195 100 -303.5t275 -108.5
q155 0 286 113q127 105 210 309.5t83 396.5q0 182 -103.5 294t-279.5 112q-166 0 -295 -111q-123 -107 -199.5 -301t-76.5 -401z" />
    <glyph glyph-name="P" unicode="P" horiz-adv-x="1175" 
d="M369 1395q71 -11 155 -11q40 0 138 5.5t147 5.5q393 0 393 -348q0 -213 -139.5 -331t-386.5 -118q-103 0 -164 10q-76 -293 -129 -618q-98 10 -164 10q-82 0 -160 -10q104 388 191.5 797t118.5 608zM690 1278h-37q-52 -207 -123 -567q18 -4 70 -4q139 0 218 100t79 264
q0 45 -6.5 76.5t-26 64t-63.5 49.5t-111 17z" />
    <glyph glyph-name="Q" unicode="Q" horiz-adv-x="1705" 
d="M977 1421q320 0 518 -174q188 -166 188 -459q0 -135 -44 -260.5t-117.5 -221t-165.5 -166t-193 -107.5q-72 -24 -125 -47q6 -4 73 -23.5t225.5 -63t271.5 -75.5q-20 -14 -52 -37t-46.5 -34t-36.5 -29t-40.5 -37t-39.5 -43q-130 63 -213 96q-69 29 -208.5 90t-246 106
t-164.5 64q-199 63 -320.5 213.5t-121.5 382.5q0 166 63 317t174 263t272.5 178.5t348.5 66.5zM424 494q0 -197 98.5 -304.5t278.5 -107.5q126 0 237.5 77t184 197t114 263t41.5 280q0 185 -103 296.5t-280 111.5q-108 0 -202 -49t-160.5 -130.5t-114.5 -187t-71 -219.5
t-23 -227z" />
    <glyph glyph-name="R" unicode="R" horiz-adv-x="1251" 
d="M373 1395q53 -11 170 -11q38 0 130.5 5.5t147.5 5.5q192 0 292.5 -86t100.5 -252q0 -155 -99.5 -258t-276.5 -129q50 -135 156.5 -394t123.5 -286q-102 10 -170 10q-90 0 -162 -10q-120 382 -231 653h-39q-94 -434 -131 -653q-78 10 -164 10q-72 0 -151 -10
q44 143 158.5 670.5t144.5 734.5zM649 1280q-75 -310 -114 -545q54 -4 81 -4q139 0 216 91t77 247q0 213 -217 213q-29 0 -43 -2z" />
    <glyph glyph-name="S" unicode="S" horiz-adv-x="1062" 
d="M680 1419q216 0 385 -108q-53 -95 -88 -244h-45q-12 109 -76.5 168t-169.5 59q-95 0 -153 -54t-58 -132q0 -65 41 -123t141 -139q166 -137 229.5 -226t63.5 -210q0 -202 -141 -322.5t-356 -120.5q-126 0 -225.5 30t-200.5 95q62 122 88 250h43q10 -120 87 -189t195 -69
q100 0 168 56.5t68 146.5q0 67 -52 134.5t-182 172.5q-130 101 -183.5 191.5t-53.5 201.5q0 199 131 315.5t344 116.5z" />
    <glyph glyph-name="T" unicode="T" 
d="M225 1395q282 -11 506 -11q365 0 541 11q-26 -61 -35 -164q-150 16 -334 16q-68 -227 -166 -674.5t-110 -582.5q-78 10 -174 10q-58 0 -162 -10q108 404 161 644.5t121 612.5q-176 0 -385 -12q25 59 37 160z" />
    <glyph glyph-name="U" unicode="U" horiz-adv-x="1593" 
d="M373 1395q94 -11 168 -11q40 0 172 11q-12 -44 -43.5 -155.5t-56.5 -210t-70 -288.5q-70 -305 -70 -405q0 -117 76 -178.5t223 -61.5q154 0 256.5 63t163.5 197q58 128 141 506q90 406 107 533q60 -11 94 -11q35 0 92 11q-61 -197 -127 -502q-96 -440 -145 -545
q-60 -131 -136.5 -212t-198 -125t-294.5 -44q-161 0 -283 43t-193 132t-71 214q0 117 45 293q95 399 124 570q16 91 26 176z" />
    <glyph glyph-name="V" unicode="V" horiz-adv-x="1366" 
d="M227 1395q58 -11 176 -11q43 0 175 11q46 -501 145 -1053q117 180 323.5 542.5t268.5 510.5q78 -11 108 -11q49 0 103 11q-49 -66 -306 -487.5t-552 -917.5q-61 10 -93 10q-37 0 -94 -10q-16 151 -41 299q-71 424 -106 607.5t-107 498.5z" />
    <glyph glyph-name="W" unicode="W" horiz-adv-x="1933" 
d="M207 1395q121 -11 162 -11q49 0 170 11q7 -219 32.5 -508.5t55.5 -497.5q70 126 247.5 489t239.5 517q65 -11 105 -11q24 0 102 11q7 -185 42.5 -484.5t74.5 -523.5q95 186 223.5 476.5t226.5 531.5q54 -11 99 -11q38 0 94 11q-81 -137 -545 -1088q-7 -16 -64 -134
t-86 -183q-51 10 -100 10q-63 0 -102 -10q-12 188 -47.5 463.5t-73.5 488.5q-86 -148 -244 -465.5t-233 -486.5q-52 10 -94 10q-41 0 -113 -10q-27 274 -82.5 730t-89.5 675z" />
    <glyph glyph-name="X" unicode="X" horiz-adv-x="1251" 
d="M240 1395q78 -11 163 -11q67 0 175 11q96 -288 180 -492q244 307 366 492q54 -11 105 -11q56 0 110 11q-97 -103 -279.5 -323t-246.5 -310q59 -154 164.5 -403.5t165.5 -368.5q-104 10 -172 10q-67 0 -176 -10q-16 52 -34.5 104t-41.5 112t-38 98.5t-45 112t-42 103.5
q-8 -11 -43.5 -57t-43.5 -57t-38 -51t-43 -58.5t-41 -58t-50 -72t-52.5 -79t-63.5 -97.5q-69 10 -119 10q-53 0 -102 -10q259 299 543 672q-234 577 -301 733z" />
    <glyph glyph-name="Y" unicode="Y" horiz-adv-x="1251" 
d="M227 1395q99 -11 162 -11t178 11q99 -412 181 -666q96 130 234 333.5t216 332.5q56 -11 105 -11q55 0 116 11q-153 -185 -272 -342q-107 -141 -332 -457q-2 -15 -24 -115.5t-48 -236.5t-43 -254q-92 10 -163 10q-63 0 -158 -10q86 315 129 583q-125 406 -281 822z" />
    <glyph glyph-name="Z" unicode="Z" horiz-adv-x="1251" 
d="M326 1356q0 5 -1 19.5t-1 19.5q228 -11 565 -11q289 0 504 11l-11 -45q-56 -56 -459.5 -562.5t-512.5 -656.5h217q336 0 491 31q-23 -49 -31 -85.5t-8 -86.5q-205 10 -477 10q-510 0 -663 -10l8 39q59 68 464 568.5t523 655.5h-31q-305 0 -610 -24q33 77 33 127z" />
    <glyph glyph-name="bracketleft" unicode="[" horiz-adv-x="681" 
d="M379 1395q135 -9 201 -9q101 0 243 9q-19 -41 -22 -99q-94 4 -117 4q-28 0 -52 -1t-37.5 -2t-16.5 -1q-21 -65 -80.5 -321t-118.5 -543l-123 -594q44 -4 111 -4q68 0 118 4q-16 -43 -16 -76q0 -3 -1 -10.5t-1 -11.5q-79 8 -221 8q-164 0 -219 -8q58 193 141 598l143 680
q55 259 68 377z" />
    <glyph glyph-name="backslash" unicode="\" horiz-adv-x="796" 
d="M74 1456h153l561 -1532h-153z" />
    <glyph glyph-name="bracketright" unicode="]" horiz-adv-x="681" 
d="M340 -258q-123 8 -201 8q-30 0 -243 -8q19 41 22 98q94 -4 117 -4q28 0 52 1t37.5 2t16.5 1q25 90 85 346t114 519l123 593q-55 5 -111 5t-119 -5q17 46 17 76q0 3 1 11t1 12q79 -8 221 -8q164 0 219 8q-58 -193 -141 -598l-143 -680q-55 -259 -68 -377z" />
    <glyph glyph-name="asciicircum" unicode="^" horiz-adv-x="1214" 
d="M555 1354h166l354 -865h-186l-254 637l-246 -637h-188z" />
    <glyph glyph-name="underscore" unicode="_" horiz-adv-x="1024" 
d="M0 -154h1024v-102h-1024v102z" />
    <glyph glyph-name="grave" unicode="`" horiz-adv-x="569" 
d="M272 1481q60 0 109 -64l225 -303h-92l-287 195q-51 34 -51 84q0 37 26.5 62.5t69.5 25.5z" />
    <glyph glyph-name="a" unicode="a" horiz-adv-x="1024" 
d="M627 995q151 0 234 -64t83 -186q0 -81 -22 -167l-60 -275q-24 -114 -24 -160q0 -82 55 -82q17 0 33 13l16 -47q-78 -56 -166 -56q-152 0 -190 152q-49 -86 -114.5 -123t-164.5 -37q-122 0 -195 74t-73 194q0 153 117 246q48 39 114 55.5t220 37.5q24 3 36 5q47 7 68.5 12
t40.5 19t24 36.5t5 62.5q0 76 -48.5 116.5t-132.5 40.5q-111 0 -215 -78h-10q5 28 10 117q172 94 359 94zM322 240q0 -64 27.5 -101t80.5 -37q125 0 166 201l41 209q-158 -22 -213 -53q-52 -27 -77 -88t-25 -131z" />
    <glyph glyph-name="b" unicode="b" 
d="M324 1538q78 -10 147 -10q80 0 152 10q-32 -108 -83.5 -327t-72.5 -330q103 118 274 118q69 0 127 -22t98.5 -59.5t68.5 -88.5t41.5 -109t13.5 -120q0 -137 -70 -299q-70 -157 -188.5 -243.5t-270.5 -86.5q-219 0 -299 172q-106 -54 -221 -143h-41q74 274 181 779.5
t143 758.5zM346 260q0 -81 45.5 -135.5t116.5 -54.5q74 0 141 82q61 76 107.5 230.5t46.5 270.5q0 100 -44.5 156.5t-125.5 56.5q-57 0 -101.5 -35.5t-85.5 -136.5q-43 -108 -71.5 -232.5t-28.5 -201.5z" />
    <glyph glyph-name="c" unicode="c" horiz-adv-x="985" 
d="M651 995q212 0 402 -110q-38 -64 -55 -97.5t-52 -121.5h-47v14q0 108 -58.5 165.5t-148.5 57.5q-75 0 -137 -42t-99.5 -104t-63.5 -137t-36 -137.5t-10 -109.5q0 -123 69 -203t189 -80q60 0 108 19t109 71l29 -22q-53 -83 -66 -146q-126 -49 -245 -49q-218 0 -352 126
t-134 331q0 78 20.5 156t67.5 154t114.5 134.5t170 94.5t225.5 36z" />
    <glyph glyph-name="d" unicode="d" 
d="M965 1538q3 0 60.5 -5t92.5 -5q54 0 133 10q-65 -248 -181.5 -803.5t-139.5 -744.5q-78 10 -133 10q-45 0 -138 -10q22 72 37 145q-115 -166 -293 -166q-166 0 -260 107t-94 293q0 161 61 305t173 234.5t247 90.5q98 0 177 -41.5t122 -113.5q90 397 136 694zM336 311
q0 -87 40 -141.5t105 -54.5q71 0 126.5 46.5t86.5 113t51 149t26.5 145t6.5 111.5q0 87 -44.5 139.5t-121.5 52.5q-75 0 -141 -84q-57 -71 -96 -214.5t-39 -262.5z" />
    <glyph glyph-name="e" unicode="e" horiz-adv-x="1024" 
d="M608 997q184 0 284.5 -96.5t100.5 -269.5q0 -72 -16 -158q-68 0 -187 4t-143 4q-182 0 -282 -2q-9 -53 -9 -108q0 -134 63 -203.5t181 -69.5q70 0 139 30t119 83l31 -14q-16 -30 -47 -140q-115 -82 -307 -82q-93 0 -170.5 25t-131 68.5t-90.5 102.5t-54 125.5t-17 139.5
q0 107 36.5 206.5t102.5 179t169.5 127.5t227.5 48zM379 573q46 -4 160 -4q16 0 89 2t93 2q20 87 20 168q0 166 -131 166q-32 0 -60.5 -13.5t-48.5 -31.5t-39 -51.5t-29.5 -56.5t-23.5 -65.5t-17 -59.5t-13 -56z" />
    <glyph glyph-name="f" unicode="f" horiz-adv-x="681" 
d="M766 1552q43 0 125 -14l-66 -260l-28 -8q-101 78 -195 78q-104 0 -104 -95q0 -82 53 -282q179 0 211 4q-9 -32 -21 -109q-160 4 -202 4q-122 -528 -160 -880q-83 10 -148 10q-73 0 -178 -10q44 131 109 410t98 470q-3 0 -66.5 -2t-97.5 -2q4 20 12 50.5t13 58.5
q98 -4 162 -4q37 225 102 334q148 247 381 247z" />
    <glyph glyph-name="g" unicode="g" horiz-adv-x="1062" 
d="M580 999q66 0 157.5 -20.5t122.5 -20.5q10 0 127 6l117 7q-17 -47 -17 -99q-67 5 -174 5q74 -83 74 -191q0 -73 -36.5 -147t-104.5 -119q-125 -80 -330 -80q-12 0 -55.5 2t-50.5 2q-40 0 -68.5 -28t-28.5 -62q0 -32 10 -48t58.5 -28.5t146.5 -15.5q154 -3 224 -27
q71 -24 113 -88.5t42 -144.5q0 -79 -35 -156.5t-99.5 -142t-167.5 -104.5t-228 -40q-203 0 -325 73t-122 206q0 96 69.5 164t199.5 104l4 10q-103 44 -103 150q0 72 53.5 126t153.5 83l2 12q-182 76 -182 260q0 148 119 250t334 102zM397 563q0 -145 123 -145q49 0 89 33.5
t63.5 86.5t36 113t12.5 117q0 154 -123 154q-64 0 -112 -59t-68.5 -138.5t-20.5 -161.5zM121 -231q0 -107 68 -164.5t198 -57.5q141 0 222 66.5t81 177.5q0 102 -84 137t-291 35q-89 0 -138.5 -54.5t-55.5 -139.5z" />
    <glyph glyph-name="h" unicode="h" 
d="M344 1538q55 -10 150 -10q72 0 151 10q-93 -293 -178 -725q147 182 356 182q122 0 189 -58t67 -163q0 -66 -26 -182.5t-64.5 -285.5t-58.5 -316q-72 10 -150 10q-26 0 -159 -10q6 23 45 160.5t54.5 194t41.5 156t36.5 154.5t10.5 82q0 49 -30.5 78t-88.5 29
q-67 0 -120 -40.5t-97 -125.5q-82 -152 -168 -688q-93 10 -143 10q-67 0 -152 -10q76 288 188.5 815t145.5 733z" />
    <glyph glyph-name="i" unicode="i" horiz-adv-x="569" 
d="M459 1509q64 0 109.5 -45t45.5 -110t-45.5 -110.5t-109.5 -45.5q-65 0 -110.5 46t-45.5 110t45.5 109.5t110.5 45.5zM240 975q85 -10 153 -10q84 0 156 10q-45 -141 -117 -471t-96 -514q-78 10 -154 10q-59 0 -155 -10q62 216 127.5 517.5t85.5 467.5z" />
    <glyph glyph-name="j" unicode="j" horiz-adv-x="530" 
d="M459 1509q63 0 108 -46t45 -109q0 -65 -45.5 -110.5t-107.5 -45.5q-67 0 -112.5 46t-45.5 110t45.5 109.5t112.5 45.5zM74 119q131 618 170 856q83 -10 143 -10q62 0 152 10q-44 -153 -105.5 -426t-93.5 -440l-51 -261q-38 -191 -139.5 -278t-260.5 -100q-65 -9 -116 -9
l-15 72q72 11 115 34.5t68 70.5q51 91 133 481z" />
    <glyph glyph-name="k" unicode="k" horiz-adv-x="1024" 
d="M344 1538q82 -10 158 -10q56 0 141 10q-49 -186 -102.5 -421t-83 -380.5t-29.5 -154.5q0 -19 16 -19t151 117q37 31 58 49q159 138 254 246q55 -10 103 -10q38 0 90 10l2 -33q-90 -56 -428 -358q17 -44 52 -134.5t58 -148.5t50 -126.5t45.5 -111t27.5 -59.5v-14
q-61 10 -139 10q-66 0 -164 -10q-34 131 -94 299l-61 174q-6 20 -23 20q-7 0 -13 -5t-8 -9t-6 -14q-4 -6 -18.5 -68t-35.5 -174.5t-36 -222.5q-84 10 -139 10q-54 0 -158 -10q100 393 213 918t119 630z" />
    <glyph glyph-name="l" unicode="l" horiz-adv-x="569" 
d="M358 1538q12 0 78 -5t82 -5q85 0 156 10q-100 -358 -195.5 -804t-144.5 -744q-82 10 -160 10q-74 0 -156 -10q61 210 175.5 731.5t164.5 816.5z" />
    <glyph glyph-name="m" unicode="m" horiz-adv-x="1705" 
d="M1393 997q110 0 184 -62t74 -169q0 -80 -27 -188q-24 -88 -67 -297t-56 -291q-85 10 -147 10q-80 0 -154 -10q74 252 125 465.5t51 273.5q0 49 -29.5 81t-82.5 32q-77 0 -141.5 -66t-104.5 -196q-64 -217 -127 -590q-93 10 -160 10q-59 0 -133 -10q60 198 118 443t58 300
q0 105 -110 105q-121 0 -205 -146q-76 -127 -170 -702q-120 10 -146 10q-51 0 -143 -10q40 146 119 505.5t100 479.5q82 -10 135 -10q60 0 138 10q-10 -30 -37 -154q141 174 342 174q99 0 161 -48.5t82 -141.5q165 192 353 192z" />
    <glyph glyph-name="n" unicode="n" 
d="M829 995q117 0 183.5 -57.5t66.5 -161.5q0 -63 -25 -171.5t-65.5 -279.5t-64.5 -335q-92 10 -152 10q-56 0 -154 -10q191 626 191 737q0 56 -31.5 85.5t-87.5 29.5q-86 0 -157 -73t-109 -202q-36 -116 -71.5 -282t-53.5 -295q-85 10 -141 10q-72 0 -150 -10
q136 512 219 985q72 -10 148 -10q59 0 131 10q-36 -129 -45 -172q79 99 168 145.5t200 46.5z" />
    <glyph glyph-name="o" unicode="o" 
d="M643 995q211 0 329 -115.5t118 -330.5q0 -159 -84 -295t-222.5 -213.5t-296.5 -77.5q-200 0 -319 121t-119 315q0 121 45.5 230.5t124 190t189.5 128t235 47.5zM330 295q0 -250 162 -250q64 0 118.5 44.5t90 113t61 153.5t36.5 163.5t11 144.5q0 125 -39.5 187t-124.5 62
q-63 0 -116.5 -44t-89 -112t-61 -152.5t-37 -163.5t-11.5 -146z" />
    <glyph glyph-name="p" unicode="p" 
d="M743 999q46 0 91.5 -11t93 -40t83 -72.5t58.5 -114t23 -159.5q0 -159 -60.5 -303.5t-173.5 -238t-250 -93.5q-93 0 -170.5 40t-122.5 108q-91 -353 -135 -650q-94 11 -135 11q-68 0 -143 -11q75 295 178 791.5t133 718.5q79 -10 135 -10q75 0 144 10q-9 -27 -21.5 -70
t-19.5 -65q59 78 128.5 118.5t163.5 40.5zM365 293q0 -86 43 -142.5t114 -56.5q55 0 103 43t80 109t55.5 145t34 150t10.5 125q0 86 -42.5 136t-117.5 50q-57 0 -106 -44.5t-80 -110.5t-53 -144.5t-31.5 -145.5t-9.5 -114z" />
    <glyph glyph-name="q" unicode="q" 
d="M532 999q201 0 302 -174q24 117 24 150q79 -10 148 -10q73 0 131 10q-65 -237 -181 -796t-139 -714q-125 11 -145 11q-40 0 -148 -11q25 76 74 279t80 369q-115 -142 -283 -142q-156 0 -251 105t-95 286q0 109 33.5 220.5t93 205t153 152.5t203.5 59zM338 303
q0 -91 40.5 -138.5t113.5 -47.5q63 0 114.5 43.5t82 107.5t52 142.5t29.5 143.5t8 116q0 95 -40 147.5t-117 52.5q-58 0 -107.5 -42t-81 -106.5t-53.5 -143t-31.5 -148.5t-9.5 -127z" />
    <glyph glyph-name="r" unicode="r" horiz-adv-x="796" 
d="M764 997q44 0 86 -22q-34 -68 -47.5 -122.5t-20.5 -135.5l-18 -8q-43 30 -107 30q-118 0 -182 -98q-35 -52 -69 -194t-89 -457q-100 10 -149 10q-51 0 -143 -10q162 606 217 985q71 -10 139 -10q69 0 127 10q-4 -17 -9.5 -41t-17 -76.5t-24.5 -112.5q132 252 307 252z
" />
    <glyph glyph-name="s" unicode="s" horiz-adv-x="796" 
d="M502 995q137 0 276 -63q-35 -70 -59 -207h-43q-37 174 -205 174q-74 0 -121 -36.5t-47 -92.5q0 -18 4 -33t19 -31t26 -26t43 -28t51 -28.5t68 -35.5q117 -61 162 -129t45 -148q0 -162 -122.5 -255t-309.5 -93q-153 0 -273 70q42 93 58 205h39q13 -83 76.5 -132t146.5 -49
q72 0 121 38.5t49 94.5q0 47 -34.5 82t-121.5 80q-113 58 -155 97q-86 82 -86 202q0 61 23.5 120t69 110t123.5 82.5t177 31.5z" />
    <glyph glyph-name="t" unicode="t" horiz-adv-x="681" 
d="M311 1198q139 43 307 131l17 -18q-9 -34 -21.5 -77t-18 -63t-14 -51.5t-15.5 -65.5t-17 -83q140 0 182 4q-18 -45 -22 -109q-45 4 -181 4l-114 -524q-29 -130 -29 -186q0 -55 28.5 -79t84.5 -24q39 0 63 9l-18 -74q-114 -29 -170 -29q-111 0 -182.5 63t-71.5 162
q0 70 20 154l117 528q-26 0 -76 -2t-63 -2q12 31 22 109q54 -4 137 -4q31 196 35 227z" />
    <glyph glyph-name="u" unicode="u" 
d="M219 975q78 -10 154 -10q40 0 157 10q-76 -256 -132 -477.5t-56 -276.5q0 -46 32.5 -76t86.5 -30q81 0 147.5 65t100.5 164q34 90 75 268.5t64 362.5q54 -10 135 -10q104 0 156 10q-66 -255 -107 -443.5t-102 -541.5q-78 10 -137 10q-91 0 -146 -10q28 66 47 166
q-145 -193 -370 -193q-119 0 -187.5 58.5t-68.5 154.5q0 46 10 98q0 9 31.5 146t67 306.5t42.5 248.5z" />
    <glyph glyph-name="v" unicode="v" horiz-adv-x="987" 
d="M135 975q74 -10 141 -10q63 0 142 10q5 -76 31 -313.5t49 -399.5q204 345 387 713q58 -10 88 -10q43 0 84 10l-215 -340q-328 -564 -365 -645q-59 10 -104 10q-55 0 -113 -10q-59 631 -125 985z" />
    <glyph glyph-name="w" unicode="w" horiz-adv-x="1554" 
d="M141 975q90 -10 135 -10q63 0 142 10q8 -305 53 -688q125 212 360 688q52 -10 103 -10q50 0 108 10q8 -345 39 -701q69 106 208 364t167 337q59 -10 90 -10q29 0 88 10q-135 -205 -241 -382t-161 -279t-171 -324q-59 10 -98 10q-41 0 -119 -10l-23 336q-3 48 -26 311
q-92 -155 -137.5 -237t-100.5 -190t-115 -220q-39 10 -94 10q-47 0 -123 -10q-13 416 -84 985z" />
    <glyph glyph-name="x" unicode="x" horiz-adv-x="948" 
d="M131 961v14q90 -10 148 -10t143 10q98 -261 127 -328q87 102 132 158t128 170q55 -8 98 -8q51 0 82 8v-12q-32 -34 -102.5 -106.5t-114.5 -118.5t-96.5 -103t-83.5 -94l96 -262q74 -194 109 -277v-12q-100 10 -140 10q-51 0 -147 -10q-50 159 -119 329
q-118 -126 -280 -329q-51 10 -88 10q-39 0 -105 -10v12q188 164 432 428q-97 257 -219 531z" />
    <glyph glyph-name="y" unicode="y" horiz-adv-x="1024" 
d="M154 975q79 -10 137 -10q55 0 147 10l25 -195q31 -250 67 -475q33 51 171.5 295.5t203.5 374.5q52 -10 80 -10q41 0 82 10l2 -12q-37 -54 -403 -641q-369 -592 -510 -857q-70 11 -101 11q-32 0 -96 -11q78 102 188 261t179 270l-86 512q-27 167 -86 467z" />
    <glyph glyph-name="z" unicode="z" horiz-adv-x="1024" 
d="M209 975q263 -10 444 -10q182 0 400 10v-86q-89 -89 -331.5 -360.5t-369.5 -424.5q301 0 520 17q-24 -74 -24 -131q-250 10 -440 10q-215 0 -447 -10v65q157 171 409 459.5t292 345.5q-197 0 -465 -22q12 62 12 137z" />
    <glyph glyph-name="braceleft" unicode="{" horiz-adv-x="743" 
d="M909 1395h27l-21 -103q-118 -7 -183 -73t-93 -189q-14 -61 -22 -96t-20 -81t-20.5 -70.5t-22 -56.5t-26 -48.5t-31 -37t-37.5 -30t-45 -20.5t-55.5 -16t-66.5 -9q102 -26 144 -79t42 -148q0 -50 -26.5 -175.5t-26.5 -180.5q0 -70 45.5 -103.5t134.5 -38.5l-20 -98
q-342 0 -342 258q0 54 24.5 187t24.5 178q0 130 -197 151l23 100q97 9 151 41q59 31 93 89t61 186q3 12 10 41.5t9.5 41t8.5 36t9 35.5t8.5 30.5t9.5 30.5t9.5 25t10.5 24.5t11 20.5q106 178 399 178z" />
    <glyph glyph-name="bar" unicode="|" horiz-adv-x="454" 
d="M137 1536h182v-2048h-182v2048z" />
    <glyph glyph-name="braceright" unicode="}" horiz-adv-x="743" 
d="M-129 -258h-27l21 102q118 7 183 73t93 189q14 61 22 96t20 81t20.5 70.5t22 56.5t26 48.5t31 37t37.5 30t45 20.5t55.5 16t66.5 9q-102 26 -144 79.5t-42 148.5q0 50 26.5 175.5t26.5 180.5q0 70 -45.5 103t-134.5 38l21 99q342 0 342 -258q0 -53 -25 -187t-25 -178
q0 -130 197 -151l-22 -101q-98 -9 -152 -41q-40 -23 -65 -50.5t-47.5 -81.5t-41.5 -142q-3 -12 -10 -41.5t-9.5 -41t-8.5 -36t-9 -35.5t-8.5 -30.5t-9.5 -30.5t-9.5 -25t-10.5 -24.5t-11 -20.5q-106 -178 -399 -178z" />
    <glyph glyph-name="asciitilde" unicode="~" horiz-adv-x="1214" 
d="M1032 680h119q-14 -148 -88 -231.5t-195 -83.5q-66 0 -181 35.5t-217.5 71.5t-139.5 36q-55 0 -95.5 -40.5t-52.5 -111.5h-119q17 154 89.5 237t189.5 83q19 0 32 -1t36.5 -7t39 -10.5t65 -20t89.5 -27.5q133 -44 190 -59.5t95 -15.5q53 0 91.5 36.5t51.5 108.5z" />
    <glyph glyph-name="uni00A0" unicode="&#xa0;" horiz-adv-x="569" 
 />
    <glyph glyph-name="exclamdown" unicode="&#xa1;" horiz-adv-x="681" 
d="M188 -440q-72 0 -117.5 40.5t-45.5 106.5q0 12 1.5 25t6 29t8 28t12 33t13 33t16 39t16.5 40l244 584h49l-33 -782q-5 -78 -45.5 -127t-124.5 -49zM414 659q-68 0 -116 48.5t-48 115.5t48 115.5t116 48.5t116 -48.5t48 -115.5t-48 -115.5t-116 -48.5z" />
    <glyph glyph-name="cent" unicode="&#xa2;" 
d="M877 1249q38 -12 98 -26q-64 -203 -72 -232q134 -21 254 -88q-43 -68 -98 -219h-45q0 81 -36 138.5t-97 74.5l-209 -784q39 -9 67 -9q122 0 219 97l33 -21q-14 -26 -23.5 -46t-12.5 -28t-12 -34.5t-13 -38.5q-113 -58 -277 -58h-18q-29 -114 -64 -266q-7 2 -31 9.5
t-39 11t-30 4.5q47 147 76 252q-166 32 -263.5 157t-97.5 299q0 78 22.5 155.5t70.5 150t115.5 128.5t164 89.5t209.5 33.5h47q15 42 34 130t28 120zM481 397q0 -163 109 -247l203 757q-95 -3 -168 -81t-108.5 -191.5t-35.5 -237.5z" />
    <glyph glyph-name="sterling" unicode="&#xa3;" 
d="M819 1395q124 0 209 -37t148 -117q-10 -8 -19 -18t-16 -17.5t-19 -24.5t-19 -27t-25 -36.5t-29 -42.5h-29v17q0 211 -160 211q-93 0 -149 -71t-68 -210q-4 -43 -29 -287q142 0 185 2l172 8q-18 -65 -21 -129q-161 11 -350 11q-29 -152 -86.5 -244.5t-175.5 -155.5h37
q289 0 704 29q-51 -132 -51 -197v-69q-162 10 -485 10q-186 0 -512 -10q53 109 53 221q63 7 103 24.5t74 61.5t50.5 124.5t18.5 205.5q-70 0 -185 -11q17 55 25 123q1 0 47 -2t111 -2q3 266 55 383q55 132 166.5 204.5t269.5 72.5z" />
    <glyph glyph-name="currency" unicode="&#xa4;" 
d="M115 1049l106 104l133 -131q116 78 254 78q133 0 252 -80l131 133l107 -106l-133 -134q79 -106 79 -251q0 -132 -79 -250l133 -133l-107 -107l-133 133q-119 -80 -250 -80q-137 0 -252 80l-135 -133l-106 107l133 133q-41 66 -60.5 123.5t-19.5 126.5q0 129 80 253z
M330 662q0 -116 80.5 -196.5t197.5 -80.5q116 0 196.5 80.5t80.5 196.5q0 117 -81 197.5t-198 80.5q-112 0 -194 -80.5t-82 -197.5z" />
    <glyph glyph-name="yen" unicode="&#xa5;" 
d="M414 674l-228 672q125 -11 172 -11q76 0 162 11q77 -335 168 -621q118 160 240.5 340t183.5 281q70 -11 111 -11q37 0 104 11q-199 -241 -280.5 -348t-235.5 -324h37q163 0 233 12q-30 -68 -30 -133v-16q-200 12 -306 12l-36 -170q187 0 307 10q-31 -63 -31 -145
q-96 10 -301 10l-22 -121q-19 -109 -23 -143q-85 10 -158 10q-77 0 -159 -10q10 34 63 264q-182 0 -313 -8q22 58 30 141q156 -8 310 -8l32 170h-22q-162 0 -285 -10q28 64 31 145q140 -10 246 -10z" />
    <glyph glyph-name="brokenbar" unicode="&#xa6;" horiz-adv-x="454" 
d="M137 1382h182v-716h-182v716zM137 358h182v-716h-182v716z" />
    <glyph glyph-name="section" unicode="&#xa7;" 
d="M684 1395q230 0 369 -123q-55 -98 -66 -170h-35q-13 92 -83 144t-171 52q-82 0 -137 -41.5t-55 -111.5q0 -52 38 -94.5t138 -104.5q160 -103 211 -146q102 -88 116 -192q3 -21 3 -43q0 -94 -50.5 -170.5t-160.5 -148.5q61 -89 61 -187q0 -60 -24.5 -119t-71 -109.5
t-124.5 -82t-175 -31.5q-130 0 -228 36.5t-200 127.5q40 88 61 199h31q77 -258 309 -258q91 0 147 48t56 124q0 22 -3 40t-13 37t-17.5 32.5t-29.5 34t-36 32.5t-49 37.5t-55.5 40t-69.5 48t-79 54.5q-141 99 -141 246q0 94 56 175t161 136q-38 54 -52 91.5t-14 84.5
q0 134 103 223t280 89zM309 707q0 -27 8.5 -45.5t28.5 -45.5q18 -22 184 -139t228 -176q100 75 100 152q0 43 -42.5 89.5t-149.5 119.5q-69 46 -116.5 81.5t-71 55.5t-68.5 61q-60 -49 -80.5 -80.5t-20.5 -72.5z" />
    <glyph glyph-name="dieresis" unicode="&#xa8;" horiz-adv-x="569" 
d="M244 1405q56 0 94.5 -38.5t38.5 -94.5q0 -55 -38.5 -94t-94.5 -39t-94.5 38.5t-38.5 94.5t38.5 94.5t94.5 38.5zM672 1405q54 0 93.5 -39.5t39.5 -93.5q0 -55 -38.5 -94t-94.5 -39t-94.5 38.5t-38.5 94.5t38.5 94.5t94.5 38.5z" />
    <glyph glyph-name="copyright" unicode="&#xa9;" horiz-adv-x="1544" 
d="M797 1421q147 0 281.5 -58.5t231.5 -156.5t154.5 -230.5t57.5 -275.5q0 -153 -57.5 -289.5t-155 -233.5t-231 -153.5t-281.5 -56.5q-143 0 -275.5 54t-233 148.5t-160.5 233t-60 297.5q0 143 57 275.5t153.5 230.5t232.5 156.5t286 58.5zM158 692q0 -170 84 -316
t231.5 -232.5t323.5 -86.5q171 0 317 83.5t232 228t86 315.5q0 133 -50.5 253.5t-135.5 206.5t-202.5 136.5t-246.5 50.5q-176 0 -323.5 -87.5t-231.5 -234.5t-84 -317zM844 1102q113 0 237 -53l-26 -117h-17q-35 49 -86.5 74.5t-109.5 25.5q-117 0 -188.5 -96t-71.5 -250
q0 -156 75 -243t195 -87q55 0 111.5 22t95.5 64l14 -8l-24 -96q-99 -51 -215 -51q-202 0 -321.5 103.5t-119.5 295.5q0 191 123 303.5t328 112.5z" />
    <glyph glyph-name="ordfeminine" unicode="&#xaa;" horiz-adv-x="675" 
d="M487 1362q93 0 145 -39t52 -111q0 -32 -16 -102l-41 -184q-6 -27 -6 -49q0 -39 18 -39q14 0 31 12l14 -49q-53 -37 -111 -37q-43 0 -68 16t-46 54q-59 -76 -164 -76q-77 0 -122.5 45t-45.5 119q0 177 252 200q30 3 42.5 4.5t29 4t23.5 6t11 8.5q11 15 11 47
q0 35 -25.5 53.5t-69.5 18.5q-63 0 -120 -41h-25q8 57 8 84q101 55 223 55zM317 926q0 -66 50 -66q37 0 59.5 30t34.5 93l16 82l-53 -10q-107 -19 -107 -129z" />
    <glyph glyph-name="guillemotleft" unicode="&#xab;" horiz-adv-x="1024" 
d="M465 940q60 -56 117 -92q-6 -7 -27 -31t-42 -48.5t-69 -83.5t-110 -138q50 -146 151 -352q-84 -27 -139 -62q-72 211 -174 428q160 191 293 379zM788 940q60 -56 117 -92q-6 -7 -27 -31t-42 -48.5t-69 -83.5t-110 -138q48 -140 152 -352q-84 -27 -139 -62
q-72 211 -174 428q154 183 292 379z" />
    <glyph glyph-name="logicalnot" unicode="&#xac;" horiz-adv-x="1214" 
d="M84 817h1049v-596h-181v424h-868v172z" />
    <glyph glyph-name="uni00AD" unicode="&#xad;" horiz-adv-x="681" 
d="M123 653h518l-49 -207h-510z" />
    <glyph glyph-name="registered" unicode="&#xae;" horiz-adv-x="747" 
d="M479 1421q159 0 264 -105.5t105 -258.5t-107 -259t-262 -106q-154 0 -259 106t-105 259t104.5 258.5t259.5 105.5zM186 1057q0 -126 84.5 -212.5t208.5 -86.5q128 0 212.5 85t84.5 214q0 126 -84.5 212.5t-212.5 86.5q-123 0 -208 -86.5t-85 -212.5zM344 1067
q0 67 -4 199q54 -4 82 -4q15 0 41.5 2t46.5 2q61 0 95 -27t34 -74q0 -85 -102 -108q30 -48 137 -201q-12 1 -23.5 2t-19 1.5t-17.5 0.5q-11 0 -61 -4q-14 22 -51.5 89.5t-59.5 98.5h-4v-73q0 -88 6 -115q-50 4 -51 4q-6 -2 -20 -2q-8 0 -20 -1t-15 -1q6 80 6 211zM440 1229
q0 -4 -0.5 -23t-1 -54t-0.5 -79q51 0 75 18t24 66q0 45 -21.5 58.5t-75.5 13.5z" />
    <glyph glyph-name="macron" unicode="&#xaf;" horiz-adv-x="569" 
d="M139 1335h666l-35 -141h-668z" />
    <glyph glyph-name="degree" unicode="&#xb0;" horiz-adv-x="819" 
d="M492 1356q134 0 228.5 -95.5t94.5 -228.5q0 -134 -95 -229.5t-228 -95.5q-135 0 -230.5 95t-95.5 230q0 134 95.5 229t230.5 95zM317 1030q0 -72 51.5 -122t123.5 -50t122 51t50 121q0 72 -50 123t-122 51q-70 0 -122.5 -51t-52.5 -123z" />
    <glyph glyph-name="plusminus" unicode="&#xb1;" horiz-adv-x="1214" 
d="M518 1067h180v-340h435v-172h-435v-334h-180v334h-434v172h434v340zM84 143h1049v-172h-1049v172z" />
    <glyph glyph-name="twosuperior" unicode="&#xb2;" horiz-adv-x="724" 
d="M473 1356q133 0 207 -58.5t74 -158.5q0 -137 -189 -273q-153 -110 -241 -168q31 -2 102 -2q145 3 238 13q-33 -116 -39 -172q-113 6 -291 6q-31 0 -130 -3t-143 -3v61q263 195 371.5 324.5t108.5 234.5q0 56 -26 89.5t-73 33.5q-53 0 -86 -36t-37 -114l-26 -8
q-30 37 -100 107q47 67 114 97t166 30z" />
    <glyph glyph-name="threesuperior" unicode="&#xb3;" horiz-adv-x="724" 
d="M479 1356q128 0 202.5 -58t74.5 -153q0 -81 -55 -132.5t-160 -68.5q69 -25 105 -74.5t36 -109.5q0 -41 -17 -81t-50 -75.5t-91 -57.5t-131 -22q-206 0 -317 117q55 47 98 115h33q3 -154 119 -154q49 0 84.5 34t51 79.5t15.5 93.5q0 49 -29 80t-81 31q-27 0 -54 -7
q17 53 17 91q26 -5 53 -5q90 0 131 45t41 134q0 50 -20.5 78t-57.5 28q-43 0 -71.5 -34.5t-34.5 -96.5h-37q-45 62 -82 96q69 107 227 107z" />
    <glyph glyph-name="acute" unicode="&#xb4;" horiz-adv-x="569" 
d="M676 1481q39 0 68.5 -27.5t29.5 -67.5q0 -28 -13 -46t-42 -37l-336 -191h-98l254 274q55 60 80.5 77.5t56.5 17.5z" />
    <glyph glyph-name="mu" unicode="&#xb5;" 
d="M221 975q72 -10 150 -10q69 0 151 10q-182 -665 -182 -754q0 -46 32.5 -76t86.5 -30q56 0 111 36.5t98 106.5q41 66 96 289.5t80 427.5q54 -10 137 -10q104 0 156 10q-117 -445 -203 -985q-63 10 -141 10q-82 0 -140 -10q31 121 39 166q-154 -193 -338 -193q-42 0 -63 8
q-58 -241 -96 -506q-76 11 -138 11q-68 0 -143 -11q69 279 174.5 802.5t132.5 707.5z" />
    <glyph glyph-name="paragraph" unicode="&#xb6;" 
d="M709 1395h559l-31 -142h-109l-358 -1685h-172l358 1685h-235l-356 -1685h-172l188 885q-160 17 -244 109t-84 243q0 133 55.5 252t149.5 194q178 144 451 144z" />
    <glyph glyph-name="periodcentered" unicode="&#xb7;" horiz-adv-x="569" 
d="M311 774q67 0 115.5 -48t48.5 -116t-48.5 -116t-115.5 -48t-115.5 48t-48.5 116t48.5 116t115.5 48z" />
    <glyph glyph-name="cedilla" unicode="&#xb8;" horiz-adv-x="569" 
d="M57 -186l133 186h91l-93 -129q46 4 58 4q82 0 132 -39.5t50 -105.5q0 -79 -74.5 -130t-185.5 -51q-115 0 -223 54l43 65q87 -35 141 -35t83.5 23.5t29.5 60.5q0 32 -24.5 54t-67.5 22q-33 0 -66 -10z" />
    <glyph glyph-name="onesuperior" unicode="&#xb9;" horiz-adv-x="724" 
d="M631 1382l41 -14q-49 -161 -104 -398t-85 -433q-12 1 -33 2.5t-37.5 2.5t-31.5 1q-8 0 -27 -1t-46.5 -2.5t-41.5 -2.5q105 385 154 657q-35 -18 -135 -53l-49 71v27q208 52 395 143z" />
    <glyph glyph-name="ordmasculine" unicode="&#xba;" horiz-adv-x="747" 
d="M516 1362q133 0 204 -69.5t71 -190.5q0 -141 -110 -242.5t-265 -101.5q-118 0 -191 70t-73 186q0 141 102.5 244.5t261.5 103.5zM342 954q0 -127 90 -127q42 0 76.5 40.5t54.5 100t30.5 117.5t10.5 103q0 104 -86 104q-43 0 -78.5 -36.5t-56 -91.5t-31 -110t-10.5 -100z
" />
    <glyph glyph-name="guillemotright" unicode="&#xbb;" horiz-adv-x="1024" 
d="M575 133q-62 58 -116 92q6 7 27 31t42 48.5t69 83.5t110 138q-49 143 -152 353q87 28 139 61q72 -211 174 -428q-160 -191 -293 -379zM252 133q-60 56 -117 92q6 7 27 31t42 48.5t69 83.5t110 138q-49 143 -152 353q89 29 140 61q72 -211 174 -428q-160 -191 -293 -379z
" />
    <glyph glyph-name="onequarter" unicode="&#xbc;" horiz-adv-x="1789" 
d="M541 1382l41 -14q-49 -161 -104 -398t-85 -433q-12 1 -33 2.5t-37.5 2.5t-31.5 1q-8 0 -27 -1t-46.5 -2.5t-41.5 -2.5q105 385 154 657q-35 -18 -135 -53l-50 71v27q210 53 396 143zM1462 821q33 -6 84 -6q47 0 90 6q-40 -141 -61 -237l-55 -250h14q54 0 108 12
q-20 -38 -27 -73t-7 -95q-18 1 -40 3.5t-26 2.5h-51q-25 -102 -33 -190q-41 6 -104 6q-6 0 -99 -6q31 103 52 190q-16 2 -99 2q-89 0 -245 -8q12 34 32 148q221 221 467 495zM1411 653h-4q-156 -182 -293 -319h223q59 234 74 319zM293 -78l911 1483h113l-914 -1483h-110z
" />
    <glyph glyph-name="onehalf" unicode="&#xbd;" horiz-adv-x="1789" 
d="M549 1382l41 -14q-49 -161 -104 -398t-85 -433q-12 1 -33 2.5t-37.5 2.5t-31.5 1q-8 0 -27 -1t-46.5 -2.5t-41.5 -2.5q105 385 154 657q-35 -18 -135 -53l-49 71v27q208 52 395 143zM297 -78l911 1481h113l-911 -1481h-113zM1356 813q133 0 206.5 -58.5t73.5 -158.5
q0 -137 -188 -272q-143 -103 -242 -168q31 -2 103 -2q156 3 237 12q-33 -116 -39 -172q-113 6 -290 6q-31 0 -130 -3t-143 -3v61q263 195 371 324.5t108 234.5q0 56 -25.5 89.5t-72.5 33.5q-115 0 -123 -149l-26 -8q-15 19 -27.5 32.5t-20 21t-23.5 23t-30 29.5
q47 67 114.5 97t166.5 30z" />
    <glyph glyph-name="threequarters" unicode="&#xbe;" horiz-adv-x="1789" 
d="M469 1356q127 0 201.5 -58t74.5 -153q0 -81 -55 -132.5t-160 -68.5q69 -25 105.5 -74.5t36.5 -109.5q0 -41 -17 -81t-50 -75.5t-91 -57.5t-131 -22q-206 0 -317 117q55 47 98 115h33q3 -154 118 -154q72 0 112 65t40 142q0 49 -29.5 80t-81.5 31q-26 0 -53 -7
q16 50 16 91q26 -5 54 -5q90 0 131 45t41 134q0 50 -20.5 78t-57.5 28q-43 0 -72 -34.5t-35 -96.5h-36q-45 62 -82 96q69 107 227 107zM393 -78l912 1483h112l-913 -1483h-111zM1542 821q33 -6 84 -6q47 0 90 6q-40 -141 -61 -237l-56 -250h15q54 0 108 12q-20 -38 -27 -73
t-7 -95q-18 1 -40 3.5t-26 2.5h-51q-25 -102 -33 -190q-41 6 -104 6q-6 0 -99 -6q25 83 51 190q-16 2 -98 2q-90 0 -246 -8q14 39 33 148q221 221 467 495zM1491 653h-4q-156 -182 -293 -319h223q59 234 74 319z" />
    <glyph glyph-name="questiondown" unicode="&#xbf;" horiz-adv-x="909" 
d="M383 -440q-186 0 -286.5 93.5t-100.5 227.5q0 168 237 307q140 81 180 115t40 88q0 40 -32.5 67t-76.5 27q-41 0 -80 -24l-16 10q16 23 39 76q31 8 63 8q127 0 217 -72t90 -186q0 -39 -7 -68t-30.5 -68t-76 -82.5t-135.5 -92.5q-96 -57 -134 -99t-38 -96q0 -60 43 -101.5
t118 -41.5q52 0 89 16t73 57h33q-23 -80 -31 -129q-58 -19 -93 -25.5t-85 -6.5zM561 659q-67 0 -115.5 48.5t-48.5 115.5t48.5 115.5t115.5 48.5t115.5 -48.5t48.5 -115.5t-48.5 -115.5t-115.5 -48.5z" />
    <glyph glyph-name="Agrave" unicode="&#xc0;" horiz-adv-x="1366" 
d="M782 1411q51 -10 78 -10q33 0 78 10q50 -270 155.5 -730.5t168.5 -690.5q-98 10 -175 10q-84 0 -163 -10q-42 308 -64 428q-25 0 -111.5 2t-89.5 2q-108 0 -284 -4q-118 -203 -228 -428q-49 10 -88 10q-47 0 -102 -10q190 298 476 797.5t349 623.5zM731 1020
q-162 -258 -289 -479q4 0 40.5 -1t85 -2t81.5 -1q17 0 79.5 1t107.5 1q-43 254 -105 481zM723 1849q57 0 104 -59q14 -17 42.5 -55t84.5 -113.5t103 -138.5h-92l-293 198q-45 29 -45 80q0 35 25.5 61.5t70.5 26.5z" />
    <glyph glyph-name="Aacute" unicode="&#xc1;" horiz-adv-x="1366" 
d="M782 1411q51 -10 78 -10q33 0 78 10q50 -270 155.5 -730.5t168.5 -690.5q-98 10 -175 10q-84 0 -163 -10q-42 308 -64 428q-25 0 -111.5 2t-89.5 2q-108 0 -284 -4q-118 -203 -228 -428q-49 10 -88 10q-47 0 -102 -10q190 298 476 797.5t349 623.5zM731 1020
q-162 -258 -289 -479q4 0 40.5 -1t85 -2t81.5 -1q17 0 79.5 1t107.5 1q-43 254 -105 481zM1075 1849q39 0 69 -27t30 -67q0 -54 -56 -84l-336 -190h-98l256 276q50 56 77 74t58 18z" />
    <glyph glyph-name="Acircumflex" unicode="&#xc2;" horiz-adv-x="1366" 
d="M782 1411q51 -10 78 -10q33 0 78 10q50 -270 155.5 -730.5t168.5 -690.5q-98 10 -175 10q-84 0 -163 -10q-42 308 -64 428q-25 0 -111.5 2t-89.5 2q-108 0 -284 -4q-118 -203 -228 -428q-49 10 -88 10q-47 0 -102 -10q190 298 476 797.5t349 623.5zM731 1020
q-162 -258 -289 -479q4 0 40.5 -1t85 -2t81.5 -1q17 0 79.5 1t107.5 1q-43 254 -105 481zM836 1833h170l174 -352h-101l-184 196l-266 -196h-117z" />
    <glyph glyph-name="Atilde" unicode="&#xc3;" horiz-adv-x="1366" 
d="M782 1411q51 -10 78 -10q33 0 78 10q50 -270 155.5 -730.5t168.5 -690.5q-98 10 -175 10q-84 0 -163 -10q-42 308 -64 428q-25 0 -111.5 2t-89.5 2q-108 0 -284 -4q-118 -203 -228 -428q-49 10 -88 10q-47 0 -102 -10q190 298 476 797.5t349 623.5zM731 1020
q-162 -258 -289 -479q4 0 40.5 -1t85 -2t81.5 -1q17 0 79.5 1t107.5 1q-43 254 -105 481zM1171 1784h80q-23 -117 -84.5 -181.5t-148.5 -64.5q-54 0 -103 21q-12 3 -95 35t-118 32t-59 -20.5t-43 -67.5h-82q29 119 91 181.5t145 62.5q14 0 27.5 -1t30 -5.5t26.5 -6.5t32 -10
t30 -10.5t36 -13t35 -13.5q65 -24 98 -24q63 0 102 86z" />
    <glyph glyph-name="Adieresis" unicode="&#xc4;" horiz-adv-x="1366" 
d="M782 1411q51 -10 78 -10q33 0 78 10q50 -270 155.5 -730.5t168.5 -690.5q-98 10 -175 10q-84 0 -163 -10q-42 308 -64 428q-25 0 -111.5 2t-89.5 2q-108 0 -284 -4q-118 -203 -228 -428q-49 10 -88 10q-47 0 -102 -10q190 298 476 797.5t349 623.5zM731 1020
q-162 -258 -289 -479q4 0 40.5 -1t85 -2t81.5 -1q17 0 79.5 1t107.5 1q-43 254 -105 481zM674 1774q56 0 94.5 -39.5t38.5 -94.5q0 -56 -38.5 -94.5t-94.5 -38.5t-94.5 38.5t-38.5 94.5t39 95t94 39zM1102 1774q54 0 93.5 -39.5t39.5 -94.5q0 -56 -38.5 -94.5t-94.5 -38.5
q-54 0 -93.5 39t-39.5 94q0 56 39 95t94 39z" />
    <glyph glyph-name="Aring" unicode="&#xc5;" horiz-adv-x="1366" 
d="M782 1411q51 -10 78 -10q33 0 78 10q50 -270 155.5 -730.5t168.5 -690.5q-98 10 -175 10q-84 0 -163 -10q-42 308 -64 428q-25 0 -111.5 2t-89.5 2q-108 0 -284 -4q-118 -203 -228 -428q-49 10 -88 10q-47 0 -102 -10q190 298 476 797.5t349 623.5zM731 1020
q-162 -258 -289 -479q4 0 40.5 -1t85 -2t81.5 -1q17 0 79.5 1t107.5 1q-43 254 -105 481zM866 1907q97 0 164.5 -68.5t67.5 -161.5q0 -94 -68 -161.5t-164 -67.5q-97 0 -163 67t-66 162q0 94 67.5 162t161.5 68zM735 1677q0 -55 38.5 -93t92.5 -38q56 0 94.5 38t38.5 93
t-38.5 93t-94.5 38q-54 0 -92.5 -38t-38.5 -93z" />
    <glyph glyph-name="AE" unicode="&#xc6;" horiz-adv-x="1820" 
d="M1024 1395q180 -11 412 -11q178 0 479 11q-37 -70 -37 -127l2 -31q-156 18 -446 18q-32 -110 -107 -450q341 0 451 10q-33 -67 -33 -131v-29q-201 19 -449 19q-58 -267 -96 -545h80.5h72h56.5t55 1t45 2t49.5 2.5t44.5 3.5t54 5q-35 -77 -35 -129l2 -24q-260 10 -430 10
q-239 0 -354 -10q50 143 125 491q-235 3 -471 0q-148 -178 -365 -491q-41 10 -109 10q-40 0 -92 -10v12q182 207 430 516t455 588q154 205 211 289zM1120 1262h-16q-201 -235 -518 -658q47 -2 141 -2q174 0 264 2q22 94 67.5 322t61.5 336z" />
    <glyph glyph-name="Ccedilla" unicode="&#xc7;" horiz-adv-x="1366" 
d="M571 -186l117 166q-280 36 -424.5 207t-144.5 431q0 165 63 312.5t173.5 255t269.5 170.5t342 63q272 0 501 -127q-41 -57 -94 -184h-20q-60 102 -146.5 147t-212.5 45q-136 0 -245.5 -66t-177 -177t-103 -248t-35.5 -287q0 -205 106.5 -320.5t301.5 -115.5
q214 0 358 121l19 -14q-43 -82 -76 -168q-85 -32 -153.5 -44t-155.5 -12q-12 0 -32 1t-28 1l-72 -100q46 4 58 4q82 0 132 -39.5t50 -105.5q0 -79 -74.5 -130t-185.5 -51q-115 0 -223 54l43 65q87 -35 141 -35t83.5 23.5t29.5 60.5q0 32 -24.5 54t-67.5 22q-33 0 -66 -10z
" />
    <glyph glyph-name="Egrave" unicode="&#xc8;" horiz-adv-x="1062" 
d="M367 1395q135 -11 301 -11q319 0 499 11q-37 -70 -37 -121q0 -7 1.5 -18.5t1.5 -18.5q-125 18 -467 18q-49 -175 -107 -450q361 0 471 10q-20 -43 -26.5 -67t-6.5 -64q0 -23 2 -29q-207 19 -469 19q-65 -300 -96 -545h150q192 0 325 14q-35 -84 -35 -118q0 -7 1.5 -17.5
t1.5 -17.5q-260 10 -428 10q-185 0 -377 -10q61 183 166.5 703.5t128.5 701.5zM592 1849q57 0 104 -59q14 -17 42.5 -55t84.5 -113.5t103 -138.5h-92l-293 198q-45 29 -45 80q0 35 25.5 61.5t70.5 26.5z" />
    <glyph glyph-name="Eacute" unicode="&#xc9;" horiz-adv-x="1062" 
d="M367 1395q135 -11 301 -11q319 0 499 11q-37 -70 -37 -121q0 -7 1.5 -18.5t1.5 -18.5q-125 18 -467 18q-49 -175 -107 -450q361 0 471 10q-20 -43 -26.5 -67t-6.5 -64q0 -23 2 -29q-207 19 -469 19q-65 -300 -96 -545h150q192 0 325 14q-35 -84 -35 -118q0 -7 1.5 -17.5
t1.5 -17.5q-260 10 -428 10q-185 0 -377 -10q61 183 166.5 703.5t128.5 701.5zM1026 1849q39 0 68.5 -27t29.5 -67q0 -54 -55 -84l-336 -190h-98l256 276q50 56 77 74t58 18z" />
    <glyph glyph-name="Ecircumflex" unicode="&#xca;" horiz-adv-x="1062" 
d="M367 1395q135 -11 301 -11q319 0 499 11q-37 -70 -37 -121q0 -7 1.5 -18.5t1.5 -18.5q-125 18 -467 18q-49 -175 -107 -450q361 0 471 10q-20 -43 -26.5 -67t-6.5 -64q0 -23 2 -29q-207 19 -469 19q-65 -300 -96 -545h150q192 0 325 14q-35 -84 -35 -118q0 -7 1.5 -17.5
t1.5 -17.5q-260 10 -428 10q-185 0 -377 -10q61 183 166.5 703.5t128.5 701.5zM756 1833h170l174 -352h-101l-184 196l-266 -196h-117z" />
    <glyph glyph-name="Edieresis" unicode="&#xcb;" horiz-adv-x="1062" 
d="M367 1395q135 -11 301 -11q319 0 499 11q-37 -70 -37 -121q0 -7 1.5 -18.5t1.5 -18.5q-125 18 -467 18q-49 -175 -107 -450q361 0 471 10q-20 -43 -26.5 -67t-6.5 -64q0 -23 2 -29q-207 19 -469 19q-65 -300 -96 -545h150q192 0 325 14q-35 -84 -35 -118q0 -7 1.5 -17.5
t1.5 -17.5q-260 10 -428 10q-185 0 -377 -10q61 183 166.5 703.5t128.5 701.5zM584 1774q56 0 94.5 -39.5t38.5 -94.5q0 -56 -38.5 -94.5t-94.5 -38.5t-94.5 38.5t-38.5 94.5t39 95t94 39zM1012 1774q54 0 93.5 -39.5t39.5 -94.5q0 -56 -38.5 -94.5t-94.5 -38.5
q-54 0 -93.5 39t-39.5 94q0 56 39 95t94 39z" />
    <glyph glyph-name="Igrave" unicode="&#xcc;" horiz-adv-x="681" 
d="M377 1395q7 0 36.5 -3.5t65 -5.5t74.5 -2q25 0 162 11q-91 -288 -188.5 -717t-129.5 -688q-105 10 -174 10q-96 0 -164 -10q80 265 180.5 710t137.5 695zM391 1849q58 0 105 -59q13 -17 42 -56t83 -111.5t104 -139.5h-92l-293 198q-45 29 -45 80q0 35 25.5 61.5
t70.5 26.5z" />
    <glyph glyph-name="Iacute" unicode="&#xcd;" horiz-adv-x="681" 
d="M377 1395q7 0 36.5 -3.5t65 -5.5t74.5 -2q25 0 162 11q-91 -288 -188.5 -717t-129.5 -688q-105 10 -174 10q-96 0 -164 -10q80 265 180.5 710t137.5 695zM805 1849q39 0 68.5 -27t29.5 -67q0 -54 -55 -84l-336 -190h-98l256 276q50 56 77 74t58 18z" />
    <glyph glyph-name="Icircumflex" unicode="&#xce;" horiz-adv-x="681" 
d="M377 1395q7 0 36.5 -3.5t65 -5.5t74.5 -2q25 0 162 11q-91 -288 -188.5 -717t-129.5 -688q-105 10 -174 10q-96 0 -164 -10q80 265 180.5 710t137.5 695zM535 1833h170l174 -352h-101l-184 196l-266 -196h-117z" />
    <glyph glyph-name="Idieresis" unicode="&#xcf;" horiz-adv-x="681" 
d="M377 1395q7 0 36.5 -3.5t65 -5.5t74.5 -2q25 0 162 11q-91 -288 -188.5 -717t-129.5 -688q-105 10 -174 10q-96 0 -164 -10q80 265 180.5 710t137.5 695zM373 1774q56 0 94.5 -39.5t38.5 -94.5q0 -56 -39 -94.5t-94 -38.5t-94 38.5t-39 94.5t39 95t94 39zM801 1774
q54 0 93.5 -39.5t39.5 -94.5q0 -56 -39 -94.5t-94 -38.5q-54 0 -93.5 39t-39.5 94q0 56 39 95t94 39z" />
    <glyph glyph-name="Eth" unicode="&#xd0;" horiz-adv-x="1593" 
d="M381 1395q115 -11 211 -11q49 1 171.5 6t184.5 5q275 0 447 -171t172 -438q0 -162 -71.5 -320.5t-195.5 -270.5q-123 -111 -280 -158t-402 -47q-22 0 -186 5t-184 5q-84 0 -172 -10q58 186 166 674q-78 0 -172 -11q2 8 7 27t6.5 24t4.5 19t3.5 23t1.5 23t1 30
q107 -9 174 -11q69 327 113 607zM674 1270q-41 -143 -115 -482q204 0 340 11q-2 -10 -7.5 -33.5t-8.5 -36.5t-5.5 -34.5t-3.5 -41.5q-180 11 -342 11q-97 -474 -106 -553q10 0 62.5 -3.5t72.5 -3.5q204 0 359 76q149 72 237 256.5t88 403.5q0 218 -112 326t-345 108
q-36 0 -114 -4z" />
    <glyph glyph-name="Ntilde" unicode="&#xd1;" horiz-adv-x="1593" 
d="M385 1417q51 -10 90 -10q48 0 90 10q87 -162 312 -508.5t354 -523.5q38 143 102 449.5t109 560.5q46 -11 80 -11q27 0 84 11q-1 -4 -12 -43t-24.5 -92t-27.5 -115l-31 -133q-109 -472 -141 -641q-24 -127 -72 -404q-49 10 -86 10q-28 0 -82 -10q-96 167 -223.5 367.5
t-204.5 314t-247 363.5q-45 -176 -111.5 -512.5t-91.5 -509.5q-54 10 -88 10q-29 0 -84 -10q36 107 145 606q106 482 160 821zM1346 1784h79q-23 -117 -84.5 -181.5t-148.5 -64.5q-52 0 -102 21q-12 3 -95 35t-118 32q-36 0 -60 -20.5t-43 -67.5h-82q29 119 91 181.5
t145 62.5q14 0 27.5 -1t30 -5.5t26.5 -6.5t32 -10t30 -10.5t36 -13t35 -13.5q65 -24 98 -24q64 0 103 86z" />
    <glyph glyph-name="Ograve" unicode="&#xd2;" horiz-adv-x="1705" 
d="M977 1421q148 0 276 -41.5t224 -118.5t151 -196t55 -266q0 -139 -42.5 -267t-121.5 -230t-185.5 -177.5t-239 -116.5t-277.5 -41q-201 0 -358.5 73.5t-248.5 216.5t-91 335q0 171 64.5 323.5t176.5 264t272.5 176.5t344.5 65zM424 494q0 -195 100 -303.5t275 -108.5
q155 0 286 113q127 105 210 309.5t83 396.5q0 182 -103.5 294t-279.5 112q-166 0 -295 -111q-123 -107 -199.5 -301t-76.5 -401zM903 1849q58 0 105 -59q13 -17 42 -56t83 -111.5t104 -139.5h-92l-293 198q-45 29 -45 80q0 35 25.5 61.5t70.5 26.5z" />
    <glyph glyph-name="Oacute" unicode="&#xd3;" horiz-adv-x="1705" 
d="M977 1421q148 0 276 -41.5t224 -118.5t151 -196t55 -266q0 -139 -42.5 -267t-121.5 -230t-185.5 -177.5t-239 -116.5t-277.5 -41q-201 0 -358.5 73.5t-248.5 216.5t-91 335q0 171 64.5 323.5t176.5 264t272.5 176.5t344.5 65zM424 494q0 -195 100 -303.5t275 -108.5
q155 0 286 113q127 105 210 309.5t83 396.5q0 182 -103.5 294t-279.5 112q-166 0 -295 -111q-123 -107 -199.5 -301t-76.5 -401zM1307 1849q39 0 68.5 -27t29.5 -67q0 -54 -55 -84l-336 -190h-99l256 276q50 56 77.5 74t58.5 18z" />
    <glyph glyph-name="Ocircumflex" unicode="&#xd4;" horiz-adv-x="1705" 
d="M977 1421q148 0 276 -41.5t224 -118.5t151 -196t55 -266q0 -139 -42.5 -267t-121.5 -230t-185.5 -177.5t-239 -116.5t-277.5 -41q-201 0 -358.5 73.5t-248.5 216.5t-91 335q0 171 64.5 323.5t176.5 264t272.5 176.5t344.5 65zM424 494q0 -195 100 -303.5t275 -108.5
q155 0 286 113q127 105 210 309.5t83 396.5q0 182 -103.5 294t-279.5 112q-166 0 -295 -111q-123 -107 -199.5 -301t-76.5 -401zM1026 1833h170l174 -352h-100l-185 196l-266 -196h-117z" />
    <glyph glyph-name="Otilde" unicode="&#xd5;" horiz-adv-x="1705" 
d="M977 1421q148 0 276 -41.5t224 -118.5t151 -196t55 -266q0 -139 -42.5 -267t-121.5 -230t-185.5 -177.5t-239 -116.5t-277.5 -41q-201 0 -358.5 73.5t-248.5 216.5t-91 335q0 171 64.5 323.5t176.5 264t272.5 176.5t344.5 65zM424 494q0 -195 100 -303.5t275 -108.5
q155 0 286 113q127 105 210 309.5t83 396.5q0 182 -103.5 294t-279.5 112q-166 0 -295 -111q-123 -107 -199.5 -301t-76.5 -401zM1372 1784h80q-23 -117 -84.5 -181.5t-148.5 -64.5q-53 0 -103 21q-12 3 -95 35t-118 32t-59 -20.5t-43 -67.5h-82q29 119 90.5 181.5
t144.5 62.5q14 0 27.5 -1t30 -5.5t26.5 -6.5t32 -10t30 -10.5t36 -13t35 -13.5q65 -24 99 -24q63 0 102 86z" />
    <glyph glyph-name="Odieresis" unicode="&#xd6;" horiz-adv-x="1705" 
d="M977 1421q148 0 276 -41.5t224 -118.5t151 -196t55 -266q0 -139 -42.5 -267t-121.5 -230t-185.5 -177.5t-239 -116.5t-277.5 -41q-201 0 -358.5 73.5t-248.5 216.5t-91 335q0 171 64.5 323.5t176.5 264t272.5 176.5t344.5 65zM424 494q0 -195 100 -303.5t275 -108.5
q155 0 286 113q127 105 210 309.5t83 396.5q0 182 -103.5 294t-279.5 112q-166 0 -295 -111q-123 -107 -199.5 -301t-76.5 -401zM844 1774q56 0 94.5 -39.5t38.5 -94.5q0 -56 -38.5 -94.5t-94.5 -38.5t-94.5 38.5t-38.5 94.5t39 95t94 39zM1272 1774q54 0 93.5 -39.5
t39.5 -94.5q0 -56 -38.5 -94.5t-94.5 -38.5q-54 0 -93.5 39t-39.5 94q0 56 39 95t94 39z" />
    <glyph glyph-name="multiply" unicode="&#xd7;" horiz-adv-x="1214" 
d="M106 895l125 127l377 -377l375 377l127 -127l-375 -375l375 -377l-127 -127l-375 377l-375 -377l-127 127l375 375z" />
    <glyph glyph-name="Oslash" unicode="&#xd8;" horiz-adv-x="1705" 
d="M1622 1458q33 -45 74 -72q-140 -129 -174 -163q161 -169 161 -426q0 -169 -65.5 -321.5t-179 -264.5t-276 -178t-347.5 -66q-269 0 -463 137q-107 -100 -172 -167q-30 45 -69 71q81 69 170 158q-162 173 -162 426q0 170 65 323.5t177.5 264.5t270.5 176t337 65
q279 0 477 -135q26 22 88 81.5t88 90.5zM424 494q0 -76 25 -168l858 829q-109 152 -312 152q-162 0 -295 -109q-123 -103 -199.5 -304t-76.5 -400zM1352 1067l-863 -831q55 -83 130.5 -118.5t179.5 -35.5q102 0 195.5 51.5t162 136.5t119.5 192t76.5 221t25.5 220
q0 82 -26 164z" />
    <glyph glyph-name="Ugrave" unicode="&#xd9;" horiz-adv-x="1593" 
d="M373 1395q94 -11 168 -11q40 0 172 11q-12 -44 -43.5 -155.5t-56.5 -210t-70 -288.5q-70 -305 -70 -405q0 -117 76 -178.5t223 -61.5q154 0 256.5 63t163.5 197q58 128 141 506q90 406 107 533q60 -11 94 -11q35 0 92 11q-61 -197 -127 -502q-96 -440 -145 -545
q-60 -131 -136.5 -212t-198 -125t-294.5 -44q-161 0 -283 43t-193 132t-71 214q0 117 45 293q95 399 124 570q16 91 26 176zM856 1849q58 0 105 -59q13 -17 42 -56t83 -111.5t104 -139.5h-92l-293 198q-45 29 -45 80q0 35 25.5 61.5t70.5 26.5z" />
    <glyph glyph-name="Uacute" unicode="&#xda;" horiz-adv-x="1593" 
d="M373 1395q94 -11 168 -11q40 0 172 11q-12 -44 -43.5 -155.5t-56.5 -210t-70 -288.5q-70 -305 -70 -405q0 -117 76 -178.5t223 -61.5q154 0 256.5 63t163.5 197q58 128 141 506q90 406 107 533q60 -11 94 -11q35 0 92 11q-61 -197 -127 -502q-96 -440 -145 -545
q-60 -131 -136.5 -212t-198 -125t-294.5 -44q-161 0 -283 43t-193 132t-71 214q0 117 45 293q95 399 124 570q16 91 26 176zM1311 1849q39 0 68.5 -27t29.5 -67q0 -54 -55 -84l-336 -190h-98l256 276q50 56 77 74t58 18z" />
    <glyph glyph-name="Ucircumflex" unicode="&#xdb;" horiz-adv-x="1593" 
d="M373 1395q94 -11 168 -11q40 0 172 11q-12 -44 -43.5 -155.5t-56.5 -210t-70 -288.5q-70 -305 -70 -405q0 -117 76 -178.5t223 -61.5q154 0 256.5 63t163.5 197q58 128 141 506q90 406 107 533q60 -11 94 -11q35 0 92 11q-61 -197 -127 -502q-96 -440 -145 -545
q-60 -131 -136.5 -212t-198 -125t-294.5 -44q-161 0 -283 43t-193 132t-71 214q0 117 45 293q95 399 124 570q16 91 26 176zM989 1833h170l174 -352h-100l-184 196l-267 -196h-116z" />
    <glyph glyph-name="Udieresis" unicode="&#xdc;" horiz-adv-x="1593" 
d="M373 1395q94 -11 168 -11q40 0 172 11q-12 -44 -43.5 -155.5t-56.5 -210t-70 -288.5q-70 -305 -70 -405q0 -117 76 -178.5t223 -61.5q154 0 256.5 63t163.5 197q58 128 141 506q90 406 107 533q60 -11 94 -11q35 0 92 11q-61 -197 -127 -502q-96 -440 -145 -545
q-60 -131 -136.5 -212t-198 -125t-294.5 -44q-161 0 -283 43t-193 132t-71 214q0 117 45 293q95 399 124 570q16 91 26 176zM827 1774q56 0 95 -39.5t39 -94.5t-39 -94t-95 -39q-55 0 -94 38.5t-39 94.5t39 95t94 39zM1255 1774q54 0 94 -39.5t40 -94.5t-39 -94t-95 -39
q-54 0 -93.5 39t-39.5 94q0 56 39 95t94 39z" />
    <glyph glyph-name="Yacute" unicode="&#xdd;" horiz-adv-x="1251" 
d="M227 1395q99 -11 162 -11t178 11q99 -412 181 -666q96 130 234 333.5t216 332.5q56 -11 105 -11q55 0 116 11q-153 -185 -272 -342q-107 -141 -332 -457q-2 -15 -24 -115.5t-48 -236.5t-43 -254q-92 10 -163 10q-63 0 -158 -10q86 315 129 583q-125 406 -281 822z
M1090 1849q39 0 68.5 -27t29.5 -67q0 -54 -55 -84l-336 -190h-99l256 276q50 56 77.5 74t58.5 18z" />
    <glyph glyph-name="Thorn" unicode="&#xde;" horiz-adv-x="1126" 
d="M369 1395l73 -6q62 -5 78 -5q73 0 160 11q-20 -72 -55 -246q62 4 123 4q213 0 308 -90t95 -258q0 -213 -141 -331t-383 -118q-49 0 -170 11q-55 -247 -74 -377q-74 10 -164 10q-82 0 -160 -10q103 385 190.5 794t119.5 611zM635 1034h-35q-23 -92 -59 -268l-62 -299
q50 -4 68 -4q143 0 221 99.5t78 268.5q0 102 -45.5 152.5t-165.5 50.5z" />
    <glyph glyph-name="germandbls" unicode="&#xdf;" 
d="M778 1538q134 0 225 -71.5t91 -172.5q0 -75 -44 -149.5t-139 -169.5q-67 -67 -84.5 -95.5t-17.5 -64.5q0 -22 5 -39t22 -37t25.5 -29t42 -37t44.5 -38q67 -58 101 -115t34 -127q0 -111 -63 -211.5t-160.5 -159.5t-197.5 -59q-66 0 -112.5 13.5t-103.5 46.5q51 103 74 176
h23q63 -123 188 -123q76 0 121 42.5t45 106.5q0 45 -26.5 82t-110.5 111q-85 77 -114.5 126.5t-29.5 112.5q0 64 27.5 116.5t99.5 133.5q61 66 92 102.5t62 84t43 91.5t12 97q0 79 -45.5 125.5t-120.5 46.5q-93 0 -147 -68.5t-92 -240.5q-10 -46 -47 -205t-65 -284.5
t-63 -314t-55 -351.5q-109 10 -167 10q-78 0 -152 -10q84 290 145 561l107 481q47 204 112 297q66 98 180 153.5t236 55.5z" />
    <glyph glyph-name="agrave" unicode="&#xe0;" horiz-adv-x="1024" 
d="M627 995q151 0 234 -64t83 -186q0 -81 -22 -167l-60 -275q-24 -114 -24 -160q0 -82 55 -82q17 0 33 13l16 -47q-78 -56 -166 -56q-152 0 -190 152q-49 -86 -114.5 -123t-164.5 -37q-122 0 -195 74t-73 194q0 153 117 246q48 39 114 55.5t220 37.5q24 3 36 5q47 7 68.5 12
t40.5 19t24 36.5t5 62.5q0 76 -48.5 116.5t-132.5 40.5q-111 0 -215 -78h-10q5 28 10 117q172 94 359 94zM322 240q0 -64 27.5 -101t80.5 -37q125 0 166 201l41 209q-158 -22 -213 -53q-52 -27 -77 -88t-25 -131zM500 1481q59 0 108 -64l226 -303h-93l-286 195
q-52 34 -52 84q0 36 27 62t70 26z" />
    <glyph glyph-name="aacute" unicode="&#xe1;" horiz-adv-x="1024" 
d="M627 995q151 0 234 -64t83 -186q0 -81 -22 -167l-60 -275q-24 -114 -24 -160q0 -82 55 -82q17 0 33 13l16 -47q-78 -56 -166 -56q-152 0 -190 152q-49 -86 -114.5 -123t-164.5 -37q-122 0 -195 74t-73 194q0 153 117 246q48 39 114 55.5t220 37.5q24 3 36 5q47 7 68.5 12
t40.5 19t24 36.5t5 62.5q0 76 -48.5 116.5t-132.5 40.5q-111 0 -215 -78h-10q5 28 10 117q172 94 359 94zM322 240q0 -64 27.5 -101t80.5 -37q125 0 166 201l41 209q-158 -22 -213 -53q-52 -27 -77 -88t-25 -131zM903 1481q39 0 68.5 -27.5t29.5 -67.5q0 -28 -13 -46
t-42 -37l-336 -191h-98l254 274q55 60 80.5 77.5t56.5 17.5z" />
    <glyph glyph-name="acircumflex" unicode="&#xe2;" horiz-adv-x="1024" 
d="M627 995q151 0 234 -64t83 -186q0 -81 -22 -167l-60 -275q-24 -114 -24 -160q0 -82 55 -82q17 0 33 13l16 -47q-78 -56 -166 -56q-152 0 -190 152q-49 -86 -114.5 -123t-164.5 -37q-122 0 -195 74t-73 194q0 153 117 246q48 39 114 55.5t220 37.5q24 3 36 5q47 7 68.5 12
t40.5 19t24 36.5t5 62.5q0 76 -48.5 116.5t-132.5 40.5q-111 0 -215 -78h-10q5 28 10 117q172 94 359 94zM322 240q0 -64 27.5 -101t80.5 -37q125 0 166 201l41 209q-158 -22 -213 -53q-52 -27 -77 -88t-25 -131zM633 1464h170l174 -352h-100l-185 197l-266 -197h-117z" />
    <glyph glyph-name="atilde" unicode="&#xe3;" horiz-adv-x="1024" 
d="M627 995q151 0 234 -64t83 -186q0 -81 -22 -167l-60 -275q-24 -114 -24 -160q0 -82 55 -82q17 0 33 13l16 -47q-78 -56 -166 -56q-152 0 -190 152q-49 -86 -114.5 -123t-164.5 -37q-122 0 -195 74t-73 194q0 153 117 246q48 39 114 55.5t220 37.5q24 3 36 5q47 7 68.5 12
t40.5 19t24 36.5t5 62.5q0 76 -48.5 116.5t-132.5 40.5q-111 0 -215 -78h-10q5 28 10 117q172 94 359 94zM322 240q0 -64 27.5 -101t80.5 -37q125 0 166 201l41 209q-158 -22 -213 -53q-52 -27 -77 -88t-25 -131zM969 1415h80q-23 -116 -85 -181t-149 -65q-53 0 -102 21
q-12 3 -95 35t-118 32q-36 0 -60 -20.5t-43 -67.5h-82q29 119 91 181.5t145 62.5q10 0 20 -1t19 -2t21 -3.5t19.5 -4.5t21.5 -6.5t20.5 -6.5t22.5 -8t22.5 -8t25.5 -9.5t25 -9.5q67 -25 98 -25q64 0 103 86z" />
    <glyph glyph-name="adieresis" unicode="&#xe4;" horiz-adv-x="1024" 
d="M627 995q151 0 234 -64t83 -186q0 -81 -22 -167l-60 -275q-24 -114 -24 -160q0 -82 55 -82q17 0 33 13l16 -47q-78 -56 -166 -56q-152 0 -190 152q-49 -86 -114.5 -123t-164.5 -37q-122 0 -195 74t-73 194q0 153 117 246q48 39 114 55.5t220 37.5q24 3 36 5q47 7 68.5 12
t40.5 19t24 36.5t5 62.5q0 76 -48.5 116.5t-132.5 40.5q-111 0 -215 -78h-10q5 28 10 117q172 94 359 94zM322 240q0 -64 27.5 -101t80.5 -37q125 0 166 201l41 209q-158 -22 -213 -53q-52 -27 -77 -88t-25 -131zM471 1405q55 0 94 -38.5t39 -94.5q0 -55 -38.5 -94
t-94.5 -39q-55 0 -94 38.5t-39 94.5t39 94.5t94 38.5zM899 1405q54 0 93.5 -39.5t39.5 -93.5q0 -55 -38.5 -94t-94.5 -39q-55 0 -94 38.5t-39 94.5t39 94.5t94 38.5z" />
    <glyph glyph-name="aring" unicode="&#xe5;" horiz-adv-x="1024" 
d="M627 995q151 0 234 -64t83 -186q0 -81 -22 -167l-60 -275q-24 -114 -24 -160q0 -82 55 -82q17 0 33 13l16 -47q-78 -56 -166 -56q-152 0 -190 152q-49 -86 -114.5 -123t-164.5 -37q-122 0 -195 74t-73 194q0 153 117 246q48 39 114 55.5t220 37.5q24 3 36 5q47 7 68.5 12
t40.5 19t24 36.5t5 62.5q0 76 -48.5 116.5t-132.5 40.5q-111 0 -215 -78h-10q5 28 10 117q172 94 359 94zM322 240q0 -64 27.5 -101t80.5 -37q125 0 166 201l41 209q-158 -22 -213 -53q-52 -27 -77 -88t-25 -131zM664 1559q97 0 164 -68t67 -162t-67.5 -161.5t-163.5 -67.5
q-97 0 -163.5 67t-66.5 162q0 94 68 162t162 68zM532 1329q0 -55 39 -93t93 -38q56 0 94.5 38t38.5 93t-38.5 93t-94.5 38q-54 0 -93 -38t-39 -93z" />
    <glyph glyph-name="ae" unicode="&#xe6;" horiz-adv-x="1593" 
d="M629 995q72 0 138 -29t95 -73q114 102 295 102q196 0 301 -96.5t105 -269.5q0 -54 -17 -158q-355 8 -366 8l-279 -2q-8 -57 -8 -110q0 -136 67 -208.5t195 -72.5q69 0 140 29t132 84l31 -15q-22 -51 -47 -139q-115 -82 -307 -82q-322 0 -424 236q-60 -123 -148 -179.5
t-223 -56.5q-121 0 -194.5 74.5t-73.5 193.5q0 94 45 164q32 50 66.5 79.5t101 52.5t174.5 36l145 19q53 5 81 29.5t28 90.5q0 80 -53 122t-142 42q-107 0 -217 -82h-10q3 46 5 63t5 54q169 94 359 94zM915 571q7 0 69 -2t95 -2q146 0 211 4q21 86 21 168q0 90 -41 128
t-129 38q-165 0 -226 -334zM324 240q0 -138 116 -138q137 0 187 260l28 150q-11 0 -48 -4.5t-92.5 -18t-86.5 -30.5q-57 -30 -80.5 -91t-23.5 -128z" />
    <glyph glyph-name="ccedilla" unicode="&#xe7;" horiz-adv-x="985" 
d="M274 -186l117 166q-158 37 -248 153.5t-90 286.5q0 78 20.5 156t67.5 154t114.5 134.5t170 94.5t225.5 36q212 0 402 -110q-38 -64 -55 -97.5t-52 -121.5h-47v14q0 108 -58.5 165.5t-148.5 57.5q-75 0 -137 -42t-99.5 -104t-63.5 -137t-36 -137.5t-10 -109.5
q0 -123 69 -203t189 -80q60 0 108 19t109 71l29 -22q-53 -83 -66 -146q-119 -49 -245 -49q-22 0 -68 4l-65 -96q46 4 57 4q82 0 132 -39.5t50 -105.5q0 -79 -74.5 -130t-185.5 -51q-115 0 -223 54l43 65q87 -35 141 -35t83.5 23.5t29.5 60.5q0 32 -24.5 54t-67.5 22
q-33 0 -66 -10z" />
    <glyph glyph-name="egrave" unicode="&#xe8;" horiz-adv-x="1024" 
d="M608 997q184 0 284.5 -96.5t100.5 -269.5q0 -72 -16 -158q-68 0 -187 4t-143 4q-182 0 -282 -2q-9 -53 -9 -108q0 -134 63 -203.5t181 -69.5q70 0 139 30t119 83l31 -14q-16 -30 -47 -140q-115 -82 -307 -82q-93 0 -170.5 25t-131 68.5t-90.5 102.5t-54 125.5t-17 139.5
q0 107 36.5 206.5t102.5 179t169.5 127.5t227.5 48zM379 573q46 -4 160 -4q16 0 89 2t93 2q20 87 20 168q0 166 -131 166q-32 0 -60.5 -13.5t-48.5 -31.5t-39 -51.5t-29.5 -56.5t-23.5 -65.5t-17 -59.5t-13 -56zM489 1481q60 0 109 -64l225 -303h-92l-287 195q-51 34 -51 84
q0 37 26.5 62.5t69.5 25.5z" />
    <glyph glyph-name="eacute" unicode="&#xe9;" horiz-adv-x="1024" 
d="M608 997q184 0 284.5 -96.5t100.5 -269.5q0 -72 -16 -158q-68 0 -187 4t-143 4q-182 0 -282 -2q-9 -53 -9 -108q0 -134 63 -203.5t181 -69.5q70 0 139 30t119 83l31 -14q-16 -30 -47 -140q-115 -82 -307 -82q-93 0 -170.5 25t-131 68.5t-90.5 102.5t-54 125.5t-17 139.5
q0 107 36.5 206.5t102.5 179t169.5 127.5t227.5 48zM379 573q46 -4 160 -4q16 0 89 2t93 2q20 87 20 168q0 166 -131 166q-32 0 -60.5 -13.5t-48.5 -31.5t-39 -51.5t-29.5 -56.5t-23.5 -65.5t-17 -59.5t-13 -56zM903 1481q39 0 68.5 -27.5t29.5 -67.5q0 -28 -13 -46t-42 -37
l-336 -191h-98l254 274q55 60 80.5 77.5t56.5 17.5z" />
    <glyph glyph-name="ecircumflex" unicode="&#xea;" horiz-adv-x="1024" 
d="M608 997q184 0 284.5 -96.5t100.5 -269.5q0 -72 -16 -158q-68 0 -187 4t-143 4q-182 0 -282 -2q-9 -53 -9 -108q0 -134 63 -203.5t181 -69.5q70 0 139 30t119 83l31 -14q-16 -30 -47 -140q-115 -82 -307 -82q-93 0 -170.5 25t-131 68.5t-90.5 102.5t-54 125.5t-17 139.5
q0 107 36.5 206.5t102.5 179t169.5 127.5t227.5 48zM379 573q46 -4 160 -4q16 0 89 2t93 2q20 87 20 168q0 166 -131 166q-32 0 -60.5 -13.5t-48.5 -31.5t-39 -51.5t-29.5 -56.5t-23.5 -65.5t-17 -59.5t-13 -56zM633 1464h170l174 -352h-100l-185 197l-266 -197h-117z" />
    <glyph glyph-name="edieresis" unicode="&#xeb;" horiz-adv-x="1024" 
d="M608 997q184 0 284.5 -96.5t100.5 -269.5q0 -72 -16 -158q-68 0 -187 4t-143 4q-182 0 -282 -2q-9 -53 -9 -108q0 -134 63 -203.5t181 -69.5q70 0 139 30t119 83l31 -14q-16 -30 -47 -140q-115 -82 -307 -82q-93 0 -170.5 25t-131 68.5t-90.5 102.5t-54 125.5t-17 139.5
q0 107 36.5 206.5t102.5 179t169.5 127.5t227.5 48zM379 573q46 -4 160 -4q16 0 89 2t93 2q20 87 20 168q0 166 -131 166q-32 0 -60.5 -13.5t-48.5 -31.5t-39 -51.5t-29.5 -56.5t-23.5 -65.5t-17 -59.5t-13 -56zM471 1405q55 0 94 -38.5t39 -94.5q0 -55 -38.5 -94t-94.5 -39
q-55 0 -94 38.5t-39 94.5t39 94.5t94 38.5zM899 1405q54 0 93.5 -39.5t39.5 -93.5q0 -55 -38.5 -94t-94.5 -39q-55 0 -94 38.5t-39 94.5t39 94.5t94 38.5z" />
    <glyph glyph-name="igrave" unicode="&#xec;" horiz-adv-x="569" 
d="M240 975q85 -10 153 -10q84 0 156 10q-45 -141 -117 -471t-96 -514q-78 10 -154 10q-59 0 -155 -10q62 216 127.5 517.5t85.5 467.5zM272 1481q60 0 109 -64l225 -303h-92l-287 195q-51 34 -51 84q0 37 26.5 62.5t69.5 25.5z" />
    <glyph glyph-name="iacute" unicode="&#xed;" horiz-adv-x="569" 
d="M240 975q85 -10 153 -10q84 0 156 10q-45 -141 -117 -471t-96 -514q-78 10 -154 10q-59 0 -155 -10q62 216 127.5 517.5t85.5 467.5zM676 1481q39 0 68.5 -27.5t29.5 -67.5q0 -28 -13 -46t-42 -37l-336 -191h-98l254 274q55 60 80.5 77.5t56.5 17.5z" />
    <glyph glyph-name="icircumflex" unicode="&#xee;" horiz-adv-x="569" 
d="M240 975q85 -10 153 -10q84 0 156 10q-45 -141 -117 -471t-96 -514q-78 10 -154 10q-59 0 -155 -10q62 216 127.5 517.5t85.5 467.5zM406 1464h169l175 -352h-101l-184 197l-266 -197h-117z" />
    <glyph glyph-name="idieresis" unicode="&#xef;" horiz-adv-x="569" 
d="M240 975q85 -10 153 -10q84 0 156 10q-45 -141 -117 -471t-96 -514q-78 10 -154 10q-59 0 -155 -10q62 216 127.5 517.5t85.5 467.5zM244 1405q56 0 94.5 -38.5t38.5 -94.5q0 -55 -38.5 -94t-94.5 -39t-94.5 38.5t-38.5 94.5t38.5 94.5t94.5 38.5zM672 1405
q54 0 93.5 -39.5t39.5 -93.5q0 -55 -38.5 -94t-94.5 -39t-94.5 38.5t-38.5 94.5t38.5 94.5t94.5 38.5z" />
    <glyph glyph-name="eth" unicode="&#xf0;" 
d="M444 1559q88 -63 242 -213q192 62 305 108q8 -33 35 -84l-152 -41l-133 -41q203 -208 276 -369t73 -378q0 -112 -49 -218.5t-130 -185t-191.5 -126.5t-227.5 -48q-204 0 -323.5 121t-119.5 315q0 162 79 299t213.5 216t293.5 79q40 0 94 -10q-79 128 -188 242
q-173 -51 -316 -107q-18 45 -41 78q179 46 303 88q-103 117 -204 209q79 26 161 66zM330 285q0 -240 162 -240q62 0 116 43t90 110t61.5 151t37.5 164.5t12 150.5q0 247 -164 247q-75 0 -137 -61.5t-99.5 -157t-58 -202t-20.5 -205.5z" />
    <glyph glyph-name="ntilde" unicode="&#xf1;" 
d="M829 995q117 0 183.5 -57.5t66.5 -161.5q0 -63 -25 -171.5t-65.5 -279.5t-64.5 -335q-92 10 -152 10q-56 0 -154 -10q191 626 191 737q0 56 -31.5 85.5t-87.5 29.5q-86 0 -157 -73t-109 -202q-36 -116 -71.5 -282t-53.5 -295q-85 10 -141 10q-72 0 -150 -10
q136 512 219 985q72 -10 148 -10q59 0 131 10q-36 -129 -45 -172q79 99 168 145.5t200 46.5zM1026 1415h80q-23 -116 -85 -181t-149 -65q-52 0 -102 21q-12 3 -95 35t-118 32t-59 -20.5t-43 -67.5h-82q29 119 90.5 181.5t144.5 62.5q10 0 20 -1t19 -2t21 -3.5t19.5 -4.5
t21.5 -6.5t20.5 -6.5t22.5 -8t22.5 -8t25.5 -9.5t25 -9.5q67 -25 99 -25q63 0 102 86z" />
    <glyph glyph-name="ograve" unicode="&#xf2;" 
d="M643 995q211 0 329 -115.5t118 -330.5q0 -159 -84 -295t-222.5 -213.5t-296.5 -77.5q-200 0 -319 121t-119 315q0 121 45.5 230.5t124 190t189.5 128t235 47.5zM330 295q0 -250 162 -250q64 0 118.5 44.5t90 113t61 153.5t36.5 163.5t11 144.5q0 125 -39.5 187t-124.5 62
q-63 0 -116.5 -44t-89 -112t-61 -152.5t-37 -163.5t-11.5 -146zM557 1481q60 0 109 -64l225 -303h-92l-287 195q-51 34 -51 84q0 37 26.5 62.5t69.5 25.5z" />
    <glyph glyph-name="oacute" unicode="&#xf3;" 
d="M643 995q211 0 329 -115.5t118 -330.5q0 -159 -84 -295t-222.5 -213.5t-296.5 -77.5q-200 0 -319 121t-119 315q0 121 45.5 230.5t124 190t189.5 128t235 47.5zM330 295q0 -250 162 -250q64 0 118.5 44.5t90 113t61 153.5t36.5 163.5t11 144.5q0 125 -39.5 187t-124.5 62
q-63 0 -116.5 -44t-89 -112t-61 -152.5t-37 -163.5t-11.5 -146zM961 1481q39 0 68.5 -27.5t29.5 -67.5q0 -28 -13 -46t-42 -37l-336 -191h-99l254 274q55 60 81 77.5t57 17.5z" />
    <glyph glyph-name="ocircumflex" unicode="&#xf4;" 
d="M643 995q211 0 329 -115.5t118 -330.5q0 -159 -84 -295t-222.5 -213.5t-296.5 -77.5q-200 0 -319 121t-119 315q0 121 45.5 230.5t124 190t189.5 128t235 47.5zM330 295q0 -250 162 -250q64 0 118.5 44.5t90 113t61 153.5t36.5 163.5t11 144.5q0 125 -39.5 187t-124.5 62
q-63 0 -116.5 -44t-89 -112t-61 -152.5t-37 -163.5t-11.5 -146zM690 1464h170l174 -352h-100l-184 197l-267 -197h-116z" />
    <glyph glyph-name="otilde" unicode="&#xf5;" 
d="M643 995q211 0 329 -115.5t118 -330.5q0 -159 -84 -295t-222.5 -213.5t-296.5 -77.5q-200 0 -319 121t-119 315q0 121 45.5 230.5t124 190t189.5 128t235 47.5zM330 295q0 -250 162 -250q64 0 118.5 44.5t90 113t61 153.5t36.5 163.5t11 144.5q0 125 -39.5 187t-124.5 62
q-63 0 -116.5 -44t-89 -112t-61 -152.5t-37 -163.5t-11.5 -146zM1026 1415h80q-23 -116 -85 -181t-149 -65q-52 0 -102 21q-12 3 -95 35t-118 32t-59 -20.5t-43 -67.5h-82q29 119 90.5 181.5t144.5 62.5q10 0 20 -1t19 -2t21 -3.5t19.5 -4.5t21.5 -6.5t20.5 -6.5t22.5 -8
t22.5 -8t25.5 -9.5t25 -9.5q67 -25 99 -25q63 0 102 86z" />
    <glyph glyph-name="odieresis" unicode="&#xf6;" 
d="M643 995q211 0 329 -115.5t118 -330.5q0 -159 -84 -295t-222.5 -213.5t-296.5 -77.5q-200 0 -319 121t-119 315q0 121 45.5 230.5t124 190t189.5 128t235 47.5zM330 295q0 -250 162 -250q64 0 118.5 44.5t90 113t61 153.5t36.5 163.5t11 144.5q0 125 -39.5 187t-124.5 62
q-63 0 -116.5 -44t-89 -112t-61 -152.5t-37 -163.5t-11.5 -146zM508 1405q56 0 94.5 -38.5t38.5 -94.5q0 -55 -38.5 -94t-94.5 -39t-94.5 38.5t-38.5 94.5t38.5 94.5t94.5 38.5zM936 1405q54 0 93.5 -39.5t39.5 -93.5q0 -55 -38.5 -94t-94.5 -39t-94.5 38.5t-38.5 94.5
t38.5 94.5t94.5 38.5z" />
    <glyph glyph-name="divide" unicode="&#xf7;" horiz-adv-x="1214" 
d="M608 1028q56 0 94.5 -39t38.5 -94t-39.5 -94t-93.5 -39q-55 0 -94 39.5t-39 93.5t39 93.5t94 39.5zM84 604h1049v-172h-1049v172zM608 274q56 0 94.5 -39t38.5 -94t-39.5 -94t-93.5 -39t-93.5 39t-39.5 94q0 54 39 93.5t94 39.5z" />
    <glyph glyph-name="oslash" unicode="&#xf8;" 
d="M1006 1092q44 -44 71 -60q-75 -82 -119 -141q70 -64 101 -147t31 -195q0 -157 -84 -293t-223 -214.5t-296 -78.5q-134 0 -233 57q-95 -115 -125 -159q-40 40 -72 59q90 102 125 152q-133 124 -133 327q0 159 77 296t213.5 218.5t299.5 81.5q144 0 248 -55q49 58 119 152z
M332 246l452 571q-39 96 -137 96q-68 0 -124 -48t-91 -120t-59 -161t-33.5 -166t-9.5 -139q0 -23 2 -33zM807 715l-453 -574q39 -96 144 -96q72 0 133 60.5t98.5 156t58.5 206t21 216.5q0 25 -2 31z" />
    <glyph glyph-name="ugrave" unicode="&#xf9;" 
d="M219 975q78 -10 154 -10q40 0 157 10q-76 -256 -132 -477.5t-56 -276.5q0 -46 32.5 -76t86.5 -30q81 0 147.5 65t100.5 164q34 90 75 268.5t64 362.5q54 -10 135 -10q104 0 156 10q-66 -255 -107 -443.5t-102 -541.5q-78 10 -137 10q-91 0 -146 -10q28 66 47 166
q-145 -193 -370 -193q-119 0 -187.5 58.5t-68.5 154.5q0 46 10 98q0 9 31.5 146t67 306.5t42.5 248.5zM547 1481q59 0 108 -64l226 -303h-93l-286 195q-51 34 -51 84q0 37 26.5 62.5t69.5 25.5z" />
    <glyph glyph-name="uacute" unicode="&#xfa;" 
d="M219 975q78 -10 154 -10q40 0 157 10q-76 -256 -132 -477.5t-56 -276.5q0 -46 32.5 -76t86.5 -30q81 0 147.5 65t100.5 164q34 90 75 268.5t64 362.5q54 -10 135 -10q104 0 156 10q-66 -255 -107 -443.5t-102 -541.5q-78 10 -137 10q-91 0 -146 -10q28 66 47 166
q-145 -193 -370 -193q-119 0 -187.5 58.5t-68.5 154.5q0 46 10 98q0 9 31.5 146t67 306.5t42.5 248.5zM961 1481q39 0 68.5 -27.5t29.5 -67.5q0 -28 -13 -46t-42 -37l-336 -191h-99l254 274q55 60 81 77.5t57 17.5z" />
    <glyph glyph-name="ucircumflex" unicode="&#xfb;" 
d="M219 975q78 -10 154 -10q40 0 157 10q-76 -256 -132 -477.5t-56 -276.5q0 -46 32.5 -76t86.5 -30q81 0 147.5 65t100.5 164q34 90 75 268.5t64 362.5q54 -10 135 -10q104 0 156 10q-66 -255 -107 -443.5t-102 -541.5q-78 10 -137 10q-91 0 -146 -10q28 66 47 166
q-145 -193 -370 -193q-119 0 -187.5 58.5t-68.5 154.5q0 46 10 98q0 9 31.5 146t67 306.5t42.5 248.5zM690 1464h170l174 -352h-100l-184 197l-267 -197h-116z" />
    <glyph glyph-name="udieresis" unicode="&#xfc;" 
d="M219 975q78 -10 154 -10q40 0 157 10q-76 -256 -132 -477.5t-56 -276.5q0 -46 32.5 -76t86.5 -30q81 0 147.5 65t100.5 164q34 90 75 268.5t64 362.5q54 -10 135 -10q104 0 156 10q-66 -255 -107 -443.5t-102 -541.5q-78 10 -137 10q-91 0 -146 -10q28 66 47 166
q-145 -193 -370 -193q-119 0 -187.5 58.5t-68.5 154.5q0 46 10 98q0 9 31.5 146t67 306.5t42.5 248.5zM508 1405q56 0 94.5 -38.5t38.5 -94.5q0 -55 -38.5 -94t-94.5 -39t-94.5 38.5t-38.5 94.5t38.5 94.5t94.5 38.5zM936 1405q54 0 93.5 -39.5t39.5 -93.5q0 -55 -38.5 -94
t-94.5 -39t-94.5 38.5t-38.5 94.5t38.5 94.5t94.5 38.5z" />
    <glyph glyph-name="yacute" unicode="&#xfd;" horiz-adv-x="1024" 
d="M154 975q79 -10 137 -10q55 0 147 10l25 -195q31 -250 67 -475q33 51 171.5 295.5t203.5 374.5q52 -10 80 -10q41 0 82 10l2 -12q-37 -54 -403 -641q-369 -592 -510 -857q-70 11 -101 11q-32 0 -96 -11q78 102 188 261t179 270l-86 512q-27 167 -86 467zM903 1481
q39 0 68.5 -27.5t29.5 -67.5q0 -28 -13 -46t-42 -37l-336 -191h-98l254 274q55 60 80.5 77.5t56.5 17.5z" />
    <glyph glyph-name="thorn" unicode="&#xfe;" 
d="M535 1198l-84 -356q59 78 128.5 117.5t163.5 39.5q46 0 91.5 -11t93 -40t83 -72.5t58.5 -114t23 -159.5q0 -159 -60.5 -303.5t-173.5 -238t-250 -93.5q-93 0 -170.5 40t-122.5 108q-91 -353 -135 -650q-94 11 -135 11q-68 0 -143 -11q68 266 167.5 747t141.5 726
q15 82 37.5 203t39.5 215.5t31 181.5q63 -10 150 -10q67 0 149 10q-12 -41 -83 -340zM365 293q0 -86 43 -142.5t114 -56.5q55 0 103 43t80 109t55.5 145t34 150t10.5 125q0 86 -42.5 136t-117.5 50q-57 0 -106 -44.5t-80 -110.5t-53 -144.5t-31.5 -145.5t-9.5 -114z" />
    <glyph glyph-name="ydieresis" unicode="&#xff;" horiz-adv-x="1024" 
d="M154 975q79 -10 137 -10q55 0 147 10l25 -195q31 -250 67 -475q33 51 171.5 295.5t203.5 374.5q52 -10 80 -10q41 0 82 10l2 -12q-37 -54 -403 -641q-369 -592 -510 -857q-70 11 -101 11q-32 0 -96 -11q78 102 188 261t179 270l-86 512q-27 167 -86 467zM471 1405
q55 0 94 -38.5t39 -94.5q0 -55 -38.5 -94t-94.5 -39q-55 0 -94 38.5t-39 94.5t39 94.5t94 38.5zM899 1405q54 0 93.5 -39.5t39.5 -93.5q0 -55 -38.5 -94t-94.5 -39q-55 0 -94 38.5t-39 94.5t39 94.5t94 38.5z" />
    <glyph glyph-name="Amacron" unicode="&#x100;" horiz-adv-x="1366" 
d="M782 1411q51 -10 78 -10q33 0 78 10q50 -270 155.5 -730.5t168.5 -690.5q-98 10 -175 10q-84 0 -163 -10q-42 308 -64 428q-25 0 -111.5 2t-89.5 2q-108 0 -284 -4q-118 -203 -228 -428q-49 10 -88 10q-47 0 -102 -10q190 298 476 797.5t349 623.5zM731 1020
q-162 -258 -289 -479q4 0 40.5 -1t85 -2t81.5 -1q17 0 79.5 1t107.5 1q-43 254 -105 481zM561 1704h666l-35 -141h-668z" />
    <glyph glyph-name="amacron" unicode="&#x101;" horiz-adv-x="1024" 
d="M627 995q151 0 234 -64t83 -186q0 -81 -22 -167l-60 -275q-24 -114 -24 -160q0 -82 55 -82q17 0 33 13l16 -47q-78 -56 -166 -56q-152 0 -190 152q-49 -86 -114.5 -123t-164.5 -37q-122 0 -195 74t-73 194q0 153 117 246q48 39 114 55.5t220 37.5q24 3 36 5q47 7 68.5 12
t40.5 19t24 36.5t5 62.5q0 76 -48.5 116.5t-132.5 40.5q-111 0 -215 -78h-10q5 28 10 117q172 94 359 94zM322 240q0 -64 27.5 -101t80.5 -37q125 0 166 201l41 209q-158 -22 -213 -53q-52 -27 -77 -88t-25 -131zM365 1335h665l-35 -141h-667z" />
    <glyph glyph-name="Abreve" unicode="&#x102;" horiz-adv-x="1366" 
d="M782 1411q51 -10 78 -10q33 0 78 10q50 -270 155.5 -730.5t168.5 -690.5q-98 10 -175 10q-84 0 -163 -10q-42 308 -64 428q-25 0 -111.5 2t-89.5 2q-108 0 -284 -4q-118 -203 -228 -428q-49 10 -88 10q-47 0 -102 -10q190 298 476 797.5t349 623.5zM731 1020
q-162 -258 -289 -479q4 0 40.5 -1t85 -2t81.5 -1q17 0 79.5 1t107.5 1q-43 254 -105 481zM588 1745q0 15 4 65h84q2 -83 51 -131q56 -53 166 -53q95 0 162.5 46.5t97.5 137.5h82q-30 -158 -122.5 -245.5t-238.5 -87.5q-134 0 -210 68t-76 200z" />
    <glyph glyph-name="abreve" unicode="&#x103;" horiz-adv-x="1024" 
d="M627 995q151 0 234 -64t83 -186q0 -81 -22 -167l-60 -275q-24 -114 -24 -160q0 -82 55 -82q17 0 33 13l16 -47q-78 -56 -166 -56q-152 0 -190 152q-49 -86 -114.5 -123t-164.5 -37q-122 0 -195 74t-73 194q0 153 117 246q48 39 114 55.5t220 37.5q24 3 36 5q47 7 68.5 12
t40.5 19t24 36.5t5 62.5q0 76 -48.5 116.5t-132.5 40.5q-111 0 -215 -78h-10q5 28 10 117q172 94 359 94zM322 240q0 -64 27.5 -101t80.5 -37q125 0 166 201l41 209q-158 -22 -213 -53q-52 -27 -77 -88t-25 -131zM391 1376q0 16 4 66h84q1 -47 13.5 -76.5t37.5 -54.5
q57 -54 166 -54q95 0 162.5 47t97.5 138h82q-30 -158 -122.5 -246t-237.5 -88q-134 0 -210.5 68t-76.5 200z" />
    <glyph glyph-name="Aogonek" unicode="&#x104;" horiz-adv-x="1366" 
d="M782 1411q51 -10 78 -10q33 0 78 10q50 -270 155.5 -730.5t168.5 -690.5q-78 10 -132 10q-107 -69 -157.5 -125t-50.5 -111q0 -36 24.5 -59.5t67.5 -23.5q37 0 64.5 11t64.5 36l31 -58q-150 -121 -291 -121q-70 0 -110 37.5t-40 96.5q0 78 69.5 153.5t221.5 163.5
q-60 -4 -100 -10q-42 308 -64 428q-25 0 -111.5 2t-89.5 2q-108 0 -284 -4q-118 -203 -228 -428q-49 10 -88 10q-47 0 -102 -10q190 298 476 797.5t349 623.5zM731 1020q-162 -258 -289 -479q4 0 40.5 -1t85 -2t81.5 -1q17 0 79.5 1t107.5 1q-43 254 -105 481z" />
    <glyph glyph-name="aogonek" unicode="&#x105;" horiz-adv-x="1024" 
d="M627 995q151 0 234 -64t83 -186q0 -81 -22 -167l-60 -275q-24 -114 -24 -160q0 -82 55 -82q17 0 33 13l16 -47q-43 -29 -79 -42t-83 -14q-166 -111 -166 -207q0 -36 25 -59.5t68 -23.5q37 0 64.5 11t64.5 36l30 -58q-150 -121 -291 -121q-70 0 -109.5 37.5t-39.5 96.5
q0 75 63 146.5t203 156.5q-82 30 -106 137q-49 -86 -114.5 -123t-164.5 -37q-122 0 -195 74t-73 194q0 153 117 246q48 39 114 55.5t220 37.5q24 3 36 5q47 7 68.5 12t40.5 19t24 36.5t5 62.5q0 76 -48.5 116.5t-132.5 40.5q-111 0 -215 -78h-10q5 28 10 117q172 94 359 94z
M322 240q0 -64 27.5 -101t80.5 -37q125 0 166 201l41 209q-158 -22 -213 -53q-52 -27 -77 -88t-25 -131z" />
    <glyph glyph-name="Cacute" unicode="&#x106;" horiz-adv-x="1366" 
d="M967 1419q272 0 501 -127q-41 -57 -94 -184h-20q-60 102 -146.5 147t-212.5 45q-136 0 -245.5 -66t-177 -177t-103 -248t-35.5 -287q0 -205 106.5 -320.5t301.5 -115.5q214 0 358 121l19 -14q-43 -82 -76 -168q-85 -32 -153.5 -44t-155.5 -12q-178 0 -316 49t-224.5 137
t-130.5 205t-44 258q0 165 63 312.5t173.5 255t269.5 170.5t342 63zM1155 1849q39 0 68.5 -27t29.5 -67q0 -54 -55 -84l-336 -190h-98l256 276q50 56 77 74t58 18z" />
    <glyph glyph-name="cacute" unicode="&#x107;" horiz-adv-x="985" 
d="M651 995q212 0 402 -110q-38 -64 -55 -97.5t-52 -121.5h-47v14q0 108 -58.5 165.5t-148.5 57.5q-75 0 -137 -42t-99.5 -104t-63.5 -137t-36 -137.5t-10 -109.5q0 -123 69 -203t189 -80q60 0 108 19t109 71l29 -22q-53 -83 -66 -146q-126 -49 -245 -49q-218 0 -352 126
t-134 331q0 78 20.5 156t67.5 154t114.5 134.5t170 94.5t225.5 36zM897 1481q39 0 68.5 -27.5t29.5 -67.5q0 -28 -13 -46t-42 -37l-336 -191h-98l254 274q55 60 80.5 77.5t56.5 17.5z" />
    <glyph glyph-name="Ccircumflex" unicode="&#x108;" horiz-adv-x="1366" 
d="M967 1419q272 0 501 -127q-41 -57 -94 -184h-20q-60 102 -146.5 147t-212.5 45q-136 0 -245.5 -66t-177 -177t-103 -248t-35.5 -287q0 -205 106.5 -320.5t301.5 -115.5q214 0 358 121l19 -14q-43 -82 -76 -168q-85 -32 -153.5 -44t-155.5 -12q-178 0 -316 49t-224.5 137
t-130.5 205t-44 258q0 165 63 312.5t173.5 255t269.5 170.5t342 63zM936 1833h170l174 -352h-100l-185 196l-266 -196h-117z" />
    <glyph glyph-name="ccircumflex" unicode="&#x109;" horiz-adv-x="985" 
d="M651 995q212 0 402 -110q-38 -64 -55 -97.5t-52 -121.5h-47v14q0 108 -58.5 165.5t-148.5 57.5q-75 0 -137 -42t-99.5 -104t-63.5 -137t-36 -137.5t-10 -109.5q0 -123 69 -203t189 -80q60 0 108 19t109 71l29 -22q-53 -83 -66 -146q-126 -49 -245 -49q-218 0 -352 126
t-134 331q0 78 20.5 156t67.5 154t114.5 134.5t170 94.5t225.5 36zM627 1464h170l174 -352h-101l-184 197l-266 -197h-117z" />
    <glyph glyph-name="Cdotaccent" unicode="&#x10a;" horiz-adv-x="1366" 
d="M967 1419q272 0 501 -127q-41 -57 -94 -184h-20q-60 102 -146.5 147t-212.5 45q-136 0 -245.5 -66t-177 -177t-103 -248t-35.5 -287q0 -205 106.5 -320.5t301.5 -115.5q214 0 358 121l19 -14q-43 -82 -76 -168q-85 -32 -153.5 -44t-155.5 -12q-178 0 -316 49t-224.5 137
t-130.5 205t-44 258q0 165 63 312.5t173.5 255t269.5 170.5t342 63zM958 1784q60 0 102 -42t42 -102t-42 -102.5t-102 -42.5q-61 0 -103 42.5t-42 102.5t42.5 102t102.5 42z" />
    <glyph glyph-name="cdotaccent" unicode="&#x10b;" horiz-adv-x="985" 
d="M651 995q212 0 402 -110q-38 -64 -55 -97.5t-52 -121.5h-47v14q0 108 -58.5 165.5t-148.5 57.5q-75 0 -137 -42t-99.5 -104t-63.5 -137t-36 -137.5t-10 -109.5q0 -123 69 -203t189 -80q60 0 108 19t109 71l29 -22q-53 -83 -66 -146q-126 -49 -245 -49q-218 0 -352 126
t-134 331q0 78 20.5 156t67.5 154t114.5 134.5t170 94.5t225.5 36zM680 1415q58 0 100.5 -42t42.5 -101q0 -60 -41.5 -103t-101.5 -43q-61 0 -103 43t-42 103t42.5 101.5t102.5 41.5z" />
    <glyph glyph-name="Ccaron" unicode="&#x10c;" horiz-adv-x="1366" 
d="M967 1419q272 0 501 -127q-41 -57 -94 -184h-20q-60 102 -146.5 147t-212.5 45q-136 0 -245.5 -66t-177 -177t-103 -248t-35.5 -287q0 -205 106.5 -320.5t301.5 -115.5q214 0 358 121l19 -14q-43 -82 -76 -168q-85 -32 -153.5 -44t-155.5 -12q-178 0 -316 49t-224.5 137
t-130.5 205t-44 258q0 165 63 312.5t173.5 255t269.5 170.5t342 63zM872 1481l-182 354h101l190 -197l276 197h111l-326 -354h-170z" />
    <glyph glyph-name="ccaron" unicode="&#x10d;" horiz-adv-x="985" 
d="M651 995q212 0 402 -110q-38 -64 -55 -97.5t-52 -121.5h-47v14q0 108 -58.5 165.5t-148.5 57.5q-75 0 -137 -42t-99.5 -104t-63.5 -137t-36 -137.5t-10 -109.5q0 -123 69 -203t189 -80q60 0 108 19t109 71l29 -22q-53 -83 -66 -146q-126 -49 -245 -49q-218 0 -352 126
t-134 331q0 78 20.5 156t67.5 154t114.5 134.5t170 94.5t225.5 36zM557 1112l-182 354h100l191 -196l276 196h111l-326 -354h-170z" />
    <glyph glyph-name="Dcaron" unicode="&#x10e;" horiz-adv-x="1593" 
d="M381 1395q115 -11 211 -11q49 1 171.5 6t184.5 5q275 0 447 -171t172 -438q0 -162 -71.5 -320.5t-195.5 -270.5q-123 -111 -280 -158t-402 -47q-22 0 -186 5t-184 5q-84 0 -172 -10q58 186 166 674q104 469 139 731zM674 1270q-56 -198 -141 -603.5t-107 -555.5
q10 0 62.5 -3.5t72.5 -3.5q204 0 359 76q149 72 237 256.5t88 403.5q0 218 -112 326t-345 108q-36 0 -114 -4zM786 1481l-182 354h101l190 -197l276 197h111l-326 -354h-170z" />
    <glyph glyph-name="dcaron" unicode="&#x10f;" 
d="M965 1538q3 0 60.5 -5t92.5 -5q54 0 133 10q-65 -248 -181.5 -803.5t-139.5 -744.5q-78 10 -133 10q-45 0 -138 -10q22 72 37 145q-115 -166 -293 -166q-166 0 -260 107t-94 293q0 161 61 305t173 234.5t247 90.5q98 0 177 -41.5t122 -113.5q90 397 136 694zM336 311
q0 -87 40 -141.5t105 -54.5q71 0 126.5 46.5t86.5 113t51 149t26.5 145t6.5 111.5q0 87 -44.5 139.5t-121.5 52.5q-75 0 -141 -84q-57 -71 -96 -214.5t-39 -262.5zM1505 1530q44 0 75.5 -18t31.5 -46q0 -31 -23 -61l-192 -266h-105l82 303q12 42 46.5 65t84.5 23z" />
    <glyph glyph-name="Dcroat" unicode="&#x110;" horiz-adv-x="1593" 
d="M381 1395q115 -11 211 -11q49 1 171.5 6t184.5 5q275 0 447 -171t172 -438q0 -162 -71.5 -320.5t-195.5 -270.5q-123 -111 -280 -158t-402 -47q-22 0 -186 5t-184 5q-84 0 -172 -10q58 186 166 674q-78 0 -172 -11q2 8 7 27t6.5 24t4.5 19t3.5 23t1.5 23t1 30
q107 -9 174 -11q69 327 113 607zM674 1270q-41 -143 -115 -482q204 0 340 11q-2 -10 -7.5 -33.5t-8.5 -36.5t-5.5 -34.5t-3.5 -41.5q-180 11 -342 11q-97 -474 -106 -553q10 0 62.5 -3.5t72.5 -3.5q204 0 359 76q149 72 237 256.5t88 403.5q0 218 -112 326t-345 108
q-36 0 -114 -4z" />
    <glyph glyph-name="dcroat" unicode="&#x111;" 
d="M965 1538q3 0 60.5 -5t92.5 -5q54 0 133 10l-55 -223q71 0 166 10q-4 -16 -10.5 -40t-8.5 -34t-4 -28.5t-2 -42.5q-111 10 -170 10q-208 -965 -237 -1200q-78 10 -133 10q-45 0 -138 -10q22 72 37 145q-115 -166 -293 -166q-166 0 -260 107t-94 293q0 161 61 305
t173 234.5t247 90.5q98 0 177 -41.5t122 -113.5q30 113 74 346q-234 0 -332 -10l19 77l6 68q174 -10 332 -10q4 26 37 223zM336 311q0 -87 40 -141.5t105 -54.5q71 0 126.5 46.5t86.5 113t51 149t26.5 145t6.5 111.5q0 87 -44.5 139.5t-121.5 52.5q-75 0 -141 -84
q-57 -71 -96 -214.5t-39 -262.5z" />
    <glyph glyph-name="Emacron" unicode="&#x112;" horiz-adv-x="1062" 
d="M367 1395q135 -11 301 -11q319 0 499 11q-37 -70 -37 -121q0 -7 1.5 -18.5t1.5 -18.5q-125 18 -467 18q-49 -175 -107 -450q361 0 471 10q-20 -43 -26.5 -67t-6.5 -64q0 -23 2 -29q-207 19 -469 19q-65 -300 -96 -545h150q192 0 325 14q-35 -84 -35 -118q0 -7 1.5 -17.5
t1.5 -17.5q-260 10 -428 10q-185 0 -377 -10q61 183 166.5 703.5t128.5 701.5zM467 1704h666l-35 -141h-668z" />
    <glyph glyph-name="emacron" unicode="&#x113;" horiz-adv-x="1024" 
d="M608 997q184 0 284.5 -96.5t100.5 -269.5q0 -72 -16 -158q-68 0 -187 4t-143 4q-182 0 -282 -2q-9 -53 -9 -108q0 -134 63 -203.5t181 -69.5q70 0 139 30t119 83l31 -14q-16 -30 -47 -140q-115 -82 -307 -82q-93 0 -170.5 25t-131 68.5t-90.5 102.5t-54 125.5t-17 139.5
q0 107 36.5 206.5t102.5 179t169.5 127.5t227.5 48zM379 573q46 -4 160 -4q16 0 89 2t93 2q20 87 20 168q0 166 -131 166q-32 0 -60.5 -13.5t-48.5 -31.5t-39 -51.5t-29.5 -56.5t-23.5 -65.5t-17 -59.5t-13 -56zM362 1335h666l-35 -141h-667z" />
    <glyph glyph-name="Ebreve" unicode="&#x114;" horiz-adv-x="1062" 
d="M367 1395q135 -11 301 -11q319 0 499 11q-37 -70 -37 -121q0 -7 1.5 -18.5t1.5 -18.5q-125 18 -467 18q-49 -175 -107 -450q361 0 471 10q-20 -43 -26.5 -67t-6.5 -64q0 -23 2 -29q-207 19 -469 19q-65 -300 -96 -545h150q192 0 325 14q-35 -84 -35 -118q0 -7 1.5 -17.5
t1.5 -17.5q-260 10 -428 10q-185 0 -377 -10q61 183 166.5 703.5t128.5 701.5zM494 1745q0 15 4 65h84q2 -83 51 -131q56 -53 166 -53q95 0 162.5 46.5t97.5 137.5h82q-30 -158 -122.5 -245.5t-238.5 -87.5q-134 0 -210 68t-76 200z" />
    <glyph glyph-name="ebreve" unicode="&#x115;" horiz-adv-x="1024" 
d="M608 997q184 0 284.5 -96.5t100.5 -269.5q0 -72 -16 -158q-68 0 -187 4t-143 4q-182 0 -282 -2q-9 -53 -9 -108q0 -134 63 -203.5t181 -69.5q70 0 139 30t119 83l31 -14q-16 -30 -47 -140q-115 -82 -307 -82q-93 0 -170.5 25t-131 68.5t-90.5 102.5t-54 125.5t-17 139.5
q0 107 36.5 206.5t102.5 179t169.5 127.5t227.5 48zM379 573q46 -4 160 -4q16 0 89 2t93 2q20 87 20 168q0 166 -131 166q-32 0 -60.5 -13.5t-48.5 -31.5t-39 -51.5t-29.5 -56.5t-23.5 -65.5t-17 -59.5t-13 -56zM389 1376q0 16 4 66h84q1 -47 13.5 -76.5t37.5 -54.5
q57 -54 166 -54q95 0 162.5 47t97.5 138h82q-30 -158 -122.5 -246t-237.5 -88q-134 0 -210.5 68t-76.5 200z" />
    <glyph glyph-name="Edotaccent" unicode="&#x116;" horiz-adv-x="1062" 
d="M367 1395q135 -11 301 -11q319 0 499 11q-37 -70 -37 -121q0 -7 1.5 -18.5t1.5 -18.5q-125 18 -467 18q-49 -175 -107 -450q361 0 471 10q-20 -43 -26.5 -67t-6.5 -64q0 -23 2 -29q-207 19 -469 19q-65 -300 -96 -545h150q192 0 325 14q-35 -84 -35 -118q0 -7 1.5 -17.5
t1.5 -17.5q-260 10 -428 10q-185 0 -377 -10q61 183 166.5 703.5t128.5 701.5zM766 1784q60 0 101.5 -42t41.5 -102t-41.5 -102.5t-101.5 -42.5q-61 0 -103 42.5t-42 102.5t42.5 102t102.5 42z" />
    <glyph glyph-name="edotaccent" unicode="&#x117;" horiz-adv-x="1024" 
d="M608 997q184 0 284.5 -96.5t100.5 -269.5q0 -72 -16 -158q-68 0 -187 4t-143 4q-182 0 -282 -2q-9 -53 -9 -108q0 -134 63 -203.5t181 -69.5q70 0 139 30t119 83l31 -14q-16 -30 -47 -140q-115 -82 -307 -82q-93 0 -170.5 25t-131 68.5t-90.5 102.5t-54 125.5t-17 139.5
q0 107 36.5 206.5t102.5 179t169.5 127.5t227.5 48zM379 573q46 -4 160 -4q16 0 89 2t93 2q20 87 20 168q0 166 -131 166q-32 0 -60.5 -13.5t-48.5 -31.5t-39 -51.5t-29.5 -56.5t-23.5 -65.5t-17 -59.5t-13 -56zM651 1415q58 0 101 -42t43 -101q0 -60 -42 -103t-102 -43
q-61 0 -103 43t-42 103t42.5 101.5t102.5 41.5z" />
    <glyph glyph-name="Eogonek" unicode="&#x118;" horiz-adv-x="1062" 
d="M367 1395q135 -11 301 -11q319 0 499 11q-37 -70 -37 -121q0 -7 1.5 -18.5t1.5 -18.5q-125 18 -467 18q-49 -175 -107 -450q361 0 471 10q-20 -43 -26.5 -67t-6.5 -64q0 -23 2 -29q-207 19 -469 19q-65 -300 -96 -545h150q192 0 325 14q-35 -84 -35 -118q0 -7 1.5 -17.5
t1.5 -17.5l-150 6q-104 -67 -152.5 -122t-48.5 -110q0 -36 24.5 -59.5t67.5 -23.5q38 0 65.5 11.5t64.5 35.5l30 -58q-150 -121 -291 -121q-70 0 -109.5 37.5t-39.5 96.5q0 78 69 153.5t220 161.5q-63 2 -178 2q-185 0 -377 -10q61 183 166.5 703.5t128.5 701.5z" />
    <glyph glyph-name="eogonek" unicode="&#x119;" horiz-adv-x="1024" 
d="M608 997q184 0 284.5 -96.5t100.5 -269.5q0 -72 -16 -158q-68 0 -187 4t-143 4q-182 0 -282 -2q-9 -53 -9 -108q0 -134 63 -203.5t181 -69.5q70 0 139 30t119 83l31 -14q-16 -30 -47 -140q-96 -69 -258 -80q-172 -117 -172 -213q0 -36 24.5 -59.5t67.5 -23.5
q37 0 64.5 11t64.5 36l31 -58q-150 -121 -291 -121q-70 0 -110 37.5t-40 96.5q0 74 61 145t195 152q-101 8 -180.5 49t-128 104.5t-73.5 140t-25 162.5q0 107 36.5 206.5t102.5 179t169.5 127.5t227.5 48zM379 573q46 -4 160 -4q16 0 89 2t93 2q20 87 20 168q0 166 -131 166
q-32 0 -60.5 -13.5t-48.5 -31.5t-39 -51.5t-29.5 -56.5t-23.5 -65.5t-17 -59.5t-13 -56z" />
    <glyph glyph-name="Ecaron" unicode="&#x11a;" horiz-adv-x="1062" 
d="M367 1395q135 -11 301 -11q319 0 499 11q-37 -70 -37 -121q0 -7 1.5 -18.5t1.5 -18.5q-125 18 -467 18q-49 -175 -107 -450q361 0 471 10q-20 -43 -26.5 -67t-6.5 -64q0 -23 2 -29q-207 19 -469 19q-65 -300 -96 -545h150q192 0 325 14q-35 -84 -35 -118q0 -7 1.5 -17.5
t1.5 -17.5q-260 10 -428 10q-185 0 -377 -10q61 183 166.5 703.5t128.5 701.5zM651 1481l-182 354h100l191 -197l276 197h111l-326 -354h-170z" />
    <glyph glyph-name="ecaron" unicode="&#x11b;" horiz-adv-x="1024" 
d="M608 997q184 0 284.5 -96.5t100.5 -269.5q0 -72 -16 -158q-68 0 -187 4t-143 4q-182 0 -282 -2q-9 -53 -9 -108q0 -134 63 -203.5t181 -69.5q70 0 139 30t119 83l31 -14q-16 -30 -47 -140q-115 -82 -307 -82q-93 0 -170.5 25t-131 68.5t-90.5 102.5t-54 125.5t-17 139.5
q0 107 36.5 206.5t102.5 179t169.5 127.5t227.5 48zM379 573q46 -4 160 -4q16 0 89 2t93 2q20 87 20 168q0 166 -131 166q-32 0 -60.5 -13.5t-48.5 -31.5t-39 -51.5t-29.5 -56.5t-23.5 -65.5t-17 -59.5t-13 -56zM559 1112l-182 354h100l191 -196l276 196h111l-326 -354h-170
z" />
    <glyph glyph-name="Gcircumflex" unicode="&#x11c;" horiz-adv-x="1554" 
d="M1006 1419q288 0 563 -127q-41 -73 -84 -188h-25q-56 92 -166 143t-243 51q-122 0 -224.5 -43t-174.5 -116.5t-122 -172.5t-74 -210.5t-24 -231.5q0 -215 105.5 -327.5t308.5 -112.5q98 0 178 22q37 108 72.5 264t42.5 246q90 -10 161 -10q69 0 148 10
q-89 -294 -127 -581q-143 -40 -237.5 -54t-204.5 -14q-369 0 -564.5 164t-195.5 471q0 173 67 324.5t183.5 259.5t281.5 170.5t355 62.5zM995 1833h170l174 -352h-100l-184 196l-267 -196h-116z" />
    <glyph glyph-name="gcircumflex" unicode="&#x11d;" horiz-adv-x="1062" 
d="M580 999q66 0 157.5 -20.5t122.5 -20.5q10 0 127 6l117 7q-17 -47 -17 -99q-67 5 -174 5q74 -83 74 -191q0 -73 -36.5 -147t-104.5 -119q-125 -80 -330 -80q-12 0 -55.5 2t-50.5 2q-40 0 -68.5 -28t-28.5 -62q0 -32 10 -48t58.5 -28.5t146.5 -15.5q154 -3 224 -27
q71 -24 113 -88.5t42 -144.5q0 -79 -35 -156.5t-99.5 -142t-167.5 -104.5t-228 -40q-203 0 -325 73t-122 206q0 96 69.5 164t199.5 104l4 10q-103 44 -103 150q0 72 53.5 126t153.5 83l2 12q-182 76 -182 260q0 148 119 250t334 102zM397 563q0 -145 123 -145q49 0 89 33.5
t63.5 86.5t36 113t12.5 117q0 154 -123 154q-64 0 -112 -59t-68.5 -138.5t-20.5 -161.5zM121 -231q0 -107 68 -164.5t198 -57.5q141 0 222 66.5t81 177.5q0 102 -84 137t-291 35q-89 0 -138.5 -54.5t-55.5 -139.5zM618 1464h170l175 -352h-101l-184 197l-266 -197h-117z" />
    <glyph glyph-name="Gbreve" unicode="&#x11e;" horiz-adv-x="1554" 
d="M1006 1419q288 0 563 -127q-41 -73 -84 -188h-25q-56 92 -166 143t-243 51q-122 0 -224.5 -43t-174.5 -116.5t-122 -172.5t-74 -210.5t-24 -231.5q0 -215 105.5 -327.5t308.5 -112.5q98 0 178 22q37 108 72.5 264t42.5 246q90 -10 161 -10q69 0 148 10
q-89 -294 -127 -581q-143 -40 -237.5 -54t-204.5 -14q-369 0 -564.5 164t-195.5 471q0 173 67 324.5t183.5 259.5t281.5 170.5t355 62.5zM756 1745q0 15 4 65h84q2 -83 51 -131q56 -53 166 -53q95 0 162.5 46.5t97.5 137.5h82q-30 -158 -122.5 -245.5t-238.5 -87.5
q-134 0 -210 68t-76 200z" />
    <glyph glyph-name="gbreve" unicode="&#x11f;" horiz-adv-x="1062" 
d="M580 999q66 0 157.5 -20.5t122.5 -20.5q10 0 127 6l117 7q-17 -47 -17 -99q-67 5 -174 5q74 -83 74 -191q0 -73 -36.5 -147t-104.5 -119q-125 -80 -330 -80q-12 0 -55.5 2t-50.5 2q-40 0 -68.5 -28t-28.5 -62q0 -32 10 -48t58.5 -28.5t146.5 -15.5q154 -3 224 -27
q71 -24 113 -88.5t42 -144.5q0 -79 -35 -156.5t-99.5 -142t-167.5 -104.5t-228 -40q-203 0 -325 73t-122 206q0 96 69.5 164t199.5 104l4 10q-103 44 -103 150q0 72 53.5 126t153.5 83l2 12q-182 76 -182 260q0 148 119 250t334 102zM397 563q0 -145 123 -145q49 0 89 33.5
t63.5 86.5t36 113t12.5 117q0 154 -123 154q-64 0 -112 -59t-68.5 -138.5t-20.5 -161.5zM121 -231q0 -107 68 -164.5t198 -57.5q141 0 222 66.5t81 177.5q0 102 -84 137t-291 35q-89 0 -138.5 -54.5t-55.5 -139.5zM379 1376q0 16 4 66h84q1 -47 13.5 -76.5t37.5 -54.5
q57 -54 166 -54q95 0 162.5 47t97.5 138h82q-30 -158 -122.5 -246t-237.5 -88q-134 0 -210.5 68t-76.5 200z" />
    <glyph glyph-name="Gdotaccent" unicode="&#x120;" horiz-adv-x="1554" 
d="M1006 1419q288 0 563 -127q-41 -73 -84 -188h-25q-56 92 -166 143t-243 51q-122 0 -224.5 -43t-174.5 -116.5t-122 -172.5t-74 -210.5t-24 -231.5q0 -215 105.5 -327.5t308.5 -112.5q98 0 178 22q37 108 72.5 264t42.5 246q90 -10 161 -10q69 0 148 10
q-89 -294 -127 -581q-143 -40 -237.5 -54t-204.5 -14q-369 0 -564.5 164t-195.5 471q0 173 67 324.5t183.5 259.5t281.5 170.5t355 62.5zM1038 1784q60 0 102 -42t42 -102t-42 -102.5t-102 -42.5q-61 0 -103 42.5t-42 102.5t42.5 102t102.5 42z" />
    <glyph glyph-name="gdotaccent" unicode="&#x121;" horiz-adv-x="1062" 
d="M580 999q66 0 157.5 -20.5t122.5 -20.5q10 0 127 6l117 7q-17 -47 -17 -99q-67 5 -174 5q74 -83 74 -191q0 -73 -36.5 -147t-104.5 -119q-125 -80 -330 -80q-12 0 -55.5 2t-50.5 2q-40 0 -68.5 -28t-28.5 -62q0 -32 10 -48t58.5 -28.5t146.5 -15.5q154 -3 224 -27
q71 -24 113 -88.5t42 -144.5q0 -79 -35 -156.5t-99.5 -142t-167.5 -104.5t-228 -40q-203 0 -325 73t-122 206q0 96 69.5 164t199.5 104l4 10q-103 44 -103 150q0 72 53.5 126t153.5 83l2 12q-182 76 -182 260q0 148 119 250t334 102zM397 563q0 -145 123 -145q49 0 89 33.5
t63.5 86.5t36 113t12.5 117q0 154 -123 154q-64 0 -112 -59t-68.5 -138.5t-20.5 -161.5zM121 -231q0 -107 68 -164.5t198 -57.5q141 0 222 66.5t81 177.5q0 102 -84 137t-291 35q-89 0 -138.5 -54.5t-55.5 -139.5zM672 1415q58 0 100.5 -42t42.5 -101q0 -60 -41.5 -103
t-101.5 -43q-61 0 -103.5 43t-42.5 103t43 101.5t103 41.5z" />
    <glyph glyph-name="Gcommaaccent" unicode="&#x122;" horiz-adv-x="1554" 
d="M1006 1419q288 0 563 -127q-41 -73 -84 -188h-25q-56 92 -166 143t-243 51q-122 0 -224.5 -43t-174.5 -116.5t-122 -172.5t-74 -210.5t-24 -231.5q0 -215 105.5 -327.5t308.5 -112.5q98 0 178 22q37 108 72.5 264t42.5 246q90 -10 161 -10q69 0 148 10
q-89 -294 -127 -581q-143 -40 -237.5 -54t-204.5 -14q-369 0 -564.5 164t-195.5 471q0 173 67 324.5t183.5 259.5t281.5 170.5t355 62.5zM836 -78q112 0 112 -61q0 -35 -27.5 -72t-154.5 -180q-11 -12 -17 -19.5t-16.5 -19t-19.5 -21.5h-84l73 281q24 92 134 92z" />
    <glyph glyph-name="gcommaaccent" unicode="&#x123;" horiz-adv-x="1062" 
d="M580 999q66 0 157.5 -20.5t122.5 -20.5q10 0 127 6l117 7q-17 -47 -17 -99q-67 5 -174 5q74 -83 74 -191q0 -73 -36.5 -147t-104.5 -119q-125 -80 -330 -80q-12 0 -55.5 2t-50.5 2q-40 0 -68.5 -28t-28.5 -62q0 -32 10 -48t58.5 -28.5t146.5 -15.5q154 -3 224 -27
q71 -24 113 -88.5t42 -144.5q0 -79 -35 -156.5t-99.5 -142t-167.5 -104.5t-228 -40q-203 0 -325 73t-122 206q0 96 69.5 164t199.5 104l4 10q-103 44 -103 150q0 72 53.5 126t153.5 83l2 12q-182 76 -182 260q0 148 119 250t334 102zM397 563q0 -145 123 -145q49 0 89 33.5
t63.5 86.5t36 113t12.5 117q0 154 -123 154q-64 0 -112 -59t-68.5 -138.5t-20.5 -161.5zM121 -231q0 -107 68 -164.5t198 -57.5q141 0 222 66.5t81 177.5q0 102 -84 137t-291 35q-89 0 -138.5 -54.5t-55.5 -139.5zM809 1516h84q-63 -239 -72 -279q-24 -94 -133 -94
q-115 0 -115 61q0 32 29.5 70.5t206.5 241.5z" />
    <glyph glyph-name="Hcircumflex" unicode="&#x124;" horiz-adv-x="1593" 
d="M371 1395q87 -11 170 -11q73 0 159 11q-73 -258 -145 -580q5 0 58 -1t120 -2t107 -1q246 0 340 4q86 410 114 580q105 -11 181 -11q59 0 149 11q-69 -209 -153.5 -596t-153.5 -809q-120 10 -170 10q-64 0 -164 -10q31 112 54.5 201t41 165.5t25.5 110.5t23 108.5t18 88.5
q-1 0 -15.5 0.5t-41.5 1t-62 1t-85 1t-103 0.5q-30 0 -157 -2t-157 -2q-39 -166 -64.5 -296t-36 -199t-24.5 -179q-92 10 -180 10q-64 0 -156 -10q71 226 170 684.5t138 720.5zM999 1833h170l174 -352h-100l-184 196l-266 -196h-117z" />
    <glyph glyph-name="hcircumflex" unicode="&#x125;" 
d="M344 1538q55 -10 150 -10q72 0 151 10q-93 -293 -178 -725q147 182 356 182q122 0 189 -58t67 -163q0 -66 -26 -182.5t-64.5 -285.5t-58.5 -316q-72 10 -150 10q-26 0 -159 -10q6 23 45 160.5t54.5 194t41.5 156t36.5 154.5t10.5 82q0 49 -30.5 78t-88.5 29
q-67 0 -120 -40.5t-97 -125.5q-82 -152 -168 -688q-93 10 -143 10q-67 0 -152 -10q76 288 188.5 815t145.5 733zM723 1987h170l174 -353h-100l-185 197l-266 -197h-117z" />
    <glyph glyph-name="Hbar" unicode="&#x126;" horiz-adv-x="1593" 
d="M371 1395q87 -11 170 -11q73 0 159 11q-40 -135 -71 -258q20 0 151 -1t195 -1q29 0 132.5 1t137.5 1l49 258q105 -11 181 -11q59 0 149 11q-69 -209 -153.5 -596t-153.5 -809q-120 10 -170 10q-64 0 -164 -10q31 112 54.5 201t41 165.5t25.5 110.5t23 108.5t18 88.5
q-1 0 -15.5 0.5t-41.5 1t-62 1t-85 1t-103 0.5q-30 0 -157 -2t-157 -2q-39 -166 -64.5 -296t-36 -199t-24.5 -179q-92 10 -180 10q-64 0 -156 -10q71 226 170 684.5t138 720.5zM985 1012q-304 0 -387 -4l-43 -193q5 0 58 -1t120 -2t107 -1q246 0 340 4l41 193q-6 0 -108.5 2
t-127.5 2z" />
    <glyph glyph-name="hbar" unicode="&#x127;" 
d="M344 1538q55 -10 150 -10q72 0 151 10q-15 -46 -65 -221q195 0 331 10q-22 -90 -24 -145q-225 10 -338 10q-29 -108 -82 -379q147 182 356 182q122 0 189 -58t67 -163q0 -66 -26 -182.5t-64.5 -285.5t-58.5 -316q-72 10 -150 10q-26 0 -159 -10q6 23 45 160.5t54.5 194
t41.5 156t36.5 154.5t10.5 82q0 49 -30.5 78t-88.5 29q-67 0 -120 -40.5t-97 -125.5q-82 -152 -168 -688q-93 10 -143 10q-67 0 -152 -10q100 367 269 1202q-43 0 -158 -10q2 7 7 26t6.5 23.5t4.5 18.5t3.5 23t1.5 23t1 31q105 -10 158 -10q35 176 41 221z" />
    <glyph glyph-name="Itilde" unicode="&#x128;" horiz-adv-x="681" 
d="M377 1395q7 0 36.5 -3.5t65 -5.5t74.5 -2q25 0 162 11q-91 -288 -188.5 -717t-129.5 -688q-105 10 -174 10q-96 0 -164 -10q80 265 180.5 710t137.5 695zM874 1784h80q-23 -117 -84.5 -181.5t-148.5 -64.5q-53 0 -103 21q-12 3 -94.5 35t-117.5 32q-36 0 -60 -20.5
t-43 -67.5h-82q29 119 91 181.5t145 62.5q14 0 27.5 -1t30 -5.5t26.5 -6.5t32 -10t30 -10.5t36 -13t35 -13.5q65 -24 98 -24q63 0 102 86z" />
    <glyph glyph-name="itilde" unicode="&#x129;" horiz-adv-x="569" 
d="M240 975q85 -10 153 -10q84 0 156 10q-45 -141 -117 -471t-96 -514q-78 10 -154 10q-59 0 -155 -10q62 216 127.5 517.5t85.5 467.5zM731 1415h80q-23 -117 -84.5 -181.5t-148.5 -64.5q-54 0 -103 21q-12 3 -95 35t-118 32t-59 -20.5t-43 -67.5h-82q29 119 90.5 181.5
t144.5 62.5q10 0 20 -1t19 -2t21 -3.5t19.5 -4.5t21.5 -6.5t20.5 -6.5t22.5 -8t22.5 -8t25.5 -9.5t25 -9.5q67 -25 99 -25q63 0 102 86z" />
    <glyph glyph-name="Imacron" unicode="&#x12a;" horiz-adv-x="681" 
d="M377 1395q7 0 36.5 -3.5t65 -5.5t74.5 -2q25 0 162 11q-91 -288 -188.5 -717t-129.5 -688q-105 10 -174 10q-96 0 -164 -10q80 265 180.5 710t137.5 695zM272 1704h666l-35 -141h-667z" />
    <glyph glyph-name="imacron" unicode="&#x12b;" horiz-adv-x="569" 
d="M240 975q85 -10 153 -10q84 0 156 10q-45 -141 -117 -471t-96 -514q-78 10 -154 10q-59 0 -155 -10q62 216 127.5 517.5t85.5 467.5zM129 1335h666l-35 -141h-668z" />
    <glyph glyph-name="Ibreve" unicode="&#x12c;" horiz-adv-x="681" 
d="M377 1395q7 0 36.5 -3.5t65 -5.5t74.5 -2q25 0 162 11q-91 -288 -188.5 -717t-129.5 -688q-105 10 -174 10q-96 0 -164 -10q80 265 180.5 710t137.5 695zM293 1745q0 15 4 65h84q3 -83 51 -131q56 -53 166 -53q95 0 162.5 46.5t97.5 137.5h82q-30 -158 -122 -245.5
t-238 -87.5q-134 0 -210.5 68t-76.5 200z" />
    <glyph glyph-name="ibreve" unicode="&#x12d;" horiz-adv-x="569" 
d="M240 975q85 -10 153 -10q84 0 156 10q-45 -141 -117 -471t-96 -514q-78 10 -154 10q-59 0 -155 -10q62 216 127.5 517.5t85.5 467.5zM166 1376q0 16 4 66h84q2 -82 51 -131q57 -54 166 -54q95 0 162.5 47t97.5 138h82q-30 -158 -122.5 -246t-237.5 -88q-134 0 -210.5 68
t-76.5 200z" />
    <glyph glyph-name="Iogonek" unicode="&#x12e;" horiz-adv-x="681" 
d="M207 0q-83 0 -148 -10q80 265 180.5 710t137.5 695q7 0 36.5 -3.5t65 -5.5t74.5 -2q25 0 162 11q-91 -288 -188.5 -717t-129.5 -688l-90 8q-106 -67 -155.5 -123t-49.5 -111q0 -36 25 -59.5t68 -23.5q37 0 64.5 11t64.5 36l30 -58q-150 -121 -291 -121q-70 0 -109.5 37.5
t-39.5 96.5q0 78 70 153.5t223 163.5z" />
    <glyph glyph-name="iogonek" unicode="&#x12f;" horiz-adv-x="569" 
d="M172 0q-57 0 -145 -10q62 216 127.5 517.5t85.5 467.5q85 -10 153 -10q84 0 156 10q-45 -141 -117 -471t-96 -514q-13 3 -66 8q-105 -66 -153.5 -122.5t-48.5 -111.5q0 -36 24.5 -59.5t67.5 -23.5q37 0 64.5 11t64.5 36l30 -58q-150 -121 -290 -121q-70 0 -110 37.5
t-40 96.5q0 78 70 153.5t223 163.5zM459 1509q64 0 109.5 -45t45.5 -110t-45.5 -110.5t-109.5 -45.5q-65 0 -110.5 46t-45.5 110t45.5 109.5t110.5 45.5z" />
    <glyph glyph-name="Idotaccent" unicode="&#x130;" horiz-adv-x="681" 
d="M377 1395q7 0 36.5 -3.5t65 -5.5t74.5 -2q25 0 162 11q-91 -288 -188.5 -717t-129.5 -688q-105 10 -174 10q-96 0 -164 -10q80 265 180.5 710t137.5 695zM592 1784q60 0 101.5 -42t41.5 -102t-41.5 -102.5t-101.5 -42.5q-61 0 -103.5 42.5t-42.5 102.5t43 102t103 42z
" />
    <glyph glyph-name="dotlessi" unicode="&#x131;" horiz-adv-x="569" 
d="M240 975q85 -10 153 -10q84 0 156 10q-45 -141 -117 -471t-96 -514q-78 10 -154 10q-59 0 -155 -10q62 216 127.5 517.5t85.5 467.5z" />
    <glyph glyph-name="Jcircumflex" unicode="&#x134;" horiz-adv-x="681" 
d="M387 1395q124 -11 168 -11q17 0 160 11q-136 -529 -180 -789l-68 -387q-35 -199 -90.5 -312.5t-165.5 -168.5q-136 -68 -330 -68h-10l-12 94q93 5 142 38.5t85 123.5q27 69 152 678q74 362 149 791zM553 1833h170l174 -352h-100l-185 196l-266 -196h-117z" />
    <glyph glyph-name="jcircumflex" unicode="&#x135;" horiz-adv-x="530" 
d="M74 119q131 618 170 856q83 -10 143 -10q62 0 152 10q-44 -153 -105.5 -426t-93.5 -440l-51 -261q-38 -191 -139.5 -278t-260.5 -100q-65 -9 -116 -9l-15 72q72 11 115 34.5t68 70.5q51 91 133 481zM379 1464h170l174 -352h-100l-185 197l-266 -197h-117z" />
    <glyph glyph-name="Kcommaaccent" unicode="&#x136;" horiz-adv-x="1251" 
d="M395 1395q86 -11 154 -11q78 0 164 11q-53 -204 -90 -369q-50 -226 -50 -229q0 -15 11 -15t56 41.5t177 173.5q166 162 375 398q57 -11 106 -11q72 0 129 11v-13q-88 -65 -319.5 -286t-304.5 -301q35 -95 165 -398t183 -407q-98 10 -176 10q-86 0 -154 -10
q-129 350 -246 596q-15 35 -28 35q-4 0 -7 -1.5t-5 -6.5t-3 -8.5t-3 -12t-3 -12.5l-77 -416q-20 -108 -29 -174q-82 10 -180 10q-66 0 -148 -10q57 215 171 741t132 664zM592 -78q113 0 113 -61q0 -34 -26.5 -70.5t-147.5 -171.5q-39 -44 -62 -70h-84l74 281q24 92 133 92z
" />
    <glyph glyph-name="kcommaaccent" unicode="&#x137;" horiz-adv-x="1024" 
d="M344 1538q82 -10 158 -10q56 0 141 10q-49 -186 -102.5 -421t-83 -380.5t-29.5 -154.5q0 -19 16 -19t151 117q37 31 58 49q159 138 254 246q55 -10 103 -10q38 0 90 10l2 -33q-90 -56 -428 -358q17 -44 52 -134.5t58 -148.5t50 -126.5t45.5 -111t27.5 -59.5v-14
q-61 10 -139 10q-66 0 -164 -10q-34 131 -94 299l-61 174q-6 20 -23 20q-7 0 -13 -5t-8 -9t-6 -14q-4 -6 -18.5 -68t-35.5 -174.5t-36 -222.5q-84 10 -139 10q-54 0 -158 -10q100 393 213 918t119 630zM451 -78q112 0 112 -61q0 -35 -27.5 -72t-154.5 -180
q-11 -12 -17 -19.5t-16.5 -19t-19.5 -21.5h-84l73 281q24 92 134 92z" />
    <glyph glyph-name="kgreenlandic" unicode="&#x138;" horiz-adv-x="1024" 
d="M225 979q82 -10 158 -10q56 0 141 10q-27 -94 -50.5 -189.5t-34.5 -148t-11 -59.5q0 -19 16 -19t151 117q37 31 58 49q159 138 254 246q55 -10 103 -10q38 0 90 10l2 -33q-90 -56 -428 -358q17 -44 52 -134.5t58 -148.5t50 -126.5t45.5 -111t27.5 -59.5v-14
q-61 10 -139 10q-66 0 -164 -10q-34 131 -94 299l-61 174q-6 20 -23 20q-7 0 -13 -5t-8 -9t-6 -14q-4 -6 -18.5 -68t-35.5 -174.5t-36 -222.5q-84 10 -139 10q-54 0 -158 -10q15 65 57 221.5t64 261.5q4 17 23.5 112t28.5 141.5t21.5 122t18.5 130.5z" />
    <glyph glyph-name="Lacute" unicode="&#x139;" horiz-adv-x="1024" 
d="M381 1395q75 -11 176 -11q74 0 164 11q-59 -199 -144 -577t-137 -685h187q182 0 297 10q-21 -46 -28 -75.5t-7 -77.5q-235 10 -418 10q-142 0 -387 -10q58 187 147.5 595.5t149.5 809.5zM788 1849q39 0 69 -27t30 -67q0 -54 -56 -84l-335 -190h-99l256 276q50 56 77 74
t58 18z" />
    <glyph glyph-name="lacute" unicode="&#x13a;" horiz-adv-x="569" 
d="M358 1538q12 0 78 -5t82 -5q85 0 156 10q-100 -358 -195.5 -804t-144.5 -744q-82 10 -160 10q-74 0 -156 -10q61 210 175.5 731.5t164.5 816.5zM788 1946q39 0 69 -27.5t30 -67.5q0 -54 -56 -84l-335 -190h-99l256 276q51 57 77.5 75t57.5 18z" />
    <glyph glyph-name="Lcommaaccent" unicode="&#x13b;" horiz-adv-x="1024" 
d="M381 1395q75 -11 176 -11q74 0 164 11q-59 -199 -144 -577t-137 -685h187q182 0 297 10q-21 -46 -28 -75.5t-7 -77.5q-235 10 -418 10q-142 0 -387 -10q58 187 147.5 595.5t149.5 809.5zM496 -78q112 0 112 -61q0 -35 -27.5 -72t-154.5 -180q-11 -12 -17 -19.5t-16.5 -19
t-19.5 -21.5h-84l73 281q24 92 134 92z" />
    <glyph glyph-name="lcommaaccent" unicode="&#x13c;" horiz-adv-x="569" 
d="M358 1538q12 0 78 -5t82 -5q85 0 156 10q-100 -358 -195.5 -804t-144.5 -744q-82 10 -160 10q-74 0 -156 -10q61 210 175.5 731.5t164.5 816.5zM170 -78q113 0 113 -61q0 -34 -26.5 -70.5t-147.5 -171.5q-39 -44 -62 -70h-84l74 281q24 92 133 92z" />
    <glyph glyph-name="Lcaron" unicode="&#x13d;" horiz-adv-x="1024" 
d="M381 1395q75 -11 176 -11q74 0 164 11q-59 -199 -144 -577t-137 -685h187q182 0 297 10q-21 -46 -28 -75.5t-7 -77.5q-235 10 -418 10q-142 0 -387 -10q58 187 147.5 595.5t149.5 809.5zM1030 1530q44 0 75.5 -18t31.5 -46q0 -31 -23 -61l-192 -266h-105l82 303
q12 42 46.5 65t84.5 23z" />
    <glyph glyph-name="lcaron" unicode="&#x13e;" horiz-adv-x="569" 
d="M358 1538q12 0 78 -5t82 -5q85 0 156 10q-100 -358 -195.5 -804t-144.5 -744q-82 10 -160 10q-74 0 -156 -10q61 210 175.5 731.5t164.5 816.5zM903 1530q44 0 75.5 -18t31.5 -46q0 -31 -23 -61l-192 -266h-105l82 303q12 42 46.5 65t84.5 23z" />
    <glyph glyph-name="Ldot" unicode="&#x13f;" horiz-adv-x="1024" 
d="M381 1393q75 -11 176 -11q74 0 164 11q-59 -199 -144 -577t-137 -685h187q182 0 297 10q-21 -46 -28 -75.5t-7 -77.5q-235 10 -418 10q-142 0 -387 -10q58 187 147.5 595.5t149.5 809.5zM905 842q58 0 101 -42.5t43 -101.5q0 -60 -42 -102.5t-102 -42.5q-61 0 -103 42.5
t-42 102.5t42.5 102t102.5 42z" />
    <glyph glyph-name="ldot" unicode="&#x140;" horiz-adv-x="796" 
d="M358 1536q12 0 78 -5t82 -5q85 0 156 10q-100 -358 -195.5 -804t-144.5 -744q-82 10 -160 10q-74 0 -156 -10q61 210 175.5 731.5t164.5 816.5zM715 842q58 0 100.5 -42.5t42.5 -101.5q0 -60 -41.5 -102.5t-101.5 -42.5q-61 0 -103.5 42.5t-42.5 102.5t43 102t103 42z
" />
    <glyph glyph-name="Lslash" unicode="&#x141;" horiz-adv-x="1024" 
d="M379 1395q72 -11 178 -11q72 0 162 11q-44 -139 -133 -529q61 26 254 115q9 -57 24 -104q-67 -28 -147 -66l-158 -74q-89 -388 -119 -604h187q180 0 295 10q-21 -46 -28 -75.5t-7 -77.5q-235 10 -416 10q-142 0 -387 -10q74 258 145 618q-15 -4 -84.5 -37.5t-81.5 -40.5
q-10 57 -24 113q92 35 221 98q82 396 119 654z" />
    <glyph glyph-name="lslash" unicode="&#x142;" horiz-adv-x="569" 
d="M358 1538q12 0 78 -5t82 -5q85 0 156 10q-38 -136 -156 -629q148 65 172 78q10 -63 25 -104q-145 -60 -226 -105q-102 -468 -155 -788q-82 10 -160 10q-74 0 -156 -10q83 279 166 674l-149 -72q-2 15 -25 113q29 14 99 43.5t104 46.5q120 574 145 743z" />
    <glyph glyph-name="Nacute" unicode="&#x143;" horiz-adv-x="1593" 
d="M385 1417q51 -10 90 -10q48 0 90 10q87 -162 312 -508.5t354 -523.5q38 143 102 449.5t109 560.5q46 -11 80 -11q27 0 84 11q-1 -4 -12 -43t-24.5 -92t-27.5 -115l-31 -133q-109 -472 -141 -641q-24 -127 -72 -404q-49 10 -86 10q-28 0 -82 -10q-96 167 -223.5 367.5
t-204.5 314t-247 363.5q-45 -176 -111.5 -512.5t-91.5 -509.5q-54 10 -88 10q-29 0 -84 -10q36 107 145 606q106 482 160 821zM1223 1849q39 0 68.5 -27t29.5 -67q0 -54 -55 -84l-336 -190h-99l256 276q50 56 77.5 74t58.5 18z" />
    <glyph glyph-name="nacute" unicode="&#x144;" 
d="M829 995q117 0 183.5 -57.5t66.5 -161.5q0 -63 -25 -171.5t-65.5 -279.5t-64.5 -335q-92 10 -152 10q-56 0 -154 -10q191 626 191 737q0 56 -31.5 85.5t-87.5 29.5q-86 0 -157 -73t-109 -202q-36 -116 -71.5 -282t-53.5 -295q-85 10 -141 10q-72 0 -150 -10
q136 512 219 985q72 -10 148 -10q59 0 131 10q-36 -129 -45 -172q79 99 168 145.5t200 46.5zM918 1481q39 0 68.5 -27.5t29.5 -67.5q0 -28 -13 -46t-42 -37l-336 -191h-99l254 274q55 60 81 77.5t57 17.5z" />
    <glyph glyph-name="Ncommaaccent" unicode="&#x145;" horiz-adv-x="1593" 
d="M385 1417q51 -10 90 -10q48 0 90 10q87 -162 312 -508.5t354 -523.5q38 143 102 449.5t109 560.5q46 -11 80 -11q27 0 84 11q-1 -4 -12 -43t-24.5 -92t-27.5 -115l-31 -133q-109 -472 -141 -641q-24 -127 -72 -404q-49 10 -86 10q-28 0 -82 -10q-96 167 -223.5 367.5
t-204.5 314t-247 363.5q-45 -176 -111.5 -512.5t-91.5 -509.5q-54 10 -88 10q-29 0 -84 -10q36 107 145 606q106 482 160 821zM739 -78q113 0 113 -61q0 -34 -26.5 -70.5t-147.5 -171.5q-39 -44 -62 -70h-84l74 281q24 92 133 92z" />
    <glyph glyph-name="ncommaaccent" unicode="&#x146;" 
d="M829 995q117 0 183.5 -57.5t66.5 -161.5q0 -63 -25 -171.5t-65.5 -279.5t-64.5 -335q-92 10 -152 10q-56 0 -154 -10q191 626 191 737q0 56 -31.5 85.5t-87.5 29.5q-86 0 -157 -73t-109 -202q-36 -116 -71.5 -282t-53.5 -295q-85 10 -141 10q-72 0 -150 -10
q136 512 219 985q72 -10 148 -10q59 0 131 10q-36 -129 -45 -172q79 99 168 145.5t200 46.5zM455 -78q112 0 112 -61q0 -35 -27.5 -72t-154.5 -180q-11 -12 -17 -19.5t-16.5 -19t-19.5 -21.5h-84l74 281q24 92 133 92z" />
    <glyph glyph-name="Ncaron" unicode="&#x147;" horiz-adv-x="1593" 
d="M385 1417q51 -10 90 -10q48 0 90 10q87 -162 312 -508.5t354 -523.5q38 143 102 449.5t109 560.5q46 -11 80 -11q27 0 84 11q-1 -4 -12 -43t-24.5 -92t-27.5 -115l-31 -133q-109 -472 -141 -641q-24 -127 -72 -404q-49 10 -86 10q-28 0 -82 -10q-96 167 -223.5 367.5
t-204.5 314t-247 363.5q-45 -176 -111.5 -512.5t-91.5 -509.5q-54 10 -88 10q-29 0 -84 -10q36 107 145 606q106 482 160 821zM934 1481l-182 354h100l190 -197l277 197h111l-326 -354h-170z" />
    <glyph glyph-name="ncaron" unicode="&#x148;" 
d="M829 995q117 0 183.5 -57.5t66.5 -161.5q0 -63 -25 -171.5t-65.5 -279.5t-64.5 -335q-92 10 -152 10q-56 0 -154 -10q191 626 191 737q0 56 -31.5 85.5t-87.5 29.5q-86 0 -157 -73t-109 -202q-36 -116 -71.5 -282t-53.5 -295q-85 10 -141 10q-72 0 -150 -10
q136 512 219 985q72 -10 148 -10q59 0 131 10q-36 -129 -45 -172q79 99 168 145.5t200 46.5zM600 1112l-182 354h100l191 -196l276 196h111l-326 -354h-170z" />
    <glyph glyph-name="Eng" unicode="&#x14a;" horiz-adv-x="1593" 
d="M385 1417l6 -1q6 -1 15.5 -2.5t20.5 -3t24 -2.5t24 -1q45 0 90 10q80 -156 316.5 -520t343.5 -504q112 561 190 1014q52 -8 98 -8q54 0 95 8q-24 -77 -100.5 -437t-127.5 -632l-92 -475q-58 -320 -274 -385q-36 -12 -144 -17l-14 72q48 9 74.5 17t55 28t43.5 44
t34.5 74.5t34.5 110.5t37 160h-5q-96 167 -223.5 367.5t-204.5 314t-247 363.5q-47 -194 -113 -525.5t-90 -496.5q-47 10 -88 10q-37 0 -84 -10q36 107 145 606q106 482 160 821z" />
    <glyph glyph-name="eng" unicode="&#x14b;" 
d="M829 995q117 0 183.5 -58.5t66.5 -158.5q0 -189 -82 -510q-33 -128 -66 -270.5t-45 -190.5t-32.5 -98.5t-50.5 -87.5q-35 -49 -82 -81.5t-107 -48t-110.5 -21.5t-122.5 -9l-14 72l34 6q82 15 125 64q59 59 164 538q119 553 119 578q0 123 -119 123q-86 0 -157.5 -75
t-108.5 -200q-36 -119 -72 -283.5t-53 -293.5q-90 10 -141 10q-72 0 -150 -10q136 512 219 985q72 -10 148 -10q59 0 131 10q-35 -121 -45 -172q79 99 168 145.5t200 46.5z" />
    <glyph glyph-name="Omacron" unicode="&#x14c;" horiz-adv-x="1705" 
d="M977 1421q148 0 276 -41.5t224 -118.5t151 -196t55 -266q0 -139 -42.5 -267t-121.5 -230t-185.5 -177.5t-239 -116.5t-277.5 -41q-201 0 -358.5 73.5t-248.5 216.5t-91 335q0 171 64.5 323.5t176.5 264t272.5 176.5t344.5 65zM424 494q0 -195 100 -303.5t275 -108.5
q155 0 286 113q127 105 210 309.5t83 396.5q0 182 -103.5 294t-279.5 112q-166 0 -295 -111q-123 -107 -199.5 -301t-76.5 -401zM778 1704h666l-35 -141h-668z" />
    <glyph glyph-name="omacron" unicode="&#x14d;" 
d="M643 995q211 0 329 -115.5t118 -330.5q0 -159 -84 -295t-222.5 -213.5t-296.5 -77.5q-200 0 -319 121t-119 315q0 121 45.5 230.5t124 190t189.5 128t235 47.5zM330 295q0 -250 162 -250q64 0 118.5 44.5t90 113t61 153.5t36.5 163.5t11 144.5q0 125 -39.5 187t-124.5 62
q-63 0 -116.5 -44t-89 -112t-61 -152.5t-37 -163.5t-11.5 -146zM430 1335h666l-35 -141h-668z" />
    <glyph glyph-name="Obreve" unicode="&#x14e;" horiz-adv-x="1705" 
d="M977 1421q148 0 276 -41.5t224 -118.5t151 -196t55 -266q0 -139 -42.5 -267t-121.5 -230t-185.5 -177.5t-239 -116.5t-277.5 -41q-201 0 -358.5 73.5t-248.5 216.5t-91 335q0 171 64.5 323.5t176.5 264t272.5 176.5t344.5 65zM424 494q0 -195 100 -303.5t275 -108.5
q155 0 286 113q127 105 210 309.5t83 396.5q0 182 -103.5 294t-279.5 112q-166 0 -295 -111q-123 -107 -199.5 -301t-76.5 -401zM795 1745q0 15 4 65h84q3 -83 51 -131q56 -53 166 -53q95 0 162.5 46.5t97.5 137.5h82q-30 -158 -122.5 -245.5t-238.5 -87.5q-134 0 -210 68
t-76 200z" />
    <glyph glyph-name="obreve" unicode="&#x14f;" 
d="M643 995q211 0 329 -115.5t118 -330.5q0 -159 -84 -295t-222.5 -213.5t-296.5 -77.5q-200 0 -319 121t-119 315q0 121 45.5 230.5t124 190t189.5 128t235 47.5zM330 295q0 -250 162 -250q64 0 118.5 44.5t90 113t61 153.5t36.5 163.5t11 144.5q0 125 -39.5 187t-124.5 62
q-63 0 -116.5 -44t-89 -112t-61 -152.5t-37 -163.5t-11.5 -146zM436 1376q0 16 4 66h84q2 -82 51 -131q57 -54 166 -54q95 0 162.5 47t97.5 138h82q-30 -158 -122.5 -246t-237.5 -88q-134 0 -210.5 68t-76.5 200z" />
    <glyph glyph-name="Ohungarumlaut" unicode="&#x150;" horiz-adv-x="1705" 
d="M977 1421q148 0 276 -41.5t224 -118.5t151 -196t55 -266q0 -139 -42.5 -267t-121.5 -230t-185.5 -177.5t-239 -116.5t-277.5 -41q-201 0 -358.5 73.5t-248.5 216.5t-91 335q0 171 64.5 323.5t176.5 264t272.5 176.5t344.5 65zM424 494q0 -195 100 -303.5t275 -108.5
q155 0 286 113q127 105 210 309.5t83 396.5q0 182 -103.5 294t-279.5 112q-166 0 -295 -111q-123 -107 -199.5 -301t-76.5 -401zM1124 1849q40 0 70.5 -27t30.5 -67q0 -51 -60 -86l-331 -188h-99l240 260q65 70 90 89t59 19zM1524 1849q40 0 70 -27t30 -67q0 -51 -59 -86
l-332 -188h-98l239 260q65 70 90.5 89t59.5 19z" />
    <glyph glyph-name="ohungarumlaut" unicode="&#x151;" 
d="M643 995q211 0 329 -115.5t118 -330.5q0 -159 -84 -295t-222.5 -213.5t-296.5 -77.5q-200 0 -319 121t-119 315q0 121 45.5 230.5t124 190t189.5 128t235 47.5zM330 295q0 -250 162 -250q64 0 118.5 44.5t90 113t61 153.5t36.5 163.5t11 144.5q0 125 -39.5 187t-124.5 62
q-63 0 -116.5 -44t-89 -112t-61 -152.5t-37 -163.5t-11.5 -146zM750 1481q39 0 69.5 -27.5t30.5 -67.5q0 -51 -59 -86l-332 -188h-99l240 260q66 70 91 89.5t59 19.5zM1149 1481q39 0 69.5 -27.5t30.5 -67.5q0 -51 -59 -86l-332 -188h-98l239 260q66 70 91 89.5t59 19.5z
" />
    <glyph glyph-name="OE" unicode="&#x152;" horiz-adv-x="1933" 
d="M874 1419q154 0 265 -57.5t168 -167.5l24 201q315 -11 441 -11q104 0 333 11q-22 -41 -28 -67t-6 -60v-31q-128 12 -211.5 15t-255.5 3q-36 -127 -107 -450l264 2q119 0 207 8q-33 -67 -33 -135v-25q-211 19 -467 19q-65 -300 -96 -545h150q192 0 325 14
q-32 -70 -32 -129v-24q-235 10 -426 10q-231 0 -351 -10q19 59 41 151q-81 -93 -172 -133.5t-215 -40.5q-274 0 -440 172t-166 451q0 169 64 323.5t170.5 264.5t251.5 175.5t302 65.5zM385 496q0 -199 87.5 -305.5t252.5 -106.5q97 0 181 55t141.5 143t98.5 198t60 219
t19 208q0 187 -87.5 290t-252.5 103q-147 0 -264 -114q-105 -102 -170.5 -305.5t-65.5 -384.5z" />
    <glyph glyph-name="oe" unicode="&#x153;" horiz-adv-x="1820" 
d="M643 995q264 0 379 -170q65 79 162 124.5t221 45.5q184 0 284.5 -96.5t100.5 -269.5q0 -64 -16 -158q-196 8 -355 8l-303 -2q-8 -59 -8 -115q0 -125 72 -200.5t194 -75.5q171 0 281 113l31 -15q-23 -50 -48 -139q-115 -82 -307 -82q-134 0 -233.5 53.5t-155.5 153.5
q-97 -114 -203 -160.5t-256 -46.5q-192 0 -313 121.5t-121 314.5q0 121 45.5 230.5t124 190t189.5 128t235 47.5zM330 285q0 -120 42.5 -180t119.5 -60q111 0 194 92q80 87 134 244t54 285q0 247 -163 247q-87 0 -162.5 -65.5t-121 -163.5t-71.5 -203.5t-26 -195.5z
M1130 571q17 -4 162 -4q67 0 133.5 2t92.5 2q20 88 20 168q0 86 -37.5 126t-116.5 40q-94 0 -155.5 -81t-98.5 -253z" />
    <glyph glyph-name="Racute" unicode="&#x154;" horiz-adv-x="1251" 
d="M373 1395q53 -11 170 -11q38 0 130.5 5.5t147.5 5.5q192 0 292.5 -86t100.5 -252q0 -155 -99.5 -258t-276.5 -129q50 -135 156.5 -394t123.5 -286q-102 10 -170 10q-90 0 -162 -10q-120 382 -231 653h-39q-94 -434 -131 -653q-78 10 -164 10q-72 0 -151 -10
q44 143 158.5 670.5t144.5 734.5zM649 1280q-75 -310 -114 -545q54 -4 81 -4q139 0 216 91t77 247q0 213 -217 213q-29 0 -43 -2zM934 1849q39 0 68.5 -27t29.5 -67q0 -54 -55 -84l-336 -190h-98l256 276q50 56 77 74t58 18z" />
    <glyph glyph-name="racute" unicode="&#x155;" horiz-adv-x="796" 
d="M764 997q44 0 86 -22q-34 -68 -47.5 -122.5t-20.5 -135.5l-18 -8q-43 30 -107 30q-118 0 -182 -98q-35 -52 -69 -194t-89 -457q-100 10 -149 10q-51 0 -143 -10q162 606 217 985q71 -10 139 -10q69 0 127 10q-4 -17 -9.5 -41t-17 -76.5t-24.5 -112.5q132 252 307 252z
M727 1481q39 0 68.5 -27.5t29.5 -67.5q0 -28 -13 -46t-42 -37l-336 -191h-98l254 274q55 60 80.5 77.5t56.5 17.5z" />
    <glyph glyph-name="Rcommaaccent" unicode="&#x156;" horiz-adv-x="1251" 
d="M373 1395q53 -11 170 -11q38 0 130.5 5.5t147.5 5.5q192 0 292.5 -86t100.5 -252q0 -155 -99.5 -258t-276.5 -129q50 -135 156.5 -394t123.5 -286q-102 10 -170 10q-90 0 -162 -10q-120 382 -231 653h-39q-94 -434 -131 -653q-78 10 -164 10q-72 0 -151 -10
q44 143 158.5 670.5t144.5 734.5zM649 1280q-75 -310 -114 -545q54 -4 81 -4q139 0 216 91t77 247q0 213 -217 213q-29 0 -43 -2zM575 -78q113 0 113 -61q0 -35 -27.5 -72t-154.5 -180q-11 -12 -17 -19.5t-16.5 -19t-19.5 -21.5h-84l73 281q24 92 133 92z" />
    <glyph glyph-name="rcommaaccent" unicode="&#x157;" horiz-adv-x="796" 
d="M764 997q44 0 86 -22q-34 -68 -47.5 -122.5t-20.5 -135.5l-18 -8q-43 30 -107 30q-118 0 -182 -98q-35 -52 -69 -194t-89 -457q-100 10 -149 10q-51 0 -143 -10q162 606 217 985q71 -10 139 -10q69 0 127 10q-4 -17 -9.5 -41t-17 -76.5t-24.5 -112.5q132 252 307 252z
M162 -78q112 0 112 -61q0 -35 -27.5 -72t-154.5 -180q-11 -12 -17 -19.5t-16.5 -19t-19.5 -21.5h-84l74 281q24 92 133 92z" />
    <glyph glyph-name="Rcaron" unicode="&#x158;" horiz-adv-x="1251" 
d="M373 1395q53 -11 170 -11q38 0 130.5 5.5t147.5 5.5q192 0 292.5 -86t100.5 -252q0 -155 -99.5 -258t-276.5 -129q50 -135 156.5 -394t123.5 -286q-102 10 -170 10q-90 0 -162 -10q-120 382 -231 653h-39q-94 -434 -131 -653q-78 10 -164 10q-72 0 -151 -10
q44 143 158.5 670.5t144.5 734.5zM649 1280q-75 -310 -114 -545q54 -4 81 -4q139 0 216 91t77 247q0 213 -217 213q-29 0 -43 -2zM655 1481l-182 354h100l191 -197l276 197h111l-326 -354h-170z" />
    <glyph glyph-name="rcaron" unicode="&#x159;" horiz-adv-x="796" 
d="M764 997q44 0 86 -22q-34 -68 -47.5 -122.5t-20.5 -135.5l-18 -8q-43 30 -107 30q-118 0 -182 -98q-35 -52 -69 -194t-89 -457q-100 10 -149 10q-51 0 -143 -10q162 606 217 985q71 -10 139 -10q69 0 127 10q-4 -17 -9.5 -41t-17 -76.5t-24.5 -112.5q132 252 307 252z
M385 1112l-182 354h100l191 -196l276 196h111l-326 -354h-170z" />
    <glyph glyph-name="Sacute" unicode="&#x15a;" horiz-adv-x="1062" 
d="M680 1419q216 0 385 -108q-53 -95 -88 -244h-45q-12 109 -76.5 168t-169.5 59q-95 0 -153 -54t-58 -132q0 -65 41 -123t141 -139q166 -137 229.5 -226t63.5 -210q0 -202 -141 -322.5t-356 -120.5q-126 0 -225.5 30t-200.5 95q62 122 88 250h43q10 -120 87 -189t195 -69
q100 0 168 56.5t68 146.5q0 67 -52 134.5t-182 172.5q-130 101 -183.5 191.5t-53.5 201.5q0 199 131 315.5t344 116.5zM938 1849q39 0 68.5 -27t29.5 -67q0 -54 -55 -84l-336 -190h-98l256 276q50 56 77 74t58 18z" />
    <glyph glyph-name="sacute" unicode="&#x15b;" horiz-adv-x="796" 
d="M502 995q137 0 276 -63q-35 -70 -59 -207h-43q-37 174 -205 174q-74 0 -121 -36.5t-47 -92.5q0 -18 4 -33t19 -31t26 -26t43 -28t51 -28.5t68 -35.5q117 -61 162 -129t45 -148q0 -162 -122.5 -255t-309.5 -93q-153 0 -273 70q42 93 58 205h39q13 -83 76.5 -132t146.5 -49
q72 0 121 38.5t49 94.5q0 47 -34.5 82t-121.5 80q-113 58 -155 97q-86 82 -86 202q0 61 23.5 120t69 110t123.5 82.5t177 31.5zM748 1481q39 0 68.5 -27.5t29.5 -67.5q0 -28 -13 -46t-42 -37l-336 -191h-99l254 274q55 60 81 77.5t57 17.5z" />
    <glyph glyph-name="Scircumflex" unicode="&#x15c;" horiz-adv-x="1062" 
d="M680 1419q216 0 385 -108q-53 -95 -88 -244h-45q-12 109 -76.5 168t-169.5 59q-95 0 -153 -54t-58 -132q0 -65 41 -123t141 -139q166 -137 229.5 -226t63.5 -210q0 -202 -141 -322.5t-356 -120.5q-126 0 -225.5 30t-200.5 95q62 122 88 250h43q10 -120 87 -189t195 -69
q100 0 168 56.5t68 146.5q0 67 -52 134.5t-182 172.5q-130 101 -183.5 191.5t-53.5 201.5q0 199 131 315.5t344 116.5zM662 1833h169l175 -352h-101l-184 196l-266 -196h-117z" />
    <glyph glyph-name="scircumflex" unicode="&#x15d;" horiz-adv-x="796" 
d="M502 995q137 0 276 -63q-35 -70 -59 -207h-43q-37 174 -205 174q-74 0 -121 -36.5t-47 -92.5q0 -18 4 -33t19 -31t26 -26t43 -28t51 -28.5t68 -35.5q117 -61 162 -129t45 -148q0 -162 -122.5 -255t-309.5 -93q-153 0 -273 70q42 93 58 205h39q13 -83 76.5 -132t146.5 -49
q72 0 121 38.5t49 94.5q0 47 -34.5 82t-121.5 80q-113 58 -155 97q-86 82 -86 202q0 61 23.5 120t69 110t123.5 82.5t177 31.5zM483 1464h170l174 -352h-100l-184 197l-267 -197h-116z" />
    <glyph glyph-name="Scedilla" unicode="&#x15e;" horiz-adv-x="1062" 
d="M268 -186l111 155q-180 14 -352 123q62 122 88 250h43q10 -120 87 -189t195 -69q100 0 168 56.5t68 146.5q0 67 -52 134.5t-182 172.5q-130 101 -183.5 191.5t-53.5 201.5q0 199 131 315.5t344 116.5q216 0 385 -108q-53 -95 -88 -244h-45q-12 109 -76.5 168t-169.5 59
q-95 0 -153 -54t-58 -132q0 -65 41 -123t141 -139q166 -137 229.5 -226t63.5 -210q0 -199 -136.5 -318.5t-346.5 -124.5l-68 -96q46 4 58 4q82 0 132 -39.5t50 -105.5q0 -79 -74.5 -130t-185.5 -51q-115 0 -223 54l43 65q87 -35 141 -35t83.5 23.5t29.5 60.5q0 32 -25 54
t-68 22q-32 0 -65 -10z" />
    <glyph glyph-name="scedilla" unicode="&#x15f;" horiz-adv-x="796" 
d="M147 -186l107 151q-138 10 -238 68q42 93 58 205h39q13 -83 76.5 -132t146.5 -49q72 0 121 38.5t49 94.5q0 47 -34.5 82t-121.5 80q-113 58 -155 97q-86 82 -86 202q0 61 23.5 120t69 110t123.5 82.5t177 31.5q137 0 276 -63q-35 -70 -59 -207h-43q-37 174 -205 174
q-74 0 -121 -36.5t-47 -92.5q0 -18 4 -33t19 -31t26 -26t43 -28t51 -28.5t68 -35.5q117 -61 162 -129t45 -148q0 -148 -105 -241t-270 -105l-67 -94q46 4 57 4q82 0 132 -39.5t50 -105.5q0 -79 -74.5 -130t-185.5 -51q-115 0 -223 54l43 65q87 -35 141 -35t83.5 23.5
t29.5 60.5q0 32 -24.5 54t-67.5 22q-33 0 -66 -10z" />
    <glyph glyph-name="Scaron" unicode="&#x160;" horiz-adv-x="1062" 
d="M680 1419q216 0 385 -108q-53 -95 -88 -244h-45q-12 109 -76.5 168t-169.5 59q-95 0 -153 -54t-58 -132q0 -65 41 -123t141 -139q166 -137 229.5 -226t63.5 -210q0 -202 -141 -322.5t-356 -120.5q-126 0 -225.5 30t-200.5 95q62 122 88 250h43q10 -120 87 -189t195 -69
q100 0 168 56.5t68 146.5q0 67 -52 134.5t-182 172.5q-130 101 -183.5 191.5t-53.5 201.5q0 199 131 315.5t344 116.5zM594 1481l-182 354h100l190 -197l277 197h111l-326 -354h-170z" />
    <glyph glyph-name="scaron" unicode="&#x161;" horiz-adv-x="796" 
d="M502 995q137 0 276 -63q-35 -70 -59 -207h-43q-37 174 -205 174q-74 0 -121 -36.5t-47 -92.5q0 -18 4 -33t19 -31t26 -26t43 -28t51 -28.5t68 -35.5q117 -61 162 -129t45 -148q0 -162 -122.5 -255t-309.5 -93q-153 0 -273 70q42 93 58 205h39q13 -83 76.5 -132t146.5 -49
q72 0 121 38.5t49 94.5q0 47 -34.5 82t-121.5 80q-113 58 -155 97q-86 82 -86 202q0 61 23.5 120t69 110t123.5 82.5t177 31.5zM451 1112l-183 354h101l190 -196l277 196h110l-325 -354h-170z" />
    <glyph glyph-name="Tcommaaccent" unicode="&#x162;" 
d="M225 1395q282 -11 506 -11q365 0 541 11q-26 -61 -35 -164q-150 16 -334 16q-68 -227 -166 -674.5t-110 -582.5q-78 10 -174 10q-58 0 -162 -10q108 404 161 644.5t121 612.5q-176 0 -385 -12q25 59 37 160zM440 -78q113 0 113 -61q0 -34 -26.5 -70.5t-147.5 -171.5
q-39 -44 -62 -70h-84l74 281q24 92 133 92z" />
    <glyph glyph-name="tcommaaccent" unicode="&#x163;" horiz-adv-x="681" 
d="M311 1198q139 43 307 131l17 -18q-9 -34 -21.5 -77t-18 -63t-14 -51.5t-15.5 -65.5t-17 -83q140 0 182 4q-18 -45 -22 -109q-45 4 -181 4l-114 -524q-29 -130 -29 -186q0 -55 28.5 -79t84.5 -24q39 0 63 9l-18 -74q-114 -29 -170 -29q-111 0 -182.5 63t-71.5 162
q0 70 20 154l117 528q-26 0 -76 -2t-63 -2q12 31 22 109q54 -4 137 -4q31 196 35 227zM301 -78q113 0 113 -61q0 -34 -26.5 -70.5t-147.5 -171.5q-13 -15 -20 -23t-19 -21.5t-23 -25.5h-84l74 281q24 92 133 92z" />
    <glyph glyph-name="Tcaron" unicode="&#x164;" 
d="M225 1395q282 -11 506 -11q365 0 541 11q-26 -61 -35 -164q-150 16 -334 16q-68 -227 -166 -674.5t-110 -582.5q-78 10 -174 10q-58 0 -162 -10q108 404 161 644.5t121 612.5q-176 0 -385 -12q25 59 37 160zM696 1481l-182 354h100l191 -197l276 197h111l-326 -354h-170z
" />
    <glyph glyph-name="tcaron" unicode="&#x165;" horiz-adv-x="681" 
d="M311 1198q139 43 307 131l17 -18q-9 -34 -21.5 -77t-18 -63t-14 -51.5t-15.5 -65.5t-17 -83q140 0 182 4q-18 -45 -22 -109q-45 4 -181 4l-114 -524q-29 -130 -29 -186q0 -55 28.5 -79t84.5 -24q39 0 63 9l-18 -74q-114 -29 -170 -29q-111 0 -182.5 63t-71.5 162
q0 70 20 154l117 528q-26 0 -76 -2t-63 -2q12 31 22 109q54 -4 137 -4q31 196 35 227zM936 1530q44 0 75 -18t31 -46q0 -33 -22 -61l-193 -266h-104l82 303q12 42 46.5 65t84.5 23z" />
    <glyph glyph-name="Tbar" unicode="&#x166;" 
d="M225 1395q282 -11 506 -11q365 0 541 11q-26 -61 -35 -164q-150 16 -334 16q-23 -75 -82 -321q68 2 134 3.5t92 2t49.5 1.5t38.5 3q-19 -37 -29 -129q-37 3 -311 16q-156 -684 -168 -833q-78 10 -174 10q-58 0 -162 -10q122 455 201 833q-45 0 -291 -12q21 51 30 125
l285 -10l57 321q-176 0 -385 -12q25 59 37 160z" />
    <glyph glyph-name="tbar" unicode="&#x167;" horiz-adv-x="681" 
d="M311 1198q139 43 307 131l17 -18q-9 -34 -21.5 -77t-18 -63t-14 -51.5t-15.5 -65.5t-17 -83q140 0 182 4q-18 -45 -22 -109q-45 4 -181 4l-32 -145q146 0 188 4q-19 -46 -22 -108q-66 4 -189 4l-59 -279q-29 -130 -29 -186q0 -55 28.5 -79t84.5 -24q39 0 63 9l-18 -74
q-114 -29 -170 -29q-111 0 -182.5 63t-71.5 162q0 70 20 154l62 283q-45 0 -131 -4q9 26 22 108q54 -4 133 -4l31 145q-26 0 -76 -2t-63 -2q12 31 22 109q54 -4 137 -4q31 196 35 227z" />
    <glyph glyph-name="Utilde" unicode="&#x168;" horiz-adv-x="1593" 
d="M373 1395q94 -11 168 -11q40 0 172 11q-12 -44 -43.5 -155.5t-56.5 -210t-70 -288.5q-70 -305 -70 -405q0 -117 76 -178.5t223 -61.5q154 0 256.5 63t163.5 197q58 128 141 506q90 406 107 533q60 -11 94 -11q35 0 92 11q-61 -197 -127 -502q-96 -440 -145 -545
q-60 -131 -136.5 -212t-198 -125t-294.5 -44q-161 0 -283 43t-193 132t-71 214q0 117 45 293q95 399 124 570q16 91 26 176zM1380 1784h80q-23 -117 -84.5 -181.5t-148.5 -64.5q-53 0 -103 21q-12 3 -95 35t-118 32t-59 -20.5t-43 -67.5h-82q29 119 91 181.5t145 62.5
q14 0 27.5 -1t30 -5.5t26.5 -6.5t32 -10t30 -10.5t36 -13t35 -13.5q65 -24 98 -24q63 0 102 86z" />
    <glyph glyph-name="utilde" unicode="&#x169;" 
d="M219 975q78 -10 154 -10q40 0 157 10q-76 -256 -132 -477.5t-56 -276.5q0 -46 32.5 -76t86.5 -30q81 0 147.5 65t100.5 164q34 90 75 268.5t64 362.5q54 -10 135 -10q104 0 156 10q-66 -255 -107 -443.5t-102 -541.5q-78 10 -137 10q-91 0 -146 -10q28 66 47 166
q-145 -193 -370 -193q-119 0 -187.5 58.5t-68.5 154.5q0 46 10 98q0 9 31.5 146t67 306.5t42.5 248.5zM1038 1415h80q-23 -117 -84.5 -181.5t-148.5 -64.5q-53 0 -103 21q-12 3 -95 35t-118 32t-59 -20.5t-43 -67.5h-82q29 119 91 181.5t145 62.5q10 0 20 -1t19 -2t21 -3.5
t19.5 -4.5t21.5 -6.5t20.5 -6.5t22.5 -8t22.5 -8t25.5 -9.5t25 -9.5q67 -25 98 -25q63 0 102 86z" />
    <glyph glyph-name="Umacron" unicode="&#x16a;" horiz-adv-x="1593" 
d="M373 1395q94 -11 168 -11q40 0 172 11q-12 -44 -43.5 -155.5t-56.5 -210t-70 -288.5q-70 -305 -70 -405q0 -117 76 -178.5t223 -61.5q154 0 256.5 63t163.5 197q58 128 141 506q90 406 107 533q60 -11 94 -11q35 0 92 11q-61 -197 -127 -502q-96 -440 -145 -545
q-60 -131 -136.5 -212t-198 -125t-294.5 -44q-161 0 -283 43t-193 132t-71 214q0 117 45 293q95 399 124 570q16 91 26 176zM778 1704h666l-35 -141h-668z" />
    <glyph glyph-name="umacron" unicode="&#x16b;" 
d="M219 975q78 -10 154 -10q40 0 157 10q-76 -256 -132 -477.5t-56 -276.5q0 -46 32.5 -76t86.5 -30q81 0 147.5 65t100.5 164q34 90 75 268.5t64 362.5q54 -10 135 -10q104 0 156 10q-66 -255 -107 -443.5t-102 -541.5q-78 10 -137 10q-91 0 -146 -10q28 66 47 166
q-145 -193 -370 -193q-119 0 -187.5 58.5t-68.5 154.5q0 46 10 98q0 9 31.5 146t67 306.5t42.5 248.5zM436 1335h666l-35 -141h-668z" />
    <glyph glyph-name="Ubreve" unicode="&#x16c;" horiz-adv-x="1593" 
d="M373 1395q94 -11 168 -11q40 0 172 11q-12 -44 -43.5 -155.5t-56.5 -210t-70 -288.5q-70 -305 -70 -405q0 -117 76 -178.5t223 -61.5q154 0 256.5 63t163.5 197q58 128 141 506q90 406 107 533q60 -11 94 -11q35 0 92 11q-61 -197 -127 -502q-96 -440 -145 -545
q-60 -131 -136.5 -212t-198 -125t-294.5 -44q-161 0 -283 43t-193 132t-71 214q0 117 45 293q95 399 124 570q16 91 26 176zM805 1745q0 15 4 65h84q3 -83 51 -131q56 -53 166 -53q95 0 162.5 46.5t97.5 137.5h82q-30 -158 -122 -245.5t-238 -87.5q-134 0 -210.5 68
t-76.5 200z" />
    <glyph glyph-name="ubreve" unicode="&#x16d;" 
d="M219 975q78 -10 154 -10q40 0 157 10q-76 -256 -132 -477.5t-56 -276.5q0 -46 32.5 -76t86.5 -30q81 0 147.5 65t100.5 164q34 90 75 268.5t64 362.5q54 -10 135 -10q104 0 156 10q-66 -255 -107 -443.5t-102 -541.5q-78 10 -137 10q-91 0 -146 -10q28 66 47 166
q-145 -193 -370 -193q-119 0 -187.5 58.5t-68.5 154.5q0 46 10 98q0 9 31.5 146t67 306.5t42.5 248.5zM426 1376q0 16 4 66h84q2 -82 51 -131q57 -54 166 -54q95 0 162.5 47t97.5 138h82q-30 -158 -122.5 -246t-237.5 -88q-134 0 -210.5 68t-76.5 200z" />
    <glyph glyph-name="Uring" unicode="&#x16e;" horiz-adv-x="1593" 
d="M373 1395q94 -11 168 -11q40 0 172 11q-12 -44 -43.5 -155.5t-56.5 -210t-70 -288.5q-70 -305 -70 -405q0 -117 76 -178.5t223 -61.5q154 0 256.5 63t163.5 197q58 128 141 506q90 406 107 533q60 -11 94 -11q35 0 92 11q-61 -197 -127 -502q-96 -440 -145 -545
q-60 -131 -136.5 -212t-198 -125t-294.5 -44q-161 0 -283 43t-193 132t-71 214q0 117 45 293q95 399 124 570q16 91 26 176zM1075 1907q97 0 164.5 -68.5t67.5 -161.5q0 -94 -68 -161.5t-164 -67.5q-97 0 -163 67t-66 162q0 94 67.5 162t161.5 68zM944 1677q0 -55 38.5 -93
t92.5 -38q56 0 94.5 38t38.5 93t-38 93t-95 38q-54 0 -92.5 -38t-38.5 -93z" />
    <glyph glyph-name="uring" unicode="&#x16f;" 
d="M219 975q78 -10 154 -10q40 0 157 10q-76 -256 -132 -477.5t-56 -276.5q0 -46 32.5 -76t86.5 -30q81 0 147.5 65t100.5 164q34 90 75 268.5t64 362.5q54 -10 135 -10q104 0 156 10q-66 -255 -107 -443.5t-102 -541.5q-78 10 -137 10q-91 0 -146 -10q28 66 47 166
q-145 -193 -370 -193q-119 0 -187.5 58.5t-68.5 154.5q0 46 10 98q0 9 31.5 146t67 306.5t42.5 248.5zM733 1559q97 0 164.5 -68.5t67.5 -161.5q0 -94 -68 -161.5t-164 -67.5q-97 0 -163 67t-66 162q0 94 67.5 162t161.5 68zM602 1329q0 -55 38.5 -93t92.5 -38q56 0 94.5 38
t38.5 93t-38 93t-95 38q-54 0 -92.5 -38t-38.5 -93z" />
    <glyph glyph-name="Uhungarumlaut" unicode="&#x170;" horiz-adv-x="1593" 
d="M373 1395q94 -11 168 -11q40 0 172 11q-12 -44 -43.5 -155.5t-56.5 -210t-70 -288.5q-70 -305 -70 -405q0 -117 76 -178.5t223 -61.5q154 0 256.5 63t163.5 197q58 128 141 506q90 406 107 533q60 -11 94 -11q35 0 92 11q-61 -197 -127 -502q-96 -440 -145 -545
q-60 -131 -136.5 -212t-198 -125t-294.5 -44q-161 0 -283 43t-193 132t-71 214q0 117 45 293q95 399 124 570q16 91 26 176zM1159 1849q40 0 70.5 -27t30.5 -67q0 -51 -60 -86l-332 -188h-98l240 260q65 70 90 89t59 19zM1559 1849q40 0 70 -27t30 -67q0 -51 -60 -86
l-331 -188h-99l240 260q65 70 90.5 89t59.5 19z" />
    <glyph glyph-name="uhungarumlaut" unicode="&#x171;" 
d="M219 975q78 -10 154 -10q40 0 157 10q-76 -256 -132 -477.5t-56 -276.5q0 -46 32.5 -76t86.5 -30q81 0 147.5 65t100.5 164q34 90 75 268.5t64 362.5q54 -10 135 -10q104 0 156 10q-66 -255 -107 -443.5t-102 -541.5q-78 10 -137 10q-91 0 -146 -10q28 66 47 166
q-145 -193 -370 -193q-119 0 -187.5 58.5t-68.5 154.5q0 46 10 98q0 9 31.5 146t67 306.5t42.5 248.5zM799 1481q39 0 69.5 -27.5t30.5 -67.5q0 -51 -59 -86l-332 -188h-98l239 260q66 70 91 89.5t59 19.5zM1198 1481q39 0 69.5 -27.5t30.5 -67.5q0 -51 -59 -86l-332 -188
h-98l240 260q66 71 91 90t58 19z" />
    <glyph glyph-name="Uogonek" unicode="&#x172;" horiz-adv-x="1593" 
d="M373 1395q94 -11 168 -11q40 0 172 11q-12 -44 -43.5 -155.5t-56.5 -210t-70 -288.5q-70 -305 -70 -405q0 -117 76 -178.5t223 -61.5q154 0 256.5 63t163.5 197q58 128 141 506q90 406 107 533q60 -11 94 -11q35 0 92 11q-61 -197 -127 -502q-96 -440 -145 -545
q-82 -181 -208 -274t-337 -105q-164 -110 -164 -205q0 -36 24.5 -59.5t67.5 -23.5q37 0 64.5 11t64.5 36l31 -58q-150 -121 -291 -121q-70 0 -109.5 37.5t-39.5 96.5q0 71 57.5 139t181.5 147q-234 5 -376 104.5t-142 282.5q0 117 45 293q95 399 124 570q16 91 26 176z" />
    <glyph glyph-name="uogonek" unicode="&#x173;" 
d="M219 975q78 -10 154 -10q40 0 157 10q-76 -256 -132 -477.5t-56 -276.5q0 -46 32.5 -76t86.5 -30q81 0 147.5 65t100.5 164q34 90 75 268.5t64 362.5q54 -10 135 -10q104 0 156 10q-66 -255 -107 -443.5t-102 -541.5q-65 10 -101 10q-107 -69 -157.5 -125t-50.5 -111
q0 -36 24.5 -59.5t67.5 -23.5q37 0 64.5 11t64.5 36l30 -58q-150 -121 -290 -121q-70 0 -110 37.5t-40 96.5q0 78 69 152.5t222 162.5q-64 -4 -76 -8q28 66 47 166q-145 -193 -370 -193q-119 0 -187.5 58.5t-68.5 154.5q0 46 10 98q0 9 31.5 146t67 306.5t42.5 248.5z" />
    <glyph glyph-name="Wcircumflex" unicode="&#x174;" horiz-adv-x="1933" 
d="M207 1395q121 -11 162 -11q49 0 170 11q7 -219 32.5 -508.5t55.5 -497.5q70 126 247.5 489t239.5 517q65 -11 105 -11q24 0 102 11q7 -185 42.5 -484.5t74.5 -523.5q95 186 223.5 476.5t226.5 531.5q54 -11 99 -11q38 0 94 11q-81 -137 -545 -1088q-7 -16 -64 -134
t-86 -183q-51 10 -100 10q-63 0 -102 -10q-12 188 -47.5 463.5t-73.5 488.5q-86 -148 -244 -465.5t-233 -486.5q-52 10 -94 10q-41 0 -113 -10q-27 274 -82.5 730t-89.5 675zM1186 1833h170l174 -352h-100l-185 196l-266 -196h-117z" />
    <glyph glyph-name="wcircumflex" unicode="&#x175;" horiz-adv-x="1554" 
d="M141 975q90 -10 135 -10q63 0 142 10q8 -305 53 -688q125 212 360 688q52 -10 103 -10q50 0 108 10q8 -345 39 -701q69 106 208 364t167 337q59 -10 90 -10q29 0 88 10q-135 -205 -241 -382t-161 -279t-171 -324q-59 10 -98 10q-41 0 -119 -10l-23 336q-3 48 -26 311
q-92 -155 -137.5 -237t-100.5 -190t-115 -220q-39 10 -94 10q-47 0 -123 -10q-13 416 -84 985zM901 1464h170l174 -352h-100l-184 197l-267 -197h-116z" />
    <glyph glyph-name="Ycircumflex" unicode="&#x176;" horiz-adv-x="1251" 
d="M227 1395q99 -11 162 -11t178 11q99 -412 181 -666q96 130 234 333.5t216 332.5q56 -11 105 -11q55 0 116 11q-153 -185 -272 -342q-107 -141 -332 -457q-2 -15 -24 -115.5t-48 -236.5t-43 -254q-92 10 -163 10q-63 0 -158 -10q86 315 129 583q-125 406 -281 822z
M858 1833h170l174 -352h-100l-184 196l-267 -196h-116z" />
    <glyph glyph-name="ycircumflex" unicode="&#x177;" horiz-adv-x="1024" 
d="M154 975q79 -10 137 -10q55 0 147 10l25 -195q31 -250 67 -475q33 51 171.5 295.5t203.5 374.5q52 -10 80 -10q41 0 82 10l2 -12q-37 -54 -403 -641q-369 -592 -510 -857q-70 11 -101 11q-32 0 -96 -11q78 102 188 261t179 270l-86 512q-27 167 -86 467zM643 1464h170
l174 -352h-100l-185 197l-266 -197h-117z" />
    <glyph glyph-name="Ydieresis" unicode="&#x178;" horiz-adv-x="1251" 
d="M227 1395q99 -11 162 -11t178 11q99 -412 181 -666q96 130 234 333.5t216 332.5q56 -11 105 -11q55 0 116 11q-153 -185 -272 -342q-107 -141 -332 -457q-2 -15 -24 -115.5t-48 -236.5t-43 -254q-92 10 -163 10q-63 0 -158 -10q86 315 129 583q-125 406 -281 822z
M637 1774q56 0 94.5 -39.5t38.5 -94.5q0 -56 -39 -94.5t-94 -38.5t-94 38.5t-39 94.5t39 95t94 39zM1065 1774q54 0 93.5 -39.5t39.5 -94.5q0 -56 -39 -94.5t-94 -38.5q-54 0 -93.5 39t-39.5 94q0 56 39 95t94 39z" />
    <glyph glyph-name="Zacute" unicode="&#x179;" horiz-adv-x="1251" 
d="M326 1356q0 5 -1 19.5t-1 19.5q228 -11 565 -11q289 0 504 11l-11 -45q-56 -56 -459.5 -562.5t-512.5 -656.5h217q336 0 491 31q-23 -49 -31 -85.5t-8 -86.5q-205 10 -477 10q-510 0 -663 -10l8 39q59 68 464 568.5t523 655.5h-31q-305 0 -610 -24q33 77 33 127z
M1069 1849q39 0 68.5 -27t29.5 -67q0 -54 -55 -84l-336 -190h-98l256 276q50 56 77 74t58 18z" />
    <glyph glyph-name="zacute" unicode="&#x17a;" horiz-adv-x="1024" 
d="M209 975q263 -10 444 -10q182 0 400 10v-86q-89 -89 -331.5 -360.5t-369.5 -424.5q301 0 520 17q-24 -74 -24 -131q-250 10 -440 10q-215 0 -447 -10v65q157 171 409 459.5t292 345.5q-197 0 -465 -22q12 62 12 137zM895 1481q39 0 68.5 -27.5t29.5 -67.5q0 -28 -13 -46
t-42 -37l-336 -191h-98l254 274q55 60 80.5 77.5t56.5 17.5z" />
    <glyph glyph-name="Zdotaccent" unicode="&#x17b;" horiz-adv-x="1251" 
d="M326 1356q0 5 -1 19.5t-1 19.5q228 -11 565 -11q289 0 504 11l-11 -45q-56 -56 -459.5 -562.5t-512.5 -656.5h217q336 0 491 31q-23 -49 -31 -85.5t-8 -86.5q-205 10 -477 10q-510 0 -663 -10l8 39q59 68 464 568.5t523 655.5h-31q-305 0 -610 -24q33 77 33 127z
M887 1784q60 0 101.5 -42t41.5 -102t-41.5 -102.5t-101.5 -42.5q-61 0 -103.5 42.5t-42.5 102.5t43 102t103 42z" />
    <glyph glyph-name="zdotaccent" unicode="&#x17c;" horiz-adv-x="1024" 
d="M209 975q263 -10 444 -10q182 0 400 10v-86q-89 -89 -331.5 -360.5t-369.5 -424.5q301 0 520 17q-24 -74 -24 -131q-250 10 -440 10q-215 0 -447 -10v65q157 171 409 459.5t292 345.5q-197 0 -465 -22q12 62 12 137zM676 1415q58 0 100.5 -42t42.5 -101q0 -60 -41.5 -103
t-101.5 -43q-61 0 -103.5 43t-42.5 103t43 101.5t103 41.5z" />
    <glyph glyph-name="Zcaron" unicode="&#x17d;" horiz-adv-x="1251" 
d="M326 1356q0 5 -1 19.5t-1 19.5q228 -11 565 -11q289 0 504 11l-11 -45q-56 -56 -459.5 -562.5t-512.5 -656.5h217q336 0 491 31q-23 -49 -31 -85.5t-8 -86.5q-205 10 -477 10q-510 0 -663 -10l8 39q59 68 464 568.5t523 655.5h-31q-305 0 -610 -24q33 77 33 127z
M750 1481l-183 354h101l190 -197l277 197h110l-325 -354h-170z" />
    <glyph glyph-name="zcaron" unicode="&#x17e;" horiz-adv-x="1024" 
d="M209 975q263 -10 444 -10q182 0 400 10v-86q-89 -89 -331.5 -360.5t-369.5 -424.5q301 0 520 17q-24 -74 -24 -131q-250 10 -440 10q-215 0 -447 -10v65q157 171 409 459.5t292 345.5q-197 0 -465 -22q12 62 12 137zM563 1112l-182 354h100l191 -196l276 196h111
l-326 -354h-170z" />
    <glyph glyph-name="florin" unicode="&#x192;" 
d="M1042 1362q50 0 109 -6q-29 -101 -45 -207l-25 -10q-95 82 -157 82q-56 0 -80 -37.5t-43 -128.5q-5 -23 -13 -73t-17 -95.5t-19 -85.5q145 0 225 6q-17 -59 -23 -111q-156 6 -225 6l-70 -309q-29 -131 -94 -338q-74 -236 -217 -365.5t-334 -129.5q-32 0 -67 6
q23 72 43 209l24 8q84 -78 148 -78q60 0 88 57q9 18 18 46.5t19.5 73t18.5 82.5t22 105t24 111l113 522q-92 0 -217 -8q18 56 26 113q82 -6 215 -6q13 59 37 127q71 213 210 323.5t306 110.5z" />
    <glyph glyph-name="Aringacute" unicode="&#x1fa;" horiz-adv-x="1366" 
d="M1071 1884q31 0 51.5 -23.5t20.5 -60.5q0 -53 -88 -67l-262 -43l-41 28l239 142q43 24 80 24zM846 1618q94 0 161.5 -63.5t67.5 -151.5q0 -115 -104 -180q58 -291 142 -649t149 -584q-105 10 -175 10q-108 0 -163 -10q-36 281 -43 317l-21 111q-6 0 -100.5 2t-100.5 2
q-220 0 -284 -4q-108 -183 -228 -428q-49 10 -88 10q-47 0 -102 -10q112 176 228.5 372t283.5 485.5t227 391.5q-80 65 -80 164q0 88 68 151.5t162 63.5zM715 1403q0 -51 38 -87t93 -36t93 36t38 87t-38 87t-93 36q-54 0 -92.5 -36t-38.5 -87zM731 1020q-169 -267 -289 -479
q4 0 40.5 -1t85 -2t81.5 -1q118 0 187 4q-42 238 -105 479z" />
    <glyph glyph-name="aringacute" unicode="&#x1fb;" horiz-adv-x="1024" 
d="M627 995q151 0 234 -64t83 -186q0 -81 -22 -167l-60 -275q-24 -114 -24 -160q0 -82 55 -82q17 0 33 13l16 -47q-78 -56 -166 -56q-152 0 -190 152q-49 -86 -114.5 -123t-164.5 -37q-122 0 -195 74t-73 194q0 153 117 246q48 39 114 55.5t220 37.5q24 3 36 5q47 7 68.5 12
t40.5 19t24 36.5t5 62.5q0 76 -48.5 116.5t-132.5 40.5q-111 0 -215 -78h-10q5 28 10 117q172 94 359 94zM322 240q0 -64 27.5 -101t80.5 -37q125 0 166 201l41 209q-158 -22 -213 -53q-52 -27 -77 -88t-25 -131zM664 1538q94 0 162.5 -67.5t68.5 -161.5q0 -95 -67 -162.5
t-164 -67.5t-163.5 67.5t-66.5 162.5q0 94 68 161.5t162 67.5zM532 1309q0 -55 38 -93t94 -38t94.5 38t38.5 93q0 54 -38 92.5t-93 38.5q-57 0 -95.5 -38.5t-38.5 -92.5zM866 1817q30 0 51 -23t21 -59q0 -42 -45.5 -58t-198.5 -39q-67 -10 -106 -16l-41 29l235 139
q46 27 84 27z" />
    <glyph glyph-name="AEacute" unicode="&#x1fc;" horiz-adv-x="1820" 
d="M1024 1395q180 -11 412 -11q178 0 479 11q-37 -70 -37 -127l2 -31q-156 18 -446 18q-32 -110 -107 -450q341 0 451 10q-33 -67 -33 -131v-29q-201 19 -449 19q-58 -267 -96 -545h80.5h72h56.5t55 1t45 2t49.5 2.5t44.5 3.5t54 5q-35 -77 -35 -129l2 -24q-260 10 -430 10
q-239 0 -354 -10q50 143 125 491q-235 3 -471 0q-148 -178 -365 -491q-41 10 -109 10q-40 0 -92 -10v12q182 207 430 516t455 588q154 205 211 289zM1120 1262h-16q-201 -235 -518 -658q47 -2 141 -2q174 0 264 2q22 94 67.5 322t61.5 336zM1604 1849q39 0 68.5 -27
t29.5 -67q0 -54 -55 -84l-336 -190h-99l256 276q50 56 77.5 74t58.5 18z" />
    <glyph glyph-name="aeacute" unicode="&#x1fd;" horiz-adv-x="1593" 
d="M629 995q72 0 138 -29t95 -73q114 102 295 102q196 0 301 -96.5t105 -269.5q0 -54 -17 -158q-355 8 -366 8l-279 -2q-8 -57 -8 -110q0 -136 67 -208.5t195 -72.5q69 0 140 29t132 84l31 -15q-22 -51 -47 -139q-115 -82 -307 -82q-322 0 -424 236q-60 -123 -148 -179.5
t-223 -56.5q-121 0 -194.5 74.5t-73.5 193.5q0 94 45 164q32 50 66.5 79.5t101 52.5t174.5 36l145 19q53 5 81 29.5t28 90.5q0 80 -53 122t-142 42q-107 0 -217 -82h-10q3 46 5 63t5 54q169 94 359 94zM915 571q7 0 69 -2t95 -2q146 0 211 4q21 86 21 168q0 90 -41 128
t-129 38q-165 0 -226 -334zM324 240q0 -138 116 -138q137 0 187 260l28 150q-11 0 -48 -4.5t-92.5 -18t-86.5 -30.5q-57 -30 -80.5 -91t-23.5 -128zM1106 1481q39 0 68.5 -27.5t29.5 -67.5q0 -28 -13 -46t-42 -37l-336 -191h-98l254 274q55 60 80.5 77.5t56.5 17.5z" />
    <glyph glyph-name="Oslashacute" unicode="&#x1fe;" horiz-adv-x="1705" 
d="M1622 1458q33 -45 74 -72q-140 -129 -174 -163q161 -169 161 -426q0 -169 -65.5 -321.5t-179 -264.5t-276 -178t-347.5 -66q-269 0 -463 137q-107 -100 -172 -167q-30 45 -69 71q81 69 170 158q-162 173 -162 426q0 170 65 323.5t177.5 264.5t270.5 176t337 65
q279 0 477 -135q26 22 88 81.5t88 90.5zM424 494q0 -76 25 -168l858 829q-109 152 -312 152q-162 0 -295 -109q-123 -103 -199.5 -304t-76.5 -400zM1352 1067l-863 -831q55 -83 130.5 -118.5t179.5 -35.5q102 0 195.5 51.5t162 136.5t119.5 192t76.5 221t25.5 220
q0 82 -26 164zM1231 1849q39 0 68.5 -27t29.5 -67q0 -54 -55 -84l-336 -190h-98l256 276q50 56 77 74t58 18z" />
    <glyph glyph-name="oslashacute" unicode="&#x1ff;" 
d="M1006 1092q44 -44 71 -60q-75 -82 -119 -141q70 -64 101 -147t31 -195q0 -157 -84 -293t-223 -214.5t-296 -78.5q-134 0 -233 57q-95 -115 -125 -159q-40 40 -72 59q90 102 125 152q-133 124 -133 327q0 159 77 296t213.5 218.5t299.5 81.5q144 0 248 -55q49 58 119 152z
M332 246l452 571q-39 96 -137 96q-68 0 -124 -48t-91 -120t-59 -161t-33.5 -166t-9.5 -139q0 -23 2 -33zM807 715l-453 -574q39 -96 144 -96q72 0 133 60.5t98.5 156t58.5 206t21 216.5q0 25 -2 31zM922 1481q39 0 68.5 -27.5t29.5 -67.5q0 -28 -13 -46t-42 -37l-336 -191
h-99l254 274q55 60 81 77.5t57 17.5z" />
    <glyph glyph-name="Scommaaccent" unicode="&#x218;" horiz-adv-x="1062" 
d="M680 1419q216 0 385 -108q-53 -95 -88 -244h-45q-12 109 -76.5 168t-169.5 59q-95 0 -153 -54t-58 -132q0 -65 41 -123t141 -139q166 -137 229.5 -226t63.5 -210q0 -202 -141 -322.5t-356 -120.5q-126 0 -225.5 30t-200.5 95q62 122 88 250h43q10 -120 87 -189t195 -69
q100 0 168 56.5t68 146.5q0 67 -52 134.5t-182 172.5q-130 101 -183.5 191.5t-53.5 201.5q0 199 131 315.5t344 116.5zM459 -78q112 0 112 -61q0 -35 -27.5 -72t-154.5 -180q-11 -12 -17 -19.5t-16.5 -19t-19.5 -21.5h-84l74 281q24 92 133 92z" />
    <glyph glyph-name="scommaaccent" unicode="&#x219;" horiz-adv-x="796" 
d="M502 995q137 0 276 -63q-35 -70 -59 -207h-43q-37 174 -205 174q-74 0 -121 -36.5t-47 -92.5q0 -18 4 -33t19 -31t26 -26t43 -28t51 -28.5t68 -35.5q117 -61 162 -129t45 -148q0 -162 -122.5 -255t-309.5 -93q-153 0 -273 70q42 93 58 205h39q13 -83 76.5 -132t146.5 -49
q72 0 121 38.5t49 94.5q0 47 -34.5 82t-121.5 80q-113 58 -155 97q-86 82 -86 202q0 61 23.5 120t69 110t123.5 82.5t177 31.5zM352 -78q113 0 113 -61q0 -34 -26.5 -70.5t-147.5 -171.5q-39 -44 -62 -70h-84l74 281q24 92 133 92z" />
    <glyph glyph-name="uni021A" unicode="&#x21a;" 
d="M225 1395q282 -11 506 -11q365 0 541 11q-26 -61 -35 -164q-150 16 -334 16q-68 -227 -166 -674.5t-110 -582.5q-78 10 -174 10q-58 0 -162 -10q108 404 161 644.5t121 612.5q-176 0 -385 -12q25 59 37 160zM440 -78q113 0 113 -61q0 -34 -26.5 -70.5t-147.5 -171.5
q-39 -44 -62 -70h-84l74 281q24 92 133 92z" />
    <glyph glyph-name="uni021B" unicode="&#x21b;" horiz-adv-x="681" 
d="M311 1198q139 43 307 131l17 -18q-9 -34 -21.5 -77t-18 -63t-14 -51.5t-15.5 -65.5t-17 -83q140 0 182 4q-18 -45 -22 -109q-45 4 -181 4l-114 -524q-29 -130 -29 -186q0 -55 28.5 -79t84.5 -24q39 0 63 9l-18 -74q-114 -29 -170 -29q-111 0 -182.5 63t-71.5 162
q0 70 20 154l117 528q-26 0 -76 -2t-63 -2q12 31 22 109q54 -4 137 -4q31 196 35 227zM301 -78q113 0 113 -61q0 -34 -26.5 -70.5t-147.5 -171.5q-13 -15 -20 -23t-19 -21.5t-23 -25.5h-84l74 281q24 92 133 92z" />
    <glyph glyph-name="dotlessj" unicode="&#x237;" horiz-adv-x="530" 
d="M74 119q131 618 170 856q83 -10 143 -10q62 0 152 10q-44 -153 -105.5 -426t-93.5 -440l-51 -261q-38 -191 -139.5 -278t-260.5 -100q-65 -9 -116 -9l-15 72q72 11 115 34.5t68 70.5q51 91 133 481z" />
    <glyph glyph-name="circumflex" unicode="&#x2c6;" horiz-adv-x="569" 
d="M406 1464h169l175 -352h-101l-184 197l-266 -197h-117z" />
    <glyph glyph-name="caron" unicode="&#x2c7;" horiz-adv-x="569" 
d="M336 1112l-182 354h100l190 -196l277 196h110l-325 -354h-170z" />
    <glyph glyph-name="uni02C9" unicode="&#x2c9;" horiz-adv-x="569" 
d="M139 1335h666l-35 -141h-668z" />
    <glyph glyph-name="breve" unicode="&#x2d8;" horiz-adv-x="569" 
d="M166 1376q0 16 4 66h84q2 -82 51 -131q57 -54 166 -54q95 0 162.5 47t97.5 138h82q-30 -158 -122.5 -246t-237.5 -88q-134 0 -210.5 68t-76.5 200z" />
    <glyph glyph-name="dotaccent" unicode="&#x2d9;" horiz-adv-x="569" 
d="M459 1415q58 0 100.5 -42t42.5 -101q0 -60 -41.5 -103t-101.5 -43q-61 0 -103.5 43t-42.5 103t43 101.5t103 41.5z" />
    <glyph glyph-name="ring" unicode="&#x2da;" horiz-adv-x="569" 
d="M436 1559q97 0 164.5 -68.5t67.5 -161.5q0 -94 -68 -161.5t-164 -67.5q-97 0 -163 67t-66 162q0 94 67.5 162t161.5 68zM305 1329q0 -55 38.5 -93t92.5 -38q56 0 94.5 38t38.5 93t-38.5 93t-94.5 38q-54 0 -92.5 -38t-38.5 -93z" />
    <glyph glyph-name="ogonek" unicode="&#x2db;" horiz-adv-x="681" 
d="M281 0h104q-108 -69 -158.5 -125t-50.5 -111q0 -36 24.5 -59.5t67.5 -23.5q37 0 64.5 11t64.5 36l31 -58q-150 -121 -291 -121q-70 0 -109.5 37.5t-39.5 96.5q0 78 70 153.5t223 163.5z" />
    <glyph glyph-name="tilde" unicode="&#x2dc;" horiz-adv-x="569" 
d="M741 1415h80q-23 -117 -84.5 -181.5t-148.5 -64.5q-54 0 -103 21q-12 3 -95 35t-118 32t-59 -20.5t-43 -67.5h-82q29 119 91 181.5t145 62.5q10 0 20 -1t19 -2t21 -3.5t19.5 -4.5t21.5 -6.5t20.5 -6.5t22.5 -8t22.5 -8t25.5 -9.5t25 -9.5q67 -25 98 -25q63 0 102 86z" />
    <glyph glyph-name="hungarumlaut" unicode="&#x2dd;" horiz-adv-x="569" 
d="M475 1481q39 0 69.5 -27.5t30.5 -67.5q0 -51 -59 -86l-332 -188h-98l240 260q66 71 91 90t58 19zM874 1481q40 0 70.5 -27.5t30.5 -67.5q0 -51 -60 -86l-331 -188h-99l240 260q66 71 91 90t58 19z" />
    <glyph glyph-name="uni0394" unicode="&#x394;" horiz-adv-x="1349" 
d="M688 1393h275l217 -1219v-174h-1284l26 125zM784 1225h-8q-58 -118 -284 -490q-257 -419 -351 -563h828l-129 707q-45 244 -56 346z" />
    <glyph glyph-name="uni03A9" unicode="&#x3a9;" horiz-adv-x="1548" 
d="M934 1425q247 0 397 -141t150 -356q0 -438 -416 -738l-2 -6h305l-41 -184h-586l31 143q204 125 326.5 317t122.5 390q0 170 -89.5 277.5t-242.5 107.5q-147 0 -277 -94t-205 -243t-75 -310q0 -146 56 -266.5t144 -178.5l-30 -143h-588l41 184h299v6q-82 69 -127 176
t-45 232q0 135 47 262.5t130 228.5t190 177.5t232.5 117.5t252.5 41z" />
    <glyph glyph-name="uni03BC" unicode="&#x3bc;" 
d="M221 975q72 -10 150 -10q69 0 151 10q-182 -665 -182 -754q0 -46 32.5 -76t86.5 -30q56 0 111 36.5t98 106.5q41 66 96 289.5t80 427.5q54 -10 137 -10q104 0 156 10q-117 -445 -203 -985q-63 10 -141 10q-82 0 -140 -10q31 121 39 166q-154 -193 -338 -193q-42 0 -63 8
q-58 -241 -96 -506q-76 11 -138 11q-68 0 -143 -11q69 279 174.5 802.5t132.5 707.5z" />
    <glyph glyph-name="pi" unicode="&#x3c0;" horiz-adv-x="1253" 
d="M190 981h1078l-33 -166h-152l-67 -319q-58 -259 -58 -289q0 -57 56 -57q35 0 90 22l-31 -143q-110 -45 -178 -45q-81 0 -121.5 39t-40.5 112q0 50 8 74l129 606h-368l-172 -815h-215l174 815h-135z" />
    <glyph glyph-name="Wgrave" unicode="&#x1e80;" horiz-adv-x="1933" 
d="M207 1395q121 -11 162 -11q49 0 170 11q7 -219 32.5 -508.5t55.5 -497.5q70 126 247.5 489t239.5 517q65 -11 105 -11q24 0 102 11q7 -185 42.5 -484.5t74.5 -523.5q95 186 223.5 476.5t226.5 531.5q54 -11 99 -11q38 0 94 11q-81 -137 -545 -1088q-7 -16 -64 -134
t-86 -183q-51 10 -100 10q-63 0 -102 -10q-12 188 -47.5 463.5t-73.5 488.5q-86 -148 -244 -465.5t-233 -486.5q-52 10 -94 10q-41 0 -113 -10q-27 274 -82.5 730t-89.5 675zM1057 1849q57 0 104 -59q14 -17 42.5 -55t84.5 -113.5t103 -138.5h-93l-292 198q-45 29 -45 80
q0 35 25.5 61.5t70.5 26.5z" />
    <glyph glyph-name="wgrave" unicode="&#x1e81;" horiz-adv-x="1554" 
d="M141 975q90 -10 135 -10q63 0 142 10q8 -305 53 -688q125 212 360 688q52 -10 103 -10q50 0 108 10q8 -345 39 -701q69 106 208 364t167 337q59 -10 90 -10q29 0 88 10q-135 -205 -241 -382t-161 -279t-171 -324q-59 10 -98 10q-41 0 -119 -10l-23 336q-3 48 -26 311
q-92 -155 -137.5 -237t-100.5 -190t-115 -220q-39 10 -94 10q-47 0 -123 -10q-13 416 -84 985zM764 1481q59 0 108 -64l226 -303h-92l-287 195q-51 34 -51 84q0 37 26.5 62.5t69.5 25.5z" />
    <glyph glyph-name="Wacute" unicode="&#x1e82;" horiz-adv-x="1933" 
d="M207 1395q121 -11 162 -11q49 0 170 11q7 -219 32.5 -508.5t55.5 -497.5q70 126 247.5 489t239.5 517q65 -11 105 -11q24 0 102 11q7 -185 42.5 -484.5t74.5 -523.5q95 186 223.5 476.5t226.5 531.5q54 -11 99 -11q38 0 94 11q-81 -137 -545 -1088q-7 -16 -64 -134
t-86 -183q-51 10 -100 10q-63 0 -102 -10q-12 188 -47.5 463.5t-73.5 488.5q-86 -148 -244 -465.5t-233 -486.5q-52 10 -94 10q-41 0 -113 -10q-27 274 -82.5 730t-89.5 675zM1460 1849q39 0 69 -27t30 -67q0 -54 -56 -84l-336 -190h-98l256 276q50 56 77 74t58 18z" />
    <glyph glyph-name="wacute" unicode="&#x1e83;" horiz-adv-x="1554" 
d="M141 975q90 -10 135 -10q63 0 142 10q8 -305 53 -688q125 212 360 688q52 -10 103 -10q50 0 108 10q8 -345 39 -701q69 106 208 364t167 337q59 -10 90 -10q29 0 88 10q-135 -205 -241 -382t-161 -279t-171 -324q-59 10 -98 10q-41 0 -119 -10l-23 336q-3 48 -26 311
q-92 -155 -137.5 -237t-100.5 -190t-115 -220q-39 10 -94 10q-47 0 -123 -10q-13 416 -84 985zM1174 1481q39 0 68.5 -27.5t29.5 -67.5q0 -28 -13 -46t-42 -37l-336 -191h-99l254 274q55 60 81 77.5t57 17.5z" />
    <glyph glyph-name="Wdieresis" unicode="&#x1e84;" horiz-adv-x="1933" 
d="M207 1395q121 -11 162 -11q49 0 170 11q7 -219 32.5 -508.5t55.5 -497.5q70 126 247.5 489t239.5 517q65 -11 105 -11q24 0 102 11q7 -185 42.5 -484.5t74.5 -523.5q95 186 223.5 476.5t226.5 531.5q54 -11 99 -11q38 0 94 11q-81 -137 -545 -1088q-7 -16 -64 -134
t-86 -183q-51 10 -100 10q-63 0 -102 -10q-12 188 -47.5 463.5t-73.5 488.5q-86 -148 -244 -465.5t-233 -486.5q-52 10 -94 10q-41 0 -113 -10q-27 274 -82.5 730t-89.5 675zM1036 1774q56 0 94.5 -39.5t38.5 -94.5q0 -56 -38.5 -94.5t-94.5 -38.5t-94.5 38.5t-38.5 94.5
t39 95t94 39zM1464 1774q54 0 93.5 -39.5t39.5 -94.5q0 -56 -38.5 -94.5t-94.5 -38.5q-54 0 -93.5 39t-39.5 94q0 56 39 95t94 39z" />
    <glyph glyph-name="wdieresis" unicode="&#x1e85;" horiz-adv-x="1554" 
d="M141 975q90 -10 135 -10q63 0 142 10q8 -305 53 -688q125 212 360 688q52 -10 103 -10q50 0 108 10q8 -345 39 -701q69 106 208 364t167 337q59 -10 90 -10q29 0 88 10q-135 -205 -241 -382t-161 -279t-171 -324q-59 10 -98 10q-41 0 -119 -10l-23 336q-3 48 -26 311
q-92 -155 -137.5 -237t-100.5 -190t-115 -220q-39 10 -94 10q-47 0 -123 -10q-13 416 -84 985zM756 1405q56 0 94.5 -38.5t38.5 -94.5q0 -55 -38.5 -94t-94.5 -39t-94.5 38.5t-38.5 94.5t38.5 94.5t94.5 38.5zM1184 1405q54 0 93.5 -39.5t39.5 -93.5q0 -55 -38.5 -94
t-94.5 -39t-94.5 38.5t-38.5 94.5t38.5 94.5t94.5 38.5z" />
    <glyph glyph-name="Ygrave" unicode="&#x1ef2;" horiz-adv-x="1251" 
d="M227 1395q99 -11 162 -11t178 11q99 -412 181 -666q96 130 234 333.5t216 332.5q56 -11 105 -11q55 0 116 11q-153 -185 -272 -342q-107 -141 -332 -457q-2 -15 -24 -115.5t-48 -236.5t-43 -254q-92 10 -163 10q-63 0 -158 -10q86 315 129 583q-125 406 -281 822z
M666 1849q57 0 104 -59q13 -17 42 -56t83 -111.5t104 -139.5h-92l-293 198q-45 29 -45 80q0 35 26 61.5t71 26.5z" />
    <glyph glyph-name="ygrave" unicode="&#x1ef3;" horiz-adv-x="1024" 
d="M154 975q79 -10 137 -10q55 0 147 10l25 -195q31 -250 67 -475q33 51 171.5 295.5t203.5 374.5q52 -10 80 -10q41 0 82 10l2 -12q-37 -54 -403 -641q-369 -592 -510 -857q-70 11 -101 11q-32 0 -96 -11q78 102 188 261t179 270l-86 512q-27 167 -86 467zM500 1481
q59 0 108 -64l226 -303h-93l-286 195q-52 34 -52 84q0 36 27 62t70 26z" />
    <glyph glyph-name="endash" unicode="&#x2013;" horiz-adv-x="1024" 
d="M20 639h1024l-40 -193h-1024z" />
    <glyph glyph-name="emdash" unicode="&#x2014;" horiz-adv-x="2048" 
d="M305 639h1520l-41 -193h-1520z" />
    <glyph glyph-name="quoteleft" unicode="&#x2018;" horiz-adv-x="569" 
d="M219 979l445 426l32 -25l-284 -534q-40 -75 -71.5 -101t-76.5 -26q-54 0 -94.5 36t-40.5 83q0 27 19 58.5t71 82.5z" />
    <glyph glyph-name="quoteright" unicode="&#x2019;" horiz-adv-x="569" 
d="M561 1405q52 0 93.5 -36t41.5 -85q0 -28 -16.5 -56t-71.5 -81l-446 -428l-33 24l289 541q40 72 70 96.5t73 24.5z" />
    <glyph glyph-name="quotesinglbase" unicode="&#x201a;" horiz-adv-x="569" 
d="M293 307q52 0 93.5 -36t41.5 -85q0 -28 -16.5 -56t-71.5 -81l-446 -428l-33 25l289 540q40 72 70 96.5t73 24.5z" />
    <glyph glyph-name="quotedblleft" unicode="&#x201c;" horiz-adv-x="1024" 
d="M213 979l444 426l33 -25l-284 -534q-40 -75 -71.5 -101t-76.5 -26q-54 0 -94.5 36t-40.5 83q0 27 19 58.5t71 82.5zM680 979l444 426l33 -25l-285 -534q-40 -75 -71 -101t-76 -26q-54 0 -94.5 36t-40.5 83q0 27 19 58.5t71 82.5z" />
    <glyph glyph-name="quotedblright" unicode="&#x201d;" horiz-adv-x="1024" 
d="M1067 1145l-444 -426l-33 24l284 535q37 72 71 99.5t77 27.5q54 0 94.5 -36t40.5 -83q0 -27 -19 -58.5t-71 -82.5zM600 1145l-444 -426l-33 24l285 535q37 72 70.5 99.5t76.5 27.5q54 0 94.5 -36t40.5 -83q0 -27 -19 -58.5t-71 -82.5z" />
    <glyph glyph-name="quotedblbase" unicode="&#x201e;" horiz-adv-x="1024" 
d="M279 307q52 0 93.5 -36t41.5 -85q0 -28 -16.5 -56t-71.5 -81l-447 -428l-33 25l289 540q40 72 70.5 96.5t73.5 24.5zM745 307q52 0 94 -36t42 -85q0 -28 -16.5 -56t-71.5 -81l-447 -428l-33 25l289 540q40 72 70 96.5t73 24.5z" />
    <glyph glyph-name="dagger" unicode="&#x2020;" 
d="M596 1395q93 -11 135 -11q40 0 139 11q-55 -178 -104 -445q79 0 346 15q-19 -52 -26 -94t-7 -113q-146 10 -346 10q-25 -135 -62.5 -407.5t-43.5 -370.5q-13 3 -51 5.5t-66.5 3.5t-32.5 1q-73 0 -127 -10q94 360 162 778q-228 0 -346 -12q29 106 35 205q121 -11 344 -11
q40 212 51 445z" />
    <glyph glyph-name="daggerdbl" unicode="&#x2021;" 
d="M618 1395q10 -1 36.5 -4t55 -5t52.5 -2q21 0 131 11q-35 -100 -54 -166.5t-29 -113t-13 -56.5q295 0 358 8q-49 -104 -49 -193v-20q-179 20 -354 20q-37 -159 -56 -290q234 0 357 10q-45 -98 -45 -188v-25q-221 18 -346 18q-31 -138 -62 -409q-64 10 -145 10
q-82 0 -136 -10q44 125 115 409q-126 0 -236.5 -4t-119.5 -4q35 86 45 211q207 -18 356 -18l29 137q11 51 27 153q-289 0 -365 -8q28 57 40 102t13 111q286 -20 346 -20q39 252 49 336z" />
    <glyph glyph-name="bullet" unicode="&#x2022;" horiz-adv-x="1024" 
d="M547 1047q147 0 248.5 -104t101.5 -247q0 -141 -102 -245.5t-248 -104.5q-147 0 -248.5 104t-101.5 246q0 143 103 247t247 104z" />
    <glyph glyph-name="ellipsis" unicode="&#x2026;" horiz-adv-x="2048" 
d="M289 295q67 0 115.5 -48.5t48.5 -115.5t-48.5 -115.5t-115.5 -48.5t-115.5 48.5t-48.5 115.5t48.5 115.5t115.5 48.5zM971 295q67 0 115.5 -48.5t48.5 -115.5t-48.5 -115.5t-115.5 -48.5t-115.5 48.5t-48.5 115.5t48.5 115.5t115.5 48.5zM1653 295q67 0 115.5 -48.5
t48.5 -115.5t-48.5 -115.5t-115.5 -48.5t-115.5 48.5t-48.5 115.5t48.5 115.5t115.5 48.5z" />
    <glyph glyph-name="perthousand" unicode="&#x2030;" horiz-adv-x="2048" 
d="M211 -68l919 1483h113l-921 -1483h-111zM481 1366q111 0 180.5 -69t69.5 -185q0 -93 -40.5 -176.5t-120 -138t-179.5 -54.5q-114 0 -184 69t-70 185q0 151 99.5 260t244.5 109zM299 907q0 -48 22.5 -76t63.5 -28q43 0 79.5 43.5t58.5 108t34 130.5t12 117
q0 52 -24.5 78.5t-67.5 26.5q-44 0 -80 -43.5t-56.5 -108.5t-31 -130t-10.5 -118zM1063 598q111 0 180.5 -69t69.5 -185q0 -93 -40.5 -176.5t-120 -138t-179.5 -54.5q-114 0 -184 69t-70 185q0 151 99.5 260t244.5 109zM881 139q0 -48 22.5 -76t63.5 -28q43 0 79.5 43.5
t58.5 108t34 130.5t12 117q0 52 -24.5 78.5t-67.5 26.5q-44 0 -80 -43.5t-56.5 -108.5t-31 -130t-10.5 -118zM1739 598q111 0 180.5 -69t69.5 -185q0 -93 -40.5 -176.5t-120 -138t-179.5 -54.5q-114 0 -184 69t-70 185q0 151 99.5 260t244.5 109zM1556 139q0 -48 22.5 -76
t63.5 -28q43 0 79.5 43.5t58.5 108t34.5 130.5t12.5 117q0 52 -24.5 78.5t-67.5 26.5q-44 0 -80 -43.5t-56.5 -108.5t-31.5 -130.5t-11 -117.5z" />
    <glyph glyph-name="guilsinglleft" unicode="&#x2039;" horiz-adv-x="569" 
d="M420 940q60 -56 117 -92q-6 -7 -27 -31t-42 -48.5t-69 -83.5t-110 -138q50 -146 151 -352q-84 -27 -139 -62q-72 211 -174 428q160 191 293 379z" />
    <glyph glyph-name="guilsinglright" unicode="&#x203a;" horiz-adv-x="569" 
d="M289 940q27 -79 41.5 -119t30.5 -79.5t23 -55.5t32.5 -71.5t46.5 -102.5q-81 -98 -169 -212.5t-124 -166.5q-57 57 -117 92q19 20 35.5 38.5t29 33t35.5 43t36.5 45t50.5 64t61 77.5q-58 165 -151 353q83 25 139 61z" />
    <glyph glyph-name="fraction" unicode="&#x2044;" horiz-adv-x="342" 
d="M-303 -76l911 1481h113l-911 -1481h-113z" />
    <glyph glyph-name="Euro" unicode="&#x20ac;" 
d="M877 1376q99 0 205 -29.5t175 -76.5q-58 -113 -90 -203h-37q-20 76 -86.5 122t-158.5 46q-231 0 -330 -354h287q52 0 190 12q-42 -107 -51 -168q-103 16 -233 16h-222q-12 -84 -14 -133h242q93 0 190 13q-42 -107 -51 -168q-103 16 -234 16h-153v-23q0 -150 74.5 -239.5
t187.5 -89.5q74 0 135.5 26.5t122.5 85.5l29 -20q-48 -99 -68 -172q-49 -29 -120 -46.5t-138 -17.5q-210 0 -360 136.5t-170 359.5h-11q-69 0 -163 -12q42 107 51 168q80 -17 123 -17q13 109 18 133q-76 0 -162 -12q36 89 51 168q66 -16 148 -16q82 225 254.5 360t368.5 135
z" />
    <glyph glyph-name="afii61289" unicode="&#x2113;" horiz-adv-x="1193" 
d="M811 1540q132 0 195 -79.5t63 -196.5q0 -102 -48.5 -211t-137.5 -213.5t-200.5 -202.5t-250.5 -195q-14 -82 -14 -106q0 -139 160 -139q140 0 286 143q97 -114 103 -121q-211 -242 -494 -242q-160 0 -236.5 74t-76.5 228v24q-9 -6 -133 -78l-41 146q107 60 211 131
q13 54 59 284q33 177 70 305t96 222q145 227 389 227zM520 856l-39 -176q377 314 377 575q0 113 -92 113q-64 0 -118 -78t-83 -221q-6 -28 -20.5 -99t-24.5 -114z" />
    <glyph glyph-name="trademark" unicode="&#x2122;" horiz-adv-x="2062" 
d="M315 1391q14 0 120.5 -3.5t146.5 -3.5q108 0 185.5 2t113 3.5t43.5 1.5q-6 -27 -6 -45q0 -25 6 -46q-90 15 -209 15q-6 -119 -6 -258q0 -225 8 -357q-39 5 -99 5q-14 0 -96 -5q13 162 13 291q0 161 -3 324q-78 0 -217 -15q7 36 7 48q0 15 -7 43zM1065 1020l49 371
q19 -7 43 -7q16 0 37 7l82 -181q62 -139 143 -299q160 313 228 480q16 -7 43 -7q18 0 39 7l20 -189q43 -397 63 -502q-68 5 -81 5h-23q-15 0 -19 -1q-3 0 -5.5 -0.5t-10.5 -1.5t-20 -2q0 63 -13.5 223t-25.5 242q-65 -132 -217 -465h-37l-88 187q-2 3 -15.5 32t-44.5 95.5
t-65 136.5q-12 -98 -20.5 -187t-14.5 -174.5t-6 -89.5q-4 0 -19.5 2.5t-25.5 2.5q-12 0 -26 -2.5t-21 -2.5q28 139 51 320z" />
    <glyph glyph-name="Omega" unicode="&#x2126;" horiz-adv-x="1548" 
d="M934 1425q247 0 397 -141t150 -356q0 -438 -416 -738l-2 -6h305l-41 -184h-586l31 143q204 125 326.5 317t122.5 390q0 170 -89.5 277.5t-242.5 107.5q-147 0 -277 -94t-205 -243t-75 -310q0 -146 56 -266.5t144 -178.5l-30 -143h-588l41 184h299v6q-82 69 -127 176
t-45 232q0 135 47 262.5t130 228.5t190 177.5t232.5 117.5t252.5 41z" />
    <glyph glyph-name="estimated" unicode="&#x212e;" horiz-adv-x="1490" 
d="M743 1386q191 0 340 -88t233 -247.5t87 -366.5h-1026v-463q148 -151 366 -151q161 0 279 73.5t211 233.5l88 -53q-118 -185 -248.5 -264.5t-329.5 -79.5q-192 0 -342.5 92t-231.5 250t-81 354q0 201 79 362t229.5 254.5t346.5 93.5zM377 1143v-367h739v367
q-162 153 -377 153q-218 0 -362 -153z" />
    <glyph glyph-name="onethird" unicode="&#x2153;" horiz-adv-x="1789" 
d="M553 1382l41 -14q-48 -159 -103 -396.5t-85 -434.5q-12 1 -33 2.5t-38 2.5t-32 1q-8 0 -27 -1t-46.5 -2.5t-41.5 -2.5q105 385 154 657q-35 -18 -135 -53l-49 71v27q208 52 395 143zM305 -76l912 1481h112l-911 -1481h-113zM1354 819q127 0 201.5 -58t74.5 -153
q0 -81 -55 -132t-160 -68q69 -25 105 -75t36 -110q0 -41 -17 -81t-50 -75t-90.5 -57t-130.5 -22q-208 0 -318 116q57 48 99 115h32q3 -153 119 -153q72 0 112 64.5t40 141.5q0 49 -29.5 80t-81.5 31q-30 0 -53 -6q16 50 16 90q21 -4 53 -4q90 0 131.5 45t41.5 133
q0 50 -20.5 78.5t-57.5 28.5q-43 0 -72 -35t-35 -97h-37q-47 65 -82 97q68 106 228 106z" />
    <glyph glyph-name="twothirds" unicode="&#x2154;" horiz-adv-x="1789" 
d="M504 1356q133 0 206.5 -58.5t73.5 -158.5q0 -138 -188 -273q-143 -103 -242 -168q31 -2 103 -2q144 3 237 13q-33 -116 -39 -172q-113 6 -290 6q-31 0 -130 -3t-143 -3v61q263 195 371 324.5t108 234.5q0 56 -25.5 89.5t-72.5 33.5q-53 0 -86 -36t-37 -114l-26 -8
q-15 19 -27.5 33t-19.5 21t-24.5 24t-29.5 29q47 67 114.5 97t166.5 30zM414 -76l911 1481h113l-912 -1481h-112zM1421 821q128 0 202.5 -58t74.5 -153q0 -81 -55 -132t-160 -68q69 -25 105 -75t36 -110q0 -41 -17 -81t-50 -75t-91 -57t-131 -22q-207 0 -317 116
q55 47 98 115h33q3 -153 119 -153q72 0 111.5 64.5t39.5 141.5q0 49 -29 80t-81 31q-31 0 -54 -6q17 53 17 90q21 -4 53 -4q90 0 131 44.5t41 133.5q0 50 -20.5 78.5t-57.5 28.5q-43 0 -71.5 -35t-34.5 -97h-37q-47 65 -82 97q68 106 227 106z" />
    <glyph glyph-name="oneeighth" unicode="&#x215b;" horiz-adv-x="1789" 
d="M520 1382l41 -14q-48 -159 -103 -396.5t-85 -434.5q-12 1 -33 2.5t-38 2.5t-32 1q-8 0 -27 -1t-46 -2.5t-41 -2.5q102 374 153 657q-35 -18 -135 -53l-49 71v27q208 52 395 143zM272 -78l914 1483h110l-913 -1483h-111zM1399 817q129 0 197.5 -58.5t68.5 -154.5
q0 -154 -174 -184q51 -24 83 -73.5t32 -110.5q0 -107 -74 -180.5t-209 -73.5q-137 0 -216 62.5t-79 176.5q0 93 58 154t157 71q-98 58 -98 168q0 91 66.5 147t187.5 56zM1315 559q0 -45 18 -70.5t53 -25.5q50 0 80.5 62t30.5 132q0 97 -72 97q-49 0 -79.5 -58t-30.5 -137z
M1210 143q0 -45 20.5 -72.5t61.5 -27.5q42 0 73.5 43.5t45.5 99.5t14 109q0 108 -79 108q-61 0 -98.5 -82.5t-37.5 -177.5z" />
    <glyph glyph-name="threeeighths" unicode="&#x215c;" horiz-adv-x="1789" 
d="M449 1356q127 0 201.5 -58t74.5 -153q0 -81 -55 -132.5t-160 -68.5q69 -25 105 -74.5t36 -109.5q0 -41 -17 -81t-50 -75.5t-91 -57.5t-131 -22q-206 0 -317 117q55 47 98 115h33q3 -154 119 -154q49 0 84.5 34t51 79.5t15.5 93.5q0 49 -29 80t-81 31q-26 0 -53 -7
q16 50 16 91q26 -5 53 -5q90 0 131 45t41 134q0 50 -20.5 78t-57.5 28q-43 0 -71.5 -34.5t-34.5 -96.5h-37q-45 62 -82 96q69 107 228 107zM1479 817q129 0 197.5 -58.5t68.5 -154.5q0 -154 -174 -184q51 -24 83 -73.5t32 -110.5q0 -107 -74 -180.5t-209 -73.5
q-137 0 -216 62.5t-79 176.5q0 93 58 154t157 71q-98 58 -98 168q0 91 66.5 147t187.5 56zM1395 559q0 -45 18 -70.5t53 -25.5q50 0 80.5 62t30.5 132q0 97 -72 97q-49 0 -79.5 -58t-30.5 -137zM1290 143q0 -45 20.5 -72.5t61.5 -27.5q42 0 73.5 43.5t45.5 99.5t14 109
q0 108 -80 108q-61 0 -98 -82.5t-37 -177.5zM1264 1405h112l-913 -1483h-111z" />
    <glyph glyph-name="fiveeighths" unicode="&#x215d;" horiz-adv-x="1789" 
d="M745 1356q-22 -63 -29 -92t-11 -80q-153 14 -345 14q-40 -127 -49 -197q46 13 90 13q106 0 173 -62t67 -161q0 -124 -83.5 -200.5t-223.5 -76.5q-141 0 -266 94q25 30 73 129h31q21 -153 125 -153q49 0 85 38.5t51.5 90t15.5 104.5q0 57 -30.5 92t-78.5 35q-27 0 -45 -10
t-41 -31l-47 29q35 101 60.5 213.5t33.5 191.5l12 17q90 -11 222 -11q87 0 210 13zM1260 1405h112l-913 -1483h-111zM1454 817q129 0 197.5 -58.5t68.5 -154.5q0 -154 -174 -184q51 -24 83 -73.5t32 -110.5q0 -107 -74 -180.5t-209 -73.5q-137 0 -216 62.5t-79 176.5
q0 93 58 154t157 71q-98 58 -98 168q0 91 66.5 147t187.5 56zM1370 559q0 -45 18.5 -70.5t53.5 -25.5q50 0 80 62t30 132q0 97 -71 97q-49 0 -80 -58t-31 -137zM1266 143q0 -45 20.5 -72.5t61.5 -27.5q42 0 73.5 43.5t45.5 99.5t14 109q0 108 -80 108q-61 0 -98 -82.5
t-37 -177.5z" />
    <glyph glyph-name="seveneighths" unicode="&#x215e;" horiz-adv-x="1789" 
d="M236 1341v19q189 -17 382 -17q146 0 185 5l18 -29q-317 -403 -545 -787q-46 7 -73 7q-34 0 -92 -7v21l303 365q189 232 211 262q-90 8 -195 8l-219 -2q15 56 20 83.5t5 71.5zM1217 1405h112l-913 -1483h-111zM1411 817q129 0 197.5 -58.5t68.5 -154.5q0 -154 -174 -184
q51 -24 83 -73.5t32 -110.5q0 -107 -74 -180.5t-209 -73.5q-137 0 -216 62.5t-79 176.5q0 93 58 154t157 71q-98 58 -98 168q0 91 66.5 147t187.5 56zM1327 559q0 -45 18.5 -70.5t53.5 -25.5q50 0 80 62t30 132q0 97 -71 97q-49 0 -80 -58t-31 -137zM1223 143
q0 -45 20.5 -72.5t61.5 -27.5q42 0 73.5 43.5t45.5 99.5t14 109q0 108 -80 108q-61 0 -98 -82.5t-37 -177.5z" />
    <glyph glyph-name="partialdiff" unicode="&#x2202;" horiz-adv-x="1202" 
d="M690 1556q198 0 317 -151.5t119 -400.5q0 -233 -102 -488q-98 -247 -282 -393t-394 -146q-170 0 -262 91.5t-92 248.5q0 81 28 165.5t81.5 161t124 137t162.5 96.5t190 36q116 0 196.5 -45.5t116.5 -128.5h2q35 137 35 244q0 184 -80.5 295t-214.5 111q-173 0 -316 -82
l-34 139q191 110 405 110zM203 338q0 -93 50.5 -143t147.5 -50q130 0 248.5 112.5t186.5 307.5q-17 90 -86 138.5t-170 48.5q-94 0 -181 -56t-141.5 -152.5t-54.5 -205.5z" />
    <glyph glyph-name="Delta" unicode="&#x2206;" horiz-adv-x="1349" 
d="M688 1393h275l217 -1219v-174h-1284l26 125zM784 1225h-8q-58 -118 -284 -490q-257 -419 -351 -563h828l-129 707q-45 244 -56 346z" />
    <glyph glyph-name="product" unicode="&#x220f;" horiz-adv-x="1490" 
d="M129 1546h1233v-1812h-213v1636h-805v-1636h-215v1812z" />
    <glyph glyph-name="summation" unicode="&#x2211;" horiz-adv-x="1320" 
d="M53 1546h1209v-176h-928v-6l442 -723l-463 -723v-8h1012v-176h-1300v116l505 783l-477 774v139z" />
    <glyph glyph-name="minus" unicode="&#x2212;" horiz-adv-x="1214" 
d="M84 604h1049v-172h-1049v172z" />
    <glyph glyph-name="uni2215" unicode="&#x2215;" horiz-adv-x="342" 
d="M-303 -76l911 1481h113l-911 -1481h-113z" />
    <glyph glyph-name="uni2219" unicode="&#x2219;" horiz-adv-x="569" 
d="M311 774q67 0 115.5 -48t48.5 -116t-48.5 -116t-115.5 -48t-115.5 48t-48.5 116t48.5 116t115.5 48z" />
    <glyph glyph-name="radical" unicode="&#x221a;" horiz-adv-x="1134" 
d="M965 1638h172l-439 -1822h-172l-309 831l-149 -55l-39 110l309 125l154 -434q54 -146 73 -206t35 -142h2q6 42 19.5 108t28.5 130.5t45.5 192.5t54.5 235z" />
    <glyph glyph-name="infinity" unicode="&#x221e;" horiz-adv-x="1560" 
d="M416 860q87 0 166.5 -44.5t199.5 -164.5q115 115 201 162t180 47q134 0 220.5 -90t86.5 -227q0 -131 -92 -226.5t-233 -95.5q-87 0 -165.5 44t-199.5 165q-120 -120 -201.5 -164.5t-179.5 -44.5q-138 0 -223.5 91.5t-85.5 230.5q0 133 95 225t231 92zM250 543
q0 -75 46.5 -123.5t115.5 -48.5q60 0 122.5 39.5t147.5 130.5l-78 75q-95 95 -186 95q-69 0 -118.5 -49.5t-49.5 -118.5zM881 543l63 -64q108 -108 201 -108q71 0 119.5 51t48.5 121q0 72 -46.5 120t-115.5 48q-65 0 -127.5 -40t-142.5 -128z" />
    <glyph glyph-name="integral" unicode="&#x222b;" horiz-adv-x="712" 
d="M586 1567q53 0 106 -17l-26 -147q-38 10 -68 10q-87 0 -120.5 -85t-33.5 -302q0 -121 13.5 -392.5t13.5 -361.5q0 -161 -21.5 -274.5t-64 -179.5t-99 -95.5t-132.5 -29.5q-95 0 -134 22l29 150q37 -12 78 -12q86 0 121 84.5t35 283.5q0 148 -14.5 426.5t-14.5 374.5
q0 283 80.5 414t251.5 131z" />
    <glyph glyph-name="approxequal" unicode="&#x2248;" horiz-adv-x="1214" 
d="M977 872h119q-19 -153 -91.5 -234t-189.5 -81q-60 0 -141 22.5t-146 50t-137.5 50t-118.5 22.5q-56 0 -95.5 -40t-49.5 -111h-121q20 154 91 235.5t188 81.5q55 0 133.5 -22t145.5 -48.5t143 -48.5t127 -22q56 0 93.5 38t49.5 107zM977 485h119q-19 -153 -91.5 -234
t-189.5 -81q-60 0 -141 22.5t-146 50t-137.5 50t-118.5 22.5q-56 0 -95.5 -40t-49.5 -111h-121q20 154 91 235.5t188 81.5q69 0 174.5 -35.5t208.5 -70.5t166 -35q56 0 93.5 38t49.5 107z" />
    <glyph glyph-name="notequal" unicode="&#x2260;" horiz-adv-x="1214" 
d="M766 1122l149 -78l-120 -229h280v-170h-366l-134 -254h500v-170h-588l-155 -305l-150 78l117 227h-272v170h360l131 254h-491v170h579z" />
    <glyph glyph-name="lessequal" unicode="&#x2264;" horiz-adv-x="1214" 
d="M1075 1102v-182l-815 -281l815 -274v-183l-1048 369v176zM27 106h1048v-172h-1048v172z" />
    <glyph glyph-name="greaterequal" unicode="&#x2265;" horiz-adv-x="1214" 
d="M27 1102l1048 -375v-176l-1048 -369v183l813 274l-813 281v182zM27 106h1048v-172h-1048v172z" />
    <glyph glyph-name="lozenge" unicode="&#x25ca;" horiz-adv-x="1173" 
d="M498 1423h178l399 -751l-399 -742h-178l-400 742q33 64 87 166t107.5 202t101.5 190t77.5 144t26.5 49zM586 1251h-4q-3 -7 -40.5 -81t-114.5 -226t-136 -268q295 -556 295 -572h6q121 226 291 564q-213 405 -297 583z" />
    <glyph glyph-name="grave.cap" unicode="&#xe000;" horiz-adv-x="569" 
d="M272 1849q58 0 105 -59q13 -17 42 -56t83 -111.5t104 -139.5h-92l-293 198q-45 29 -45 80q0 35 25.5 61.5t70.5 26.5z" />
    <glyph glyph-name="acute.cap" unicode="&#xe002;" horiz-adv-x="569" 
d="M676 1849q39 0 68.5 -27t29.5 -67q0 -54 -55 -84l-336 -190h-98l256 276q50 56 77 74t58 18z" />
    <glyph glyph-name="circumflex.cap" unicode="&#xe004;" horiz-adv-x="569" 
d="M406 1833h169l175 -352h-101l-184 196l-266 -196h-117z" />
    <glyph glyph-name="caron.cap" unicode="&#xe006;" horiz-adv-x="569" 
d="M336 1481l-182 354h100l190 -197l277 197h110l-325 -354h-170z" />
    <glyph glyph-name="caron.alt" unicode="&#xe008;" horiz-adv-x="681" 
d="M373 1530q44 0 75 -18t31 -46q0 -33 -22 -61l-193 -266h-104l82 303q12 42 46.5 65t84.5 23z" />
    <glyph glyph-name="tilde.cap" unicode="&#xe009;" horiz-adv-x="569" 
d="M741 1784h80q-23 -117 -84.5 -181.5t-148.5 -64.5q-54 0 -103 21q-12 3 -95 35t-118 32t-59 -20.5t-43 -67.5h-82q29 119 91 181.5t145 62.5q14 0 27.5 -1t30 -5.5t26.5 -6.5t32 -10t30 -10.5t36 -13t35 -13.5q64 -24 98 -24q63 0 102 86z" />
    <glyph glyph-name="dieresis.cap" unicode="&#xe00b;" horiz-adv-x="569" 
d="M244 1774q56 0 94.5 -39.5t38.5 -94.5q0 -56 -38.5 -94.5t-94.5 -38.5t-94.5 38.5t-38.5 94.5t39 95t94 39zM672 1774q54 0 93.5 -39.5t39.5 -94.5q0 -56 -38.5 -94.5t-94.5 -38.5q-54 0 -93.5 39t-39.5 94q0 56 39 95t94 39z" />
    <glyph glyph-name="macron.cap" unicode="&#xe00d;" horiz-adv-x="569" 
d="M139 1704h666l-35 -141h-668z" />
    <glyph glyph-name="breve.cap" unicode="&#xe00f;" horiz-adv-x="569" 
d="M166 1745q0 15 4 65h84q2 -83 51 -131q56 -53 166 -53q95 0 162.5 46.5t97.5 137.5h82q-30 -158 -122 -245.5t-238 -87.5q-134 0 -210.5 68t-76.5 200z" />
    <glyph glyph-name="ring.cap" unicode="&#xe011;" horiz-adv-x="569" 
d="M436 1907q97 0 164.5 -68.5t67.5 -161.5q0 -94 -68 -161.5t-164 -67.5q-97 0 -163 67t-66 162q0 94 67.5 162t161.5 68zM305 1677q0 -55 38.5 -93t92.5 -38q56 0 94.5 38t38.5 93t-38.5 93t-94.5 38q-54 0 -92.5 -38t-38.5 -93z" />
    <glyph glyph-name="hungarumlaut.cap" unicode="&#xe013;" horiz-adv-x="569" 
d="M475 1849q40 0 70 -27t30 -67q0 -51 -59 -86l-332 -188h-98l240 260q65 70 90 89t59 19zM874 1849q40 0 70.5 -27t30.5 -67q0 -51 -60 -86l-331 -188h-99l240 260q65 70 90 89t59 19z" />
    <glyph glyph-name="dotaccent.cap" unicode="&#xe015;" horiz-adv-x="569" 
d="M459 1784q60 0 101.5 -42t41.5 -102t-41.5 -102.5t-101.5 -42.5q-61 0 -103.5 42.5t-42.5 102.5t43 102t103 42z" />
    <glyph glyph-name="commaaccent" unicode="&#xe017;" horiz-adv-x="681" 
d="M375 -78q112 0 112 -61q0 -35 -27.5 -72t-154.5 -180q-11 -12 -17 -19.5t-16.5 -19t-19.5 -21.5h-84l74 281q24 92 133 92z" />
    <glyph glyph-name="commaaccent.alt" unicode="&#xe01a;" horiz-adv-x="681" 
d="M408 1516h84q-63 -239 -72 -279q-24 -94 -133 -94q-115 0 -115 61q0 32 29.5 70.5t206.5 241.5z" />
    <glyph glyph-name="uniF8FF" unicode="&#xf8ff;" horiz-adv-x="993" 
d="M0 1393h993v-1393h-993v1393zM96 96h801v1198h-801v-1198zM430 227v129h109v-129h-109zM502 1182q108 0 174.5 -70.5t66.5 -183.5q0 -68 -28.5 -120.5t-96.5 -113.5q-65 -54 -78.5 -85.5t-13.5 -100.5v-16v-37h-94v28q0 99 20 150.5t68 95.5q72 68 91 94q32 46 32 97
q0 67 -43 115t-104 48q-67 0 -108.5 -48.5t-49.5 -135.5l-98 16q13 130 81 198.5t181 68.5z" />
    </font>
</defs>
</svg>
