<?xml version="1.0" standalone="no"?>
<!DOCTYPE svg PUBLIC "-//W3C//DTD SVG 1.1//EN" "http://www.w3.org/Graphics/SVG/1.1/DTD/svg11.dtd" >
<svg xmlns="http://www.w3.org/2000/svg" xmlns:xlink="http://www.w3.org/1999/xlink" version="1.1">
<metadata>
Created by FontForge 20170731 at Thu Mar 24 16:04:19 2022
 By Aleksey,,,
Copyright (c) 2014 Monotype Imaging Inc. All rights reserved.
</metadata>
<defs>
<font id="OptimaLTPro-DemiBold" horiz-adv-x="530" >
  <font-face 
    font-family="Optima LT Pro DemiBold"
    font-weight="600"
    font-stretch="normal"
    units-per-em="2048"
    panose-1="2 11 6 2 5 5 8 2 3 4"
    ascent="1501"
    descent="-547"
    x-height="981"
    cap-height="1405"
    bbox="-287 -541 2052 1991"
    underline-thickness="102"
    underline-position="-307"
    unicode-range="U+000D-FB04"
  />
<missing-glyph horiz-adv-x="993" 
d="M0 1393h993v-1393h-993v1393zM96 96h801v1198h-801v-1198zM430 227v129h109v-129h-109zM502 1182q107 0 174 -70.5t67 -183.5q0 -71 -28 -120t-97 -114q-66 -60 -79 -91t-13 -111v-37h-94v28q0 99 20 150.5t68 95.5q45 42 66 63.5t39 56t18 71.5q0 67 -43 115t-104 48
q-67 0 -108.5 -48.5t-49.5 -135.5l-98 16q13 130 81 198.5t181 68.5z" />
    <glyph glyph-name="IJ" unicode="IJ" horiz-adv-x="1275" 
d="M178 1405q87 -12 148 -12q58 0 143 12q-23 -144 -23 -559q0 -273 2.5 -435t6 -229.5t12.5 -181.5q-117 12 -143 12t-81.5 -5.5t-66.5 -6.5q23 259 23 803q0 465 -21 602zM829 1405q98 -12 150 -12q41 0 139 12q-1 -18 -5 -89.5t-5.5 -115.5t-3.5 -149.5t-2 -239.5
q0 -29 -1 -170.5t-1 -216.5q0 -35 1 -101t1 -94q0 -164 -31 -252q-16 -44 -35 -78t-54.5 -70.5t-82 -62t-119 -45t-164.5 -26.5l-14 98q153 15 203 109q27 51 34 130.5t7 227.5v797q0 125 -17 348z" />
    <glyph glyph-name="ij" unicode="ij" horiz-adv-x="1032" 
d="M262 1456q59 0 101.5 -44t42.5 -99q0 -56 -43.5 -99t-100.5 -43t-99 42.5t-42 99.5q0 56 42.5 99.5t98.5 43.5zM131 983q82 -12 137 -12q53 0 127 12q-16 -340 -16 -444q0 -21 1.5 -113.5t5 -227.5t7.5 -198q-89 12 -119 12q-53 0 -139 -12q17 332 17 475q0 104 -6.5 267
t-14.5 241zM786 1456q57 0 99.5 -43.5t42.5 -99.5t-42.5 -99t-99.5 -43t-100 43t-43 99q0 55 42 99t101 44zM653 983q65 -12 133 -12q56 0 134 12q-17 -296 -17 -473q0 -49 2 -241.5t2 -209.5q0 -51 -6 -198q-5 -145 -55 -217q-51 -71 -132 -112.5t-231 -70.5l-22 78
q96 18 133 55q42 40 60 121t18 252q0 785 -19 1016z" />
    <glyph glyph-name="napostrophe" unicode="&#x22;n" horiz-adv-x="1175" 
d="M690 993q165 0 253.5 -90t88.5 -258q0 -7 -4 -180.5t-4 -212.5q0 -170 14 -252q-8 1 -57 6.5t-76 5.5q-10 0 -133 -12q25 159 25 434q0 162 -7 231t-28 103q-52 84 -168 84q-46 0 -96 -26t-76 -70q-47 -79 -47 -303q0 -305 14 -453q-20 1 -71 6.5t-60 5.5q-50 0 -127 -12
q21 281 21 602q0 220 -17 381q76 -12 133 -12q50 0 115 12q-10 -52 -10 -109v-63q72 100 142.5 141t174.5 41zM133 1505q34 0 58 -14.5t24 -42.5q0 -34 -25 -70q-11 -18 -182 -252h-71l79 291q24 88 117 88z" />
    <glyph glyph-name="f_f" unicode="ff" horiz-adv-x="1206" 
d="M760 870h-338v-49q0 -179 6.5 -468.5t13.5 -352.5q-111 12 -129 12q-27 0 -133 -12q21 92 21 567q0 50 -1 151.5t-1 151.5q-69 0 -156 -6q6 42 6 56q0 16 -2 24l-4 31q70 -8 156 -8q9 90 15.5 133t27.5 104t59 125q122 201 324 201q12 0 53 -8q-16 -56 -16 -133
q0 -24 1 -48.5t1 -29.5l-15 -13q-57 41 -151 41q-138 0 -138 -131q0 -60 58 -241h342q9 90 15.5 133t27.5 104t59 125q122 201 324 201q12 0 53 -8q-16 -56 -16 -133q0 -24 1 -48.5t1 -29.5l-15 -13q-57 41 -151 41q-137 0 -137 -131q0 -63 57 -241q136 0 217 8
q-8 -33 -8 -55q0 -32 8 -56q-34 6 -213 6v-49q0 -175 7 -466t14 -355q-111 12 -130 12q-27 0 -133 -12q21 92 21 567q0 50 -1 151.5t-1 151.5z" />
    <glyph glyph-name="fi" unicode="fi" horiz-adv-x="1138" 
d="M625 1530q12 0 53 -8q-16 -56 -16 -133q0 -24 1 -48.5t1 -29.5l-15 -13q-57 41 -151 41q-138 0 -138 -131q0 -60 58 -241q136 0 217 8q-8 -33 -8 -55q0 -32 8 -56q-35 6 -213 6v-49q0 -179 6.5 -468.5t13.5 -352.5q-111 12 -129 12q-27 0 -133 -12q21 92 21 567
q0 50 -1 151.5t-1 151.5q-69 0 -156 -6q6 42 6 56q0 16 -2 24l-4 31q70 -8 156 -8q9 90 15.5 133t27.5 104t59 125q122 201 324 201zM870 1456q59 0 101.5 -44t42.5 -99q0 -56 -43.5 -99t-100.5 -43t-99 42.5t-42 99.5q0 56 42.5 99.5t98.5 43.5zM739 983q83 -12 138 -12
q53 0 127 12q-17 -361 -17 -444q0 -21 1.5 -113.5t5 -227.5t7.5 -198q-89 12 -118 12q-54 0 -140 -12q17 332 17 475q0 104 -6.5 267t-14.5 241z" />
    <glyph glyph-name="fl" unicode="fl" horiz-adv-x="1138" 
d="M625 1530q12 0 53 -8q-16 -56 -16 -133q0 -24 1 -48.5t1 -29.5l-15 -13q-57 41 -151 41q-138 0 -138 -131q0 -60 58 -241q136 0 217 8q-8 -33 -8 -55q0 -32 8 -56q-35 6 -213 6v-49q0 -179 6.5 -468.5t13.5 -352.5q-111 12 -129 12q-27 0 -133 -12q21 92 21 567
q0 50 -1 151.5t-1 151.5q-69 0 -156 -6q6 42 6 56q0 16 -2 24l-4 31q70 -8 156 -8q9 90 15.5 133t27.5 104t59 125q122 201 324 201zM737 1518q88 -13 142 -13q55 0 131 13q-21 -223 -21 -705q0 -616 19 -813q-13 1 -39.5 4.5t-47.5 5.5t-38 2q-44 0 -142 -12q21 360 21 754
q0 243 -8 465.5t-17 298.5z" />
    <glyph glyph-name="f_f_i" unicode="ffi" horiz-adv-x="1691" 
d="M760 870h-338v-49q0 -179 6.5 -468.5t13.5 -352.5q-111 12 -129 12q-27 0 -133 -12q21 92 21 567q0 50 -1 151.5t-1 151.5q-69 0 -156 -6q6 42 6 56q0 16 -2 24l-4 31q70 -8 156 -8q9 90 15.5 133t27.5 104t59 125q122 201 324 201q12 0 53 -8q-16 -56 -16 -133
q0 -24 1 -48.5t1 -29.5l-15 -13q-57 41 -151 41q-138 0 -138 -131q0 -60 58 -241h342q9 90 15.5 133t27.5 104t59 125q122 201 324 201q12 0 53 -8q-16 -56 -16 -133q0 -24 1 -48.5t1 -29.5l-15 -13q-57 41 -151 41q-137 0 -137 -131q0 -63 57 -241q136 0 217 8
q-8 -33 -8 -55q0 -32 8 -56q-34 6 -213 6v-49q0 -175 7 -466t14 -355q-111 12 -130 12q-27 0 -133 -12q21 92 21 567q0 50 -1 151.5t-1 151.5zM1423 1456q59 0 101.5 -44t42.5 -99q0 -56 -43.5 -99t-100.5 -43t-99 42.5t-42 99.5q0 56 42.5 99.5t98.5 43.5zM1292 983
q83 -12 138 -12q52 0 126 12q-16 -340 -16 -444q0 -21 1.5 -113.5t5 -227.5t7.5 -198q-88 12 -118 12q-54 0 -140 -12q17 332 17 475q0 104 -6.5 267t-14.5 241z" />
    <glyph glyph-name="f_f_l" unicode="ffl" horiz-adv-x="1697" 
d="M760 870h-338v-49q0 -179 6.5 -468.5t13.5 -352.5q-111 12 -129 12q-27 0 -133 -12q21 92 21 567q0 50 -1 151.5t-1 151.5q-69 0 -156 -6q6 42 6 56q0 16 -2 24l-4 31q70 -8 156 -8q9 90 15.5 133t27.5 104t59 125q122 201 324 201q12 0 53 -8q-16 -56 -16 -133
q0 -24 1 -48.5t1 -29.5l-15 -13q-57 41 -151 41q-138 0 -138 -131q0 -60 58 -241h342q9 90 15.5 133t27.5 104t59 125q122 201 324 201q12 0 53 -8q-16 -56 -16 -133q0 -24 1 -48.5t1 -29.5l-15 -13q-57 41 -151 41q-137 0 -137 -131q0 -63 57 -241q136 0 217 8
q-8 -33 -8 -55q0 -32 8 -56q-34 6 -213 6v-49q0 -175 7 -466t14 -355q-111 12 -130 12q-27 0 -133 -12q21 92 21 567q0 50 -1 151.5t-1 151.5zM1296 1518q88 -13 142 -13q55 0 131 13q-21 -223 -21 -705q0 -616 19 -813q-13 1 -39.5 4.5t-47.5 5.5t-38 2q-44 0 -142 -12
q21 360 21 754q0 243 -8 465.5t-17 298.5z" />
    <glyph glyph-name=".notdef" horiz-adv-x="993" 
d="M0 1393h993v-1393h-993v1393zM96 96h801v1198h-801v-1198zM430 227v129h109v-129h-109zM502 1182q107 0 174 -70.5t67 -183.5q0 -71 -28 -120t-97 -114q-66 -60 -79 -91t-13 -111v-37h-94v28q0 99 20 150.5t68 95.5q45 42 66 63.5t39 56t18 71.5q0 67 -43 115t-104 48
q-67 0 -108.5 -48.5t-49.5 -135.5l-98 16q13 130 81 198.5t181 68.5z" />
    <glyph glyph-name=".null" horiz-adv-x="0" 
 />
    <glyph glyph-name="nonmarkingreturn" horiz-adv-x="682" 
 />
    <glyph glyph-name="NULL" horiz-adv-x="0" 
 />
    <glyph glyph-name="NULL" horiz-adv-x="0" 
 />
    <glyph glyph-name="CR" unicode="&#xd;" horiz-adv-x="532" 
 />
    <glyph glyph-name="space" unicode=" " horiz-adv-x="532" 
 />
    <glyph glyph-name="exclam" unicode="!" horiz-adv-x="569" 
d="M289 1411q57 0 95 -42.5t38 -106.5q0 -72 -8 -129l-111 -740h-43l-92 664q-18 133 -18 192q0 79 38 120.5t101 41.5zM285 285q58 0 101.5 -43.5t43.5 -102.5t-43.5 -102t-101.5 -43q-61 0 -103.5 43.5t-42.5 101.5t43 102t103 44z" />
    <glyph glyph-name="quotedbl" unicode="&#x22;" horiz-adv-x="909" 
d="M162 1454h215l-70 -633h-92zM532 1454h216l-70 -633h-92z" />
    <glyph glyph-name="numbersign" unicode="#" horiz-adv-x="1062" 
d="M375 1368h153l-71 -399h252l71 399h154l-72 -399h205v-144h-231l-50 -272h215v-143h-241l-76 -410h-154l76 410h-252l-75 -410h-154l76 410h-205v143h231l49 272h-215v144h242zM682 825h-252l-49 -272h252z" />
    <glyph glyph-name="dollar" unicode="$" horiz-adv-x="1062" 
d="M473 1415v133h96v-127h9q80 0 151 -16.5t184 -67.5q-14 -27 -28 -69l-37 -125h-29q-23 81 -88 127.5t-162 52.5v-473q102 -35 156 -60t98 -57q69 -50 110.5 -134t41.5 -179q0 -171 -113.5 -294.5t-292.5 -143.5v-201h-96v190h-14q-179 0 -387 105q41 146 47 231h28
q31 -63 53.5 -98.5t60 -71t89 -50.5t123.5 -15v528l-115 45q-135 54 -199.5 142t-64.5 219q0 164 98.5 275t280.5 134zM311 1110q0 -83 33.5 -130t128.5 -89v422q-76 -20 -119 -76t-43 -127zM569 559v-469q75 28 119.5 93t44.5 145q0 157 -164 231z" />
    <glyph glyph-name="percent" unicode="%" horiz-adv-x="1781" 
d="M432 -43l819 1468h99l-820 -1468h-98zM455 1395q158 0 244.5 -88.5t86.5 -247.5t-94.5 -254.5t-230.5 -95.5q-158 0 -253 91.5t-95 243.5q0 160 92 255.5t250 95.5zM299 1040q0 -264 158 -264q73 0 108 70t35 221q0 260 -143 260q-52 0 -86 -27t-48.5 -75.5t-19 -89.5
t-4.5 -95zM1337 666q156 0 244 -88.5t88 -247.5t-95.5 -254.5t-232.5 -95.5q-156 0 -251 91.5t-95 243.5q0 160 92 255.5t250 95.5zM1182 311q0 -135 38.5 -199.5t118.5 -64.5q144 0 144 289q0 129 -37 195.5t-107 66.5q-42 0 -72.5 -19.5t-46.5 -47.5t-25 -70.5t-11 -74.5
t-2 -75z" />
    <glyph glyph-name="ampersand" unicode="&#x26;" horiz-adv-x="1478" 
d="M688 1372q136 0 212.5 -68.5t76.5 -179.5q0 -82 -68 -168t-192 -161q207 -261 346 -410q91 111 136.5 196t64.5 201l18 4l102 -110q-68 -119 -110.5 -176t-153.5 -183l166 -178q73 -76 115 -110v-29q-157 12 -199 12q-81 0 -127 -8l-123 143q-118 -93 -224 -134.5
t-222 -41.5q-94 0 -171 30.5t-124.5 79.5t-72.5 108t-25 120q0 135 92 244.5t264 183.5q-69 75 -103 149t-34 171q0 137 100 226t256 89zM530 1130q0 -89 142 -276q178 130 178 272q0 75 -41.5 124.5t-116.5 49.5q-66 0 -114 -50.5t-48 -119.5zM340 389q0 -65 27 -120
t70 -90.5t95 -55t103 -19.5q133 0 258 113l-199 229q-33 39 -180 232q-174 -119 -174 -289z" />
    <glyph glyph-name="quotesingle" unicode="'" 
d="M158 1454h215l-70 -633h-92z" />
    <glyph glyph-name="parenleft" unicode="(" horiz-adv-x="645" 
d="M543 1481l45 -33q-136 -196 -196 -384.5t-60 -418.5q0 -286 65 -495t193 -367l-45 -49q-200 171 -302 397t-102 492q0 233 106 463t296 395z" />
    <glyph glyph-name="parenright" unicode=")" horiz-adv-x="645" 
d="M53 1432l45 49q199 -169 301.5 -395.5t102.5 -491.5q0 -233 -106 -464t-296 -396l-45 33q141 207 198.5 389.5t57.5 410.5q0 287 -64.5 497.5t-193.5 367.5z" />
    <glyph glyph-name="asterisk" unicode="*" horiz-adv-x="833" 
d="M352 1411q25 -6 68 -6q30 0 65 6q-11 -106 -28 -301q133 89 233 182q40 -85 66 -131q-81 -26 -273 -112q146 -73 269 -119q-21 -33 -68 -123q-22 17 -57 45.5t-75 59.5t-95 71q20 -259 26 -287q-43 6 -65 6q-15 0 -36.5 -3t-29.5 -3q28 272 29 285q-32 -20 -231 -172
q-34 68 -68 125q135 54 172.5 69.5t93.5 45.5q-191 89 -270 116q25 37 35.5 58.5t29.5 68.5q155 -127 238 -182q-3 130 -29 301z" />
    <glyph glyph-name="plus" unicode="+" horiz-adv-x="1366" 
d="M616 1157h134v-465h464v-133h-464v-465h-134v465h-464v133h464v465z" />
    <glyph glyph-name="comma" unicode="," 
d="M272 287q44 0 76.5 -28.5t32.5 -76.5q0 -51 -55 -135l-271 -412l-45 21l123 465q26 98 59 132t80 34z" />
    <glyph glyph-name="hyphen" unicode="-" horiz-adv-x="833" 
d="M137 616q62 -6 283 -6q24 0 276 6q-10 -90 -10 -104q0 -20 4.5 -59.5t5.5 -49.5q-42 0 -145 3.5t-148 3.5q-147 0 -266 -7q10 59 10 119q0 45 -10 94z" />
    <glyph glyph-name="period" unicode="." 
d="M266 287q58 0 102 -43.5t44 -102.5q0 -58 -43.5 -101.5t-102.5 -43.5q-61 0 -103 42.5t-42 102.5t42.5 103t102.5 43z" />
    <glyph glyph-name="slash" unicode="/" horiz-adv-x="796" 
d="M612 1448h136l-564 -1509h-135z" />
    <glyph glyph-name="zero" unicode="0" horiz-adv-x="1062" 
d="M537 1384q64 0 123 -16.5t120.5 -63t102.5 -120.5q92 -170 92 -502q0 -338 -116.5 -523.5t-330.5 -185.5q-225 0 -332.5 173.5t-107.5 535.5q0 187 24.5 298.5t75.5 203.5q116 200 349 200zM528 61q168 0 183 361q8 246 8 260q0 285 -27 432q-35 182 -162 182
q-58 0 -97 -43.5t-60 -138.5q-29 -126 -29 -432q0 -164 8 -287q9 -134 31 -207.5t55.5 -100t89.5 -26.5z" />
    <glyph glyph-name="one" unicode="1" horiz-adv-x="1062" 
d="M752 1405l22 -14q-7 -41 -14.5 -291t-7.5 -428q0 -466 14 -672q-82 12 -131 12q-24 0 -81 -6t-62 -6q12 99 17.5 221t6 193.5t0.5 230.5v514q-70 -45 -305 -174l-88 94v19q129 47 324 140.5t305 166.5z" />
    <glyph glyph-name="two" unicode="2" horiz-adv-x="1062" 
d="M481 1382q191 0 309.5 -95.5t118.5 -268.5q0 -81 -15.5 -144t-58 -132t-101 -136t-161.5 -170q-186 -186 -239 -227h264q281 0 367 14q-11 -61 -11 -119q0 -43 9 -104q-340 12 -449 12q-248 0 -453 -12v72q167 150 312 311q152 170 212 306t60 280q0 152 -55.5 231.5
t-159.5 79.5q-93 0 -156.5 -69.5t-72.5 -204.5l-17 -15l-121 121q60 137 162 203.5t256 66.5z" />
    <glyph glyph-name="three" unicode="3" horiz-adv-x="1062" 
d="M473 1376q191 0 297.5 -79.5t106.5 -221.5q0 -263 -299 -340v-12q52 -1 99.5 -10.5t97.5 -33t85.5 -60t58.5 -96t23 -136.5q0 -96 -46.5 -175.5t-122.5 -129.5t-169.5 -77.5t-191.5 -27.5q-226 0 -371 132q45 64 90 167h23q19 -88 93 -147t175 -59q121 0 190.5 85.5
t69.5 229.5q0 129 -66 205t-182 76q-22 0 -60.5 -8t-51.5 -9q10 20 10 60q0 44 -10 73q43 -14 73 -14q111 0 173.5 71t62.5 199q0 119 -55 181.5t-160 62.5q-193 0 -223 -240h-21q-32 56 -106 138q127 196 407 196z" />
    <glyph glyph-name="four" unicode="4" horiz-adv-x="1062" 
d="M666 1368q46 -12 92 -12q42 0 88 12q-12 -396 -12 -842q55 0 93.5 1t57 2t23.5 1q-11 -56 -11 -94q0 -41 11 -86q-50 2 -91.5 3.5t-56.5 2t-26 0.5v-157q0 -89 10 -199q-66 12 -115 12q-21 0 -44.5 -2t-52 -5.5t-42.5 -4.5q16 76 16 356l-379 2q-64 0 -178 -4v129
q12 15 70.5 99t197.5 282.5t295 417.5q43 64 54 86zM606 526v584l-409 -584h409z" />
    <glyph glyph-name="five" unicode="5" horiz-adv-x="1062" 
d="M176 1350l10 18q168 -12 359 -12q126 0 338 12q-11 -81 -11 -102q0 -35 11 -113q-47 4 -107 4h-475q-6 -60 -6 -379q115 41 215 41q198 0 314 -99.5t116 -273.5q0 -110 -43.5 -199.5t-117.5 -146.5t-170.5 -87.5t-205.5 -30.5q-122 0 -205.5 33t-150.5 100q60 96 88 166
h21q49 -114 111.5 -160.5t160.5 -46.5q111 0 181.5 92.5t70.5 241.5q0 147 -67.5 229t-190.5 82q-48 0 -95 -17t-112 -57l-25 21q7 137 7 301q0 156 -3 218t-18 165z" />
    <glyph glyph-name="six" unicode="6" horiz-adv-x="1062" 
d="M680 1376q43 0 115 -8q9 -45 28 -88l-10 -6q-37 12 -82 12q-336 0 -389 -575q101 116 258 116q177 0 285 -108t108 -299q0 -104 -36 -190t-97.5 -141t-141 -84.5t-167.5 -29.5q-225 0 -344 155t-119 441q0 235 72 417.5t207 285t313 102.5zM346 397q0 -165 49.5 -250.5
t143.5 -85.5q198 0 198 345q0 321 -200 321q-93 0 -142 -84.5t-49 -245.5z" />
    <glyph glyph-name="seven" unicode="7" horiz-adv-x="1062" 
d="M117 1368q139 -16 686 -16h235v-49q-10 -3 -282 -486q-225 -398 -437 -817q-61 12 -108 12q-28 0 -102 -12l-5 14q100 136 365 570q226 370 324 551h-361q-58 0 -315 -15q10 59 10 115q0 43 -10 133z" />
    <glyph glyph-name="eight" unicode="8" horiz-adv-x="1062" 
d="M532 1376q180 0 287 -84.5t107 -238.5q0 -105 -63 -175.5t-185 -101.5v-8q163 -43 231 -127.5t68 -247.5q0 -129 -61 -225.5t-159 -144.5t-216 -48q-216 0 -336.5 108t-120.5 306q0 295 305 373v10q-117 23 -183.5 98.5t-66.5 182.5q0 154 103.5 238.5t289.5 84.5z
M377 1053q0 -114 40 -179t113 -65q76 0 116 58.5t40 174.5q0 244 -158 244q-71 0 -111 -63t-40 -170zM346 389q0 -326 184 -326q187 0 187 328q0 330 -187 330q-87 0 -135.5 -88.5t-48.5 -243.5z" />
    <glyph glyph-name="nine" unicode="9" horiz-adv-x="1062" 
d="M524 1374q98 0 176 -34.5t128.5 -92.5t83.5 -138.5t47 -166.5t14 -182q0 -111 -17.5 -217t-60.5 -211t-107.5 -182.5t-166.5 -126t-230 -48.5q-94 0 -182 43q-17 77 -43 148l24 4q94 -94 226 -94q141 0 218.5 145t82.5 410q-43 -52 -115 -79.5t-153 -27.5q-71 0 -137 24
t-121 70t-88 123t-33 174q0 218 118 338.5t336 120.5zM319 961q0 -160 50.5 -250t146.5 -90q197 0 197 344q0 153 -51 240t-150 87q-90 0 -141.5 -92.5t-51.5 -238.5z" />
    <glyph glyph-name="colon" unicode=":" horiz-adv-x="569" 
d="M285 287q58 0 101.5 -43.5t43.5 -102.5q0 -58 -43 -101.5t-102 -43.5q-61 0 -103.5 42.5t-42.5 102.5t43 103t103 43zM285 944q59 0 102 -43t43 -102q0 -58 -43 -102t-102 -44q-61 0 -103.5 43t-42.5 103t43 102.5t103 42.5z" />
    <glyph glyph-name="semicolon" unicode=";" horiz-adv-x="569" 
d="M285 944q59 0 102 -43t43 -102q0 -58 -43 -102t-102 -44q-61 0 -103.5 43t-42.5 103t43 102.5t103 42.5zM295 287q44 0 76 -28t32 -77q0 -51 -55 -135l-270 -412l-45 21l123 465q26 98 59 132t80 34z" />
    <glyph glyph-name="less" unicode="&#x3c;" horiz-adv-x="1366" 
d="M1196 1016v-144l-864 -364l864 -365v-143l-1026 436v144z" />
    <glyph glyph-name="equal" unicode="=" horiz-adv-x="1366" 
d="M152 852h1062v-133h-1062v133zM152 535h1062v-134h-1062v134z" />
    <glyph glyph-name="greater" unicode="&#x3e;" horiz-adv-x="1366" 
d="M170 872v144l1026 -436v-144l-1026 -436v143l864 365z" />
    <glyph glyph-name="question" unicode="?" horiz-adv-x="757" 
d="M336 1403q144 0 244 -81t100 -204q0 -30 -5 -58t-11 -49t-22 -48t-24.5 -41.5t-34.5 -43.5t-36 -40t-43.5 -45t-44.5 -45q-77 -80 -98 -114t-21 -67q0 -41 27.5 -67.5t68.5 -26.5q34 0 90 29l4 -4l-22 -76q-36 -14 -54.5 -17.5t-54.5 -3.5q-121 0 -190.5 64t-69.5 170
q0 66 32.5 132.5t135.5 166.5q97 95 123.5 136t26.5 93q0 71 -47 110.5t-127 39.5q-107 0 -164 -109h-19l-14 121q115 78 250 78zM326 287q57 0 101 -44t44 -102q0 -57 -43.5 -101t-101.5 -44q-61 0 -103.5 43.5t-42.5 101.5t43 102t103 44z" />
    <glyph glyph-name="at" unicode="@" horiz-adv-x="1638" 
d="M901 1425q192 0 343 -77t233 -209.5t82 -296.5q0 -151 -54.5 -278.5t-147 -201t-200.5 -73.5q-185 0 -199 162q-84 -162 -243 -162q-121 0 -188.5 77.5t-67.5 211.5q0 82 34 167t89.5 152.5t133 110.5t156.5 43q74 0 124 -32.5t67 -92.5l31 102h147q-154 -496 -154 -567
q0 -99 93 -99q69 0 139 63t116 171t46 225q0 240 -160.5 386.5t-429.5 146.5q-133 0 -256.5 -58t-213 -153.5t-143 -222.5t-53.5 -261q0 -282 168.5 -455t452.5 -173q275 0 522 170l33 -56q-136 -97 -280 -141.5t-328 -44.5q-150 0 -280.5 48t-226.5 134.5t-151 215.5
t-55 282q0 175 63 323t173 249t261 157.5t324 56.5zM618 526q0 -76 34.5 -120t95.5 -44q101 0 165 138q32 68 66.5 182t34.5 176q0 54 -31.5 86.5t-81.5 32.5q-68 0 -135.5 -75t-107.5 -180t-40 -196z" />
    <glyph glyph-name="A" unicode="A" horiz-adv-x="1327" 
d="M602 1425q29 -10 68 -10q35 0 65 10q179 -500 600 -1425q-133 12 -159 12q-34 0 -152 -12q-156 405 -172 444q-122 9 -260 9q-53 0 -150 -5l-98 -4q-120 -288 -164 -444q-71 12 -98 12q-17 0 -33 -2t-34 -5.5t-25 -4.5l223 496q209 465 282 640.5t107 288.5zM600 1073
l-209 -502q143 -8 213 -8q124 0 189 8z" />
    <glyph glyph-name="B" unicode="B" horiz-adv-x="1214" 
d="M168 1405q103 -10 182 -10q8 0 139 5t144 5q218 0 322 -82t104 -248q0 -121 -94.5 -207.5t-249.5 -111.5q214 -23 308.5 -111t94.5 -256q0 -125 -74 -217t-170.5 -132t-248.5 -40q-43 0 -129 5t-127 5q-39 0 -101 -4l-98 -6q14 352 14 733q0 417 -16 672zM436 1296
q-4 -90 -4 -147v-348q27 -4 82 -4q137 0 209 69.5t72 202.5q0 108 -58 171t-166 63q-29 0 -78 -3.5t-57 -3.5zM432 696v-417q0 -34 1 -73t2 -64.5t1 -26.5q82 -13 111 -13q301 0 301 295q0 157 -80.5 231t-261.5 74q-32 0 -74 -6z" />
    <glyph glyph-name="C" unicode="C" horiz-adv-x="1441" 
d="M903 1421q253 0 479 -102l-61 -201h-21q-94 193 -391 193q-253 0 -388.5 -160.5t-135.5 -454.5q0 -142 39 -258.5t106 -193t156 -118.5t191 -42q145 0 260 54.5t217 178.5l22 -14l-22 -203q-229 -129 -516 -129q-157 0 -291 49t-232.5 138.5t-154.5 224t-56 297.5
q0 161 51 295.5t149 234.5t251.5 155.5t347.5 55.5z" />
    <glyph glyph-name="D" unicode="D" horiz-adv-x="1593" 
d="M170 1405q141 -10 172 -10q49 0 167.5 5t180.5 5q242 0 379 -45q203 -68 311.5 -232.5t108.5 -386.5q0 -339 -199 -540t-534 -201q-58 0 -194 5t-195 5q-36 0 -197 -10q1 41 7.5 218.5t6.5 273.5v464q0 93 -14 449zM446 1286q-10 -156 -10 -235v-666q0 -31 5 -145t5 -121
q118 -10 267 -10q99 0 186.5 39.5t157.5 114.5t110.5 196.5t40.5 273.5q0 261 -142 412t-413 151q-94 0 -207 -10z" />
    <glyph glyph-name="E" unicode="E" horiz-adv-x="1024" 
d="M170 1405q199 -12 369 -12q53 0 379 12q-11 -40 -11 -68q0 -40 11 -73q-41 1 -123 6t-123 6q-82 2 -232 2v-481q343 0 443 14q-11 -37 -11 -74q0 -40 11 -69q-167 14 -443 14v-555q236 0 490 14q-10 -23 -10 -67q0 -45 10 -74q-188 12 -375 12q-167 0 -385 -12
q18 326 18 715q0 417 -18 690z" />
    <glyph glyph-name="F" unicode="F" horiz-adv-x="1024" 
d="M178 1405q210 -12 389 -12q73 0 385 12q-10 -41 -10 -78q0 -36 10 -67q-327 18 -501 18v-477h167q142 0 302 10q-11 -37 -11 -68q0 -15 11 -69q-230 8 -306 8h-163v-500q0 -134 10 -182q-56 12 -146 12q-73 0 -135 -12q19 393 19 680q0 317 -21 725z" />
    <glyph glyph-name="G" unicode="G" horiz-adv-x="1593" 
d="M903 1421q253 0 479 -102l-61 -201h-21q-94 193 -391 193q-253 0 -388.5 -160.5t-135.5 -456.5q0 -268 131 -434q136 -176 367 -176q171 0 288 74q0 8 3.5 87t3.5 95q0 106 -13 305q82 -14 146 -14q46 0 129 14q-17 -89 -17 -350q0 -103 7 -180q-124 -66 -283 -105
t-311 -39q-205 0 -370 82.5t-263.5 243t-98.5 371.5q0 165 50 301.5t147 238t250.5 157.5t351.5 56z" />
    <glyph glyph-name="H" unicode="H" horiz-adv-x="1554" 
d="M166 1405q92 -12 147 -12q14 0 72.5 4.5t69.5 7.5q-19 -170 -19 -584q131 -8 312 -8q74 0 222 4l148 4q0 383 -14 584q86 -12 149 -12q12 0 69.5 4.5t74.5 7.5q-29 -199 -29 -924q0 -349 21 -481q-16 1 -47.5 4.5t-56.5 5.5t-46 2q-10 0 -139 -12q0 3 4 78t8 158.5
t4 107.5l2 346q-164 8 -332 8q-68 0 -202 -4t-148 -4v-241q0 -238 19 -449l-60 6q-37 6 -82 6q-30 0 -81.5 -5.5t-63.5 -6.5q18 350 18 913q0 261 -20 492z" />
    <glyph glyph-name="I" unicode="I" horiz-adv-x="645" 
d="M178 1405q87 -12 148 -12q58 0 143 12q-23 -144 -23 -559q0 -273 2.5 -435t6 -229.5t12.5 -181.5q-117 12 -143 12t-81.5 -5.5t-66.5 -6.5q23 259 23 803q0 465 -21 602z" />
    <glyph glyph-name="J" unicode="J" horiz-adv-x="645" 
d="M199 1405q98 -12 149 -12q41 0 139 12q-1 -18 -5 -89.5t-5.5 -115.5t-3.5 -149.5t-2 -239.5q0 -29 -1 -170.5t-1 -216.5q0 -35 1 -101t1 -94q0 -164 -31 -252q-16 -44 -35 -78t-54 -70.5t-81.5 -62t-119 -45t-164.5 -26.5l-15 98q153 15 203 109q27 51 34 130.5t7 227.5
v797q0 138 -16 348z" />
    <glyph glyph-name="K" unicode="K" horiz-adv-x="1327" 
d="M164 1405q118 -12 143 -12q61 0 144 12q-9 -46 -14 -211.5t-5 -247.5v-190q168 145 359 354q198 217 253 295q37 -12 99 -12q65 0 135 12q-119 -101 -311 -287t-308 -317q288 -381 430 -553.5t222 -247.5q-91 12 -168 12q-45 0 -103 -5.5t-86 -6.5q-162 232 -280.5 383.5
t-241.5 286.5q0 -439 19 -670q-102 12 -144 12q-51 0 -143 -12q18 366 18 629v424q0 152 -18 352z" />
    <glyph glyph-name="L" unicode="L" horiz-adv-x="1024" 
d="M176 1405q50 -12 139 -12q67 0 146 12q-21 -538 -21 -797q0 -235 6 -475h52q147 0 284 5.5t176 13.5q-10 -31 -10 -80q0 -33 10 -72q-96 4 -182 6.5t-142 3.5t-71 2q-159 0 -387 -12q2 76 8 284t6 269v367q0 10 -3 111.5t-6.5 219.5t-4.5 154z" />
    <glyph glyph-name="M" unicode="M" horiz-adv-x="1857" 
d="M283 1405q21 -6 49 -6q7 0 43 6l59 -121q125 -252 205.5 -403t296.5 -535q304 528 567 1059q36 -6 45 -6q22 0 43 6l39 -397q14 -144 68.5 -541.5t73.5 -466.5q-101 12 -150 12q-36 0 -137 -12q-19 284 -58 623q-11 97 -18.5 168t-10.5 104.5t-3 34.5
q-132 -225 -276 -497t-212 -433q-14 4 -41 4q-8 0 -21 -2t-18 -2q-16 37 -165 317q-20 38 -80 150t-90 167t-74.5 136t-77.5 137q-68 -544 -86 -907q-10 1 -44 6.5t-50 5.5q-36 0 -86 -12q29 128 109.5 671.5t99.5 733.5z" />
    <glyph glyph-name="N" unicode="N" horiz-adv-x="1554" 
d="M184 578q0 119 -2 426.5t-2 400.5q18 -4 49 -4q15 0 47 4q286 -313 525 -549l342 -336q40 -40 102 -88v477q0 253 -24 496q46 -12 88 -12q45 0 86 12q-23 -289 -23 -709q0 -240 4 -706q-18 4 -43 4q-13 0 -41 -4q-210 225 -499.5 516t-481.5 467q0 -740 25 -973
q-64 12 -92 12q-36 0 -82 -12q22 323 22 578z" />
    <glyph glyph-name="O" unicode="O" horiz-adv-x="1744" 
d="M879 1421q343 0 550 -189.5t207 -508.5q0 -166 -54.5 -305.5t-151.5 -238t-237.5 -153.5t-307.5 -55q-165 0 -307 47t-246 134t-163.5 218.5t-59.5 291.5q0 186 58 332t161.5 238.5t243 140.5t307.5 48zM389 696q0 -181 54.5 -319.5t165 -219.5t263.5 -81q218 0 351 169
t133 451q0 300 -124.5 460.5t-361.5 160.5q-113 0 -205 -49.5t-152 -134.5t-92 -197t-32 -240z" />
    <glyph glyph-name="P" unicode="P" horiz-adv-x="1175" 
d="M190 313l5 691q0 68 -15 401q78 -10 199 -10q14 0 154.5 5t158.5 5q100 0 179.5 -29t129.5 -78.5t76.5 -114.5t26.5 -139q0 -196 -133.5 -309.5t-382.5 -113.5q-44 0 -142 8v-332q0 -143 15 -297q-77 12 -144 12q-77 0 -141 -12q14 247 14 313zM446 1296v-567
q63 -8 111 -8q133 0 208 87.5t75 217.5q0 132 -66 205.5t-188 73.5q-58 0 -140 -9z" />
    <glyph glyph-name="Q" unicode="Q" horiz-adv-x="1744" 
d="M874 1421q163 0 302.5 -48t240.5 -135.5t158 -216.5t57 -284q0 -262 -118.5 -448.5t-344.5 -268.5l463 -286q-141 -66 -227 -127l-469 366q-12 -2 -31 -2q-183 0 -291 27q-232 60 -371 246t-139 430q0 145 38 266.5t106.5 209.5t164.5 149.5t212 91.5t249 30zM385 684
q0 -281 132.5 -444.5t348.5 -163.5q252 0 389 219q97 156 97 432q0 269 -128 429.5t-356 160.5q-215 0 -349 -171t-134 -462z" />
    <glyph glyph-name="R" unicode="R" horiz-adv-x="1290" 
d="M180 1405q78 -10 201 -10q21 0 183 5t177 5q88 0 157.5 -19.5t114 -52t73.5 -76.5t41 -90.5t12 -97.5q0 -143 -94 -242t-263 -131l140 -200q14 -20 63.5 -90t141 -192.5t165.5 -213.5q-111 12 -182 12q-58 0 -166 -12q-9 14 -57.5 94.5t-134 206t-256.5 367.5h-50v-299
q0 -19 4.5 -184.5t4.5 -184.5q-13 1 -41 4.5t-51 5.5t-46 2q-47 0 -141 -12q19 492 19 639v352q0 129 -15 414zM446 1294v-530q126 -6 140 -6q132 0 207 78.5t75 203.5t-61.5 193t-208.5 72q-48 0 -152 -11z" />
    <glyph glyph-name="S" unicode="S" horiz-adv-x="1099" 
d="M596 1421q86 0 162 -18.5t178 -65.5q-52 -132 -64 -194h-28q-24 85 -96 131.5t-173 46.5q-111 0 -176 -61t-65 -160q0 -63 23 -104.5t89.5 -81t192.5 -83.5q105 -36 169 -71.5t103 -83.5q86 -106 86 -256q0 -192 -138 -320.5t-363 -128.5q-105 0 -196.5 23t-205.5 82
q25 80 31.5 112t15.5 117h29q55 -119 125.5 -176t189.5 -57q122 0 196.5 72t74.5 184q0 84 -45.5 146t-159.5 106l-98 38q-92 36 -149.5 68.5t-102 78t-63.5 105t-19 142.5q0 186 126 297.5t351 111.5z" />
    <glyph glyph-name="T" unicode="T" horiz-adv-x="1138" 
d="M16 1405q228 -12 549 -12q301 0 545 12q-10 -52 -10 -80q0 -23 10 -72q-154 15 -408 15q-4 -86 -4 -203v-807q0 -132 15 -258q-118 12 -152 12q-7 0 -19.5 -1t-47 -4.5t-70.5 -6.5q0 16 10 189.5t10 279.5l-2 602q0 79 -4 197h-39q-214 0 -383 -15q11 50 11 76
q0 39 -11 76z" />
    <glyph glyph-name="U" unicode="U" horiz-adv-x="1478" 
d="M156 1405q94 -12 143 -12q59 0 133 12q-12 -300 -12 -506v-225q0 -196 8 -277q13 -138 109 -209t260 -71q96 0 177.5 37t125.5 100t54.5 134t10.5 233q0 473 -18 784q45 -12 92 -12q54 0 96 12q-4 -54 -18 -490q-3 -84 -4.5 -226.5t-4 -204.5t-17.5 -141t-44 -132
q-59 -107 -191.5 -171.5t-299.5 -64.5q-280 0 -435 123t-155 353v610q0 190 -10 344z" />
    <glyph glyph-name="V" unicode="V" horiz-adv-x="1290" 
d="M-8 1405q61 -12 164 -12q43 0 153 12q57 -202 184 -536.5t222 -534.5q281 688 405 1071q78 -12 94 -12q21 0 99 12q-96 -190 -276.5 -614t-309.5 -791q-49 12 -78 12q-22 0 -92 -12q-112 320 -149 408l-150 362q-43 105 -76.5 187.5t-42.5 106t-29 71t-42.5 98.5
t-75.5 172z" />
    <glyph glyph-name="W" unicode="W" horiz-adv-x="2048" 
d="M14 1405q99 -12 160 -12q60 0 143 12q58 -223 213 -684l119 -356q66 161 194 539t156 501q64 -12 93 -12q22 0 88 12q36 -115 86 -278t72.5 -232.5t71 -208.5t118.5 -328q203 527 338 1047q50 -12 94 -12q40 0 92 12q-108 -260 -253.5 -665t-252.5 -740q-62 12 -82 12
t-88 -12q-100 320 -121 381l-106 313q-75 221 -125 355q-263 -723 -356 -1049q-58 12 -78 12q-18 0 -84 -12l-51 156q-223 678 -441 1249z" />
    <glyph glyph-name="X" unicode="X" horiz-adv-x="1251" 
d="M301 1030l-238 375q19 -3 80.5 -7.5t85.5 -4.5q54 0 162 12q129 -285 273 -518q148 228 149 229l170 289q61 -12 111 -12q25 0 98 12q-156 -196 -457 -637q113 -195 268 -445.5t207 -322.5q-143 12 -178 12q-38 0 -158 -12l-83 172q-81 165 -207 379q-22 -31 -54 -76
t-40.5 -56.5t-33 -47.5t-35 -54t-42.5 -70.5t-61 -102t-85 -144.5q-79 12 -106 12q-31 0 -96 -12l481 672q-142 247 -211 358z" />
    <glyph glyph-name="Y" unicode="Y" horiz-adv-x="1214" 
d="M-27 1405q132 -12 170 -12q90 0 166 12q124 -258 193 -391t166 -301q111 190 172.5 309t181.5 383q58 -12 119 -12q45 0 86 12q-59 -99 -170 -277q-95 -155 -176 -297t-114.5 -205.5t-35.5 -70.5q0 -207 2 -270l12 -285q-16 1 -45 4.5t-52.5 5.5t-43.5 2q-8 0 -137 -12
q12 390 12 555q-200 343 -506 850z" />
    <glyph glyph-name="Z" unicode="Z" horiz-adv-x="1251" 
d="M102 1405q92 -12 641 -12q306 0 463 12q4 -14 4 -35q-3 -23 -30 -59l-103 -142l-63 -92q-8 -12 -32.5 -44.5t-35.5 -51.5l-332 -498q-149 -219 -221 -346h213q127 0 338 14t258 15l-6 -39q-4 -20 -4 -45q0 -53 10 -82q-237 12 -538 12h-347q-95 0 -301 -12v66l283 385
l233 352q226 345 295 465q-433 0 -725 -23q7 62 7 80q0 39 -7 80z" />
    <glyph glyph-name="bracketleft" unicode="[" horiz-adv-x="645" 
d="M156 1448q105 -6 241 -6q94 0 187 6q-9 -27 -9 -43q0 -13 9 -51q-123 6 -219 6q-15 -356 -15 -582v-610q0 -93 10 -313q146 0 224 4q-9 -33 -9 -43q0 -14 9 -49q-108 6 -207 6q-133 0 -215 -6q14 308 14 471v796q0 114 -20 414z" />
    <glyph glyph-name="backslash" unicode="\" horiz-adv-x="796" 
d="M49 1448h135l564 -1509h-136z" />
    <glyph glyph-name="bracketright" unicode="]" horiz-adv-x="645" 
d="M489 1448q-20 -300 -20 -414v-796q0 -163 14 -471q-83 6 -215 6q-99 0 -207 -6q9 35 9 49q0 10 -9 43q78 -4 224 -4q10 220 10 313v610q0 250 -14 582q-97 0 -220 -6q9 38 9 51q0 16 -9 43q93 -6 187 -6q136 0 241 6z" />
    <glyph glyph-name="asciicircum" unicode="^" horiz-adv-x="1366" 
d="M608 1368h148l397 -850h-154l-317 688l-317 -688h-154z" />
    <glyph glyph-name="underscore" unicode="_" horiz-adv-x="1024" 
d="M0 -154h1024v-102h-1024v102z" />
    <glyph glyph-name="grave" unicode="`" 
d="M35 1516q51 0 100 -54l291 -313h-104l-324 201q-30 19 -41.5 36t-11.5 46q0 36 28.5 60t61.5 24z" />
    <glyph glyph-name="a" unicode="a" horiz-adv-x="1024" 
d="M479 999q175 0 274 -81t99 -232q0 -54 -3 -205t-3 -231q0 -89 15 -123.5t57 -34.5q14 0 57 17q-8 -19 -8 -39q0 -7 4 -20.5t4 -14.5q-112 -45 -174 -45q-70 0 -108 27t-62 98q-48 -64 -122 -102t-155 -38q-133 0 -206.5 71.5t-73.5 182.5q0 59 13 104t38 74t47 45t53 31
q50 25 181 58q186 50 198 59q25 15 25 57q0 104 -52 160.5t-149 56.5q-85 0 -142.5 -39t-76.5 -106q-12 4 -39 4q-13 0 -25 -4q11 69 11 113q0 33 -2 43q119 71 180.5 92.5t144.5 21.5zM305 276q0 -81 36.5 -128.5t98.5 -47.5q78 0 130.5 56t52.5 135v217q-5 -1 -29.5 -7.5
t-49 -13.5t-26.5 -8q-60 -16 -97 -31.5t-65 -39t-39.5 -55t-11.5 -77.5z" />
    <glyph glyph-name="b" unicode="b" horiz-adv-x="1214" 
d="M127 1518q70 -13 135 -13q50 0 127 13q-13 -254 -16 -693q127 174 313 174q82 0 157.5 -30t137 -87.5t98.5 -152.5t37 -215q0 -147 -55.5 -268.5t-163.5 -196t-248 -74.5q-115 0 -189.5 34.5t-129.5 109.5q-40 -25 -62 -46t-67 -73h-70q14 261 17.5 371.5t3.5 355.5
q0 381 -25 791zM369 473q0 -403 243 -403q122 0 186 112t64 312q0 380 -248 380q-118 0 -181.5 -100.5t-63.5 -300.5z" />
    <glyph glyph-name="c" unicode="c" horiz-adv-x="985" 
d="M631 999q151 0 313 -71q-37 -81 -47 -193h-39q-22 79 -79.5 124.5t-137.5 45.5q-61 0 -123.5 -31.5t-101.5 -97.5q-58 -92 -58 -258q0 -206 79.5 -317t226.5 -111q68 0 122 25.5t127 95.5l33 -18q-6 -9 -10.5 -18t-8 -20.5t-6 -19.5t-5.5 -22.5t-4 -20t-3.5 -22.5
t-3.5 -21q-142 -74 -303 -74q-117 0 -214.5 41.5t-161 111t-98 158.5t-34.5 185q0 235 144 381.5t393 146.5z" />
    <glyph glyph-name="d" unicode="d" horiz-adv-x="1214" 
d="M819 1518q76 -13 144 -13q74 0 118 13q-22 -369 -22 -746q0 -204 7 -457t15 -315q-70 12 -116 12q-24 0 -44 -2t-42 -5.5t-33 -4.5l6 141q-55 -80 -135.5 -125t-175.5 -45q-196 0 -322.5 143.5t-126.5 356.5q0 238 126.5 380t332.5 142q88 0 155 -29.5t138 -105.5
q0 473 -25 660zM348 512q0 -201 61 -309.5t181 -108.5q122 0 188 104t66 296q0 391 -246 391q-120 0 -185 -101t-65 -272z" />
    <glyph glyph-name="e" unicode="e" horiz-adv-x="1099" 
d="M567 997q226 0 333 -117t112 -358v-39h-674q0 -192 84 -289.5t242 -97.5q74 0 157 36.5t133 92.5l23 -14q-16 -36 -35 -131q-51 -44 -146 -74.5t-188 -30.5q-113 0 -206 31.5t-163.5 94t-109.5 164.5t-39 235q0 230 133.5 363.5t343.5 133.5zM342 584h432v18
q0 162 -51.5 237.5t-155.5 75.5q-105 0 -162.5 -86t-62.5 -245z" />
    <glyph glyph-name="f" unicode="f" horiz-adv-x="645" 
d="M625 1530q12 0 53 -8q-16 -56 -16 -133q0 -24 1 -48.5t1 -29.5l-15 -13q-57 41 -151 41q-138 0 -138 -131q0 -60 58 -241q136 0 217 8q-8 -33 -8 -55q0 -32 8 -56q-35 6 -213 6v-49q0 -179 6.5 -468.5t13.5 -352.5q-111 12 -129 12q-27 0 -133 -12q21 92 21 567
q0 50 -1 151.5t-1 151.5q-69 0 -156 -6q6 42 6 56q0 16 -2 24l-4 31q70 -8 156 -8q9 90 15.5 133t27.5 104t59 125q122 201 324 201z" />
    <glyph glyph-name="g" unicode="g" horiz-adv-x="1062" 
d="M485 995q52 0 157 -16t200 -16q110 0 168 10q-6 -47 -6 -53q0 -20 6 -62q-95 8 -199 14q51 -51 74.5 -100t23.5 -127q0 -133 -96 -209t-238 -86q-31 -2 -161 -6q-97 -3 -97 -88q0 -53 35 -77.5t129 -24.5q175 0 250.5 -5.5t130.5 -25.5q69 -25 109.5 -87t40.5 -145
q0 -124 -70 -224t-185 -154t-249 -54q-207 0 -330 74t-123 209q0 210 221 254q-66 20 -105.5 66t-39.5 98q0 84 46 133t138 80q-227 80 -227 286q0 153 107.5 244.5t289.5 91.5zM326 670q0 -141 43 -197.5t133 -56.5q79 0 125.5 68t46.5 190q0 116 -45 178.5t-129 62.5
q-174 0 -174 -245zM227 -221q0 -106 74 -165.5t205 -59.5q134 0 225.5 65.5t91.5 177.5q0 91 -69.5 135.5t-241.5 44.5q-139 0 -203 -40q-82 -52 -82 -158z" />
    <glyph glyph-name="h" unicode="h" horiz-adv-x="1175" 
d="M135 1518q76 -13 139 -13q56 0 123 13q-18 -260 -18 -492v-201q117 168 319 168q174 0 263 -106q41 -51 55 -104t14 -173q0 -27 -2 -108.5t-2 -118.5q0 -188 12 -383q-62 12 -127 12q-43 0 -137 -12q23 247 23 442v123q0 37 -5.5 91t-13.5 75q-24 63 -71 89t-97 26
q-142 0 -194 -105q-37 -70 -37 -237v-234q0 -117 10 -270q-73 12 -129 12q-26 0 -125 -12q17 313 17 559l-2 619q0 92 -7 204.5t-8 135.5z" />
    <glyph glyph-name="i" unicode="i" 
d="M262 1456q59 0 101.5 -44t42.5 -99q0 -56 -43.5 -99t-100.5 -43t-99 42.5t-42 99.5q0 56 42.5 99.5t98.5 43.5zM131 983q82 -12 137 -12q53 0 127 12q-16 -340 -16 -444q0 -21 1.5 -113.5t5 -227.5t7.5 -198q-89 12 -119 12q-53 0 -139 -12q17 332 17 475q0 104 -6.5 267
t-14.5 241z" />
    <glyph glyph-name="j" unicode="j" 
d="M285 1456q56 0 98.5 -43.5t42.5 -99.5t-42 -99t-99 -43t-100.5 43t-43.5 99q0 55 42.5 99t101.5 44zM152 983q65 -12 133 -12q55 0 133 12q-17 -296 -17 -473q0 -49 2.5 -241.5t2.5 -209.5q0 -26 -7 -198q-5 -145 -55 -217q-51 -71 -131.5 -112.5t-230.5 -70.5l-23 78
q96 18 133 55q42 40 60 121t18 252q0 797 -18 1016z" />
    <glyph glyph-name="k" unicode="k" horiz-adv-x="1099" 
d="M139 1518q67 -13 142 -13q72 0 125 13q-21 -244 -21 -754q0 -159 2 -187t14 -28q26 0 165.5 156.5t230.5 277.5q13 -3 65 -7.5t70 -4.5q66 0 106 12l4 -12q-164 -133 -421 -365l260 -360q157 -216 188 -236l-2 -10q-152 12 -190 12q-18 0 -47 -2.5t-58.5 -5.5t-36.5 -4
q-8 14 -26.5 43.5t-34.5 56.5q-40 69 -100 159.5t-102 151t-48 64.5q-10 10 -23 10q-8 0 -11 -8t-3 -33q0 -352 10 -444q-62 12 -121 12q-45 0 -135 -12q15 218 15 346q0 84 2 272.5t2 255.5q0 415 -21 644z" />
    <glyph glyph-name="l" unicode="l" 
d="M129 1518q88 -13 141 -13q55 0 131 13q-20 -212 -20 -705q0 -627 18 -813q-13 1 -39.5 4.5t-47.5 5.5t-38 2q-43 0 -141 -12q21 360 21 754q0 243 -8 465.5t-17 298.5z" />
    <glyph glyph-name="m" unicode="m" horiz-adv-x="1781" 
d="M686 991q109 0 182 -43.5t119 -146.5q124 190 334 190q144 0 227.5 -84t83.5 -207q0 -48 -3 -166t-3 -161q0 -120 4.5 -240.5t7.5 -132.5q-22 2 -64 7t-65 5q-45 0 -127 -12q17 197 17 346v250q0 250 -178 250q-115 0 -164 -79.5t-51 -250.5l-2 -135q0 -115 14 -381
q-12 1 -55.5 6.5t-69.5 5.5q-24 0 -64.5 -5t-68.5 -7q16 115 16 383v182q0 155 -43.5 218t-152.5 63q-47 0 -91.5 -27.5t-70.5 -75.5q-37 -70 -37 -239v-248q0 -76 10 -256q-13 1 -36.5 4.5t-43 5.5t-37.5 2q-52 0 -135 -12q15 255 15 395q0 364 -17 588q102 -12 142 -12
q47 0 108 12q-10 -54 -12 -182q111 190 311 190z" />
    <glyph glyph-name="n" unicode="n" horiz-adv-x="1175" 
d="M690 993q165 0 253.5 -90t88.5 -258q0 -7 -4 -180.5t-4 -212.5q0 -170 14 -252q-8 1 -57 6.5t-76 5.5q-10 0 -133 -12q25 159 25 434q0 162 -7 231t-28 103q-52 84 -168 84q-46 0 -96 -26t-76 -70q-47 -79 -47 -303q0 -305 14 -453q-20 1 -71 6.5t-60 5.5q-50 0 -127 -12
q21 281 21 602q0 220 -17 381q76 -12 133 -12q50 0 115 12q-10 -52 -10 -109v-63q72 100 142.5 141t174.5 41z" />
    <glyph glyph-name="o" unicode="o" horiz-adv-x="1214" 
d="M606 997q244 0 379 -135t135 -377q0 -236 -138 -373t-376 -137q-236 0 -375 138t-139 372t140.5 373t373.5 139zM348 487q0 -213 66 -321.5t192 -108.5q125 0 191.5 108.5t66.5 321.5q0 211 -65.5 319.5t-194.5 108.5q-123 0 -189.5 -108t-66.5 -320z" />
    <glyph glyph-name="p" unicode="p" horiz-adv-x="1214" 
d="M682 1012q128 0 230 -71.5t156 -186t54 -246.5q0 -147 -52.5 -263t-158 -185.5t-249.5 -69.5q-93 0 -162 32.5t-129 100.5q0 -452 22 -655q-61 12 -135 12q-50 0 -127 -12q25 304 25 774q0 491 -23 741q98 -12 125 -12q32 0 111 12l-7 -143q123 172 320 172zM371 492
q0 -193 64.5 -294.5t191.5 -101.5q114 0 176.5 105t62.5 280q0 195 -63.5 300.5t-186.5 105.5q-115 0 -180 -107.5t-65 -287.5z" />
    <glyph glyph-name="q" unicode="q" horiz-adv-x="1214" 
d="M532 1012q193 0 316 -172l-6 143q86 -12 112 -12q43 0 121 12q-18 -252 -18 -733q0 -553 22 -782q-49 12 -129 12q-74 0 -135 -12q22 169 25 657q-78 -78 -140.5 -106.5t-148.5 -28.5q-145 0 -251.5 69.5t-159 185t-52.5 261.5q0 219 125.5 362.5t318.5 143.5zM344 469
q0 -170 62.5 -271.5t175.5 -101.5q129 0 197.5 102.5t68.5 290.5q0 181 -69.5 289.5t-190.5 108.5q-244 0 -244 -418z" />
    <glyph glyph-name="r" unicode="r" horiz-adv-x="757" 
d="M680 993q11 0 53 -6q-18 -32 -18 -147q0 -50 10 -88l-14 -11q-37 29 -121 29q-115 0 -176 -100q-31 -48 -31 -195q0 -115 6 -272t12 -203q-11 0 -53 6t-65 6q-4 0 -142 -12q3 121 8 204t5 103v121q0 355 -15 555q83 -12 135 -12q64 0 117 12q-12 -98 -12 -168v-47
q78 126 144 174t157 51z" />
    <glyph glyph-name="s" unicode="s" horiz-adv-x="833" 
d="M436 997q134 0 275 -61q-25 -49 -34.5 -84t-17.5 -98h-32q-36 78 -81.5 110.5t-115.5 32.5q-74 0 -120 -36.5t-46 -98.5q0 -27 11 -48.5t27.5 -36.5t51.5 -31t66 -26t88 -28q140 -42 198 -111t58 -172q0 -44 -14 -90t-44.5 -91t-75 -79.5t-111 -56t-146.5 -21.5
q-70 0 -134.5 16.5t-168.5 63.5q32 79 36 111l9 69h37q34 -83 95.5 -119t153.5 -36q71 0 113.5 41t42.5 104q0 79 -98 119q-91 37 -164 61q-117 39 -166 108.5t-49 172.5q0 142 96.5 228.5t259.5 86.5z" />
    <glyph glyph-name="t" unicode="t" horiz-adv-x="681" 
d="M432 1343l14 -6q-6 -15 -10 -161l-4 -209q133 0 217 8q-6 -37 -6 -51q0 -35 6 -62q-88 8 -223 8q0 -47 -3 -188t-3 -211q0 -104 3.5 -166t11.5 -109.5t26.5 -69t43.5 -31t66 -9.5q62 0 119 43q-8 -33 -8 -49q0 -19 2 -25l6 -22q-43 -24 -112.5 -42t-118.5 -18t-100 13.5
t-83 38.5q-88 69 -88 225q0 33 2 127q10 400 11 493q-105 0 -158 -6q6 30 6 45q0 35 -6 66q39 -8 160 -8q0 155 -4 233q83 38 150 81.5t83 61.5z" />
    <glyph glyph-name="u" unicode="u" horiz-adv-x="1175" 
d="M137 983q74 -12 131 -12q62 0 133 12q-10 -40 -17 -182t-7 -264q0 -232 16 -281q15 -55 64 -91t114 -36q37 0 71 10t69.5 39t54.5 74q33 76 33 235q0 370 -15 496q78 -12 119 -12q57 0 139 12q-20 -321 -20 -557q0 -223 16 -426q-28 2 -67.5 7t-61.5 5q-30 0 -116 -12
q8 57 8 90v76q-71 -99 -151.5 -144t-180.5 -45q-64 0 -120.5 20t-104 60.5t-75.5 112.5t-28 166q0 58 4.5 207t4.5 225q0 109 -13 215z" />
    <glyph glyph-name="v" unicode="v" horiz-adv-x="1024" 
d="M31 983q86 -12 141 -12q71 0 137 12q16 -50 43.5 -136t47 -145t36.5 -106l135 -365q75 193 156 445.5t90 306.5q46 -12 84 -12q45 0 98 12l-118 -266q-87 -197 -178.5 -430.5t-102.5 -296.5q-47 12 -86 12q-42 0 -104 -12q-50 167 -74 227z" />
    <glyph glyph-name="w" unicode="w" horiz-adv-x="1630" 
d="M31 983q77 -12 141 -12q70 0 135 12l58 -197q6 -21 172 -544q35 97 67.5 191t60.5 183t44 141t40 133.5t27 92.5q46 -12 82 -12q46 0 98 12q132 -466 238 -737q114 296 236 737q53 -12 90 -12q34 0 86 12l-185 -457q-143 -356 -196 -536q-47 12 -82 12q-43 0 -105 -12
q-61 203 -100 323.5t-71 213.5t-56 169q-4 -6 -55 -151l-123 -348q-14 -40 -23.5 -72t-20.5 -74t-16 -61q-30 12 -79 12q-52 0 -105 -12l-80 264q-69 230 -278 729z" />
    <glyph glyph-name="x" unicode="x" horiz-adv-x="1024" 
d="M217 745l-168 238q74 -12 154 -12q53 0 135 12l43 -76q14 -27 47 -78l121 -188q73 101 113.5 163t107.5 179q47 -12 84 -12q29 0 53 6l54 6l-105 -123q-131 -152 -250 -305q63 -101 170 -254l211 -301q-30 2 -77 7t-68 5q-19 0 -142 -12q-89 150 -229 365
q-97 -125 -238 -365q-55 12 -86 12q-16 0 -34.5 -2t-41 -5.5t-34.5 -4.5q30 37 116 139.5t156.5 188t100.5 127.5q-51 90 -193 290z" />
    <glyph glyph-name="y" unicode="y" horiz-adv-x="1024" 
d="M160 971q39 0 141 12q41 -129 122.5 -346t151.5 -377q53 121 115 291q38 107 63 183.5t46.5 147.5t31.5 101q59 -12 91 -12q31 0 92 12q-101 -199 -352 -782q-229 -533 -279 -729q-59 12 -92 12q-35 0 -94 -12q63 101 127 227l135 264q-6 28 -107 264q-96 224 -336 756
q91 -12 144 -12z" />
    <glyph glyph-name="z" unicode="z" horiz-adv-x="985" 
d="M96 981q90 -12 363 -12h205q195 0 256 12v-70q-149 -189 -313 -427t-232 -359h57q373 0 492 14q-11 -43 -11 -78q0 -29 7 -61q-431 12 -447 12q-247 0 -434 -12v63q194 244 563 793h-18q-218 0 -488 -20q6 54 6 65q0 15 -3 44t-3 36z" />
    <glyph glyph-name="braceleft" unicode="{" horiz-adv-x="819" 
d="M760 1475v-89q-129 -6 -191.5 -69t-62.5 -203v-180q0 -161 -68.5 -236.5t-208.5 -91.5q150 -18 213.5 -94.5t63.5 -226.5v-189q0 -75 19 -128t55 -82t79 -43t101 -17v-88q-243 8 -340 108q-46 46 -67 116t-21 208v90q0 116 -26.5 180t-83.5 91.5t-161 31.5v86
q139 1 204 70t67 211l2 194q1 176 106 261t320 90z" />
    <glyph glyph-name="bar" unicode="|" horiz-adv-x="454" 
d="M154 1536h147v-2048h-147v2048z" />
    <glyph glyph-name="braceright" unicode="}" horiz-adv-x="819" 
d="M59 -262v88q129 6 191.5 69t62.5 203v181q0 160 68.5 235.5t208.5 91.5q-150 18 -213.5 94.5t-63.5 227.5v188q0 75 -19 128t-55 82t-79 43t-101 17v89q242 -8 340 -109q46 -46 67 -116t21 -208v-90q0 -116 26.5 -180t83.5 -91.5t161 -31.5v-86q-139 -1 -204 -69.5
t-67 -210.5l-2 -195q-1 -176 -106 -260.5t-320 -89.5z" />
    <glyph glyph-name="asciitilde" unicode="~" horiz-adv-x="1366" 
d="M1145 670h102q-11 -137 -83.5 -220t-182.5 -83q-97 0 -303 77q-116 43 -180.5 61.5t-114.5 18.5q-64 0 -109.5 -45.5t-52.5 -124.5h-102q11 137 83.5 220t182.5 83q87 0 203 -41l219 -77q112 -39 178 -39q65 0 106.5 43t53.5 127z" />
    <glyph glyph-name="uni00A0" unicode="&#xa0;" horiz-adv-x="532" 
 />
    <glyph glyph-name="exclamdown" unicode="&#xa1;" horiz-adv-x="569" 
d="M281 -420q-57 0 -95.5 43t-38.5 107t9 129l110 739h43l92 -664q19 -140 19 -192q0 -79 -38 -120.5t-101 -41.5zM279 705q-58 0 -102 43t-44 102t44 102t102 43q60 0 102.5 -43.5t42.5 -101.5t-42.5 -101.5t-102.5 -43.5z" />
    <glyph glyph-name="cent" unicode="&#xa2;" horiz-adv-x="1062" 
d="M713 995l69 230l92 -23l-69 -225q37 -9 139 -49q-35 -72 -47 -193h-39q-24 84 -86 131l-231 -749q63 -27 125 -27q65 0 119.5 25.5t127.5 95.5l33 -18q-14 -20 -22.5 -47.5t-18.5 -96.5q-142 -74 -303 -74q-50 0 -100 9l-80 -258l-90 22l80 260q-145 50 -231.5 179.5
t-86.5 287.5q0 149 61.5 266.5t185 187.5t290.5 70q36 0 82 -4zM358 510q0 -238 103 -338l223 729q-16 4 -45 4q-133 0 -207 -105t-74 -290z" />
    <glyph glyph-name="sterling" unicode="&#xa3;" horiz-adv-x="1062" 
d="M727 1403q114 0 279 -53l-19 -95q-14 -71 -20 -122h-19q-51 101 -101.5 138.5t-125.5 37.5q-74 0 -127 -47q-49 -42 -66.5 -98t-17.5 -165q0 -4 1 -88t1 -88v-55h45q127 0 262 10q-8 -43 -8 -61q0 -28 8 -64q-125 13 -307 13q-7 -160 -43 -256q-41 -111 -156 -197h369
q185 0 338 14l-6 -51q-4 -36 -4 -57q0 -11 10 -119q-197 14 -463 14q-348 0 -494 -14q11 50 11 88q0 36 -11 90h17q109 0 158 64.5t49 199.5q0 110 -15 224q-72 0 -202 -7q8 24 8 62q0 18 -8 57q79 -10 190 -10q-4 36 -4 80q0 157 29 252q40 137 158.5 220t283.5 83z" />
    <glyph glyph-name="currency" unicode="&#xa4;" horiz-adv-x="1062" 
d="M119 1184l137 -137q68 50 132.5 72t143.5 22q77 0 141.5 -22.5t135.5 -71.5l137 137l94 -94l-137 -138q94 -119 94 -276q0 -155 -94 -277l137 -137l-94 -94l-137 137q-125 -94 -274 -94q-154 0 -279 94l-137 -137l-94 94l137 137q-94 134 -94 277q0 157 94 276l-137 138z
M236 676q0 -123 85.5 -210t210.5 -87q124 0 210.5 87.5t86.5 209.5q0 126 -85.5 211.5t-213.5 85.5q-125 0 -209.5 -85.5t-84.5 -211.5z" />
    <glyph glyph-name="yen" unicode="&#xa5;" horiz-adv-x="1062" 
d="M-61 1368q83 -12 155 -12q82 0 144 12q154 -340 350 -684q53 92 93.5 165.5t79.5 152t55.5 112.5t61 131t56.5 123q62 -12 100 -12q52 0 90 12q-69 -103 -200 -320t-215 -366q59 0 149 4l125 6q-8 -40 -8 -61q0 -18 8 -62q-143 11 -313 11q-21 -32 -21 -54v-96
q193 0 334 10q-8 -46 -8 -61q0 -18 8 -62q-150 11 -334 11q0 -97 2 -140l8 -188q-8 1 -56 6.5t-71 5.5q-21 0 -126 -12q10 136 10 328q-137 0 -334 -11q8 45 8 66q0 26 -8 57q105 -10 334 -10v105l-21 45q-114 0 -153 -2l-160 -9q8 41 8 66q0 22 -8 57q93 -10 270 -10
q-248 440 -413 686z" />
    <glyph glyph-name="brokenbar" unicode="&#xa6;" horiz-adv-x="454" 
d="M154 1382h147v-716h-147v716zM154 358h147v-716h-147v716z" />
    <glyph glyph-name="section" unicode="&#xa7;" horiz-adv-x="1062" 
d="M555 1384q102 0 186 -27.5t133 -72.5q-39 -67 -51 -108l-16 -48h-14q-22 51 -49.5 85.5t-60 52t-64 24t-70.5 6.5q-82 0 -137.5 -44.5t-55.5 -116.5q0 -66 44 -112t153 -93l180 -78q114 -50 166.5 -115t52.5 -159q0 -85 -34.5 -151t-116.5 -138q106 -92 106 -213
q0 -136 -104 -240q-63 -64 -157 -92.5t-169 -28.5q-176 0 -330 105l33 194h19q110 -209 295 -209q102 0 162.5 55t60.5 142q0 70 -55 119.5t-193 107.5q-83 33 -168 79.5t-115 72.5q-35 32 -59.5 85t-24.5 120q0 168 164 276q-49 49 -66.5 92.5t-17.5 102.5q0 143 104.5 235
t268.5 92zM236 690q0 -64 37 -107.5t116 -78.5l182 -80q118 -52 177 -88q38 38 53.5 69t15.5 72q0 58 -41.5 97t-163.5 94l-161 73q-52 22 -138 84q-42 -38 -59.5 -68.5t-17.5 -66.5z" />
    <glyph glyph-name="dieresis" unicode="&#xa8;" 
d="M55 1411q51 0 86 -35.5t35 -85.5q0 -48 -36 -84.5t-85 -36.5t-85 35.5t-36 85.5q0 51 35.5 86t85.5 35zM475 1411q51 0 86 -35.5t35 -85.5q0 -48 -36 -84.5t-85 -36.5t-85 35.5t-36 85.5q0 51 35.5 86t85.5 35z" />
    <glyph glyph-name="copyright" unicode="&#xa9;" horiz-adv-x="1679" 
d="M840 1425q202 0 372 -98t268.5 -269t98.5 -376q0 -141 -58 -273.5t-156 -231.5t-235.5 -158.5t-289.5 -59.5q-145 0 -281 57t-237 153.5t-161.5 232t-60.5 284.5q0 157 61.5 296t163.5 235.5t236.5 152t278.5 55.5zM203 692q0 -174 84 -321t230.5 -233.5t322.5 -86.5
q173 0 319 83t232 228.5t86 319.5q0 135 -50 256t-135 207.5t-203.5 137t-250.5 50.5q-129 0 -246.5 -51t-202.5 -137t-135.5 -204.5t-50.5 -248.5zM885 1133q142 0 286 -62l-36 -121h-13q-55 113 -233 113q-154 0 -235 -94t-81 -271q0 -160 81 -263t216 -103q87 0 155 32
t130 105l12 -8l-12 -121q-147 -78 -309 -78q-196 0 -318 117t-122 309q0 205 127.5 325t351.5 120z" />
    <glyph glyph-name="ordfeminine" unicode="&#xaa;" horiz-adv-x="665" 
d="M307 1384q115 0 179.5 -46t64.5 -132q0 -24 -2 -122t-2 -119q0 -44 2 -65t11.5 -35.5t29.5 -14.5q16 0 39 10v-55q-79 -27 -117 -27q-46 0 -70 15t-43 53q-27 -33 -74.5 -54.5t-101.5 -21.5q-85 0 -137.5 41t-52.5 113q0 88 50 126.5t169 65.5l80 19q40 9 51.5 18
t11.5 31q0 56 -34 85t-91 29q-54 0 -90.5 -21.5t-48.5 -59.5h-51q8 24 8 57v41q45 34 104 51.5t115 17.5zM197 950q0 -43 22.5 -68.5t59.5 -25.5q50 0 81 30t31 79v116l-61 -16q-77 -22 -105 -44t-28 -71z" />
    <glyph glyph-name="guillemotleft" unicode="&#xab;" horiz-adv-x="909" 
d="M356 905q43 -37 115 -80q-70 -73 -219 -323q171 -236 219 -297q-70 -48 -109 -82q-144 230 -262 379q166 253 198.5 304.5t57.5 98.5zM694 905q43 -37 115 -80q-70 -73 -219 -323q171 -236 219 -297q-70 -48 -109 -82q-144 230 -262 379q166 253 198.5 304.5t57.5 98.5z
" />
    <glyph glyph-name="logicalnot" unicode="&#xac;" horiz-adv-x="1366" 
d="M152 852h1062v-543h-133v410h-929v133z" />
    <glyph glyph-name="uni00AD" unicode="&#xad;" horiz-adv-x="833" 
d="M137 616q62 -6 283 -6q24 0 276 6q-10 -90 -10 -104q0 -20 4.5 -59.5t5.5 -49.5q-42 0 -145 3.5t-148 3.5q-147 0 -266 -7q10 59 10 119q0 45 -10 94z" />
    <glyph glyph-name="registered" unicode="&#xae;" horiz-adv-x="1024" 
d="M512 1425q186 0 315 -126t129 -314q0 -185 -129.5 -312.5t-314.5 -127.5q-189 0 -316.5 128.5t-127.5 311.5q0 184 127.5 312t316.5 128zM145 985q0 -155 106.5 -261t260.5 -106q153 0 260 106t107 261t-105 261t-264 106q-152 0 -258.5 -106.5t-106.5 -260.5zM319 958
v142q0 47 -4 137q36 -4 82 -4q15 0 71.5 2t68.5 2q77 0 122.5 -29t45.5 -86q0 -53 -37.5 -88t-108.5 -45l201 -244q-58 5 -70 5q-21 0 -40.5 -2.5t-24.5 -2.5q-21 27 -54.5 72.5t-63 84t-61.5 73.5h-18l2 -162q0 -17 2 -68q-46 5 -76 5q-4 0 -17.5 -2t-25.5 -3q6 120 6 213z
M483 1192q-19 0 -55 -4v-166q10 -2 49 -2q59 0 87 28t28 64q0 80 -109 80z" />
    <glyph glyph-name="macron" unicode="&#xaf;" 
d="M-27 1362h586v-133h-586v133z" />
    <glyph glyph-name="degree" unicode="&#xb0;" horiz-adv-x="819" 
d="M410 1382q134 0 222.5 -89t88.5 -222q0 -131 -90.5 -221t-220.5 -90q-133 0 -222.5 90t-89.5 221q0 133 89 222t223 89zM225 1071q0 -80 53 -134t132 -54q81 0 132.5 54t51.5 134q0 82 -52 135.5t-132 53.5q-78 0 -131.5 -54.5t-53.5 -134.5z" />
    <glyph glyph-name="plusminus" unicode="&#xb1;" horiz-adv-x="1366" 
d="M616 1157h134v-401h464v-133h-464v-402h-134v402h-464v133h464v401zM152 133h1062v-133h-1062v133z" />
    <glyph glyph-name="twosuperior" unicode="&#xb2;" horiz-adv-x="696" 
d="M319 1382q128 0 205.5 -57t77.5 -166q0 -73 -22 -121q-23 -48 -71.5 -104t-166.5 -160l-100 -88h182q141 0 211 8q-6 -27 -6 -78q0 -23 4 -63q-226 8 -295 8q-136 0 -297 -8v49q22 18 57 49.5t43 38.5q161 147 219 247t58 200q0 84 -33.5 129t-95.5 45q-127 0 -148 -156
l-16 -12l-82 78q38 84 104.5 122.5t171.5 38.5z" />
    <glyph glyph-name="threesuperior" unicode="&#xb3;" horiz-adv-x="696" 
d="M332 1376q125 0 195.5 -47t70.5 -133q0 -87 -48 -132t-130 -69q-19 -5 -19 -6q0 -4 17 -4q112 -7 167.5 -59t55.5 -140q0 -114 -102.5 -181.5t-249.5 -67.5q-153 0 -244 79q28 39 57 109h27q11 -49 59 -85t113 -36q72 0 115 48t43 126t-41 123t-113 45q-17 0 -41 -4
l-37 -6q6 12 6 41q0 25 -6 49q24 -8 52 -8q67 0 107 41t40 115q0 63 -33.5 99t-93.5 36q-65 0 -99.5 -34.5t-45.5 -103.5h-25q-12 30 -68 86q78 119 271 119z" />
    <glyph glyph-name="acute" unicode="&#xb4;" 
d="M498 1534q33 0 61.5 -24t28.5 -60q0 -29 -11.5 -46t-41.5 -36l-324 -201h-105l291 314q48 53 101 53z" />
    <glyph glyph-name="mu" unicode="&#xb5;" horiz-adv-x="1175" 
d="M137 983q74 -12 131 -12q62 0 133 12q-24 -109 -24 -487q0 -172 18 -234q37 -133 187 -133q108 0 162.5 91.5t54.5 266.5q0 370 -15 496q78 -12 119 -12q57 0 139 12q-20 -257 -20 -557q0 -252 16 -426q-28 2 -67.5 7t-61.5 5q-30 0 -116 -12q8 57 8 90v76
q-36 -86 -118.5 -137.5t-176.5 -51.5q-82 0 -135 43q0 -334 20 -552q-52 12 -133 12q-60 0 -125 -12q21 215 21 700q0 396 -3.5 557.5t-13.5 257.5z" />
    <glyph glyph-name="paragraph" unicode="&#xb6;" horiz-adv-x="1228" 
d="M596 1405h547v-123h-103v-1698h-153v1698h-230v-1698h-153v873q-202 13 -312 136t-110 333q0 219 141 349t373 130z" />
    <glyph glyph-name="periodcentered" unicode="&#xb7;" 
d="M266 772q59 0 102.5 -43.5t43.5 -101.5t-43.5 -102t-102.5 -44q-60 0 -102.5 43t-42.5 103t42 102.5t103 42.5z" />
    <glyph glyph-name="cedilla" unicode="&#xb8;" 
d="M139 -197l88 197h86l-63 -131q32 8 59 8q87 0 136 -36.5t49 -102.5q0 -89 -69 -134.5t-200 -45.5q-120 0 -182 32l33 72q76 -24 127 -24q114 0 114 81q0 36 -27 56t-77 20q-18 0 -49 -8z" />
    <glyph glyph-name="onesuperior" unicode="&#xb9;" horiz-adv-x="696" 
d="M457 1407l26 -12q-14 -126 -14 -486q0 -211 10 -348l-92 8q-21 0 -100 -8q16 112 16 303v385l-190 -102q-28 30 -60 59v19q205 71 404 182z" />
    <glyph glyph-name="ordmasculine" unicode="&#xba;" horiz-adv-x="790" 
d="M395 1384q164 0 252 -80t88 -227q0 -144 -91 -224.5t-249 -80.5q-156 0 -248 82t-92 223q0 140 93 223.5t247 83.5zM233 1079q0 -118 41 -183t121 -65q78 0 120 64t42 182q0 122 -42.5 185t-121.5 63q-75 0 -117.5 -64.5t-42.5 -181.5z" />
    <glyph glyph-name="guillemotright" unicode="&#xbb;" horiz-adv-x="909" 
d="M217 905q82 -137 256 -403q-108 -137 -260 -379q-39 34 -109 82q34 44 218 297q-151 253 -218 323q65 39 113 80zM553 905q82 -137 256 -403q-108 -137 -260 -379q-39 34 -109 82q32 41 65 86t80 111t72 100q-153 255 -217 323q65 39 113 80z" />
    <glyph glyph-name="onequarter" unicode="&#xbc;" horiz-adv-x="1730" 
d="M453 1407l26 -12q-14 -126 -14 -486q0 -211 10 -348l-92 8q-21 0 -100 -8q16 112 16 303v385l-190 -102q-28 30 -60 59v19q205 71 404 182zM414 -43l819 1468h98l-819 -1468h-98zM1448 821q32 -8 68 -8q24 0 59 8q-8 -176 -8 -499h18q67 0 94 2q-8 -33 -8 -62
q0 -22 8 -55l-112 2v-92q0 -65 8 -117q-55 8 -82 8q-8 0 -96 -8q10 57 10 156v53l-197 2q-120 0 -163 -4v82l374 491q17 22 27 41zM1407 322v327l-248 -327h248z" />
    <glyph glyph-name="onehalf" unicode="&#xbd;" horiz-adv-x="1730" 
d="M461 1407l26 -12q-14 -126 -14 -486q0 -211 10 -348l-92 8q-21 0 -100 -8q16 112 16 303v385l-190 -102q-28 30 -60 59v19q205 71 404 182zM412 -43l819 1468h98l-819 -1468h-98zM1358 829q128 0 205 -57t77 -166q0 -73 -22 -121q-23 -48 -71.5 -104t-166.5 -160
l-100 -88h182q141 0 211 8q-6 -27 -6 -78q0 -23 4 -63q-226 8 -295 8q-136 0 -297 -8v49q16 14 33.5 29t37.5 32.5t30 26.5q161 146 218.5 246.5t57.5 200.5q0 84 -33.5 129t-95.5 45q-126 0 -147 -156l-17 -12l-82 78q38 83 104.5 122t172.5 39z" />
    <glyph glyph-name="threequarters" unicode="&#xbe;" horiz-adv-x="1730" 
d="M451 -43l819 1468h98l-819 -1468h-98zM1434 821q32 -8 67 -8q25 0 60 8q-9 -198 -9 -499h19q67 0 94 2q-8 -33 -8 -62q0 -22 8 -55l-113 2v-92q0 -59 9 -117q-55 8 -82 8q-9 0 -97 -8q11 63 11 156v53l-197 2q-121 0 -164 -4v82l375 491q17 22 27 41zM1393 322v327
l-248 -327h248zM332 1376q125 0 195.5 -47t70.5 -133q0 -87 -48 -132t-130 -69q-19 -5 -19 -6q0 -4 17 -4q112 -7 167.5 -59t55.5 -140q0 -114 -102.5 -181.5t-249.5 -67.5q-153 0 -244 79q28 39 57 109h27q11 -49 59 -85t113 -36q72 0 115 48t43 126t-41 123t-113 45
q-17 0 -41 -4l-37 -6q6 12 6 41q0 25 -6 49q24 -8 52 -8q67 0 107 41t40 115q0 63 -33.5 99t-93.5 36q-65 0 -99.5 -34.5t-45.5 -103.5h-25q-12 30 -68 86q78 119 271 119z" />
    <glyph glyph-name="questiondown" unicode="&#xbf;" horiz-adv-x="757" 
d="M412 -418q-144 0 -244 81t-100 204q0 30 5.5 58t10.5 49t22 48.5t25 41.5t34.5 44t35.5 39.5t43.5 45t44.5 45.5q78 80 98.5 113.5t20.5 66.5q0 41 -27.5 67.5t-69.5 26.5q-34 0 -90 -29l-4 4l23 76q36 14 54 17.5t54 3.5q121 0 190.5 -64t69.5 -170q0 -66 -32.5 -132.5
t-135.5 -166.5q-97 -94 -123 -135t-26 -94q0 -71 47 -110.5t127 -39.5q107 0 164 109h18l15 -121q-115 -78 -250 -78zM418 702q-57 0 -100.5 44t-43.5 102q0 57 43 101t101 44q61 0 104 -43.5t43 -101.5t-43 -102t-104 -44z" />
    <glyph glyph-name="Agrave" unicode="&#xc0;" horiz-adv-x="1327" 
d="M602 1425q29 -10 68 -10q35 0 65 10q179 -500 600 -1425q-133 12 -159 12q-34 0 -152 -12q-156 405 -172 444q-122 9 -260 9q-53 0 -150 -5l-98 -4q-120 -288 -164 -444q-71 12 -98 12q-17 0 -33 -2t-34 -5.5t-25 -4.5l223 496q209 465 282 640.5t107 288.5zM600 1073
l-209 -502q143 -8 213 -8q124 0 189 8zM455 1843q52 0 100 -53l291 -313h-105l-323 200q-30 19 -41.5 36t-11.5 46q0 36 28.5 60t61.5 24z" />
    <glyph glyph-name="Aacute" unicode="&#xc1;" horiz-adv-x="1327" 
d="M602 1425q29 -10 68 -10q35 0 65 10q179 -500 600 -1425q-133 12 -159 12q-34 0 -152 -12q-156 405 -172 444q-122 9 -260 9q-53 0 -150 -5l-98 -4q-120 -288 -164 -444q-71 12 -98 12q-17 0 -33 -2t-34 -5.5t-25 -4.5l223 496q209 465 282 640.5t107 288.5zM600 1073
l-209 -502q143 -8 213 -8q124 0 189 8zM891 1862q41 0 68.5 -23.5t27.5 -60.5q0 -50 -49 -80l-330 -203h-104l287 311q52 56 100 56z" />
    <glyph glyph-name="Acircumflex" unicode="&#xc2;" horiz-adv-x="1327" 
d="M602 1425q29 -10 68 -10q35 0 65 10q179 -500 600 -1425q-133 12 -159 12q-34 0 -152 -12q-156 405 -172 444q-122 9 -260 9q-53 0 -150 -5l-98 -4q-120 -288 -164 -444q-71 12 -98 12q-17 0 -33 -2t-34 -5.5t-25 -4.5l223 496q209 465 282 640.5t107 288.5zM600 1073
l-209 -502q143 -8 213 -8q124 0 189 8zM584 1829h161l254 -352h-102l-231 204l-234 -204h-100z" />
    <glyph glyph-name="Atilde" unicode="&#xc3;" horiz-adv-x="1327" 
d="M602 1425q29 -10 68 -10q35 0 65 10q179 -500 600 -1425q-133 12 -159 12q-34 0 -152 -12q-156 405 -172 444q-122 9 -260 9q-53 0 -150 -5l-98 -4q-120 -288 -164 -444q-71 12 -98 12q-17 0 -33 -2t-34 -5.5t-25 -4.5l223 496q209 465 282 640.5t107 288.5zM600 1073
l-209 -502q143 -8 213 -8q124 0 189 8zM954 1753h74q-25 -110 -82.5 -169.5t-144.5 -59.5q-51 0 -115 22t-116 44t-72 22q-37 0 -65.5 -23.5t-41.5 -66.5h-74q37 123 92.5 176t133.5 53q50 0 160 -44t143 -44q82 0 108 90z" />
    <glyph glyph-name="Adieresis" unicode="&#xc4;" horiz-adv-x="1327" 
d="M602 1425q29 -10 68 -10q35 0 65 10q179 -500 600 -1425q-133 12 -159 12q-34 0 -152 -12q-156 405 -172 444q-122 9 -260 9q-53 0 -150 -5l-98 -4q-120 -288 -164 -444q-71 12 -98 12q-17 0 -33 -2t-34 -5.5t-25 -4.5l223 496q209 465 282 640.5t107 288.5zM600 1073
l-209 -502q143 -8 213 -8q124 0 189 8zM457 1739q49 0 85 -35.5t36 -85.5q0 -48 -36 -84.5t-85 -36.5q-51 0 -86 35.5t-35 85.5q0 51 35.5 86t85.5 35zM877 1739q49 0 84.5 -35.5t35.5 -85.5q0 -48 -35.5 -84.5t-84.5 -36.5t-85 35.5t-36 85.5q0 51 35.5 86t85.5 35z" />
    <glyph glyph-name="Aring" unicode="&#xc5;" horiz-adv-x="1327" 
d="M602 1425q29 -10 68 -10q35 0 65 10q179 -500 600 -1425q-133 12 -159 12q-34 0 -152 -12q-156 405 -172 444q-122 9 -260 9q-53 0 -150 -5l-98 -4q-120 -288 -164 -444q-71 12 -98 12q-17 0 -33 -2t-34 -5.5t-25 -4.5l223 496q209 465 282 640.5t107 288.5zM600 1073
l-209 -502q143 -8 213 -8q124 0 189 8zM664 1882q84 0 147 -63t63 -148q0 -84 -62.5 -147.5t-147.5 -63.5q-88 0 -149.5 63t-61.5 148t63 148t148 63zM539 1671q0 -50 37 -87.5t88 -37.5q52 0 88 37.5t36 87.5q0 48 -38 86.5t-88 38.5q-46 0 -84.5 -37.5t-38.5 -87.5z" />
    <glyph glyph-name="AE" unicode="&#xc6;" horiz-adv-x="1744" 
d="M877 1405q226 -12 380 -12q88 0 388 12q-11 -54 -11 -68q0 -40 11 -73q-232 14 -478 14v-481q343 0 443 14q-11 -37 -11 -74q0 -40 11 -69q-203 14 -443 14v-555q268 0 490 14q-10 -22 -10 -67t10 -74q-187 12 -371 12q-192 0 -385 -12q14 372 14 442q-90 9 -237 9
q-154 0 -256 -9q-105 -144 -266 -442q-77 12 -111 12q-22 0 -108 -12q48 54 169 229l316 459q323 466 455 717zM834 1098l-336 -531q76 -8 213 -8q141 0 204 8l5 668q-29 -51 -86 -137z" />
    <glyph glyph-name="Ccedilla" unicode="&#xc7;" horiz-adv-x="1441" 
d="M698 -197l76 170q-145 10 -268 63t-212.5 142t-139.5 218t-50 284q0 161 51 295.5t149 234.5t251.5 155.5t347.5 55.5q253 0 479 -102l-61 -201h-21q-94 193 -391 193q-253 0 -388.5 -160.5t-135.5 -454.5q0 -142 39 -258.5t106 -193t156 -118.5t191 -42q145 0 260 54.5
t217 178.5l22 -14l-22 -203q-214 -123 -496 -129l-49 -102q32 8 59 8q87 0 136 -36.5t49 -102.5q0 -89 -69 -134.5t-200 -45.5q-120 0 -182 32l33 72q76 -24 127 -24q115 0 115 81q0 36 -27.5 56t-77.5 20q-18 0 -49 -8z" />
    <glyph glyph-name="Egrave" unicode="&#xc8;" horiz-adv-x="1024" 
d="M170 1405q199 -12 369 -12q53 0 379 12q-11 -40 -11 -68q0 -40 11 -73q-41 1 -123 6t-123 6q-82 2 -232 2v-481q343 0 443 14q-11 -37 -11 -74q0 -40 11 -69q-167 14 -443 14v-555q236 0 490 14q-10 -23 -10 -67q0 -45 10 -74q-188 12 -375 12q-167 0 -385 -12
q18 326 18 715q0 417 -18 690zM283 1843q52 0 100 -53l291 -313h-105l-323 200q-30 19 -41.5 36t-11.5 46q0 36 28.5 60t61.5 24z" />
    <glyph glyph-name="Eacute" unicode="&#xc9;" horiz-adv-x="1024" 
d="M170 1405q199 -12 369 -12q53 0 379 12q-11 -40 -11 -68q0 -40 11 -73q-41 1 -123 6t-123 6q-82 2 -232 2v-481q343 0 443 14q-11 -37 -11 -74q0 -40 11 -69q-167 14 -443 14v-555q236 0 490 14q-10 -23 -10 -67q0 -45 10 -74q-188 12 -375 12q-167 0 -385 -12
q18 326 18 715q0 417 -18 690zM801 1862q41 0 68.5 -23.5t27.5 -60.5q0 -50 -49 -80l-330 -203h-104l286 311q52 56 101 56z" />
    <glyph glyph-name="Ecircumflex" unicode="&#xca;" horiz-adv-x="1024" 
d="M170 1405q199 -12 369 -12q53 0 379 12q-11 -40 -11 -68q0 -40 11 -73q-41 1 -123 6t-123 6q-82 2 -232 2v-481q343 0 443 14q-11 -37 -11 -74q0 -40 11 -69q-167 14 -443 14v-555q236 0 490 14q-10 -23 -10 -67q0 -45 10 -74q-188 12 -375 12q-167 0 -385 -12
q18 326 18 715q0 417 -18 690zM463 1829h162l254 -352h-103l-231 204l-234 -204h-100z" />
    <glyph glyph-name="Edieresis" unicode="&#xcb;" horiz-adv-x="1024" 
d="M170 1405q199 -12 369 -12q53 0 379 12q-11 -40 -11 -68q0 -40 11 -73q-41 1 -123 6t-123 6q-82 2 -232 2v-481q343 0 443 14q-11 -37 -11 -74q0 -40 11 -69q-167 14 -443 14v-555q236 0 490 14q-10 -23 -10 -67q0 -45 10 -74q-188 12 -375 12q-167 0 -385 -12
q18 326 18 715q0 417 -18 690zM324 1739q49 0 84.5 -35.5t35.5 -85.5q0 -48 -35.5 -84.5t-84.5 -36.5q-51 0 -86 35.5t-35 85.5q0 51 35.5 86t85.5 35zM743 1739q49 0 85 -35.5t36 -85.5q0 -48 -36 -84.5t-85 -36.5t-84.5 35.5t-35.5 85.5q0 51 35 86t85 35z" />
    <glyph glyph-name="Igrave" unicode="&#xcc;" horiz-adv-x="645" 
d="M178 1405q87 -12 148 -12q58 0 143 12q-23 -144 -23 -559q0 -273 2.5 -435t6 -229.5t12.5 -181.5q-117 12 -143 12t-81.5 -5.5t-66.5 -6.5q23 259 23 803q0 465 -21 602zM92 1843q53 0 101 -53l290 -313h-104l-324 200q-30 19 -41.5 36t-11.5 46q0 36 28.5 60t61.5 24z
" />
    <glyph glyph-name="Iacute" unicode="&#xcd;" horiz-adv-x="645" 
d="M178 1405q87 -12 148 -12q58 0 143 12q-23 -144 -23 -559q0 -273 2.5 -435t6 -229.5t12.5 -181.5q-117 12 -143 12t-81.5 -5.5t-66.5 -6.5q23 259 23 803q0 465 -21 602zM549 1862q41 0 68.5 -23.5t27.5 -60.5q0 -50 -49 -80l-330 -203h-104l287 311q52 56 100 56z" />
    <glyph glyph-name="Icircumflex" unicode="&#xce;" horiz-adv-x="645" 
d="M178 1405q87 -12 148 -12q58 0 143 12q-23 -144 -23 -559q0 -273 2.5 -435t6 -229.5t12.5 -181.5q-117 12 -143 12t-81.5 -5.5t-66.5 -6.5q23 259 23 803q0 465 -21 602zM242 1829h161l254 -352h-102l-231 204l-234 -204h-100z" />
    <glyph glyph-name="Idieresis" unicode="&#xcf;" horiz-adv-x="645" 
d="M178 1405q87 -12 148 -12q58 0 143 12q-23 -144 -23 -559q0 -273 2.5 -435t6 -229.5t12.5 -181.5q-117 12 -143 12t-81.5 -5.5t-66.5 -6.5q23 259 23 803q0 465 -21 602zM113 1739q49 0 84.5 -35.5t35.5 -85.5q0 -48 -35.5 -84.5t-84.5 -36.5q-51 0 -86 35.5t-35 85.5
q0 51 35.5 86t85.5 35zM532 1739q50 0 85.5 -35.5t35.5 -85.5q0 -48 -36 -84.5t-85 -36.5t-84.5 35.5t-35.5 85.5q0 51 35 86t85 35z" />
    <glyph glyph-name="Eth" unicode="&#xd0;" horiz-adv-x="1593" 
d="M170 1405q141 -10 172 -10q49 0 167.5 5t180.5 5q242 0 379 -45q203 -68 311.5 -232.5t108.5 -386.5q0 -339 -199 -540t-534 -201q-58 0 -194 5t-195 5q-36 0 -197 -10q1 41 7.5 218.5t6.5 273.5v210q-85 -4 -170 -10q1 11 5 34.5t4 37.5q0 13 -4 34.5t-5 30.5
q82 -12 170 -12v139q0 93 -14 449zM446 1286q-10 -156 -10 -235v-234q157 4 352 17q-8 -41 -8 -68q0 -34 8 -70l-352 6v-317q0 -31 5 -145t5 -121q118 -10 267 -10q99 0 186.5 39.5t157.5 114.5t110.5 196.5t40.5 273.5q0 261 -142 412t-413 151q-94 0 -207 -10z" />
    <glyph glyph-name="Ntilde" unicode="&#xd1;" horiz-adv-x="1554" 
d="M184 578q0 119 -2 426.5t-2 400.5q18 -4 49 -4q15 0 47 4q286 -313 525 -549l342 -336q40 -40 102 -88v477q0 253 -24 496q46 -12 88 -12q45 0 86 12q-23 -289 -23 -709q0 -240 4 -706q-18 4 -43 4q-13 0 -41 -4q-210 225 -499.5 516t-481.5 467q0 -740 25 -973
q-64 12 -92 12q-36 0 -82 -12q22 323 22 578zM1067 1753h74q-25 -110 -83 -169.5t-145 -59.5q-51 0 -115 22t-116 44t-72 22q-37 0 -65 -23.5t-41 -66.5h-74q37 123 92 176t133 53q50 0 160 -44t143 -44q83 0 109 90z" />
    <glyph glyph-name="Ograve" unicode="&#xd2;" horiz-adv-x="1744" 
d="M879 1421q343 0 550 -189.5t207 -508.5q0 -166 -54.5 -305.5t-151.5 -238t-237.5 -153.5t-307.5 -55q-165 0 -307 47t-246 134t-163.5 218.5t-59.5 291.5q0 186 58 332t161.5 238.5t243 140.5t307.5 48zM389 696q0 -181 54.5 -319.5t165 -219.5t263.5 -81q218 0 351 169
t133 451q0 300 -124.5 460.5t-361.5 160.5q-113 0 -205 -49.5t-152 -134.5t-92 -197t-32 -240zM643 1843q52 0 100 -53l291 -313h-104l-324 200q-30 19 -41.5 36t-11.5 46q0 36 28.5 60t61.5 24z" />
    <glyph glyph-name="Oacute" unicode="&#xd3;" horiz-adv-x="1744" 
d="M879 1421q343 0 550 -189.5t207 -508.5q0 -166 -54.5 -305.5t-151.5 -238t-237.5 -153.5t-307.5 -55q-165 0 -307 47t-246 134t-163.5 218.5t-59.5 291.5q0 186 58 332t161.5 238.5t243 140.5t307.5 48zM389 696q0 -181 54.5 -319.5t165 -219.5t263.5 -81q218 0 351 169
t133 451q0 300 -124.5 460.5t-361.5 160.5q-113 0 -205 -49.5t-152 -134.5t-92 -197t-32 -240zM1100 1862q41 0 68.5 -23.5t27.5 -60.5q0 -50 -49 -80l-330 -203h-104l286 311q52 56 101 56z" />
    <glyph glyph-name="Ocircumflex" unicode="&#xd4;" horiz-adv-x="1744" 
d="M879 1421q343 0 550 -189.5t207 -508.5q0 -166 -54.5 -305.5t-151.5 -238t-237.5 -153.5t-307.5 -55q-165 0 -307 47t-246 134t-163.5 218.5t-59.5 291.5q0 186 58 332t161.5 238.5t243 140.5t307.5 48zM389 696q0 -181 54.5 -319.5t165 -219.5t263.5 -81q218 0 351 169
t133 451q0 300 -124.5 460.5t-361.5 160.5q-113 0 -205 -49.5t-152 -134.5t-92 -197t-32 -240zM793 1829h161l254 -352h-102l-232 204l-233 -204h-100z" />
    <glyph glyph-name="Otilde" unicode="&#xd5;" horiz-adv-x="1744" 
d="M879 1421q343 0 550 -189.5t207 -508.5q0 -166 -54.5 -305.5t-151.5 -238t-237.5 -153.5t-307.5 -55q-165 0 -307 47t-246 134t-163.5 218.5t-59.5 291.5q0 186 58 332t161.5 238.5t243 140.5t307.5 48zM389 696q0 -181 54.5 -319.5t165 -219.5t263.5 -81q218 0 351 169
t133 451q0 300 -124.5 460.5t-361.5 160.5q-113 0 -205 -49.5t-152 -134.5t-92 -197t-32 -240zM1163 1753h74q-25 -110 -82.5 -169.5t-144.5 -59.5q-51 0 -115 22t-116 44t-72 22q-37 0 -65.5 -23.5t-41.5 -66.5h-74q37 123 92.5 176t133.5 53q50 0 160 -44t143 -44
q82 0 108 90z" />
    <glyph glyph-name="Odieresis" unicode="&#xd6;" horiz-adv-x="1744" 
d="M879 1421q343 0 550 -189.5t207 -508.5q0 -166 -54.5 -305.5t-151.5 -238t-237.5 -153.5t-307.5 -55q-165 0 -307 47t-246 134t-163.5 218.5t-59.5 291.5q0 186 58 332t161.5 238.5t243 140.5t307.5 48zM389 696q0 -181 54.5 -319.5t165 -219.5t263.5 -81q218 0 351 169
t133 451q0 300 -124.5 460.5t-361.5 160.5q-113 0 -205 -49.5t-152 -134.5t-92 -197t-32 -240zM664 1739q49 0 84.5 -35.5t35.5 -85.5q0 -48 -35.5 -84.5t-84.5 -36.5q-51 0 -86 35.5t-35 85.5q0 51 35.5 86t85.5 35zM1083 1739q49 0 85 -35.5t36 -85.5q0 -48 -36 -84.5
t-85 -36.5t-84.5 35.5t-35.5 85.5q0 51 35 86t85 35z" />
    <glyph glyph-name="multiply" unicode="&#xd7;" horiz-adv-x="1366" 
d="M170 1044l94 95l420 -420l418 420l94 -95l-420 -417l420 -420l-94 -96l-418 419l-420 -419l-94 96l420 420z" />
    <glyph glyph-name="Oslash" unicode="&#xd8;" horiz-adv-x="1744" 
d="M1339 1296l209 246q13 -22 28.5 -35.5t55.5 -40.5q-141 -148 -215 -229q215 -189 215 -516q0 -219 -93 -389.5t-264.5 -265.5t-393.5 -95q-306 0 -478 123l-227 -256q-20 25 -35.5 37.5t-50.5 32.5l232 250q-103 93 -160.5 227.5t-57.5 288.5q0 145 38 266.5t106.5 209.5
t164.5 149.5t212 91.5t249 30q276 0 465 -125zM385 664q0 -92 22.5 -185.5t59.5 -163.5q361 398 754 846q-130 156 -347 156q-100 0 -181.5 -33.5t-138 -93t-95 -142t-56.5 -179t-18 -205.5zM1274 1081q-146 -164 -385 -436l-365 -414q127 -155 365 -155q145 0 251 85.5
t159 233t53 338.5q0 206 -78 348z" />
    <glyph glyph-name="Ugrave" unicode="&#xd9;" horiz-adv-x="1478" 
d="M156 1405q94 -12 143 -12q59 0 133 12q-12 -300 -12 -506v-225q0 -196 8 -277q13 -138 109 -209t260 -71q96 0 177.5 37t125.5 100t54.5 134t10.5 233q0 473 -18 784q45 -12 92 -12q54 0 96 12q-4 -54 -18 -490q-3 -84 -4.5 -226.5t-4 -204.5t-17.5 -141t-44 -132
q-59 -107 -191.5 -171.5t-299.5 -64.5q-280 0 -435 123t-155 353v610q0 190 -10 344zM510 1843q52 0 100 -53l291 -313h-104l-324 200q-30 19 -41.5 36t-11.5 46q0 36 28.5 60t61.5 24z" />
    <glyph glyph-name="Uacute" unicode="&#xda;" horiz-adv-x="1478" 
d="M156 1405q94 -12 143 -12q59 0 133 12q-12 -300 -12 -506v-225q0 -196 8 -277q13 -138 109 -209t260 -71q96 0 177.5 37t125.5 100t54.5 134t10.5 233q0 473 -18 784q45 -12 92 -12q54 0 96 12q-4 -54 -18 -490q-3 -84 -4.5 -226.5t-4 -204.5t-17.5 -141t-44 -132
q-59 -107 -191.5 -171.5t-299.5 -64.5q-280 0 -435 123t-155 353v610q0 190 -10 344zM1028 1862q41 0 68.5 -23.5t27.5 -60.5q0 -50 -49 -80l-330 -203h-104l287 311q52 56 100 56z" />
    <glyph glyph-name="Ucircumflex" unicode="&#xdb;" horiz-adv-x="1478" 
d="M156 1405q94 -12 143 -12q59 0 133 12q-12 -300 -12 -506v-225q0 -196 8 -277q13 -138 109 -209t260 -71q96 0 177.5 37t125.5 100t54.5 134t10.5 233q0 473 -18 784q45 -12 92 -12q54 0 96 12q-4 -54 -18 -490q-3 -84 -4.5 -226.5t-4 -204.5t-17.5 -141t-44 -132
q-59 -107 -191.5 -171.5t-299.5 -64.5q-280 0 -435 123t-155 353v610q0 190 -10 344zM690 1829h162l254 -352h-102l-232 204l-233 -204h-101z" />
    <glyph glyph-name="Udieresis" unicode="&#xdc;" horiz-adv-x="1478" 
d="M156 1405q94 -12 143 -12q59 0 133 12q-12 -300 -12 -506v-225q0 -196 8 -277q13 -138 109 -209t260 -71q96 0 177.5 37t125.5 100t54.5 134t10.5 233q0 473 -18 784q45 -12 92 -12q54 0 96 12q-4 -54 -18 -490q-3 -84 -4.5 -226.5t-4 -204.5t-17.5 -141t-44 -132
q-59 -107 -191.5 -171.5t-299.5 -64.5q-280 0 -435 123t-155 353v610q0 190 -10 344zM551 1739q49 0 85 -35.5t36 -85.5q0 -48 -36 -84.5t-85 -36.5q-51 0 -86 35.5t-35 85.5q0 51 35.5 86t85.5 35zM971 1739q49 0 85 -35.5t36 -85.5q0 -48 -36 -84.5t-85 -36.5t-85 35.5
t-36 85.5q0 51 35.5 86t85.5 35z" />
    <glyph glyph-name="Yacute" unicode="&#xdd;" horiz-adv-x="1214" 
d="M-27 1405q132 -12 170 -12q90 0 166 12q124 -258 193 -391t166 -301q111 190 172.5 309t181.5 383q58 -12 119 -12q45 0 86 12q-59 -99 -170 -277q-95 -155 -176 -297t-114.5 -205.5t-35.5 -70.5q0 -207 2 -270l12 -285q-16 1 -45 4.5t-52.5 5.5t-43.5 2q-8 0 -137 -12
q12 390 12 555q-200 343 -506 850zM895 1862q41 0 68.5 -23.5t27.5 -60.5q0 -50 -49 -80l-330 -203h-104l287 311q52 56 100 56z" />
    <glyph glyph-name="Thorn" unicode="&#xde;" horiz-adv-x="1175" 
d="M180 1405q98 -12 148 -12q39 0 133 12q-15 -92 -15 -256v-57q74 6 224 6q214 0 324 -100.5t110 -266.5q0 -191 -134.5 -304.5t-383.5 -113.5q-54 0 -140 9q0 -169 15 -322q-77 12 -144 12q-77 0 -141 -12q12 212 12 248l7 756q0 46 -6.5 198t-8.5 203zM446 989v-567
q63 -8 109 -8q135 0 210 88t75 219q0 125 -64.5 200.5t-183.5 75.5q-25 0 -82.5 -4t-63.5 -4z" />
    <glyph glyph-name="germandbls" unicode="&#xdf;" horiz-adv-x="1175" 
d="M604 1524q154 0 240 -67.5t86 -190.5q0 -71 -27.5 -129t-116.5 -129q-71 -57 -90.5 -78.5t-19.5 -46.5q0 -11 9 -24t44.5 -44.5t99.5 -77.5q16 -12 45 -33.5t49 -36.5t35 -28q46 -40 76 -78t42.5 -71t16 -54t3.5 -47q0 -74 -33.5 -148t-88.5 -130.5t-131 -91.5t-157 -35
q-122 0 -221 55q45 96 57 178h33q12 -61 62 -99t114 -38q82 0 133 50.5t51 133.5q0 72 -51.5 134t-177.5 151q-122 84 -160.5 130t-38.5 105q0 13 2.5 25.5t5.5 22t11.5 21.5t13.5 19.5t19.5 22t22 21.5t28.5 26t31 29q67 63 93.5 116.5t26.5 135.5q0 103 -44.5 160
t-125.5 57q-39 0 -69 -12t-50.5 -30t-34.5 -52.5t-21.5 -65t-11 -83.5t-4.5 -93t-1 -107q0 -837 12 -997q-97 10 -121 10q-18 0 -133 -10q15 476 15 653q0 3 -0.5 79.5t-1 179.5t-0.5 169q0 98 21.5 169.5t80.5 131.5q138 142 352 142z" />
    <glyph glyph-name="agrave" unicode="&#xe0;" horiz-adv-x="1024" 
d="M479 999q175 0 274 -81t99 -232q0 -54 -3 -205t-3 -231q0 -89 15 -123.5t57 -34.5q14 0 57 17q-8 -19 -8 -39q0 -7 4 -20.5t4 -14.5q-112 -45 -174 -45q-70 0 -108 27t-62 98q-48 -64 -122 -102t-155 -38q-133 0 -206.5 71.5t-73.5 182.5q0 59 13 104t38 74t47 45t53 31
q50 25 181 58q186 50 198 59q25 15 25 57q0 104 -52 160.5t-149 56.5q-85 0 -142.5 -39t-76.5 -106q-12 4 -39 4q-13 0 -25 -4q11 69 11 113q0 33 -2 43q119 71 180.5 92.5t144.5 21.5zM305 276q0 -81 36.5 -128.5t98.5 -47.5q78 0 130.5 56t52.5 135v217q-5 -1 -29.5 -7.5
t-49 -13.5t-26.5 -8q-60 -16 -97 -31.5t-65 -39t-39.5 -55t-11.5 -77.5zM283 1516q51 0 100 -54l291 -313h-105l-323 201q-30 19 -41.5 36t-11.5 46q0 36 28.5 60t61.5 24z" />
    <glyph glyph-name="aacute" unicode="&#xe1;" horiz-adv-x="1024" 
d="M479 999q175 0 274 -81t99 -232q0 -54 -3 -205t-3 -231q0 -89 15 -123.5t57 -34.5q14 0 57 17q-8 -19 -8 -39q0 -7 4 -20.5t4 -14.5q-112 -45 -174 -45q-70 0 -108 27t-62 98q-48 -64 -122 -102t-155 -38q-133 0 -206.5 71.5t-73.5 182.5q0 59 13 104t38 74t47 45t53 31
q50 25 181 58q186 50 198 59q25 15 25 57q0 104 -52 160.5t-149 56.5q-85 0 -142.5 -39t-76.5 -106q-12 4 -39 4q-13 0 -25 -4q11 69 11 113q0 33 -2 43q119 71 180.5 92.5t144.5 21.5zM305 276q0 -81 36.5 -128.5t98.5 -47.5q78 0 130.5 56t52.5 135v217q-5 -1 -29.5 -7.5
t-49 -13.5t-26.5 -8q-60 -16 -97 -31.5t-65 -39t-39.5 -55t-11.5 -77.5zM725 1534q33 0 61.5 -24t28.5 -60q0 -29 -11.5 -46t-41.5 -36l-324 -201h-104l291 314q48 53 100 53z" />
    <glyph glyph-name="acircumflex" unicode="&#xe2;" horiz-adv-x="1024" 
d="M479 999q175 0 274 -81t99 -232q0 -54 -3 -205t-3 -231q0 -89 15 -123.5t57 -34.5q14 0 57 17q-8 -19 -8 -39q0 -7 4 -20.5t4 -14.5q-112 -45 -174 -45q-70 0 -108 27t-62 98q-48 -64 -122 -102t-155 -38q-133 0 -206.5 71.5t-73.5 182.5q0 59 13 104t38 74t47 45t53 31
q50 25 181 58q186 50 198 59q25 15 25 57q0 104 -52 160.5t-149 56.5q-85 0 -142.5 -39t-76.5 -106q-12 4 -39 4q-13 0 -25 -4q11 69 11 113q0 33 -2 43q119 71 180.5 92.5t144.5 21.5zM305 276q0 -81 36.5 -128.5t98.5 -47.5q78 0 130.5 56t52.5 135v217q-5 -1 -29.5 -7.5
t-49 -13.5t-26.5 -8q-60 -16 -97 -31.5t-65 -39t-39.5 -55t-11.5 -77.5zM432 1501h162l254 -352h-103l-231 205l-233 -205h-101z" />
    <glyph glyph-name="atilde" unicode="&#xe3;" horiz-adv-x="1024" 
d="M479 999q175 0 274 -81t99 -232q0 -54 -3 -205t-3 -231q0 -89 15 -123.5t57 -34.5q14 0 57 17q-8 -19 -8 -39q0 -7 4 -20.5t4 -14.5q-112 -45 -174 -45q-70 0 -108 27t-62 98q-48 -64 -122 -102t-155 -38q-133 0 -206.5 71.5t-73.5 182.5q0 59 13 104t38 74t47 45t53 31
q50 25 181 58q186 50 198 59q25 15 25 57q0 104 -52 160.5t-149 56.5q-85 0 -142.5 -39t-76.5 -106q-12 4 -39 4q-13 0 -25 -4q11 69 11 113q0 33 -2 43q119 71 180.5 92.5t144.5 21.5zM305 276q0 -81 36.5 -128.5t98.5 -47.5q78 0 130.5 56t52.5 135v217q-5 -1 -29.5 -7.5
t-49 -13.5t-26.5 -8q-60 -16 -97 -31.5t-65 -39t-39.5 -55t-11.5 -77.5zM803 1425h74q-25 -110 -83 -169.5t-145 -59.5q-51 0 -115 22t-116 44t-72 22q-37 0 -65 -23.5t-41 -66.5h-74q37 123 92 176t133 53q50 0 160 -44t143 -44q83 0 109 90z" />
    <glyph glyph-name="adieresis" unicode="&#xe4;" horiz-adv-x="1024" 
d="M479 999q175 0 274 -81t99 -232q0 -54 -3 -205t-3 -231q0 -89 15 -123.5t57 -34.5q14 0 57 17q-8 -19 -8 -39q0 -7 4 -20.5t4 -14.5q-112 -45 -174 -45q-70 0 -108 27t-62 98q-48 -64 -122 -102t-155 -38q-133 0 -206.5 71.5t-73.5 182.5q0 59 13 104t38 74t47 45t53 31
q50 25 181 58q186 50 198 59q25 15 25 57q0 104 -52 160.5t-149 56.5q-85 0 -142.5 -39t-76.5 -106q-12 4 -39 4q-13 0 -25 -4q11 69 11 113q0 33 -2 43q119 71 180.5 92.5t144.5 21.5zM305 276q0 -81 36.5 -128.5t98.5 -47.5q78 0 130.5 56t52.5 135v217q-5 -1 -29.5 -7.5
t-49 -13.5t-26.5 -8q-60 -16 -97 -31.5t-65 -39t-39.5 -55t-11.5 -77.5zM303 1411q51 0 86 -35.5t35 -85.5q0 -48 -36 -84.5t-85 -36.5t-85 35.5t-36 85.5q0 51 35.5 86t85.5 35zM723 1411q51 0 86 -35.5t35 -85.5q0 -48 -36 -84.5t-85 -36.5t-85 35.5t-36 85.5
q0 51 35.5 86t85.5 35z" />
    <glyph glyph-name="aring" unicode="&#xe5;" horiz-adv-x="1024" 
d="M479 999q175 0 274 -81t99 -232q0 -54 -3 -205t-3 -231q0 -89 15 -123.5t57 -34.5q14 0 57 17q-8 -19 -8 -39q0 -7 4 -20.5t4 -14.5q-112 -45 -174 -45q-70 0 -108 27t-62 98q-48 -64 -122 -102t-155 -38q-133 0 -206.5 71.5t-73.5 182.5q0 59 13 104t38 74t47 45t53 31
q50 25 181 58q186 50 198 59q25 15 25 57q0 104 -52 160.5t-149 56.5q-85 0 -142.5 -39t-76.5 -106q-12 4 -39 4q-13 0 -25 -4q11 69 11 113q0 33 -2 43q119 71 180.5 92.5t144.5 21.5zM305 276q0 -81 36.5 -128.5t98.5 -47.5q78 0 130.5 56t52.5 135v217q-5 -1 -29.5 -7.5
t-49 -13.5t-26.5 -8q-60 -16 -97 -31.5t-65 -39t-39.5 -55t-11.5 -77.5zM502 1554q86 0 148.5 -63.5t62.5 -147.5t-62.5 -147t-148.5 -63q-88 0 -149.5 62.5t-61.5 147.5t63 148t148 63zM377 1343q0 -50 37 -87t88 -37t88 37t37 87q0 48 -38.5 86.5t-88.5 38.5
q-46 0 -84.5 -37.5t-38.5 -87.5z" />
    <glyph glyph-name="ae" unicode="&#xe6;" horiz-adv-x="1630" 
d="M518 999q183 0 279 -102q73 55 143 77.5t170 22.5q195 0 313.5 -112.5t118.5 -343.5v-60q-345 6 -346 6q-210 0 -328 -4v-12q0 -189 90.5 -283t249.5 -94q138 0 277 127l20 -12q-20 -68 -28 -127q-151 -111 -347 -111q-144 0 -249.5 54.5t-155.5 150.5
q-64 -99 -158.5 -151t-195.5 -52q-136 0 -216.5 68t-80.5 207q0 87 34.5 138t106.5 91q49 27 227.5 69.5t186.5 45.5q28 8 28 67q0 115 -55.5 165t-169.5 50q-83 0 -142.5 -40t-84.5 -109h-58q17 69 17 102q0 23 -8 60q63 46 164.5 79t197.5 33zM868 584h439v49
q0 280 -209 280q-113 0 -171 -79.5t-59 -249.5zM303 272q0 -76 43 -125t119 -49q32 0 63.5 12.5t60 38t46.5 70.5t18 103v186l-180 -49q-96 -26 -133 -71t-37 -116z" />
    <glyph glyph-name="ccedilla" unicode="&#xe7;" horiz-adv-x="985" 
d="M631 999q151 0 313 -71q-37 -81 -47 -193h-39q-22 79 -79.5 124.5t-137.5 45.5q-61 0 -123.5 -31.5t-101.5 -97.5q-58 -92 -58 -258q0 -206 79.5 -317t226.5 -111q68 0 122 25.5t127 95.5l33 -18q-6 -9 -10.5 -18t-8 -20.5t-6 -19.5t-5.5 -22.5t-4 -20t-3.5 -22.5
t-3.5 -21q-138 -71 -297 -74l-51 -106q32 8 59 8q87 0 136 -36.5t49 -102.5q0 -89 -69 -134.5t-200 -45.5q-120 0 -182 32l33 72q76 -24 127 -24q115 0 115 81q0 36 -27.5 56t-77.5 20q-18 0 -49 -8l-25 16l78 179q-132 16 -231.5 89t-149 177.5t-49.5 222.5
q0 235 144 381.5t393 146.5z" />
    <glyph glyph-name="egrave" unicode="&#xe8;" horiz-adv-x="1099" 
d="M567 997q226 0 333 -117t112 -358v-39h-674q0 -192 84 -289.5t242 -97.5q74 0 157 36.5t133 92.5l23 -14q-16 -36 -35 -131q-51 -44 -146 -74.5t-188 -30.5q-113 0 -206 31.5t-163.5 94t-109.5 164.5t-39 235q0 230 133.5 363.5t343.5 133.5zM342 584h432v18
q0 162 -51.5 237.5t-155.5 75.5q-105 0 -162.5 -86t-62.5 -245zM319 1516q52 0 101 -54l291 -313h-105l-323 201q-30 19 -42 36.5t-12 45.5q0 36 28.5 60t61.5 24z" />
    <glyph glyph-name="eacute" unicode="&#xe9;" horiz-adv-x="1099" 
d="M567 997q226 0 333 -117t112 -358v-39h-674q0 -192 84 -289.5t242 -97.5q74 0 157 36.5t133 92.5l23 -14q-16 -36 -35 -131q-51 -44 -146 -74.5t-188 -30.5q-113 0 -206 31.5t-163.5 94t-109.5 164.5t-39 235q0 230 133.5 363.5t343.5 133.5zM342 584h432v18
q0 162 -51.5 237.5t-155.5 75.5q-105 0 -162.5 -86t-62.5 -245zM803 1534q33 0 61.5 -24t28.5 -60q0 -29 -11.5 -46t-41.5 -36l-324 -201h-104l290 314q48 53 101 53z" />
    <glyph glyph-name="ecircumflex" unicode="&#xea;" horiz-adv-x="1099" 
d="M567 997q226 0 333 -117t112 -358v-39h-674q0 -192 84 -289.5t242 -97.5q74 0 157 36.5t133 92.5l23 -14q-16 -36 -35 -131q-51 -44 -146 -74.5t-188 -30.5q-113 0 -206 31.5t-163.5 94t-109.5 164.5t-39 235q0 230 133.5 363.5t343.5 133.5zM342 584h432v18
q0 162 -51.5 237.5t-155.5 75.5q-105 0 -162.5 -86t-62.5 -245zM469 1501h162l254 -352h-103l-231 205l-234 -205h-100z" />
    <glyph glyph-name="edieresis" unicode="&#xeb;" horiz-adv-x="1099" 
d="M567 997q226 0 333 -117t112 -358v-39h-674q0 -192 84 -289.5t242 -97.5q74 0 157 36.5t133 92.5l23 -14q-16 -36 -35 -131q-51 -44 -146 -74.5t-188 -30.5q-113 0 -206 31.5t-163.5 94t-109.5 164.5t-39 235q0 230 133.5 363.5t343.5 133.5zM342 584h432v18
q0 162 -51.5 237.5t-155.5 75.5q-105 0 -162.5 -86t-62.5 -245zM340 1411q51 0 86 -35.5t35 -85.5q0 -48 -36 -84.5t-85 -36.5q-50 0 -85.5 35.5t-35.5 85.5q0 51 35.5 86t85.5 35zM760 1411q51 0 86 -35.5t35 -85.5q0 -48 -36 -84.5t-85 -36.5q-50 0 -85.5 35.5t-35.5 85.5
q0 51 35.5 86t85.5 35z" />
    <glyph glyph-name="igrave" unicode="&#xec;" 
d="M131 983q82 -12 137 -12q53 0 127 12q-16 -340 -16 -444q0 -21 1.5 -113.5t5 -227.5t7.5 -198q-89 12 -119 12q-53 0 -139 -12q17 332 17 475q0 104 -6.5 267t-14.5 241zM35 1516q51 0 100 -54l291 -313h-104l-324 201q-30 19 -41.5 36t-11.5 46q0 36 28.5 60t61.5 24z
" />
    <glyph glyph-name="iacute" unicode="&#xed;" 
d="M131 983q82 -12 137 -12q53 0 127 12q-16 -340 -16 -444q0 -21 1.5 -113.5t5 -227.5t7.5 -198q-89 12 -119 12q-53 0 -139 -12q17 332 17 475q0 104 -6.5 267t-14.5 241zM498 1534q33 0 61.5 -24t28.5 -60q0 -29 -11.5 -46t-41.5 -36l-324 -201h-105l291 314
q48 53 101 53z" />
    <glyph glyph-name="icircumflex" unicode="&#xee;" 
d="M131 983q82 -12 137 -12q53 0 127 12q-16 -340 -16 -444q0 -21 1.5 -113.5t5 -227.5t7.5 -198q-89 12 -119 12q-53 0 -139 -12q17 332 17 475q0 104 -6.5 267t-14.5 241zM184 1501h162l254 -352h-102l-232 205l-233 -205h-101z" />
    <glyph glyph-name="idieresis" unicode="&#xef;" 
d="M131 983q82 -12 137 -12q53 0 127 12q-16 -340 -16 -444q0 -21 1.5 -113.5t5 -227.5t7.5 -198q-89 12 -119 12q-53 0 -139 -12q17 332 17 475q0 104 -6.5 267t-14.5 241zM55 1411q51 0 86 -35.5t35 -85.5q0 -48 -36 -84.5t-85 -36.5t-85 35.5t-36 85.5q0 51 35.5 86
t85.5 35zM475 1411q51 0 86 -35.5t35 -85.5q0 -48 -36 -84.5t-85 -36.5t-85 35.5t-36 85.5q0 51 35.5 86t85.5 35z" />
    <glyph glyph-name="eth" unicode="&#xf0;" horiz-adv-x="1214" 
d="M272 1499l64 31q147 -75 270 -174q192 65 303 119q38 -73 58 -95q-193 -50 -285 -88q225 -172 331.5 -366t106.5 -424q0 -251 -135 -389t-379 -138q-236 0 -375 138t-139 372t140.5 373t373.5 139q66 0 115 -10q-35 60 -86 116t-127 126q-204 -68 -303 -119
q-21 48 -58 94q128 32 287 90q-128 106 -246 174zM348 487q0 -213 66 -321.5t192 -108.5q125 0 191.5 108.5t66.5 321.5q0 211 -66 319.5t-194 108.5q-123 0 -189.5 -108t-66.5 -320z" />
    <glyph glyph-name="ntilde" unicode="&#xf1;" horiz-adv-x="1175" 
d="M690 993q165 0 253.5 -90t88.5 -258q0 -7 -4 -180.5t-4 -212.5q0 -170 14 -252q-8 1 -57 6.5t-76 5.5q-10 0 -133 -12q25 159 25 434q0 162 -7 231t-28 103q-52 84 -168 84q-46 0 -96 -26t-76 -70q-47 -79 -47 -303q0 -305 14 -453q-20 1 -71 6.5t-60 5.5q-50 0 -127 -12
q21 281 21 602q0 220 -17 381q76 -12 133 -12q50 0 115 12q-10 -52 -10 -109v-63q72 100 142.5 141t174.5 41zM879 1425h73q-25 -110 -82.5 -169.5t-144.5 -59.5q-51 0 -115 22t-116 44t-72 22q-37 0 -65.5 -23.5t-41.5 -66.5h-73q37 123 92 176t133 53q50 0 160 -44
t143 -44q83 0 109 90z" />
    <glyph glyph-name="ograve" unicode="&#xf2;" horiz-adv-x="1214" 
d="M606 997q244 0 379 -135t135 -377q0 -236 -138 -373t-376 -137q-236 0 -375 138t-139 372t140.5 373t373.5 139zM348 487q0 -213 66 -321.5t192 -108.5q125 0 191.5 108.5t66.5 321.5q0 211 -65.5 319.5t-194.5 108.5q-123 0 -189.5 -108t-66.5 -320zM377 1516
q51 0 100 -54l291 -313h-104l-324 201q-30 19 -41.5 36t-11.5 46q0 36 28.5 60t61.5 24z" />
    <glyph glyph-name="oacute" unicode="&#xf3;" horiz-adv-x="1214" 
d="M606 997q244 0 379 -135t135 -377q0 -236 -138 -373t-376 -137q-236 0 -375 138t-139 372t140.5 373t373.5 139zM348 487q0 -213 66 -321.5t192 -108.5q125 0 191.5 108.5t66.5 321.5q0 211 -65.5 319.5t-194.5 108.5q-123 0 -189.5 -108t-66.5 -320zM840 1534
q33 0 61.5 -24t28.5 -60q0 -29 -11.5 -46t-41.5 -36l-324 -201h-104l290 314q48 53 101 53z" />
    <glyph glyph-name="ocircumflex" unicode="&#xf4;" horiz-adv-x="1214" 
d="M606 997q244 0 379 -135t135 -377q0 -236 -138 -373t-376 -137q-236 0 -375 138t-139 372t140.5 373t373.5 139zM348 487q0 -213 66 -321.5t192 -108.5q125 0 191.5 108.5t66.5 321.5q0 211 -65.5 319.5t-194.5 108.5q-123 0 -189.5 -108t-66.5 -320zM526 1501h162
l254 -352h-102l-232 205l-233 -205h-101z" />
    <glyph glyph-name="otilde" unicode="&#xf5;" horiz-adv-x="1214" 
d="M606 997q244 0 379 -135t135 -377q0 -236 -138 -373t-376 -137q-236 0 -375 138t-139 372t140.5 373t373.5 139zM348 487q0 -213 66 -321.5t192 -108.5q125 0 191.5 108.5t66.5 321.5q0 211 -65.5 319.5t-194.5 108.5q-123 0 -189.5 -108t-66.5 -320zM897 1425h74
q-25 -110 -83 -169.5t-145 -59.5q-51 0 -115 22t-116 44t-72 22q-37 0 -65 -23.5t-41 -66.5h-74q37 123 92 176t133 53q50 0 160 -44t143 -44q83 0 109 90z" />
    <glyph glyph-name="odieresis" unicode="&#xf6;" horiz-adv-x="1214" 
d="M606 997q244 0 379 -135t135 -377q0 -236 -138 -373t-376 -137q-236 0 -375 138t-139 372t140.5 373t373.5 139zM348 487q0 -213 66 -321.5t192 -108.5q125 0 191.5 108.5t66.5 321.5q0 211 -65.5 319.5t-194.5 108.5q-123 0 -189.5 -108t-66.5 -320zM397 1411
q51 0 86 -35.5t35 -85.5q0 -48 -36 -84.5t-85 -36.5t-85 35.5t-36 85.5q0 51 35.5 86t85.5 35zM817 1411q51 0 86 -35.5t35 -85.5q0 -48 -36 -84.5t-85 -36.5t-85 35.5t-36 85.5q0 51 35.5 86t85.5 35z" />
    <glyph glyph-name="divide" unicode="&#xf7;" horiz-adv-x="1366" 
d="M684 1157q50 0 91.5 -41t41.5 -94q0 -54 -39.5 -93.5t-93.5 -39.5q-56 0 -95.5 39t-39.5 94q0 56 39.5 95.5t95.5 39.5zM152 692h1062v-133h-1062v133zM684 362q50 0 91.5 -41t41.5 -94q0 -54 -40.5 -93.5t-92.5 -39.5q-56 0 -95.5 39t-39.5 94t39.5 95t95.5 40z" />
    <glyph glyph-name="oslash" unicode="&#xf8;" horiz-adv-x="1214" 
d="M907 922l162 194l70 -57l-160 -189q141 -132 141 -354q0 -255 -131.5 -398t-374.5 -143q-189 0 -305 78l-155 -190l-70 57l156 186q-148 145 -148 377q0 233 136.5 373.5t367.5 140.5q183 0 311 -75zM348 496q0 -139 25 -228l432 529q-63 118 -199 118
q-125 0 -191.5 -108.5t-66.5 -310.5zM840 702q-32 -39 -106 -130.5t-118 -143.5l-208 -254q32 -53 83 -85t111 -32q262 0 262 432q0 125 -24 213z" />
    <glyph glyph-name="ugrave" unicode="&#xf9;" horiz-adv-x="1175" 
d="M137 983q74 -12 131 -12q62 0 133 12q-10 -40 -17 -182t-7 -264q0 -232 16 -281q15 -55 64 -91t114 -36q37 0 71 10t69.5 39t54.5 74q33 76 33 235q0 370 -15 496q78 -12 119 -12q57 0 139 12q-20 -321 -20 -557q0 -223 16 -426q-28 2 -67.5 7t-61.5 5q-30 0 -116 -12
q8 57 8 90v76q-71 -99 -151.5 -144t-180.5 -45q-64 0 -120.5 20t-104 60.5t-75.5 112.5t-28 166q0 58 4.5 207t4.5 225q0 109 -13 215zM358 1516q52 0 101 -54l291 -313h-105l-323 201q-30 19 -42 36.5t-12 45.5q0 36 28.5 60t61.5 24z" />
    <glyph glyph-name="uacute" unicode="&#xfa;" horiz-adv-x="1175" 
d="M137 983q74 -12 131 -12q62 0 133 12q-10 -40 -17 -182t-7 -264q0 -232 16 -281q15 -55 64 -91t114 -36q37 0 71 10t69.5 39t54.5 74q33 76 33 235q0 370 -15 496q78 -12 119 -12q57 0 139 12q-20 -321 -20 -557q0 -223 16 -426q-28 2 -67.5 7t-61.5 5q-30 0 -116 -12
q8 57 8 90v76q-71 -99 -151.5 -144t-180.5 -45q-64 0 -120.5 20t-104 60.5t-75.5 112.5t-28 166q0 58 4.5 207t4.5 225q0 109 -13 215zM883 1534q33 0 61.5 -24t28.5 -60q0 -29 -11.5 -46t-41.5 -36l-324 -201h-104l290 314q48 53 101 53z" />
    <glyph glyph-name="ucircumflex" unicode="&#xfb;" horiz-adv-x="1175" 
d="M137 983q74 -12 131 -12q62 0 133 12q-10 -40 -17 -182t-7 -264q0 -232 16 -281q15 -55 64 -91t114 -36q37 0 71 10t69.5 39t54.5 74q33 76 33 235q0 370 -15 496q78 -12 119 -12q57 0 139 12q-20 -321 -20 -557q0 -223 16 -426q-28 2 -67.5 7t-61.5 5q-30 0 -116 -12
q8 57 8 90v76q-71 -99 -151.5 -144t-180.5 -45q-64 0 -120.5 20t-104 60.5t-75.5 112.5t-28 166q0 58 4.5 207t4.5 225q0 109 -13 215zM508 1501h162l254 -352h-103l-231 205l-234 -205h-100z" />
    <glyph glyph-name="udieresis" unicode="&#xfc;" horiz-adv-x="1175" 
d="M137 983q74 -12 131 -12q62 0 133 12q-10 -40 -17 -182t-7 -264q0 -232 16 -281q15 -55 64 -91t114 -36q37 0 71 10t69.5 39t54.5 74q33 76 33 235q0 370 -15 496q78 -12 119 -12q57 0 139 12q-20 -321 -20 -557q0 -223 16 -426q-28 2 -67.5 7t-61.5 5q-30 0 -116 -12
q8 57 8 90v76q-71 -99 -151.5 -144t-180.5 -45q-64 0 -120.5 20t-104 60.5t-75.5 112.5t-28 166q0 58 4.5 207t4.5 225q0 109 -13 215zM379 1411q51 0 86 -35.5t35 -85.5q0 -48 -36 -84.5t-85 -36.5t-85 35.5t-36 85.5q0 51 35.5 86t85.5 35zM799 1411q51 0 86 -35.5
t35 -85.5q0 -48 -36 -84.5t-85 -36.5t-85 35.5t-36 85.5q0 51 35.5 86t85.5 35z" />
    <glyph glyph-name="yacute" unicode="&#xfd;" horiz-adv-x="1024" 
d="M160 971q39 0 141 12q41 -129 122.5 -346t151.5 -377q53 121 115 291q38 107 63 183.5t46.5 147.5t31.5 101q59 -12 91 -12q31 0 92 12q-101 -199 -352 -782q-229 -533 -279 -729q-59 12 -92 12q-35 0 -94 -12q63 101 127 227l135 264q-6 28 -107 264q-96 224 -336 756
q91 -12 144 -12zM807 1534q33 0 61.5 -24t28.5 -60q0 -29 -11.5 -46t-41.5 -36l-324 -201h-104l291 314q48 53 100 53z" />
    <glyph glyph-name="thorn" unicode="&#xfe;" horiz-adv-x="1214" 
d="M362 840q123 172 320 172q128 0 230 -71.5t156 -186t54 -246.5q0 -147 -52.5 -263t-158 -185.5t-249.5 -69.5q-93 0 -162 32.5t-129 100.5q0 -452 22 -655q-61 12 -135 12q-50 0 -127 -12q25 304 25 774q0 623 -4.5 870.5t-18.5 405.5q104 -13 135 -13q21 0 133 13
q-39 -354 -39 -678zM371 492q0 -193 64.5 -294.5t191.5 -101.5q114 0 176.5 105t62.5 280q0 195 -63.5 300.5t-186.5 105.5q-115 0 -180 -107.5t-65 -287.5z" />
    <glyph glyph-name="ydieresis" unicode="&#xff;" horiz-adv-x="1024" 
d="M160 971q39 0 141 12q41 -129 122.5 -346t151.5 -377q53 121 115 291q38 107 63 183.5t46.5 147.5t31.5 101q59 -12 91 -12q31 0 92 12q-101 -199 -352 -782q-229 -533 -279 -729q-59 12 -92 12q-35 0 -94 -12q63 101 127 227l135 264q-6 28 -107 264q-96 224 -336 756
q91 -12 144 -12zM313 1411q51 0 86 -35.5t35 -85.5q0 -48 -36 -84.5t-85 -36.5t-84.5 35.5t-35.5 85.5q0 51 35 86t85 35zM733 1411q51 0 86 -35.5t35 -85.5q0 -48 -36 -84.5t-85 -36.5t-85 35.5t-36 85.5q0 51 35.5 86t85.5 35z" />
    <glyph glyph-name="Amacron" unicode="&#x100;" horiz-adv-x="1327" 
d="M602 1425q29 -10 68 -10q35 0 65 10q179 -500 600 -1425q-133 12 -159 12q-34 0 -152 -12q-156 405 -172 444q-122 9 -260 9q-53 0 -150 -5l-98 -4q-120 -288 -164 -444q-71 12 -98 12q-17 0 -33 -2t-34 -5.5t-25 -4.5l223 496q209 465 282 640.5t107 288.5zM600 1073
l-209 -502q143 -8 213 -8q124 0 189 8zM375 1690h586v-134h-586v134z" />
    <glyph glyph-name="amacron" unicode="&#x101;" horiz-adv-x="1024" 
d="M479 999q175 0 274 -81t99 -232q0 -54 -3 -205t-3 -231q0 -89 15 -123.5t57 -34.5q14 0 57 17q-8 -19 -8 -39q0 -7 4 -20.5t4 -14.5q-112 -45 -174 -45q-70 0 -108 27t-62 98q-48 -64 -122 -102t-155 -38q-133 0 -206.5 71.5t-73.5 182.5q0 59 13 104t38 74t47 45t53 31
q50 25 181 58q186 50 198 59q25 15 25 57q0 104 -52 160.5t-149 56.5q-85 0 -142.5 -39t-76.5 -106q-12 4 -39 4q-13 0 -25 -4q11 69 11 113q0 33 -2 43q119 71 180.5 92.5t144.5 21.5zM305 276q0 -81 36.5 -128.5t98.5 -47.5q78 0 130.5 56t52.5 135v217q-5 -1 -29.5 -7.5
t-49 -13.5t-26.5 -8q-60 -16 -97 -31.5t-65 -39t-39.5 -55t-11.5 -77.5zM215 1362h586v-133h-586v133z" />
    <glyph glyph-name="Abreve" unicode="&#x102;" horiz-adv-x="1327" 
d="M602 1425q29 -10 68 -10q35 0 65 10q179 -500 600 -1425q-133 12 -159 12q-34 0 -152 -12q-156 405 -172 444q-122 9 -260 9q-53 0 -150 -5l-98 -4q-120 -288 -164 -444q-71 12 -98 12q-17 0 -33 -2t-34 -5.5t-25 -4.5l223 496q209 465 282 640.5t107 288.5zM600 1073
l-209 -502q143 -8 213 -8q124 0 189 8zM889 1804h82q-15 -136 -53 -190q-91 -137 -261 -137q-133 0 -208 80.5t-84 244.5h79q37 -182 211 -182q209 0 234 184z" />
    <glyph glyph-name="abreve" unicode="&#x103;" horiz-adv-x="1024" 
d="M479 999q175 0 274 -81t99 -232q0 -54 -3 -205t-3 -231q0 -89 15 -123.5t57 -34.5q14 0 57 17q-8 -19 -8 -39q0 -7 4 -20.5t4 -14.5q-112 -45 -174 -45q-70 0 -108 27t-62 98q-48 -64 -122 -102t-155 -38q-133 0 -206.5 71.5t-73.5 182.5q0 59 13 104t38 74t47 45t53 31
q50 25 181 58q186 50 198 59q25 15 25 57q0 104 -52 160.5t-149 56.5q-85 0 -142.5 -39t-76.5 -106q-12 4 -39 4q-13 0 -25 -4q11 69 11 113q0 33 -2 43q119 71 180.5 92.5t144.5 21.5zM305 276q0 -81 36.5 -128.5t98.5 -47.5q78 0 130.5 56t52.5 135v217q-5 -1 -29.5 -7.5
t-49 -13.5t-26.5 -8q-60 -16 -97 -31.5t-65 -39t-39.5 -55t-11.5 -77.5zM729 1477h82q-15 -131 -51 -187q-91 -141 -262 -141q-133 0 -208.5 81.5t-84.5 244.5h80q38 -183 211 -183q208 0 233 185z" />
    <glyph glyph-name="Aogonek" unicode="&#x104;" horiz-adv-x="1327" 
d="M1186 12q-9 -11 -48 -52t-52.5 -58t-29.5 -48t-16 -57q0 -46 28.5 -74t70.5 -28q44 0 112 55l35 -37q-74 -85 -123.5 -115t-111.5 -30q-70 0 -114 46.5t-44 111.5q0 68 49.5 134t165.5 148l-84 -8q-156 405 -172 444q-122 9 -260 9q-53 0 -150 -5l-98 -4
q-120 -288 -164 -444q-71 12 -98 12q-17 0 -33 -2t-34 -5.5t-25 -4.5l223 496q209 465 282 640.5t107 288.5q29 -10 68 -10q35 0 65 10q179 -500 600 -1425zM600 1073l-209 -502q143 -8 213 -8q124 0 189 8z" />
    <glyph glyph-name="aogonek" unicode="&#x105;" horiz-adv-x="1024" 
d="M479 999q175 0 274 -81t99 -232q0 -72 -3 -217t-3 -219q0 -89 15 -123.5t57 -34.5q14 0 57 17q-8 -19 -8 -39q0 -7 4 -20.5t4 -14.5q-85 -33 -125 -41q-7 -7 -26 -27.5t-27 -29t-23 -26.5t-22 -29.5t-15.5 -27t-12 -29.5t-3.5 -28q0 -46 28 -74t70 -28q45 0 113 55
l35 -37q-74 -85 -123.5 -115t-112.5 -30q-70 0 -114 46.5t-44 111.5t44.5 126.5t148.5 139.5q-52 4 -82.5 32t-52.5 91q-48 -64 -122 -102t-155 -38q-133 0 -206.5 71.5t-73.5 182.5q0 59 13 104t38 74t47 45t53 31q50 25 181 58q186 50 198 59q25 15 25 57q0 104 -52 160.5
t-149 56.5q-85 0 -142.5 -39t-76.5 -106q-12 4 -39 4q-13 0 -25 -4q11 69 11 113q0 33 -2 43q119 71 180.5 92.5t144.5 21.5zM305 276q0 -81 36.5 -128.5t98.5 -47.5q78 0 130.5 56t52.5 135v217q-5 -1 -29.5 -7.5t-49 -13.5t-26.5 -8q-60 -16 -97 -31.5t-65 -39t-39.5 -55
t-11.5 -77.5z" />
    <glyph glyph-name="Cacute" unicode="&#x106;" horiz-adv-x="1441" 
d="M903 1421q253 0 479 -102l-61 -201h-21q-94 193 -391 193q-253 0 -388.5 -160.5t-135.5 -454.5q0 -142 39 -258.5t106 -193t156 -118.5t191 -42q145 0 260 54.5t217 178.5l22 -14l-22 -203q-229 -129 -516 -129q-157 0 -291 49t-232.5 138.5t-154.5 224t-56 297.5
q0 161 51 295.5t149 234.5t251.5 155.5t347.5 55.5zM1055 1862q41 0 68.5 -23.5t27.5 -60.5q0 -50 -49 -80l-330 -203h-104l286 311q52 56 101 56z" />
    <glyph glyph-name="cacute" unicode="&#x107;" horiz-adv-x="985" 
d="M631 999q151 0 313 -71q-37 -81 -47 -193h-39q-22 79 -79.5 124.5t-137.5 45.5q-61 0 -123.5 -31.5t-101.5 -97.5q-58 -92 -58 -258q0 -206 79.5 -317t226.5 -111q68 0 122 25.5t127 95.5l33 -18q-6 -9 -10.5 -18t-8 -20.5t-6 -19.5t-5.5 -22.5t-4 -20t-3.5 -22.5
t-3.5 -21q-142 -74 -303 -74q-117 0 -214.5 41.5t-161 111t-98 158.5t-34.5 185q0 235 144 381.5t393 146.5zM760 1534q33 0 61.5 -24t28.5 -60q0 -29 -11.5 -46t-41.5 -36l-324 -201h-104l290 314q48 53 101 53z" />
    <glyph glyph-name="Ccircumflex" unicode="&#x108;" horiz-adv-x="1441" 
d="M903 1421q253 0 479 -102l-61 -201h-21q-94 193 -391 193q-253 0 -388.5 -160.5t-135.5 -454.5q0 -142 39 -258.5t106 -193t156 -118.5t191 -42q145 0 260 54.5t217 178.5l22 -14l-22 -203q-229 -129 -516 -129q-157 0 -291 49t-232.5 138.5t-154.5 224t-56 297.5
q0 161 51 295.5t149 234.5t251.5 155.5t347.5 55.5zM766 1829h162l254 -352h-103l-231 204l-234 -204h-100z" />
    <glyph glyph-name="ccircumflex" unicode="&#x109;" horiz-adv-x="985" 
d="M631 999q151 0 313 -71q-37 -81 -47 -193h-39q-22 79 -79.5 124.5t-137.5 45.5q-61 0 -123.5 -31.5t-101.5 -97.5q-58 -92 -58 -258q0 -206 79.5 -317t226.5 -111q68 0 122 25.5t127 95.5l33 -18q-6 -9 -10.5 -18t-8 -20.5t-6 -19.5t-5.5 -22.5t-4 -20t-3.5 -22.5
t-3.5 -21q-142 -74 -303 -74q-117 0 -214.5 41.5t-161 111t-98 158.5t-34.5 185q0 235 144 381.5t393 146.5zM471 1501h162l254 -352h-103l-231 205l-234 -205h-100z" />
    <glyph glyph-name="Cdotaccent" unicode="&#x10a;" horiz-adv-x="1441" 
d="M903 1421q253 0 479 -102l-61 -201h-21q-94 193 -391 193q-253 0 -388.5 -160.5t-135.5 -454.5q0 -142 39 -258.5t106 -193t156 -118.5t191 -42q145 0 260 54.5t217 178.5l22 -14l-22 -203q-229 -129 -516 -129q-157 0 -291 49t-232.5 138.5t-154.5 224t-56 297.5
q0 161 51 295.5t149 234.5t251.5 155.5t347.5 55.5zM846 1718q51 0 86 -35.5t35 -85.5q0 -49 -35.5 -84.5t-85.5 -35.5q-51 0 -86 35t-35 85q0 51 35.5 86t85.5 35z" />
    <glyph glyph-name="cdotaccent" unicode="&#x10b;" horiz-adv-x="985" 
d="M631 999q151 0 313 -71q-37 -81 -47 -193h-39q-22 79 -79.5 124.5t-137.5 45.5q-61 0 -123.5 -31.5t-101.5 -97.5q-58 -92 -58 -258q0 -206 79.5 -317t226.5 -111q68 0 122 25.5t127 95.5l33 -18q-6 -9 -10.5 -18t-8 -20.5t-6 -19.5t-5.5 -22.5t-4 -20t-3.5 -22.5
t-3.5 -21q-142 -74 -303 -74q-117 0 -214.5 41.5t-161 111t-98 158.5t-34.5 185q0 235 144 381.5t393 146.5zM571 1411q51 0 86 -35.5t35 -85.5q0 -48 -36 -84.5t-85 -36.5t-84.5 35.5t-35.5 85.5q0 51 35 86t85 35z" />
    <glyph glyph-name="Ccaron" unicode="&#x10c;" horiz-adv-x="1441" 
d="M903 1421q253 0 479 -102l-61 -201h-21q-94 193 -391 193q-253 0 -388.5 -160.5t-135.5 -454.5q0 -142 39 -258.5t106 -193t156 -118.5t191 -42q145 0 260 54.5t217 178.5l22 -14l-22 -203q-229 -129 -516 -129q-157 0 -291 49t-232.5 138.5t-154.5 224t-56 297.5
q0 161 51 295.5t149 234.5t251.5 155.5t347.5 55.5zM766 1477l-252 352h100l234 -207l231 207h103l-254 -352h-162z" />
    <glyph glyph-name="ccaron" unicode="&#x10d;" horiz-adv-x="985" 
d="M631 999q151 0 313 -71q-37 -81 -47 -193h-39q-22 79 -79.5 124.5t-137.5 45.5q-61 0 -123.5 -31.5t-101.5 -97.5q-58 -92 -58 -258q0 -206 79.5 -317t226.5 -111q68 0 122 25.5t127 95.5l33 -18q-6 -9 -10.5 -18t-8 -20.5t-6 -19.5t-5.5 -22.5t-4 -20t-3.5 -22.5
t-3.5 -21q-142 -74 -303 -74q-117 0 -214.5 41.5t-161 111t-98 158.5t-34.5 185q0 235 144 381.5t393 146.5zM471 1149l-252 352h100l234 -207l231 207h103l-254 -352h-162z" />
    <glyph glyph-name="Dcaron" unicode="&#x10e;" horiz-adv-x="1593" 
d="M170 1405q141 -10 172 -10q49 0 167.5 5t180.5 5q242 0 379 -45q203 -68 311.5 -232.5t108.5 -386.5q0 -339 -199 -540t-534 -201q-58 0 -194 5t-195 5q-36 0 -197 -10q1 41 7.5 218.5t6.5 273.5v464q0 93 -14 449zM446 1286q-10 -156 -10 -235v-666q0 -31 5 -145t5 -121
q118 -10 267 -10q99 0 186.5 39.5t157.5 114.5t110.5 196.5t40.5 273.5q0 261 -142 412t-413 151q-94 0 -207 -10zM604 1477l-252 352h101l233 -207l232 207h102l-254 -352h-162z" />
    <glyph glyph-name="dcaron" unicode="&#x10f;" horiz-adv-x="1214" 
d="M819 1518q76 -13 144 -13q74 0 118 13q-22 -369 -22 -746q0 -204 7 -457t15 -315q-70 12 -116 12q-24 0 -44 -2t-42 -5.5t-33 -4.5l6 141q-55 -80 -135.5 -125t-175.5 -45q-196 0 -322.5 143.5t-126.5 356.5q0 238 126.5 380t332.5 142q88 0 155 -29.5t138 -105.5
q0 473 -25 660zM348 512q0 -201 61 -309.5t181 -108.5q122 0 188 104t66 296q0 391 -246 391q-120 0 -185 -101t-65 -272zM1333 1505q34 0 58 -14.5t24 -42.5q0 -36 -24 -70q-6 -10 -183 -252h-71l80 291q24 88 116 88z" />
    <glyph glyph-name="Dcroat" unicode="&#x110;" horiz-adv-x="1593" 
d="M170 1405q141 -10 172 -10q49 0 167.5 5t180.5 5q242 0 379 -45q203 -68 311.5 -232.5t108.5 -386.5q0 -339 -199 -540t-534 -201q-58 0 -194 5t-195 5q-36 0 -197 -10q1 41 7.5 218.5t6.5 273.5v210q-85 -4 -170 -10q1 11 5 34.5t4 37.5q0 13 -4 34.5t-5 30.5
q82 -12 170 -12v139q0 93 -14 449zM446 1286q-10 -156 -10 -235v-234q157 4 352 17q-8 -41 -8 -68q0 -34 8 -70l-352 6v-317q0 -31 5 -145t5 -121q118 -10 267 -10q99 0 186.5 39.5t157.5 114.5t110.5 196.5t40.5 273.5q0 261 -142 412t-413 151q-94 0 -207 -10z" />
    <glyph glyph-name="dcroat" unicode="&#x111;" horiz-adv-x="1214" 
d="M819 1518q76 -13 144 -13q74 0 118 13q-10 -203 -12 -224q33 0 131 13q-6 -34 -6 -66q0 -35 6 -72l-135 9q-6 -202 -6 -406t7 -457t15 -315q-70 12 -116 12q-24 0 -44 -2t-42 -5.5t-33 -4.5l6 141q-55 -80 -135.5 -125t-175.5 -45q-196 0 -322.5 143.5t-126.5 356.5
q0 238 126.5 380t332.5 142q88 0 155 -29.5t138 -105.5q0 222 -4 322q-63 -2 -165 -3.5t-124 -2.5q6 49 6 69q0 8 -1 19.5t-2.5 26t-2.5 22.5q151 -13 285 -17q-7 143 -17 224zM348 512q0 -201 61 -309.5t181 -108.5q122 0 188 104t66 296q0 391 -246 391q-120 0 -185 -101
t-65 -272z" />
    <glyph glyph-name="Emacron" unicode="&#x112;" horiz-adv-x="1024" 
d="M170 1405q199 -12 369 -12q53 0 379 12q-11 -40 -11 -68q0 -40 11 -73q-41 1 -123 6t-123 6q-82 2 -232 2v-481q343 0 443 14q-11 -37 -11 -74q0 -40 11 -69q-167 14 -443 14v-555q236 0 490 14q-10 -23 -10 -67q0 -45 10 -74q-188 12 -375 12q-167 0 -385 -12
q18 326 18 715q0 417 -18 690zM260 1690h586v-134h-586v134z" />
    <glyph glyph-name="emacron" unicode="&#x113;" horiz-adv-x="1099" 
d="M567 997q226 0 333 -117t112 -358v-39h-674q0 -192 84 -289.5t242 -97.5q74 0 157 36.5t133 92.5l23 -14q-16 -36 -35 -131q-51 -44 -146 -74.5t-188 -30.5q-113 0 -206 31.5t-163.5 94t-109.5 164.5t-39 235q0 230 133.5 363.5t343.5 133.5zM342 584h432v18
q0 162 -51.5 237.5t-155.5 75.5q-105 0 -162.5 -86t-62.5 -245zM264 1362h586v-133h-586v133z" />
    <glyph glyph-name="Ebreve" unicode="&#x114;" horiz-adv-x="1024" 
d="M170 1405q199 -12 369 -12q53 0 379 12q-11 -40 -11 -68q0 -40 11 -73q-41 1 -123 6t-123 6q-82 2 -232 2v-481q343 0 443 14q-11 -37 -11 -74q0 -40 11 -69q-167 14 -443 14v-555q236 0 490 14q-10 -23 -10 -67q0 -45 10 -74q-188 12 -375 12q-167 0 -385 -12
q18 326 18 715q0 417 -18 690zM774 1804h82q-15 -136 -53 -190q-42 -64 -103 -100.5t-157 -36.5q-133 0 -208.5 80.5t-84.5 244.5h80q37 -182 211 -182q208 0 233 184z" />
    <glyph glyph-name="ebreve" unicode="&#x115;" horiz-adv-x="1099" 
d="M567 997q226 0 333 -117t112 -358v-39h-674q0 -192 84 -289.5t242 -97.5q74 0 157 36.5t133 92.5l23 -14q-16 -36 -35 -131q-51 -44 -146 -74.5t-188 -30.5q-113 0 -206 31.5t-163.5 94t-109.5 164.5t-39 235q0 230 133.5 363.5t343.5 133.5zM342 584h432v18
q0 162 -51.5 237.5t-155.5 75.5q-105 0 -162.5 -86t-62.5 -245zM778 1477h82q-15 -131 -51 -187q-91 -141 -262 -141q-133 0 -208.5 81.5t-84.5 244.5h80q38 -183 211 -183q208 0 233 185z" />
    <glyph glyph-name="Edotaccent" unicode="&#x116;" horiz-adv-x="1024" 
d="M170 1405q199 -12 369 -12q53 0 379 12q-11 -40 -11 -68q0 -40 11 -73q-41 1 -123 6t-123 6q-82 2 -232 2v-481q343 0 443 14q-11 -37 -11 -74q0 -40 11 -69q-167 14 -443 14v-555q236 0 490 14q-10 -23 -10 -67q0 -45 10 -74q-188 12 -375 12q-167 0 -385 -12
q18 326 18 715q0 417 -18 690zM535 1718q51 0 85.5 -35.5t34.5 -85.5q0 -49 -35.5 -84.5t-84.5 -35.5q-51 0 -86 35t-35 85q0 51 35.5 86t85.5 35z" />
    <glyph glyph-name="edotaccent" unicode="&#x117;" horiz-adv-x="1099" 
d="M567 997q226 0 333 -117t112 -358v-39h-674q0 -192 84 -289.5t242 -97.5q74 0 157 36.5t133 92.5l23 -14q-16 -36 -35 -131q-51 -44 -146 -74.5t-188 -30.5q-113 0 -206 31.5t-163.5 94t-109.5 164.5t-39 235q0 230 133.5 363.5t343.5 133.5zM342 584h432v18
q0 162 -51.5 237.5t-155.5 75.5q-105 0 -162.5 -86t-62.5 -245zM567 1411q51 0 86 -35.5t35 -85.5q0 -48 -36 -84.5t-85 -36.5t-85 35.5t-36 85.5q0 51 35.5 86t85.5 35z" />
    <glyph glyph-name="Eogonek" unicode="&#x118;" horiz-adv-x="1024" 
d="M170 1405q199 -12 369 -12q53 0 379 12q-11 -40 -11 -68q0 -40 11 -73q-41 1 -123 6t-123 6q-82 2 -232 2v-481q343 0 443 14q-11 -37 -11 -74q0 -40 11 -69q-167 14 -443 14v-555q236 0 490 14q-10 -23 -10 -67q0 -45 10 -74l-144 8q-12 -13 -38 -41t-39 -44t-30 -39.5
t-24.5 -44.5t-7.5 -42q0 -46 28 -74t70 -28q45 0 113 55l35 -37q-74 -85 -123.5 -115t-112.5 -30q-70 0 -113.5 46.5t-43.5 111.5q0 69 49.5 135t167.5 149q-28 0 -82 1t-80 1q-167 0 -385 -12q18 326 18 715q0 417 -18 690z" />
    <glyph glyph-name="eogonek" unicode="&#x119;" horiz-adv-x="1099" 
d="M567 997q226 0 333 -117t112 -358v-39h-674q0 -192 84 -289.5t242 -97.5q74 0 157 36.5t133 92.5l23 -14q-16 -36 -35 -131q-48 -42 -138.5 -72t-182.5 -33q-39 -42 -56 -61.5t-36 -54t-19 -62.5q0 -46 28 -74t70 -28q45 0 113 55l35 -37q-74 -85 -123.5 -115t-112.5 -30
q-70 0 -114 46.5t-44 111.5q0 62 41 121.5t136 132.5q-205 18 -327 148t-122 372q0 230 133.5 363.5t343.5 133.5zM342 584h432v18q0 162 -51.5 237.5t-155.5 75.5q-105 0 -162.5 -86t-62.5 -245z" />
    <glyph glyph-name="Ecaron" unicode="&#x11a;" horiz-adv-x="1024" 
d="M170 1405q199 -12 369 -12q53 0 379 12q-11 -40 -11 -68q0 -40 11 -73q-41 1 -123 6t-123 6q-82 2 -232 2v-481q343 0 443 14q-11 -37 -11 -74q0 -40 11 -69q-167 14 -443 14v-555q236 0 490 14q-10 -23 -10 -67q0 -45 10 -74q-188 12 -375 12q-167 0 -385 -12
q18 326 18 715q0 417 -18 690zM471 1477l-252 352h100l234 -207l231 207h103l-254 -352h-162z" />
    <glyph glyph-name="ecaron" unicode="&#x11b;" horiz-adv-x="1099" 
d="M567 997q226 0 333 -117t112 -358v-39h-674q0 -192 84 -289.5t242 -97.5q74 0 157 36.5t133 92.5l23 -14q-16 -36 -35 -131q-51 -44 -146 -74.5t-188 -30.5q-113 0 -206 31.5t-163.5 94t-109.5 164.5t-39 235q0 230 133.5 363.5t343.5 133.5zM342 584h432v18
q0 162 -51.5 237.5t-155.5 75.5q-105 0 -162.5 -86t-62.5 -245zM475 1149l-252 352h101l233 -207l231 207h103l-254 -352h-162z" />
    <glyph glyph-name="Gcircumflex" unicode="&#x11c;" horiz-adv-x="1593" 
d="M903 1421q253 0 479 -102l-61 -201h-21q-94 193 -391 193q-253 0 -388.5 -160.5t-135.5 -456.5q0 -268 131 -434q136 -176 367 -176q171 0 288 74q0 8 3.5 87t3.5 95q0 106 -13 305q82 -14 146 -14q46 0 129 14q-17 -89 -17 -350q0 -103 7 -180q-124 -66 -283 -105
t-311 -39q-205 0 -370 82.5t-263.5 243t-98.5 371.5q0 165 50 301.5t147 238t250.5 157.5t351.5 56zM770 1829h162l254 -352h-103l-231 204l-234 -204h-100z" />
    <glyph glyph-name="gcircumflex" unicode="&#x11d;" horiz-adv-x="1062" 
d="M485 995q52 0 157 -16t200 -16q110 0 168 10q-6 -47 -6 -53q0 -20 6 -62q-95 8 -199 14q51 -51 74.5 -100t23.5 -127q0 -133 -96 -209t-238 -86q-31 -2 -161 -6q-97 -3 -97 -88q0 -53 35 -77.5t129 -24.5q175 0 250.5 -5.5t130.5 -25.5q69 -25 109.5 -87t40.5 -145
q0 -124 -70 -224t-185 -154t-249 -54q-207 0 -330 74t-123 209q0 210 221 254q-66 20 -105.5 66t-39.5 98q0 84 46 133t138 80q-227 80 -227 286q0 153 107.5 244.5t289.5 91.5zM326 670q0 -141 43 -197.5t133 -56.5q79 0 125.5 68t46.5 190q0 116 -45 178.5t-129 62.5
q-174 0 -174 -245zM227 -221q0 -106 74 -165.5t205 -59.5q134 0 225.5 65.5t91.5 177.5q0 91 -69.5 135.5t-241.5 44.5q-139 0 -203 -40q-82 -52 -82 -158zM440 1501h162l254 -352h-102l-232 205l-233 -205h-101z" />
    <glyph glyph-name="Gbreve" unicode="&#x11e;" horiz-adv-x="1593" 
d="M903 1421q253 0 479 -102l-61 -201h-21q-94 193 -391 193q-253 0 -388.5 -160.5t-135.5 -456.5q0 -268 131 -434q136 -176 367 -176q171 0 288 74q0 8 3.5 87t3.5 95q0 106 -13 305q82 -14 146 -14q46 0 129 14q-17 -89 -17 -350q0 -103 7 -180q-124 -66 -283 -105
t-311 -39q-205 0 -370 82.5t-263.5 243t-98.5 371.5q0 165 50 301.5t147 238t250.5 157.5t351.5 56zM1073 1804h82q-15 -136 -53 -190q-42 -64 -103 -100.5t-157 -36.5q-133 0 -208.5 80.5t-84.5 244.5h80q37 -182 211 -182q208 0 233 184z" />
    <glyph glyph-name="gbreve" unicode="&#x11f;" horiz-adv-x="1062" 
d="M485 995q52 0 157 -16t200 -16q110 0 168 10q-6 -47 -6 -53q0 -20 6 -62q-95 8 -199 14q51 -51 74.5 -100t23.5 -127q0 -133 -96 -209t-238 -86q-31 -2 -161 -6q-97 -3 -97 -88q0 -53 35 -77.5t129 -24.5q175 0 250.5 -5.5t130.5 -25.5q69 -25 109.5 -87t40.5 -145
q0 -124 -70 -224t-185 -154t-249 -54q-207 0 -330 74t-123 209q0 210 221 254q-66 20 -105.5 66t-39.5 98q0 84 46 133t138 80q-227 80 -227 286q0 153 107.5 244.5t289.5 91.5zM326 670q0 -141 43 -197.5t133 -56.5q79 0 125.5 68t46.5 190q0 116 -45 178.5t-129 62.5
q-174 0 -174 -245zM227 -221q0 -106 74 -165.5t205 -59.5q134 0 225.5 65.5t91.5 177.5q0 91 -69.5 135.5t-241.5 44.5q-139 0 -203 -40q-82 -52 -82 -158zM743 1477h82q-15 -131 -51 -187q-91 -141 -262 -141q-133 0 -208.5 81.5t-84.5 244.5h80q38 -183 211 -183
q208 0 233 185z" />
    <glyph glyph-name="Gdotaccent" unicode="&#x120;" horiz-adv-x="1593" 
d="M903 1421q253 0 479 -102l-61 -201h-21q-94 193 -391 193q-253 0 -388.5 -160.5t-135.5 -456.5q0 -268 131 -434q136 -176 367 -176q171 0 288 74q0 8 3.5 87t3.5 95q0 106 -13 305q82 -14 146 -14q46 0 129 14q-17 -89 -17 -350q0 -103 7 -180q-124 -66 -283 -105
t-311 -39q-205 0 -370 82.5t-263.5 243t-98.5 371.5q0 165 50 301.5t147 238t250.5 157.5t351.5 56zM850 1718q51 0 86 -35.5t35 -85.5q0 -49 -35.5 -84.5t-85.5 -35.5q-51 0 -86 35t-35 85q0 51 35.5 86t85.5 35z" />
    <glyph glyph-name="gdotaccent" unicode="&#x121;" horiz-adv-x="1062" 
d="M485 995q52 0 157 -16t200 -16q110 0 168 10q-6 -47 -6 -53q0 -20 6 -62q-95 8 -199 14q51 -51 74.5 -100t23.5 -127q0 -133 -96 -209t-238 -86q-31 -2 -161 -6q-97 -3 -97 -88q0 -53 35 -77.5t129 -24.5q175 0 250.5 -5.5t130.5 -25.5q69 -25 109.5 -87t40.5 -145
q0 -124 -70 -224t-185 -154t-249 -54q-207 0 -330 74t-123 209q0 210 221 254q-66 20 -105.5 66t-39.5 98q0 84 46 133t138 80q-227 80 -227 286q0 153 107.5 244.5t289.5 91.5zM326 670q0 -141 43 -197.5t133 -56.5q79 0 125.5 68t46.5 190q0 116 -45 178.5t-129 62.5
q-174 0 -174 -245zM227 -221q0 -106 74 -165.5t205 -59.5q134 0 225.5 65.5t91.5 177.5q0 91 -69.5 135.5t-241.5 44.5q-139 0 -203 -40q-82 -52 -82 -158zM500 1411q51 0 86 -35.5t35 -85.5q0 -48 -36 -84.5t-85 -36.5q-50 0 -85.5 35.5t-35.5 85.5q0 51 35.5 86t85.5 35z
" />
    <glyph glyph-name="Gcommaaccent" unicode="&#x122;" horiz-adv-x="1593" 
d="M903 1421q253 0 479 -102l-61 -201h-21q-94 193 -391 193q-253 0 -388.5 -160.5t-135.5 -456.5q0 -268 131 -434q136 -176 367 -176q171 0 288 74q0 8 3.5 87t3.5 95q0 106 -13 305q82 -14 146 -14q46 0 129 14q-17 -89 -17 -350q0 -103 7 -180q-124 -66 -283 -105
t-311 -39q-205 0 -370 82.5t-263.5 243t-98.5 371.5q0 165 50 301.5t147 238t250.5 157.5t351.5 56zM895 -63q33 0 57.5 -15t24.5 -43q0 -33 -25 -69q-11 -18 -182 -252l-63 28l71 262q24 89 117 89z" />
    <glyph glyph-name="gcommaaccent" unicode="&#x123;" horiz-adv-x="1062" 
d="M485 995q52 0 157 -16t200 -16q110 0 168 10q-6 -47 -6 -53q0 -20 6 -62q-95 8 -199 14q51 -51 74.5 -100t23.5 -127q0 -133 -96 -209t-238 -86q-31 -2 -161 -6q-97 -3 -97 -88q0 -53 35 -77.5t129 -24.5q175 0 250.5 -5.5t130.5 -25.5q69 -25 109.5 -87t40.5 -145
q0 -124 -70 -224t-185 -154t-249 -54q-207 0 -330 74t-123 209q0 210 221 254q-66 20 -105.5 66t-39.5 98q0 84 46 133t138 80q-227 80 -227 286q0 153 107.5 244.5t289.5 91.5zM326 670q0 -141 43 -197.5t133 -56.5q79 0 125.5 68t46.5 190q0 116 -45 178.5t-129 62.5
q-174 0 -174 -245zM227 -221q0 -106 74 -165.5t205 -59.5q134 0 225.5 65.5t91.5 177.5q0 91 -69.5 135.5t-241.5 44.5q-139 0 -203 -40q-82 -52 -82 -158zM485 1149q-34 0 -58 14.5t-24 42.5q0 34 25 70q11 18 182 252l62 -29l-70 -262q-24 -88 -117 -88z" />
    <glyph glyph-name="Hcircumflex" unicode="&#x124;" horiz-adv-x="1554" 
d="M166 1405q92 -12 147 -12q14 0 72.5 4.5t69.5 7.5q-19 -170 -19 -584q131 -8 312 -8q74 0 222 4l148 4q0 383 -14 584q86 -12 149 -12q12 0 69.5 4.5t74.5 7.5q-29 -199 -29 -924q0 -349 21 -481q-16 1 -47.5 4.5t-56.5 5.5t-46 2q-10 0 -139 -12q0 3 4 78t8 158.5
t4 107.5l2 346q-164 8 -332 8q-68 0 -202 -4t-148 -4v-241q0 -238 19 -449l-60 6q-37 6 -82 6q-30 0 -81.5 -5.5t-63.5 -6.5q18 350 18 913q0 261 -20 492zM696 1829h162l254 -352h-102l-232 204l-233 -204h-101z" />
    <glyph glyph-name="hcircumflex" unicode="&#x125;" horiz-adv-x="1175" 
d="M135 1518q76 -13 139 -13q56 0 123 13q-18 -260 -18 -492v-201q117 168 319 168q174 0 263 -106q41 -51 55 -104t14 -173q0 -27 -2 -108.5t-2 -118.5q0 -188 12 -383q-62 12 -127 12q-43 0 -137 -12q23 247 23 442v123q0 37 -5.5 91t-13.5 75q-24 63 -71 89t-97 26
q-142 0 -194 -105q-37 -70 -37 -237v-234q0 -117 10 -270q-73 12 -129 12q-26 0 -125 -12q17 313 17 559l-2 619q0 92 -7 204.5t-8 135.5zM436 1991h162l254 -353h-102l-232 205l-233 -205h-101z" />
    <glyph glyph-name="Hbar" unicode="&#x126;" horiz-adv-x="1554" 
d="M166 1405q92 -12 147 -12q14 0 72.5 4.5t69.5 7.5q-11 -96 -17 -264q167 -8 316 -8q48 0 360 8q-2 111 -10 264q86 -12 149 -12q12 0 69.5 4.5t74.5 7.5q-29 -199 -29 -924q0 -349 21 -481q-16 1 -47.5 4.5t-56.5 5.5t-46 2q-10 0 -139 -12q0 3 4 78t8 158.5t4 107.5
l2 346q-164 8 -332 8q-68 0 -202 -4t-148 -4v-241q0 -238 19 -449l-60 6q-37 6 -82 6q-30 0 -81.5 -5.5t-63.5 -6.5q18 350 18 913q0 261 -20 492zM784 1040q-168 0 -348 -8v-211q131 -8 312 -8q74 0 222 4l148 4q0 133 -2 211q-169 8 -332 8z" />
    <glyph glyph-name="hbar" unicode="&#x127;" horiz-adv-x="1175" 
d="M135 1518q76 -13 139 -13q56 0 123 13l-12 -224q24 1 54 1.5t48.5 1t30.5 1.5l148 13q-7 -53 -7 -68q0 -14 7 -69q-59 2 -149.5 3t-135.5 3l-2 -355q117 168 319 168q174 0 263 -106q41 -51 55 -104t14 -173q0 -27 -2 -108.5t-2 -118.5q0 -188 12 -383q-62 12 -127 12
q-43 0 -137 -12q23 247 23 442v123q0 37 -5.5 91t-13.5 75q-24 63 -71 89t-97 26q-142 0 -194 -105q-37 -70 -37 -237v-234q0 -117 10 -270q-73 12 -129 12q-26 0 -125 -12q17 313 17 559l-2 619l-134 -9q7 65 7 72q0 19 -7 66q94 -13 131 -13q-2 34 -7 112t-5 112z" />
    <glyph glyph-name="Itilde" unicode="&#x128;" horiz-adv-x="645" 
d="M178 1405q87 -12 148 -12q58 0 143 12q-23 -144 -23 -559q0 -273 2.5 -435t6 -229.5t12.5 -181.5q-117 12 -143 12t-81.5 -5.5t-66.5 -6.5q23 259 23 803q0 465 -21 602zM604 1753h74q-25 -110 -82.5 -169.5t-144.5 -59.5q-51 0 -115.5 22t-116.5 44t-72 22
q-37 0 -65 -23.5t-41 -66.5h-74q37 123 92.5 176t133.5 53q50 0 160 -44t143 -44q82 0 108 90z" />
    <glyph glyph-name="itilde" unicode="&#x129;" 
d="M131 983q82 -12 137 -12q53 0 127 12q-16 -340 -16 -444q0 -21 1.5 -113.5t5 -227.5t7.5 -198q-89 12 -119 12q-53 0 -139 -12q17 332 17 475q0 104 -6.5 267t-14.5 241zM545 1425h73q-25 -110 -82.5 -169.5t-144.5 -59.5q-51 0 -115 22t-116 44t-72 22q-37 0 -65 -23.5
t-41 -66.5h-74q37 123 92 176t133 53q50 0 160 -44t143 -44q83 0 109 90z" />
    <glyph glyph-name="Imacron" unicode="&#x12a;" horiz-adv-x="645" 
d="M178 1405q87 -12 148 -12q58 0 143 12q-23 -144 -23 -559q0 -273 2.5 -435t6 -229.5t12.5 -181.5q-117 12 -143 12t-81.5 -5.5t-66.5 -6.5q23 259 23 803q0 465 -21 602zM35 1690h586v-134h-586v134z" />
    <glyph glyph-name="imacron" unicode="&#x12b;" 
d="M131 983q82 -12 137 -12q53 0 127 12q-16 -340 -16 -444q0 -21 1.5 -113.5t5 -227.5t7.5 -198q-89 12 -119 12q-53 0 -139 -12q17 332 17 475q0 104 -6.5 267t-14.5 241zM-37 1362h586v-133h-586v133z" />
    <glyph glyph-name="Ibreve" unicode="&#x12c;" horiz-adv-x="645" 
d="M178 1405q87 -12 148 -12q58 0 143 12q-23 -144 -23 -559q0 -273 2.5 -435t6 -229.5t12.5 -181.5q-117 12 -143 12t-81.5 -5.5t-66.5 -6.5q23 259 23 803q0 465 -21 602zM549 1804h82q-15 -136 -53 -190q-91 -137 -261 -137q-133 0 -208 80.5t-84 244.5h79
q37 -182 211 -182q209 0 234 184z" />
    <glyph glyph-name="ibreve" unicode="&#x12d;" 
d="M131 983q82 -12 137 -12q53 0 127 12q-16 -340 -16 -444q0 -21 1.5 -113.5t5 -227.5t7.5 -198q-89 12 -119 12q-53 0 -139 -12q17 332 17 475q0 104 -6.5 267t-14.5 241zM487 1477h82q-15 -131 -51 -187q-91 -141 -262 -141q-133 0 -208.5 81.5t-84.5 244.5h80
q38 -183 211 -183q208 0 233 185z" />
    <glyph glyph-name="Iogonek" unicode="&#x12e;" horiz-adv-x="645" 
d="M178 1405q87 -12 148 -12q58 0 143 12q-23 -144 -23 -559q0 -273 2.5 -435t6 -229.5t12.5 -181.5q-15 1 -29.5 2.5t-28.5 3t-20 2.5q-10 -12 -46 -51t-50 -56t-29.5 -47.5t-15.5 -56.5q0 -46 28 -74t70 -28q45 0 113 55l35 -37q-74 -85 -123.5 -115t-112.5 -30
q-70 0 -114 46.5t-44 111.5q0 70 51 136t171 150q-26 0 -81.5 -5.5t-64.5 -6.5q23 259 23 803q0 465 -21 602z" />
    <glyph glyph-name="iogonek" unicode="&#x12f;" 
d="M131 983q82 -12 137 -12q53 0 127 12q-16 -340 -16 -444q0 -21 1.5 -113.5t5 -227.5t7.5 -198l-69 10q-11 -13 -47 -51t-51 -56.5t-30.5 -49t-15.5 -56.5q0 -46 28.5 -74t70.5 -28q44 0 112 55l35 -37q-74 -85 -123.5 -115t-112.5 -30q-70 0 -113.5 46.5t-43.5 111.5
q0 70 50.5 136t170.5 150q-15 -1 -119 -12q17 332 17 475q0 104 -6.5 267t-14.5 241zM262 1456q59 0 101.5 -44t42.5 -99q0 -56 -43.5 -99t-100.5 -43t-99 42.5t-42 99.5q0 56 42.5 99.5t98.5 43.5z" />
    <glyph glyph-name="Idotaccent" unicode="&#x130;" horiz-adv-x="645" 
d="M178 1405q87 -12 148 -12q58 0 143 12q-23 -144 -23 -559q0 -273 2.5 -435t6 -229.5t12.5 -181.5q-117 12 -143 12t-81.5 -5.5t-66.5 -6.5q23 259 23 803q0 465 -21 602zM326 1718q51 0 85.5 -35.5t34.5 -85.5q0 -49 -35 -84.5t-85 -35.5q-51 0 -86 35t-35 85
q0 51 35.5 86t85.5 35z" />
    <glyph glyph-name="dotlessi" unicode="&#x131;" 
d="M131 983q82 -12 137 -12q53 0 127 12q-16 -340 -16 -444q0 -21 1.5 -113.5t5 -227.5t7.5 -198q-89 12 -119 12q-53 0 -139 -12q17 332 17 475q0 104 -6.5 267t-14.5 241z" />
    <glyph glyph-name="Jcircumflex" unicode="&#x134;" horiz-adv-x="645" 
d="M199 1405q98 -12 149 -12q41 0 139 12q-1 -18 -5 -89.5t-5.5 -115.5t-3.5 -149.5t-2 -239.5q0 -29 -1 -170.5t-1 -216.5q0 -35 1 -101t1 -94q0 -164 -31 -252q-16 -44 -35 -78t-54 -70.5t-81.5 -62t-119 -45t-164.5 -26.5l-15 98q153 15 203 109q27 51 34 130.5t7 227.5
v797q0 138 -16 348zM260 1829h162l254 -352h-103l-231 204l-233 -204h-101z" />
    <glyph glyph-name="jcircumflex" unicode="&#x135;" 
d="M152 983q65 -12 133 -12q55 0 133 12q-17 -296 -17 -473q0 -49 2.5 -241.5t2.5 -209.5q0 -26 -7 -198q-5 -145 -55 -217q-51 -71 -131.5 -112.5t-230.5 -70.5l-23 78q96 18 133 55q42 40 60 121t18 252q0 797 -18 1016zM199 1501h161l254 -352h-102l-231 205l-234 -205
h-100z" />
    <glyph glyph-name="Kcommaaccent" unicode="&#x136;" horiz-adv-x="1327" 
d="M164 1405q118 -12 143 -12q61 0 144 12q-9 -46 -14 -211.5t-5 -247.5v-190q168 145 359 354q198 217 253 295q37 -12 99 -12q65 0 135 12q-119 -101 -311 -287t-308 -317q288 -381 430 -553.5t222 -247.5q-91 12 -168 12q-45 0 -103 -5.5t-86 -6.5q-162 232 -280.5 383.5
t-241.5 286.5q0 -439 19 -670q-102 12 -144 12q-51 0 -143 -12q18 366 18 629v424q0 152 -18 352zM674 -63q33 0 57.5 -15t24.5 -43q0 -33 -25 -69q-11 -18 -182 -252l-64 28l72 262q24 89 117 89z" />
    <glyph glyph-name="kcommaaccent" unicode="&#x137;" horiz-adv-x="1099" 
d="M139 1518q67 -13 142 -13q72 0 125 13q-21 -244 -21 -754q0 -159 2 -187t14 -28q26 0 165.5 156.5t230.5 277.5q13 -3 65 -7.5t70 -4.5q66 0 106 12l4 -12q-164 -133 -421 -365l260 -360q157 -216 188 -236l-2 -10q-152 12 -190 12q-18 0 -47 -2.5t-58.5 -5.5t-36.5 -4
q-8 14 -26.5 43.5t-34.5 56.5q-40 69 -100 159.5t-102 151t-48 64.5q-10 10 -23 10q-8 0 -11 -8t-3 -33q0 -352 10 -444q-62 12 -121 12q-45 0 -135 -12q15 218 15 346q0 84 2 272.5t2 255.5q0 415 -21 644zM547 -63q33 0 57.5 -15t24.5 -43q0 -33 -25 -69
q-11 -18 -182 -252l-64 28l72 262q24 89 117 89z" />
    <glyph glyph-name="kgreenlandic" unicode="&#x138;" horiz-adv-x="1099" 
d="M137 985q93 -12 144 -12q65 0 122 14q-4 -70 -6.5 -126.5t-4.5 -109t-3 -81.5q-3 -70 -1.5 -95.5t11.5 -25.5q26 0 167 157t231 277q13 -3 65 -7.5t70 -4.5q66 0 106 12l4 -12q-164 -133 -421 -365l260 -360q157 -216 188 -236l-2 -10q-152 12 -190 12q-18 0 -47 -2.5
t-58.5 -5.5t-36.5 -4q-8 14 -26.5 43.5t-34.5 56.5q-40 69 -100 159.5t-102 151t-48 64.5q-10 10 -23 10q-9 0 -11.5 -7.5t-2.5 -33.5q0 -352 10 -444q-62 12 -121 12q-45 0 -135 -12q15 218 15 346v244q0 188 -19 395z" />
    <glyph glyph-name="Lacute" unicode="&#x139;" horiz-adv-x="1024" 
d="M176 1405q50 -12 139 -12q67 0 146 12q-21 -538 -21 -797q0 -235 6 -475h52q147 0 284 5.5t176 13.5q-10 -31 -10 -80q0 -33 10 -72q-96 4 -182 6.5t-142 3.5t-71 2q-159 0 -387 -12q2 76 8 284t6 269v367q0 10 -3 111.5t-6.5 219.5t-4.5 154zM528 1866q42 0 69.5 -23.5
t27.5 -60.5q0 -50 -50 -80l-329 -203h-105l287 311q52 56 100 56z" />
    <glyph glyph-name="lacute" unicode="&#x13a;" 
d="M129 1518q88 -13 141 -13q55 0 131 13q-20 -212 -20 -705q0 -627 18 -813q-13 1 -39.5 4.5t-47.5 5.5t-38 2q-43 0 -141 -12q21 360 21 754q0 243 -8 465.5t-17 298.5zM467 1948q41 0 68.5 -23.5t27.5 -60.5q0 -50 -49 -80l-330 -203h-104l287 311q52 56 100 56z" />
    <glyph glyph-name="Lcommaaccent" unicode="&#x13b;" horiz-adv-x="1024" 
d="M176 1405q50 -12 139 -12q67 0 146 12q-21 -538 -21 -797q0 -235 6 -475h52q147 0 284 5.5t176 13.5q-10 -31 -10 -80q0 -33 10 -72q-96 4 -182 6.5t-142 3.5t-71 2q-159 0 -387 -12q2 76 8 284t6 269v367q0 10 -3 111.5t-6.5 219.5t-4.5 154zM580 -63q33 0 57.5 -15
t24.5 -43q0 -33 -25 -69q-11 -18 -182 -252l-64 28l72 262q24 89 117 89z" />
    <glyph glyph-name="lcommaaccent" unicode="&#x13c;" 
d="M129 1518q88 -13 141 -13q55 0 131 13q-20 -212 -20 -705q0 -627 18 -813q-13 1 -39.5 4.5t-47.5 5.5t-38 2q-43 0 -141 -12q21 360 21 754q0 243 -8 465.5t-17 298.5zM270 -63q33 0 57.5 -15t24.5 -43q0 -35 -24 -69q-6 -10 -183 -252l-63 28l72 262q24 89 116 89z" />
    <glyph glyph-name="Lcaron" unicode="&#x13d;" horiz-adv-x="1024" 
d="M176 1405q50 -12 139 -12q67 0 146 12q-21 -538 -21 -797q0 -235 6 -475h52q147 0 284 5.5t176 13.5q-10 -31 -10 -80q0 -33 10 -72q-96 4 -182 6.5t-142 3.5t-71 2q-159 0 -387 -12q2 76 8 284t6 269v367q0 10 -3 111.5t-6.5 219.5t-4.5 154zM774 1505q34 0 58 -14.5
t24 -42.5q0 -34 -25 -70q-11 -18 -182 -252h-71l79 291q24 88 117 88z" />
    <glyph glyph-name="lcaron" unicode="&#x13e;" 
d="M129 1518q88 -13 141 -13q55 0 131 13q-20 -212 -20 -705q0 -627 18 -813q-13 1 -39.5 4.5t-47.5 5.5t-38 2q-43 0 -141 -12q21 360 21 754q0 243 -8 465.5t-17 298.5zM659 1505q34 0 58 -14.5t24 -42.5q0 -36 -24 -70q-11 -18 -182 -252h-72l80 291q24 88 116 88z" />
    <glyph glyph-name="Ldot" unicode="&#x13f;" horiz-adv-x="1024" 
d="M176 1405q50 -12 139 -12q67 0 146 12q-21 -538 -21 -797q0 -235 6 -475h52q147 0 284 5.5t176 13.5q-10 -31 -10 -80q0 -33 10 -72q-96 4 -182 6.5t-142 3.5t-71 2q-159 0 -387 -12q2 76 8 284t6 269v367q0 10 -3 111.5t-6.5 219.5t-4.5 154zM821 817q51 0 86 -35.5
t35 -85.5q0 -48 -36 -84.5t-85 -36.5t-85 35.5t-36 85.5q0 51 35.5 86t85.5 35z" />
    <glyph glyph-name="ldot" unicode="&#x140;" horiz-adv-x="743" 
d="M129 1518q88 -13 141 -13q55 0 131 13q-20 -212 -20 -705q0 -627 18 -813q-13 1 -39.5 4.5t-47.5 5.5t-38 2q-43 0 -141 -12q21 360 21 754q0 243 -8 465.5t-17 298.5zM635 817q51 0 86 -35.5t35 -85.5q0 -48 -36 -84.5t-85 -36.5t-85 35.5t-36 85.5q0 51 35.5 86
t85.5 35z" />
    <glyph glyph-name="Lslash" unicode="&#x141;" horiz-adv-x="1024" 
d="M176 1405q50 -12 139 -12q67 0 146 12q-18 -419 -21 -588q212 129 322 205q-8 -44 -8 -84q0 -16 8 -80q-95 -34 -322 -170v-80q0 -235 6 -475h52q147 0 284 5.5t176 13.5q-10 -31 -10 -80q0 -33 10 -72q-96 4 -182 6.5t-142 3.5t-71 2q-159 0 -387 -12q2 90 7.5 283.5
t6.5 253.5l-143 -101q8 73 8 88q0 27 -8 68q95 52 143 82v246q0 10 -3 111.5t-6.5 219.5t-4.5 154z" />
    <glyph glyph-name="lslash" unicode="&#x142;" 
d="M129 1518q88 -13 141 -13q55 0 131 13q-17 -166 -20 -461q61 58 129 141q0 -9 -3 -44.5t-3 -51.5q0 -12 1 -25t2.5 -28.5t2.5 -24.5q-91 -70 -129 -106v-105q0 -627 18 -813q-13 1 -39.5 4.5t-47.5 5.5t-38 2q-43 0 -141 -12q18 286 21 674q-78 -67 -134 -137q7 45 7 94
q0 44 -7 71q43 30 134 115q-2 467 -25 701z" />
    <glyph glyph-name="Nacute" unicode="&#x143;" horiz-adv-x="1554" 
d="M184 578q0 119 -2 426.5t-2 400.5q18 -4 49 -4q15 0 47 4q286 -313 525 -549l342 -336q40 -40 102 -88v477q0 253 -24 496q46 -12 88 -12q45 0 86 12q-23 -289 -23 -709q0 -240 4 -706q-18 4 -43 4q-13 0 -41 -4q-210 225 -499.5 516t-481.5 467q0 -740 25 -973
q-64 12 -92 12q-36 0 -82 -12q22 323 22 578zM1014 1862q41 0 68.5 -23.5t27.5 -60.5q0 -50 -49 -80l-330 -203h-104l286 311q52 56 101 56z" />
    <glyph glyph-name="nacute" unicode="&#x144;" horiz-adv-x="1175" 
d="M690 993q165 0 253.5 -90t88.5 -258q0 -7 -4 -180.5t-4 -212.5q0 -170 14 -252q-8 1 -57 6.5t-76 5.5q-10 0 -133 -12q25 159 25 434q0 162 -7 231t-28 103q-52 84 -168 84q-46 0 -96 -26t-76 -70q-47 -79 -47 -303q0 -305 14 -453q-20 1 -71 6.5t-60 5.5q-50 0 -127 -12
q21 281 21 602q0 220 -17 381q76 -12 133 -12q50 0 115 12q-10 -52 -10 -109v-63q72 100 142.5 141t174.5 41zM807 1534q33 0 61.5 -24t28.5 -60q0 -29 -11.5 -46t-41.5 -36l-324 -201h-104l291 314q48 53 100 53z" />
    <glyph glyph-name="Ncommaaccent" unicode="&#x145;" horiz-adv-x="1554" 
d="M184 578q0 119 -2 426.5t-2 400.5q18 -4 49 -4q15 0 47 4q286 -313 525 -549l342 -336q40 -40 102 -88v477q0 253 -24 496q46 -12 88 -12q45 0 86 12q-23 -289 -23 -709q0 -240 4 -706q-18 4 -43 4q-13 0 -41 -4q-210 225 -499.5 516t-481.5 467q0 -740 25 -973
q-64 12 -92 12q-36 0 -82 -12q22 323 22 578zM809 -63q33 0 57.5 -15t24.5 -43q0 -33 -25 -69q-11 -18 -182 -252l-63 28l71 262q24 89 117 89z" />
    <glyph glyph-name="ncommaaccent" unicode="&#x146;" horiz-adv-x="1175" 
d="M690 993q165 0 253.5 -90t88.5 -258q0 -7 -4 -180.5t-4 -212.5q0 -170 14 -252q-8 1 -57 6.5t-76 5.5q-10 0 -133 -12q25 159 25 434q0 162 -7 231t-28 103q-52 84 -168 84q-46 0 -96 -26t-76 -70q-47 -79 -47 -303q0 -305 14 -453q-20 1 -71 6.5t-60 5.5q-50 0 -127 -12
q21 281 21 602q0 220 -17 381q76 -12 133 -12q50 0 115 12q-10 -52 -10 -109v-63q72 100 142.5 141t174.5 41zM606 -63q33 0 57.5 -15t24.5 -43q0 -35 -24 -69q-6 -10 -183 -252l-63 28l71 262q24 89 117 89z" />
    <glyph glyph-name="Ncaron" unicode="&#x147;" horiz-adv-x="1554" 
d="M184 578q0 119 -2 426.5t-2 400.5q18 -4 49 -4q15 0 47 4q286 -313 525 -549l342 -336q40 -40 102 -88v477q0 253 -24 496q46 -12 88 -12q45 0 86 12q-23 -289 -23 -709q0 -240 4 -706q-18 4 -43 4q-13 0 -41 -4q-210 225 -499.5 516t-481.5 467q0 -740 25 -973
q-64 12 -92 12q-36 0 -82 -12q22 323 22 578zM696 1477l-252 352h101l233 -207l232 207h102l-254 -352h-162z" />
    <glyph glyph-name="ncaron" unicode="&#x148;" horiz-adv-x="1175" 
d="M690 993q165 0 253.5 -90t88.5 -258q0 -7 -4 -180.5t-4 -212.5q0 -170 14 -252q-8 1 -57 6.5t-76 5.5q-10 0 -133 -12q25 159 25 434q0 162 -7 231t-28 103q-52 84 -168 84q-46 0 -96 -26t-76 -70q-47 -79 -47 -303q0 -305 14 -453q-20 1 -71 6.5t-60 5.5q-50 0 -127 -12
q21 281 21 602q0 220 -17 381q76 -12 133 -12q50 0 115 12q-10 -52 -10 -109v-63q72 100 142.5 141t174.5 41zM502 1149l-252 352h100l234 -207l231 207h103l-254 -352h-162z" />
    <glyph glyph-name="Eng" unicode="&#x14a;" horiz-adv-x="1554" 
d="M1196 1413q48 -12 72 -12q62 0 133 12q-5 -70 -11 -397t-6 -504q0 -49 2.5 -245t2.5 -208q0 -26 -7 -198q-5 -145 -55 -217q-51 -71 -131.5 -112.5t-230.5 -70.5l-23 78q82 14 135 44t83 83t42 121.5t12 169.5v117q-168 179 -456 465.5t-447 433.5q0 -703 25 -973l-43 6
q-27 6 -49 6q-36 0 -82 -12q22 360 22 469v573q0 179 -4 363q18 -4 49 -4q15 0 47 4q286 -313 525 -549l342 -336q22 -22 69 -61v319q0 414 -16 635z" />
    <glyph glyph-name="eng" unicode="&#x14b;" horiz-adv-x="1175" 
d="M690 993q165 0 251.5 -91t86.5 -245l-2 -620q0 -27 -8 -203q-9 -167 -103.5 -249t-312.5 -124l-22 78q128 21 169.5 106.5t41.5 291.5q0 77 3 264.5t3 232.5q0 165 -11 262q-10 78 -61.5 117t-128.5 39q-93 0 -160 -78q-35 -42 -48 -117t-13 -211q0 -268 14 -446
q-19 1 -68.5 6.5t-62.5 5.5q-50 0 -127 -12q21 252 21 602q0 215 -17 381q76 -12 133 -12q50 0 115 12q-10 -52 -10 -82v-88q72 100 142.5 140t174.5 40z" />
    <glyph glyph-name="Omacron" unicode="&#x14c;" horiz-adv-x="1744" 
d="M879 1421q343 0 550 -189.5t207 -508.5q0 -166 -54.5 -305.5t-151.5 -238t-237.5 -153.5t-307.5 -55q-165 0 -307 47t-246 134t-163.5 218.5t-59.5 291.5q0 186 58 332t161.5 238.5t243 140.5t307.5 48zM389 696q0 -181 54.5 -319.5t165 -219.5t263.5 -81q218 0 351 169
t133 451q0 300 -124.5 460.5t-361.5 160.5q-113 0 -205 -49.5t-152 -134.5t-92 -197t-32 -240zM582 1690h585v-134h-585v134z" />
    <glyph glyph-name="omacron" unicode="&#x14d;" horiz-adv-x="1214" 
d="M606 997q244 0 379 -135t135 -377q0 -236 -138 -373t-376 -137q-236 0 -375 138t-139 372t140.5 373t373.5 139zM348 487q0 -213 66 -321.5t192 -108.5q125 0 191.5 108.5t66.5 321.5q0 211 -65.5 319.5t-194.5 108.5q-123 0 -189.5 -108t-66.5 -320zM311 1362h586v-133
h-586v133z" />
    <glyph glyph-name="Obreve" unicode="&#x14e;" horiz-adv-x="1744" 
d="M879 1421q343 0 550 -189.5t207 -508.5q0 -166 -54.5 -305.5t-151.5 -238t-237.5 -153.5t-307.5 -55q-165 0 -307 47t-246 134t-163.5 218.5t-59.5 291.5q0 186 58 332t161.5 238.5t243 140.5t307.5 48zM389 696q0 -181 54.5 -319.5t165 -219.5t263.5 -81q218 0 351 169
t133 451q0 300 -124.5 460.5t-361.5 160.5q-113 0 -205 -49.5t-152 -134.5t-92 -197t-32 -240zM1096 1804h82q-15 -134 -54 -190q-42 -64 -103 -100.5t-157 -36.5q-133 0 -208.5 80.5t-84.5 244.5h80q37 -182 211 -182q209 0 234 184z" />
    <glyph glyph-name="obreve" unicode="&#x14f;" horiz-adv-x="1214" 
d="M606 997q244 0 379 -135t135 -377q0 -236 -138 -373t-376 -137q-236 0 -375 138t-139 372t140.5 373t373.5 139zM348 487q0 -213 66 -321.5t192 -108.5q125 0 191.5 108.5t66.5 321.5q0 211 -65.5 319.5t-194.5 108.5q-123 0 -189.5 -108t-66.5 -320zM825 1477h82
q-15 -131 -51 -187q-91 -141 -262 -141q-133 0 -208.5 81.5t-84.5 244.5h80q38 -183 211 -183q208 0 233 185z" />
    <glyph glyph-name="Ohungarumlaut" unicode="&#x150;" horiz-adv-x="1744" 
d="M879 1421q343 0 550 -189.5t207 -508.5q0 -166 -54.5 -305.5t-151.5 -238t-237.5 -153.5t-307.5 -55q-165 0 -307 47t-246 134t-163.5 218.5t-59.5 291.5q0 186 58 332t161.5 238.5t243 140.5t307.5 48zM389 696q0 -181 54.5 -319.5t165 -219.5t263.5 -81q218 0 351 169
t133 451q0 300 -124.5 460.5t-361.5 160.5q-113 0 -205 -49.5t-152 -134.5t-92 -197t-32 -240zM1030 1843q39 0 67.5 -23t28.5 -59q0 -51 -39 -75l-301 -209h-98l246 311q13 18 40.5 36.5t55.5 18.5zM1339 1843q42 0 69.5 -23t27.5 -59q0 -51 -39 -75l-301 -209h-99l246 311
q14 20 41.5 37.5t54.5 17.5z" />
    <glyph glyph-name="ohungarumlaut" unicode="&#x151;" horiz-adv-x="1214" 
d="M606 997q244 0 379 -135t135 -377q0 -236 -138 -373t-376 -137q-236 0 -375 138t-139 372t140.5 373t373.5 139zM348 487q0 -213 66 -321.5t192 -108.5q125 0 191.5 108.5t66.5 321.5q0 211 -65.5 319.5t-194.5 108.5q-123 0 -189.5 -108t-66.5 -320zM688 1516
q39 0 67.5 -23t28.5 -59q0 -52 -39 -76l-301 -209h-98l246 311q13 18 40.5 37t55.5 19zM997 1516q42 0 69.5 -23t27.5 -59q0 -52 -39 -76l-301 -209h-99l246 311q14 20 41.5 38t54.5 18z" />
    <glyph glyph-name="OE" unicode="&#x152;" horiz-adv-x="2048" 
d="M780 1421q260 0 455 -172q0 105 -4 156q255 -12 362 -12q59 0 367 12q-10 -41 -10 -66q0 -45 10 -75q-252 14 -473 14v-481q301 0 438 14q-10 -31 -10 -74q0 -49 10 -69q-198 14 -438 14v-555q440 11 485 14q-10 -22 -10 -67t10 -74q-188 12 -368 12q-190 0 -371 -12
q6 129 6 152q-49 -74 -193 -127.5t-266 -53.5q-148 0 -276 51t-221 143t-146 227.5t-53 297.5q0 168 52 306t144.5 231t220.5 143.5t279 50.5zM358 682q0 -150 37.5 -268t101.5 -190.5t145.5 -110t174.5 -37.5q197 0 314.5 177t117.5 452q0 294 -116 453t-326 159
q-141 0 -244 -84t-154 -226.5t-51 -324.5z" />
    <glyph glyph-name="oe" unicode="&#x153;" horiz-adv-x="1820" 
d="M594 997q232 0 369 -114q137 114 327 114q224 0 333.5 -116.5t109.5 -366.5v-31h-670q0 -193 82.5 -290t238.5 -97q76 0 160.5 36t132.5 93l23 -14q-15 -20 -33 -131q-49 -43 -147.5 -74t-198.5 -31q-103 0 -200 33t-160 90q-149 -123 -365 -123q-226 0 -366 140
t-140 368q0 233 136.5 373.5t367.5 140.5zM346 496q0 -213 64 -326t190 -113q262 0 262 435q0 206 -65.5 316t-192.5 110q-124 0 -191 -109.5t-67 -312.5zM1065 584h432v18q0 161 -51.5 237t-157.5 76q-103 0 -160.5 -87t-62.5 -244z" />
    <glyph glyph-name="Racute" unicode="&#x154;" horiz-adv-x="1290" 
d="M180 1405q78 -10 201 -10q21 0 183 5t177 5q88 0 157.5 -19.5t114 -52t73.5 -76.5t41 -90.5t12 -97.5q0 -143 -94 -242t-263 -131l140 -200q14 -20 63.5 -90t141 -192.5t165.5 -213.5q-111 12 -182 12q-58 0 -166 -12q-9 14 -57.5 94.5t-134 206t-256.5 367.5h-50v-299
q0 -19 4.5 -184.5t4.5 -184.5q-13 1 -41 4.5t-51 5.5t-46 2q-47 0 -141 -12q19 492 19 639v352q0 129 -15 414zM446 1294v-530q126 -6 140 -6q132 0 207 78.5t75 203.5t-61.5 193t-208.5 72q-48 0 -152 -11zM801 1862q41 0 68.5 -23.5t27.5 -60.5q0 -50 -49 -80l-330 -203
h-104l286 311q52 56 101 56z" />
    <glyph glyph-name="racute" unicode="&#x155;" horiz-adv-x="757" 
d="M680 993q11 0 53 -6q-18 -32 -18 -147q0 -50 10 -88l-14 -11q-37 29 -121 29q-115 0 -176 -100q-31 -48 -31 -195q0 -115 6 -272t12 -203q-11 0 -53 6t-65 6q-4 0 -142 -12q3 121 8 204t5 103v121q0 355 -15 555q83 -12 135 -12q64 0 117 12q-12 -98 -12 -168v-47
q78 126 144 174t157 51zM567 1534q33 0 61.5 -24t28.5 -60q0 -29 -11.5 -46t-41.5 -36l-323 -201h-105l291 314q48 53 100 53z" />
    <glyph glyph-name="Rcommaaccent" unicode="&#x156;" horiz-adv-x="1290" 
d="M180 1405q78 -10 201 -10q21 0 183 5t177 5q88 0 157.5 -19.5t114 -52t73.5 -76.5t41 -90.5t12 -97.5q0 -143 -94 -242t-263 -131l140 -200q14 -20 63.5 -90t141 -192.5t165.5 -213.5q-111 12 -182 12q-58 0 -166 -12q-9 14 -57.5 94.5t-134 206t-256.5 367.5h-50v-299
q0 -19 4.5 -184.5t4.5 -184.5q-13 1 -41 4.5t-51 5.5t-46 2q-47 0 -141 -12q19 492 19 639v352q0 129 -15 414zM446 1294v-530q126 -6 140 -6q132 0 207 78.5t75 203.5t-61.5 193t-208.5 72q-48 0 -152 -11zM670 -63q33 0 57.5 -15t24.5 -43q0 -33 -25 -69
q-11 -18 -182 -252l-64 28l72 262q24 89 117 89z" />
    <glyph glyph-name="rcommaaccent" unicode="&#x157;" horiz-adv-x="757" 
d="M680 993q11 0 53 -6q-18 -32 -18 -147q0 -50 10 -88l-14 -11q-37 29 -121 29q-115 0 -176 -100q-31 -48 -31 -195q0 -115 6 -272t12 -203q-11 0 -53 6t-65 6q-4 0 -142 -12q3 121 8 204t5 103v121q0 355 -15 555q83 -12 135 -12q64 0 117 12q-12 -98 -12 -168v-47
q78 126 144 174t157 51zM272 -63q33 0 57.5 -15t24.5 -43q0 -35 -24 -69q-6 -10 -183 -252l-63 28l72 262q24 89 116 89z" />
    <glyph glyph-name="Rcaron" unicode="&#x158;" horiz-adv-x="1290" 
d="M180 1405q78 -10 201 -10q21 0 183 5t177 5q88 0 157.5 -19.5t114 -52t73.5 -76.5t41 -90.5t12 -97.5q0 -143 -94 -242t-263 -131l140 -200q14 -20 63.5 -90t141 -192.5t165.5 -213.5q-111 12 -182 12q-58 0 -166 -12q-9 14 -57.5 94.5t-134 206t-256.5 367.5h-50v-299
q0 -19 4.5 -184.5t4.5 -184.5q-13 1 -41 4.5t-51 5.5t-46 2q-47 0 -141 -12q19 492 19 639v352q0 129 -15 414zM446 1294v-530q126 -6 140 -6q132 0 207 78.5t75 203.5t-61.5 193t-208.5 72q-48 0 -152 -11zM504 1477l-252 352h100l234 -207l231 207h103l-254 -352h-162z
" />
    <glyph glyph-name="rcaron" unicode="&#x159;" horiz-adv-x="757" 
d="M680 993q11 0 53 -6q-18 -32 -18 -147q0 -50 10 -88l-14 -11q-37 29 -121 29q-115 0 -176 -100q-31 -48 -31 -195q0 -115 6 -272t12 -203q-11 0 -53 6t-65 6q-4 0 -142 -12q3 121 8 204t5 103v121q0 355 -15 555q83 -12 135 -12q64 0 117 12q-12 -98 -12 -168v-47
q78 126 144 174t157 51zM264 1149l-252 352h101l233 -207l232 207h102l-254 -352h-162z" />
    <glyph glyph-name="Sacute" unicode="&#x15a;" horiz-adv-x="1099" 
d="M596 1421q86 0 162 -18.5t178 -65.5q-52 -132 -64 -194h-28q-24 85 -96 131.5t-173 46.5q-111 0 -176 -61t-65 -160q0 -63 23 -104.5t89.5 -81t192.5 -83.5q105 -36 169 -71.5t103 -83.5q86 -106 86 -256q0 -192 -138 -320.5t-363 -128.5q-105 0 -196.5 23t-205.5 82
q25 80 31.5 112t15.5 117h29q55 -119 125.5 -176t189.5 -57q122 0 196.5 72t74.5 184q0 84 -45.5 146t-159.5 106l-98 38q-92 36 -149.5 68.5t-102 78t-63.5 105t-19 142.5q0 186 126 297.5t351 111.5zM750 1862q41 0 68.5 -23.5t27.5 -60.5q0 -50 -49 -80l-330 -203h-105
l287 311q52 56 101 56z" />
    <glyph glyph-name="sacute" unicode="&#x15b;" horiz-adv-x="833" 
d="M436 997q134 0 275 -61q-25 -49 -34.5 -84t-17.5 -98h-32q-36 78 -81.5 110.5t-115.5 32.5q-74 0 -120 -36.5t-46 -98.5q0 -27 11 -48.5t27.5 -36.5t51.5 -31t66 -26t88 -28q140 -42 198 -111t58 -172q0 -44 -14 -90t-44.5 -91t-75 -79.5t-111 -56t-146.5 -21.5
q-70 0 -134.5 16.5t-168.5 63.5q32 79 36 111l9 69h37q34 -83 95.5 -119t153.5 -36q71 0 113.5 41t42.5 104q0 79 -98 119q-91 37 -164 61q-117 39 -166 108.5t-49 172.5q0 142 96.5 228.5t259.5 86.5zM621 1534q33 0 61.5 -24t28.5 -60q0 -28 -12 -45.5t-42 -36.5
l-323 -201h-105l291 314q48 53 101 53z" />
    <glyph glyph-name="Scircumflex" unicode="&#x15c;" horiz-adv-x="1099" 
d="M596 1421q86 0 162 -18.5t178 -65.5q-52 -132 -64 -194h-28q-24 85 -96 131.5t-173 46.5q-111 0 -176 -61t-65 -160q0 -63 23 -104.5t89.5 -81t192.5 -83.5q105 -36 169 -71.5t103 -83.5q86 -106 86 -256q0 -192 -138 -320.5t-363 -128.5q-105 0 -196.5 23t-205.5 82
q25 80 31.5 112t15.5 117h29q55 -119 125.5 -176t189.5 -57q122 0 196.5 72t74.5 184q0 84 -45.5 146t-159.5 106l-98 38q-92 36 -149.5 68.5t-102 78t-63.5 105t-19 142.5q0 186 126 297.5t351 111.5zM461 1829h162l254 -352h-103l-231 204l-234 -204h-100z" />
    <glyph glyph-name="scircumflex" unicode="&#x15d;" horiz-adv-x="833" 
d="M436 997q134 0 275 -61q-25 -49 -34.5 -84t-17.5 -98h-32q-36 78 -81.5 110.5t-115.5 32.5q-74 0 -120 -36.5t-46 -98.5q0 -27 11 -48.5t27.5 -36.5t51.5 -31t66 -26t88 -28q140 -42 198 -111t58 -172q0 -44 -14 -90t-44.5 -91t-75 -79.5t-111 -56t-146.5 -21.5
q-70 0 -134.5 16.5t-168.5 63.5q32 79 36 111l9 69h37q34 -83 95.5 -119t153.5 -36q71 0 113.5 41t42.5 104q0 79 -98 119q-91 37 -164 61q-117 39 -166 108.5t-49 172.5q0 142 96.5 228.5t259.5 86.5zM328 1501h161l254 -352h-102l-231 205l-234 -205h-100z" />
    <glyph glyph-name="Scedilla" unicode="&#x15e;" horiz-adv-x="1099" 
d="M412 -197l73 168q-103 2 -191.5 25t-199.5 80q25 80 31.5 112t15.5 117h29q55 -119 125.5 -176t189.5 -57q122 0 196.5 72t74.5 184q0 84 -45.5 146t-159.5 106l-98 38q-92 36 -149.5 68.5t-102 78t-63.5 105t-19 142.5q0 186 126 297.5t351 111.5q86 0 162 -18.5
t178 -65.5q-52 -132 -64 -194h-28q-24 85 -96 131.5t-173 46.5q-111 0 -176 -61t-65 -160q0 -63 23 -104.5t89.5 -81t192.5 -83.5q105 -36 169 -71.5t103 -83.5q86 -106 86 -256q0 -173 -115.5 -297.5t-308.5 -145.5l-51 -108q32 8 60 8q87 0 135.5 -36.5t48.5 -102.5
q0 -89 -68.5 -134.5t-199.5 -45.5q-121 0 -183 32l33 72q76 -24 127 -24q115 0 115 81q0 36 -27.5 56t-77.5 20q-18 0 -49 -8z" />
    <glyph glyph-name="scedilla" unicode="&#x15f;" horiz-adv-x="833" 
d="M268 -197l76 168q-59 3 -119 20.5t-155 59.5q32 79 36 111l9 69h37q34 -83 95.5 -119t153.5 -36q71 0 113.5 41t42.5 104q0 79 -98 119q-91 37 -164 61q-117 39 -166 108.5t-49 172.5q0 142 96.5 228.5t259.5 86.5q134 0 275 -61q-25 -49 -34.5 -84t-17.5 -98h-32
q-36 78 -81.5 110.5t-115.5 32.5q-74 0 -120 -36.5t-46 -98.5q0 -27 11 -48.5t27.5 -36.5t51.5 -31t66 -26t88 -28q140 -42 198 -111t58 -172q0 -52 -20 -105t-59 -102t-105.5 -83.5t-149.5 -43.5l-51 -106q32 8 59 8q87 0 136 -36.5t49 -102.5q0 -89 -69 -134.5t-200 -45.5
q-120 0 -182 32l33 72q76 -24 127 -24q114 0 114 81q0 36 -27 56t-77 20q-18 0 -49 -8z" />
    <glyph glyph-name="Scaron" unicode="&#x160;" horiz-adv-x="1099" 
d="M596 1421q86 0 162 -18.5t178 -65.5q-52 -132 -64 -194h-28q-24 85 -96 131.5t-173 46.5q-111 0 -176 -61t-65 -160q0 -63 23 -104.5t89.5 -81t192.5 -83.5q105 -36 169 -71.5t103 -83.5q86 -106 86 -256q0 -192 -138 -320.5t-363 -128.5q-105 0 -196.5 23t-205.5 82
q25 80 31.5 112t15.5 117h29q55 -119 125.5 -176t189.5 -57q122 0 196.5 72t74.5 184q0 84 -45.5 146t-159.5 106l-98 38q-92 36 -149.5 68.5t-102 78t-63.5 105t-19 142.5q0 186 126 297.5t351 111.5zM469 1477l-252 352h100l234 -207l231 207h103l-254 -352h-162z" />
    <glyph glyph-name="scaron" unicode="&#x161;" horiz-adv-x="833" 
d="M436 997q134 0 275 -61q-25 -49 -34.5 -84t-17.5 -98h-32q-36 78 -81.5 110.5t-115.5 32.5q-74 0 -120 -36.5t-46 -98.5q0 -27 11 -48.5t27.5 -36.5t51.5 -31t66 -26t88 -28q140 -42 198 -111t58 -172q0 -44 -14 -90t-44.5 -91t-75 -79.5t-111 -56t-146.5 -21.5
q-70 0 -134.5 16.5t-168.5 63.5q32 79 36 111l9 69h37q34 -83 95.5 -119t153.5 -36q71 0 113.5 41t42.5 104q0 79 -98 119q-91 37 -164 61q-117 39 -166 108.5t-49 172.5q0 142 96.5 228.5t259.5 86.5zM336 1149l-252 352h100l234 -207l231 207h103l-254 -352h-162z" />
    <glyph glyph-name="Tcommaaccent" unicode="&#x162;" horiz-adv-x="1138" 
d="M16 1405q228 -12 549 -12q301 0 545 12q-10 -52 -10 -80q0 -23 10 -72q-154 15 -408 15q-4 -86 -4 -203v-807q0 -132 15 -258q-118 12 -152 12q-7 0 -19.5 -1t-47 -4.5t-70.5 -6.5q0 16 10 189.5t10 279.5l-2 602q0 79 -4 197h-39q-214 0 -383 -15q11 50 11 76
q0 39 -11 76zM602 -63q33 0 57.5 -15t24.5 -43q0 -33 -25 -69q-11 -18 -182 -252l-63 28l71 262q24 89 117 89z" />
    <glyph glyph-name="tcommaaccent" unicode="&#x163;" horiz-adv-x="681" 
d="M432 1343l14 -6q-6 -15 -10 -161l-4 -209q133 0 217 8q-6 -37 -6 -51q0 -35 6 -62q-88 8 -223 8q0 -47 -3 -188t-3 -211q0 -104 3.5 -166t11.5 -109.5t26.5 -69t43.5 -31t66 -9.5q62 0 119 43q-8 -33 -8 -49q0 -19 2 -25l6 -22q-43 -24 -112.5 -42t-118.5 -18t-100 13.5
t-83 38.5q-88 69 -88 225q0 33 2 127q10 400 11 493q-105 0 -158 -6q6 30 6 45q0 35 -6 66q39 -8 160 -8q0 155 -4 233q83 38 150 81.5t83 61.5zM408 -63q33 0 57 -15t24 -43q0 -35 -24 -69q-11 -18 -182 -252l-64 28l72 262q24 89 117 89z" />
    <glyph glyph-name="Tcaron" unicode="&#x164;" horiz-adv-x="1138" 
d="M16 1405q228 -12 549 -12q301 0 545 12q-10 -52 -10 -80q0 -23 10 -72q-154 15 -408 15q-4 -86 -4 -203v-807q0 -132 15 -258q-118 12 -152 12q-7 0 -19.5 -1t-47 -4.5t-70.5 -6.5q0 16 10 189.5t10 279.5l-2 602q0 79 -4 197h-39q-214 0 -383 -15q11 50 11 76
q0 39 -11 76zM481 1477l-252 352h101l233 -207l232 207h102l-254 -352h-162z" />
    <glyph glyph-name="tcaron" unicode="&#x165;" horiz-adv-x="681" 
d="M432 1343l14 -6q-6 -15 -10 -161l-4 -209q133 0 217 8q-6 -37 -6 -51q0 -35 6 -62q-88 8 -223 8q0 -47 -3 -188t-3 -211q0 -104 3.5 -166t11.5 -109.5t26.5 -69t43.5 -31t66 -9.5q62 0 119 43q-8 -33 -8 -49q0 -19 2 -25l6 -22q-43 -24 -112.5 -42t-118.5 -18t-100 13.5
t-83 38.5q-88 69 -88 225q0 33 2 127q10 400 11 493q-105 0 -158 -6q6 30 6 45q0 35 -6 66q39 -8 160 -8q0 155 -4 233q83 38 150 81.5t83 61.5zM721 1505q34 0 58 -14.5t24 -42.5q0 -34 -25 -70q-11 -18 -182 -252h-72l80 291q24 88 117 88z" />
    <glyph glyph-name="Tbar" unicode="&#x166;" horiz-adv-x="1138" 
d="M16 1405q228 -12 549 -12q301 0 545 12q-10 -52 -10 -80q0 -23 10 -72q-154 15 -408 15q-4 -86 -4 -203v-191q66 0 320 13q-6 -52 -6 -66q0 -30 6 -57q-160 14 -320 14v-520q0 -132 15 -258q-118 12 -152 12q-7 0 -19.5 -1t-47 -4.5t-70.5 -6.5q0 16 10 189.5t10 279.5
l-2 309q-145 0 -313 -14q6 30 6 65q0 40 -6 58q241 -13 313 -13v197q0 79 -4 197h-39q-214 0 -383 -15q11 50 11 76q0 39 -11 76z" />
    <glyph glyph-name="tbar" unicode="&#x167;" horiz-adv-x="681" 
d="M432 1343l14 -6q-6 -15 -10 -161l-4 -209q133 0 217 8q-6 -37 -6 -51q0 -35 6 -62q-88 8 -223 8l-2 -159q121 0 205 8q-6 -30 -6 -51q0 -8 6 -62q-86 8 -209 8v-143q0 -104 3.5 -166t11.5 -109.5t26.5 -69t43.5 -31t66 -9.5q62 0 119 43q-8 -33 -8 -49q0 -19 2 -25l6 -22
q-43 -24 -112.5 -42t-118.5 -18t-100 13.5t-83 38.5q-88 69 -88 225q0 33 2 127l7 237q-105 0 -154 -6q6 30 6 49q0 35 -6 62q39 -8 156 -8l2 159q-105 0 -158 -6q6 30 6 45q0 35 -6 66q39 -8 160 -8q0 155 -4 233q83 38 150 81.5t83 61.5z" />
    <glyph glyph-name="Utilde" unicode="&#x168;" horiz-adv-x="1478" 
d="M156 1405q94 -12 143 -12q59 0 133 12q-12 -300 -12 -506v-225q0 -196 8 -277q13 -138 109 -209t260 -71q96 0 177.5 37t125.5 100t54.5 134t10.5 233q0 473 -18 784q45 -12 92 -12q54 0 96 12q-4 -54 -18 -490q-3 -84 -4.5 -226.5t-4 -204.5t-17.5 -141t-44 -132
q-59 -107 -191.5 -171.5t-299.5 -64.5q-280 0 -435 123t-155 353v610q0 190 -10 344zM1073 1753h74q-25 -110 -82.5 -169.5t-144.5 -59.5q-51 0 -115.5 22t-116.5 44t-72 22q-37 0 -65 -23.5t-41 -66.5h-74q37 123 92.5 176t133.5 53q50 0 160 -44t143 -44q82 0 108 90z" />
    <glyph glyph-name="utilde" unicode="&#x169;" horiz-adv-x="1175" 
d="M137 983q74 -12 131 -12q62 0 133 12q-10 -40 -17 -182t-7 -264q0 -232 16 -281q15 -55 64 -91t114 -36q37 0 71 10t69.5 39t54.5 74q33 76 33 235q0 370 -15 496q78 -12 119 -12q57 0 139 12q-20 -321 -20 -557q0 -223 16 -426q-28 2 -67.5 7t-61.5 5q-30 0 -116 -12
q8 57 8 90v76q-71 -99 -151.5 -144t-180.5 -45q-64 0 -120.5 20t-104 60.5t-75.5 112.5t-28 166q0 58 4.5 207t4.5 225q0 109 -13 215zM883 1425h73q-25 -110 -82.5 -169.5t-144.5 -59.5q-51 0 -115 22t-116 44t-72 22q-37 0 -65.5 -23.5t-41.5 -66.5h-73q37 123 92 176
t133 53q50 0 160 -44t143 -44q83 0 109 90z" />
    <glyph glyph-name="Umacron" unicode="&#x16a;" horiz-adv-x="1478" 
d="M156 1405q94 -12 143 -12q59 0 133 12q-12 -300 -12 -506v-225q0 -196 8 -277q13 -138 109 -209t260 -71q96 0 177.5 37t125.5 100t54.5 134t10.5 233q0 473 -18 784q45 -12 92 -12q54 0 96 12q-4 -54 -18 -490q-3 -84 -4.5 -226.5t-4 -204.5t-17.5 -141t-44 -132
q-59 -107 -191.5 -171.5t-299.5 -64.5q-280 0 -435 123t-155 353v610q0 190 -10 344zM492 1690h585v-134h-585v134z" />
    <glyph glyph-name="umacron" unicode="&#x16b;" horiz-adv-x="1175" 
d="M137 983q74 -12 131 -12q62 0 133 12q-10 -40 -17 -182t-7 -264q0 -232 16 -281q15 -55 64 -91t114 -36q37 0 71 10t69.5 39t54.5 74q33 76 33 235q0 370 -15 496q78 -12 119 -12q57 0 139 12q-20 -321 -20 -557q0 -223 16 -426q-28 2 -67.5 7t-61.5 5q-30 0 -116 -12
q8 57 8 90v76q-71 -99 -151.5 -144t-180.5 -45q-64 0 -120.5 20t-104 60.5t-75.5 112.5t-28 166q0 58 4.5 207t4.5 225q0 109 -13 215zM301 1362h586v-133h-586v133z" />
    <glyph glyph-name="Ubreve" unicode="&#x16c;" horiz-adv-x="1478" 
d="M156 1405q94 -12 143 -12q59 0 133 12q-12 -300 -12 -506v-225q0 -196 8 -277q13 -138 109 -209t260 -71q96 0 177.5 37t125.5 100t54.5 134t10.5 233q0 473 -18 784q45 -12 92 -12q54 0 96 12q-4 -54 -18 -490q-3 -84 -4.5 -226.5t-4 -204.5t-17.5 -141t-44 -132
q-59 -107 -191.5 -171.5t-299.5 -64.5q-280 0 -435 123t-155 353v610q0 190 -10 344zM1006 1804h81q-15 -136 -53 -190q-42 -64 -103 -100.5t-157 -36.5q-133 0 -208.5 80.5t-84.5 244.5h80q37 -182 211 -182q209 0 234 184z" />
    <glyph glyph-name="ubreve" unicode="&#x16d;" horiz-adv-x="1175" 
d="M137 983q74 -12 131 -12q62 0 133 12q-10 -40 -17 -182t-7 -264q0 -232 16 -281q15 -55 64 -91t114 -36q37 0 71 10t69.5 39t54.5 74q33 76 33 235q0 370 -15 496q78 -12 119 -12q57 0 139 12q-20 -321 -20 -557q0 -223 16 -426q-28 2 -67.5 7t-61.5 5q-30 0 -116 -12
q8 57 8 90v76q-71 -99 -151.5 -144t-180.5 -45q-64 0 -120.5 20t-104 60.5t-75.5 112.5t-28 166q0 58 4.5 207t4.5 225q0 109 -13 215zM815 1477h82q-15 -131 -51 -187q-91 -141 -262 -141q-133 0 -208.5 81.5t-84.5 244.5h80q38 -183 211 -183q208 0 233 185z" />
    <glyph glyph-name="Uring" unicode="&#x16e;" horiz-adv-x="1478" 
d="M156 1405q94 -12 143 -12q59 0 133 12q-12 -300 -12 -506v-225q0 -196 8 -277q13 -138 109 -209t260 -71q96 0 177.5 37t125.5 100t54.5 134t10.5 233q0 473 -18 784q45 -12 92 -12q54 0 96 12q-4 -54 -18 -490q-3 -84 -4.5 -226.5t-4 -204.5t-17.5 -141t-44 -132
q-59 -107 -191.5 -171.5t-299.5 -64.5q-280 0 -435 123t-155 353v610q0 190 -10 344zM782 1882q84 0 147.5 -63.5t63.5 -147.5t-62.5 -147.5t-148.5 -63.5q-88 0 -149.5 63t-61.5 148t63 148t148 63zM657 1671q0 -50 37 -87.5t88 -37.5q52 0 88.5 37.5t36.5 87.5
q0 48 -38.5 86.5t-88.5 38.5q-46 0 -84.5 -37.5t-38.5 -87.5z" />
    <glyph glyph-name="uring" unicode="&#x16f;" horiz-adv-x="1175" 
d="M137 983q74 -12 131 -12q62 0 133 12q-10 -40 -17 -182t-7 -264q0 -232 16 -281q15 -55 64 -91t114 -36q37 0 71 10t69.5 39t54.5 74q33 76 33 235q0 370 -15 496q78 -12 119 -12q57 0 139 12q-20 -321 -20 -557q0 -223 16 -426q-28 2 -67.5 7t-61.5 5q-30 0 -116 -12
q8 57 8 90v76q-71 -99 -151.5 -144t-180.5 -45q-64 0 -120.5 20t-104 60.5t-75.5 112.5t-28 166q0 58 4.5 207t4.5 225q0 109 -13 215zM592 1554q86 0 148.5 -63.5t62.5 -147.5t-62.5 -147t-148.5 -63q-88 0 -149.5 62.5t-61.5 147.5t63 148t148 63zM467 1343q0 -50 37 -87
t88 -37t88 37t37 87q0 48 -38.5 86.5t-88.5 38.5q-46 0 -84.5 -37.5t-38.5 -87.5z" />
    <glyph glyph-name="Uhungarumlaut" unicode="&#x170;" horiz-adv-x="1478" 
d="M156 1405q94 -12 143 -12q59 0 133 12q-12 -300 -12 -506v-225q0 -196 8 -277q13 -138 109 -209t260 -71q96 0 177.5 37t125.5 100t54.5 134t10.5 233q0 473 -18 784q45 -12 92 -12q54 0 96 12q-4 -54 -18 -490q-3 -84 -4.5 -226.5t-4 -204.5t-17.5 -141t-44 -132
q-59 -107 -191.5 -171.5t-299.5 -64.5q-280 0 -435 123t-155 353v610q0 190 -10 344zM860 1843q39 0 67.5 -23t28.5 -59q0 -52 -38 -75l-302 -209h-98l246 311q13 18 40.5 36.5t55.5 18.5zM1169 1843q42 0 69.5 -23t27.5 -59q0 -51 -39 -75l-301 -209h-99l246 311
q14 20 41.5 37.5t54.5 17.5z" />
    <glyph glyph-name="uhungarumlaut" unicode="&#x171;" horiz-adv-x="1175" 
d="M137 983q74 -12 131 -12q62 0 133 12q-10 -40 -17 -182t-7 -264q0 -232 16 -281q15 -55 64 -91t114 -36q37 0 71 10t69.5 39t54.5 74q33 76 33 235q0 370 -15 496q78 -12 119 -12q57 0 139 12q-20 -321 -20 -557q0 -223 16 -426q-28 2 -67.5 7t-61.5 5q-30 0 -116 -12
q8 57 8 90v76q-71 -99 -151.5 -144t-180.5 -45q-64 0 -120.5 20t-104 60.5t-75.5 112.5t-28 166q0 58 4.5 207t4.5 225q0 109 -13 215zM698 1516q39 0 68 -23t29 -59q0 -52 -39 -76l-301 -209h-99l246 311q13 18 40.5 37t55.5 19zM1008 1516q42 0 69 -23t27 -59
q0 -52 -39 -76l-301 -209h-98l245 311q14 20 42 38t55 18z" />
    <glyph glyph-name="Uogonek" unicode="&#x172;" horiz-adv-x="1478" 
d="M156 1405q94 -12 143 -12q59 0 133 12q-12 -300 -12 -506v-225q0 -196 8 -277q13 -138 109 -209t260 -71q96 0 177.5 37t125.5 100t54.5 134t10.5 233q0 473 -18 784q45 -12 92 -12q54 0 96 12q-4 -54 -18 -490q-3 -84 -4.5 -226.5t-4 -204.5t-17.5 -141t-44 -132
q-51 -93 -161.5 -155.5t-249.5 -75.5q-39 -41 -57 -62.5t-37 -56.5t-19 -64q0 -46 28 -74t70 -28q45 0 113 55l35 -37q-74 -85 -123.5 -115t-112.5 -30q-70 0 -114 46.5t-44 111.5q0 62 40 120.5t133 128.5q-279 2 -430.5 124t-151.5 352v610q0 190 -10 344z" />
    <glyph glyph-name="uogonek" unicode="&#x173;" horiz-adv-x="1175" 
d="M137 983q74 -12 131 -12q62 0 133 12q-10 -40 -17 -182t-7 -264q0 -232 16 -281q15 -55 64 -91t114 -36q37 0 71 10t69.5 39t54.5 74q33 76 33 235q0 370 -15 496q78 -12 119 -12q57 0 139 12q-20 -321 -20 -557q0 -223 16 -426q-30 2 -66 6.5t-54 5.5q-9 -11 -48 -52
t-52.5 -58t-29.5 -48t-16 -57q0 -46 28 -74t70 -28q45 0 113 55l35 -37q-74 -85 -123.5 -115t-112.5 -30q-70 0 -113.5 46.5t-43.5 111.5q0 68 48.5 133t164.5 147l-45 -6q8 57 8 90v76q-71 -99 -151.5 -144t-180.5 -45q-64 0 -120.5 20t-104 60.5t-75.5 112.5t-28 166
q0 58 4.5 207t4.5 225q0 109 -13 215z" />
    <glyph glyph-name="Wcircumflex" unicode="&#x174;" horiz-adv-x="2048" 
d="M14 1405q99 -12 160 -12q60 0 143 12q58 -223 213 -684l119 -356q66 161 194 539t156 501q64 -12 93 -12q22 0 88 12q36 -115 86 -278t72.5 -232.5t71 -208.5t118.5 -328q203 527 338 1047q50 -12 94 -12q40 0 92 12q-108 -260 -253.5 -665t-252.5 -740q-62 12 -82 12
t-88 -12q-100 320 -121 381l-106 313q-75 221 -125 355q-263 -723 -356 -1049q-58 12 -78 12q-18 0 -84 -12l-51 156q-223 678 -441 1249zM1004 1829h161l254 -352h-102l-232 204l-233 -204h-100z" />
    <glyph glyph-name="wcircumflex" unicode="&#x175;" horiz-adv-x="1630" 
d="M31 983q77 -12 141 -12q70 0 135 12l58 -197q6 -21 172 -544q35 97 67.5 191t60.5 183t44 141t40 133.5t27 92.5q46 -12 82 -12q46 0 98 12q132 -466 238 -737q114 296 236 737q53 -12 90 -12q34 0 86 12l-185 -457q-143 -356 -196 -536q-47 12 -82 12q-43 0 -105 -12
q-61 203 -100 323.5t-71 213.5t-56 169q-4 -6 -55 -151l-123 -348q-14 -40 -23.5 -72t-20.5 -74t-16 -61q-30 12 -79 12q-52 0 -105 -12l-80 264q-69 230 -278 729zM776 1501h162l254 -352h-102l-232 205l-233 -205h-101z" />
    <glyph glyph-name="Ycircumflex" unicode="&#x176;" horiz-adv-x="1214" 
d="M-27 1405q132 -12 170 -12q90 0 166 12q124 -258 193 -391t166 -301q111 190 172.5 309t181.5 383q58 -12 119 -12q45 0 86 12q-59 -99 -170 -277q-95 -155 -176 -297t-114.5 -205.5t-35.5 -70.5q0 -207 2 -270l12 -285q-16 1 -45 4.5t-52.5 5.5t-43.5 2q-8 0 -137 -12
q12 390 12 555q-200 343 -506 850zM522 1829h162l254 -352h-102l-232 204l-233 -204h-101z" />
    <glyph glyph-name="ycircumflex" unicode="&#x177;" horiz-adv-x="1024" 
d="M160 971q39 0 141 12q41 -129 122.5 -346t151.5 -377q53 121 115 291q38 107 63 183.5t46.5 147.5t31.5 101q59 -12 91 -12q31 0 92 12q-101 -199 -352 -782q-229 -533 -279 -729q-59 12 -92 12q-35 0 -94 -12q63 101 127 227l135 264q-6 28 -107 264q-96 224 -336 756
q91 -12 144 -12zM449 1501h161l254 -352h-102l-232 205l-233 -205h-100z" />
    <glyph glyph-name="Ydieresis" unicode="&#x178;" horiz-adv-x="1214" 
d="M-27 1405q132 -12 170 -12q90 0 166 12q124 -258 193 -391t166 -301q111 190 172.5 309t181.5 383q58 -12 119 -12q45 0 86 12q-59 -99 -170 -277q-95 -155 -176 -297t-114.5 -205.5t-35.5 -70.5q0 -207 2 -270l12 -285q-16 1 -45 4.5t-52.5 5.5t-43.5 2q-8 0 -137 -12
q12 390 12 555q-200 343 -506 850zM418 1739q50 0 85.5 -35.5t35.5 -85.5q0 -48 -36 -84.5t-85 -36.5q-51 0 -86 35.5t-35 85.5q0 51 35.5 86t85.5 35zM838 1739q49 0 84.5 -35.5t35.5 -85.5q0 -48 -35.5 -84.5t-84.5 -36.5q-50 0 -85.5 35.5t-35.5 85.5q0 51 35.5 86
t85.5 35z" />
    <glyph glyph-name="Zacute" unicode="&#x179;" horiz-adv-x="1251" 
d="M102 1405q92 -12 641 -12q306 0 463 12q4 -14 4 -35q-3 -23 -30 -59l-103 -142l-63 -92q-8 -12 -32.5 -44.5t-35.5 -51.5l-332 -498q-149 -219 -221 -346h213q127 0 338 14t258 15l-6 -39q-4 -20 -4 -45q0 -53 10 -82q-237 12 -538 12h-347q-95 0 -301 -12v66l283 385
l233 352q226 345 295 465q-433 0 -725 -23q7 62 7 80q0 39 -7 80zM860 1862q41 0 68.5 -23.5t27.5 -60.5q0 -50 -49 -80l-329 -203h-105l287 311q52 56 100 56z" />
    <glyph glyph-name="zacute" unicode="&#x17a;" horiz-adv-x="985" 
d="M96 981q90 -12 363 -12h205q195 0 256 12v-70q-149 -189 -313 -427t-232 -359h57q373 0 492 14q-11 -43 -11 -78q0 -29 7 -61q-431 12 -447 12q-247 0 -434 -12v63q194 244 563 793h-18q-218 0 -488 -20q6 54 6 65q0 15 -3 44t-3 36zM756 1534q33 0 61.5 -24t28.5 -60
q0 -29 -11.5 -46t-41.5 -36l-324 -201h-104l290 314q48 53 101 53z" />
    <glyph glyph-name="Zdotaccent" unicode="&#x17b;" horiz-adv-x="1251" 
d="M102 1405q92 -12 641 -12q306 0 463 12q4 -14 4 -35q-3 -23 -30 -59l-103 -142l-63 -92q-8 -12 -32.5 -44.5t-35.5 -51.5l-332 -498q-149 -219 -221 -346h213q127 0 338 14t258 15l-6 -39q-4 -20 -4 -45q0 -53 10 -82q-237 12 -538 12h-347q-95 0 -301 -12v66l283 385
l233 352q226 345 295 465q-433 0 -725 -23q7 62 7 80q0 39 -7 80zM672 1718q51 0 86 -35.5t35 -85.5q0 -49 -35.5 -84.5t-85.5 -35.5q-51 0 -86 35t-35 85q0 51 35.5 86t85.5 35z" />
    <glyph glyph-name="zdotaccent" unicode="&#x17c;" horiz-adv-x="985" 
d="M96 981q90 -12 363 -12h205q195 0 256 12v-70q-149 -189 -313 -427t-232 -359h57q373 0 492 14q-11 -43 -11 -78q0 -29 7 -61q-431 12 -447 12q-247 0 -434 -12v63q194 244 563 793h-18q-218 0 -488 -20q6 54 6 65q0 15 -3 44t-3 36zM500 1411q51 0 86 -35.5t35 -85.5
q0 -48 -36 -84.5t-85 -36.5q-50 0 -85.5 35.5t-35.5 85.5q0 51 35.5 86t85.5 35z" />
    <glyph glyph-name="Zcaron" unicode="&#x17d;" horiz-adv-x="1251" 
d="M102 1405q92 -12 641 -12q306 0 463 12q4 -14 4 -35q-3 -23 -30 -59l-103 -142l-63 -92q-8 -12 -32.5 -44.5t-35.5 -51.5l-332 -498q-149 -219 -221 -346h213q127 0 338 14t258 15l-6 -39q-4 -20 -4 -45q0 -53 10 -82q-237 12 -538 12h-347q-95 0 -301 -12v66l283 385
l233 352q226 345 295 465q-433 0 -725 -23q7 62 7 80q0 39 -7 80zM545 1477l-252 352h100l234 -207l231 207h103l-254 -352h-162z" />
    <glyph glyph-name="zcaron" unicode="&#x17e;" horiz-adv-x="985" 
d="M96 981q90 -12 363 -12h205q195 0 256 12v-70q-149 -189 -313 -427t-232 -359h57q373 0 492 14q-11 -43 -11 -78q0 -29 7 -61q-431 12 -447 12q-247 0 -434 -12v63q194 244 563 793h-18q-218 0 -488 -20q6 54 6 65q0 15 -3 44t-3 36zM412 1149l-252 352h100l234 -207
l231 207h102l-254 -352h-161z" />
    <glyph glyph-name="florin" unicode="&#x192;" horiz-adv-x="1062" 
d="M946 1421h29l-17 -98q-7 -48 -10 -98l-22 -8q-29 30 -52.5 39.5t-56.5 9.5q-116 0 -137 -160l-37 -295h107q68 0 127 6q-13 -41 -13 -57q0 -33 4 -53q-52 6 -139 6h-104l-70 -430q-18 -115 -27.5 -164.5t-33 -121.5t-60.5 -147q-60 -119 -175.5 -211t-233.5 -92h-27
q22 59 22 111q0 34 -6 82l29 14q35 -43 109 -43q62 0 85.5 41t34.5 156q12 129 41 317l68 416q4 34 12 72h-90q-32 0 -119 -6q13 37 13 61q0 17 -4 49q49 -6 122 -6h91q63 238 133 348q166 262 407 262z" />
    <glyph glyph-name="Aringacute" unicode="&#x1fa;" horiz-adv-x="1327" 
d="M883 1411q0 -97 -92 -160q174 -442 544 -1251q-133 12 -159 12q-34 0 -152 -12q-156 405 -172 444q-122 9 -260 9q-53 0 -150 -5l-98 -4q-120 -288 -164 -444q-71 12 -98 12q-17 0 -33 -2t-34 -5.5t-25 -4.5l223 496q80 177 151.5 333t100.5 218t51 112t35 86
q-46 28 -72 71.5t-26 94.5q0 78 64.5 137.5t150.5 59.5q84 0 149.5 -60t65.5 -137zM600 1073l-209 -502q143 -8 213 -8q124 0 189 8zM541 1411q0 -43 35 -80t90 -37q64 0 96.5 39t32.5 78q0 45 -38.5 81t-88.5 36q-51 0 -89 -35t-38 -82zM852 1882q30 0 50 -23t20 -59
q0 -10 -2.5 -18t-9.5 -15.5t-15 -13t-24 -12t-31.5 -11.5t-42.5 -13t-51.5 -14.5t-64 -18t-75.5 -21.5h-90l244 184q44 35 92 35z" />
    <glyph glyph-name="aringacute" unicode="&#x1fb;" horiz-adv-x="1024" 
d="M479 999q175 0 274 -81t99 -232q0 -54 -3 -205t-3 -231q0 -89 15 -123.5t57 -34.5q14 0 57 17q-8 -19 -8 -39q0 -7 4 -20.5t4 -14.5q-112 -45 -174 -45q-70 0 -108 27t-62 98q-48 -64 -122 -102t-155 -38q-133 0 -206.5 71.5t-73.5 182.5q0 59 13 104t38 74t47 45t53 31
q50 25 181 58q186 50 198 59q25 15 25 57q0 104 -52 160.5t-149 56.5q-85 0 -142.5 -39t-76.5 -106q-12 4 -39 4q-13 0 -25 -4q11 69 11 113q0 33 -2 43q119 71 180.5 92.5t144.5 21.5zM305 276q0 -81 36.5 -128.5t98.5 -47.5q78 0 130.5 56t52.5 135v217q-5 -1 -29.5 -7.5
t-49 -13.5t-26.5 -8q-60 -16 -97 -31.5t-65 -39t-39.5 -55t-11.5 -77.5zM502 1513q86 0 148.5 -63t62.5 -147t-62.5 -147.5t-148.5 -63.5q-88 0 -149.5 63t-61.5 148t63 147.5t148 62.5zM377 1303q0 -50 37 -87.5t88 -37.5t88 37.5t37 87.5q0 48 -38.5 86t-88.5 38
q-46 0 -84.5 -37t-38.5 -87z" />
    <glyph glyph-name="AEacute" unicode="&#x1fc;" horiz-adv-x="1744" 
d="M877 1405q226 -12 380 -12q88 0 388 12q-11 -54 -11 -68q0 -40 11 -73q-232 14 -478 14v-481q343 0 443 14q-11 -37 -11 -74q0 -40 11 -69q-203 14 -443 14v-555q268 0 490 14q-10 -22 -10 -67t10 -74q-187 12 -371 12q-192 0 -385 -12q14 372 14 442q-90 9 -237 9
q-154 0 -256 -9q-105 -144 -266 -442q-77 12 -111 12q-22 0 -108 -12q48 54 169 229l316 459q323 466 455 717zM834 1098l-336 -531q76 -8 213 -8q141 0 204 8l5 668q-29 -51 -86 -137zM1372 1862q41 0 68.5 -23.5t27.5 -60.5q0 -50 -49 -80l-329 -203h-105l287 311
q52 56 100 56z" />
    <glyph glyph-name="aeacute" unicode="&#x1fd;" horiz-adv-x="1630" 
d="M518 999q183 0 279 -102q73 55 143 77.5t170 22.5q195 0 313.5 -112.5t118.5 -343.5v-60q-345 6 -346 6q-210 0 -328 -4v-12q0 -189 90.5 -283t249.5 -94q138 0 277 127l20 -12q-20 -68 -28 -127q-151 -111 -347 -111q-144 0 -249.5 54.5t-155.5 150.5
q-64 -99 -158.5 -151t-195.5 -52q-136 0 -216.5 68t-80.5 207q0 87 34.5 138t106.5 91q49 27 227.5 69.5t186.5 45.5q28 8 28 67q0 115 -55.5 165t-169.5 50q-83 0 -142.5 -40t-84.5 -109h-58q17 69 17 102q0 23 -8 60q63 46 164.5 79t197.5 33zM868 584h439v49
q0 280 -209 280q-113 0 -171 -79.5t-59 -249.5zM303 272q0 -76 43 -125t119 -49q32 0 63.5 12.5t60 38t46.5 70.5t18 103v186l-180 -49q-96 -26 -133 -71t-37 -116zM1010 1534q33 0 61.5 -24t28.5 -60q0 -29 -11.5 -46t-41.5 -36l-324 -201h-105l291 314q48 53 101 53z" />
    <glyph glyph-name="Oslashacute" unicode="&#x1fe;" horiz-adv-x="1744" 
d="M1339 1296l209 246q13 -22 28.5 -35.5t55.5 -40.5q-141 -148 -215 -229q215 -189 215 -516q0 -219 -93 -389.5t-264.5 -265.5t-393.5 -95q-306 0 -478 123l-227 -256q-20 25 -35.5 37.5t-50.5 32.5l232 250q-103 93 -160.5 227.5t-57.5 288.5q0 145 38 266.5t106.5 209.5
t164.5 149.5t212 91.5t249 30q276 0 465 -125zM385 664q0 -92 22.5 -185.5t59.5 -163.5q361 398 754 846q-130 156 -347 156q-100 0 -181.5 -33.5t-138 -93t-95 -142t-56.5 -179t-18 -205.5zM1274 1081q-146 -164 -385 -436l-365 -414q127 -155 365 -155q145 0 251 85.5
t159 233t53 338.5q0 206 -78 348zM1106 1862q41 0 68.5 -23.5t27.5 -60.5q0 -50 -49 -80l-330 -203h-104l287 311q52 56 100 56z" />
    <glyph glyph-name="oslashacute" unicode="&#x1ff;" horiz-adv-x="1214" 
d="M907 922l162 194l70 -57l-160 -189q141 -132 141 -354q0 -255 -131.5 -398t-374.5 -143q-189 0 -305 78l-155 -190l-70 57l156 186q-148 145 -148 377q0 233 136.5 373.5t367.5 140.5q183 0 311 -75zM348 496q0 -139 25 -228l432 529q-63 118 -199 118
q-125 0 -191.5 -108.5t-66.5 -310.5zM840 702q-32 -39 -106 -130.5t-118 -143.5l-208 -254q32 -53 83 -85t111 -32q262 0 262 432q0 125 -24 213zM866 1534q33 0 61.5 -24t28.5 -60q0 -29 -11.5 -46t-41.5 -36l-323 -201h-105l291 314q48 53 100 53z" />
    <glyph glyph-name="Scommaaccent" unicode="&#x218;" horiz-adv-x="1099" 
d="M596 1421q86 0 162 -18.5t178 -65.5q-52 -132 -64 -194h-28q-24 85 -96 131.5t-173 46.5q-111 0 -176 -61t-65 -160q0 -63 23 -104.5t89.5 -81t192.5 -83.5q105 -36 169 -71.5t103 -83.5q86 -106 86 -256q0 -192 -138 -320.5t-363 -128.5q-105 0 -196.5 23t-205.5 82
q25 80 31.5 112t15.5 117h29q55 -119 125.5 -176t189.5 -57q122 0 196.5 72t74.5 184q0 84 -45.5 146t-159.5 106l-98 38q-92 36 -149.5 68.5t-102 78t-63.5 105t-19 142.5q0 186 126 297.5t351 111.5zM569 -63q33 0 57.5 -15t24.5 -43q0 -35 -24 -69q-6 -10 -183 -252
l-63 28l72 262q24 89 116 89z" />
    <glyph glyph-name="scommaaccent" unicode="&#x219;" horiz-adv-x="833" 
d="M436 997q134 0 275 -61q-25 -49 -34.5 -84t-17.5 -98h-32q-36 78 -81.5 110.5t-115.5 32.5q-74 0 -120 -36.5t-46 -98.5q0 -27 11 -48.5t27.5 -36.5t51.5 -31t66 -26t88 -28q140 -42 198 -111t58 -172q0 -44 -14 -90t-44.5 -91t-75 -79.5t-111 -56t-146.5 -21.5
q-70 0 -134.5 16.5t-168.5 63.5q32 79 36 111l9 69h37q34 -83 95.5 -119t153.5 -36q71 0 113.5 41t42.5 104q0 79 -98 119q-91 37 -164 61q-117 39 -166 108.5t-49 172.5q0 142 96.5 228.5t259.5 86.5zM418 -63q33 0 57.5 -15t24.5 -43q0 -33 -25 -69q-11 -18 -182 -252
l-64 28l72 262q24 89 117 89z" />
    <glyph glyph-name="uni021A" unicode="&#x21a;" horiz-adv-x="1138" 
d="M16 1405q228 -12 549 -12q301 0 545 12q-10 -52 -10 -80q0 -23 10 -72q-154 15 -408 15q-4 -86 -4 -203v-807q0 -132 15 -258q-118 12 -152 12q-7 0 -19.5 -1t-47 -4.5t-70.5 -6.5q0 16 10 189.5t10 279.5l-2 602q0 79 -4 197h-39q-214 0 -383 -15q11 50 11 76
q0 39 -11 76zM602 -63q33 0 57.5 -15t24.5 -43q0 -33 -25 -69q-11 -18 -182 -252l-63 28l71 262q24 89 117 89z" />
    <glyph glyph-name="uni021B" unicode="&#x21b;" horiz-adv-x="681" 
d="M432 1343l14 -6q-6 -15 -10 -161l-4 -209q133 0 217 8q-6 -37 -6 -51q0 -35 6 -62q-88 8 -223 8q0 -47 -3 -188t-3 -211q0 -104 3.5 -166t11.5 -109.5t26.5 -69t43.5 -31t66 -9.5q62 0 119 43q-8 -33 -8 -49q0 -19 2 -25l6 -22q-43 -24 -112.5 -42t-118.5 -18t-100 13.5
t-83 38.5q-88 69 -88 225q0 33 2 127q10 400 11 493q-105 0 -158 -6q6 30 6 45q0 35 -6 66q39 -8 160 -8q0 155 -4 233q83 38 150 81.5t83 61.5zM408 -63q33 0 57 -15t24 -43q0 -35 -24 -69q-11 -18 -182 -252l-64 28l72 262q24 89 117 89z" />
    <glyph glyph-name="dotlessj" unicode="&#x237;" 
d="M152 983q65 -12 133 -12q55 0 133 12q-17 -296 -17 -473q0 -49 2.5 -241.5t2.5 -209.5q0 -26 -7 -198q-5 -145 -55 -217q-51 -71 -131.5 -112.5t-230.5 -70.5l-23 78q96 18 133 55q42 40 60 121t18 252q0 797 -18 1016z" />
    <glyph glyph-name="circumflex" unicode="&#x2c6;" 
d="M184 1501h162l254 -352h-102l-232 205l-233 -205h-101z" />
    <glyph glyph-name="caron" unicode="&#x2c7;" 
d="M184 1149l-252 352h101l233 -207l232 207h102l-254 -352h-162z" />
    <glyph glyph-name="uni02C9" unicode="&#x2c9;" 
d="M-27 1362h586v-133h-586v133z" />
    <glyph glyph-name="breve" unicode="&#x2d8;" 
d="M487 1477h82q-15 -131 -51 -187q-91 -141 -262 -141q-133 0 -208.5 81.5t-84.5 244.5h80q38 -183 211 -183q208 0 233 185z" />
    <glyph glyph-name="dotaccent" unicode="&#x2d9;" 
d="M264 1411q51 0 86 -35.5t35 -85.5q0 -48 -36 -84.5t-85 -36.5q-50 0 -85.5 35.5t-35.5 85.5q0 51 35.5 86t85.5 35z" />
    <glyph glyph-name="ring" unicode="&#x2da;" 
d="M264 1554q86 0 148.5 -63.5t62.5 -147.5t-62.5 -147t-148.5 -63q-88 0 -149.5 62.5t-61.5 147.5t63 148t148 63zM139 1343q0 -50 37 -87t88 -37t88 37t37 87q0 48 -38.5 86.5t-88.5 38.5q-46 0 -84.5 -37.5t-38.5 -87.5z" />
    <glyph glyph-name="ogonek" unicode="&#x2db;" 
d="M410 25h63q-15 -18 -50.5 -56t-54 -59.5t-35 -53.5t-16.5 -59q0 -46 28.5 -74t70.5 -28q44 0 112 55l35 -37q-74 -85 -123.5 -115t-111.5 -30q-70 0 -114 46.5t-44 111.5q0 71 55 140t185 159z" />
    <glyph glyph-name="tilde" unicode="&#x2dc;" 
d="M555 1425h74q-25 -110 -83 -169.5t-145 -59.5q-51 0 -115 22t-116 44t-72 22q-37 0 -65 -23.5t-41 -66.5h-74q37 123 92 176t133 53q50 0 160 -44t143 -44q83 0 109 90z" />
    <glyph glyph-name="hungarumlaut" unicode="&#x2dd;" 
d="M350 1516q39 0 67.5 -23t28.5 -59q0 -53 -38 -76l-302 -209h-98l246 311q13 18 40.5 37t55.5 19zM659 1516q42 0 69.5 -23t27.5 -59q0 -52 -39 -76l-301 -209h-99l246 311q14 20 41.5 38t54.5 18z" />
    <glyph glyph-name="uni0394" unicode="&#x394;" horiz-adv-x="1349" 
d="M541 1393h274l455 -1172l35 -141v-80h-1260v125zM674 1225h-8q-242 -639 -412 -1053h827q-59 146 -222 564.5t-185 488.5z" />
    <glyph glyph-name="uni03A9" unicode="&#x3a9;" horiz-adv-x="1548" 
d="M782 1425q148 0 274.5 -52t213 -141t135.5 -208t49 -252q0 -175 -70.5 -324t-207.5 -258v-6h305v-184h-586v143q148 105 228.5 257t80.5 323q0 219 -124.5 365.5t-301.5 146.5q-127 0 -228 -74t-153.5 -188.5t-52.5 -243.5q0 -168 85.5 -334t223.5 -252v-143h-587v184
h301v6q-129 99 -202 245t-73 310q0 190 91 346t249 245t350 89z" />
    <glyph glyph-name="uni03BC" unicode="&#x3bc;" horiz-adv-x="1175" 
d="M137 983q74 -12 131 -12q62 0 133 12q-24 -109 -24 -487q0 -172 18 -234q37 -133 187 -133q108 0 162.5 91.5t54.5 266.5q0 370 -15 496q78 -12 119 -12q57 0 139 12q-20 -257 -20 -557q0 -252 16 -426q-28 2 -67.5 7t-61.5 5q-30 0 -116 -12q8 57 8 90v76
q-36 -86 -118.5 -137.5t-176.5 -51.5q-82 0 -135 43q0 -334 20 -552q-52 12 -133 12q-60 0 -125 -12q21 215 21 700q0 396 -3.5 557.5t-13.5 257.5z" />
    <glyph glyph-name="pi" unicode="&#x3c0;" horiz-adv-x="1333" 
d="M90 1044h1149v-178h-160v-579q0 -71 18 -99t60 -28q44 0 86 22v-151q-89 -47 -178 -47q-114 0 -163.5 80t-49.5 243v559h-391v-866h-228v866h-143v178z" />
    <glyph glyph-name="Wgrave" unicode="&#x1e80;" horiz-adv-x="2048" 
d="M14 1405q99 -12 160 -12q60 0 143 12q58 -223 213 -684l119 -356q66 161 194 539t156 501q64 -12 93 -12q22 0 88 12q36 -115 86 -278t72.5 -232.5t71 -208.5t118.5 -328q203 527 338 1047q50 -12 94 -12q40 0 92 12q-108 -260 -253.5 -665t-252.5 -740q-62 12 -82 12
t-88 -12q-100 320 -121 381l-106 313q-75 221 -125 355q-263 -723 -356 -1049q-58 12 -78 12q-18 0 -84 -12l-51 156q-223 678 -441 1249zM907 1843q53 0 101 -53l290 -313h-104l-324 200q-30 19 -41.5 36t-11.5 46q0 36 28.5 60t61.5 24z" />
    <glyph glyph-name="wgrave" unicode="&#x1e81;" horiz-adv-x="1630" 
d="M31 983q77 -12 141 -12q70 0 135 12l58 -197q6 -21 172 -544q35 97 67.5 191t60.5 183t44 141t40 133.5t27 92.5q46 -12 82 -12q46 0 98 12q132 -466 238 -737q114 296 236 737q53 -12 90 -12q34 0 86 12l-185 -457q-143 -356 -196 -536q-47 12 -82 12q-43 0 -105 -12
q-61 203 -100 323.5t-71 213.5t-56 169q-4 -6 -55 -151l-123 -348q-14 -40 -23.5 -72t-20.5 -74t-16 -61q-30 12 -79 12q-52 0 -105 -12l-80 264q-69 230 -278 729zM680 1516q51 0 100 -54l291 -313h-104l-324 201q-30 19 -41.5 36t-11.5 46q0 36 28.5 60t61.5 24z" />
    <glyph glyph-name="Wacute" unicode="&#x1e82;" horiz-adv-x="2048" 
d="M14 1405q99 -12 160 -12q60 0 143 12q58 -223 213 -684l119 -356q66 161 194 539t156 501q64 -12 93 -12q22 0 88 12q36 -115 86 -278t72.5 -232.5t71 -208.5t118.5 -328q203 527 338 1047q50 -12 94 -12q40 0 92 12q-108 -260 -253.5 -665t-252.5 -740q-62 12 -82 12
t-88 -12q-100 320 -121 381l-106 313q-75 221 -125 355q-263 -723 -356 -1049q-58 12 -78 12q-18 0 -84 -12l-51 156q-223 678 -441 1249zM1317 1862q41 0 68.5 -23.5t27.5 -60.5q0 -50 -49 -80l-330 -203h-104l287 311q52 56 100 56z" />
    <glyph glyph-name="wacute" unicode="&#x1e83;" horiz-adv-x="1630" 
d="M31 983q77 -12 141 -12q70 0 135 12l58 -197q6 -21 172 -544q35 97 67.5 191t60.5 183t44 141t40 133.5t27 92.5q46 -12 82 -12q46 0 98 12q132 -466 238 -737q114 296 236 737q53 -12 90 -12q34 0 86 12l-185 -457q-143 -356 -196 -536q-47 12 -82 12q-43 0 -105 -12
q-61 203 -100 323.5t-71 213.5t-56 169q-4 -6 -55 -151l-123 -348q-14 -40 -23.5 -72t-20.5 -74t-16 -61q-30 12 -79 12q-52 0 -105 -12l-80 264q-69 230 -278 729zM1081 1534q33 0 61.5 -24t28.5 -60q0 -29 -11.5 -46t-41.5 -36l-323 -201h-105l291 314q48 53 100 53z" />
    <glyph glyph-name="Wdieresis" unicode="&#x1e84;" horiz-adv-x="2048" 
d="M14 1405q99 -12 160 -12q60 0 143 12q58 -223 213 -684l119 -356q66 161 194 539t156 501q64 -12 93 -12q22 0 88 12q36 -115 86 -278t72.5 -232.5t71 -208.5t118.5 -328q203 527 338 1047q50 -12 94 -12q40 0 92 12q-108 -260 -253.5 -665t-252.5 -740q-62 12 -82 12
t-88 -12q-100 320 -121 381l-106 313q-75 221 -125 355q-263 -723 -356 -1049q-58 12 -78 12q-18 0 -84 -12l-51 156q-223 678 -441 1249zM877 1739q49 0 84.5 -35.5t35.5 -85.5q0 -48 -35.5 -84.5t-84.5 -36.5q-51 0 -86 35.5t-35 85.5q0 51 35.5 86t85.5 35zM1296 1739
q50 0 85.5 -35.5t35.5 -85.5q0 -48 -36 -84.5t-85 -36.5t-84.5 35.5t-35.5 85.5q0 51 35 86t85 35z" />
    <glyph glyph-name="wdieresis" unicode="&#x1e85;" horiz-adv-x="1630" 
d="M31 983q77 -12 141 -12q70 0 135 12l58 -197q6 -21 172 -544q35 97 67.5 191t60.5 183t44 141t40 133.5t27 92.5q46 -12 82 -12q46 0 98 12q132 -466 238 -737q114 296 236 737q53 -12 90 -12q34 0 86 12l-185 -457q-143 -356 -196 -536q-47 12 -82 12q-43 0 -105 -12
q-61 203 -100 323.5t-71 213.5t-56 169q-4 -6 -55 -151l-123 -348q-14 -40 -23.5 -72t-20.5 -74t-16 -61q-30 12 -79 12q-52 0 -105 -12l-80 264q-69 230 -278 729zM655 1411q51 0 86 -35.5t35 -85.5q0 -48 -36 -84.5t-85 -36.5t-84.5 35.5t-35.5 85.5q0 51 35 86t85 35z
M1075 1411q51 0 86 -35.5t35 -85.5q0 -48 -36 -84.5t-85 -36.5t-85 35.5t-36 85.5q0 51 35.5 86t85.5 35z" />
    <glyph glyph-name="Ygrave" unicode="&#x1ef2;" horiz-adv-x="1214" 
d="M-27 1405q132 -12 170 -12q90 0 166 12q124 -258 193 -391t166 -301q111 190 172.5 309t181.5 383q58 -12 119 -12q45 0 86 12q-59 -99 -170 -277q-95 -155 -176 -297t-114.5 -205.5t-35.5 -70.5q0 -207 2 -270l12 -285q-16 1 -45 4.5t-52.5 5.5t-43.5 2q-8 0 -137 -12
q12 390 12 555q-200 343 -506 850zM379 1843q52 0 100 -53l291 -313h-104l-324 200q-30 19 -41.5 36t-11.5 46q0 36 28.5 60t61.5 24z" />
    <glyph glyph-name="ygrave" unicode="&#x1ef3;" horiz-adv-x="1024" 
d="M160 971q39 0 141 12q41 -129 122.5 -346t151.5 -377q53 121 115 291q38 107 63 183.5t46.5 147.5t31.5 101q59 -12 91 -12q31 0 92 12q-101 -199 -352 -782q-229 -533 -279 -729q-59 12 -92 12q-35 0 -94 -12q63 101 127 227l135 264q-6 28 -107 264q-96 224 -336 756
q91 -12 144 -12zM342 1516q51 0 100 -54l291 -313h-104l-324 201q-30 19 -41.5 36t-11.5 46q0 36 28.5 60t61.5 24z" />
    <glyph glyph-name="endash" unicode="&#x2013;" horiz-adv-x="1024" 
d="M-6 598h1036v-172h-1036v172z" />
    <glyph glyph-name="emdash" unicode="&#x2014;" horiz-adv-x="2048" 
d="M266 598h1516v-172h-1516v172z" />
    <glyph glyph-name="quoteleft" unicode="&#x2018;" 
d="M119 1040l274 424l45 -20l-131 -488q-23 -86 -55 -115.5t-82 -29.5q-44 0 -74 29t-30 73q0 47 53 127z" />
    <glyph glyph-name="quoteright" unicode="&#x2019;" 
d="M412 1235l-275 -424l-45 20l131 488q23 86 55 115.5t82 29.5q45 0 75 -29t30 -73q0 -47 -53 -127z" />
    <glyph glyph-name="quotesinglbase" unicode="&#x201a;" 
d="M383 59l-274 -424l-46 21l132 487q23 86 55.5 116t81.5 30q44 0 74 -29.5t30 -73.5q0 -47 -53 -127z" />
    <glyph glyph-name="quotedblleft" unicode="&#x201c;" horiz-adv-x="909" 
d="M127 1040l274 424l45 -20l-131 -488q-23 -86 -55 -115.5t-82 -29.5q-44 0 -74 29t-30 73q0 47 53 127zM498 1040l274 424l45 -20l-131 -488q-23 -86 -55 -115.5t-82 -29.5q-45 0 -75 29t-30 73q0 20 8 42.5t17.5 39.5t28.5 45z" />
    <glyph glyph-name="quotedblright" unicode="&#x201d;" horiz-adv-x="909" 
d="M412 1235l-275 -424l-45 20l131 488q23 86 55 115.5t82 29.5q45 0 75 -29t30 -73q0 -47 -53 -127zM782 1235l-274 -424l-45 20l131 488q23 86 55 115.5t82 29.5q45 0 75 -29t30 -73q0 -20 -8 -42.5t-17.5 -39.5t-28.5 -45z" />
    <glyph glyph-name="quotedblbase" unicode="&#x201e;" horiz-adv-x="909" 
d="M383 59l-274 -424l-46 21l132 487q23 86 55.5 116t81.5 30q44 0 74 -29.5t30 -73.5q0 -47 -53 -127zM754 59l-275 -424l-45 21l131 487q23 86 55.5 116t81.5 30q44 0 74.5 -29.5t30.5 -73.5q0 -47 -53 -127z" />
    <glyph glyph-name="dagger" unicode="&#x2020;" horiz-adv-x="1062" 
d="M422 1411q74 -12 110 -12q28 0 113 12q-14 -101 -14 -453q196 0 346 9q-6 -81 -6 -82q0 -3 6 -84q-160 10 -346 10v-610q0 -133 10 -201q-86 12 -113 12q-44 0 -106 -12q8 136 8 219l2 592q-113 0 -227.5 -4t-118.5 -4q1 17 3.5 45t2.5 43q0 7 -6 76q106 -9 346 -9
q0 290 -10 453z" />
    <glyph glyph-name="daggerdbl" unicode="&#x2021;" horiz-adv-x="1062" 
d="M422 1411q74 -12 110 -12q28 0 113 12q-14 -125 -14 -217v-143h153q43 0 193 12q-6 -81 -6 -82q0 -3 6 -84q-27 0 -101.5 4t-93.5 4h-151v-399q111 0 191 2.5t115.5 5t39.5 2.5q-6 -81 -6 -82q0 -3 6 -84q-225 10 -346 10q0 -292 10 -360q-76 12 -104 12q-21 0 -115 -12
q10 188 12 360h-109t-61.5 -0.5t-41.5 -1t-49.5 -2.5t-86.5 -4q1 13 3.5 43.5t2.5 44.5q0 34 -6 76q225 -10 348 -10v399h-151q-27 0 -102 -2.5t-95 -3.5q6 75 6 84q0 32 -6 80q118 -12 348 -12q0 122 -12 360z" />
    <glyph glyph-name="bullet" unicode="&#x2022;" horiz-adv-x="1024" 
d="M512 1075q144 0 250 -104.5t106 -251.5q0 -144 -105 -250.5t-251 -106.5q-145 0 -250.5 105.5t-105.5 251.5t105.5 251t250.5 105z" />
    <glyph glyph-name="ellipsis" unicode="&#x2026;" horiz-adv-x="2048" 
d="M342 287q58 0 101.5 -43.5t43.5 -102.5t-43.5 -102t-101.5 -43q-61 0 -103 42.5t-42 102.5t42.5 103t102.5 43zM1024 287q58 0 101.5 -43.5t43.5 -102.5t-43.5 -102t-101.5 -43q-61 0 -103 42.5t-42 102.5t42.5 103t102.5 43zM1706 287q58 0 101.5 -43.5t43.5 -102.5
t-43.5 -102t-101.5 -43q-61 0 -103 42.5t-42 102.5t42.5 103t102.5 43z" />
    <glyph glyph-name="perthousand" unicode="&#x2030;" horiz-adv-x="2048" 
d="M201 -43l819 1468h98l-819 -1468h-98zM324 1391q142 0 225.5 -90t83.5 -240q0 -162 -91 -251t-225 -89q-132 0 -218.5 87t-86.5 216q0 172 82 269.5t230 97.5zM195 1051q0 -145 31.5 -204t97.5 -59q65 0 96 61.5t31 213.5q0 124 -33 192t-96 68q-30 0 -52 -12t-35.5 -35
t-22 -47t-12 -59.5t-4.5 -59.5t-1 -59zM989 653q142 0 225.5 -89.5t83.5 -239.5q0 -162 -90.5 -251t-224.5 -89q-132 0 -218.5 87t-86.5 216q0 172 81.5 269t229.5 97zM860 313q0 -145 31.5 -203.5t97.5 -58.5q65 0 96 61.5t31 213.5q0 124 -33 192t-96 68q-30 0 -52 -12
t-35.5 -35.5t-22 -47.5t-12 -59.5t-4.5 -59.5t-1 -59zM1726 653q142 0 226 -89.5t84 -239.5q0 -162 -91 -251t-225 -89q-132 0 -218.5 87t-86.5 216q0 172 81.5 269t229.5 97zM1597 313q0 -145 31.5 -203.5t97.5 -58.5q65 0 96 61.5t31 213.5q0 124 -33 192t-96 68
q-30 0 -52 -12t-35.5 -35.5t-22 -47.5t-12 -59.5t-4.5 -59.5t-1 -59z" />
    <glyph glyph-name="guilsinglleft" unicode="&#x2039;" horiz-adv-x="569" 
d="M354 905q43 -37 115 -80q-70 -73 -219 -323q171 -236 219 -297q-70 -48 -109 -82q-144 230 -262 379q166 253 198.5 304.5t57.5 98.5z" />
    <glyph glyph-name="guilsinglright" unicode="&#x203a;" horiz-adv-x="569" 
d="M213 905q82 -137 256 -403q-108 -137 -260 -379q-39 34 -109 82q32 41 65 86t80 111t72 100q-153 255 -217 323q65 39 113 80z" />
    <glyph glyph-name="fraction" unicode="&#x2044;" horiz-adv-x="342" 
d="M-287 -43l819 1468h99l-819 -1468h-99z" />
    <glyph glyph-name="Euro" unicode="&#x20ac;" horiz-adv-x="1062" 
d="M727 1384q177 0 354 -112q-34 -74 -45 -172l-20 -4q-54 91 -135 142.5t-170 51.5q-133 0 -233 -128.5t-120 -332.5l635 9l-37 -93l-606 7q-2 -41 -2 -72q0 -68 6 -111l547 6l-35 -92l-506 9q21 -202 123.5 -313t251.5 -111q85 0 171 44t161 126l18 -13l-32 -145
q-153 -105 -353 -105q-236 0 -391.5 134t-204.5 383l-165 -11l34 90l121 -2q-9 47 -4 131l4 54l-155 -9l34 89l129 -5q21 136 78.5 243t141 174.5t186.5 102.5t219 35z" />
    <glyph glyph-name="afii61289" unicode="&#x2113;" horiz-adv-x="1193" 
d="M645 1540q147 0 235.5 -99t88.5 -261q0 -182 -106 -352t-363 -386v-18q0 -223 176 -223q158 0 276 139l131 -121q-155 -242 -442 -242q-164 0 -256.5 74t-126.5 250l-117 -76l-71 146l182 131v477q0 272 98.5 416.5t294.5 144.5zM500 1085v-405q131 131 196.5 251.5
t65.5 244.5q0 96 -33 144t-90 48q-65 0 -102 -78t-37 -205z" />
    <glyph glyph-name="trademark" unicode="&#x2122;" horiz-adv-x="1947" 
d="M127 1405l154 -6q68 -2 176 -2q158 0 303 8l-4 -23q-2 -8 -2 -18q0 -6 6 -49q-108 6 -230 6q-2 -57 -2 -174v-354q0 -30 3.5 -73.5t3.5 -51.5q-41 8 -91 8q-40 0 -84 -8q1 12 4 53.5t5 83.5t2 74v268q0 117 -2 174h-80q-107 0 -162 -6q6 30 6 47q0 1 -6 43zM893 1405
q20 -4 33 -4q20 0 32 4q105 -213 320 -549q40 61 88.5 141.5t72 122t87 156t71.5 129.5q12 -4 29 -4q7 0 35 4q7 -87 27 -250l28 -217q15 -108 47 -270q-63 8 -90 8q-39 0 -86 -8q-4 82 -16 217l-31 256q-189 -290 -272 -473q-8 2 -25 2q-25 0 -33 -2q-44 82 -106.5 187.5
t-112 186t-53.5 86.5q-40 -282 -47 -460q-47 8 -64 8q-18 0 -55 -8q71 339 121 737z" />
    <glyph glyph-name="Omega" unicode="&#x2126;" horiz-adv-x="1548" 
d="M782 1425q148 0 274.5 -52t213 -141t135.5 -208t49 -252q0 -175 -70.5 -324t-207.5 -258v-6h305v-184h-586v143q148 105 228.5 257t80.5 323q0 219 -124.5 365.5t-301.5 146.5q-127 0 -228 -74t-153.5 -188.5t-52.5 -243.5q0 -168 85.5 -334t223.5 -252v-143h-587v184
h301v6q-129 99 -202 245t-73 310q0 190 91 346t249 245t350 89z" />
    <glyph glyph-name="estimated" unicode="&#x212e;" horiz-adv-x="1490" 
d="M743 1386q192 0 342.5 -90t234 -250t83.5 -362h-1026v-463q148 -151 366 -151q160 0 278.5 73.5t211.5 233.5l88 -53q-116 -184 -248 -264t-330 -80q-192 0 -342.5 92.5t-231.5 251t-81 354.5q0 200 79.5 360.5t230 254t345.5 93.5zM377 1143v-367h739v367
q-162 153 -377 153q-218 0 -362 -153z" />
    <glyph glyph-name="onethird" unicode="&#x2153;" horiz-adv-x="1730" 
d="M463 1407l26 -12q-14 -126 -14 -486q0 -211 10 -348q-7 1 -25 3t-35 3.5t-32 1.5q-21 0 -100 -8q16 112 16 303v385l-190 -102q-28 30 -60 59v19q205 71 404 182zM414 -43l819 1468h98l-819 -1468h-98zM1362 823q125 0 195.5 -47t70.5 -133q0 -87 -48 -132t-130 -69
q-18 -5 -18 -6q0 -4 16 -4q112 -7 167.5 -59t55.5 -140q0 -114 -102.5 -181.5t-249.5 -67.5q-153 0 -244 79q30 43 58 109h26q11 -49 59 -85t113 -36q72 0 115 48t43 126t-41 123t-113 45q-17 0 -41 -4l-37 -6q7 14 7 41q0 21 -7 49q24 -8 52 -8q67 0 107 41t40 115
q0 63 -33.5 99t-93.5 36q-65 0 -99.5 -34.5t-45.5 -103.5h-25q-13 33 -67 87q77 118 270 118z" />
    <glyph glyph-name="twothirds" unicode="&#x2154;" horiz-adv-x="1730" 
d="M414 -43l819 1468h98l-819 -1468h-98zM1362 823q125 0 195.5 -47t70.5 -133q0 -87 -48 -132t-130 -69q-18 -5 -18 -6q0 -4 16 -4q112 -7 167.5 -59t55.5 -140q0 -114 -102.5 -181.5t-249.5 -67.5q-153 0 -244 79q30 43 58 109h26q11 -49 59 -85t113 -36q72 0 115 48
t43 126t-41 123t-113 45q-17 0 -41 -4l-37 -6q7 14 7 41q0 21 -7 49q24 -8 52 -8q67 0 107 41t40 115q0 63 -33.5 99t-93.5 36q-65 0 -99.5 -34.5t-45.5 -103.5h-25q-13 33 -67 87q77 118 270 118zM319 1382q128 0 205.5 -57t77.5 -166q0 -73 -22 -121q-23 -48 -71.5 -104
t-166.5 -160l-100 -88h182q141 0 211 8q-6 -27 -6 -78q0 -23 4 -63q-226 8 -295 8q-136 0 -297 -8v49q22 18 57 49.5t43 38.5q161 147 219 247t58 200q0 84 -33.5 129t-95.5 45q-127 0 -148 -156l-16 -12l-82 78q38 84 104.5 122.5t171.5 38.5z" />
    <glyph glyph-name="oneeighth" unicode="&#x215b;" horiz-adv-x="1730" 
d="M465 1407l27 -12q-15 -135 -15 -486q0 -211 10 -348q-7 1 -25 3t-35 3.5t-32 1.5q-21 0 -100 -8q16 112 16 303v385l-190 -102q-28 30 -60 59v19q205 71 404 182zM426 -43l819 1468h98l-819 -1468h-98zM1399 840q111 0 175 -52.5t64 -144.5q0 -128 -151 -170v-4
q96 -25 139 -76t43 -147q0 -124 -76.5 -192t-191.5 -68q-130 0 -203.5 66t-73.5 186q0 181 187 227v6q-72 13 -113 59.5t-41 112.5q0 93 65.5 145t176.5 52zM1303 643q0 -69 25 -109t71 -40q92 0 92 141q0 149 -94 149q-43 0 -68.5 -37t-25.5 -104zM1284 240
q0 -201 113 -201q114 0 114 201q0 200 -112 200q-55 0 -85 -53t-30 -147z" />
    <glyph glyph-name="threeeighths" unicode="&#x215c;" horiz-adv-x="1730" 
d="M344 1376q125 0 195.5 -47t70.5 -133q0 -87 -48 -132t-130 -69q-18 -5 -18 -6q0 -4 16 -4q112 -7 167.5 -59t55.5 -140q0 -114 -102.5 -181.5t-249.5 -67.5q-153 0 -244 79q30 43 58 109h26q11 -49 59 -85t113 -36q72 0 115 48t43 126t-41 123t-113 45q-17 0 -41 -4
l-36 -6q6 12 6 41q0 25 -6 49q24 -8 51 -8q67 0 107 41t40 115q0 63 -33.5 99t-93.5 36q-65 0 -99.5 -34.5t-45.5 -103.5h-25q-13 32 -67 86q78 119 270 119zM430 -43l819 1468h99l-820 -1468h-98zM1403 840q111 0 175 -52.5t64 -144.5q0 -128 -151 -170v-4q96 -25 139 -76
t43 -147q0 -124 -76.5 -192t-191.5 -68q-130 0 -203.5 66t-73.5 186q0 181 187 227v6q-72 13 -113 59.5t-41 112.5q0 93 65.5 145t176.5 52zM1307 643q0 -69 25 -109t71 -40q92 0 92 141q0 149 -94 149q-43 0 -68.5 -37t-25.5 -104zM1288 240q0 -201 113 -201q115 0 115 201
q0 200 -113 200q-55 0 -85 -53t-30 -147z" />
    <glyph glyph-name="fiveeighths" unicode="&#x215d;" horiz-adv-x="1730" 
d="M158 1368l8 10q82 -6 194 -6q119 0 230 6q-6 -27 -6 -61q0 -17 3 -41.5t3 -28.5q-32 4 -58 4h-296q-5 -50 -5 -112v-119q60 24 129 24q122 0 193.5 -61t71.5 -166q0 -131 -94 -206.5t-234 -75.5q-138 0 -217 79q5 9 17 28.5t20.5 36.5t15.5 38h12q29 -68 67.5 -97.5
t98.5 -29.5q68 0 112 56.5t44 146.5q0 88 -42.5 139t-115.5 51q-57 0 -127 -45l-14 12q4 78 4 213q0 28 -1 62t-1 39q0 16 -2 33t-5.5 38t-4.5 33zM408 -43l819 1468h98l-819 -1468h-98zM1380 840q111 0 175.5 -52.5t64.5 -144.5q0 -128 -152 -170v-4q96 -25 139.5 -76
t43.5 -147q0 -124 -77 -192t-192 -68q-130 0 -203 65.5t-73 186.5q0 181 186 227v6q-72 13 -112.5 59.5t-40.5 112.5q0 93 65 145t176 52zM1284 643q0 -69 25 -109t71 -40q93 0 93 141q0 149 -95 149q-43 0 -68.5 -37t-25.5 -104zM1266 240q0 -201 112 -201q115 0 115 201
q0 200 -113 200q-55 0 -84.5 -52.5t-29.5 -147.5z" />
    <glyph glyph-name="seveneighths" unicode="&#x215e;" horiz-adv-x="1730" 
d="M186 1389q182 -9 363 -9h199v-30q-8 -13 -69 -116.5t-171 -303t-199 -375.5q-33 8 -65 8q-23 0 -31 -2l-33 -6l-2 8q72 99 209 324t211 360h-219q-45 0 -193 -8q7 45 7 70q0 18 -7 80zM307 -43l819 1468h99l-819 -1468h-99zM1280 840q111 0 175.5 -52.5t64.5 -144.5
q0 -128 -152 -170v-4q96 -25 139 -76t43 -147q0 -124 -76.5 -192t-191.5 -68q-130 0 -203 65.5t-73 186.5q0 181 186 227v6q-72 13 -113 59.5t-41 112.5q0 93 65.5 145t176.5 52zM1184 643q0 -69 25 -109t71 -40q92 0 92 141q0 149 -94 149q-43 0 -68.5 -37t-25.5 -104z
M1165 240q0 -201 113 -201q115 0 115 201q0 200 -113 200q-55 0 -85 -53t-30 -147z" />
    <glyph glyph-name="partialdiff" unicode="&#x2202;" horiz-adv-x="1202" 
d="M524 1550q119 0 226 -59.5t184 -162.5t122.5 -250t45.5 -314q0 -188 -45 -339.5t-124 -250t-185.5 -151t-231.5 -52.5q-201 0 -318.5 123.5t-117.5 315.5q0 136 59 249.5t167 180.5t243 67q116 0 209 -47t141 -127h2q2 10 2 53q0 262 -116.5 429t-282.5 167
q-172 0 -297 -82l-64 140q162 110 381 110zM287 412q0 -129 65 -201t183 -72q130 0 224.5 115t119.5 305q-30 82 -108.5 134t-184.5 52q-131 0 -215 -95.5t-84 -237.5z" />
    <glyph glyph-name="Delta" unicode="&#x2206;" horiz-adv-x="1349" 
d="M541 1393h274l455 -1172l35 -141v-80h-1260v125zM674 1225h-8q-242 -639 -412 -1053h827q-59 146 -222 564.5t-185 488.5z" />
    <glyph glyph-name="product" unicode="&#x220f;" horiz-adv-x="1490" 
d="M129 1546h1233v-1812h-213v1636h-805v-1636h-215v1812z" />
    <glyph glyph-name="summation" unicode="&#x2211;" horiz-adv-x="1320" 
d="M53 1546h1209v-176h-928v-6l442 -723l-463 -723v-8h1012v-176h-1300v116l505 783l-477 774v139z" />
    <glyph glyph-name="minus" unicode="&#x2212;" horiz-adv-x="1366" 
d="M152 692h1062v-133h-1062v133z" />
    <glyph glyph-name="uni2215" unicode="&#x2215;" horiz-adv-x="342" 
d="M-287 -43l819 1468h99l-819 -1468h-99z" />
    <glyph glyph-name="uni2219" unicode="&#x2219;" 
d="M266 772q59 0 102.5 -43.5t43.5 -101.5t-43.5 -102t-102.5 -44q-60 0 -102.5 43t-42.5 103t42 102.5t103 42.5z" />
    <glyph glyph-name="radical" unicode="&#x221a;" horiz-adv-x="1134" 
d="M965 1638h172l-439 -1822h-172l-309 831l-149 -55l-39 110l309 125l199 -559q37 -105 63 -223h2q5 34 13 76t23 109t27.5 121t39.5 167.5t45 192.5z" />
    <glyph glyph-name="infinity" unicode="&#x221e;" horiz-adv-x="1560" 
d="M416 860q85 0 166 -45t200 -164q114 116 200 162.5t181 46.5q135 0 221 -89.5t86 -227.5q0 -136 -93 -229t-232 -93q-84 0 -163 44.5t-202 164.5q-120 -120 -203 -164.5t-178 -44.5q-138 0 -223.5 91.5t-85.5 230.5q0 133 94.5 225t231.5 92zM250 543q0 -75 46.5 -123.5
t115.5 -48.5q60 0 122.5 39.5t147.5 130.5l-78 75q-95 95 -186 95q-69 0 -118.5 -49.5t-49.5 -118.5zM881 543l63 -64q108 -108 201 -108q67 0 117.5 51.5t50.5 120.5q0 72 -46.5 120t-115.5 48q-63 0 -125.5 -40.5t-144.5 -127.5z" />
    <glyph glyph-name="integral" unicode="&#x222b;" horiz-adv-x="712" 
d="M586 1567q53 0 106 -17l-26 -147q-38 10 -68 10q-87 0 -120.5 -85t-33.5 -302q0 -131 13.5 -391t13.5 -369q0 -209 -39 -338t-108 -182t-174 -53q-84 0 -130 22l29 150q37 -12 78 -12q85 0 120.5 84.5t35.5 283.5q0 144 -14.5 417.5t-14.5 383.5q0 283 80.5 414
t251.5 131z" />
    <glyph glyph-name="approxequal" unicode="&#x2248;" horiz-adv-x="1366" 
d="M1145 977h102q-11 -137 -83.5 -220t-182.5 -83q-91 0 -293 74q-126 46 -190 64.5t-115 18.5q-64 0 -110 -45t-52 -124h-102q12 139 84 221t182 82q100 0 293 -72q119 -46 187.5 -66t119.5 -20q66 0 107 44t53 126zM1145 649h102q-11 -137 -83.5 -220t-182.5 -83
q-91 0 -293 74q-90 33 -130 46.5t-90 25.5t-85 12q-64 0 -110 -45.5t-52 -124.5h-102q12 139 84 221t182 82q100 0 293 -72q119 -46 187.5 -66t119.5 -20q66 0 107 44t53 126z" />
    <glyph glyph-name="notequal" unicode="&#x2260;" horiz-adv-x="1366" 
d="M963 1092l112 -72l-110 -168h249v-133h-335l-119 -184h454v-134h-542l-176 -272l-111 72l129 200h-362v134h448l121 184h-569v133h655z" />
    <glyph glyph-name="lessequal" unicode="&#x2264;" horiz-adv-x="1366" 
d="M1196 1104v-143l-864 -283l864 -283v-143l-1026 354v144zM152 133h1062v-133h-1062v133z" />
    <glyph glyph-name="greaterequal" unicode="&#x2265;" horiz-adv-x="1366" 
d="M170 1104l1026 -354v-144l-1026 -354v143l864 283l-864 283v143zM152 133h1062v-133h-1062v133z" />
    <glyph glyph-name="lozenge" unicode="&#x25ca;" horiz-adv-x="1173" 
d="M498 1423h178l399 -751l-399 -742h-178l-400 742zM586 1251h-4l-291 -575l295 -572h6l291 564z" />
    <glyph glyph-name="grave.cap" unicode="&#xe000;" 
d="M35 1843q52 0 100 -53l291 -313h-104l-324 200q-30 19 -41.5 36t-11.5 46q0 36 28.5 60t61.5 24z" />
    <glyph glyph-name="acute.cap" unicode="&#xe002;" 
d="M492 1862q41 0 68.5 -23.5t27.5 -60.5q0 -50 -49 -80l-330 -203h-105l287 311q52 56 101 56z" />
    <glyph glyph-name="circumflex.cap" unicode="&#xe004;" 
d="M184 1829h162l254 -352h-102l-232 204l-233 -204h-101z" />
    <glyph glyph-name="caron.cap" unicode="&#xe006;" 
d="M184 1477l-252 352h101l233 -207l232 207h102l-254 -352h-162z" />
    <glyph glyph-name="caron.alt" unicode="&#xe008;" horiz-adv-x="681" 
d="M383 1505q34 0 58 -14.5t24 -42.5q0 -34 -25 -70q-11 -18 -182 -252h-72l80 291q24 88 117 88z" />
    <glyph glyph-name="tilde.cap" unicode="&#xe009;" 
d="M555 1753h74q-25 -110 -83 -169.5t-145 -59.5q-51 0 -115 22t-116 44t-72 22q-37 0 -65 -23.5t-41 -66.5h-74q37 123 92 176t133 53q50 0 160 -44t143 -44q83 0 109 90z" />
    <glyph glyph-name="dieresis.cap" unicode="&#xe00b;" 
d="M55 1739q49 0 85 -35.5t36 -85.5q0 -48 -36 -84.5t-85 -36.5q-51 0 -86 35.5t-35 85.5q0 51 35.5 86t85.5 35zM475 1739q49 0 85 -35.5t36 -85.5q0 -48 -36 -84.5t-85 -36.5t-85 35.5t-36 85.5q0 51 35.5 86t85.5 35z" />
    <glyph glyph-name="macron.cap" unicode="&#xe00d;" 
d="M-27 1690h586v-134h-586v134z" />
    <glyph glyph-name="breve.cap" unicode="&#xe00f;" 
d="M487 1804h82q-15 -136 -53 -190q-42 -64 -103 -100.5t-157 -36.5q-133 0 -208.5 80.5t-84.5 244.5h80q37 -182 211 -182q208 0 233 184z" />
    <glyph glyph-name="ring.cap" unicode="&#xe011;" 
d="M264 1882q84 0 147.5 -63.5t63.5 -147.5t-62.5 -147.5t-148.5 -63.5q-88 0 -149.5 63t-61.5 148t63 148t148 63zM139 1671q0 -50 37 -87.5t88 -37.5q52 0 88.5 37.5t36.5 87.5q0 48 -38.5 86.5t-88.5 38.5q-46 0 -84.5 -37.5t-38.5 -87.5z" />
    <glyph glyph-name="hungarumlaut.cap" unicode="&#xe013;" 
d="M350 1843q39 0 67.5 -23t28.5 -59q0 -52 -38 -75l-302 -209h-98l246 311q13 18 40.5 36.5t55.5 18.5zM659 1843q42 0 69.5 -23t27.5 -59q0 -51 -39 -75l-301 -209h-99l246 311q14 20 41.5 37.5t54.5 17.5z" />
    <glyph glyph-name="dotaccent.cap" unicode="&#xe015;" 
d="M264 1718q51 0 86 -35.5t35 -85.5q0 -49 -35.5 -84.5t-85.5 -35.5q-51 0 -86 35t-35 85q0 51 35.5 86t85.5 35z" />
    <glyph glyph-name="commaaccent" unicode="&#xe017;" horiz-adv-x="681" 
d="M383 -63q33 0 57.5 -15t24.5 -43q0 -33 -25 -69q-11 -18 -182 -252l-63 28l71 262q24 89 117 89z" />
    <glyph glyph-name="commaaccent.alt" unicode="&#xe01a;" horiz-adv-x="681" 
d="M279 1149q-34 0 -58 14.5t-24 42.5q0 36 24 70q11 18 182 252l62 -29l-70 -262q-24 -88 -116 -88z" />
    <glyph glyph-name="uniF8FF" unicode="&#xf8ff;" horiz-adv-x="993" 
d="M0 1393h993v-1393h-993v1393zM96 96h801v1198h-801v-1198zM430 227v129h109v-129h-109zM502 1182q107 0 174 -70.5t67 -183.5q0 -71 -28 -120t-97 -114q-66 -60 -79 -91t-13 -111v-37h-94v28q0 99 20 150.5t68 95.5q45 42 66 63.5t39 56t18 71.5q0 67 -43 115t-104 48
q-67 0 -108.5 -48.5t-49.5 -135.5l-98 16q13 130 81 198.5t181 68.5z" />
    </font>
</defs>
</svg>
