<?xml version="1.0" standalone="no"?>
<!DOCTYPE svg PUBLIC "-//W3C//DTD SVG 1.1//EN" "http://www.w3.org/Graphics/SVG/1.1/DTD/svg11.dtd" >
<svg xmlns="http://www.w3.org/2000/svg" xmlns:xlink="http://www.w3.org/1999/xlink" version="1.1">
<metadata>
Created by FontForge 20170731 at Thu Mar 24 16:04:20 2022
 By Aleksey,,,
Copyright (c) 2014 Monotype Imaging Inc. All rights reserved.
</metadata>
<defs>
<font id="OptimaLTPro-Medium" horiz-adv-x="1024" >
  <font-face 
    font-family="Optima LT Pro Medium"
    font-weight="500"
    font-stretch="normal"
    units-per-em="2048"
    panose-1="2 11 6 2 5 5 8 2 3 4"
    ascent="1501"
    descent="-547"
    x-height="985"
    cap-height="1407"
    bbox="-336 -565 2048 1978"
    underline-thickness="102"
    underline-position="-307"
    unicode-range="U+000D-FB04"
  />
<missing-glyph horiz-adv-x="993" 
d="M0 1393h993v-1393h-993v1393zM96 96h801v1198h-801v-1198zM502 1182q107 0 174 -69.5t67 -184.5q0 -68 -26.5 -118.5t-93.5 -111.5q-69 -63 -83 -93t-14 -113v-37h-94v30q0 94 19 147t77 105q62 55 88.5 95t26.5 88q0 67 -43 115t-104 48q-67 0 -108.5 -48.5
t-49.5 -135.5l-98 16q13 130 81 198.5t181 68.5zM430 227v129h109v-129h-109z" />
    <glyph glyph-name="IJ" unicode="IJ" horiz-adv-x="1216" 
d="M227 1407q54 -12 113 -12q67 0 119 12q-17 -287 -17 -733q0 -324 15 -684q-71 12 -127 12q-48 0 -109 -12q21 315 21 665q0 457 -15 752zM784 1407q58 -12 123 -12q46 0 119 12q-22 -344 -22 -743q0 -13 1 -191t1 -205q0 -92 -1.5 -136.5t-11 -101t-28.5 -98.5
q-52 -109 -152.5 -169t-239.5 -68l-10 65q76 11 119 36t74 98q16 38 24 83.5t14.5 203t6.5 444.5q0 176 -2 318t-4 199t-6 154.5t-5 110.5z" />
    <glyph glyph-name="ij" unicode="ij" horiz-adv-x="1077" 
d="M289 1430q45 0 78.5 -32.5t33.5 -80.5q0 -45 -32.5 -78t-79.5 -33t-79 33t-32 78q0 47 33 80t78 33zM180 981q52 -12 101 -12q57 0 106 12q-12 -225 -12 -539q0 -120 14 -452q-37 12 -100 12q-65 0 -107 -12q15 334 15 522q0 222 -17 469zM799 1430q45 0 78.5 -33
t33.5 -80q0 -45 -32.5 -78t-79.5 -33t-79 33t-32 78q0 47 33 80t78 33zM688 981q52 -12 111 -12q49 0 110 12q-14 -269 -14 -481q0 -502 -2 -588q-3 -191 -91 -312t-251 -141l-6 62q44 9 76 41t48 70t25 94.5t11 96t2 93.5q0 52 1 231.5t1 268.5q0 224 -21 565z" />
    <glyph glyph-name="napostrophe" unicode="&#x22;n" horiz-adv-x="1251" 
d="M729 995q352 0 352 -350q0 -19 -2 -128t-4 -210t-2 -102q0 -48 0.5 -87t1.5 -60.5t2 -36.5t1.5 -22t0.5 -9q-47 12 -104 12q-59 0 -109 -12q19 236 19 532q0 183 -55.5 265.5t-182.5 82.5q-87 0 -152.5 -41.5t-95.5 -109.5q-32 -75 -32 -389q0 -132 16 -340
q-59 12 -109 12q-56 0 -108 -12q20 263 20 555q0 157 -10 444q65 -12 103 -12q34 0 100 12l-10 -194q53 95 146 147.5t214 52.5zM164 1489q28 0 47.5 -14t19.5 -39q0 -36 -20 -66l-174 -242q-20 17 -45 17l67 254q13 48 38.5 69t66.5 21z" />
    <glyph glyph-name="f_f" unicode="ff" horiz-adv-x="1331" 
d="M629 1505q26 0 53 -6l-12 -170l-15 -8q-7 2 -25.5 8t-29 8.5t-28 5.5t-33.5 3q-154 0 -154 -185q0 -98 27 -209q71 0 219 4q-4 -20 -4 -49q0 -9 4 -41q-156 4 -215 4l2 -333q0 -372 14 -547q-70 12 -108 12q-33 0 -111 -12q20 201 20 542q0 141 -2 213l-4 125l-172 -4
q4 24 4 43q0 27 -4 47q106 -4 174 -4q2 146 59 274.5t148.5 203.5t192.5 75zM1278 1505q26 0 53 -6l-12 -170l-14 -8q-7 2 -25.5 8t-29 8.5t-28.5 5.5t-34 3q-154 0 -154 -185q0 -98 27 -209q71 0 219 4q-4 -20 -4 -49q0 -9 4 -41q-156 4 -215 4l2 -333q0 -372 14 -547
q-70 12 -108 12q-33 0 -111 -12q21 211 21 542q0 141 -2 213l-4 125l-172 -4q4 24 4 43q0 27 -4 47q106 -4 174 -4q2 146 58.5 274.5t148 203.5t192.5 75z" />
    <glyph glyph-name="fi" unicode="fi" horiz-adv-x="1251" 
d="M629 1505q26 0 53 -6l-12 -170l-15 -8q-7 2 -25.5 8t-29 8.5t-28 5.5t-33.5 3q-154 0 -154 -185q0 -98 27 -209q71 0 219 4q-4 -20 -4 -49q0 -9 4 -41q-156 4 -215 4l2 -333q0 -372 14 -547q-70 12 -108 12q-33 0 -111 -12q20 201 20 542q0 141 -2 213l-4 125l-172 -4
q4 24 4 43q0 27 -4 47q106 -4 174 -4q2 146 59 274.5t148.5 203.5t192.5 75zM971 1430q45 0 78.5 -32.5t33.5 -80.5q0 -45 -32.5 -78t-79.5 -33t-79 33t-32 78q0 47 33 80t78 33zM862 981q53 -12 101 -12q57 0 106 12q-12 -225 -12 -539q0 -120 14 -452q-37 12 -100 12
q-65 0 -107 -12q15 334 15 522q0 222 -17 469z" />
    <glyph glyph-name="fl" unicode="fl" horiz-adv-x="1251" 
d="M629 1505q26 0 53 -6l-12 -170l-15 -8q-7 2 -25.5 8t-29 8.5t-28 5.5t-33.5 3q-154 0 -154 -185q0 -98 27 -209q71 0 219 4q-4 -20 -4 -49q0 -9 4 -41q-156 4 -215 4l2 -333q0 -372 14 -547q-70 12 -108 12q-33 0 -111 -12q20 201 20 542q0 141 -2 213l-4 125l-172 -4
q4 24 4 43q0 27 -4 47q106 -4 174 -4q2 146 59 274.5t148.5 203.5t192.5 75zM858 1501q59 -12 107 -12q49 0 108 12q-14 -378 -14 -766q0 -360 16 -745q-60 14 -110 14q-45 0 -105 -14q12 154 12 901q0 366 -14 610z" />
    <glyph glyph-name="f_f_i" unicode="ffi" horiz-adv-x="1898" 
d="M629 1505q26 0 53 -6l-12 -170l-15 -8q-7 2 -25.5 8t-29 8.5t-28 5.5t-33.5 3q-154 0 -154 -185q0 -98 27 -209q71 0 219 4q-4 -20 -4 -49q0 -9 4 -41q-156 4 -215 4l2 -333q0 -372 14 -547q-70 12 -108 12q-33 0 -111 -12q20 201 20 542q0 141 -2 213l-4 125l-172 -4
q4 24 4 43q0 27 -4 47q106 -4 174 -4q2 146 59 274.5t148.5 203.5t192.5 75zM1618 1430q45 0 79 -32.5t34 -80.5q0 -45 -33 -78t-80 -33t-79 33t-32 78q0 47 33 80t78 33zM1509 981q52 -12 101 -12q56 0 106 12q-12 -225 -12 -539q0 -120 14 -452q-38 12 -100 12
q-65 0 -107 -12q15 334 15 522q0 222 -17 469zM1278 1505q26 0 53 -6l-12 -170l-14 -8q-7 2 -25.5 8t-29 8.5t-28.5 5.5t-34 3q-154 0 -154 -185q0 -98 27 -209q71 0 219 4q-4 -20 -4 -49q0 -9 4 -41q-156 4 -215 4l2 -333q0 -372 14 -547q-70 12 -108 12q-33 0 -111 -12
q21 211 21 542q0 141 -2 213l-4 125l-172 -4q4 24 4 43q0 27 -4 47q106 -4 174 -4q2 146 58.5 274.5t148 203.5t192.5 75z" />
    <glyph glyph-name="f_f_l" unicode="ffl" horiz-adv-x="1896" 
d="M629 1505q26 0 53 -6l-12 -170l-15 -8q-7 2 -25.5 8t-29 8.5t-28 5.5t-33.5 3q-154 0 -154 -185q0 -98 27 -209q71 0 219 4q-4 -20 -4 -49q0 -9 4 -41q-156 4 -215 4l2 -333q0 -372 14 -547q-70 12 -108 12q-33 0 -111 -12q20 201 20 542q0 141 -2 213l-4 125l-172 -4
q4 24 4 43q0 27 -4 47q106 -4 174 -4q2 146 59 274.5t148.5 203.5t192.5 75zM1503 1501q59 -12 107 -12q50 0 108 12q-14 -378 -14 -766q0 -360 16 -745q-60 14 -110 14q-45 0 -105 -14q13 167 13 901q0 349 -15 610zM1278 1505q26 0 53 -6l-12 -170l-14 -8q-7 2 -25.5 8
t-29 8.5t-28.5 5.5t-34 3q-154 0 -154 -185q0 -98 27 -209q71 0 219 4q-4 -20 -4 -49q0 -9 4 -41q-156 4 -215 4l2 -333q0 -372 14 -547q-70 12 -108 12q-33 0 -111 -12q21 211 21 542q0 141 -2 213l-4 125l-172 -4q4 24 4 43q0 27 -4 47q106 -4 174 -4q2 146 58.5 274.5
t148 203.5t192.5 75z" />
    <glyph glyph-name=".notdef" horiz-adv-x="993" 
d="M0 1393h993v-1393h-993v1393zM96 96h801v1198h-801v-1198zM502 1182q107 0 174 -69.5t67 -184.5q0 -68 -26.5 -118.5t-93.5 -111.5q-69 -63 -83 -93t-14 -113v-37h-94v30q0 94 19 147t77 105q62 55 88.5 95t26.5 88q0 67 -43 115t-104 48q-67 0 -108.5 -48.5
t-49.5 -135.5l-98 16q13 130 81 198.5t181 68.5zM430 227v129h109v-129h-109z" />
    <glyph glyph-name=".null" horiz-adv-x="0" 
 />
    <glyph glyph-name="nonmarkingreturn" horiz-adv-x="682" 
 />
    <glyph glyph-name="NULL" horiz-adv-x="0" 
 />
    <glyph glyph-name="NULL" horiz-adv-x="0" 
 />
    <glyph glyph-name="CR" unicode="&#xd;" horiz-adv-x="512" 
 />
    <glyph glyph-name="space" unicode=" " horiz-adv-x="512" 
 />
    <glyph glyph-name="exclam" unicode="!" horiz-adv-x="909" 
d="M446 1409q56 0 85.5 -39.5t29.5 -112.5q0 -17 -6 -71l-82 -832q-28 3 -55 0l-80 832q-6 54 -6 71q0 73 29 112.5t85 39.5zM449 236q53 0 91 -39t38 -91q0 -55 -37.5 -93t-91.5 -38q-55 0 -93.5 37t-38.5 92t39 93.5t93 38.5z" />
    <glyph glyph-name="quotedbl" unicode="&#x22;" 
d="M262 1423h172l-53 -585h-66zM590 1423h172l-53 -585h-66z" />
    <glyph glyph-name="numbersign" unicode="#" 
d="M362 1350h144l-80 -437h260l82 437h143l-82 -437h215v-125h-237l-53 -286h215v-125h-238l-69 -377h-144l70 377h-262l-70 -377h-143l69 377h-215v125h240l49 286h-213v125h240zM401 788l-53 -286h262l54 286h-263z" />
    <glyph glyph-name="dollar" unicode="$" 
d="M446 1561q5 0 27 -2.5t33 -2.5q6 0 51 5q0 -1 -5 -68t-5 -96q189 -8 338 -92q-46 -96 -58 -181l-28 -2q-47 166 -252 189v-502q219 -84 289 -147q54 -49 78 -108.5t24 -139.5t-32 -162.5t-89 -142.5q-107 -111 -270 -134q0 -105 10 -190q-32 4 -57 4q-34 0 -54 -4
q13 109 13 182h-68q-176 0 -325 111q28 81 36 186h25q108 -201 332 -207v566q-193 76 -258 129q-52 43 -78.5 111.5t-26.5 146.5q0 154 98.5 256t264.5 125q0 92 -13 170zM260 1081q0 -83 48 -141t151 -96v463q-95 -19 -147 -77.5t-52 -148.5zM547 588v-522q215 55 215 258
q0 82 -44.5 147.5t-170.5 116.5z" />
    <glyph glyph-name="percent" unicode="%" horiz-adv-x="1820" 
d="M461 -72l801 1551q42 -6 49 -6q23 0 47 6l-795 -1551q-27 6 -51 6q-27 0 -51 -6zM428 1436q148 0 243 -97t95 -243q0 -147 -95.5 -243.5t-242.5 -96.5q-146 0 -242 97.5t-96 242.5q0 146 96 243t242 97zM248 1096q0 -136 46.5 -213.5t133.5 -77.5q88 0 134 76.5t46 214.5
q0 134 -45.5 212t-136.5 78q-82 0 -130 -78.5t-48 -211.5zM1393 643q148 0 243 -97t95 -243t-95 -243t-243 -97q-147 0 -242.5 97t-95.5 243q0 147 97 243.5t241 96.5zM1212 303q0 -135 48 -213t133 -78q89 0 134.5 76.5t45.5 214.5q0 135 -46 213t-134 78q-85 0 -133 -80
t-48 -211z" />
    <glyph glyph-name="ampersand" unicode="&#x26;" horiz-adv-x="1478" 
d="M670 1380q132 0 205 -63t73 -174q0 -53 -14 -95t-50 -84.5t-80.5 -79t-123.5 -93.5q300 -371 367 -433q66 65 124.5 187.5t67.5 222.5l16 4q55 -77 101 -98q-47 -96 -119.5 -203.5t-130.5 -171.5q148 -174 270 -281v-28q-40 12 -131 12q-69 0 -123 -12q-29 37 -55 67.5
t-38 43.5t-32.5 34.5t-23.5 24.5q-188 -197 -441 -197q-187 0 -296 100t-109 263q0 137 79.5 229t270.5 190q-131 168 -131 310q0 137 85 231t239 94zM500 1128q0 -61 27.5 -118t111.5 -166q87 53 137.5 134.5t50.5 164.5q0 71 -43 119.5t-114 48.5q-75 0 -122.5 -50
t-47.5 -133zM313 397q0 -136 95.5 -226.5t222.5 -90.5q75 0 142 30.5t153 106.5q-42 40 -194.5 215t-217.5 264q-201 -115 -201 -299z" />
    <glyph glyph-name="quotesingle" unicode="'" horiz-adv-x="512" 
d="M170 1423h172l-53 -585h-66z" />
    <glyph glyph-name="parenleft" unicode="(" horiz-adv-x="681" 
d="M539 1430q14 -16 49 -48q-124 -141 -192 -353t-68 -460q0 -245 67.5 -458.5t182.5 -346.5q-6 -5 -13.5 -11t-11.5 -9.5t-9.5 -10t-11.5 -14.5q-171 163 -264.5 382.5t-93.5 478.5q0 155 29 269.5t86 233.5q111 231 250 347z" />
    <glyph glyph-name="parenright" unicode=")" horiz-adv-x="681" 
d="M143 1430q139 -116 250 -347q57 -119 86 -233.5t29 -269.5q0 -259 -93.5 -478.5t-264.5 -382.5q-7 10 -13 16.5t-16.5 15t-16.5 13.5q115 133 182.5 346.5t67.5 458.5q0 248 -68 460t-192 353q35 32 49 48z" />
    <glyph glyph-name="asterisk" unicode="*" 
d="M444 1430q47 -9 72 -9q22 0 59 9q-28 -197 -28 -297q88 54 239 176q24 -51 35.5 -70t34.5 -43q-226 -92 -281 -125q93 -54 277 -123q-26 -34 -37 -54t-24 -60q-48 33 -139.5 101.5t-106.5 78.5q1 -9 5.5 -65t11 -122t13.5 -116q-46 8 -61 8q-16 0 -70 -8q33 233 33 301
q-38 -22 -77.5 -50t-92 -69t-74.5 -57q-15 41 -26.5 61.5t-38.5 50.5q218 91 274 123q-56 32 -274 121q30 34 41.5 54.5t23.5 60.5q186 -145 244 -177q-3 98 -33 300z" />
    <glyph glyph-name="plus" unicode="+" horiz-adv-x="1214" 
d="M539 1006h135v-441h446v-123h-446v-442h-135v442h-447v123h447v441z" />
    <glyph glyph-name="comma" unicode="," horiz-adv-x="512" 
d="M283 252q40 0 62 -25t22 -63q0 -45 -31 -98l-266 -443q-28 14 -45 17l129 450l6 18q5 19 11.5 38.5t10.5 29.5q19 40 42.5 58t58.5 18z" />
    <glyph glyph-name="hyphen" unicode="-" horiz-adv-x="681" 
d="M350 582q57 0 112.5 2.5t89.5 5t38 2.5q-8 -47 -8 -88q0 -34 8 -88q-188 10 -289 10t-209 -10q8 55 8 90q0 34 -8 86q195 -10 258 -10z" />
    <glyph glyph-name="period" unicode="." horiz-adv-x="512" 
d="M258 236q53 0 91 -39t38 -91q0 -55 -37.5 -93t-91.5 -38t-92.5 37.5t-38.5 91.5q0 56 38 94t93 38z" />
    <glyph glyph-name="slash" unicode="/" horiz-adv-x="569" 
d="M-14 -39l473 1417q30 -6 63 -6q39 0 64 6l-475 -1417q-30 6 -68 6q-33 0 -57 -6z" />
    <glyph glyph-name="zero" unicode="0" 
d="M512 1386q221 0 335 -173.5t114 -514.5q0 -356 -116 -545.5t-333 -189.5q-222 0 -335.5 166.5t-113.5 527.5q0 729 449 729zM268 649q0 -63 1 -109t6 -114t14.5 -116.5t27.5 -102.5t42.5 -87.5t62.5 -56t86 -22.5q128 0 188 163t60 511q0 325 -57 459.5t-187 134.5
q-71 0 -119 -41t-75.5 -128t-38.5 -204t-11 -287z" />
    <glyph glyph-name="one" unicode="1" 
d="M692 1411l23 -14q-23 -182 -23 -697q0 -79 -2 -258t-2 -258q0 -100 4 -194q-79 12 -117 12q-52 0 -108 -12q11 57 19 213t8 272q0 37 1 206t1 312v205q-78 -40 -202 -112.5t-161 -100.5q-4 5 -11.5 15t-10.5 14.5t-9 12t-10.5 11.5t-11.5 10t-15 11t-18 10v14
q151 51 350 151.5t295 176.5z" />
    <glyph glyph-name="two" unicode="2" 
d="M477 1389q188 0 301 -101t113 -266q0 -116 -58 -233.5t-159 -221.5l-400 -407h412q126 0 266 14q-10 -45 -10 -96q0 -58 10 -88q-146 10 -266 10q-200 0 -653 -10v57q150 127 318.5 313t217.5 265q109 170 109 356q0 151 -63 235t-183 84q-103 0 -173.5 -73t-70.5 -199
v-16l-32 -6q-12 33 -30.5 61t-64.5 74q57 119 164 183.5t252 64.5z" />
    <glyph glyph-name="three" unicode="3" 
d="M430 1386q114 0 203.5 -33.5t145 -106t55.5 -175.5q0 -179 -166 -283q-62 -38 -123 -51q-15 -3 -15 -10q0 -6 13 -6q41 0 85.5 -8.5t94.5 -32t88.5 -58.5t64 -93.5t25.5 -131.5q0 -187 -146.5 -307.5t-387.5 -120.5q-178 0 -324 84q16 46 21.5 74.5t5.5 79.5l30 2
q41 -73 112 -115.5t165 -42.5q149 0 230 91t81 243q0 138 -82 215.5t-225 77.5q-43 0 -96 -16q4 24 4 43q0 40 -4 71q49 -14 100 -14q115 0 182.5 78.5t67.5 203.5q0 120 -64 190.5t-170 70.5q-88 0 -156.5 -54.5t-72.5 -142.5l-31 2q-11 50 -22 76t-37 63q143 137 348 137z
" />
    <glyph glyph-name="four" unicode="4" 
d="M643 1368q68 -10 88 -10q11 0 78 10q-11 -175 -14 -387l-4 -475q46 0 190 8q-10 -42 -10 -80q0 -36 10 -74q-102 11 -190 11l6 -381q-68 14 -103 14q-33 0 -102 -14q16 234 16 381h-346q-118 0 -266 -9q2 12 2 25q0 9 -4 37q52 67 358 512q291 425 291 432zM610 506v649
q-350 -486 -444 -649h444z" />
    <glyph glyph-name="five" unicode="5" 
d="M152 1362q123 -12 331 -12q226 0 373 12q-10 -80 -10 -96q0 -34 10 -86q-229 18 -586 18q-14 -218 -14 -434q94 47 211 47q202 0 316 -100t114 -279q0 -211 -152.5 -341t-390.5 -130q-189 0 -321 92q20 61 28 156l23 2q38 -74 117.5 -120t167.5 -46q142 0 230.5 96.5
t88.5 259.5q0 154 -86.5 235t-212.5 81q-114 0 -207 -78l-26 16q10 245 10 381q0 171 -14 326z" />
    <glyph glyph-name="six" unicode="6" 
d="M666 1384q46 0 104 -10q2 -35 16 -78l-8 -8q-60 17 -98 17q-175 0 -286 -171.5t-120 -469.5q44 74 126.5 116.5t181.5 42.5q178 0 281.5 -108t103.5 -291q0 -201 -123 -330t-316 -129q-72 0 -135.5 18.5t-123.5 63t-103.5 113t-69.5 176t-26 244.5q0 181 47.5 334
t129 255t190 158.5t229.5 56.5zM279 385q0 -160 65 -250t176 -90q116 0 179 93t63 259q0 160 -59 245t-173 85q-117 0 -184 -89.5t-67 -252.5z" />
    <glyph glyph-name="seven" unicode="7" 
d="M94 1368q206 -22 486 -22q210 0 438 10l2 -23q-222 -374 -314.5 -532.5t-209 -377.5t-213.5 -433q-41 12 -86 12q-44 0 -91 -12l-6 16q152 228 323 508.5t272 456.5t118 213h-266q-319 0 -453 -19q10 55 10 103q0 55 -10 100z" />
    <glyph glyph-name="eight" unicode="8" 
d="M514 1384q174 0 277.5 -81.5t103.5 -221.5q0 -52 -15.5 -101t-47.5 -93t-88 -75.5t-130 -41.5q115 -3 195.5 -54t117 -131.5t36.5 -181.5q0 -204 -122 -321t-337 -117q-205 0 -325 110t-120 300q0 159 82 260t246 133q-256 61 -256 291q0 142 101.5 233.5t281.5 91.5z
M330 1053q0 -120 46.5 -187t133.5 -67q86 0 138 70.5t52 197.5q0 116 -47 178t-137 62q-89 0 -137.5 -63.5t-48.5 -190.5zM268 383q0 -162 62 -251t178 -89t182 93t66 255q0 163 -60.5 247.5t-181.5 84.5q-118 0 -182 -87t-64 -253z" />
    <glyph glyph-name="nine" unicode="9" 
d="M494 1389q222 0 338 -151t116 -435q0 -408 -213 -666q-139 -166 -389 -166q-83 0 -147 25q-15 53 -41 113l20 12q77 -74 180 -74q160 0 267 172.5t110 458.5q-51 -72 -130.5 -109t-172.5 -37q-170 0 -272.5 113t-102.5 293q0 198 120 324.5t317 126.5zM260 952
q0 -154 62 -239.5t174 -85.5q239 0 239 350q0 154 -62.5 242t-168.5 88q-107 0 -175.5 -94.5t-68.5 -260.5z" />
    <glyph glyph-name="colon" unicode=":" horiz-adv-x="512" 
d="M250 948q53 0 91 -38.5t38 -90.5q0 -54 -37.5 -92.5t-91.5 -38.5q-55 0 -93 38.5t-38 90.5q0 55 38.5 93t92.5 38zM250 236q53 0 91 -39t38 -91q0 -55 -37.5 -93t-91.5 -38t-92.5 37.5t-38.5 91.5q0 56 38 94t93 38z" />
    <glyph glyph-name="semicolon" unicode=";" horiz-adv-x="512" 
d="M264 948q53 0 91 -38.5t38 -90.5q0 -54 -37.5 -92.5t-91.5 -38.5t-92.5 38.5t-38.5 92.5t38.5 91.5t92.5 37.5zM283 252q40 0 62 -25t22 -63q0 -45 -31 -98l-266 -443q-28 14 -45 17l129 450l6 18q5 19 11.5 38.5t10.5 29.5q19 40 42.5 58t58.5 18z" />
    <glyph glyph-name="less" unicode="&#x3c;" horiz-adv-x="1214" 
d="M1120 977v-137l-866 -340l866 -336v-137l-1026 407v133z" />
    <glyph glyph-name="equal" unicode="=" horiz-adv-x="1214" 
d="M92 758h1028v-123h-1028v123zM92 369h1028v-123h-1028v123z" />
    <glyph glyph-name="greater" unicode="&#x3e;" horiz-adv-x="1214" 
d="M94 840v137l1026 -410v-133l-1026 -407v137l864 336z" />
    <glyph glyph-name="question" unicode="?" horiz-adv-x="909" 
d="M410 1403q147 0 237 -78t90 -205q0 -82 -35 -152.5t-122 -152.5q-104 -98 -150.5 -157.5t-46.5 -112.5q0 -55 26.5 -86t73.5 -31q29 0 68 21l12 -9q-16 -40 -18 -67q-27 -11 -76 -11q-113 0 -176.5 67t-63.5 163q0 68 41.5 140.5t135.5 164.5q96 93 125.5 146t29.5 110
q0 74 -46.5 120t-123.5 46q-126 0 -184 -107l-19 5q-10 67 -22 108q85 78 244 78zM426 236q55 0 93 -39t38 -91q0 -56 -37.5 -93.5t-93.5 -37.5q-54 0 -91.5 37.5t-37.5 91.5t37.5 93t91.5 39z" />
    <glyph glyph-name="at" unicode="@" horiz-adv-x="1638" 
d="M901 1425q261 0 440 -137q103 -79 160.5 -193.5t57.5 -248.5q0 -141 -59 -270.5t-153 -207t-194 -77.5q-80 0 -130 43.5t-54 124.5v2q-37 -81 -98.5 -125.5t-139.5 -44.5q-114 0 -185 83.5t-71 211.5q0 109 60 218t154.5 178t189.5 69q72 0 125 -35.5t65 -100.5l35 113
h141q-8 -27 -38.5 -127t-44 -145t-33.5 -117t-28.5 -114t-8.5 -64q0 -47 27 -74t71 -27q65 0 135 69t117 179t47 219q0 246 -176 396q-152 133 -402 133q-142 0 -274 -57t-228.5 -152t-154 -225.5t-57.5 -272.5q0 -176 83 -317t234 -222t342 -81q267 0 514 170l31 -54
q-260 -186 -561 -186q-143 0 -276 44t-234 126q-250 200 -250 533q0 149 61.5 284t171.5 244q112 110 263 172.5t325 62.5zM623 526q0 -76 36.5 -121t96.5 -45q62 0 118 56q47 47 100.5 207t53.5 235q0 56 -32.5 89.5t-86.5 33.5q-67 0 -135 -76.5t-109.5 -183t-41.5 -195.5
z" />
    <glyph glyph-name="A" unicode="A" horiz-adv-x="1366" 
d="M631 1423q3 0 18.5 -3t32.5 -3q31 0 45 6q153 -420 614 -1433q-65 12 -120 12q-49 0 -131 -12q-39 134 -81 241t-126 295h-518q-124 -280 -191 -536q-62 12 -84 12q-28 0 -90 -12q473 1031 631 1433zM621 1137l-215 -508h436z" />
    <glyph glyph-name="B" unicode="B" horiz-adv-x="1251" 
d="M184 1411q64 -6 101 -6h227q168 0 271.5 -14t166.5 -60q49 -36 87 -98t38 -141q0 -154 -137 -250q-59 -41 -131 -60q-10 -3 -23 -6t-20.5 -5t-14.5 -4t-10.5 -5t-3.5 -6q0 -7 49 -12h3.5t3.5 -0.5t4 -0.5q153 -17 247.5 -111t94.5 -233q0 -160 -121 -278
q-130 -127 -400 -127q-42 0 -124.5 2t-124.5 2q-74 0 -183 -8q19 253 19 606q0 468 -19 815zM401 1311q-6 -170 -6 -262q0 -48 1 -111t2 -107t1 -45q78 -4 113 -4q172 0 261 77t89 204q0 121 -86 189.5t-235 68.5q-75 0 -140 -10zM399 694q0 -24 -2 -136t-2 -171
q0 -170 6 -299q41 -4 140 -4q177 0 252 53q120 83 120 256q0 307 -389 307q-14 0 -125 -6z" />
    <glyph glyph-name="C" unicode="C" horiz-adv-x="1478" 
d="M897 1421q268 0 506 -108q-24 -64 -32 -97t-17 -108h-21q-49 98 -175.5 161.5t-268.5 63.5q-247 0 -393 -171.5t-146 -461.5q0 -151 44.5 -274t121.5 -201t176 -120t211 -42q141 0 263 55.5t204 155.5l25 -10q-18 -81 -23 -166q-228 -133 -508 -133q-229 0 -400.5 94.5
t-261 260t-89.5 378.5q0 155 50 286t145.5 229t246.5 153t342 55z" />
    <glyph glyph-name="D" unicode="D" horiz-adv-x="1593" 
d="M170 1411q98 -5 304.5 -6t266.5 -2q146 -3 267 -29q100 -23 184.5 -74t151 -128t104 -187.5t37.5 -243.5q0 -182 -59.5 -326.5t-165 -236.5t-246 -140t-307.5 -48q-2 0 -76.5 2t-155 4t-96.5 2q-69 0 -217 -8q24 343 24 680q0 512 -16 741zM389 1303q-10 -212 -10 -541
q0 -513 6 -666q86 -12 193 -12q196 0 308 31.5t199 113.5q81 77 126.5 201.5t45.5 282.5q0 330 -202 485q-50 39 -107 63.5t-123 34.5t-113.5 12.5t-119.5 2.5q-142 0 -203 -8z" />
    <glyph glyph-name="E" unicode="E" 
d="M172 1405q139 -12 422 -12q192 0 317 12q-8 -54 -8 -72q0 -29 8 -65q-84 16 -155.5 21t-190.5 5q-84 0 -178 -4q-4 -39 -4 -235q0 -210 2 -267q27 0 84 -1t84 -1q158 0 315 17q-8 -46 -8 -70q0 -13 3.5 -33t4.5 -30q-161 20 -319 20q-30 0 -68.5 -1t-65.5 -2t-30 -1
q0 -3 -1 -38.5t-2 -97.5t-1 -130q0 -137 6 -320q305 0 539 25q-8 -50 -8 -70q0 -29 8 -65q-91 12 -224 12q-237 0 -536 -12q22 274 22 725q0 433 -16 690z" />
    <glyph glyph-name="F" unicode="F" 
d="M172 1405q101 -12 297 -12h133q219 0 322 12q-9 -56 -9 -72q0 -29 9 -69q-137 17 -219.5 22.5t-215.5 5.5q-61 0 -102 -2q-4 -24 -4 -219q0 -230 2 -285h82q251 0 414 17q-9 -56 -9 -72q0 -18 4.5 -39t4.5 -26q-129 22 -336 22q-43 0 -101 -2t-59 -2l-2 -354
q0 -143 16 -340q-71 12 -120 12t-113 -12q22 344 22 692q0 355 -16 723z" />
    <glyph glyph-name="G" unicode="G" horiz-adv-x="1593" 
d="M885 1423q142 0 290 -31t263 -89q-50 -112 -70 -209h-22q-144 241 -455 241q-118 0 -220 -41t-179 -118.5t-121.5 -199t-44.5 -271.5q0 -153 48 -278.5t129.5 -205.5t184.5 -123t217 -43q199 0 318 78l2 244q0 130 -13 252q70 -13 119 -13q50 0 111 13q-21 -220 -21 -404
q0 -78 6 -147q-194 -67 -312.5 -91t-256.5 -24q-170 0 -313.5 55t-242.5 151t-154.5 231t-55.5 292q0 155 49.5 286.5t145.5 231.5t249.5 156.5t348.5 56.5z" />
    <glyph glyph-name="H" unicode="H" horiz-adv-x="1593" 
d="M190 1407q54 -12 115 -12q53 0 115 12q-14 -287 -14 -479v-117q185 -8 411 -8q270 0 375 6l2 211q0 129 -12 387q52 -12 114 -12t115 12q-22 -423 -22 -977q0 -191 12 -440q-68 12 -107 12q-48 0 -116 -12q3 46 8.5 202t5.5 177v315q-216 6 -231 6h-240q-167 0 -315 -4
v-278q0 -281 4 -418q-62 12 -111 12q-47 0 -117 -12q27 473 27 704q0 165 -19 713z" />
    <glyph glyph-name="I" unicode="I" horiz-adv-x="681" 
d="M227 1407q54 -12 113 -12q67 0 119 12q-17 -287 -17 -733q0 -324 15 -684q-71 12 -127 12q-48 0 -109 -12q21 315 21 665q0 457 -15 752z" />
    <glyph glyph-name="J" unicode="J" horiz-adv-x="681" 
d="M250 1407q58 -12 123 -12q45 0 119 12q-23 -360 -23 -743q0 -13 1 -191t1 -205q0 -92 -1.5 -136.5t-11 -101t-28.5 -98.5q-105 -221 -391 -237l-10 65q76 11 118.5 36t73.5 98q16 38 24 83.5t14.5 203t6.5 444.5q0 143 -1 255.5t-3 196.5t-3.5 129.5t-4.5 113t-4 87.5z
" />
    <glyph glyph-name="K" unicode="K" horiz-adv-x="1251" 
d="M176 1407q65 -12 123 -12q61 0 107 12q-17 -204 -17 -393q0 -59 0.5 -121t1 -101.5t0.5 -43.5q155 124 252 221q118 118 245 254.5t154 183.5q61 -12 107 -12q31 0 92 12l4 -12q-13 -10 -34 -28t-56.5 -51t-69 -64.5t-93.5 -88t-109 -102.5q-85 -80 -160.5 -153
t-105.5 -102.5t-31 -29.5q136 -158 383 -435.5t276 -303.5v-47q-52 12 -129 12q-91 0 -145 -12q-46 81 -151.5 211.5t-191 226.5t-233.5 258l-6 -8v-260q0 -225 17 -428q-50 12 -115 12q-53 0 -121 -12q17 271 21 380.5t4 323.5q0 276 -3 380.5t-16 332.5z" />
    <glyph glyph-name="L" unicode="L" 
d="M190 1407q64 -12 111 -12q51 0 129 12q-18 -519 -18 -942v-359q43 -4 174 -4q244 0 387 25q-8 -44 -8 -68q0 -36 8 -69q-1 0 -29.5 1t-75 3t-101.5 4t-119.5 3t-117.5 1q-180 0 -342 -12q19 323 19 733q0 331 -17 684z" />
    <glyph glyph-name="M" unicode="M" horiz-adv-x="1935" 
d="M311 1413q9 0 27 -1t22 -1q19 0 27 4q90 -191 293 -569q220 -410 299 -535l383 713q153 288 199 391q23 -4 36 -4q15 0 39 4q138 -1268 181 -1425q-96 12 -117 12q-54 0 -125 -12q0 165 -90 1048q-166 -295 -334.5 -625t-196.5 -423q-16 4 -28 4q-11 0 -27 -4
q-55 128 -78 172l-174 334q-145 278 -287 526q-36 -232 -60 -546t-24 -486q-52 12 -77 12q-45 0 -99 -12q37 192 112.5 692t98.5 731z" />
    <glyph glyph-name="N" unicode="N" horiz-adv-x="1593" 
d="M193 1415q10 -4 32 -4q29 0 43 4q169 -196 238 -268l368 -389q190 -199 406 -418v356q0 434 -27 719q47 -12 80 -12q42 0 88 12q-35 -295 -35 -840q0 -326 3 -428l6 -170q-6 1 -18.5 3t-20.5 2q-4 0 -9 -1t-12 -2t-12 -2q-208 253 -502 541q-202 197 -516 531v-129
q0 -414 33 -930q-46 12 -86 12q-30 0 -80 -12q27 270 27 674q0 71 -3 358.5t-3 392.5z" />
    <glyph glyph-name="O" unicode="O" horiz-adv-x="1820" 
d="M922 1425q230 0 406 -90.5t270 -249.5t94 -362q0 -169 -56.5 -311t-159 -242t-250.5 -155.5t-325 -55.5q-220 0 -394 85.5t-275 250.5t-101 383q0 340 209 543.5t582 203.5zM365 690q0 -292 149.5 -467.5t390.5 -175.5q247 0 400 173.5t153 469.5q0 327 -155 492
q-67 72 -173.5 113.5t-220.5 41.5q-87 0 -166.5 -24t-149 -76t-120 -127t-79.5 -182.5t-29 -237.5z" />
    <glyph glyph-name="P" unicode="P" horiz-adv-x="1138" 
d="M176 1407q64 -6 207 -6h235q224 0 336 -78q138 -97 138 -279q0 -157 -113 -276q-146 -152 -477 -152q-46 0 -113 5v-101q0 -279 14 -530q-64 12 -118 12q-50 0 -109 -12q17 321 17 858q0 353 -17 559zM389 1307v-600q9 0 33 -1t37 -1q207 0 308 77t101 242
q0 86 -24.5 137.5t-75.5 87.5q-97 66 -264 66q-63 0 -115 -8z" />
    <glyph glyph-name="Q" unicode="Q" horiz-adv-x="1820" 
d="M922 1425q230 0 406 -90.5t270 -249.5t94 -362q0 -289 -154 -481q-41 -51 -91.5 -94t-92.5 -68t-78.5 -43t-57 -26.5t-20.5 -10.5q0 -6 16.5 -20.5t52.5 -39.5t66 -44.5t84 -53.5q190 -123 258 -149v-12q-110 -38 -176 -91q-74 68 -187.5 146t-211 140.5t-127.5 88.5
q-9 -1 -24.5 -2.5t-27.5 -2.5t-20 -1q-220 0 -394 85.5t-275 250.5t-101 383q0 340 209 543.5t582 203.5zM365 690q0 -292 149.5 -467.5t390.5 -175.5q247 0 400 173.5t153 469.5q0 327 -155 492q-67 72 -173.5 113.5t-220.5 41.5q-87 0 -166.5 -24t-149 -76t-120 -127
t-79.5 -182.5t-29 -237.5z" />
    <glyph glyph-name="R" unicode="R" horiz-adv-x="1251" 
d="M186 1407q106 -8 193 -8q36 0 107.5 1t107.5 1q220 0 307 -35q193 -77 193 -297q0 -152 -98 -243.5t-304 -123.5q81 -116 271 -358l258 -330v-24q-86 12 -121 12q-33 0 -148 -12q-143 222 -250 370t-251 316h-54v-166q0 -282 15 -520q-58 12 -119 12q-51 0 -109 -12
q15 366 15 776q0 188 -13 641zM399 1307q-4 -122 -4 -156q0 -131 0.5 -219t1 -128.5t0.5 -55.5q45 -5 62 -5q230 0 332 88q90 75 90 216q0 135 -86.5 202.5t-268.5 67.5q-53 0 -127 -10z" />
    <glyph glyph-name="S" unicode="S" horiz-adv-x="1138" 
d="M608 1423q91 0 186 -26t162 -68q-51 -100 -59 -182h-29q-32 95 -105 142.5t-179 47.5q-124 0 -193 -67t-69 -168q0 -36 9 -66.5t22.5 -54t40 -45.5t51.5 -37.5t68 -34.5t77 -32.5t91 -34.5q7 -3 11 -4q161 -59 239.5 -141.5t78.5 -229.5q0 -126 -60.5 -229.5
t-175.5 -165.5t-264 -62q-235 0 -387 113q17 62 22 92q1 9 5 29t6.5 38t3.5 33h26q50 -99 140 -156t200 -57q141 0 223 76.5t82 196.5q0 93 -49.5 155t-165.5 111l-233 98q-122 52 -175.5 134.5t-53.5 199.5q0 181 127 288t327 107z" />
    <glyph glyph-name="T" unicode="T" horiz-adv-x="1138" 
d="M14 1407q32 -4 178 -8t209 -4h344q62 0 197.5 4t171.5 8q-8 -44 -8 -72q0 -35 8 -71q-147 28 -436 28q-4 -234 -4 -760q0 -348 14 -542q-89 12 -133 12q-36 0 -104 -12q22 266 22 809q0 164 -2 299l-2 194q-327 -3 -455 -28q0 4 4.5 28.5t4.5 42.5q0 16 -9 72z" />
    <glyph glyph-name="U" unicode="U" horiz-adv-x="1593" 
d="M184 1407q86 -12 121 -12q45 0 119 12q-18 -324 -18 -678q0 -285 26 -395q28 -126 137 -194t252 -68q216 0 338 151q60 76 81.5 220t21.5 350q0 91 -8 313.5t-21 300.5q47 -12 96 -12q37 0 90 12q-17 -115 -26 -301t-9 -262q0 -28 -1 -118t-1 -140q0 -123 -30.5 -246.5
t-100.5 -200.5q-161 -178 -444 -178q-244 0 -387 88q-128 79 -173.5 187t-45.5 305v458q0 133 -17 408z" />
    <glyph glyph-name="V" unicode="V" horiz-adv-x="1366" 
d="M29 1407q46 -12 135 -12q91 0 127 12q58 -207 201 -586t245 -600q306 700 434 1186q47 -12 82 -12q75 0 103 12q-82 -152 -277.5 -610t-318.5 -807q-37 12 -80 12q-50 0 -82 -12q-69 214 -279.5 745.5t-289.5 671.5z" />
    <glyph glyph-name="W" unicode="W" horiz-adv-x="2048" 
d="M2 1407q50 -12 107 -12q81 0 143 12q96 -414 342 -1165l147 420q160 462 228 745q50 -12 86 -12t78 12q37 -153 107 -368.5t269 -796.5l148 428q84 246 127 395t82 342q40 -12 90 -12q52 0 92 12q-111 -262 -292.5 -775.5t-213.5 -641.5q-15 12 -82 12q-42 0 -84 -12
q-69 285 -368 1124q-30 -76 -191 -545q-171 -498 -188 -579q-42 12 -90 12q-54 0 -86 -12q-101 382 -226.5 776t-224.5 641z" />
    <glyph glyph-name="X" unicode="X" horiz-adv-x="1251" 
d="M205 1395q73 0 143 12q61 -121 134.5 -251.5t122 -208.5t59.5 -89q96 138 196 300.5t133 248.5q47 -12 107 -12q44 0 90 12q-87 -103 -234 -306t-235 -339q33 -53 103.5 -167.5t115.5 -187.5t102 -163.5t98.5 -154t67.5 -99.5q-56 12 -123 12q-104 0 -151 -12
q-44 114 -334 600q-179 -267 -358 -600q-34 12 -101 12q-57 0 -94 -12q140 183 301 408t193 282q-72 117 -229.5 363.5t-235.5 363.5q52 -12 129 -12z" />
    <glyph glyph-name="Y" unicode="Y" horiz-adv-x="1251" 
d="M37 1407q61 -12 133 -12q59 0 141 12q54 -131 125 -270q72 -140 130 -241.5t87 -144t37 -42.5q10 0 73 106.5t150 277.5t144 314q40 -12 96 -12q37 0 90 12q-57 -83 -233 -367q-228 -371 -265 -462q0 -416 13 -588q-40 12 -84 12q-105 0 -142 -12q13 91 13 571
q-71 118 -247 414t-261 432z" />
    <glyph glyph-name="Z" unicode="Z" horiz-adv-x="1251" 
d="M90 1407q138 -12 369 -12q624 0 749 12v-31q-301 -416 -515.5 -722t-290.5 -421t-76 -122l2 -5q2 -2 14 -2q511 0 862 31q-8 -31 -8 -76q0 -41 8 -69q-80 4 -358.5 8t-374.5 4q-267 0 -461 -12v35q40 39 374.5 515.5t512.5 751.5q-602 0 -807 -32q8 36 8 79q0 44 -8 68z
" />
    <glyph glyph-name="bracketleft" unicode="[" horiz-adv-x="681" 
d="M217 1202l-4 205q71 -10 149 -10q124 0 226 10q-8 -24 -8 -45q0 -15 8 -47q-109 14 -176 14h-39q-2 -31 -6.5 -206.5t-4.5 -268.5v-393q0 -300 11 -627q129 0 215 12q-6 -15 -6 -45t6 -45q-129 11 -228 11q-50 0 -151 -11q8 204 8 267v1179z" />
    <glyph glyph-name="backslash" unicode="\" horiz-adv-x="569" 
d="M461 -39l-475 1417q27 -6 61 -6q41 0 66 6l473 -1417q-27 6 -58 6q-49 0 -67 -6z" />
    <glyph glyph-name="bracketright" unicode="]" horiz-adv-x="681" 
d="M469 1407l-4 -205v-1179q0 -63 8 -267q-101 11 -151 11q-99 0 -228 -11q6 15 6 45t-6 45q86 -12 215 -12q10 297 10 627v393q0 94 -4 270t-6 205h-39q-67 0 -176 -14q8 32 8 47q0 21 -8 45q103 -10 225 -10q79 0 150 10z" />
    <glyph glyph-name="asciicircum" unicode="^" horiz-adv-x="1214" 
d="M543 1350h129l346 -856h-141l-273 694l-266 -694h-141z" />
    <glyph glyph-name="underscore" unicode="_" 
d="M0 -154h1024v-102h-1024v102z" />
    <glyph glyph-name="grave" unicode="`" horiz-adv-x="569" 
d="M53 1470q23 0 38.5 -11t66.5 -62l276 -273h-72l-315 197q-3 2 -11 6.5t-11.5 7t-10 7.5t-10 8t-8 9t-7 11.5t-4 13t-1.5 15.5q0 28 20 49.5t49 21.5z" />
    <glyph glyph-name="a" unicode="a" 
d="M496 997q71 0 132.5 -17t113.5 -52t82 -96.5t30 -143.5q0 -40 -4 -198t-4 -254q0 -92 13.5 -130t62.5 -38q24 0 51 10l2 -58q-85 -45 -148 -45q-54 0 -96 34t-59 100q-73 -77 -145.5 -110.5t-164.5 -33.5q-131 0 -206.5 79.5t-75.5 195.5q0 43 10 79t25 62t41.5 47.5
t50.5 35.5t61 26.5t64.5 19.5t68.5 16l170 37q25 5 39 9.5t31.5 15t25 30.5t7.5 50q0 102 -63 162.5t-167 60.5q-173 0 -233 -152h-55l8 133q84 67 161.5 96t170.5 29zM279 258q0 -87 49.5 -131.5t124.5 -44.5q85 0 151 57.5t66 132.5v230q-101 -15 -172.5 -35t-113.5 -41
t-66 -50t-31.5 -55.5t-7.5 -62.5z" />
    <glyph glyph-name="b" unicode="b" horiz-adv-x="1251" 
d="M164 1503q77 -12 110 -12q48 0 107 12q-9 -191 -12 -334l-7 -356q121 184 334 184q73 0 140 -19.5t125 -60.5t101.5 -99t68 -140t24.5 -178q0 -240 -134.5 -389.5t-358.5 -149.5q-100 0 -176 34t-154 114q-54 -41 -109 -117h-59q14 237 14 614q0 726 -14 897zM348 461
q0 -197 77.5 -303.5t221.5 -106.5q143 0 222 119t79 324q0 190 -83 294.5t-214 104.5q-68 0 -126 -30t-97 -83q-80 -108 -80 -319z" />
    <glyph glyph-name="c" unicode="c" 
d="M635 999q195 0 338 -81q-29 -65 -45 -175h-25q-66 170 -252 170q-165 0 -254.5 -109.5t-89.5 -307.5q0 -216 101 -327.5t262 -111.5q74 0 150 29.5t124 81.5l19 -6q-14 -40 -23 -119q-49 -34 -128 -57t-175 -23q-272 0 -416 160q-127 142 -127 356q0 238 145 379t396 141
z" />
    <glyph glyph-name="d" unicode="d" horiz-adv-x="1251" 
d="M883 1501q56 -12 102 -12q51 0 113 12q-21 -439 -21 -868q0 -321 6 -643q-49 12 -96 12q-41 0 -100 -12q6 99 6 166q-52 -95 -145.5 -145t-202.5 -50q-85 0 -164.5 32.5t-145.5 94t-105.5 162t-39.5 225.5q0 234 130 380t337 146q117 0 207 -51t127 -139v80q0 21 1 82.5
t1 99.5q0 161 -10 428zM301 483q0 -195 77.5 -307.5t205.5 -112.5q144 0 228.5 104t84.5 318q0 105 -14.5 167.5t-46.5 111.5q-84 133 -244 133q-138 0 -214.5 -107t-76.5 -307z" />
    <glyph glyph-name="e" unicode="e" horiz-adv-x="1138" 
d="M592 995q218 0 333 -119.5t115 -361.5v-27h-735v-8q0 -116 21 -181.5t67 -123.5q91 -115 254 -115q208 0 326 166l24 -6q-12 -87 -14 -123q-136 -133 -381 -133q-233 0 -367.5 137t-134.5 375q0 237 131.5 378.5t360.5 141.5zM307 573h529q0 168 -62.5 254t-185.5 86
q-245 0 -281 -340z" />
    <glyph glyph-name="f" unicode="f" horiz-adv-x="681" 
d="M629 1505q26 0 53 -6l-12 -170l-15 -8q-7 2 -25.5 8t-29 8.5t-28 5.5t-33.5 3q-154 0 -154 -185q0 -98 27 -209q71 0 219 4q-4 -20 -4 -49q0 -9 4 -41q-156 4 -215 4l2 -333q0 -372 14 -547q-70 12 -108 12q-33 0 -111 -12q20 201 20 542q0 141 -2 213l-4 125l-172 -4
q4 24 4 43q0 27 -4 47q106 -4 174 -4q2 146 59 274.5t148.5 203.5t192.5 75z" />
    <glyph glyph-name="g" unicode="g" horiz-adv-x="1138" 
d="M535 999q72 0 162.5 -15t185.5 -15q78 0 186 8q-6 -40 -6 -51q0 -7 1 -16t2.5 -20.5t2.5 -17.5q-63 5 -123 5h-65q86 -73 86 -197q0 -156 -113 -246t-297 -90q-16 0 -77 4t-70 4q-37 0 -62.5 -28t-25.5 -70q0 -38 17 -60t68.5 -35.5t145.5 -13.5q25 0 78 1t74 1
q187 0 276 -75q86 -73 86 -203q0 -91 -54 -192t-147 -156q-71 -43 -150 -64.5t-190 -21.5q-206 0 -320 85.5t-114 221.5q0 183 225 266q-151 42 -151 170q0 71 47 125.5t119 75.5q-98 37 -148.5 110.5t-50.5 176.5q0 151 111 242t291 91zM328 657q0 -115 57.5 -179
t157.5 -64q109 0 169 73t60 197q0 115 -61.5 180.5t-161.5 65.5q-105 0 -163 -71.5t-58 -201.5zM246 -238q0 -110 87.5 -176.5t235.5 -66.5q149 0 238.5 72.5t89.5 185.5q0 108 -86.5 164.5t-247.5 56.5q-152 0 -234.5 -61.5t-82.5 -174.5z" />
    <glyph glyph-name="h" unicode="h" horiz-adv-x="1251" 
d="M178 1253l-8 248q70 -12 106 -12q41 0 111 12q-6 -91 -8 -174t-4 -233.5t-6 -298.5q57 98 149 149t211 51q352 0 352 -350q0 -42 -4 -230t-4 -210q0 -48 0.5 -87t1.5 -60.5t2 -36.5t1.5 -22t0.5 -9q-47 12 -104 12q-67 0 -109 -12q19 236 19 538q0 185 -57.5 263.5
t-180.5 78.5q-96 0 -158 -45q-70 -49 -95 -117.5t-25 -228.5q0 -286 14 -489q-49 12 -111 12q-64 0 -106 -12q14 304 14 502v538q0 160 -2 223z" />
    <glyph glyph-name="i" unicode="i" horiz-adv-x="569" 
d="M289 1430q45 0 78.5 -32.5t33.5 -80.5q0 -45 -32.5 -78t-79.5 -33t-79 33t-32 78q0 47 33 80t78 33zM180 981q52 -12 101 -12q57 0 106 12q-12 -225 -12 -539q0 -120 14 -452q-37 12 -100 12q-65 0 -107 -12q15 334 15 522q0 222 -17 469z" />
    <glyph glyph-name="j" unicode="j" horiz-adv-x="569" 
d="M291 1430q45 0 78.5 -33t33.5 -80q0 -45 -32.5 -78t-79.5 -33t-79 33t-32 78q0 47 33 80t78 33zM180 981q52 -12 111 -12q49 0 110 12q-14 -269 -14 -481q0 -502 -2 -588q-3 -191 -91 -312t-251 -141l-6 62q44 9 76 41t48 70t25 94.5t11 96t2 93.5q0 52 1 231.5t1 268.5
q0 224 -21 565z" />
    <glyph glyph-name="k" unicode="k" horiz-adv-x="1138" 
d="M188 1501q58 -12 109 -12q47 0 106 12q-16 -214 -20 -534q-4 -308 -4 -328q0 -67 2 -80.5t14 -13.5t142 122q11 10 17 15.5t15.5 15t18.5 17.5q172 163 243 266q37 -12 103 -12q60 0 110 12l-466 -408l317 -372q9 -11 80.5 -85t101.5 -108v-18q-65 12 -131 12
q-51 0 -129 -12q-106 150 -252 317q-123 141 -138 154q-16 14 -30 14q-16 0 -16 -35l2 -170q0 -116 16 -280q-59 12 -108 12q-57 0 -103 -12q9 175 9 606v365q0 273 -9 540z" />
    <glyph glyph-name="l" unicode="l" horiz-adv-x="569" 
d="M176 1501q59 -12 107 -12q49 0 108 12q-14 -378 -14 -766q0 -360 16 -745q-60 14 -110 14q-45 0 -105 -14q12 154 12 901q0 366 -14 610z" />
    <glyph glyph-name="m" unicode="m" horiz-adv-x="1820" 
d="M676 995q227 0 303 -184q53 89 142.5 136.5t193.5 47.5q68 0 125.5 -17.5t103.5 -53t72 -95.5t26 -139q0 -40 -2 -164.5t-2 -189.5q0 -102 13 -346q-64 12 -109 12q-52 0 -104 -12q18 215 18 459q0 176 -7 237t-38 111q-51 77 -164 77q-121 0 -184.5 -85t-63.5 -285
q0 -127 17 -514q-50 12 -111 12q-65 0 -102 -12q16 177 16 432q0 292 -43 366q-50 86 -174 86q-131 0 -194 -118q-43 -76 -43 -219q0 -31 -1.5 -83t-1.5 -83q0 -84 6.5 -211.5t12.5 -169.5q-71 12 -107 12q-32 0 -106 -12q1 43 4.5 124t5.5 147t2 124q0 300 -14 604
q81 -12 100 -12q43 0 105 12q-13 -96 -13 -178q116 184 318 184z" />
    <glyph glyph-name="n" unicode="n" horiz-adv-x="1251" 
d="M729 995q352 0 352 -350q0 -19 -2 -128t-4 -210t-2 -102q0 -48 0.5 -87t1.5 -60.5t2 -36.5t1.5 -22t0.5 -9q-47 12 -104 12q-59 0 -109 -12q19 236 19 532q0 183 -55.5 265.5t-182.5 82.5q-87 0 -152.5 -41.5t-95.5 -109.5q-32 -75 -32 -389q0 -132 16 -340
q-59 12 -109 12q-56 0 -108 -12q20 263 20 555q0 157 -10 444q65 -12 103 -12q34 0 100 12l-10 -194q53 95 146 147.5t214 52.5z" />
    <glyph glyph-name="o" unicode="o" horiz-adv-x="1251" 
d="M618 997q250 0 393.5 -137.5t143.5 -370.5q0 -236 -148.5 -382t-379.5 -146q-245 0 -387 133t-142 385q0 234 143.5 376t376.5 142zM307 483q0 -204 84 -322t230 -118q147 0 236 119t89 319t-81.5 317t-235.5 117t-238 -112.5t-84 -319.5z" />
    <glyph glyph-name="p" unicode="p" horiz-adv-x="1251" 
d="M698 999q194 0 325.5 -140t131.5 -359q0 -266 -145 -414q-124 -127 -322 -127q-118 0 -209.5 53.5t-124.5 137.5v-279q0 -246 11 -418q-49 12 -107 12q-52 0 -111 -12q23 377 23 801q0 302 -10 735q49 -12 100 -12q48 0 100 12q-8 -118 -8 -153v-33q114 196 346 196z
M350 465q0 -199 76 -291q90 -111 225 -111q141 0 217 106.5t76 307.5q0 194 -78 307t-207 113q-149 0 -239 -125q-70 -96 -70 -307z" />
    <glyph glyph-name="q" unicode="q" horiz-adv-x="1251" 
d="M555 999q107 0 201.5 -51.5t142.5 -144.5q-1 36 -8 186q40 -12 98 -12q51 0 103 12q-11 -220 -11 -618q0 -606 23 -918q-50 12 -111 12q-57 0 -106 -12q10 156 10 400v297q-37 -85 -124.5 -138t-209.5 -53q-208 0 -338.5 145.5t-130.5 380.5q0 118 37 216.5t100 162.5
t146.5 99.5t177.5 35.5zM305 487q0 -211 75.5 -317.5t217.5 -106.5q76 0 140.5 35.5t107.5 100.5q55 85 55 254q0 120 -15 190.5t-50 124.5q-42 63 -106 96t-138 33q-129 0 -208 -111.5t-79 -298.5z" />
    <glyph glyph-name="r" unicode="r" horiz-adv-x="796" 
d="M717 997q7 0 20.5 -1t20.5 -1q-19 -75 -19 -118q0 -36 4 -72l-14 -10q-36 17 -54.5 21.5t-49.5 4.5q-59 0 -111 -26t-84 -78q-22 -36 -31.5 -93.5t-9.5 -207.5q0 -136 6 -276t6 -150q-42 12 -110 12q-53 0 -103 -12q14 129 18.5 222t4.5 290q0 234 -16 487
q49 -12 104 -12q62 0 104 12q-16 -133 -16 -231q51 118 137.5 178.5t192.5 60.5z" />
    <glyph glyph-name="s" unicode="s" horiz-adv-x="909" 
d="M479 997q145 0 271 -67q-28 -68 -41 -172h-27q-14 73 -68.5 115t-144.5 42q-91 0 -140.5 -42.5t-49.5 -110.5q0 -131 198 -182q69 -17 114 -32t88.5 -38t68 -51.5t39 -70t14.5 -95.5q0 -145 -104 -238.5t-287 -93.5q-178 0 -306 86q30 58 48 164l24 6q29 -83 98 -128.5
t162 -45.5t150 45t57 123q0 20 -3.5 36.5t-8 30t-16.5 26t-20.5 21t-29 19t-33.5 16.5t-42.5 16.5t-47 16t-55.5 17.5q-137 42 -199.5 110.5t-62.5 169.5q0 134 94 220.5t260 86.5z" />
    <glyph glyph-name="t" unicode="t" horiz-adv-x="681" 
d="M418 1278q-14 -274 -15 -322q109 0 222 11q-4 -20 -4 -56q0 -33 4 -45q-17 0 -98.5 3t-123.5 3q-10 -203 -10 -557q0 -148 34 -204t114 -56q23 0 90 13q-2 -8 -2 -29q0 -17 2 -29q-30 -17 -81 -28t-93 -11q-126 0 -197 90q-34 42 -42.5 86.5t-8.5 151.5q0 25 1 80.5
t1 83.5q2 139 2 409q-50 0 -105.5 -4t-58.5 -4q4 23 4 51t-4 52q93 -11 164 -11q0 152 -4 228q32 6 100.5 37.5t108.5 56.5z" />
    <glyph glyph-name="u" unicode="u" horiz-adv-x="1251" 
d="M186 989q49 -12 105 -12q53 0 102 12q-5 -55 -11.5 -196.5t-6.5 -237.5q0 -50 0.5 -80.5t2.5 -75t6 -72t11.5 -63t18 -57t27 -45t37.5 -36t49 -20.5t63 -8q79 0 146 37.5t104 124.5q28 62 28 203q0 92 -4 277.5t-8 248.5q52 -12 111 -12q41 0 100 12q-20 -276 -20 -543
q0 -292 12 -456q-70 12 -101 12q-40 0 -96 -12q5 57 10 194q-52 -98 -141 -155.5t-196 -57.5q-169 0 -260 92.5t-91 264.5q0 2 3 112t5.5 219t2.5 107q0 97 -9 223z" />
    <glyph glyph-name="v" unicode="v" 
d="M10 989q62 -12 117 -12q87 0 127 12q6 -16 50 -143.5t67 -190.5q103 -280 166 -424q6 -14 10 -14t12 16q47 100 168 441q64 177 102 315q50 -12 82 -12q29 0 95 12q-313 -629 -431 -999q-36 12 -75 12q-42 0 -78 -12q-132 407 -412 999z" />
    <glyph glyph-name="w" unicode="w" horiz-adv-x="1593" 
d="M-2 989q38 -12 117 -12q72 0 121 12q21 -103 126 -427t119 -324q9 0 44.5 82.5t95.5 265t118 403.5q49 -12 86 -12q35 0 84 12q27 -121 92 -323q37 -113 55.5 -170.5t43 -128t38 -100t19.5 -29.5q9 0 49 97.5t100.5 278.5t114.5 375q31 -10 74 -10q58 0 88 10
q-49 -89 -172.5 -388.5t-239.5 -610.5q-27 12 -67 12q-34 0 -76 -12q-77 258 -182 545q-45 125 -55.5 151.5t-16.5 26.5q-7 0 -23 -39t-55 -150q-10 -31 -71.5 -209t-110.5 -325q-35 12 -78 12q-44 0 -71 -12q-8 54 -130 383.5t-237 615.5z" />
    <glyph glyph-name="x" unicode="x" 
d="M23 989q65 -12 145 -12q53 0 123 12q12 -21 44 -75.5t45.5 -77t40.5 -65t54.5 -80t61.5 -81.5q39 52 129.5 187.5t121.5 191.5q32 -12 80 -12t101 12q-46 -46 -159 -179t-222 -273q186 -246 393 -547q-70 12 -125 12q-22 0 -127 -12q-126 213 -258 395q-68 -92 -264 -395
q-38 12 -90 12q-47 0 -88 -12q314 351 393 475q-112 160 -399 524z" />
    <glyph glyph-name="y" unicode="y" 
d="M12 989q58 -12 129 -12q62 0 111 12q69 -196 133 -367t96 -250t39 -91q3 -5 7 -12.5t5.5 -11t4.5 -7.5t5 -6t5 -3t6 -1q7 0 27 45q50 103 125 298t137 406q38 -12 90 -12q56 0 84 14q-25 -32 -139 -278q-21 -45 -109 -234t-129 -280.5t-108 -246t-110 -272.5t-71 -217
q-26 13 -71 13q-39 0 -93 -13q177 330 260 500q-53 128 -144.5 350.5t-123 298.5t-79 185t-87.5 192z" />
    <glyph glyph-name="z" unicode="z" 
d="M113 985q168 -27 383 -27q259 0 475 13v-37q-71 -68 -260 -313l-267 -345q-82 -108 -118 -182h141q266 0 491 27q-8 -36 -8 -55q0 -32 8 -76q-170 12 -475 12q-307 0 -442 -12v53q317 391 369 463l266 362q-54 6 -135 6q-295 0 -428 -30q8 41 8 69q0 39 -8 72z" />
    <glyph glyph-name="braceleft" unicode="{" horiz-adv-x="833" 
d="M78 539v82q146 12 213 67q63 52 63 162v194q0 183 93 266t311 97v-82q-135 -9 -197.5 -69.5t-62.5 -196.5v-176q0 -142 -65.5 -215.5t-199.5 -87.5q135 -14 200 -86.5t65 -217.5v-176q0 -136 62.5 -196.5t197.5 -69.5v-82q-219 14 -311.5 97.5t-92.5 269.5v182
q0 116 -63 168q-73 59 -213 70z" />
    <glyph glyph-name="bar" unicode="|" horiz-adv-x="454" 
d="M162 1536h133v-2048h-133v2048z" />
    <glyph glyph-name="braceright" unicode="}" horiz-adv-x="833" 
d="M758 621v-82q-145 -12 -213 -68q-64 -53 -64 -162v-194q0 -183 -92.5 -266.5t-310.5 -96.5v82q135 9 197.5 69.5t62.5 196.5v176q0 142 65 216t199 88q-135 14 -199.5 86t-64.5 217v176q0 136 -62.5 196.5t-197.5 69.5v82q218 -14 310.5 -97.5t92.5 -269.5v-182
q0 -115 64 -168q71 -58 213 -69z" />
    <glyph glyph-name="asciitilde" unicode="~" horiz-adv-x="1214" 
d="M1053 651h92q-12 -132 -81 -208t-173 -76q-56 0 -139 23.5t-154 51t-150 51t-129 23.5q-58 0 -102.5 -44t-54.5 -118h-92q12 132 81 208.5t173 76.5q61 0 144.5 -23.5t152 -51.5t146 -51.5t128.5 -23.5q61 0 103 42t55 120z" />
    <glyph glyph-name="uni00A0" unicode="&#xa0;" horiz-adv-x="512" 
 />
    <glyph glyph-name="exclamdown" unicode="&#xa1;" horiz-adv-x="909" 
d="M444 -444q-56 0 -85 39t-29 112q0 18 6 72l82 831q28 -3 55 0l80 -831q6 -54 6 -72q0 -73 -29.5 -112t-85.5 -39zM442 729q-53 0 -91 38.5t-38 90.5q0 55 37.5 93t91.5 38q55 0 93 -37t38 -92t-38.5 -93t-92.5 -38z" />
    <glyph glyph-name="cent" unicode="&#xa2;" 
d="M795 1245q52 -34 102 -37q-77 -177 -90 -227q52 -11 82.5 -22t83.5 -41q-10 -23 -24.5 -77t-20.5 -98h-25q-35 97 -129 148l-274 -795q86 -39 166 -39q75 0 152 29.5t126 81.5l19 -6q-16 -52 -23 -119q-51 -35 -130 -57.5t-171 -22.5q-71 0 -178 19q-11 -30 -23.5 -70
t-26.5 -93.5t-16 -58.5q-25 18 -43.5 24t-56.5 11l11 28q11 28 30.5 78.5t42.5 106.5q-136 62 -210.5 183t-74.5 286q0 236 143 379t406 143q36 0 76 -4q40 120 76 250zM307 485q0 -226 121 -335l262 761q-6 2 -18 2q-184 0 -274.5 -112t-90.5 -316z" />
    <glyph glyph-name="sterling" unicode="&#xa3;" 
d="M735 1401q130 0 258 -58q-36 -75 -45 -188h-28q-24 77 -83.5 119.5t-136.5 42.5q-249 0 -249 -367q0 -94 8 -194q155 0 325 10q-8 -33 -8 -55q0 -26 8 -54q-130 13 -274 13h-53v-23q0 -158 -54 -283t-149 -206h281q321 0 464 14q-10 -49 -10 -92q0 -41 10 -90l-176 10
q-129 6 -268 6q-125 0 -208.5 -2.5t-167.5 -7t-148 -6.5q10 34 10 73q0 40 -10 74q20 -4 43 -4q94 0 149.5 82.5t55.5 230.5q0 68 -15 224q-58 0 -106 -1.5t-76 -3t-35 -1.5q8 36 8 51q0 17 -8 53q51 -7 211 -12q-10 85 -10 141q0 141 34 222.5t107 152.5q63 61 156.5 95
t189.5 34z" />
    <glyph glyph-name="currency" unicode="&#xa4;" 
d="M121 1153l131 -131q120 86 260 86q70 0 129.5 -20t130.5 -66l131 131l88 -88l-131 -131q86 -119 86 -260q0 -135 -86 -256l131 -133l-88 -88l-133 133q-117 -88 -258 -88q-142 0 -258 86l-133 -131l-88 88l131 131q-86 122 -86 260q0 139 86 258l-131 131zM211 674
q0 -121 88 -210t213 -89q124 0 212.5 88t88.5 211q0 126 -88.5 213.5t-214.5 87.5q-120 0 -209.5 -87.5t-89.5 -213.5z" />
    <glyph glyph-name="yen" unicode="&#xa5;" 
d="M20 1376q52 -12 136 -12q82 0 116 12q67 -201 165 -437.5t122 -236.5q21 0 79 154t177 520q37 -12 98 -12q57 0 91 12q-23 -45 -89.5 -181t-140.5 -283t-143 -277q118 0 262 6q-8 -24 -8 -51t8 -51q-204 4 -279 4v-133q224 0 279 4q-8 -31 -8 -56q0 -19 8 -47
q-123 6 -279 6q0 -26 13 -327q-37 12 -82 12q-107 0 -142 -12q17 154 17 327q-116 0 -279 -6q9 37 9 58q0 31 -9 45q172 -4 279 -4v133q-201 0 -279 -4q9 35 9 57q0 10 -4 25.5t-5 19.5q175 -6 262 -6q-35 60 -84 160q-54 109 -163.5 319.5t-135.5 261.5z" />
    <glyph glyph-name="brokenbar" unicode="&#xa6;" horiz-adv-x="454" 
d="M162 1382h133v-716h-133v716zM162 358h133v-716h-133v716z" />
    <glyph glyph-name="section" unicode="&#xa7;" 
d="M535 1389q94 0 175 -27.5t134 -73.5q-18 -24 -31 -50.5t-18.5 -45.5t-14.5 -55h-16q-25 82 -85 128t-142 46q-99 0 -160.5 -51.5t-61.5 -131.5q0 -74 55 -125.5t173 -101.5l182 -78q76 -32 114 -63t60 -76q31 -63 31 -133q0 -139 -154 -275q92 -82 92 -204
q0 -156 -118 -264.5t-306 -108.5q-86 0 -169.5 26.5t-139.5 69.5q33 79 33 174v29h20q41 -103 116 -158t173 -55q107 0 173.5 56.5t66.5 152.5q0 86 -48 134t-169 101l-150 66q-145 63 -200.5 135.5t-55.5 173.5q0 169 158 273q-74 65 -74 180q0 146 96 239t261 93zM205 682
q0 -78 74 -141q54 -46 232 -124.5t212 -101.5q86 68 86 158q0 64 -43 110t-135 85q-82 34 -123.5 52.5t-104.5 51t-110 64.5q-41 -25 -64.5 -66.5t-23.5 -87.5z" />
    <glyph glyph-name="dieresis" unicode="&#xa8;" horiz-adv-x="569" 
d="M82 1354q40 0 68 -28t28 -66q0 -40 -27.5 -68.5t-68.5 -28.5q-39 0 -66.5 28t-27.5 69q0 38 28 66t66 28zM483 1354q40 0 68.5 -28t28.5 -66q0 -40 -28 -68.5t-69 -28.5q-39 0 -66.5 28t-27.5 69q0 38 28 66t66 28z" />
    <glyph glyph-name="copyright" unicode="&#xa9;" horiz-adv-x="1593" 
d="M797 1425q151 0 288.5 -59t235 -158t155.5 -232t58 -276q0 -153 -58 -290.5t-156.5 -236t-234.5 -156.5t-286 -58q-153 0 -291.5 59t-236 158t-155 232.5t-57.5 277.5q0 153 58 290t157 235.5t235.5 156t287.5 57.5zM147 692q0 -133 52 -254.5t138.5 -208.5t204.5 -138.5
t246 -51.5q136 0 257.5 50.5t209.5 137.5t139.5 211t51.5 264q0 97 -30.5 192t-88.5 176t-136 143t-178.5 97.5t-209.5 35.5q-185 0 -336 -88t-235.5 -238t-84.5 -328zM813 1133q134 0 272 -66q-24 -70 -26 -121h-12q-29 59 -96.5 96t-143.5 37q-133 0 -211 -102.5
t-78 -276.5t83.5 -276t215.5 -102q76 0 142 33.5t108 90.5l12 -4q-10 -55 -10 -100q-119 -80 -276 -80q-185 0 -295.5 122.5t-110.5 315.5q0 197 112.5 315t313.5 118z" />
    <glyph glyph-name="ordfeminine" unicode="&#xaa;" horiz-adv-x="665" 
d="M330 1425q98 0 165.5 -45.5t67.5 -138.5q0 -42 -3 -136t-3 -136q0 -55 9.5 -73.5t35.5 -18.5q24 0 33 6l2 -43q-59 -27 -96 -27q-81 0 -105 74q-42 -44 -90 -62t-115 -18q-86 0 -135 45.5t-49 116.5t44 112.5t155 63.5l131 26q34 7 45.5 19.5t11.5 36.5q0 54 -39.5 90.5
t-99.5 36.5q-56 0 -92.5 -21t-59.5 -71h-45l6 88q98 75 226 75zM188 979q0 -44 31.5 -69t77.5 -25q53 0 93 34t40 85v120q-79 -12 -129 -26.5t-74 -34t-31.5 -38t-7.5 -46.5z" />
    <glyph glyph-name="guillemotleft" unicode="&#xab;" 
d="M440 899q56 -51 99 -61q-151 -178 -252 -336q119 -189 237 -338q-60 -17 -104 -64q-19 34 -37.5 66t-39.5 65l-35 55t-38 58t-33.5 50.5t-37.5 55t-35 50.5q48 54 139.5 187.5t136.5 211.5zM762 899q57 -51 98 -61q-151 -178 -252 -336q115 -183 238 -338
q-36 -10 -58.5 -24t-46.5 -40q-19 34 -37.5 66t-39.5 65l-35 55t-38 58t-33.5 50.5t-37.5 55t-35 50.5q49 54 141 188t136 211z" />
    <glyph glyph-name="logicalnot" unicode="&#xac;" horiz-adv-x="1214" 
d="M92 758h1028v-514h-127v391h-901v123z" />
    <glyph glyph-name="uni00AD" unicode="&#xad;" horiz-adv-x="681" 
d="M350 582q57 0 112.5 2.5t89.5 5t38 2.5q-8 -47 -8 -88q0 -34 8 -88q-188 10 -289 10t-209 -10q8 55 8 90q0 34 -8 86q195 -10 258 -10z" />
    <glyph glyph-name="registered" unicode="&#xae;" horiz-adv-x="784" 
d="M391 1425q155 0 262 -107.5t107 -260.5q0 -152 -106.5 -260.5t-260.5 -108.5t-261 107t-107 262q0 152 106 260t260 108zM94 1057q0 -129 85 -216t212 -87q129 0 214 87t85 216q0 126 -84.5 214.5t-216.5 88.5q-125 0 -210 -88t-85 -215zM242 1274q29 -2 102 -2
q33 0 52.5 -0.5t47.5 -3.5t44 -9t32 -16.5t23.5 -28t7.5 -40.5q0 -48 -36.5 -74t-98.5 -31q17 -24 83 -100t95 -105l-2 -6q-18 4 -55 4q-3 0 -39 -4q-67 89 -76 100l-88 103h-15v-31q0 -64 7 -172q-24 4 -45 4q-5 0 -41 -4q6 91 6 213q0 10 -1 50t-1 71q0 57 -2 82z
M338 1243h-16q0 -10 -1.5 -35t-1.5 -37v-81h13q139 0 139 79q0 38 -30 56t-103 18z" />
    <glyph glyph-name="macron" unicode="&#xaf;" horiz-adv-x="569" 
d="M12 1311h545v-103h-545v103z" />
    <glyph glyph-name="degree" unicode="&#xb0;" horiz-adv-x="833" 
d="M416 1386q127 0 219 -90.5t92 -218.5q0 -126 -91 -218.5t-220 -92.5q-128 0 -219 91t-91 220q0 128 91.5 218.5t218.5 90.5zM223 1077q0 -81 57 -137.5t136 -56.5q80 0 137 57.5t57 136.5t-56.5 136t-137.5 57q-79 0 -136 -57.5t-57 -135.5z" />
    <glyph glyph-name="plusminus" unicode="&#xb1;" horiz-adv-x="1214" 
d="M539 1024h135v-356h446v-123h-446v-355h-135v355h-447v123h447v356zM92 102h1028v-122h-1028v122z" />
    <glyph glyph-name="twosuperior" unicode="&#xb2;" horiz-adv-x="665" 
d="M322 1389q122 0 196 -61t74 -159q0 -143 -154 -288l-233 -222h254q97 0 168 9q-6 -27 -6 -58q0 -24 6 -61q-82 6 -176 6q-48 0 -118 -1t-161 -2.5t-145 -2.5v41q99 83 225 209q95 95 142.5 168t47.5 166q0 88 -39.5 139t-111.5 51q-68 0 -113 -43.5t-45 -116.5v-8l-24 -4
q-6 18 -16.5 33t-26.5 33t-19 22q85 150 275 150z" />
    <glyph glyph-name="threesuperior" unicode="&#xb3;" horiz-adv-x="665" 
d="M295 1386q110 0 185 -48.5t75 -137.5q0 -70 -47.5 -126t-147.5 -79v-8q108 -2 173 -53.5t65 -140.5q0 -112 -97 -184t-255 -72q-113 0 -211 49q16 40 16 102l25 2q26 -42 72.5 -67t105.5 -25q91 0 143 53t52 131q0 82 -53 127t-142 45q-33 0 -64 -8q5 12 5 37q0 8 -5 43
q44 -8 66 -8q72 0 115 46.5t43 117.5q0 63 -41.5 103t-104.5 40q-55 0 -97 -33.5t-48 -83.5l-25 2q-9 46 -39 93q98 83 236 83z" />
    <glyph glyph-name="acute" unicode="&#xb4;" horiz-adv-x="569" 
d="M516 1470q29 0 49.5 -21.5t20.5 -49.5q0 -9 -1.5 -17t-6 -15t-8 -11.5t-11.5 -10.5t-11.5 -8.5t-13 -8t-12.5 -7.5l-315 -197h-72l277 273q51 51 66 62t38 11z" />
    <glyph glyph-name="mu" unicode="&#xb5;" horiz-adv-x="1251" 
d="M186 989q49 -12 105 -12q53 0 102 12q-5 -55 -11.5 -196.5t-6.5 -237.5q0 -50 0.5 -80.5t2.5 -75t6 -72t11.5 -63t18 -57t27 -45t37.5 -36t49 -20.5t63 -8q79 0 146 37.5t104 124.5q28 62 28 203q0 92 -4 277.5t-8 248.5q52 -12 111 -12q41 0 100 12q-20 -276 -20 -543
q0 -292 12 -456q-70 12 -101 12q-40 0 -96 -12q5 57 10 194q-52 -98 -141 -155.5t-196 -57.5q-94 0 -152 41v-211q0 -233 10 -348q-53 12 -106 12t-111 -12q21 344 21 717q0 665 -11 819z" />
    <glyph glyph-name="paragraph" unicode="&#xb6;" 
d="M473 1393h551v-117h-111v-1704h-141v1704h-246v-1704h-141v889q-201 15 -310.5 136.5t-109.5 315.5q0 219 140.5 349.5t367.5 130.5z" />
    <glyph glyph-name="periodcentered" unicode="&#xb7;" horiz-adv-x="512" 
d="M258 635q53 0 91 -38.5t38 -90.5q0 -55 -38.5 -93t-90.5 -38q-54 0 -92.5 37.5t-38.5 91.5t38 92.5t93 38.5z" />
    <glyph glyph-name="cedilla" unicode="&#xb8;" horiz-adv-x="569" 
d="M182 -213l90 203h70l-61 -137q40 12 71 12q66 0 112 -40t46 -104q0 -83 -69.5 -127.5t-172.5 -44.5q-60 0 -172 33l29 62q70 -25 125 -25q58 0 88.5 24t30.5 62q0 35 -24.5 58.5t-72.5 23.5q-29 0 -57 -12z" />
    <glyph glyph-name="onesuperior" unicode="&#xb9;" horiz-adv-x="665" 
d="M442 1397l29 -8q-16 -70 -16 -693l2 -151q-33 6 -76 6q-1 0 -82 -6q5 34 8 65t4.5 60t2.5 87.5t1 110.5t0.5 168t1.5 224q-157 -81 -225 -127q-14 23 -26.5 35.5t-34.5 23.5v14q118 39 244.5 98.5t166.5 92.5z" />
    <glyph glyph-name="ordmasculine" unicode="&#xba;" horiz-adv-x="813" 
d="M408 1425q158 0 252 -83t94 -220q0 -147 -94.5 -233t-253.5 -86q-155 0 -251 83.5t-96 221.5q0 148 94 232.5t255 84.5zM207 1114q0 -112 52.5 -183t146.5 -71q90 0 145 73t55 181q0 114 -51.5 184t-146.5 70t-148 -66t-53 -188z" />
    <glyph glyph-name="guillemotright" unicode="&#xbb;" 
d="M260 899q44 -77 136 -211t141 -188q-7 -10 -35 -50.5t-37.5 -55t-33.5 -50.5t-38 -58l-35 -55t-39.5 -65t-37.5 -66q-24 26 -46.5 40t-58.5 24q123 155 238 338q-101 158 -252 336q41 10 98 61zM584 899q45 -78 136.5 -211.5t139.5 -187.5q-7 -10 -35 -50.5t-37.5 -55
t-33.5 -50.5t-38 -58l-35 -55t-39.5 -65t-37.5 -66q-44 47 -104 64q118 149 237 338q-101 158 -252 336q43 10 99 61z" />
    <glyph glyph-name="onequarter" unicode="&#xbc;" horiz-adv-x="1673" 
d="M1419 823q35 -6 60 -6q30 0 57 6q-4 -62 -5.5 -129t-2 -108.5t-1.5 -135t-1 -141.5q18 1 46.5 1.5t46.5 1t23 1.5q-6 -30 -6 -51q0 -25 6 -49q-52 6 -116 6q0 -38 2 -125.5t2 -97.5q-54 8 -74 8q-2 0 -72 -8q1 17 6 91t5 132q-265 0 -398 -4q0 4 1 12.5t1 12.5q0 5 -1 10
l-1 6q17 19 173 228t249 339zM1395 309v367q-181 -235 -271 -367h271zM440 1397l29 -8q-16 -70 -16 -693l2 -151q-33 6 -76 6q-1 0 -82 -6q5 34 8 65t4.5 60t2.5 87.5t1 110.5t0.5 168t1.5 224q-157 -81 -225 -127q-14 23 -26.5 35.5t-34.5 23.5v14q118 39 244.5 98.5
t166.5 92.5zM328 -35l897 1413q30 -6 59 -6q33 0 57 6l-901 -1413q-34 6 -53 6q-21 0 -59 -6z" />
    <glyph glyph-name="onehalf" unicode="&#xbd;" horiz-adv-x="1673" 
d="M446 1397l29 -8q-16 -70 -16 -693l2 -151q-33 6 -76 6q-1 0 -82 -6q5 34 8 65.5t5 59.5t2.5 88.5t1 109t1 169t1.5 223.5q-161 -83 -226 -127q-14 23 -26.5 35.5t-34.5 23.5v14q118 39 244.5 98.5t166.5 92.5zM334 -35l897 1413q30 -6 59 -6q34 0 58 6l-902 -1413
q-34 6 -53 6q-21 0 -59 -6zM1333 834q122 0 196.5 -61.5t74.5 -158.5q0 -143 -154 -288l-233 -222h253q97 0 168 9q-6 -27 -6 -58q0 -23 6 -61q-82 6 -176 6q-48 0 -118 -1t-161 -2.5t-145 -2.5v41q105 88 226 209q95 95 142.5 168t47.5 166q0 88 -39.5 139t-111.5 51
q-68 0 -113 -43.5t-45 -116.5v-8l-25 -4q-6 18 -16 32.5t-26.5 33.5t-18.5 22q85 150 274 150z" />
    <glyph glyph-name="threequarters" unicode="&#xbe;" horiz-adv-x="1673" 
d="M291 1386q110 0 185 -48.5t75 -137.5q0 -70 -47.5 -126t-147.5 -79v-8q108 -2 173 -53.5t65 -140.5q0 -112 -97 -184t-255 -72q-113 0 -211 49q16 40 16 102l25 2q26 -42 72.5 -67t105.5 -25q91 0 142.5 53t51.5 131q0 82 -52.5 127t-141.5 45q-33 0 -64 -8q4 10 4 37
q0 15 -4 43q44 -8 66 -8q72 0 115 46.5t43 117.5q0 63 -41.5 103t-104.5 40q-55 0 -97 -33.5t-48 -83.5l-25 2q-9 46 -39 93q98 83 236 83zM336 -35l897 1413q30 -6 59 -6q34 0 58 6l-901 -1413q-35 6 -54 6q-21 0 -59 -6zM1417 823q35 -6 60 -6q30 0 57 6q-4 -62 -5.5 -129
t-2 -108.5t-1.5 -135t-1 -141.5q18 1 46.5 1.5t46.5 1t23 1.5q-6 -30 -6 -51q0 -25 6 -49q-52 6 -116 6q0 -38 2 -125.5t2 -97.5q-54 8 -74 8q-2 0 -72 -8q1 17 6 91t5 132q-265 0 -398 -4q0 4 1 12.5t1 12.5q0 5 -1 10l-1 6q17 19 173 228t249 339zM1393 309v367
q-181 -235 -271 -367h271z" />
    <glyph glyph-name="questiondown" unicode="&#xbf;" horiz-adv-x="909" 
d="M512 -438q-147 0 -237.5 77.5t-90.5 204.5q0 82 35 153t123 153q104 98 150.5 157.5t46.5 112.5q0 55 -27 86t-74 31q-28 0 -67 -21l-13 8q17 42 19 68q25 10 76 10q113 0 176 -66.5t63 -162.5q0 -68 -41 -141t-135 -164q-96 -93 -126 -146.5t-30 -109.5q0 -74 46.5 -120
t123.5 -46q128 0 185 106l18 -4q9 -60 23 -108q-85 -78 -244 -78zM496 729q-55 0 -93 38.5t-38 90.5q0 56 37.5 93.5t93.5 37.5q54 0 91.5 -37.5t37.5 -91.5t-37.5 -92.5t-91.5 -38.5z" />
    <glyph glyph-name="Agrave" unicode="&#xc0;" horiz-adv-x="1366" 
d="M631 1423q3 0 18.5 -3t32.5 -3q31 0 45 6q153 -420 614 -1433q-65 12 -120 12q-49 0 -131 -12q-39 134 -81 241t-126 295h-518q-124 -280 -191 -536q-62 12 -84 12q-28 0 -90 -12q473 1031 631 1433zM621 1137l-215 -508h436zM453 1835q22 0 37 -11t67 -63l277 -272h-72
l-316 197q-3 2 -12.5 7.5t-13 8t-11 8t-11 10t-8 11.5t-6 15t-1.5 17q0 28 20.5 50t49.5 22z" />
    <glyph glyph-name="Aacute" unicode="&#xc1;" horiz-adv-x="1366" 
d="M631 1423q3 0 18.5 -3t32.5 -3q31 0 45 6q153 -420 614 -1433q-65 12 -120 12q-49 0 -131 -12q-39 134 -81 241t-126 295h-518q-124 -280 -191 -536q-62 12 -84 12q-28 0 -90 -12q473 1031 631 1433zM621 1137l-215 -508h436zM915 1835q29 0 49.5 -22t20.5 -50
q0 -9 -1.5 -17t-6 -15t-8 -11.5t-11 -10t-11 -8t-13 -8t-12.5 -7.5l-316 -197h-71l276 272q52 52 67 63t37 11z" />
    <glyph glyph-name="Acircumflex" unicode="&#xc2;" horiz-adv-x="1366" 
d="M631 1423q3 0 18.5 -3t32.5 -3q31 0 45 6q153 -420 614 -1433q-65 12 -120 12q-49 0 -131 -12q-39 134 -81 241t-126 295h-518q-124 -280 -191 -536q-62 12 -84 12q-28 0 -90 -12q473 1031 631 1433zM621 1137l-215 -508h436zM375 1489l252 342h114l250 -342h-67
l-240 215l-240 -215h-69z" />
    <glyph glyph-name="Atilde" unicode="&#xc3;" horiz-adv-x="1366" 
d="M631 1423q3 0 18.5 -3t32.5 -3q31 0 45 6q153 -420 614 -1433q-65 12 -120 12q-49 0 -131 -12q-39 134 -81 241t-126 295h-518q-124 -280 -191 -536q-62 12 -84 12q-28 0 -90 -12q473 1031 631 1433zM621 1137l-215 -508h436zM958 1749h60q-23 -93 -79.5 -151t-137.5 -58
q-49 0 -102 23.5t-99.5 47t-79.5 23.5q-43 0 -73.5 -25t-40.5 -69h-56q15 90 75.5 145.5t143.5 55.5q39 0 137.5 -47t131.5 -47q43 0 71.5 24t48.5 78z" />
    <glyph glyph-name="Adieresis" unicode="&#xc4;" horiz-adv-x="1366" 
d="M631 1423q3 0 18.5 -3t32.5 -3q31 0 45 6q153 -420 614 -1433q-65 12 -120 12q-49 0 -131 -12q-39 134 -81 241t-126 295h-518q-124 -280 -191 -536q-62 12 -84 12q-28 0 -90 -12q473 1031 631 1433zM621 1137l-215 -508h436zM481 1718q40 0 68.5 -28t28.5 -66
q0 -40 -29 -68t-68 -28q-38 0 -66 27t-28 69q0 38 28 66t66 28zM883 1718q40 0 68 -28t28 -66q0 -41 -28.5 -68.5t-67.5 -27.5q-38 0 -66.5 27.5t-28.5 68.5q0 38 28.5 66t66.5 28z" />
    <glyph glyph-name="Aring" unicode="&#xc5;" horiz-adv-x="1366" 
d="M631 1423q3 0 18.5 -3t32.5 -3q31 0 45 6q153 -420 614 -1433q-65 12 -120 12q-49 0 -131 -12q-39 134 -81 241t-126 295h-518q-124 -280 -191 -536q-62 12 -84 12q-28 0 -90 -12q473 1031 631 1433zM621 1137l-215 -508h436zM684 1833q76 0 131 -54.5t55 -131.5
q0 -78 -55.5 -133.5t-130.5 -55.5q-78 0 -133 55.5t-55 133.5q0 75 55 130.5t133 55.5zM551 1647q0 -57 38.5 -95.5t94.5 -38.5q54 0 92.5 38.5t38.5 95.5q0 55 -38.5 93t-94.5 38q-54 0 -92.5 -38t-38.5 -93z" />
    <glyph glyph-name="AE" unicode="&#xc6;" horiz-adv-x="1820" 
d="M920 1407q167 -12 401 -12q248 0 383 12q-8 -40 -8 -66q0 -30 8 -71q-72 11 -181 18.5t-159 7.5q-48 0 -115.5 -1t-81.5 -1q-8 -120 -8 -297q0 -42 2 -107.5t2 -101.5q41 -6 119 -6q181 0 369 23q-9 -40 -9 -70q0 -23 9 -69q-147 22 -379 22q-89 0 -109 -2q0 -59 -2 -152
t-2 -139q0 -136 12 -295q269 2 545 25q-8 -33 -8 -66q0 -40 8 -69q-112 12 -446 12q-187 0 -318 -12q13 203 13 520h-369q-5 0 -111 -4q-172 -258 -276 -516q-53 12 -103 12q-56 0 -106 -12q195 275 266 387l355 553q43 67 97 151t82.5 129t58 91.5t43.5 70.5t18 35z
M913 1200l-366 -590q62 -4 418 -4q0 46 2 158.5t2 183.5q0 128 -3.5 196t-7.5 81.5t-10 13.5q-12 0 -35 -39z" />
    <glyph glyph-name="Ccedilla" unicode="&#xc7;" horiz-adv-x="1478" 
d="M725 -213l80 180q-320 19 -506 220t-186 511q0 155 50 286t145.5 229t246.5 153t342 55q268 0 506 -108q-24 -64 -32 -97t-17 -108h-21q-49 98 -175.5 161.5t-268.5 63.5q-247 0 -393 -171.5t-146 -461.5q0 -151 44.5 -274t121.5 -201t176 -120t211 -42q141 0 263 55.5
t204 155.5l25 -10q-18 -81 -23 -166q-224 -130 -500 -133l-49 -112q41 12 72 12q66 0 112 -40t46 -104q0 -83 -69.5 -127.5t-172.5 -44.5q-60 0 -172 33l27 62q70 -25 127 -25q58 0 88 23.5t30 62.5q0 35 -24 58.5t-72 23.5q-29 0 -57 -12z" />
    <glyph glyph-name="Egrave" unicode="&#xc8;" 
d="M172 1405q139 -12 422 -12q192 0 317 12q-8 -54 -8 -72q0 -29 8 -65q-84 16 -155.5 21t-190.5 5q-84 0 -178 -4q-4 -39 -4 -235q0 -210 2 -267q27 0 84 -1t84 -1q158 0 315 17q-8 -46 -8 -70q0 -13 3.5 -33t4.5 -30q-161 20 -319 20q-30 0 -68.5 -1t-65.5 -2t-30 -1
q0 -3 -1 -38.5t-2 -97.5t-1 -130q0 -137 6 -320q305 0 539 25q-8 -50 -8 -70q0 -29 8 -65q-91 12 -224 12q-237 0 -536 -12q22 274 22 725q0 433 -16 690zM322 1835q22 0 37 -11t67 -63l276 -272h-71l-316 197q-3 2 -12.5 7.5t-13 8t-11 8t-11 10t-8 11.5t-6 15t-1.5 17
q0 28 20.5 50t49.5 22z" />
    <glyph glyph-name="Eacute" unicode="&#xc9;" 
d="M172 1405q139 -12 422 -12q192 0 317 12q-8 -54 -8 -72q0 -29 8 -65q-84 16 -155.5 21t-190.5 5q-84 0 -178 -4q-4 -39 -4 -235q0 -210 2 -267q27 0 84 -1t84 -1q158 0 315 17q-8 -46 -8 -70q0 -13 3.5 -33t4.5 -30q-161 20 -319 20q-30 0 -68.5 -1t-65.5 -2t-30 -1
q0 -3 -1 -38.5t-2 -97.5t-1 -130q0 -137 6 -320q305 0 539 25q-8 -50 -8 -70q0 -29 8 -65q-91 12 -224 12q-237 0 -536 -12q22 274 22 725q0 433 -16 690zM764 1835q29 0 49.5 -22t20.5 -50q0 -11 -3 -20.5t-6.5 -15.5t-12 -13t-12.5 -9.5t-15.5 -9.5t-14.5 -9l-315 -197
h-72l276 272q51 51 67 62.5t38 11.5z" />
    <glyph glyph-name="Ecircumflex" unicode="&#xca;" 
d="M172 1405q139 -12 422 -12q192 0 317 12q-8 -54 -8 -72q0 -29 8 -65q-84 16 -155.5 21t-190.5 5q-84 0 -178 -4q-4 -39 -4 -235q0 -210 2 -267q27 0 84 -1t84 -1q158 0 315 17q-8 -46 -8 -70q0 -13 3.5 -33t4.5 -30q-161 20 -319 20q-30 0 -68.5 -1t-65.5 -2t-30 -1
q0 -3 -1 -38.5t-2 -97.5t-1 -130q0 -137 6 -320q305 0 539 25q-8 -50 -8 -70q0 -29 8 -65q-91 12 -224 12q-237 0 -536 -12q22 274 22 725q0 433 -16 690zM233 1489l252 342h115l250 -342h-68l-239 215l-240 -215h-70z" />
    <glyph glyph-name="Edieresis" unicode="&#xcb;" 
d="M172 1405q139 -12 422 -12q192 0 317 12q-8 -54 -8 -72q0 -29 8 -65q-84 16 -155.5 21t-190.5 5q-84 0 -178 -4q-4 -39 -4 -235q0 -210 2 -267q27 0 84 -1t84 -1q158 0 315 17q-8 -46 -8 -70q0 -13 3.5 -33t4.5 -30q-161 20 -319 20q-30 0 -68.5 -1t-65.5 -2t-30 -1
q0 -3 -1 -38.5t-2 -97.5t-1 -130q0 -137 6 -320q305 0 539 25q-8 -50 -8 -70q0 -29 8 -65q-91 12 -224 12q-237 0 -536 -12q22 274 22 725q0 433 -16 690zM340 1718q40 0 68 -28t28 -66q0 -41 -28.5 -68.5t-67.5 -27.5q-38 0 -66 27t-28 69q0 38 28 66t66 28zM741 1718
q40 0 68.5 -28t28.5 -66q0 -40 -29 -68t-68 -28q-38 0 -66 27t-28 69q0 38 28 66t66 28z" />
    <glyph glyph-name="Igrave" unicode="&#xcc;" horiz-adv-x="681" 
d="M227 1407q54 -12 113 -12q67 0 119 12q-17 -287 -17 -733q0 -324 15 -684q-71 12 -127 12q-48 0 -109 -12q21 315 21 665q0 457 -15 752zM111 1835q22 0 37 -11t67 -63l277 -272h-72l-316 197q-3 2 -12.5 7.5t-13 8t-11 8t-11 10t-8 11.5t-6 15t-1.5 17q0 28 20.5 50
t49.5 22z" />
    <glyph glyph-name="Iacute" unicode="&#xcd;" horiz-adv-x="681" 
d="M227 1407q54 -12 113 -12q67 0 119 12q-17 -287 -17 -733q0 -324 15 -684q-71 12 -127 12q-48 0 -109 -12q21 315 21 665q0 457 -15 752zM573 1835q29 0 49.5 -22t20.5 -50q0 -9 -1.5 -17t-6 -15t-8 -11.5t-11 -10t-11 -8t-13 -8t-12.5 -7.5l-316 -197h-71l276 272
q52 52 67 63t37 11z" />
    <glyph glyph-name="Icircumflex" unicode="&#xce;" horiz-adv-x="681" 
d="M227 1407q54 -12 113 -12q67 0 119 12q-17 -287 -17 -733q0 -324 15 -684q-71 12 -127 12q-48 0 -109 -12q21 315 21 665q0 457 -15 752zM33 1489l252 342h114l250 -342h-67l-240 215l-240 -215h-69z" />
    <glyph glyph-name="Idieresis" unicode="&#xcf;" horiz-adv-x="681" 
d="M227 1407q54 -12 113 -12q67 0 119 12q-17 -287 -17 -733q0 -324 15 -684q-71 12 -127 12q-48 0 -109 -12q21 315 21 665q0 457 -15 752zM141 1718q40 0 68.5 -28t28.5 -66q0 -40 -29 -68t-68 -28q-38 0 -66 27t-28 69q0 38 28 66t66 28zM543 1718q40 0 68 -28t28 -66
q0 -41 -28.5 -68.5t-67.5 -27.5q-38 0 -66 27t-28 69q0 38 28 66t66 28z" />
    <glyph glyph-name="Eth" unicode="&#xd0;" horiz-adv-x="1593" 
d="M170 1411q98 -5 304.5 -6t266.5 -2q146 -3 267 -29q100 -23 184.5 -74t151 -128t104 -187.5t37.5 -243.5q0 -182 -59.5 -326.5t-165 -236.5t-246 -140t-307.5 -48q-2 0 -76.5 2t-155 4t-96.5 2q-69 0 -217 -8q22 266 22 680v57q-32 0 -96 -2.5t-92 -3.5q0 1 1 6.5t2 15.5
t1 23q0 37 -4 57q49 -6 188 -6q-3 420 -14 594zM389 1303q-10 -195 -10 -486q262 0 362 6q-4 -20 -4 -55q0 -31 4 -47q-175 6 -362 6q0 -484 6 -631q86 -12 193 -12q196 0 308 31.5t199 113.5q81 77 126.5 201.5t45.5 282.5q0 330 -202 485q-50 39 -107 63.5t-123 34.5
t-113.5 12.5t-119.5 2.5q-142 0 -203 -8z" />
    <glyph glyph-name="Ntilde" unicode="&#xd1;" horiz-adv-x="1593" 
d="M193 1415q10 -4 32 -4q29 0 43 4q169 -196 238 -268l368 -389q190 -199 406 -418v356q0 434 -27 719q47 -12 80 -12q42 0 88 12q-35 -295 -35 -840q0 -326 3 -428l6 -170q-6 1 -18.5 3t-20.5 2q-4 0 -9 -1t-12 -2t-12 -2q-208 253 -502 541q-202 197 -516 531v-129
q0 -414 33 -930q-46 12 -86 12q-30 0 -80 -12q27 270 27 674q0 71 -3 358.5t-3 392.5zM1081 1749h60q-23 -93 -79.5 -151t-137.5 -58q-49 0 -102 23.5t-99.5 47t-79.5 23.5q-43 0 -74 -25t-41 -69h-55q15 90 75.5 145.5t143.5 55.5q39 0 137.5 -47t131.5 -47q43 0 71.5 24
t48.5 78z" />
    <glyph glyph-name="Ograve" unicode="&#xd2;" horiz-adv-x="1820" 
d="M922 1425q230 0 406 -90.5t270 -249.5t94 -362q0 -169 -56.5 -311t-159 -242t-250.5 -155.5t-325 -55.5q-220 0 -394 85.5t-275 250.5t-101 383q0 340 209 543.5t582 203.5zM365 690q0 -292 149.5 -467.5t390.5 -175.5q247 0 400 173.5t153 469.5q0 327 -155 492
q-67 72 -173.5 113.5t-220.5 41.5q-87 0 -166.5 -24t-149 -76t-120 -127t-79.5 -182.5t-29 -237.5zM680 1835q22 0 37 -11t67 -63l277 -272h-72l-315 197q-3 2 -14.5 9t-15.5 9.5t-12.5 9.5t-12 13t-6.5 15.5t-3 20.5q0 28 20.5 50t49.5 22z" />
    <glyph glyph-name="Oacute" unicode="&#xd3;" horiz-adv-x="1820" 
d="M922 1425q230 0 406 -90.5t270 -249.5t94 -362q0 -169 -56.5 -311t-159 -242t-250.5 -155.5t-325 -55.5q-220 0 -394 85.5t-275 250.5t-101 383q0 340 209 543.5t582 203.5zM365 690q0 -292 149.5 -467.5t390.5 -175.5q247 0 400 173.5t153 469.5q0 327 -155 492
q-67 72 -173.5 113.5t-220.5 41.5q-87 0 -166.5 -24t-149 -76t-120 -127t-79.5 -182.5t-29 -237.5zM1143 1835q29 0 49 -22t20 -50q0 -9 -1.5 -17t-6 -15t-8 -11.5t-11 -10t-11 -8t-13 -8t-12.5 -7.5l-315 -197h-72l276 272q52 51 67.5 62.5t37.5 11.5z" />
    <glyph glyph-name="Ocircumflex" unicode="&#xd4;" horiz-adv-x="1820" 
d="M922 1425q230 0 406 -90.5t270 -249.5t94 -362q0 -169 -56.5 -311t-159 -242t-250.5 -155.5t-325 -55.5q-220 0 -394 85.5t-275 250.5t-101 383q0 340 209 543.5t582 203.5zM365 690q0 -292 149.5 -467.5t390.5 -175.5q247 0 400 173.5t153 469.5q0 327 -155 492
q-67 72 -173.5 113.5t-220.5 41.5q-87 0 -166.5 -24t-149 -76t-120 -127t-79.5 -182.5t-29 -237.5zM602 1489l252 342h115l250 -342h-68l-240 215l-239 -215h-70z" />
    <glyph glyph-name="Otilde" unicode="&#xd5;" horiz-adv-x="1820" 
d="M922 1425q230 0 406 -90.5t270 -249.5t94 -362q0 -169 -56.5 -311t-159 -242t-250.5 -155.5t-325 -55.5q-220 0 -394 85.5t-275 250.5t-101 383q0 340 209 543.5t582 203.5zM365 690q0 -292 149.5 -467.5t390.5 -175.5q247 0 400 173.5t153 469.5q0 327 -155 492
q-67 72 -173.5 113.5t-220.5 41.5q-87 0 -166.5 -24t-149 -76t-120 -127t-79.5 -182.5t-29 -237.5zM1186 1749h59q-23 -93 -79.5 -151t-137.5 -58q-49 0 -101.5 23.5t-99 47t-79.5 23.5q-43 0 -74 -25t-41 -69h-55q15 90 75.5 145.5t143.5 55.5q39 0 137 -47t131 -47
q43 0 72 24t49 78z" />
    <glyph glyph-name="Odieresis" unicode="&#xd6;" horiz-adv-x="1820" 
d="M922 1425q230 0 406 -90.5t270 -249.5t94 -362q0 -169 -56.5 -311t-159 -242t-250.5 -155.5t-325 -55.5q-220 0 -394 85.5t-275 250.5t-101 383q0 340 209 543.5t582 203.5zM365 690q0 -292 149.5 -467.5t390.5 -175.5q247 0 400 173.5t153 469.5q0 327 -155 492
q-67 72 -173.5 113.5t-220.5 41.5q-87 0 -166.5 -24t-149 -76t-120 -127t-79.5 -182.5t-29 -237.5zM709 1718q40 0 68 -28t28 -66q0 -41 -28.5 -68.5t-67.5 -27.5q-38 0 -66.5 27.5t-28.5 68.5q0 38 28.5 66t66.5 28zM1110 1718q40 0 68 -28t28 -66q0 -41 -28.5 -68.5
t-67.5 -27.5q-38 0 -66 27t-28 69q0 38 28 66t66 28z" />
    <glyph glyph-name="multiply" unicode="&#xd7;" horiz-adv-x="1214" 
d="M213 989l395 -395l393 393l93 -92l-394 -391l394 -395l-93 -93l-393 396l-393 -396l-94 93l395 393l-395 395z" />
    <glyph glyph-name="Oslash" unicode="&#xd8;" horiz-adv-x="1820" 
d="M1546 1516q18 -24 30.5 -35t49.5 -37q-75 -79 -174 -189q126 -111 183 -242.5t57 -299.5q0 -162 -57.5 -302t-160 -239.5t-248.5 -156t-317 -56.5q-296 0 -487 139q-28 -33 -94 -109t-105 -122q-18 26 -30 37.5t-41 29.5l202 216q-115 108 -169 239t-54 299
q0 172 58 311.5t162 232.5t247 143t313 50q264 0 463 -116q120 149 172 207zM365 705q0 -144 25.5 -243.5t80.5 -180.5q307 338 809 921q-160 135 -371 135q-157 0 -280 -76.5t-193.5 -221t-70.5 -334.5zM1341 1133q-231 -254 -819 -922q143 -162 387 -162q169 0 294.5 84.5
t190 231.5t64.5 337q0 262 -117 431z" />
    <glyph glyph-name="Ugrave" unicode="&#xd9;" horiz-adv-x="1593" 
d="M184 1407q86 -12 121 -12q45 0 119 12q-18 -324 -18 -678q0 -285 26 -395q28 -126 137 -194t252 -68q216 0 338 151q60 76 81.5 220t21.5 350q0 91 -8 313.5t-21 300.5q47 -12 96 -12q37 0 90 12q-17 -115 -26 -301t-9 -262q0 -28 -1 -118t-1 -140q0 -123 -30.5 -246.5
t-100.5 -200.5q-161 -178 -444 -178q-244 0 -387 88q-128 79 -173.5 187t-45.5 305v458q0 133 -17 408zM565 1835q22 0 37.5 -11.5t67.5 -62.5l276 -272h-72l-315 197q-3 2 -12.5 7.5t-13 8t-11 8t-11 10t-8 11.5t-6 15t-1.5 17q0 28 20 50t49 22z" />
    <glyph glyph-name="Uacute" unicode="&#xda;" horiz-adv-x="1593" 
d="M184 1407q86 -12 121 -12q45 0 119 12q-18 -324 -18 -678q0 -285 26 -395q28 -126 137 -194t252 -68q216 0 338 151q60 76 81.5 220t21.5 350q0 91 -8 313.5t-21 300.5q47 -12 96 -12q37 0 90 12q-17 -115 -26 -301t-9 -262q0 -28 -1 -118t-1 -140q0 -123 -30.5 -246.5
t-100.5 -200.5q-161 -178 -444 -178q-244 0 -387 88q-128 79 -173.5 187t-45.5 305v458q0 133 -17 408zM1038 1835q29 0 49.5 -22t20.5 -50q0 -11 -3 -20.5t-6.5 -15.5t-12 -13t-12.5 -9.5t-15.5 -9.5t-14.5 -9l-315 -197h-72l277 272q52 52 67 63t37 11z" />
    <glyph glyph-name="Ucircumflex" unicode="&#xdb;" horiz-adv-x="1593" 
d="M184 1407q86 -12 121 -12q45 0 119 12q-18 -324 -18 -678q0 -285 26 -395q28 -126 137 -194t252 -68q216 0 338 151q60 76 81.5 220t21.5 350q0 91 -8 313.5t-21 300.5q47 -12 96 -12q37 0 90 12q-17 -115 -26 -301t-9 -262q0 -28 -1 -118t-1 -140q0 -123 -30.5 -246.5
t-100.5 -200.5q-161 -178 -444 -178q-244 0 -387 88q-128 79 -173.5 187t-45.5 305v458q0 133 -17 408zM518 1489l252 342h115l250 -342h-68l-240 215l-239 -215h-70z" />
    <glyph glyph-name="Udieresis" unicode="&#xdc;" horiz-adv-x="1593" 
d="M184 1407q86 -12 121 -12q45 0 119 12q-18 -324 -18 -678q0 -285 26 -395q28 -126 137 -194t252 -68q216 0 338 151q60 76 81.5 220t21.5 350q0 91 -8 313.5t-21 300.5q47 -12 96 -12q37 0 90 12q-17 -115 -26 -301t-9 -262q0 -28 -1 -118t-1 -140q0 -123 -30.5 -246.5
t-100.5 -200.5q-161 -178 -444 -178q-244 0 -387 88q-128 79 -173.5 187t-45.5 305v458q0 133 -17 408zM635 1718q40 0 68 -28t28 -66q0 -41 -28.5 -68.5t-67.5 -27.5q-38 0 -66 27t-28 69q0 38 28 66t66 28zM1036 1718q40 0 68.5 -28t28.5 -66q0 -40 -29 -68t-68 -28
q-38 0 -66 27t-28 69q0 38 28 66t66 28z" />
    <glyph glyph-name="Yacute" unicode="&#xdd;" horiz-adv-x="1251" 
d="M37 1407q61 -12 133 -12q59 0 141 12q54 -131 125 -270q72 -140 130 -241.5t87 -144t37 -42.5q10 0 73 106.5t150 277.5t144 314q40 -12 96 -12q37 0 90 12q-57 -83 -233 -367q-228 -371 -265 -462q0 -416 13 -588q-40 12 -84 12q-105 0 -142 -12q13 91 13 571
q-71 118 -247 414t-261 432zM909 1835q29 0 49.5 -22t20.5 -50q0 -11 -3 -20.5t-6.5 -15.5t-12 -13t-12.5 -9.5t-15.5 -9.5t-14.5 -9l-315 -197h-72l277 272q52 52 67 63t37 11z" />
    <glyph glyph-name="Thorn" unicode="&#xde;" horiz-adv-x="1138" 
d="M176 1407q75 -12 107 -12q17 0 116 12l-10 -248h227q134 0 208.5 -19t136.5 -63q65 -48 98 -120.5t33 -155.5q0 -203 -168 -322q-146 -104 -439 -104q-38 0 -96 4q0 -60 6 -207l8 -182q-64 12 -118 12q-50 0 -109 -12q17 321 17 858q0 353 -17 559zM389 1065
q-2 -100 -2 -301q0 -199 2 -299q12 0 36.5 -1t37.5 -1q215 0 310 79.5t95 239.5q0 148 -92 219.5t-276 71.5q-71 0 -111 -8z" />
    <glyph glyph-name="germandbls" unicode="&#xdf;" horiz-adv-x="1251" 
d="M637 1511q145 0 237.5 -72.5t92.5 -183.5q0 -65 -27 -119.5t-92 -119.5q-70 -70 -94.5 -103t-24.5 -57q0 -59 109 -127q52 -33 76 -48.5t63.5 -44t57.5 -47t42.5 -47.5t35 -55.5t18.5 -61.5t8 -75q0 -92 -59 -181.5t-156.5 -146.5t-200.5 -57q-115 0 -213 53
q18 39 25.5 71t13.5 91l20 -2q30 -55 82 -87t117 -32q99 0 156 57t57 146q0 143 -199 264q-98 60 -153.5 116t-55.5 116q0 13 0.5 24t4.5 23t5.5 19t10 19.5t12 18t17 21.5t19.5 22.5t25.5 28t28.5 31.5q69 77 99 137t30 127q0 95 -54.5 150t-145.5 55q-114 0 -181 -91
q-55 -77 -55 -217l-2 -741q0 -238 12 -395q-47 12 -100 12q-51 0 -115 -12q15 125 15 393v512q0 163 8.5 246t24 121t53.5 90q62 84 158 121.5t194 37.5z" />
    <glyph glyph-name="agrave" unicode="&#xe0;" 
d="M496 997q71 0 132.5 -17t113.5 -52t82 -96.5t30 -143.5q0 -40 -4 -198t-4 -254q0 -92 13.5 -130t62.5 -38q24 0 51 10l2 -58q-85 -45 -148 -45q-54 0 -96 34t-59 100q-73 -77 -145.5 -110.5t-164.5 -33.5q-131 0 -206.5 79.5t-75.5 195.5q0 43 10 79t25 62t41.5 47.5
t50.5 35.5t61 26.5t64.5 19.5t68.5 16l170 37q25 5 39 9.5t31.5 15t25 30.5t7.5 50q0 102 -63 162.5t-167 60.5q-173 0 -233 -152h-55l8 133q84 67 161.5 96t170.5 29zM279 258q0 -87 49.5 -131.5t124.5 -44.5q85 0 151 57.5t66 132.5v230q-101 -15 -172.5 -35t-113.5 -41
t-66 -50t-31.5 -55.5t-7.5 -62.5zM281 1470q23 0 38 -11t66 -62l277 -273h-72l-316 197q-3 2 -11 6.5t-11.5 7t-10 7.5t-10 8t-8 9t-7 11.5t-4 13t-1.5 15.5q0 28 20.5 49.5t49.5 21.5z" />
    <glyph glyph-name="aacute" unicode="&#xe1;" 
d="M496 997q71 0 132.5 -17t113.5 -52t82 -96.5t30 -143.5q0 -40 -4 -198t-4 -254q0 -92 13.5 -130t62.5 -38q24 0 51 10l2 -58q-85 -45 -148 -45q-54 0 -96 34t-59 100q-73 -77 -145.5 -110.5t-164.5 -33.5q-131 0 -206.5 79.5t-75.5 195.5q0 43 10 79t25 62t41.5 47.5
t50.5 35.5t61 26.5t64.5 19.5t68.5 16l170 37q25 5 39 9.5t31.5 15t25 30.5t7.5 50q0 102 -63 162.5t-167 60.5q-173 0 -233 -152h-55l8 133q84 67 161.5 96t170.5 29zM279 258q0 -87 49.5 -131.5t124.5 -44.5q85 0 151 57.5t66 132.5v230q-101 -15 -172.5 -35t-113.5 -41
t-66 -50t-31.5 -55.5t-7.5 -62.5zM743 1470q29 0 49.5 -21.5t20.5 -49.5q0 -9 -1.5 -17t-6 -15t-7.5 -11.5t-11 -10.5t-11 -8t-13.5 -8.5t-12.5 -7.5l-316 -197h-72l277 273q51 51 66 62t38 11z" />
    <glyph glyph-name="acircumflex" unicode="&#xe2;" 
d="M496 997q71 0 132.5 -17t113.5 -52t82 -96.5t30 -143.5q0 -40 -4 -198t-4 -254q0 -92 13.5 -130t62.5 -38q24 0 51 10l2 -58q-85 -45 -148 -45q-54 0 -96 34t-59 100q-73 -77 -145.5 -110.5t-164.5 -33.5q-131 0 -206.5 79.5t-75.5 195.5q0 43 10 79t25 62t41.5 47.5
t50.5 35.5t61 26.5t64.5 19.5t68.5 16l170 37q25 5 39 9.5t31.5 15t25 30.5t7.5 50q0 102 -63 162.5t-167 60.5q-173 0 -233 -152h-55l8 133q84 67 161.5 96t170.5 29zM279 258q0 -87 49.5 -131.5t124.5 -44.5q85 0 151 57.5t66 132.5v230q-101 -15 -172.5 -35t-113.5 -41
t-66 -50t-31.5 -55.5t-7.5 -62.5zM203 1124l252 342h114l250 -342h-67l-240 215l-240 -215h-69z" />
    <glyph glyph-name="atilde" unicode="&#xe3;" 
d="M496 997q71 0 132.5 -17t113.5 -52t82 -96.5t30 -143.5q0 -40 -4 -198t-4 -254q0 -92 13.5 -130t62.5 -38q24 0 51 10l2 -58q-85 -45 -148 -45q-54 0 -96 34t-59 100q-73 -77 -145.5 -110.5t-164.5 -33.5q-131 0 -206.5 79.5t-75.5 195.5q0 43 10 79t25 62t41.5 47.5
t50.5 35.5t61 26.5t64.5 19.5t68.5 16l170 37q25 5 39 9.5t31.5 15t25 30.5t7.5 50q0 102 -63 162.5t-167 60.5q-173 0 -233 -152h-55l8 133q84 67 161.5 96t170.5 29zM279 258q0 -87 49.5 -131.5t124.5 -44.5q85 0 151 57.5t66 132.5v230q-101 -15 -172.5 -35t-113.5 -41
t-66 -50t-31.5 -55.5t-7.5 -62.5zM786 1384h60q-23 -93 -79.5 -150.5t-137.5 -57.5q-49 0 -102 23.5t-99.5 47t-79.5 23.5q-43 0 -74 -25t-41 -69h-55q15 89 75.5 144.5t143.5 55.5q39 0 137.5 -47t131.5 -47q43 0 71.5 24t48.5 78z" />
    <glyph glyph-name="adieresis" unicode="&#xe4;" 
d="M496 997q71 0 132.5 -17t113.5 -52t82 -96.5t30 -143.5q0 -40 -4 -198t-4 -254q0 -92 13.5 -130t62.5 -38q24 0 51 10l2 -58q-85 -45 -148 -45q-54 0 -96 34t-59 100q-73 -77 -145.5 -110.5t-164.5 -33.5q-131 0 -206.5 79.5t-75.5 195.5q0 43 10 79t25 62t41.5 47.5
t50.5 35.5t61 26.5t64.5 19.5t68.5 16l170 37q25 5 39 9.5t31.5 15t25 30.5t7.5 50q0 102 -63 162.5t-167 60.5q-173 0 -233 -152h-55l8 133q84 67 161.5 96t170.5 29zM279 258q0 -87 49.5 -131.5t124.5 -44.5q85 0 151 57.5t66 132.5v230q-101 -15 -172.5 -35t-113.5 -41
t-66 -50t-31.5 -55.5t-7.5 -62.5zM309 1354q40 0 68.5 -28t28.5 -66q0 -40 -28 -68.5t-69 -28.5q-39 0 -66.5 28t-27.5 69q0 38 28 66t66 28zM711 1354q40 0 68 -28t28 -66q0 -40 -27.5 -68.5t-68.5 -28.5q-39 0 -67 28t-28 69q0 38 28.5 66t66.5 28z" />
    <glyph glyph-name="aring" unicode="&#xe5;" 
d="M496 997q71 0 132.5 -17t113.5 -52t82 -96.5t30 -143.5q0 -40 -4 -198t-4 -254q0 -92 13.5 -130t62.5 -38q24 0 51 10l2 -58q-85 -45 -148 -45q-54 0 -96 34t-59 100q-73 -77 -145.5 -110.5t-164.5 -33.5q-131 0 -206.5 79.5t-75.5 195.5q0 43 10 79t25 62t41.5 47.5
t50.5 35.5t61 26.5t64.5 19.5t68.5 16l170 37q25 5 39 9.5t31.5 15t25 30.5t7.5 50q0 102 -63 162.5t-167 60.5q-173 0 -233 -152h-55l8 133q84 67 161.5 96t170.5 29zM279 258q0 -87 49.5 -131.5t124.5 -44.5q85 0 151 57.5t66 132.5v230q-101 -15 -172.5 -35t-113.5 -41
t-66 -50t-31.5 -55.5t-7.5 -62.5zM512 1464q76 0 131 -55.5t55 -130.5q0 -78 -54.5 -133t-131.5 -55q-78 0 -133 55t-55 133q0 76 55 131t133 55zM379 1278q0 -56 38.5 -94.5t94.5 -38.5q54 0 92.5 38.5t38.5 94.5q0 55 -38.5 93t-94.5 38q-54 0 -92.5 -38t-38.5 -93z" />
    <glyph glyph-name="ae" unicode="&#xe6;" horiz-adv-x="1705" 
d="M535 999q99 0 167 -30t127 -103q125 133 334 133q216 0 327.5 -128.5t111.5 -383.5h-717v-22q0 -189 92 -296.5t242 -107.5q197 0 323 170l21 -6q-5 -16 -8 -36t-4 -32t-2 -36t-1 -29q-168 -127 -381 -127q-141 0 -248 59t-161 166q-120 -225 -361 -225q-137 0 -218 74
t-81 201q0 115 65 179.5t199 94.5q64 15 145.5 29.5t121.5 25.5t80 33v51q0 101 -59 170.5t-173 69.5q-84 0 -154.5 -42t-101.5 -122l-49 4q8 94 8 139q140 127 355 127zM885 573h514q0 342 -244 342q-119 0 -194.5 -93.5t-75.5 -248.5zM301 256q0 -85 49.5 -131.5
t132.5 -46.5q121 0 187 106q35 58 35 183v133l-191 -37q-112 -22 -162.5 -70.5t-50.5 -136.5z" />
    <glyph glyph-name="ccedilla" unicode="&#xe7;" 
d="M479 -213l80 180q-219 21 -338 156q-127 142 -127 356q0 238 145 379t396 141q195 0 338 -81q-29 -65 -45 -175h-25q-66 170 -252 170q-165 0 -254.5 -109.5t-89.5 -307.5q0 -216 101 -327.5t262 -111.5q74 0 150 29.5t124 81.5l19 -6q-14 -40 -23 -119q-49 -34 -128 -57
t-175 -23h-10l-49 -110q40 12 71 12q66 0 112 -40t46 -104q0 -83 -69.5 -127.5t-172.5 -44.5q-60 0 -172 33l29 62q70 -25 125 -25q58 0 88.5 24t30.5 62q0 35 -24.5 58.5t-72.5 23.5q-29 0 -57 -12z" />
    <glyph glyph-name="egrave" unicode="&#xe8;" horiz-adv-x="1138" 
d="M592 995q218 0 333 -119.5t115 -361.5v-27h-735v-8q0 -116 21 -181.5t67 -123.5q91 -115 254 -115q208 0 326 166l24 -6q-12 -87 -14 -123q-136 -133 -381 -133q-233 0 -367.5 137t-134.5 375q0 237 131.5 378.5t360.5 141.5zM307 573h529q0 168 -62.5 254t-185.5 86
q-245 0 -281 -340zM379 1470q23 0 38 -11t66 -62l277 -273h-72l-315 197q-3 2 -12.5 7.5t-13 8t-11.5 8.5t-11.5 10.5t-8 11.5t-6 15t-1.5 17q0 28 20.5 49.5t49.5 21.5z" />
    <glyph glyph-name="eacute" unicode="&#xe9;" horiz-adv-x="1138" 
d="M592 995q218 0 333 -119.5t115 -361.5v-27h-735v-8q0 -116 21 -181.5t67 -123.5q91 -115 254 -115q208 0 326 166l24 -6q-12 -87 -14 -123q-136 -133 -381 -133q-233 0 -367.5 137t-134.5 375q0 237 131.5 378.5t360.5 141.5zM307 573h529q0 168 -62.5 254t-185.5 86
q-245 0 -281 -340zM821 1470q29 0 49.5 -21.5t20.5 -49.5q0 -9 -1.5 -17t-6 -15t-8 -11.5t-11.5 -10.5t-11.5 -8.5t-13 -8t-12.5 -7.5l-315 -197h-72l277 273q51 51 66 62t38 11z" />
    <glyph glyph-name="ecircumflex" unicode="&#xea;" horiz-adv-x="1138" 
d="M592 995q218 0 333 -119.5t115 -361.5v-27h-735v-8q0 -116 21 -181.5t67 -123.5q91 -115 254 -115q208 0 326 166l24 -6q-12 -87 -14 -123q-136 -133 -381 -133q-233 0 -367.5 137t-134.5 375q0 237 131.5 378.5t360.5 141.5zM307 573h529q0 168 -62.5 254t-185.5 86
q-245 0 -281 -340zM281 1124l251 342h115l250 -342h-68l-239 215l-240 -215h-69z" />
    <glyph glyph-name="edieresis" unicode="&#xeb;" horiz-adv-x="1138" 
d="M592 995q218 0 333 -119.5t115 -361.5v-27h-735v-8q0 -116 21 -181.5t67 -123.5q91 -115 254 -115q208 0 326 166l24 -6q-12 -87 -14 -123q-136 -133 -381 -133q-233 0 -367.5 137t-134.5 375q0 237 131.5 378.5t360.5 141.5zM307 573h529q0 168 -62.5 254t-185.5 86
q-245 0 -281 -340zM387 1354q40 0 68 -28t28 -66q0 -40 -27.5 -68.5t-68.5 -28.5q-39 0 -66.5 28t-27.5 69q0 38 28 66t66 28zM788 1354q40 0 68.5 -28t28.5 -66q0 -40 -28 -68.5t-69 -28.5q-39 0 -66.5 28t-27.5 69q0 38 28 66t66 28z" />
    <glyph glyph-name="igrave" unicode="&#xec;" horiz-adv-x="569" 
d="M180 981q52 -12 101 -12q57 0 106 12q-12 -225 -12 -539q0 -120 14 -452q-37 12 -100 12q-65 0 -107 -12q15 334 15 522q0 222 -17 469zM53 1470q23 0 38.5 -11t66.5 -62l276 -273h-72l-315 197q-3 2 -11 6.5t-11.5 7t-10 7.5t-10 8t-8 9t-7 11.5t-4 13t-1.5 15.5
q0 28 20 49.5t49 21.5z" />
    <glyph glyph-name="iacute" unicode="&#xed;" horiz-adv-x="569" 
d="M180 981q52 -12 101 -12q57 0 106 12q-12 -225 -12 -539q0 -120 14 -452q-37 12 -100 12q-65 0 -107 -12q15 334 15 522q0 222 -17 469zM516 1470q29 0 49.5 -21.5t20.5 -49.5q0 -9 -1.5 -17t-6 -15t-8 -11.5t-11.5 -10.5t-11.5 -8.5t-13 -8t-12.5 -7.5l-315 -197h-72
l277 273q51 51 66 62t38 11z" />
    <glyph glyph-name="icircumflex" unicode="&#xee;" horiz-adv-x="569" 
d="M180 981q52 -12 101 -12q57 0 106 12q-12 -225 -12 -539q0 -120 14 -452q-37 12 -100 12q-65 0 -107 -12q15 334 15 522q0 222 -17 469zM-25 1124l252 342h115l250 -342h-68l-239 215l-240 -215h-70z" />
    <glyph glyph-name="idieresis" unicode="&#xef;" horiz-adv-x="569" 
d="M180 981q52 -12 101 -12q57 0 106 12q-12 -225 -12 -539q0 -120 14 -452q-37 12 -100 12q-65 0 -107 -12q15 334 15 522q0 222 -17 469zM82 1354q40 0 68 -28t28 -66q0 -40 -27.5 -68.5t-68.5 -28.5q-39 0 -66.5 28t-27.5 69q0 38 28 66t66 28zM483 1354q40 0 68.5 -28
t28.5 -66q0 -40 -28 -68.5t-69 -28.5q-39 0 -66.5 28t-27.5 69q0 38 28 66t66 28z" />
    <glyph glyph-name="eth" unicode="&#xf0;" horiz-adv-x="1251" 
d="M319 1540q182 -105 295 -188q185 62 295 112q31 -60 47 -82q-215 -64 -274 -88q255 -192 364 -381t109 -415q0 -166 -70.5 -289t-190.5 -185.5t-273 -62.5q-231 0 -377 132.5t-146 363.5q0 249 136 392.5t374 143.5q67 0 158 -22q-17 22 -34 42t-37 41.5t-33.5 35.5
t-39 38t-35.5 33l-40 36t-37 34q-156 -47 -282 -101q-15 -6 -23 -10q-14 33 -49 78q121 31 284 90q-3 2 -45.5 35.5t-103.5 78t-125 87.5q98 23 153 51zM307 483q0 -204 84 -322t230 -118q147 0 236 119t89 319q0 202 -82 318t-235 116q-154 0 -238 -112.5t-84 -319.5z" />
    <glyph glyph-name="ntilde" unicode="&#xf1;" horiz-adv-x="1251" 
d="M729 995q352 0 352 -350q0 -19 -2 -128t-4 -210t-2 -102q0 -48 0.5 -87t1.5 -60.5t2 -36.5t1.5 -22t0.5 -9q-47 12 -104 12q-59 0 -109 -12q19 236 19 532q0 183 -55.5 265.5t-182.5 82.5q-87 0 -152.5 -41.5t-95.5 -109.5q-32 -75 -32 -389q0 -132 16 -340
q-59 12 -109 12q-56 0 -108 -12q20 263 20 555q0 157 -10 444q65 -12 103 -12q34 0 100 12l-10 -194q53 95 146 147.5t214 52.5zM901 1384h60q-23 -92 -80 -150t-138 -58q-49 0 -101.5 23.5t-99 47t-79.5 23.5q-43 0 -74 -25t-41 -69h-55q15 89 75.5 144.5t143.5 55.5
q39 0 137 -47t131 -47q43 0 72 24t49 78z" />
    <glyph glyph-name="ograve" unicode="&#xf2;" horiz-adv-x="1251" 
d="M618 997q250 0 393.5 -137.5t143.5 -370.5q0 -236 -148.5 -382t-379.5 -146q-245 0 -387 133t-142 385q0 234 143.5 376t376.5 142zM307 483q0 -204 84 -322t230 -118q147 0 236 119t89 319t-81.5 317t-235.5 117t-238 -112.5t-84 -319.5zM395 1470q23 0 38.5 -11
t66.5 -62l276 -273h-71l-316 197q-3 2 -11 6.5t-11.5 7t-10 7.5t-10 8t-8 9t-7 11.5t-4 13t-1.5 15.5q0 28 20 49.5t49 21.5z" />
    <glyph glyph-name="oacute" unicode="&#xf3;" horiz-adv-x="1251" 
d="M618 997q250 0 393.5 -137.5t143.5 -370.5q0 -236 -148.5 -382t-379.5 -146q-245 0 -387 133t-142 385q0 234 143.5 376t376.5 142zM307 483q0 -204 84 -322t230 -118q147 0 236 119t89 319t-81.5 317t-235.5 117t-238 -112.5t-84 -319.5zM858 1470q29 0 49.5 -21.5
t20.5 -49.5q0 -9 -1.5 -17t-6 -15t-8 -11.5t-11.5 -10.5t-11.5 -8.5t-13 -8t-12.5 -7.5l-315 -197h-72l277 273q51 51 66 62t38 11z" />
    <glyph glyph-name="ocircumflex" unicode="&#xf4;" horiz-adv-x="1251" 
d="M618 997q250 0 393.5 -137.5t143.5 -370.5q0 -236 -148.5 -382t-379.5 -146q-245 0 -387 133t-142 385q0 234 143.5 376t376.5 142zM307 483q0 -204 84 -322t230 -118q147 0 236 119t89 319t-81.5 317t-235.5 117t-238 -112.5t-84 -319.5zM317 1124l252 342h115l250 -342
h-68l-239 215l-240 -215h-70z" />
    <glyph glyph-name="otilde" unicode="&#xf5;" horiz-adv-x="1251" 
d="M618 997q250 0 393.5 -137.5t143.5 -370.5q0 -236 -148.5 -382t-379.5 -146q-245 0 -387 133t-142 385q0 234 143.5 376t376.5 142zM307 483q0 -204 84 -322t230 -118q147 0 236 119t89 319t-81.5 317t-235.5 117t-238 -112.5t-84 -319.5zM901 1384h60q-23 -92 -80 -150
t-138 -58q-49 0 -101.5 23.5t-99 47t-79.5 23.5q-43 0 -74 -25t-41 -69h-55q15 89 75.5 144.5t143.5 55.5q39 0 137 -47t131 -47q43 0 72 24t49 78z" />
    <glyph glyph-name="odieresis" unicode="&#xf6;" horiz-adv-x="1251" 
d="M618 997q250 0 393.5 -137.5t143.5 -370.5q0 -236 -148.5 -382t-379.5 -146q-245 0 -387 133t-142 385q0 234 143.5 376t376.5 142zM307 483q0 -204 84 -322t230 -118q147 0 236 119t89 319t-81.5 317t-235.5 117t-238 -112.5t-84 -319.5zM424 1354q40 0 68 -28t28 -66
q0 -40 -27.5 -68.5t-68.5 -28.5q-39 0 -66.5 28t-27.5 69q0 38 28 66t66 28zM825 1354q40 0 68.5 -28t28.5 -66q0 -40 -28 -68.5t-69 -28.5q-39 0 -66.5 28t-27.5 69q0 38 28 66t66 28z" />
    <glyph glyph-name="divide" unicode="&#xf7;" horiz-adv-x="1214" 
d="M606 979q44 0 76.5 -31.5t32.5 -77.5q0 -44 -33 -76t-76 -32q-44 0 -76 32t-32 76t31 76.5t77 32.5zM92 563h1028v-123h-1028v123zM606 242q44 0 76.5 -32.5t32.5 -76.5q0 -46 -32.5 -77t-76.5 -31q-46 0 -77 32t-31 76t32.5 76.5t75.5 32.5z" />
    <glyph glyph-name="oslash" unicode="&#xf8;" horiz-adv-x="1251" 
d="M1077 1114q25 -28 62 -47q-68 -78 -154 -184q170 -139 170 -391q0 -161 -70 -282.5t-190.5 -185t-273.5 -63.5q-176 0 -314 82q-65 -78 -157 -203q-14 21 -25 29.5t-35 17.5q51 59 162 197q-84 81 -119 173.5t-35 219.5q0 131 42 232t116.5 163t171.5 93.5t211 31.5
q159 0 291 -75q117 151 147 192zM307 479q0 -161 51 -266q247 298 490 608q-85 94 -219 94q-84 0 -146.5 -33t-100.5 -92.5t-56.5 -137.5t-18.5 -173zM887 762q-16 -21 -160.5 -193.5t-333.5 -414.5q80 -111 228 -111t236.5 118.5t88.5 317.5q0 170 -59 283z" />
    <glyph glyph-name="ugrave" unicode="&#xf9;" horiz-adv-x="1251" 
d="M186 989q49 -12 105 -12q53 0 102 12q-5 -55 -11.5 -196.5t-6.5 -237.5q0 -50 0.5 -80.5t2.5 -75t6 -72t11.5 -63t18 -57t27 -45t37.5 -36t49 -20.5t63 -8q79 0 146 37.5t104 124.5q28 62 28 203q0 92 -4 277.5t-8 248.5q52 -12 111 -12q41 0 100 12q-20 -276 -20 -543
q0 -292 12 -456q-70 12 -101 12q-40 0 -96 -12q5 57 10 194q-52 -98 -141 -155.5t-196 -57.5q-169 0 -260 92.5t-91 264.5q0 2 3 112t5.5 219t2.5 107q0 97 -9 223zM395 1470q23 0 38.5 -11t66.5 -62l276 -273h-71l-316 197q-3 2 -11 6.5t-11.5 7t-10 7.5t-10 8t-8 9
t-7 11.5t-4 13t-1.5 15.5q0 28 20 49.5t49 21.5z" />
    <glyph glyph-name="uacute" unicode="&#xfa;" horiz-adv-x="1251" 
d="M186 989q49 -12 105 -12q53 0 102 12q-5 -55 -11.5 -196.5t-6.5 -237.5q0 -50 0.5 -80.5t2.5 -75t6 -72t11.5 -63t18 -57t27 -45t37.5 -36t49 -20.5t63 -8q79 0 146 37.5t104 124.5q28 62 28 203q0 92 -4 277.5t-8 248.5q52 -12 111 -12q41 0 100 12q-20 -276 -20 -543
q0 -292 12 -456q-70 12 -101 12q-40 0 -96 -12q5 57 10 194q-52 -98 -141 -155.5t-196 -57.5q-169 0 -260 92.5t-91 264.5q0 2 3 112t5.5 219t2.5 107q0 97 -9 223zM858 1470q29 0 49.5 -21.5t20.5 -49.5q0 -9 -1.5 -17t-6 -15t-8 -11.5t-11.5 -10.5t-11.5 -8.5t-13 -8
t-12.5 -7.5l-315 -197h-72l277 273q51 51 66 62t38 11z" />
    <glyph glyph-name="ucircumflex" unicode="&#xfb;" horiz-adv-x="1251" 
d="M186 989q49 -12 105 -12q53 0 102 12q-5 -55 -11.5 -196.5t-6.5 -237.5q0 -50 0.5 -80.5t2.5 -75t6 -72t11.5 -63t18 -57t27 -45t37.5 -36t49 -20.5t63 -8q79 0 146 37.5t104 124.5q28 62 28 203q0 92 -4 277.5t-8 248.5q52 -12 111 -12q41 0 100 12q-20 -276 -20 -543
q0 -292 12 -456q-70 12 -101 12q-40 0 -96 -12q5 57 10 194q-52 -98 -141 -155.5t-196 -57.5q-169 0 -260 92.5t-91 264.5q0 2 3 112t5.5 219t2.5 107q0 97 -9 223zM317 1124l252 342h115l250 -342h-68l-239 215l-240 -215h-70z" />
    <glyph glyph-name="udieresis" unicode="&#xfc;" horiz-adv-x="1251" 
d="M186 989q49 -12 105 -12q53 0 102 12q-5 -55 -11.5 -196.5t-6.5 -237.5q0 -50 0.5 -80.5t2.5 -75t6 -72t11.5 -63t18 -57t27 -45t37.5 -36t49 -20.5t63 -8q79 0 146 37.5t104 124.5q28 62 28 203q0 92 -4 277.5t-8 248.5q52 -12 111 -12q41 0 100 12q-20 -276 -20 -543
q0 -292 12 -456q-70 12 -101 12q-40 0 -96 -12q5 57 10 194q-52 -98 -141 -155.5t-196 -57.5q-169 0 -260 92.5t-91 264.5q0 2 3 112t5.5 219t2.5 107q0 97 -9 223zM424 1354q40 0 68 -28t28 -66q0 -40 -27.5 -68.5t-68.5 -28.5q-39 0 -66.5 28t-27.5 69q0 38 28 66t66 28z
M825 1354q40 0 68.5 -28t28.5 -66q0 -40 -28 -68.5t-69 -28.5q-39 0 -66.5 28t-27.5 69q0 38 28 66t66 28z" />
    <glyph glyph-name="yacute" unicode="&#xfd;" 
d="M12 989q58 -12 129 -12q62 0 111 12q69 -196 133 -367t96 -250t39 -91q3 -5 7 -12.5t5.5 -11t4.5 -7.5t5 -6t5 -3t6 -1q7 0 27 45q50 103 125 298t137 406q38 -12 90 -12q56 0 84 14q-25 -32 -139 -278q-21 -45 -109 -234t-129 -280.5t-108 -246t-110 -272.5t-71 -217
q-26 13 -71 13q-39 0 -93 -13q177 330 260 500q-53 128 -144.5 350.5t-123 298.5t-79 185t-87.5 192zM784 1470q29 0 49.5 -21.5t20.5 -49.5q0 -9 -1.5 -17t-6 -15t-7.5 -11.5t-11 -10.5t-11 -8t-13.5 -8.5t-12.5 -7.5l-316 -197h-72l277 273q51 51 66 62t38 11z" />
    <glyph glyph-name="thorn" unicode="&#xfe;" horiz-adv-x="1251" 
d="M698 999q194 0 325.5 -140t131.5 -359q0 -266 -145 -414q-124 -127 -322 -127q-118 0 -209.5 53.5t-124.5 137.5v-279q0 -246 11 -418q-49 12 -107 12q-52 0 -111 -12q23 377 23 801q0 814 -10 1247q49 -12 100 -12q48 0 100 12q-8 -118 -8 -178v-520q114 196 346 196z
M350 465q0 -199 76 -291q90 -111 225 -111q141 0 217 106.5t76 307.5q0 194 -78 307t-207 113q-149 0 -239 -125q-70 -96 -70 -307z" />
    <glyph glyph-name="ydieresis" unicode="&#xff;" 
d="M12 989q58 -12 129 -12q62 0 111 12q69 -196 133 -367t96 -250t39 -91q3 -5 7 -12.5t5.5 -11t4.5 -7.5t5 -6t5 -3t6 -1q7 0 27 45q50 103 125 298t137 406q38 -12 90 -12q56 0 84 14q-25 -32 -139 -278q-21 -45 -109 -234t-129 -280.5t-108 -246t-110 -272.5t-71 -217
q-26 13 -71 13q-39 0 -93 -13q177 330 260 500q-53 128 -144.5 350.5t-123 298.5t-79 185t-87.5 192zM319 1354q40 0 68.5 -28t28.5 -66q0 -40 -28 -68.5t-69 -28.5q-39 0 -66.5 28t-27.5 69q0 38 28 66t66 28zM721 1354q40 0 68 -28t28 -66q0 -40 -27.5 -68.5t-68.5 -28.5
q-39 0 -66.5 28t-27.5 69q0 38 28 66t66 28z" />
    <glyph glyph-name="Amacron" unicode="&#x100;" horiz-adv-x="1366" 
d="M631 1423q3 0 18.5 -3t32.5 -3q31 0 45 6q153 -420 614 -1433q-65 12 -120 12q-49 0 -131 -12q-39 134 -81 241t-126 295h-518q-124 -280 -191 -536q-62 12 -84 12q-28 0 -90 -12q473 1031 631 1433zM621 1137l-215 -508h436zM401 1675h545v-102h-545v102z" />
    <glyph glyph-name="amacron" unicode="&#x101;" 
d="M496 997q71 0 132.5 -17t113.5 -52t82 -96.5t30 -143.5q0 -40 -4 -198t-4 -254q0 -92 13.5 -130t62.5 -38q24 0 51 10l2 -58q-85 -45 -148 -45q-54 0 -96 34t-59 100q-73 -77 -145.5 -110.5t-164.5 -33.5q-131 0 -206.5 79.5t-75.5 195.5q0 43 10 79t25 62t41.5 47.5
t50.5 35.5t61 26.5t64.5 19.5t68.5 16l170 37q25 5 39 9.5t31.5 15t25 30.5t7.5 50q0 102 -63 162.5t-167 60.5q-173 0 -233 -152h-55l8 133q84 67 161.5 96t170.5 29zM279 258q0 -87 49.5 -131.5t124.5 -44.5q85 0 151 57.5t66 132.5v230q-101 -15 -172.5 -35t-113.5 -41
t-66 -50t-31.5 -55.5t-7.5 -62.5zM254 1311h545v-103h-545v103z" />
    <glyph glyph-name="Abreve" unicode="&#x102;" horiz-adv-x="1366" 
d="M631 1423q3 0 18.5 -3t32.5 -3q31 0 45 6q153 -420 614 -1433q-65 12 -120 12q-49 0 -131 -12q-39 134 -81 241t-126 295h-518q-124 -280 -191 -536q-62 12 -84 12q-28 0 -90 -12q473 1031 631 1433zM621 1137l-215 -508h436zM389 1796v10h55q17 -97 76.5 -149.5
t155.5 -52.5q185 0 225 202h57q-12 -154 -88 -235.5t-204 -81.5q-126 0 -201.5 81t-75.5 226z" />
    <glyph glyph-name="abreve" unicode="&#x103;" 
d="M496 997q71 0 132.5 -17t113.5 -52t82 -96.5t30 -143.5q0 -40 -4 -198t-4 -254q0 -92 13.5 -130t62.5 -38q24 0 51 10l2 -58q-85 -45 -148 -45q-54 0 -96 34t-59 100q-73 -77 -145.5 -110.5t-164.5 -33.5q-131 0 -206.5 79.5t-75.5 195.5q0 43 10 79t25 62t41.5 47.5
t50.5 35.5t61 26.5t64.5 19.5t68.5 16l170 37q25 5 39 9.5t31.5 15t25 30.5t7.5 50q0 102 -63 162.5t-167 60.5q-173 0 -233 -152h-55l8 133q84 67 161.5 96t170.5 29zM279 258q0 -87 49.5 -131.5t124.5 -44.5q85 0 151 57.5t66 132.5v230q-101 -15 -172.5 -35t-113.5 -41
t-66 -50t-31.5 -55.5t-7.5 -62.5zM244 1432v10h55q17 -98 76 -150.5t155 -52.5q186 0 226 203h57q-12 -154 -88.5 -236t-204.5 -82q-125 0 -200.5 81.5t-75.5 226.5z" />
    <glyph glyph-name="Aogonek" unicode="&#x104;" horiz-adv-x="1366" 
d="M631 1423q3 0 18.5 -3t32.5 -3q31 0 45 6q153 -420 614 -1433q-65 12 -120 12h-29q-97 -68 -141.5 -119t-44.5 -104q0 -45 34.5 -77t87.5 -32q73 0 129 56l33 -43q-127 -113 -237 -113q-73 0 -122.5 45t-49.5 111q0 68 51 132t158 132q-39 134 -81 241t-126 295h-518
q-124 -280 -191 -536q-62 12 -84 12q-28 0 -90 -12q473 1031 631 1433zM621 1137l-215 -508h436z" />
    <glyph glyph-name="aogonek" unicode="&#x105;" 
d="M496 997q71 0 132.5 -17t113.5 -52t82 -96.5t30 -143.5q0 -40 -4 -198t-4 -254q0 -92 13.5 -130t62.5 -38q24 0 51 10l2 -58q-76 -39 -121 -43q-80 -60 -116 -105.5t-36 -92.5q0 -45 35 -77t88 -32q73 0 129 56l33 -43q-127 -113 -237 -113q-73 0 -122.5 45t-49.5 111
q0 67 48 129.5t150 128.5q-82 28 -104 125q-73 -77 -145.5 -110.5t-164.5 -33.5q-131 0 -206.5 79.5t-75.5 195.5q0 43 10 79t25 62t41.5 47.5t50.5 35.5t61 26.5t64.5 19.5t68.5 16l170 37q25 5 39 9.5t31.5 15t25 30.5t7.5 50q0 102 -63 162.5t-167 60.5q-173 0 -233 -152
h-55l8 133q84 67 161.5 96t170.5 29zM279 258q0 -87 49.5 -131.5t124.5 -44.5q85 0 151 57.5t66 132.5v230q-101 -15 -172.5 -35t-113.5 -41t-66 -50t-31.5 -55.5t-7.5 -62.5z" />
    <glyph glyph-name="Cacute" unicode="&#x106;" horiz-adv-x="1478" 
d="M897 1421q268 0 506 -108q-24 -64 -32 -97t-17 -108h-21q-49 98 -175.5 161.5t-268.5 63.5q-247 0 -393 -171.5t-146 -461.5q0 -151 44.5 -274t121.5 -201t176 -120t211 -42q141 0 263 55.5t204 155.5l25 -10q-18 -81 -23 -166q-228 -133 -508 -133q-229 0 -400.5 94.5
t-261 260t-89.5 378.5q0 155 50 286t145.5 229t246.5 153t342 55zM1087 1835q29 0 49.5 -22t20.5 -50q0 -9 -1.5 -17t-6 -15t-8 -11.5t-11 -10t-11 -8t-13 -8t-12.5 -7.5l-316 -197h-71l276 272q52 52 67 63t37 11z" />
    <glyph glyph-name="cacute" unicode="&#x107;" 
d="M635 999q195 0 338 -81q-29 -65 -45 -175h-25q-66 170 -252 170q-165 0 -254.5 -109.5t-89.5 -307.5q0 -216 101 -327.5t262 -111.5q74 0 150 29.5t124 81.5l19 -6q-14 -40 -23 -119q-49 -34 -128 -57t-175 -23q-272 0 -416 160q-127 142 -127 356q0 238 145 379t396 141
zM795 1470q29 0 49 -21.5t20 -49.5q0 -9 -1.5 -17t-6 -15t-7.5 -11.5t-11 -10.5t-11 -8t-13.5 -8.5t-12.5 -7.5l-316 -197h-71l276 273q51 51 66.5 62t38.5 11z" />
    <glyph glyph-name="Ccircumflex" unicode="&#x108;" horiz-adv-x="1478" 
d="M897 1421q268 0 506 -108q-24 -64 -32 -97t-17 -108h-21q-49 98 -175.5 161.5t-268.5 63.5q-247 0 -393 -171.5t-146 -461.5q0 -151 44.5 -274t121.5 -201t176 -120t211 -42q141 0 263 55.5t204 155.5l25 -10q-18 -81 -23 -166q-228 -133 -508 -133q-229 0 -400.5 94.5
t-261 260t-89.5 378.5q0 155 50 286t145.5 229t246.5 153t342 55zM578 1489l251 342h115l250 -342h-68l-239 215l-240 -215h-69z" />
    <glyph glyph-name="ccircumflex" unicode="&#x109;" 
d="M635 999q195 0 338 -81q-29 -65 -45 -175h-25q-66 170 -252 170q-165 0 -254.5 -109.5t-89.5 -307.5q0 -216 101 -327.5t262 -111.5q74 0 150 29.5t124 81.5l19 -6q-14 -40 -23 -119q-49 -34 -128 -57t-175 -23q-272 0 -416 160q-127 142 -127 356q0 238 145 379t396 141
zM254 1124l252 342h115l249 -342h-67l-240 215l-239 -215h-70z" />
    <glyph glyph-name="Cdotaccent" unicode="&#x10a;" horiz-adv-x="1478" 
d="M897 1421q268 0 506 -108q-24 -64 -32 -97t-17 -108h-21q-49 98 -175.5 161.5t-268.5 63.5q-247 0 -393 -171.5t-146 -461.5q0 -151 44.5 -274t121.5 -201t176 -120t211 -42q141 0 263 55.5t204 155.5l25 -10q-18 -81 -23 -166q-228 -133 -508 -133q-229 0 -400.5 94.5
t-261 260t-89.5 378.5q0 155 50 286t145.5 229t246.5 153t342 55zM887 1743q41 0 69.5 -29t28.5 -72q0 -39 -28.5 -68.5t-69.5 -29.5q-43 0 -72 28.5t-29 69.5t30 71t71 30z" />
    <glyph glyph-name="cdotaccent" unicode="&#x10b;" 
d="M635 999q195 0 338 -81q-29 -65 -45 -175h-25q-66 170 -252 170q-165 0 -254.5 -109.5t-89.5 -307.5q0 -216 101 -327.5t262 -111.5q74 0 150 29.5t124 81.5l19 -6q-14 -40 -23 -119q-49 -34 -128 -57t-175 -23q-272 0 -416 160q-127 142 -127 356q0 238 145 379t396 141
zM594 1378q41 0 69.5 -29.5t28.5 -70.5q0 -39 -28.5 -68.5t-69.5 -29.5q-43 0 -71.5 28.5t-28.5 69.5t29.5 70.5t70.5 29.5z" />
    <glyph glyph-name="Ccaron" unicode="&#x10c;" horiz-adv-x="1478" 
d="M897 1421q268 0 506 -108q-24 -64 -32 -97t-17 -108h-21q-49 98 -175.5 161.5t-268.5 63.5q-247 0 -393 -171.5t-146 -461.5q0 -151 44.5 -274t121.5 -201t176 -120t211 -42q141 0 263 55.5t204 155.5l25 -10q-18 -81 -23 -166q-228 -133 -508 -133q-229 0 -400.5 94.5
t-261 260t-89.5 378.5q0 155 50 286t145.5 229t246.5 153t342 55zM829 1489l-251 342h69l240 -215l239 215h68l-250 -342h-115z" />
    <glyph glyph-name="ccaron" unicode="&#x10d;" 
d="M635 999q195 0 338 -81q-29 -65 -45 -175h-25q-66 170 -252 170q-165 0 -254.5 -109.5t-89.5 -307.5q0 -216 101 -327.5t262 -111.5q74 0 150 29.5t124 81.5l19 -6q-14 -40 -23 -119q-49 -34 -128 -57t-175 -23q-272 0 -416 160q-127 142 -127 356q0 238 145 379t396 141
zM526 1124l-252 342h70l240 -215l239 215h68l-250 -342h-115z" />
    <glyph glyph-name="Dcaron" unicode="&#x10e;" horiz-adv-x="1593" 
d="M170 1411q98 -5 304.5 -6t266.5 -2q146 -3 267 -29q100 -23 184.5 -74t151 -128t104 -187.5t37.5 -243.5q0 -182 -59.5 -326.5t-165 -236.5t-246 -140t-307.5 -48q-2 0 -76.5 2t-155 4t-96.5 2q-69 0 -217 -8q24 343 24 680q0 512 -16 741zM389 1303q-10 -212 -10 -541
q0 -513 6 -666q86 -12 193 -12q196 0 308 31.5t199 113.5q81 77 126.5 201.5t45.5 282.5q0 330 -202 485q-50 39 -107 63.5t-123 34.5t-113.5 12.5t-119.5 2.5q-142 0 -203 -8zM633 1489l-252 342h70l239 -215l240 215h67l-249 -342h-115z" />
    <glyph glyph-name="dcaron" unicode="&#x10f;" horiz-adv-x="1251" 
d="M883 1501q56 -12 102 -12q51 0 113 12q-21 -439 -21 -868q0 -321 6 -643q-49 12 -96 12q-41 0 -100 -12q6 99 6 166q-52 -95 -145.5 -145t-202.5 -50q-85 0 -164.5 32.5t-145.5 94t-105.5 162t-39.5 225.5q0 234 130 380t337 146q117 0 207 -51t127 -139v80q0 21 1 82.5
t1 99.5q0 161 -10 428zM301 483q0 -195 77.5 -307.5t205.5 -112.5q144 0 228.5 104t84.5 318q0 105 -14.5 167.5t-46.5 111.5q-84 133 -244 133q-138 0 -214.5 -107t-76.5 -307zM1339 1489q29 0 48.5 -14t19.5 -41q0 -22 -10 -45q-11 -27 -185 -261q-20 17 -45 17l66 246
q13 53 38.5 75.5t67.5 22.5z" />
    <glyph glyph-name="Dcroat" unicode="&#x110;" horiz-adv-x="1593" 
d="M170 1411q98 -5 304.5 -6t266.5 -2q146 -3 267 -29q100 -23 184.5 -74t151 -128t104 -187.5t37.5 -243.5q0 -182 -59.5 -326.5t-165 -236.5t-246 -140t-307.5 -48q-2 0 -76.5 2t-155 4t-96.5 2q-69 0 -217 -8q22 266 22 680v57q-32 0 -96 -2.5t-92 -3.5q0 1 1 6.5t2 15.5
t1 23q0 37 -4 57q49 -6 188 -6q-3 420 -14 594zM389 1303q-10 -195 -10 -486q262 0 362 6q-4 -20 -4 -55q0 -31 4 -47q-175 6 -362 6q0 -484 6 -631q86 -12 193 -12q196 0 308 31.5t199 113.5q81 77 126.5 201.5t45.5 282.5q0 330 -202 485q-50 39 -107 63.5t-123 34.5
t-113.5 12.5t-119.5 2.5q-142 0 -203 -8z" />
    <glyph glyph-name="dcroat" unicode="&#x111;" horiz-adv-x="1251" 
d="M883 1501q56 -12 102 -12q51 0 113 12l-11 -254q98 0 166 6q-4 -20 -4 -55q0 -1 4 -47q-16 0 -72.5 3t-97.5 3q-6 -258 -6 -524q0 -321 6 -643q-49 12 -96 12q-41 0 -100 -12q6 99 6 166q-52 -95 -145.5 -145t-202.5 -50q-85 0 -164.5 32.5t-145.5 94t-105.5 162
t-39.5 225.5q0 234 130 380t337 146q117 0 207 -51t127 -139v80q0 21 1 82.5t1 99.5l-2 84q-166 0 -322 -6q4 24 4 45t-4 57q105 -6 322 -6q-4 177 -8 254zM301 483q0 -195 77.5 -307.5t205.5 -112.5q144 0 228.5 104t84.5 318q0 105 -14.5 167.5t-46.5 111.5
q-84 133 -244 133q-138 0 -214.5 -107t-76.5 -307z" />
    <glyph glyph-name="Emacron" unicode="&#x112;" 
d="M172 1405q139 -12 422 -12q192 0 317 12q-8 -54 -8 -72q0 -29 8 -65q-84 16 -155.5 21t-190.5 5q-84 0 -178 -4q-4 -39 -4 -235q0 -210 2 -267q27 0 84 -1t84 -1q158 0 315 17q-8 -46 -8 -70q0 -13 3.5 -33t4.5 -30q-161 20 -319 20q-30 0 -68.5 -1t-65.5 -2t-30 -1
q0 -3 -1 -38.5t-2 -97.5t-1 -130q0 -137 6 -320q305 0 539 25q-8 -50 -8 -70q0 -29 8 -65q-91 12 -224 12q-237 0 -536 -12q22 274 22 725q0 433 -16 690zM279 1675h544v-102h-544v102z" />
    <glyph glyph-name="emacron" unicode="&#x113;" horiz-adv-x="1138" 
d="M592 995q218 0 333 -119.5t115 -361.5v-27h-735v-8q0 -116 21 -181.5t67 -123.5q91 -115 254 -115q208 0 326 166l24 -6q-12 -87 -14 -123q-136 -133 -381 -133q-233 0 -367.5 137t-134.5 375q0 237 131.5 378.5t360.5 141.5zM307 573h529q0 168 -62.5 254t-185.5 86
q-245 0 -281 -340zM319 1311h545v-103h-545v103z" />
    <glyph glyph-name="Ebreve" unicode="&#x114;" 
d="M172 1405q139 -12 422 -12q192 0 317 12q-8 -54 -8 -72q0 -29 8 -65q-84 16 -155.5 21t-190.5 5q-84 0 -178 -4q-4 -39 -4 -235q0 -210 2 -267q27 0 84 -1t84 -1q158 0 315 17q-8 -46 -8 -70q0 -13 3.5 -33t4.5 -30q-161 20 -319 20q-30 0 -68.5 -1t-65.5 -2t-30 -1
q0 -3 -1 -38.5t-2 -97.5t-1 -130q0 -137 6 -320q305 0 539 25q-8 -50 -8 -70q0 -29 8 -65q-91 12 -224 12q-237 0 -536 -12q22 274 22 725q0 433 -16 690zM266 1796v10h56q17 -98 76 -150t155 -52q185 0 225 202h58q-12 -154 -88.5 -235.5t-204.5 -81.5q-126 0 -201.5 81
t-75.5 226z" />
    <glyph glyph-name="ebreve" unicode="&#x115;" horiz-adv-x="1138" 
d="M592 995q218 0 333 -119.5t115 -361.5v-27h-735v-8q0 -116 21 -181.5t67 -123.5q91 -115 254 -115q208 0 326 166l24 -6q-12 -87 -14 -123q-136 -133 -381 -133q-233 0 -367.5 137t-134.5 375q0 237 131.5 378.5t360.5 141.5zM307 573h529q0 168 -62.5 254t-185.5 86
q-245 0 -281 -340zM307 1432v10h55q17 -98 76.5 -150.5t155.5 -52.5q185 0 225 203h58q-12 -154 -88.5 -236t-204.5 -82q-125 0 -201 81.5t-76 226.5z" />
    <glyph glyph-name="Edotaccent" unicode="&#x116;" 
d="M172 1405q139 -12 422 -12q192 0 317 12q-8 -54 -8 -72q0 -29 8 -65q-84 16 -155.5 21t-190.5 5q-84 0 -178 -4q-4 -39 -4 -235q0 -210 2 -267q27 0 84 -1t84 -1q158 0 315 17q-8 -46 -8 -70q0 -13 3.5 -33t4.5 -30q-161 20 -319 20q-30 0 -68.5 -1t-65.5 -2t-30 -1
q0 -3 -1 -38.5t-2 -97.5t-1 -130q0 -137 6 -320q305 0 539 25q-8 -50 -8 -70q0 -29 8 -65q-91 12 -224 12q-237 0 -536 -12q22 274 22 725q0 433 -16 690zM551 1743q41 0 69.5 -29t28.5 -72q0 -39 -28.5 -68.5t-69.5 -29.5q-43 0 -71.5 28.5t-28.5 69.5t29.5 71t70.5 30z
" />
    <glyph glyph-name="edotaccent" unicode="&#x117;" horiz-adv-x="1138" 
d="M592 995q218 0 333 -119.5t115 -361.5v-27h-735v-8q0 -116 21 -181.5t67 -123.5q91 -115 254 -115q208 0 326 166l24 -6q-12 -87 -14 -123q-136 -133 -381 -133q-233 0 -367.5 137t-134.5 375q0 237 131.5 378.5t360.5 141.5zM307 573h529q0 168 -62.5 254t-185.5 86
q-245 0 -281 -340zM592 1378q41 0 69.5 -29.5t28.5 -70.5q0 -39 -28.5 -68.5t-69.5 -29.5q-43 0 -71.5 28.5t-28.5 69.5t29.5 70.5t70.5 29.5z" />
    <glyph glyph-name="Eogonek" unicode="&#x118;" 
d="M172 1405q139 -12 422 -12q192 0 317 12q-8 -54 -8 -72q0 -29 8 -65q-84 16 -155.5 21t-190.5 5q-84 0 -178 -4q-4 -39 -4 -235q0 -210 2 -267q27 0 84 -1t84 -1q158 0 315 17q-8 -46 -8 -70q0 -13 3.5 -33t4.5 -30q-161 20 -319 20q-30 0 -68.5 -1t-65.5 -2t-30 -1
q0 -3 -1 -38.5t-2 -97.5t-1 -130q0 -137 6 -320q305 0 539 25q-8 -50 -8 -70q0 -29 8 -65q-55 8 -160 12q-97 -68 -141.5 -119t-44.5 -104q0 -45 34.5 -77t87.5 -32q73 0 129 56l33 -43q-127 -113 -237 -113q-73 0 -122.5 45t-49.5 111q0 72 55.5 138.5t173.5 137.5
q-233 0 -518 -12q22 274 22 725q0 433 -16 690z" />
    <glyph glyph-name="eogonek" unicode="&#x119;" horiz-adv-x="1138" 
d="M592 995q218 0 333 -119.5t115 -361.5v-27h-735v-8q0 -116 21 -181.5t67 -123.5q91 -115 254 -115q208 0 326 166l24 -6q-12 -87 -14 -123q-114 -111 -301 -129q-72 -55 -105.5 -98.5t-33.5 -89.5q0 -45 35 -77t88 -32q73 0 129 56l32 -43q-127 -113 -237 -113
q-73 0 -122.5 45t-49.5 111q0 119 170 237q-227 5 -357.5 141t-130.5 371q0 237 131.5 378.5t360.5 141.5zM307 573h529q0 168 -62.5 254t-185.5 86q-245 0 -281 -340z" />
    <glyph glyph-name="Ecaron" unicode="&#x11a;" 
d="M172 1405q139 -12 422 -12q192 0 317 12q-8 -54 -8 -72q0 -29 8 -65q-84 16 -155.5 21t-190.5 5q-84 0 -178 -4q-4 -39 -4 -235q0 -210 2 -267q27 0 84 -1t84 -1q158 0 315 17q-8 -46 -8 -70q0 -13 3.5 -33t4.5 -30q-161 20 -319 20q-30 0 -68.5 -1t-65.5 -2t-30 -1
q0 -3 -1 -38.5t-2 -97.5t-1 -130q0 -137 6 -320q305 0 539 25q-8 -50 -8 -70q0 -29 8 -65q-91 12 -224 12q-237 0 -536 -12q22 274 22 725q0 433 -16 690zM494 1489l-252 342h69l240 -215l240 215h67l-250 -342h-114z" />
    <glyph glyph-name="ecaron" unicode="&#x11b;" horiz-adv-x="1138" 
d="M592 995q218 0 333 -119.5t115 -361.5v-27h-735v-8q0 -116 21 -181.5t67 -123.5q91 -115 254 -115q208 0 326 166l24 -6q-12 -87 -14 -123q-136 -133 -381 -133q-233 0 -367.5 137t-134.5 375q0 237 131.5 378.5t360.5 141.5zM307 573h529q0 168 -62.5 254t-185.5 86
q-245 0 -281 -340zM535 1124l-252 342h69l240 -215l239 215h68l-250 -342h-114z" />
    <glyph glyph-name="Gcircumflex" unicode="&#x11c;" horiz-adv-x="1593" 
d="M885 1423q142 0 290 -31t263 -89q-50 -112 -70 -209h-22q-144 241 -455 241q-118 0 -220 -41t-179 -118.5t-121.5 -199t-44.5 -271.5q0 -153 48 -278.5t129.5 -205.5t184.5 -123t217 -43q199 0 318 78l2 244q0 130 -13 252q70 -13 119 -13q50 0 111 13q-21 -220 -21 -404
q0 -78 6 -147q-194 -67 -312.5 -91t-256.5 -24q-170 0 -313.5 55t-242.5 151t-154.5 231t-55.5 292q0 155 49.5 286.5t145.5 231.5t249.5 156.5t348.5 56.5zM569 1489l252 342h115l250 -342h-68l-239 215l-240 -215h-70z" />
    <glyph glyph-name="gcircumflex" unicode="&#x11d;" horiz-adv-x="1138" 
d="M535 999q72 0 162.5 -15t185.5 -15q78 0 186 8q-6 -40 -6 -51q0 -7 1 -16t2.5 -20.5t2.5 -17.5q-63 5 -123 5h-65q86 -73 86 -197q0 -156 -113 -246t-297 -90q-16 0 -77 4t-70 4q-37 0 -62.5 -28t-25.5 -70q0 -38 17 -60t68.5 -35.5t145.5 -13.5q25 0 78 1t74 1
q187 0 276 -75q86 -73 86 -203q0 -91 -54 -192t-147 -156q-71 -43 -150 -64.5t-190 -21.5q-206 0 -320 85.5t-114 221.5q0 183 225 266q-151 42 -151 170q0 71 47 125.5t119 75.5q-98 37 -148.5 110.5t-50.5 176.5q0 151 111 242t291 91zM328 657q0 -115 57.5 -179
t157.5 -64q109 0 169 73t60 197q0 115 -61.5 180.5t-161.5 65.5q-105 0 -163 -71.5t-58 -201.5zM246 -238q0 -110 87.5 -176.5t235.5 -66.5q149 0 238.5 72.5t89.5 185.5q0 108 -86.5 164.5t-247.5 56.5q-152 0 -234.5 -61.5t-82.5 -174.5zM262 1124l252 342h115l250 -342
h-68l-240 215l-239 -215h-70z" />
    <glyph glyph-name="Gbreve" unicode="&#x11e;" horiz-adv-x="1593" 
d="M885 1423q142 0 290 -31t263 -89q-50 -112 -70 -209h-22q-144 241 -455 241q-118 0 -220 -41t-179 -118.5t-121.5 -199t-44.5 -271.5q0 -153 48 -278.5t129.5 -205.5t184.5 -123t217 -43q199 0 318 78l2 244q0 130 -13 252q70 -13 119 -13q50 0 111 13q-21 -220 -21 -404
q0 -78 6 -147q-194 -67 -312.5 -91t-256.5 -24q-170 0 -313.5 55t-242.5 151t-154.5 231t-55.5 292q0 155 49.5 286.5t145.5 231.5t249.5 156.5t348.5 56.5zM596 1796v10h55q17 -97 76.5 -149.5t155.5 -52.5q185 0 225 202h57q-12 -154 -88.5 -235.5t-204.5 -81.5
q-125 0 -200.5 81t-75.5 226z" />
    <glyph glyph-name="gbreve" unicode="&#x11f;" horiz-adv-x="1138" 
d="M535 999q72 0 162.5 -15t185.5 -15q78 0 186 8q-6 -40 -6 -51q0 -7 1 -16t2.5 -20.5t2.5 -17.5q-63 5 -123 5h-65q86 -73 86 -197q0 -156 -113 -246t-297 -90q-16 0 -77 4t-70 4q-37 0 -62.5 -28t-25.5 -70q0 -38 17 -60t68.5 -35.5t145.5 -13.5q25 0 78 1t74 1
q187 0 276 -75q86 -73 86 -203q0 -91 -54 -192t-147 -156q-71 -43 -150 -64.5t-190 -21.5q-206 0 -320 85.5t-114 221.5q0 183 225 266q-151 42 -151 170q0 71 47 125.5t119 75.5q-98 37 -148.5 110.5t-50.5 176.5q0 151 111 242t291 91zM328 657q0 -115 57.5 -179
t157.5 -64q109 0 169 73t60 197q0 115 -61.5 180.5t-161.5 65.5q-105 0 -163 -71.5t-58 -201.5zM246 -238q0 -110 87.5 -176.5t235.5 -66.5q149 0 238.5 72.5t89.5 185.5q0 108 -86.5 164.5t-247.5 56.5q-152 0 -234.5 -61.5t-82.5 -174.5zM299 1432v10h55
q17 -98 76.5 -150.5t155.5 -52.5q185 0 225 203h57q-12 -154 -88.5 -236t-204.5 -82q-125 0 -200.5 81.5t-75.5 226.5z" />
    <glyph glyph-name="Gdotaccent" unicode="&#x120;" horiz-adv-x="1593" 
d="M885 1423q142 0 290 -31t263 -89q-50 -112 -70 -209h-22q-144 241 -455 241q-118 0 -220 -41t-179 -118.5t-121.5 -199t-44.5 -271.5q0 -153 48 -278.5t129.5 -205.5t184.5 -123t217 -43q199 0 318 78l2 244q0 130 -13 252q70 -13 119 -13q50 0 111 13q-21 -220 -21 -404
q0 -78 6 -147q-194 -67 -312.5 -91t-256.5 -24q-170 0 -313.5 55t-242.5 151t-154.5 231t-55.5 292q0 155 49.5 286.5t145.5 231.5t249.5 156.5t348.5 56.5zM879 1743q41 0 69.5 -29t28.5 -72q0 -39 -28.5 -68.5t-69.5 -29.5q-43 0 -72 28.5t-29 69.5t30 71t71 30z" />
    <glyph glyph-name="gdotaccent" unicode="&#x121;" horiz-adv-x="1138" 
d="M535 999q72 0 162.5 -15t185.5 -15q78 0 186 8q-6 -40 -6 -51q0 -7 1 -16t2.5 -20.5t2.5 -17.5q-63 5 -123 5h-65q86 -73 86 -197q0 -156 -113 -246t-297 -90q-16 0 -77 4t-70 4q-37 0 -62.5 -28t-25.5 -70q0 -38 17 -60t68.5 -35.5t145.5 -13.5q25 0 78 1t74 1
q187 0 276 -75q86 -73 86 -203q0 -91 -54 -192t-147 -156q-71 -43 -150 -64.5t-190 -21.5q-206 0 -320 85.5t-114 221.5q0 183 225 266q-151 42 -151 170q0 71 47 125.5t119 75.5q-98 37 -148.5 110.5t-50.5 176.5q0 151 111 242t291 91zM328 657q0 -115 57.5 -179
t157.5 -64q109 0 169 73t60 197q0 115 -61.5 180.5t-161.5 65.5q-105 0 -163 -71.5t-58 -201.5zM246 -238q0 -110 87.5 -176.5t235.5 -66.5q149 0 238.5 72.5t89.5 185.5q0 108 -86.5 164.5t-247.5 56.5q-152 0 -234.5 -61.5t-82.5 -174.5zM571 1378q41 0 70 -29.5t29 -70.5
q0 -39 -29 -68.5t-70 -29.5q-43 0 -71.5 28.5t-28.5 69.5t29.5 70.5t70.5 29.5z" />
    <glyph glyph-name="Gcommaaccent" unicode="&#x122;" horiz-adv-x="1593" 
d="M885 1423q142 0 290 -31t263 -89q-50 -112 -70 -209h-22q-144 241 -455 241q-118 0 -220 -41t-179 -118.5t-121.5 -199t-44.5 -271.5q0 -153 48 -278.5t129.5 -205.5t184.5 -123t217 -43q199 0 318 78l2 244q0 130 -13 252q70 -13 119 -13q50 0 111 13q-21 -220 -21 -404
q0 -78 6 -147q-194 -67 -312.5 -91t-256.5 -24q-170 0 -313.5 55t-242.5 151t-154.5 231t-55.5 292q0 155 49.5 286.5t145.5 231.5t249.5 156.5t348.5 56.5zM891 -72q29 0 48 -13.5t19 -41.5q0 -22 -10 -45q-12 -27 -184 -260q-19 16 -45 16l65 246q13 53 39 75.5t68 22.5z
" />
    <glyph glyph-name="gcommaaccent" unicode="&#x123;" horiz-adv-x="1138" 
d="M535 999q72 0 162.5 -15t185.5 -15q78 0 186 8q-6 -40 -6 -51q0 -7 1 -16t2.5 -20.5t2.5 -17.5q-63 5 -123 5h-65q86 -73 86 -197q0 -156 -113 -246t-297 -90q-16 0 -77 4t-70 4q-37 0 -62.5 -28t-25.5 -70q0 -38 17 -60t68.5 -35.5t145.5 -13.5q25 0 78 1t74 1
q187 0 276 -75q86 -73 86 -203q0 -91 -54 -192t-147 -156q-71 -43 -150 -64.5t-190 -21.5q-206 0 -320 85.5t-114 221.5q0 183 225 266q-151 42 -151 170q0 71 47 125.5t119 75.5q-98 37 -148.5 110.5t-50.5 176.5q0 151 111 242t291 91zM328 657q0 -115 57.5 -179
t157.5 -64q109 0 169 73t60 197q0 115 -61.5 180.5t-161.5 65.5q-105 0 -163 -71.5t-58 -201.5zM246 -238q0 -110 87.5 -176.5t235.5 -66.5q149 0 238.5 72.5t89.5 185.5q0 108 -86.5 164.5t-247.5 56.5q-152 0 -234.5 -61.5t-82.5 -174.5zM539 1124q-29 0 -48.5 14
t-19.5 42q0 22 10 45q10 24 185 260q20 -17 45 -17l-66 -245q-13 -53 -38.5 -76t-67.5 -23z" />
    <glyph glyph-name="Hcircumflex" unicode="&#x124;" horiz-adv-x="1593" 
d="M190 1407q54 -12 115 -12q53 0 115 12q-14 -287 -14 -479v-117q185 -8 411 -8q270 0 375 6l2 211q0 129 -12 387q52 -12 114 -12t115 12q-22 -423 -22 -977q0 -191 12 -440q-68 12 -107 12q-48 0 -116 -12q3 46 8.5 202t5.5 177v315q-216 6 -231 6h-240q-167 0 -315 -4
v-278q0 -281 4 -418q-62 12 -111 12q-47 0 -117 -12q27 473 27 704q0 165 -19 713zM487 1489l252 342h115l250 -342h-68l-239 215l-240 -215h-70z" />
    <glyph glyph-name="hcircumflex" unicode="&#x125;" horiz-adv-x="1251" 
d="M178 1253l-8 248q70 -12 106 -12q41 0 111 12q-6 -91 -8 -174t-4 -233.5t-6 -298.5q57 98 149 149t211 51q352 0 352 -350q0 -42 -4 -230t-4 -210q0 -48 0.5 -87t1.5 -60.5t2 -36.5t1.5 -22t0.5 -9q-47 12 -104 12q-67 0 -109 -12q19 236 19 538q0 185 -57.5 263.5
t-180.5 78.5q-96 0 -158 -45q-70 -49 -95 -117.5t-25 -228.5q0 -286 14 -489q-49 12 -111 12q-64 0 -106 -12q14 304 14 502v538q0 160 -2 223zM227 1636l252 342h115l250 -342h-68l-239 215l-240 -215h-70z" />
    <glyph glyph-name="Hbar" unicode="&#x126;" horiz-adv-x="1593" 
d="M190 1407q54 -12 115 -12q53 0 115 12l-10 -262l176 -4q72 -2 190 -2h219q103 0 197 4q-1 38 -4 104.5t-4.5 106.5t-1.5 53q52 -12 114 -12t115 12q-22 -423 -22 -977q0 -191 12 -440q-68 12 -107 12q-48 0 -116 -12q3 46 8.5 202t5.5 177v315q-216 6 -231 6h-240
q-167 0 -315 -4v-278q0 -281 4 -418q-62 12 -111 12q-47 0 -117 -12q27 473 27 704q0 165 -19 713zM629 1036l-223 -4v-221q185 -8 411 -8q270 0 375 6l2 221q-26 1 -110 3.5t-123 2.5h-332z" />
    <glyph glyph-name="hbar" unicode="&#x127;" horiz-adv-x="1251" 
d="M180 1247l-8 254q70 -12 107 -12q40 0 110 12q-10 -153 -10 -254q213 0 319 6q-4 -23 -4 -57q0 -17 4 -45q-135 6 -321 6q0 -125 -6 -362q57 98 149 149t211 51q352 0 352 -350q0 -42 -4 -230t-4 -210q0 -48 0.5 -87t1.5 -60.5t2 -36.5t1.5 -22t0.5 -9q-47 12 -104 12
q-67 0 -109 -12q19 236 19 538q0 185 -57.5 263.5t-180.5 78.5q-95 0 -157 -45q-70 -49 -95.5 -118t-25.5 -228q0 -286 14 -489q-49 12 -111 12q-64 0 -106 -12q14 304 14 502v538q0 22 -1 64t-1 63q-32 -1 -90 -3.5t-76 -2.5q6 46 4 70q0 12 -4 32q47 -6 166 -6z" />
    <glyph glyph-name="Itilde" unicode="&#x128;" horiz-adv-x="681" 
d="M227 1407q54 -12 113 -12q67 0 119 12q-17 -287 -17 -733q0 -324 15 -684q-71 12 -127 12q-48 0 -109 -12q21 315 21 665q0 457 -15 752zM612 1749h60q-23 -93 -79.5 -151t-137.5 -58q-49 0 -102 23.5t-99.5 47t-79.5 23.5q-43 0 -74 -25t-41 -69h-55q15 90 75.5 145.5
t143.5 55.5q39 0 137.5 -47t131.5 -47q43 0 71.5 24t48.5 78z" />
    <glyph glyph-name="itilde" unicode="&#x129;" horiz-adv-x="569" 
d="M180 981q52 -12 101 -12q57 0 106 12q-12 -225 -12 -539q0 -120 14 -452q-37 12 -100 12q-65 0 -107 -12q15 334 15 522q0 222 -17 469zM563 1384h60q-23 -93 -79.5 -150.5t-137.5 -57.5q-49 0 -102 23.5t-99.5 47t-79.5 23.5q-43 0 -74 -25t-41 -69h-55
q15 89 75.5 144.5t143.5 55.5q39 0 137 -47t131 -47q43 0 72 24t49 78z" />
    <glyph glyph-name="Imacron" unicode="&#x12a;" horiz-adv-x="681" 
d="M227 1407q54 -12 113 -12q67 0 119 12q-17 -287 -17 -733q0 -324 15 -684q-71 12 -127 12q-48 0 -109 -12q21 315 21 665q0 457 -15 752zM66 1675h544v-102h-544v102z" />
    <glyph glyph-name="imacron" unicode="&#x12b;" horiz-adv-x="569" 
d="M180 981q52 -12 101 -12q57 0 106 12q-12 -225 -12 -539q0 -120 14 -452q-37 12 -100 12q-65 0 -107 -12q15 334 15 522q0 222 -17 469zM16 1311h545v-103h-545v103z" />
    <glyph glyph-name="Ibreve" unicode="&#x12c;" horiz-adv-x="681" 
d="M227 1407q54 -12 113 -12q67 0 119 12q-17 -287 -17 -733q0 -324 15 -684q-71 12 -127 12q-48 0 -109 -12q21 315 21 665q0 457 -15 752zM59 1796v10h56q17 -98 76 -150t155 -52q185 0 225 202h58q-12 -154 -88.5 -235.5t-204.5 -81.5q-126 0 -201.5 81t-75.5 226z" />
    <glyph glyph-name="ibreve" unicode="&#x12d;" horiz-adv-x="569" 
d="M180 981q52 -12 101 -12q57 0 106 12q-12 -225 -12 -539q0 -120 14 -452q-37 12 -100 12q-65 0 -107 -12q15 334 15 522q0 222 -17 469zM0 1432v10h55q17 -98 76.5 -150.5t155.5 -52.5q185 0 225 203h57q-12 -154 -88.5 -236t-204.5 -82q-125 0 -200.5 81.5t-75.5 226.5z
" />
    <glyph glyph-name="Iogonek" unicode="&#x12e;" horiz-adv-x="681" 
d="M227 1407q54 -12 113 -12q67 0 119 12q-17 -287 -17 -733q0 -324 15 -684q-20 4 -56 8q-94 -66 -137 -116.5t-43 -102.5q0 -45 35 -77t88 -32q73 0 129 56l33 -43q-127 -113 -238 -113q-73 0 -122.5 45t-49.5 111q0 71 56 138t174 138q-46 0 -105 -12q21 315 21 665
q0 457 -15 752z" />
    <glyph glyph-name="iogonek" unicode="&#x12f;" horiz-adv-x="569" 
d="M180 981q52 -12 101 -12q57 0 106 12q-12 -225 -12 -539q0 -120 14 -452q-29 8 -45 10q-97 -69 -140.5 -118.5t-43.5 -102.5q0 -45 35 -77t88 -32q73 0 129 56l32 -43q-127 -113 -237 -113q-73 0 -122.5 45t-49.5 111q0 72 55.5 138.5t173.5 137.5q-53 -3 -82 -12
q15 334 15 522q0 222 -17 469zM289 1430q45 0 78.5 -32.5t33.5 -80.5q0 -45 -32.5 -78t-79.5 -33t-79 33t-32 78q0 47 33 80t78 33z" />
    <glyph glyph-name="Idotaccent" unicode="&#x130;" horiz-adv-x="681" 
d="M227 1407q54 -12 113 -12q67 0 119 12q-17 -287 -17 -733q0 -324 15 -684q-71 12 -127 12q-48 0 -109 -12q21 315 21 665q0 457 -15 752zM346 1743q41 0 69.5 -29t28.5 -72q0 -39 -28.5 -68.5t-69.5 -29.5q-43 0 -71.5 28.5t-28.5 69.5t29.5 71t70.5 30z" />
    <glyph glyph-name="dotlessi" unicode="&#x131;" horiz-adv-x="569" 
d="M180 981q52 -12 101 -12q57 0 106 12q-12 -225 -12 -539q0 -120 14 -452q-37 12 -100 12q-65 0 -107 -12q15 334 15 522q0 222 -17 469z" />
    <glyph glyph-name="Jcircumflex" unicode="&#x134;" horiz-adv-x="681" 
d="M250 1407q58 -12 123 -12q45 0 119 12q-23 -360 -23 -743q0 -13 1 -191t1 -205q0 -92 -1.5 -136.5t-11 -101t-28.5 -98.5q-105 -221 -391 -237l-10 65q76 11 118.5 36t73.5 98q16 38 24 83.5t14.5 203t6.5 444.5q0 143 -1 255.5t-3 196.5t-3.5 129.5t-4.5 113t-4 87.5z
M61 1489l252 342h115l250 -342h-68l-239 215l-240 -215h-70z" />
    <glyph glyph-name="jcircumflex" unicode="&#x135;" horiz-adv-x="569" 
d="M180 981q52 -12 111 -12q49 0 110 12q-14 -269 -14 -481q0 -502 -2 -588q-3 -191 -91 -312t-251 -141l-6 62q44 9 76 41t48 70t25 94.5t11 96t2 93.5q0 52 1 231.5t1 268.5q0 224 -21 565zM-20 1124l251 342h115l250 -342h-68l-239 215l-240 -215h-69z" />
    <glyph glyph-name="Kcommaaccent" unicode="&#x136;" horiz-adv-x="1251" 
d="M176 1407q65 -12 123 -12q61 0 107 12q-17 -204 -17 -393q0 -59 0.5 -121t1 -101.5t0.5 -43.5q155 124 252 221q118 118 245 254.5t154 183.5q61 -12 107 -12q31 0 92 12l4 -12q-13 -10 -34 -28t-56.5 -51t-69 -64.5t-93.5 -88t-109 -102.5q-85 -80 -160.5 -153
t-105.5 -102.5t-31 -29.5q136 -158 383 -435.5t276 -303.5v-47q-52 12 -129 12q-91 0 -145 -12q-46 81 -151.5 211.5t-191 226.5t-233.5 258l-6 -8v-260q0 -225 17 -428q-50 12 -115 12q-53 0 -121 -12q17 271 21 380.5t4 323.5q0 276 -3 380.5t-16 332.5zM633 -72
q29 0 48 -13.5t19 -41.5q0 -22 -10 -45q-12 -27 -184 -260q-19 16 -45 16l65 246q13 53 39 75.5t68 22.5z" />
    <glyph glyph-name="kcommaaccent" unicode="&#x137;" horiz-adv-x="1138" 
d="M188 1501q58 -12 109 -12q47 0 106 12q-16 -214 -20 -534q-4 -308 -4 -328q0 -67 2 -80.5t14 -13.5t142 122q11 10 17 15.5t15.5 15t18.5 17.5q172 163 243 266q37 -12 103 -12q60 0 110 12l-466 -408l317 -372q9 -11 80.5 -85t101.5 -108v-18q-65 12 -131 12
q-51 0 -129 -12q-106 150 -252 317q-123 141 -138 154q-16 14 -30 14q-16 0 -16 -35l2 -170q0 -116 16 -280q-59 12 -108 12q-57 0 -103 -12q9 175 9 606v365q0 273 -9 540zM584 -72q29 0 48 -13.5t19 -41.5q0 -22 -10 -45q-12 -27 -184 -260q-19 16 -45 16l65 246
q13 53 39 75.5t68 22.5z" />
    <glyph glyph-name="kgreenlandic" unicode="&#x138;" horiz-adv-x="1138" 
d="M188 989q58 -12 109 -12q47 0 106 12q-3 -59 -8.5 -161t-9.5 -176t-4 -79q0 -18 3 -23t11 -5q12 0 142 122q11 10 17 15.5t15.5 15t18.5 17.5q172 163 243 266q37 -12 103 -12q60 0 110 12l-466 -408l317 -372q9 -11 80.5 -85t101.5 -108v-18q-65 12 -131 12
q-51 0 -129 -12q-106 150 -252 317q-123 141 -138 154q-16 14 -30 14q-16 0 -16 -35l2 -110q6 -207 16 -340q-59 12 -108 12q-57 0 -103 -12q9 175 9 606q0 126 -9 393z" />
    <glyph glyph-name="Lacute" unicode="&#x139;" 
d="M190 1407q64 -12 111 -12q51 0 129 12q-18 -519 -18 -942v-359q43 -4 174 -4q244 0 387 25q-8 -44 -8 -68q0 -36 8 -69q-1 0 -29.5 1t-75 3t-101.5 4t-119.5 3t-117.5 1q-180 0 -342 -12q19 323 19 733q0 331 -17 684zM526 1835q29 0 49.5 -22t20.5 -50q0 -11 -3 -20.5
t-6.5 -15.5t-12 -13t-12.5 -9.5t-15.5 -9.5t-14.5 -9l-315 -197h-72l277 272q52 52 67 63t37 11z" />
    <glyph glyph-name="lacute" unicode="&#x13a;" horiz-adv-x="569" 
d="M176 1501q59 -12 107 -12q49 0 108 12q-14 -378 -14 -766q0 -360 16 -745q-60 14 -110 14q-45 0 -105 -14q12 154 12 901q0 366 -14 610zM498 1925q29 0 49 -22t20 -50q0 -9 -1.5 -17t-6 -15t-8 -11.5t-11 -10t-11 -8t-13 -8t-12.5 -7.5l-316 -197h-71l276 272
q51 52 67 63t38 11z" />
    <glyph glyph-name="Lcommaaccent" unicode="&#x13b;" 
d="M190 1407q64 -12 111 -12q51 0 129 12q-18 -519 -18 -942v-359q43 -4 174 -4q244 0 387 25q-8 -44 -8 -68q0 -36 8 -69q-1 0 -29.5 1t-75 3t-101.5 4t-119.5 3t-117.5 1q-180 0 -342 -12q19 323 19 733q0 331 -17 684zM596 -72q29 0 48.5 -14t19.5 -41q0 -19 -11 -45
q-12 -27 -184 -260q-19 16 -45 16l65 246q13 53 39 75.5t68 22.5z" />
    <glyph glyph-name="lcommaaccent" unicode="&#x13c;" horiz-adv-x="569" 
d="M176 1501q59 -12 107 -12q49 0 108 12q-14 -378 -14 -766q0 -360 16 -745q-60 14 -110 14q-45 0 -105 -14q12 154 12 901q0 366 -14 610zM317 -72q29 0 48.5 -14t19.5 -41q0 -22 -10 -45q-10 -24 -185 -260q-19 16 -45 16l66 246q13 53 38.5 75.5t67.5 22.5z" />
    <glyph glyph-name="Lcaron" unicode="&#x13d;" 
d="M190 1407q64 -12 111 -12q51 0 129 12q-18 -519 -18 -942v-359q43 -4 174 -4q244 0 387 25q-8 -44 -8 -68q0 -36 8 -69q-1 0 -29.5 1t-75 3t-101.5 4t-119.5 3t-117.5 1q-180 0 -342 -12q19 323 19 733q0 331 -17 684zM684 1489q29 0 48.5 -14t19.5 -41q0 -19 -11 -45
q-13 -30 -184 -261q-20 17 -45 17l66 246q13 53 38.5 75.5t67.5 22.5z" />
    <glyph glyph-name="lcaron" unicode="&#x13e;" horiz-adv-x="569" 
d="M176 1501q59 -12 107 -12q49 0 108 12q-14 -378 -14 -766q0 -360 16 -745q-60 14 -110 14q-45 0 -105 -14q12 154 12 901q0 366 -14 610zM639 1489q28 0 48 -14t20 -39q0 -34 -21 -66l-174 -242q-20 17 -45 17l68 254q13 48 38 69t66 21z" />
    <glyph glyph-name="Ldot" unicode="&#x13f;" 
d="M190 1407q64 -12 111 -12q51 0 129 12q-18 -519 -18 -942v-359q43 -4 174 -4q244 0 387 25q-8 -44 -8 -68q0 -36 8 -69q-1 0 -29.5 1t-75 3t-101.5 4t-119.5 3t-117.5 1q-180 0 -342 -12q19 323 19 733q0 331 -17 684zM805 784q41 0 69.5 -29.5t28.5 -70.5
q0 -39 -28.5 -68.5t-69.5 -29.5q-43 0 -71.5 28.5t-28.5 69.5t29.5 70.5t70.5 29.5z" />
    <glyph glyph-name="ldot" unicode="&#x140;" horiz-adv-x="796" 
d="M176 1501q59 -12 107 -12q49 0 108 12q-14 -378 -14 -766q0 -360 16 -745q-60 14 -110 14q-45 0 -105 -14q12 154 12 901q0 366 -14 610zM664 784q41 0 69.5 -29.5t28.5 -70.5q0 -39 -28.5 -68.5t-69.5 -29.5q-43 0 -72 28.5t-29 69.5t30 70.5t71 29.5z" />
    <glyph glyph-name="Lslash" unicode="&#x141;" 
d="M211 1407q64 -12 113 -12t127 12q-15 -440 -17 -619q207 94 344 173q21 -58 53 -97l-186 -86q-183 -84 -211 -98l-2 -574q43 -4 176 -4q244 0 387 25q-8 -44 -8 -68q0 -36 8 -69q-1 0 -29.5 1t-75 3t-101 4t-119 3t-117.5 1q-180 0 -342 -12q15 261 18 594
q-63 -25 -204 -99q-36 65 -66 84q30 11 49.5 19t33.5 13.5t35.5 15.5t33.5 16t51 25t67 32v33q0 311 -18 684z" />
    <glyph glyph-name="lslash" unicode="&#x142;" horiz-adv-x="569" 
d="M176 1501q59 -12 107 -12q49 0 108 12q-14 -390 -14 -612q100 39 196 96q6 -14 13.5 -26.5t12 -18t13 -15.5t11.5 -14q-195 -79 -246 -106v-70q0 -360 16 -745q-60 14 -110 14q-45 0 -105 -14q12 152 12 731l-170 -82q-18 37 -49 68q174 70 219 94v90q0 366 -14 610z" />
    <glyph glyph-name="Nacute" unicode="&#x143;" horiz-adv-x="1593" 
d="M193 1415q10 -4 32 -4q29 0 43 4q169 -196 238 -268l368 -389q190 -199 406 -418v356q0 434 -27 719q47 -12 80 -12q42 0 88 12q-35 -295 -35 -840q0 -326 3 -428l6 -170q-6 1 -18.5 3t-20.5 2q-4 0 -9 -1t-12 -2t-12 -2q-208 253 -502 541q-202 197 -516 531v-129
q0 -414 33 -930q-46 12 -86 12q-30 0 -80 -12q27 270 27 674q0 71 -3 358.5t-3 392.5zM1030 1835q29 0 49.5 -22t20.5 -50q0 -11 -3 -20.5t-6.5 -15.5t-12 -13t-12.5 -9.5t-15.5 -9.5t-14.5 -9l-315 -197h-72l277 272q52 52 67 63t37 11z" />
    <glyph glyph-name="nacute" unicode="&#x144;" horiz-adv-x="1251" 
d="M729 995q352 0 352 -350q0 -19 -2 -128t-4 -210t-2 -102q0 -48 0.5 -87t1.5 -60.5t2 -36.5t1.5 -22t0.5 -9q-47 12 -104 12q-59 0 -109 -12q19 236 19 532q0 183 -55.5 265.5t-182.5 82.5q-87 0 -152.5 -41.5t-95.5 -109.5q-32 -75 -32 -389q0 -132 16 -340
q-59 12 -109 12q-56 0 -108 -12q20 263 20 555q0 157 -10 444q65 -12 103 -12q34 0 100 12l-10 -194q53 95 146 147.5t214 52.5zM852 1470q29 0 49.5 -21.5t20.5 -49.5q0 -9 -1.5 -17t-6 -15t-8 -11.5t-11.5 -10.5t-11.5 -8.5t-13 -8t-12.5 -7.5l-315 -197h-72l277 273
q51 51 66 62t38 11z" />
    <glyph glyph-name="Ncommaaccent" unicode="&#x145;" horiz-adv-x="1593" 
d="M193 1415q10 -4 32 -4q29 0 43 4q169 -196 238 -268l368 -389q190 -199 406 -418v356q0 434 -27 719q47 -12 80 -12q42 0 88 12q-35 -295 -35 -840q0 -326 3 -428l6 -170q-6 1 -18.5 3t-20.5 2q-4 0 -9 -1t-12 -2t-12 -2q-208 253 -502 541q-202 197 -516 531v-129
q0 -414 33 -930q-46 12 -86 12q-30 0 -80 -12q27 270 27 674q0 71 -3 358.5t-3 392.5zM831 -72q29 0 48.5 -14t19.5 -41q0 -22 -10 -45q-12 -27 -184 -260q-19 16 -46 16l66 246q13 53 38.5 75.5t67.5 22.5z" />
    <glyph glyph-name="ncommaaccent" unicode="&#x146;" horiz-adv-x="1251" 
d="M729 995q352 0 352 -350q0 -19 -2 -128t-4 -210t-2 -102q0 -48 0.5 -87t1.5 -60.5t2 -36.5t1.5 -22t0.5 -9q-47 12 -104 12q-59 0 -109 -12q19 236 19 532q0 183 -55.5 265.5t-182.5 82.5q-87 0 -152.5 -41.5t-95.5 -109.5q-32 -75 -32 -389q0 -132 16 -340
q-59 12 -109 12q-56 0 -108 -12q20 263 20 555q0 157 -10 444q65 -12 103 -12q34 0 100 12l-10 -194q53 95 146 147.5t214 52.5zM649 -72q29 0 48.5 -14t19.5 -41q0 -22 -10 -45q-10 -24 -185 -260q-19 16 -45 16l66 246q13 53 38.5 75.5t67.5 22.5z" />
    <glyph glyph-name="Ncaron" unicode="&#x147;" horiz-adv-x="1593" 
d="M193 1415q10 -4 32 -4q29 0 43 4q169 -196 238 -268l368 -389q190 -199 406 -418v356q0 434 -27 719q47 -12 80 -12q42 0 88 12q-35 -295 -35 -840q0 -326 3 -428l6 -170q-6 1 -18.5 3t-20.5 2q-4 0 -9 -1t-12 -2t-12 -2q-208 253 -502 541q-202 197 -516 531v-129
q0 -414 33 -930q-46 12 -86 12q-30 0 -80 -12q27 270 27 674q0 71 -3 358.5t-3 392.5zM735 1489l-252 342h70l240 -215l239 215h68l-250 -342h-115z" />
    <glyph glyph-name="ncaron" unicode="&#x148;" horiz-adv-x="1251" 
d="M729 995q352 0 352 -350q0 -19 -2 -128t-4 -210t-2 -102q0 -48 0.5 -87t1.5 -60.5t2 -36.5t1.5 -22t0.5 -9q-47 12 -104 12q-59 0 -109 -12q19 236 19 532q0 183 -55.5 265.5t-182.5 82.5q-87 0 -152.5 -41.5t-95.5 -109.5q-32 -75 -32 -389q0 -132 16 -340
q-59 12 -109 12q-56 0 -108 -12q20 263 20 555q0 157 -10 444q65 -12 103 -12q34 0 100 12l-10 -194q53 95 146 147.5t214 52.5zM565 1124l-252 342h70l240 -215l239 215h68l-250 -342h-115z" />
    <glyph glyph-name="Eng" unicode="&#x14a;" horiz-adv-x="1593" 
d="M1432 631l2 -547q0 -104 -1 -153t-8 -108t-22 -102q-38 -109 -146 -183.5t-256 -78.5l-10 66q147 14 210 79.5t71 184.5q11 180 16 305q-63 74 -280 272.5t-340 321.5l-363 361v-129q3 -318 8.5 -467t24.5 -463q-46 12 -86 12t-80 -12q27 317 27 663q0 127 -3 381t-3 381
q20 -4 32 -4q15 0 43 4q109 -130 228 -259t239.5 -246.5t201.5 -194.5t185 -172q106 -98 162 -154q0 59 2 168t2 217q0 300 -16 641q35 -6 86 -6q25 0 45 2.5t34.5 6t16.5 3.5q-8 -95 -13.5 -292.5t-6.5 -347.5z" />
    <glyph glyph-name="eng" unicode="&#x14b;" horiz-adv-x="1251" 
d="M729 995q352 0 352 -350q0 -5 -3 -146t-3 -212l-2 -355q-1 -213 -91 -333.5t-251 -139.5l-6 62q34 7 60 27.5t43 45.5t29 67.5t17.5 75t8.5 87t3.5 85t0.5 87.5q0 89 -1 277.5t-1 248.5q0 183 -55.5 265.5t-182.5 82.5q-87 0 -152.5 -41.5t-95.5 -109.5q-32 -75 -32 -389
q0 -132 16 -340q-59 12 -109 12q-56 0 -108 -12q20 263 20 555q0 157 -10 444q65 -12 103 -12q34 0 100 12l-10 -194q53 95 146 147.5t214 52.5z" />
    <glyph glyph-name="Omacron" unicode="&#x14c;" horiz-adv-x="1820" 
d="M922 1425q230 0 406 -90.5t270 -249.5t94 -362q0 -169 -56.5 -311t-159 -242t-250.5 -155.5t-325 -55.5q-220 0 -394 85.5t-275 250.5t-101 383q0 340 209 543.5t582 203.5zM365 690q0 -292 149.5 -467.5t390.5 -175.5q247 0 400 173.5t153 469.5q0 327 -155 492
q-67 72 -173.5 113.5t-220.5 41.5q-87 0 -166.5 -24t-149 -76t-120 -127t-79.5 -182.5t-29 -237.5zM641 1675h545v-102h-545v102z" />
    <glyph glyph-name="omacron" unicode="&#x14d;" horiz-adv-x="1251" 
d="M618 997q250 0 393.5 -137.5t143.5 -370.5q0 -236 -148.5 -382t-379.5 -146q-245 0 -387 133t-142 385q0 234 143.5 376t376.5 142zM307 483q0 -204 84 -322t230 -118q147 0 236 119t89 319t-81.5 317t-235.5 117t-238 -112.5t-84 -319.5zM352 1311h545v-103h-545v103z
" />
    <glyph glyph-name="Obreve" unicode="&#x14e;" horiz-adv-x="1820" 
d="M922 1425q230 0 406 -90.5t270 -249.5t94 -362q0 -169 -56.5 -311t-159 -242t-250.5 -155.5t-325 -55.5q-220 0 -394 85.5t-275 250.5t-101 383q0 340 209 543.5t582 203.5zM365 690q0 -292 149.5 -467.5t390.5 -175.5q247 0 400 173.5t153 469.5q0 327 -155 492
q-67 72 -173.5 113.5t-220.5 41.5q-87 0 -166.5 -24t-149 -76t-120 -127t-79.5 -182.5t-29 -237.5zM631 1796v10h55q17 -97 76.5 -149.5t155.5 -52.5q185 0 225 202h57q-12 -154 -88.5 -235.5t-204.5 -81.5q-125 0 -200.5 81t-75.5 226z" />
    <glyph glyph-name="obreve" unicode="&#x14f;" horiz-adv-x="1251" 
d="M618 997q250 0 393.5 -137.5t143.5 -370.5q0 -236 -148.5 -382t-379.5 -146q-245 0 -387 133t-142 385q0 234 143.5 376t376.5 142zM307 483q0 -204 84 -322t230 -118q147 0 236 119t89 319t-81.5 317t-235.5 117t-238 -112.5t-84 -319.5zM342 1432v10h55
q17 -98 76.5 -150.5t155.5 -52.5q185 0 225 203h57q-12 -154 -88.5 -236t-204.5 -82q-125 0 -200.5 81.5t-75.5 226.5z" />
    <glyph glyph-name="Ohungarumlaut" unicode="&#x150;" horiz-adv-x="1820" 
d="M922 1425q230 0 406 -90.5t270 -249.5t94 -362q0 -169 -56.5 -311t-159 -242t-250.5 -155.5t-325 -55.5q-220 0 -394 85.5t-275 250.5t-101 383q0 340 209 543.5t582 203.5zM365 690q0 -292 149.5 -467.5t390.5 -175.5q247 0 400 173.5t153 469.5q0 327 -155 492
q-67 72 -173.5 113.5t-220.5 41.5q-87 0 -166.5 -24t-149 -76t-120 -127t-79.5 -182.5t-29 -237.5zM1032 1831q27 0 45.5 -18.5t18.5 -43.5q0 -39 -43 -73q-11 -9 -40.5 -35.5t-87.5 -77.5t-120 -106h-49l198 301q35 53 78 53zM1274 1831q27 0 45 -18.5t18 -43.5
q0 -39 -43 -73q-10 -9 -40 -35.5t-87 -77.5t-120 -106h-50l199 301q35 53 78 53z" />
    <glyph glyph-name="ohungarumlaut" unicode="&#x151;" horiz-adv-x="1251" 
d="M618 997q250 0 393.5 -137.5t143.5 -370.5q0 -236 -148.5 -382t-379.5 -146q-245 0 -387 133t-142 385q0 234 143.5 376t376.5 142zM307 483q0 -204 84 -322t230 -118q147 0 236 119t89 319t-81.5 317t-235.5 117t-238 -112.5t-84 -319.5zM725 1466q27 0 45 -18t18 -43
q0 -40 -43 -74q-10 -9 -40 -35.5t-87 -77.5t-120 -106h-49l198 301q35 53 78 53zM967 1466q27 0 45 -18t18 -43q0 -40 -43 -74q-11 -9 -40.5 -35.5t-87.5 -77.5t-120 -106h-49l199 301q35 53 78 53z" />
    <glyph glyph-name="OE" unicode="&#x152;" horiz-adv-x="2048" 
d="M823 1425q304 0 484 -225v105l-7 100q155 -12 390 -12q176 0 303 12q-8 -54 -8 -74q0 -36 8 -63q-87 14 -181.5 19t-310.5 5l-2 -504q309 0 445 19q-9 -46 -9 -66q0 -29 9 -67q-115 12 -445 12q0 -473 4 -584q225 0 316.5 5t187.5 18q-8 -33 -8 -74q0 -33 8 -61
q-96 12 -299 12q-280 0 -405 -12q4 58 4 102v115q-173 -248 -514 -248q-110 0 -209.5 30.5t-182.5 91.5t-144.5 146.5t-95.5 203t-34 253.5q0 178 53.5 320.5t147.5 233.5t220 139t275 48zM354 698q0 -188 54 -333.5t160.5 -229.5t250.5 -84q239 0 363.5 173.5t124.5 490.5
q0 291 -123 454.5t-355 163.5q-149 0 -259 -88.5t-163 -230.5t-53 -316z" />
    <glyph glyph-name="oe" unicode="&#x153;" horiz-adv-x="1935" 
d="M621 997q249 0 403 -170q71 90 158 129t200 39q233 0 345 -123.5t112 -384.5h-727q0 -200 93 -314t247 -114q193 0 326 168l18 -10q-5 -21 -16 -119q-129 -135 -379 -135q-130 0 -222 43.5t-163 140.5q-63 -88 -172 -137t-242 -49q-228 0 -366 139.5t-138 366.5
q0 243 139.5 386.5t383.5 143.5zM307 481q0 -115 26.5 -202.5t71 -137t96 -74t107.5 -24.5q59 0 114 25.5t102 76t75.5 137.5t28.5 199q0 199 -79 316.5t-233 117.5q-148 0 -228.5 -113.5t-80.5 -320.5zM1114 573h518q0 340 -243 340q-116 0 -189 -86t-86 -254z" />
    <glyph glyph-name="Racute" unicode="&#x154;" horiz-adv-x="1251" 
d="M186 1407q106 -8 193 -8q36 0 107.5 1t107.5 1q220 0 307 -35q193 -77 193 -297q0 -152 -98 -243.5t-304 -123.5q81 -116 271 -358l258 -330v-24q-86 12 -121 12q-33 0 -148 -12q-143 222 -250 370t-251 316h-54v-166q0 -282 15 -520q-58 12 -119 12q-51 0 -109 -12
q15 366 15 776q0 188 -13 641zM399 1307q-4 -122 -4 -156q0 -131 0.5 -219t1 -128.5t0.5 -55.5q45 -5 62 -5q230 0 332 88q90 75 90 216q0 135 -86.5 202.5t-268.5 67.5q-53 0 -127 -10zM823 1835q29 0 49.5 -22t20.5 -50q0 -11 -3 -20.5t-6.5 -15.5t-12 -13t-12.5 -9.5
t-15.5 -9.5t-14.5 -9l-315 -197h-72l277 272q52 52 67 63t37 11z" />
    <glyph glyph-name="racute" unicode="&#x155;" horiz-adv-x="796" 
d="M717 997q7 0 20.5 -1t20.5 -1q-19 -75 -19 -118q0 -36 4 -72l-14 -10q-36 17 -54.5 21.5t-49.5 4.5q-59 0 -111 -26t-84 -78q-22 -36 -31.5 -93.5t-9.5 -207.5q0 -136 6 -276t6 -150q-42 12 -110 12q-53 0 -103 -12q14 129 18.5 222t4.5 290q0 234 -16 487
q49 -12 104 -12q62 0 104 12q-16 -133 -16 -231q51 118 137.5 178.5t192.5 60.5zM627 1470q29 0 49 -21.5t20 -49.5q0 -9 -1.5 -17t-6 -15t-7.5 -11.5t-11 -10.5t-11 -8t-13.5 -8.5t-12.5 -7.5l-316 -197h-71l276 273q51 51 66.5 62t38.5 11z" />
    <glyph glyph-name="Rcommaaccent" unicode="&#x156;" horiz-adv-x="1251" 
d="M186 1407q106 -8 193 -8q36 0 107.5 1t107.5 1q220 0 307 -35q193 -77 193 -297q0 -152 -98 -243.5t-304 -123.5q81 -116 271 -358l258 -330v-24q-86 12 -121 12q-33 0 -148 -12q-143 222 -250 370t-251 316h-54v-166q0 -282 15 -520q-58 12 -119 12q-51 0 -109 -12
q15 366 15 776q0 188 -13 641zM399 1307q-4 -122 -4 -156q0 -131 0.5 -219t1 -128.5t0.5 -55.5q45 -5 62 -5q230 0 332 88q90 75 90 216q0 135 -86.5 202.5t-268.5 67.5q-53 0 -127 -10zM670 -72q29 0 48 -13.5t19 -41.5q0 -22 -10 -45q-12 -27 -184 -260q-19 16 -45 16
l65 246q13 53 39 75.5t68 22.5z" />
    <glyph glyph-name="rcommaaccent" unicode="&#x157;" horiz-adv-x="796" 
d="M717 997q7 0 20.5 -1t20.5 -1q-19 -75 -19 -118q0 -36 4 -72l-14 -10q-36 17 -54.5 21.5t-49.5 4.5q-59 0 -111 -26t-84 -78q-22 -36 -31.5 -93.5t-9.5 -207.5q0 -136 6 -276t6 -150q-42 12 -110 12q-53 0 -103 -12q14 129 18.5 222t4.5 290q0 234 -16 487
q49 -12 104 -12q62 0 104 12q-16 -133 -16 -231q51 118 137.5 178.5t192.5 60.5zM328 -72q29 0 48 -13.5t19 -41.5q0 -22 -10 -45q-12 -27 -184 -260q-19 16 -45 16l65 246q13 53 39 75.5t68 22.5z" />
    <glyph glyph-name="Rcaron" unicode="&#x158;" horiz-adv-x="1251" 
d="M186 1407q106 -8 193 -8q36 0 107.5 1t107.5 1q220 0 307 -35q193 -77 193 -297q0 -152 -98 -243.5t-304 -123.5q81 -116 271 -358l258 -330v-24q-86 12 -121 12q-33 0 -148 -12q-143 222 -250 370t-251 316h-54v-166q0 -282 15 -520q-58 12 -119 12q-51 0 -109 -12
q15 366 15 776q0 188 -13 641zM399 1307q-4 -122 -4 -156q0 -131 0.5 -219t1 -128.5t0.5 -55.5q45 -5 62 -5q230 0 332 88q90 75 90 216q0 135 -86.5 202.5t-268.5 67.5q-53 0 -127 -10zM524 1489l-252 342h70l240 -215l239 215h68l-250 -342h-115z" />
    <glyph glyph-name="rcaron" unicode="&#x159;" horiz-adv-x="796" 
d="M717 997q7 0 20.5 -1t20.5 -1q-19 -75 -19 -118q0 -36 4 -72l-14 -10q-36 17 -54.5 21.5t-49.5 4.5q-59 0 -111 -26t-84 -78q-22 -36 -31.5 -93.5t-9.5 -207.5q0 -136 6 -276t6 -150q-42 12 -110 12q-53 0 -103 -12q14 129 18.5 222t4.5 290q0 234 -16 487
q49 -12 104 -12q62 0 104 12q-16 -133 -16 -231q51 118 137.5 178.5t192.5 60.5zM338 1124l-252 342h70l239 -215l240 215h67l-249 -342h-115z" />
    <glyph glyph-name="Sacute" unicode="&#x15a;" horiz-adv-x="1138" 
d="M608 1423q91 0 186 -26t162 -68q-51 -100 -59 -182h-29q-32 95 -105 142.5t-179 47.5q-124 0 -193 -67t-69 -168q0 -36 9 -66.5t22.5 -54t40 -45.5t51.5 -37.5t68 -34.5t77 -32.5t91 -34.5q7 -3 11 -4q161 -59 239.5 -141.5t78.5 -229.5q0 -126 -60.5 -229.5
t-175.5 -165.5t-264 -62q-235 0 -387 113q17 62 22 92q1 9 5 29t6.5 38t3.5 33h26q50 -99 140 -156t200 -57q141 0 223 76.5t82 196.5q0 93 -49.5 155t-165.5 111l-233 98q-122 52 -175.5 134.5t-53.5 199.5q0 181 127 288t327 107zM797 1835q29 0 49 -22t20 -50
q0 -9 -1.5 -17t-6 -15t-8 -11.5t-11 -10t-11 -8t-13 -8t-12.5 -7.5l-316 -197h-71l276 272q52 51 67.5 62.5t37.5 11.5z" />
    <glyph glyph-name="sacute" unicode="&#x15b;" horiz-adv-x="909" 
d="M479 997q145 0 271 -67q-28 -68 -41 -172h-27q-14 73 -68.5 115t-144.5 42q-91 0 -140.5 -42.5t-49.5 -110.5q0 -131 198 -182q69 -17 114 -32t88.5 -38t68 -51.5t39 -70t14.5 -95.5q0 -145 -104 -238.5t-287 -93.5q-178 0 -306 86q30 58 48 164l24 6q29 -83 98 -128.5
t162 -45.5t150 45t57 123q0 20 -3.5 36.5t-8 30t-16.5 26t-20.5 21t-29 19t-33.5 16.5t-42.5 16.5t-47 16t-55.5 17.5q-137 42 -199.5 110.5t-62.5 169.5q0 134 94 220.5t260 86.5zM676 1470q29 0 49 -21.5t20 -49.5q0 -9 -1.5 -17t-6 -15t-7.5 -11.5t-11 -10.5t-11 -8
t-13.5 -8.5t-12.5 -7.5l-315 -197h-72l276 273q51 51 66.5 62t38.5 11z" />
    <glyph glyph-name="Scircumflex" unicode="&#x15c;" horiz-adv-x="1138" 
d="M608 1423q91 0 186 -26t162 -68q-51 -100 -59 -182h-29q-32 95 -105 142.5t-179 47.5q-124 0 -193 -67t-69 -168q0 -36 9 -66.5t22.5 -54t40 -45.5t51.5 -37.5t68 -34.5t77 -32.5t91 -34.5q7 -3 11 -4q161 -59 239.5 -141.5t78.5 -229.5q0 -126 -60.5 -229.5
t-175.5 -165.5t-264 -62q-235 0 -387 113q17 62 22 92q1 9 5 29t6.5 38t3.5 33h26q50 -99 140 -156t200 -57q141 0 223 76.5t82 196.5q0 93 -49.5 155t-165.5 111l-233 98q-122 52 -175.5 134.5t-53.5 199.5q0 181 127 288t327 107zM262 1489l252 342h115l250 -342h-68
l-240 215l-239 -215h-70z" />
    <glyph glyph-name="scircumflex" unicode="&#x15d;" horiz-adv-x="909" 
d="M479 997q145 0 271 -67q-28 -68 -41 -172h-27q-14 73 -68.5 115t-144.5 42q-91 0 -140.5 -42.5t-49.5 -110.5q0 -131 198 -182q69 -17 114 -32t88.5 -38t68 -51.5t39 -70t14.5 -95.5q0 -145 -104 -238.5t-287 -93.5q-178 0 -306 86q30 58 48 164l24 6q29 -83 98 -128.5
t162 -45.5t150 45t57 123q0 20 -3.5 36.5t-8 30t-16.5 26t-20.5 21t-29 19t-33.5 16.5t-42.5 16.5t-47 16t-55.5 17.5q-137 42 -199.5 110.5t-62.5 169.5q0 134 94 220.5t260 86.5zM139 1124l252 342h115l250 -342h-68l-239 215l-240 -215h-70z" />
    <glyph glyph-name="Scedilla" unicode="&#x15e;" horiz-adv-x="1138" 
d="M440 -213l78 178h-8q-235 0 -387 113q17 62 22 92q1 9 5 29t6.5 38t3.5 33h26q50 -99 140 -156t200 -57q141 0 223 76.5t82 196.5q0 93 -49.5 155t-165.5 111l-233 98q-122 52 -175.5 134.5t-53.5 199.5q0 181 127 288t327 107q91 0 186 -26t162 -68q-51 -100 -59 -182
h-29q-32 95 -105 142.5t-179 47.5q-124 0 -193 -67t-69 -168q0 -36 9 -66.5t22.5 -54t40 -45.5t51.5 -37.5t68 -34.5t77 -32.5t91 -34.5q7 -3 11 -4q161 -59 239.5 -141.5t78.5 -229.5q0 -175 -114 -301.5t-304 -149.5l-53 -118q41 12 71 12q66 0 112 -40t46 -104
q0 -83 -69.5 -127.5t-172.5 -44.5q-60 0 -172 33l29 62q70 -25 125 -25q58 0 88.5 24t30.5 62q0 35 -24.5 58.5t-72.5 23.5q-29 0 -57 -12z" />
    <glyph glyph-name="scedilla" unicode="&#x15f;" horiz-adv-x="909" 
d="M344 -213l78 174h-12q-178 0 -306 86q30 58 48 164l24 6q29 -83 98 -128.5t162 -45.5t150 45t57 123q0 20 -3.5 36.5t-8 30t-16.5 26t-20.5 21t-29 19t-33.5 16.5t-42.5 16.5t-47 16t-55.5 17.5q-137 42 -199.5 110.5t-62.5 169.5q0 134 94 220.5t260 86.5q145 0 271 -67
q-28 -68 -41 -172h-27q-14 73 -68.5 115t-144.5 42q-91 0 -140.5 -42.5t-49.5 -110.5q0 -131 198 -182q69 -17 114 -32t88.5 -38t68 -51.5t39 -70t14.5 -95.5q0 -126 -81.5 -214.5t-225.5 -111.5l-52 -114q40 12 72 12q66 0 112 -40t46 -104q0 -83 -69.5 -127.5
t-172.5 -44.5q-60 0 -172 33l29 62q70 -25 125 -25q58 0 88 23.5t30 62.5q0 35 -24 58.5t-72 23.5q-29 0 -57 -12z" />
    <glyph glyph-name="Scaron" unicode="&#x160;" horiz-adv-x="1138" 
d="M608 1423q91 0 186 -26t162 -68q-51 -100 -59 -182h-29q-32 95 -105 142.5t-179 47.5q-124 0 -193 -67t-69 -168q0 -36 9 -66.5t22.5 -54t40 -45.5t51.5 -37.5t68 -34.5t77 -32.5t91 -34.5q7 -3 11 -4q161 -59 239.5 -141.5t78.5 -229.5q0 -126 -60.5 -229.5
t-175.5 -165.5t-264 -62q-235 0 -387 113q17 62 22 92q1 9 5 29t6.5 38t3.5 33h26q50 -99 140 -156t200 -57q141 0 223 76.5t82 196.5q0 93 -49.5 155t-165.5 111l-233 98q-122 52 -175.5 134.5t-53.5 199.5q0 181 127 288t327 107zM512 1489l-252 342h70l239 -215l240 215
h68l-250 -342h-115z" />
    <glyph glyph-name="scaron" unicode="&#x161;" horiz-adv-x="909" 
d="M479 997q145 0 271 -67q-28 -68 -41 -172h-27q-14 73 -68.5 115t-144.5 42q-91 0 -140.5 -42.5t-49.5 -110.5q0 -131 198 -182q69 -17 114 -32t88.5 -38t68 -51.5t39 -70t14.5 -95.5q0 -145 -104 -238.5t-287 -93.5q-178 0 -306 86q30 58 48 164l24 6q29 -83 98 -128.5
t162 -45.5t150 45t57 123q0 20 -3.5 36.5t-8 30t-16.5 26t-20.5 21t-29 19t-33.5 16.5t-42.5 16.5t-47 16t-55.5 17.5q-137 42 -199.5 110.5t-62.5 169.5q0 134 94 220.5t260 86.5zM397 1124l-252 342h70l240 -215l239 215h68l-250 -342h-115z" />
    <glyph glyph-name="Tcommaaccent" unicode="&#x162;" horiz-adv-x="1138" 
d="M14 1407q32 -4 178 -8t209 -4h344q62 0 197.5 4t171.5 8q-8 -44 -8 -72q0 -35 8 -71q-147 28 -436 28q-4 -234 -4 -760q0 -348 14 -542q-89 12 -133 12q-36 0 -104 -12q22 266 22 809q0 164 -2 299l-2 194q-327 -3 -455 -28q0 4 4.5 28.5t4.5 42.5q0 16 -9 72zM614 -72
q29 0 48.5 -14t19.5 -41q0 -22 -10 -45q-10 -24 -185 -260q-19 16 -45 16l66 246q13 53 38.5 75.5t67.5 22.5z" />
    <glyph glyph-name="tcommaaccent" unicode="&#x163;" horiz-adv-x="681" 
d="M418 1278q-14 -274 -15 -322q109 0 222 11q-4 -20 -4 -56q0 -33 4 -45q-17 0 -98.5 3t-123.5 3q-10 -203 -10 -557q0 -148 34 -204t114 -56q23 0 90 13q-2 -8 -2 -29q0 -17 2 -29q-30 -17 -81 -28t-93 -11q-126 0 -197 90q-34 42 -42.5 86.5t-8.5 151.5q0 25 1 80.5
t1 83.5q2 139 2 409q-50 0 -105.5 -4t-58.5 -4q4 23 4 51t-4 52q93 -11 164 -11q0 152 -4 228q32 6 100.5 37.5t108.5 56.5zM399 -72q29 0 48.5 -14t19.5 -41q0 -22 -10 -45q-10 -24 -185 -260q-19 16 -45 16l66 246q13 53 38.5 75.5t67.5 22.5z" />
    <glyph glyph-name="Tcaron" unicode="&#x164;" horiz-adv-x="1138" 
d="M14 1407q32 -4 178 -8t209 -4h344q62 0 197.5 4t171.5 8q-8 -44 -8 -72q0 -35 8 -71q-147 28 -436 28q-4 -234 -4 -760q0 -348 14 -542q-89 12 -133 12q-36 0 -104 -12q22 266 22 809q0 164 -2 299l-2 194q-327 -3 -455 -28q0 4 4.5 28.5t4.5 42.5q0 16 -9 72zM508 1489
l-252 342h70l239 -215l240 215h67l-249 -342h-115z" />
    <glyph glyph-name="tcaron" unicode="&#x165;" horiz-adv-x="681" 
d="M418 1278q-14 -274 -15 -322q109 0 222 11q-4 -20 -4 -56q0 -33 4 -45q-17 0 -98.5 3t-123.5 3q-10 -203 -10 -557q0 -148 34 -204t114 -56q23 0 90 13q-2 -8 -2 -29q0 -17 2 -29q-30 -17 -81 -28t-93 -11q-126 0 -197 90q-34 42 -42.5 86.5t-8.5 151.5q0 25 1 80.5
t1 83.5q2 139 2 409q-50 0 -105.5 -4t-58.5 -4q4 23 4 51t-4 52q93 -11 164 -11q0 152 -4 228q32 6 100.5 37.5t108.5 56.5zM662 1489q29 0 48 -13.5t19 -41.5q0 -22 -10 -45q-13 -30 -184 -261q-20 17 -46 17l66 246q13 53 39 75.5t68 22.5z" />
    <glyph glyph-name="Tbar" unicode="&#x166;" horiz-adv-x="1138" 
d="M14 1407q32 -4 178 -8t209 -4h344q62 0 197.5 4t171.5 8q-8 -44 -8 -72q0 -35 8 -71q-147 28 -436 28q-4 -132 -4 -389q250 0 338 12q-8 -44 -8 -71q0 -14 1.5 -25.5t3.5 -21.5l3 -15q-77 17 -127 21.5t-211 7.5v-279q0 -348 14 -542q-89 12 -133 12q-36 0 -104 -12
q22 266 22 821q-198 0 -336 -29q0 2 4 23t4 39q0 27 -8 71q126 -12 336 -12q0 24 -1 88t-1 107l-2 194q-327 -3 -455 -28q0 4 4.5 28.5t4.5 42.5q0 16 -9 72z" />
    <glyph glyph-name="tbar" unicode="&#x167;" horiz-adv-x="681" 
d="M418 1278q-14 -274 -15 -322q109 0 222 11q-4 -20 -4 -56q0 -33 4 -45q-17 0 -98.5 3t-123.5 3q-6 -77 -6 -161q81 0 99 2l108 8q-4 -23 -4 -51q0 -31 4 -49q-156 6 -209 6q-2 -100 -2 -312q0 -148 34 -204t114 -56q23 0 90 13q-2 -8 -2 -29q0 -17 2 -29q-30 -17 -81 -28
t-93 -11q-126 0 -197 90q-34 42 -42.5 86.5t-8.5 151.5q0 25 1 80.5t1 83.5q0 27 1 82t1 82q-77 0 -154 -9q4 20 4 52q0 19 -4 51q50 -10 154 -10v161q-50 0 -105.5 -4t-58.5 -4q4 23 4 51t-4 52q93 -11 164 -11q0 152 -4 228q32 6 100.5 37.5t108.5 56.5z" />
    <glyph glyph-name="Utilde" unicode="&#x168;" horiz-adv-x="1593" 
d="M184 1407q86 -12 121 -12q45 0 119 12q-18 -324 -18 -678q0 -285 26 -395q28 -126 137 -194t252 -68q216 0 338 151q60 76 81.5 220t21.5 350q0 91 -8 313.5t-21 300.5q47 -12 96 -12q37 0 90 12q-17 -115 -26 -301t-9 -262q0 -28 -1 -118t-1 -140q0 -123 -30.5 -246.5
t-100.5 -200.5q-161 -178 -444 -178q-244 0 -387 88q-128 79 -173.5 187t-45.5 305v458q0 133 -17 408zM1075 1749h60q-23 -93 -79.5 -151t-137.5 -58q-49 0 -102 23.5t-99.5 47t-79.5 23.5q-43 0 -74 -25t-41 -69h-55q15 90 75.5 145.5t143.5 55.5q39 0 137 -47t131 -47
q43 0 72 24t49 78z" />
    <glyph glyph-name="utilde" unicode="&#x169;" horiz-adv-x="1251" 
d="M186 989q49 -12 105 -12q53 0 102 12q-5 -55 -11.5 -196.5t-6.5 -237.5q0 -50 0.5 -80.5t2.5 -75t6 -72t11.5 -63t18 -57t27 -45t37.5 -36t49 -20.5t63 -8q79 0 146 37.5t104 124.5q28 62 28 203q0 92 -4 277.5t-8 248.5q52 -12 111 -12q41 0 100 12q-20 -276 -20 -543
q0 -292 12 -456q-70 12 -101 12q-40 0 -96 -12q5 57 10 194q-52 -98 -141 -155.5t-196 -57.5q-169 0 -260 92.5t-91 264.5q0 2 3 112t5.5 219t2.5 107q0 97 -9 223zM901 1384h60q-23 -92 -80 -150t-138 -58q-49 0 -101.5 23.5t-99 47t-79.5 23.5q-43 0 -74 -25t-41 -69h-55
q15 89 75.5 144.5t143.5 55.5q39 0 137 -47t131 -47q43 0 72 24t49 78z" />
    <glyph glyph-name="Umacron" unicode="&#x16a;" horiz-adv-x="1593" 
d="M184 1407q86 -12 121 -12q45 0 119 12q-18 -324 -18 -678q0 -285 26 -395q28 -126 137 -194t252 -68q216 0 338 151q60 76 81.5 220t21.5 350q0 91 -8 313.5t-21 300.5q47 -12 96 -12q37 0 90 12q-17 -115 -26 -301t-9 -262q0 -28 -1 -118t-1 -140q0 -123 -30.5 -246.5
t-100.5 -200.5q-161 -178 -444 -178q-244 0 -387 88q-128 79 -173.5 187t-45.5 305v458q0 133 -17 408zM528 1675h545v-102h-545v102z" />
    <glyph glyph-name="umacron" unicode="&#x16b;" horiz-adv-x="1251" 
d="M186 989q49 -12 105 -12q53 0 102 12q-5 -55 -11.5 -196.5t-6.5 -237.5q0 -50 0.5 -80.5t2.5 -75t6 -72t11.5 -63t18 -57t27 -45t37.5 -36t49 -20.5t63 -8q79 0 146 37.5t104 124.5q28 62 28 203q0 92 -4 277.5t-8 248.5q52 -12 111 -12q41 0 100 12q-20 -276 -20 -543
q0 -292 12 -456q-70 12 -101 12q-40 0 -96 -12q5 57 10 194q-52 -98 -141 -155.5t-196 -57.5q-169 0 -260 92.5t-91 264.5q0 2 3 112t5.5 219t2.5 107q0 97 -9 223zM354 1311h545v-103h-545v103z" />
    <glyph glyph-name="Ubreve" unicode="&#x16c;" horiz-adv-x="1593" 
d="M184 1407q86 -12 121 -12q45 0 119 12q-18 -324 -18 -678q0 -285 26 -395q28 -126 137 -194t252 -68q216 0 338 151q60 76 81.5 220t21.5 350q0 91 -8 313.5t-21 300.5q47 -12 96 -12q37 0 90 12q-17 -115 -26 -301t-9 -262q0 -28 -1 -118t-1 -140q0 -123 -30.5 -246.5
t-100.5 -200.5q-161 -178 -444 -178q-244 0 -387 88q-128 79 -173.5 187t-45.5 305v458q0 133 -17 408zM539 1796v10h55q17 -98 76 -150t155 -52q186 0 226 202h57q-12 -154 -88.5 -235.5t-204.5 -81.5q-125 0 -200.5 81t-75.5 226z" />
    <glyph glyph-name="ubreve" unicode="&#x16d;" horiz-adv-x="1251" 
d="M186 989q49 -12 105 -12q53 0 102 12q-5 -55 -11.5 -196.5t-6.5 -237.5q0 -50 0.5 -80.5t2.5 -75t6 -72t11.5 -63t18 -57t27 -45t37.5 -36t49 -20.5t63 -8q79 0 146 37.5t104 124.5q28 62 28 203q0 92 -4 277.5t-8 248.5q52 -12 111 -12q41 0 100 12q-20 -276 -20 -543
q0 -292 12 -456q-70 12 -101 12q-40 0 -96 -12q5 57 10 194q-52 -98 -141 -155.5t-196 -57.5q-169 0 -260 92.5t-91 264.5q0 2 3 112t5.5 219t2.5 107q0 97 -9 223zM342 1432v10h55q17 -98 76.5 -150.5t155.5 -52.5q185 0 225 203h57q-12 -154 -88.5 -236t-204.5 -82
q-125 0 -200.5 81.5t-75.5 226.5z" />
    <glyph glyph-name="Uring" unicode="&#x16e;" horiz-adv-x="1593" 
d="M184 1407q86 -12 121 -12q45 0 119 12q-18 -324 -18 -678q0 -285 26 -395q28 -126 137 -194t252 -68q216 0 338 151q60 76 81.5 220t21.5 350q0 91 -8 313.5t-21 300.5q47 -12 96 -12q37 0 90 12q-17 -115 -26 -301t-9 -262q0 -28 -1 -118t-1 -140q0 -123 -30.5 -246.5
t-100.5 -200.5q-161 -178 -444 -178q-244 0 -387 88q-128 79 -173.5 187t-45.5 305v458q0 133 -17 408zM821 1833q76 0 131.5 -54.5t55.5 -131.5t-56 -133t-131 -56q-78 0 -133 55.5t-55 133.5q0 75 55.5 130.5t132.5 55.5zM688 1647q0 -57 38.5 -95.5t94.5 -38.5
q54 0 92.5 38.5t38.5 95.5q0 55 -38.5 93t-94.5 38q-54 0 -92.5 -38t-38.5 -93z" />
    <glyph glyph-name="uring" unicode="&#x16f;" horiz-adv-x="1251" 
d="M186 989q49 -12 105 -12q53 0 102 12q-5 -55 -11.5 -196.5t-6.5 -237.5q0 -50 0.5 -80.5t2.5 -75t6 -72t11.5 -63t18 -57t27 -45t37.5 -36t49 -20.5t63 -8q79 0 146 37.5t104 124.5q28 62 28 203q0 92 -4 277.5t-8 248.5q52 -12 111 -12q41 0 100 12q-20 -276 -20 -543
q0 -292 12 -456q-70 12 -101 12q-40 0 -96 -12q5 57 10 194q-52 -98 -141 -155.5t-196 -57.5q-169 0 -260 92.5t-91 264.5q0 2 3 112t5.5 219t2.5 107q0 97 -9 223zM627 1464q76 0 131 -55.5t55 -130.5q0 -78 -54.5 -133t-131.5 -55q-78 0 -133.5 55t-55.5 133
q0 75 55.5 130.5t133.5 55.5zM494 1278q0 -56 39 -94.5t94 -38.5t93 38.5t38 94.5q0 55 -38.5 93t-94.5 38q-54 0 -92.5 -38t-38.5 -93z" />
    <glyph glyph-name="Uhungarumlaut" unicode="&#x170;" horiz-adv-x="1593" 
d="M184 1407q86 -12 121 -12q45 0 119 12q-18 -324 -18 -678q0 -285 26 -395q28 -126 137 -194t252 -68q216 0 338 151q60 76 81.5 220t21.5 350q0 91 -8 313.5t-21 300.5q47 -12 96 -12q37 0 90 12q-17 -115 -26 -301t-9 -262q0 -28 -1 -118t-1 -140q0 -123 -30.5 -246.5
t-100.5 -200.5q-161 -178 -444 -178q-244 0 -387 88q-128 79 -173.5 187t-45.5 305v458q0 133 -17 408zM905 1831q27 0 45.5 -18.5t18.5 -43.5q0 -39 -43 -73q-11 -9 -40.5 -35.5t-87.5 -77.5t-120 -106h-49l198 301q35 53 78 53zM1147 1831q27 0 45 -18.5t18 -43.5
q0 -39 -43 -73q-10 -9 -40 -35.5t-87 -77.5t-120 -106h-50l199 301q35 53 78 53z" />
    <glyph glyph-name="uhungarumlaut" unicode="&#x171;" horiz-adv-x="1251" 
d="M186 989q49 -12 105 -12q53 0 102 12q-5 -55 -11.5 -196.5t-6.5 -237.5q0 -50 0.5 -80.5t2.5 -75t6 -72t11.5 -63t18 -57t27 -45t37.5 -36t49 -20.5t63 -8q79 0 146 37.5t104 124.5q28 62 28 203q0 92 -4 277.5t-8 248.5q52 -12 111 -12q41 0 100 12q-20 -276 -20 -543
q0 -292 12 -456q-70 12 -101 12q-40 0 -96 -12q5 57 10 194q-52 -98 -141 -155.5t-196 -57.5q-169 0 -260 92.5t-91 264.5q0 2 3 112t5.5 219t2.5 107q0 97 -9 223zM719 1466q27 0 45 -18t18 -43q0 -40 -43 -74q-10 -9 -40 -35.5t-87 -77.5t-120 -106h-50l199 301
q35 53 78 53zM961 1466q27 0 45 -18t18 -43q0 -40 -43 -74q-11 -9 -40.5 -35.5t-87.5 -77.5t-120 -106h-49l199 301q35 53 78 53z" />
    <glyph glyph-name="Uogonek" unicode="&#x172;" horiz-adv-x="1593" 
d="M184 1407q86 -12 121 -12q45 0 119 12q-18 -324 -18 -678q0 -285 26 -395q28 -126 137 -194t252 -68q216 0 338 151q60 76 81.5 220t21.5 350q0 91 -8 313.5t-21 300.5q47 -12 96 -12q37 0 90 12q-17 -115 -26 -301t-9 -262q0 -28 -1 -118t-1 -140q0 -123 -30.5 -246.5
t-100.5 -200.5q-18 -20 -30.5 -32.5t-48.5 -40t-73.5 -45.5t-98.5 -35.5t-130 -22.5q-68 -53 -100.5 -96.5t-32.5 -87.5q0 -45 35 -77t88 -32q73 0 129 56l33 -43q-127 -113 -238 -113q-73 0 -122.5 45t-49.5 111q0 116 168 235q-225 6 -360 88q-128 79 -173.5 187
t-45.5 305v458q0 133 -17 408z" />
    <glyph glyph-name="uogonek" unicode="&#x173;" horiz-adv-x="1251" 
d="M186 989q49 -12 105 -12q53 0 102 12q-5 -55 -11.5 -196.5t-6.5 -237.5q0 -50 0.5 -80.5t2.5 -75t6 -72t11.5 -63t18 -57t27 -45t37.5 -36t49 -20.5t63 -8q79 0 146 37.5t104 124.5q28 62 28 203q0 92 -4 277.5t-8 248.5q52 -12 111 -12q41 0 100 12q-20 -276 -20 -543
q0 -292 12 -456q-53 10 -96 12q-98 -68 -142.5 -119t-44.5 -104q0 -45 35 -77t88 -32q73 0 129 56l33 -43q-127 -113 -238 -113q-73 0 -122.5 45t-49.5 111q0 68 51 131t160 133q5 53 10 194q-52 -98 -141 -155.5t-196 -57.5q-169 0 -260 92.5t-91 264.5q0 2 3 112t5.5 219
t2.5 107q0 97 -9 223z" />
    <glyph glyph-name="Wcircumflex" unicode="&#x174;" horiz-adv-x="2048" 
d="M2 1407q50 -12 107 -12q81 0 143 12q96 -414 342 -1165l147 420q160 462 228 745q50 -12 86 -12t78 12q37 -153 107 -368.5t269 -796.5l148 428q84 246 127 395t82 342q40 -12 90 -12q52 0 92 12q-111 -262 -292.5 -775.5t-213.5 -641.5q-15 12 -82 12q-42 0 -84 -12
q-69 285 -368 1124q-30 -76 -191 -545q-171 -498 -188 -579q-42 12 -90 12q-54 0 -86 -12q-101 382 -226.5 776t-224.5 641zM698 1489l252 342h115l250 -342h-68l-239 215l-240 -215h-70z" />
    <glyph glyph-name="wcircumflex" unicode="&#x175;" horiz-adv-x="1593" 
d="M-2 989q38 -12 117 -12q72 0 121 12q21 -103 126 -427t119 -324q9 0 44.5 82.5t95.5 265t118 403.5q49 -12 86 -12q35 0 84 12q27 -121 92 -323q37 -113 55.5 -170.5t43 -128t38 -100t19.5 -29.5q9 0 49 97.5t100.5 278.5t114.5 375q31 -10 74 -10q58 0 88 10
q-49 -89 -172.5 -388.5t-239.5 -610.5q-27 12 -67 12q-34 0 -76 -12q-77 258 -182 545q-45 125 -55.5 151.5t-16.5 26.5q-7 0 -23 -39t-55 -150q-10 -31 -71.5 -209t-110.5 -325q-35 12 -78 12q-44 0 -71 -12q-8 54 -130 383.5t-237 615.5zM506 1124l252 342h114l250 -342
h-67l-240 215l-240 -215h-69z" />
    <glyph glyph-name="Ycircumflex" unicode="&#x176;" horiz-adv-x="1251" 
d="M37 1407q61 -12 133 -12q59 0 141 12q54 -131 125 -270q72 -140 130 -241.5t87 -144t37 -42.5q10 0 73 106.5t150 277.5t144 314q40 -12 96 -12q37 0 90 12q-57 -83 -233 -367q-228 -371 -265 -462q0 -416 13 -588q-40 12 -84 12q-105 0 -142 -12q13 91 13 571
q-71 118 -247 414t-261 432zM334 1489l252 342h114l250 -342h-67l-240 215l-240 -215h-69z" />
    <glyph glyph-name="ycircumflex" unicode="&#x177;" 
d="M12 989q58 -12 129 -12q62 0 111 12q69 -196 133 -367t96 -250t39 -91q3 -5 7 -12.5t5.5 -11t4.5 -7.5t5 -6t5 -3t6 -1q7 0 27 45q50 103 125 298t137 406q38 -12 90 -12q56 0 84 14q-25 -32 -139 -278q-21 -45 -109 -234t-129 -280.5t-108 -246t-110 -272.5t-71 -217
q-26 13 -71 13q-39 0 -93 -13q177 330 260 500q-53 128 -144.5 350.5t-123 298.5t-79 185t-87.5 192zM238 1124l251 342h115l250 -342h-68l-239 215l-240 -215h-69z" />
    <glyph glyph-name="Ydieresis" unicode="&#x178;" horiz-adv-x="1251" 
d="M37 1407q61 -12 133 -12q59 0 141 12q54 -131 125 -270q72 -140 130 -241.5t87 -144t37 -42.5q10 0 73 106.5t150 277.5t144 314q40 -12 96 -12q37 0 90 12q-57 -83 -233 -367q-228 -371 -265 -462q0 -416 13 -588q-40 12 -84 12q-105 0 -142 -12q13 91 13 571
q-71 118 -247 414t-261 432zM444 1718q40 0 68.5 -28t28.5 -66q0 -40 -29 -68t-68 -28q-38 0 -66 27t-28 69q0 38 28 66t66 28zM846 1718q40 0 68 -28t28 -66q0 -41 -28.5 -68.5t-67.5 -27.5q-38 0 -66 27t-28 69q0 38 28 66t66 28z" />
    <glyph glyph-name="Zacute" unicode="&#x179;" horiz-adv-x="1251" 
d="M90 1407q138 -12 369 -12q624 0 749 12v-31q-301 -416 -515.5 -722t-290.5 -421t-76 -122l2 -5q2 -2 14 -2q511 0 862 31q-8 -31 -8 -76q0 -41 8 -69q-80 4 -358.5 8t-374.5 4q-267 0 -461 -12v35q40 39 374.5 515.5t512.5 751.5q-602 0 -807 -32q8 36 8 79q0 44 -8 68z
M879 1835q29 0 49 -22t20 -50q0 -9 -1.5 -17t-6 -15t-8 -11.5t-11 -10t-11 -8t-13 -8t-12.5 -7.5l-316 -197h-71l276 272q52 51 67.5 62.5t37.5 11.5z" />
    <glyph glyph-name="zacute" unicode="&#x17a;" 
d="M113 985q168 -27 383 -27q259 0 475 13v-37q-71 -68 -260 -313l-267 -345q-82 -108 -118 -182h141q266 0 491 27q-8 -36 -8 -55q0 -32 8 -76q-170 12 -475 12q-307 0 -442 -12v53q317 391 369 463l266 362q-54 6 -135 6q-295 0 -428 -30q8 41 8 69q0 39 -8 72zM791 1470
q29 0 49 -21.5t20 -49.5q0 -9 -1.5 -17t-6 -15t-7.5 -11.5t-11 -10.5t-11 -8t-13.5 -8.5t-12.5 -7.5l-316 -197h-71l276 273q51 51 66.5 62t38.5 11z" />
    <glyph glyph-name="Zdotaccent" unicode="&#x17b;" horiz-adv-x="1251" 
d="M90 1407q138 -12 369 -12q624 0 749 12v-31q-301 -416 -515.5 -722t-290.5 -421t-76 -122l2 -5q2 -2 14 -2q511 0 862 31q-8 -31 -8 -76q0 -41 8 -69q-80 4 -358.5 8t-374.5 4q-267 0 -461 -12v35q40 39 374.5 515.5t512.5 751.5q-602 0 -807 -32q8 36 8 79q0 44 -8 68z
M635 1743q41 0 69.5 -29t28.5 -72q0 -39 -28.5 -68.5t-69.5 -29.5q-43 0 -71.5 28.5t-28.5 69.5t29.5 71t70.5 30z" />
    <glyph glyph-name="zdotaccent" unicode="&#x17c;" 
d="M113 985q168 -27 383 -27q259 0 475 13v-37q-71 -68 -260 -313l-267 -345q-82 -108 -118 -182h141q266 0 491 27q-8 -36 -8 -55q0 -32 8 -76q-170 12 -475 12q-307 0 -442 -12v53q317 391 369 463l266 362q-54 6 -135 6q-295 0 -428 -30q8 41 8 69q0 39 -8 72zM539 1378
q41 0 69.5 -29.5t28.5 -70.5q0 -39 -28.5 -68.5t-69.5 -29.5q-43 0 -72 28.5t-29 69.5t30 70.5t71 29.5z" />
    <glyph glyph-name="Zcaron" unicode="&#x17d;" horiz-adv-x="1251" 
d="M90 1407q138 -12 369 -12q624 0 749 12v-31q-301 -416 -515.5 -722t-290.5 -421t-76 -122l2 -5q2 -2 14 -2q511 0 862 31q-8 -31 -8 -76q0 -41 8 -69q-80 4 -358.5 8t-374.5 4q-267 0 -461 -12v35q40 39 374.5 515.5t512.5 751.5q-602 0 -807 -32q8 36 8 79q0 44 -8 68z
M569 1489l-252 342h70l240 -215l239 215h68l-250 -342h-115z" />
    <glyph glyph-name="zcaron" unicode="&#x17e;" 
d="M113 985q168 -27 383 -27q259 0 475 13v-37q-71 -68 -260 -313l-267 -345q-82 -108 -118 -182h141q266 0 491 27q-8 -36 -8 -55q0 -32 8 -76q-170 12 -475 12q-307 0 -442 -12v53q317 391 369 463l266 362q-54 6 -135 6q-295 0 -428 -30q8 41 8 69q0 39 -8 72zM455 1124
l-252 342h69l240 -215l240 215h67l-250 -342h-114z" />
    <glyph glyph-name="florin" unicode="&#x192;" 
d="M909 1411h13q-3 -8 -9 -27t-8.5 -27t-6 -23t-4.5 -29t-1 -31q0 -8 1 -25t1 -22l-18 -13q-35 48 -93 48q-42 0 -69 -27q-29 -29 -50.5 -109.5t-43.5 -263.5q123 0 215 10q-9 -33 -11 -71q0 -3 1 -13.5t1 -13.5q-86 4 -122 4l-97 2q-72 -419 -131 -639
q-22 -84 -42.5 -148.5t-47 -129t-55 -112t-65.5 -89t-80 -67.5t-97 -41.5t-117 -16.5q18 38 23.5 76.5t5.5 114.5h21q38 -41 88 -41q58 0 88 52.5t57 209.5q20 114 166 831q-23 -1 -72 -1t-85 -1t-58 -4q11 43 12 62q0 24 -2 36q133 -10 223 -10q29 155 91.5 277t161 197
t216.5 75z" />
    <glyph glyph-name="Aringacute" unicode="&#x1fa;" horiz-adv-x="1366" 
d="M782 1268q201 -511 559 -1278q-65 12 -120 12q-49 0 -131 -12q-39 134 -81 241t-126 295h-518q-124 -280 -191 -536q-62 12 -84 12q-28 0 -90 -12q415 902 571 1286q-75 51 -75 139q0 72 55 121t133 49q76 0 131 -49.5t55 -120.5q0 -96 -88 -147zM621 1137l-215 -508h436
zM686 1294q44 0 86.5 30.5t42.5 90.5q0 50 -39 84.5t-94 34.5q-54 0 -92.5 -35t-38.5 -84q0 -40 34 -80.5t101 -40.5zM850 1831q26 0 45.5 -20t19.5 -54q0 -11 -6 -20t-21 -17.5t-32 -15.5t-48 -16t-59 -16t-74.5 -20t-86.5 -24h-53l194 146q47 36 72 46.5t49 10.5z" />
    <glyph glyph-name="aringacute" unicode="&#x1fb;" 
d="M496 997q71 0 132.5 -17t113.5 -52t82 -96.5t30 -143.5q0 -40 -4 -198t-4 -254q0 -92 13.5 -130t62.5 -38q24 0 51 10l2 -58q-85 -45 -148 -45q-54 0 -96 34t-59 100q-73 -77 -145.5 -110.5t-164.5 -33.5q-131 0 -206.5 79.5t-75.5 195.5q0 43 10 79t25 62t41.5 47.5
t50.5 35.5t61 26.5t64.5 19.5t68.5 16l170 37q25 5 39 9.5t31.5 15t25 30.5t7.5 50q0 102 -63 162.5t-167 60.5q-173 0 -233 -152h-55l8 133q84 67 161.5 96t170.5 29zM279 258q0 -87 49.5 -131.5t124.5 -44.5q85 0 151 57.5t66 132.5v230q-101 -15 -172.5 -35t-113.5 -41
t-66 -50t-31.5 -55.5t-7.5 -62.5zM510 1464q76 0 131 -55.5t55 -130.5q0 -78 -55 -133t-131 -55q-78 0 -133 55t-55 133q0 76 55 131t133 55zM377 1278q0 -56 38.5 -94.5t94.5 -38.5q54 0 92.5 38.5t38.5 94.5q0 55 -38.5 93t-94.5 38q-54 0 -92.5 -38t-38.5 -93zM670 1749
q26 0 45.5 -20t19.5 -54q0 -11 -6 -20t-21 -17.5t-32 -15.5t-48 -16t-59 -16t-74.5 -20t-86.5 -24h-54l195 146q47 36 72 46.5t49 10.5z" />
    <glyph glyph-name="AEacute" unicode="&#x1fc;" horiz-adv-x="1820" 
d="M920 1407q167 -12 401 -12q248 0 383 12q-8 -40 -8 -66q0 -30 8 -71q-72 11 -181 18.5t-159 7.5q-48 0 -115.5 -1t-81.5 -1q-8 -120 -8 -297q0 -42 2 -107.5t2 -101.5q41 -6 119 -6q181 0 369 23q-9 -40 -9 -70q0 -23 9 -69q-147 22 -379 22q-89 0 -109 -2q0 -59 -2 -152
t-2 -139q0 -136 12 -295q269 2 545 25q-8 -33 -8 -66q0 -40 8 -69q-112 12 -446 12q-187 0 -318 -12q13 203 13 520h-369q-5 0 -111 -4q-172 -258 -276 -516q-53 12 -103 12q-56 0 -106 -12q195 275 266 387l355 553q43 67 97 151t82.5 129t58 91.5t43.5 70.5t18 35z
M913 1200l-366 -590q62 -4 418 -4q0 46 2 158.5t2 183.5q0 128 -3.5 196t-7.5 81.5t-10 13.5q-12 0 -35 -39zM1343 1835q29 0 49.5 -22t20.5 -50q0 -9 -1.5 -17t-6 -15t-8 -11.5t-11 -10t-11 -8t-13 -8t-12.5 -7.5l-316 -197h-71l276 272q52 52 67 63t37 11z" />
    <glyph glyph-name="aeacute" unicode="&#x1fd;" horiz-adv-x="1705" 
d="M535 999q99 0 167 -30t127 -103q125 133 334 133q216 0 327.5 -128.5t111.5 -383.5h-717v-22q0 -189 92 -296.5t242 -107.5q197 0 323 170l21 -6q-5 -16 -8 -36t-4 -32t-2 -36t-1 -29q-168 -127 -381 -127q-141 0 -248 59t-161 166q-120 -225 -361 -225q-137 0 -218 74
t-81 201q0 115 65 179.5t199 94.5q64 15 145.5 29.5t121.5 25.5t80 33v51q0 101 -59 170.5t-173 69.5q-84 0 -154.5 -42t-101.5 -122l-49 4q8 94 8 139q140 127 355 127zM885 573h514q0 342 -244 342q-119 0 -194.5 -93.5t-75.5 -248.5zM301 256q0 -85 49.5 -131.5
t132.5 -46.5q121 0 187 106q35 58 35 183v133l-191 -37q-112 -22 -162.5 -70.5t-50.5 -136.5zM1008 1470q29 0 49 -21.5t20 -49.5q0 -9 -1.5 -17t-6 -15t-7.5 -11.5t-11 -10.5t-11 -8t-13.5 -8.5t-12.5 -7.5l-316 -197h-71l276 273q51 51 66.5 62t38.5 11z" />
    <glyph glyph-name="Oslashacute" unicode="&#x1fe;" horiz-adv-x="1820" 
d="M1546 1516q18 -24 30.5 -35t49.5 -37q-75 -79 -174 -189q126 -111 183 -242.5t57 -299.5q0 -162 -57.5 -302t-160 -239.5t-248.5 -156t-317 -56.5q-296 0 -487 139q-28 -33 -94 -109t-105 -122q-18 26 -30 37.5t-41 29.5l202 216q-115 108 -169 239t-54 299
q0 172 58 311.5t162 232.5t247 143t313 50q264 0 463 -116q120 149 172 207zM365 705q0 -144 25.5 -243.5t80.5 -180.5q307 338 809 921q-160 135 -371 135q-157 0 -280 -76.5t-193.5 -221t-70.5 -334.5zM1341 1133q-231 -254 -819 -922q143 -162 387 -162q169 0 294.5 84.5
t190 231.5t64.5 337q0 262 -117 431zM1130 1835q29 0 49.5 -22t20.5 -50q0 -9 -1.5 -17t-6 -15t-8 -11.5t-11 -10t-11 -8t-13 -8t-12.5 -7.5l-316 -197h-71l276 272q52 52 67 63t37 11z" />
    <glyph glyph-name="oslashacute" unicode="&#x1ff;" horiz-adv-x="1251" 
d="M1077 1114q25 -28 62 -47q-68 -78 -154 -184q170 -139 170 -391q0 -161 -70 -282.5t-190.5 -185t-273.5 -63.5q-176 0 -314 82q-65 -78 -157 -203q-14 21 -25 29.5t-35 17.5q51 59 162 197q-84 81 -119 173.5t-35 219.5q0 131 42 232t116.5 163t171.5 93.5t211 31.5
q159 0 291 -75q117 151 147 192zM307 479q0 -161 51 -266q247 298 490 608q-85 94 -219 94q-84 0 -146.5 -33t-100.5 -92.5t-56.5 -137.5t-18.5 -173zM887 762q-16 -21 -160.5 -193.5t-333.5 -414.5q80 -111 228 -111t236.5 118.5t88.5 317.5q0 170 -59 283zM864 1470
q29 0 49.5 -21.5t20.5 -49.5q0 -9 -1.5 -17t-6 -15t-8 -11.5t-11.5 -10.5t-11.5 -8.5t-13 -8t-12.5 -7.5l-315 -197h-72l277 273q51 51 66 62t38 11z" />
    <glyph glyph-name="Scommaaccent" unicode="&#x218;" horiz-adv-x="1138" 
d="M608 1423q91 0 186 -26t162 -68q-51 -100 -59 -182h-29q-32 95 -105 142.5t-179 47.5q-124 0 -193 -67t-69 -168q0 -36 9 -66.5t22.5 -54t40 -45.5t51.5 -37.5t68 -34.5t77 -32.5t91 -34.5q7 -3 11 -4q161 -59 239.5 -141.5t78.5 -229.5q0 -126 -60.5 -229.5
t-175.5 -165.5t-264 -62q-235 0 -387 113q17 62 22 92q1 9 5 29t6.5 38t3.5 33h26q50 -99 140 -156t200 -57q141 0 223 76.5t82 196.5q0 93 -49.5 155t-165.5 111l-233 98q-122 52 -175.5 134.5t-53.5 199.5q0 181 127 288t327 107zM571 -72q29 0 48.5 -14t19.5 -41
q0 -22 -10 -45q-10 -24 -185 -260q-19 16 -45 16l66 246q13 53 38.5 75.5t67.5 22.5z" />
    <glyph glyph-name="scommaaccent" unicode="&#x219;" horiz-adv-x="909" 
d="M479 997q145 0 271 -67q-28 -68 -41 -172h-27q-14 73 -68.5 115t-144.5 42q-91 0 -140.5 -42.5t-49.5 -110.5q0 -131 198 -182q69 -17 114 -32t88.5 -38t68 -51.5t39 -70t14.5 -95.5q0 -145 -104 -238.5t-287 -93.5q-178 0 -306 86q30 58 48 164l24 6q29 -83 98 -128.5
t162 -45.5t150 45t57 123q0 20 -3.5 36.5t-8 30t-16.5 26t-20.5 21t-29 19t-33.5 16.5t-42.5 16.5t-47 16t-55.5 17.5q-137 42 -199.5 110.5t-62.5 169.5q0 134 94 220.5t260 86.5zM496 -72q29 0 48 -13.5t19 -41.5q0 -22 -10 -45q-12 -27 -184 -260q-19 16 -45 16l65 246
q13 53 39 75.5t68 22.5z" />
    <glyph glyph-name="uni021A" unicode="&#x21a;" horiz-adv-x="1138" 
d="M14 1407q32 -4 178 -8t209 -4h344q62 0 197.5 4t171.5 8q-8 -44 -8 -72q0 -35 8 -71q-147 28 -436 28q-4 -234 -4 -760q0 -348 14 -542q-89 12 -133 12q-36 0 -104 -12q22 266 22 809q0 164 -2 299l-2 194q-327 -3 -455 -28q0 4 4.5 28.5t4.5 42.5q0 16 -9 72zM614 -72
q29 0 48.5 -14t19.5 -41q0 -22 -10 -45q-10 -24 -185 -260q-19 16 -45 16l66 246q13 53 38.5 75.5t67.5 22.5z" />
    <glyph glyph-name="uni021B" unicode="&#x21b;" horiz-adv-x="681" 
d="M418 1278q-14 -274 -15 -322q109 0 222 11q-4 -20 -4 -56q0 -33 4 -45q-17 0 -98.5 3t-123.5 3q-10 -203 -10 -557q0 -148 34 -204t114 -56q23 0 90 13q-2 -8 -2 -29q0 -17 2 -29q-30 -17 -81 -28t-93 -11q-126 0 -197 90q-34 42 -42.5 86.5t-8.5 151.5q0 25 1 80.5
t1 83.5q2 139 2 409q-50 0 -105.5 -4t-58.5 -4q4 23 4 51t-4 52q93 -11 164 -11q0 152 -4 228q32 6 100.5 37.5t108.5 56.5zM399 -72q29 0 48.5 -14t19.5 -41q0 -22 -10 -45q-10 -24 -185 -260q-19 16 -45 16l66 246q13 53 38.5 75.5t67.5 22.5z" />
    <glyph glyph-name="dotlessj" unicode="&#x237;" horiz-adv-x="569" 
d="M180 981q52 -12 111 -12q49 0 110 12q-14 -269 -14 -481q0 -502 -2 -588q-3 -191 -91 -312t-251 -141l-6 62q44 9 76 41t48 70t25 94.5t11 96t2 93.5q0 52 1 231.5t1 268.5q0 224 -21 565z" />
    <glyph glyph-name="circumflex" unicode="&#x2c6;" horiz-adv-x="569" 
d="M-25 1124l252 342h115l250 -342h-68l-239 215l-240 -215h-70z" />
    <glyph glyph-name="caron" unicode="&#x2c7;" horiz-adv-x="569" 
d="M227 1124l-252 342h70l240 -215l239 215h68l-250 -342h-115z" />
    <glyph glyph-name="uni02C9" unicode="&#x2c9;" horiz-adv-x="569" 
d="M12 1311h545v-103h-545v103z" />
    <glyph glyph-name="breve" unicode="&#x2d8;" horiz-adv-x="569" 
d="M0 1432v10h55q17 -98 76.5 -150.5t155.5 -52.5q185 0 225 203h57q-12 -154 -88.5 -236t-204.5 -82q-125 0 -200.5 81.5t-75.5 226.5z" />
    <glyph glyph-name="dotaccent" unicode="&#x2d9;" horiz-adv-x="569" 
d="M285 1378q41 0 69.5 -29.5t28.5 -70.5q0 -39 -28.5 -68.5t-69.5 -29.5q-43 0 -72 28.5t-29 69.5t30 70.5t71 29.5z" />
    <glyph glyph-name="ring" unicode="&#x2da;" horiz-adv-x="569" 
d="M285 1464q76 0 131 -55.5t55 -130.5q0 -78 -54.5 -133t-131.5 -55q-78 0 -133.5 55t-55.5 133q0 75 55.5 130.5t133.5 55.5zM152 1278q0 -56 39 -94.5t94 -38.5t93 38.5t38 94.5q0 55 -38.5 93t-94.5 38q-54 0 -92.5 -38t-38.5 -93z" />
    <glyph glyph-name="ogonek" unicode="&#x2db;" horiz-adv-x="569" 
d="M383 4h82q-100 -71 -145.5 -121.5t-45.5 -103.5q0 -45 35 -77t88 -32q73 0 129 56l33 -43q-127 -113 -237 -113q-73 0 -122.5 45t-49.5 111q0 71 56.5 138t176.5 140z" />
    <glyph glyph-name="tilde" unicode="&#x2dc;" horiz-adv-x="569" 
d="M559 1384h59q-23 -93 -79.5 -150.5t-137.5 -57.5q-49 0 -101.5 23.5t-99 47t-79.5 23.5q-43 0 -74 -25t-41 -69h-55q15 89 75.5 144.5t143.5 55.5q39 0 137 -47t131 -47q43 0 72 24t49 78z" />
    <glyph glyph-name="hungarumlaut" unicode="&#x2dd;" horiz-adv-x="569" 
d="M377 1466q27 0 45 -18t18 -43q0 -40 -43 -74q-10 -9 -40 -35.5t-87 -77.5t-120 -106h-50l199 301q35 53 78 53zM618 1466q27 0 45.5 -18t18.5 -43q0 -40 -43 -74q-11 -9 -40.5 -35.5t-87.5 -77.5t-120 -106h-49l199 301q35 53 77 53z" />
    <glyph glyph-name="uni0394" unicode="&#x394;" horiz-adv-x="1290" 
d="M553 1393h186q417 -1095 422 -1108l74 -211v-74h-1182v96zM643 1253h-6q-27 -79 -133 -354l-295 -772h862l-293 758q-10 26 -135 368z" />
    <glyph glyph-name="uni03A9" unicode="&#x3a9;" horiz-adv-x="1470" 
d="M743 1419q181 0 327.5 -85.5t229 -237t82.5 -340.5q0 -186 -72 -345.5t-212 -271.5v-6h311v-133h-526v106q150 100 236.5 264t86.5 349q0 242 -135.5 402.5t-329.5 160.5q-142 0 -252.5 -82t-166.5 -206.5t-56 -264.5q0 -183 90 -358.5t232 -264.5v-106h-527v133h308v6
q-133 109 -207 264.5t-74 327.5q0 195 86.5 353t236 246.5t332.5 88.5z" />
    <glyph glyph-name="uni03BC" unicode="&#x3bc;" horiz-adv-x="1251" 
d="M186 989q49 -12 105 -12q53 0 102 12q-5 -55 -11.5 -196.5t-6.5 -237.5q0 -50 0.5 -80.5t2.5 -75t6 -72t11.5 -63t18 -57t27 -45t37.5 -36t49 -20.5t63 -8q79 0 146 37.5t104 124.5q28 62 28 203q0 92 -4 277.5t-8 248.5q52 -12 111 -12q41 0 100 12q-20 -276 -20 -543
q0 -292 12 -456q-70 12 -101 12q-40 0 -96 -12q5 57 10 194q-52 -98 -141 -155.5t-196 -57.5q-94 0 -152 41v-211q0 -233 10 -348q-53 12 -106 12t-111 -12q21 344 21 717q0 665 -11 819z" />
    <glyph glyph-name="pi" unicode="&#x3c0;" horiz-adv-x="1251" 
d="M94 1034h1055v-127h-158v-678q0 -64 18.5 -90t59.5 -26q39 0 88 24v-110q-76 -39 -143 -39q-92 0 -135 64.5t-43 201.5v653h-443v-907h-155v907h-144v127z" />
    <glyph glyph-name="Wgrave" unicode="&#x1e80;" horiz-adv-x="2048" 
d="M2 1407q50 -12 107 -12q81 0 143 12q96 -414 342 -1165l147 420q160 462 228 745q50 -12 86 -12t78 12q37 -153 107 -368.5t269 -796.5l148 428q84 246 127 395t82 342q40 -12 90 -12q52 0 92 12q-111 -262 -292.5 -775.5t-213.5 -641.5q-15 12 -82 12q-42 0 -84 -12
q-69 285 -368 1124q-30 -76 -191 -545q-171 -498 -188 -579q-42 12 -90 12q-54 0 -86 -12q-101 382 -226.5 776t-224.5 641zM805 1835q22 0 37 -11t67 -63l277 -272h-72l-315 197q-3 2 -14.5 9t-15.5 9.5t-12.5 9.5t-12 13t-6.5 15.5t-3 20.5q0 28 20.5 50t49.5 22z" />
    <glyph glyph-name="wgrave" unicode="&#x1e81;" horiz-adv-x="1593" 
d="M-2 989q38 -12 117 -12q72 0 121 12q21 -103 126 -427t119 -324q9 0 44.5 82.5t95.5 265t118 403.5q49 -12 86 -12q35 0 84 12q27 -121 92 -323q37 -113 55.5 -170.5t43 -128t38 -100t19.5 -29.5q9 0 49 97.5t100.5 278.5t114.5 375q31 -10 74 -10q58 0 88 10
q-49 -89 -172.5 -388.5t-239.5 -610.5q-27 12 -67 12q-34 0 -76 -12q-77 258 -182 545q-45 125 -55.5 151.5t-16.5 26.5q-7 0 -23 -39t-55 -150q-10 -31 -71.5 -209t-110.5 -325q-35 12 -78 12q-44 0 -71 -12q-8 54 -130 383.5t-237 615.5zM586 1470q23 0 38 -11t66 -62
l277 -273h-72l-315 197q-3 2 -12.5 7.5t-13 8t-11.5 8.5t-11.5 10.5t-8 11.5t-6 15t-1.5 17q0 28 20.5 49.5t49.5 21.5z" />
    <glyph glyph-name="Wacute" unicode="&#x1e82;" horiz-adv-x="2048" 
d="M2 1407q50 -12 107 -12q81 0 143 12q96 -414 342 -1165l147 420q160 462 228 745q50 -12 86 -12t78 12q37 -153 107 -368.5t269 -796.5l148 428q84 246 127 395t82 342q40 -12 90 -12q52 0 92 12q-111 -262 -292.5 -775.5t-213.5 -641.5q-15 12 -82 12q-42 0 -84 -12
q-69 285 -368 1124q-30 -76 -191 -545q-171 -498 -188 -579q-42 12 -90 12q-54 0 -86 -12q-101 382 -226.5 776t-224.5 641zM1319 1835q29 0 49.5 -22t20.5 -50q0 -11 -3 -20.5t-6.5 -15.5t-12 -13t-12.5 -9.5t-15.5 -9.5t-14.5 -9l-315 -197h-72l276 272q51 51 67 62.5
t38 11.5z" />
    <glyph glyph-name="wacute" unicode="&#x1e83;" horiz-adv-x="1593" 
d="M-2 989q38 -12 117 -12q72 0 121 12q21 -103 126 -427t119 -324q9 0 44.5 82.5t95.5 265t118 403.5q49 -12 86 -12q35 0 84 12q27 -121 92 -323q37 -113 55.5 -170.5t43 -128t38 -100t19.5 -29.5q9 0 49 97.5t100.5 278.5t114.5 375q31 -10 74 -10q58 0 88 10
q-49 -89 -172.5 -388.5t-239.5 -610.5q-27 12 -67 12q-34 0 -76 -12q-77 258 -182 545q-45 125 -55.5 151.5t-16.5 26.5q-7 0 -23 -39t-55 -150q-10 -31 -71.5 -209t-110.5 -325q-35 12 -78 12q-44 0 -71 -12q-8 54 -130 383.5t-237 615.5zM1038 1470q29 0 49.5 -21.5
t20.5 -49.5q0 -9 -1.5 -17t-6 -15t-8 -11.5t-11.5 -10.5t-11.5 -8.5t-13 -8t-12.5 -7.5l-315 -197h-72l277 273q51 51 66 62t38 11z" />
    <glyph glyph-name="Wdieresis" unicode="&#x1e84;" horiz-adv-x="2048" 
d="M2 1407q50 -12 107 -12q81 0 143 12q96 -414 342 -1165l147 420q160 462 228 745q50 -12 86 -12t78 12q37 -153 107 -368.5t269 -796.5l148 428q84 246 127 395t82 342q40 -12 90 -12q52 0 92 12q-111 -262 -292.5 -775.5t-213.5 -641.5q-15 12 -82 12q-42 0 -84 -12
q-69 285 -368 1124q-30 -76 -191 -545q-171 -498 -188 -579q-42 12 -90 12q-54 0 -86 -12q-101 382 -226.5 776t-224.5 641zM840 1718q40 0 68 -28t28 -66q0 -41 -28.5 -68.5t-67.5 -27.5q-38 0 -66.5 27.5t-28.5 68.5q0 38 28.5 66t66.5 28zM1241 1718q40 0 68 -28t28 -66
q0 -41 -28.5 -68.5t-67.5 -27.5q-38 0 -66 27t-28 69q0 38 28 66t66 28z" />
    <glyph glyph-name="wdieresis" unicode="&#x1e85;" horiz-adv-x="1593" 
d="M-2 989q38 -12 117 -12q72 0 121 12q21 -103 126 -427t119 -324q9 0 44.5 82.5t95.5 265t118 403.5q49 -12 86 -12q35 0 84 12q27 -121 92 -323q37 -113 55.5 -170.5t43 -128t38 -100t19.5 -29.5q9 0 49 97.5t100.5 278.5t114.5 375q31 -10 74 -10q58 0 88 10
q-49 -89 -172.5 -388.5t-239.5 -610.5q-27 12 -67 12q-34 0 -76 -12q-77 258 -182 545q-45 125 -55.5 151.5t-16.5 26.5q-7 0 -23 -39t-55 -150q-10 -31 -71.5 -209t-110.5 -325q-35 12 -78 12q-44 0 -71 -12q-8 54 -130 383.5t-237 615.5zM621 1354q40 0 68 -28t28 -66
q0 -40 -27.5 -68.5t-68.5 -28.5q-39 0 -67 28t-28 69q0 38 28.5 66t66.5 28zM1022 1354q40 0 68 -28t28 -66q0 -40 -27.5 -68.5t-68.5 -28.5q-39 0 -66.5 28t-27.5 69q0 38 28 66t66 28z" />
    <glyph glyph-name="Ygrave" unicode="&#x1ef2;" horiz-adv-x="1251" 
d="M37 1407q61 -12 133 -12q59 0 141 12q54 -131 125 -270q72 -140 130 -241.5t87 -144t37 -42.5q10 0 73 106.5t150 277.5t144 314q40 -12 96 -12q37 0 90 12q-57 -83 -233 -367q-228 -371 -265 -462q0 -416 13 -588q-40 12 -84 12q-105 0 -142 -12q13 91 13 571
q-71 118 -247 414t-261 432zM446 1835q22 0 38 -11.5t67 -62.5l276 -272h-71l-316 197q-3 2 -12.5 7.5t-13 8t-11 8t-11 10t-8 11.5t-6 15t-1.5 17q0 28 20 50t49 22z" />
    <glyph glyph-name="ygrave" unicode="&#x1ef3;" 
d="M12 989q58 -12 129 -12q62 0 111 12q69 -196 133 -367t96 -250t39 -91q3 -5 7 -12.5t5.5 -11t4.5 -7.5t5 -6t5 -3t6 -1q7 0 27 45q50 103 125 298t137 406q38 -12 90 -12q56 0 84 14q-25 -32 -139 -278q-21 -45 -109 -234t-129 -280.5t-108 -246t-110 -272.5t-71 -217
q-26 13 -71 13q-39 0 -93 -13q177 330 260 500q-53 128 -144.5 350.5t-123 298.5t-79 185t-87.5 192zM319 1470q23 0 38.5 -11t66.5 -62l276 -273h-71l-316 197q-3 2 -11 6.5t-11.5 7t-10 7.5t-10 8t-8 9t-7 11.5t-4 13t-1.5 15.5q0 28 20 49.5t49 21.5z" />
    <glyph glyph-name="endash" unicode="&#x2013;" 
d="M0 506h1024v-123h-1024v123z" />
    <glyph glyph-name="emdash" unicode="&#x2014;" horiz-adv-x="2048" 
d="M266 506h1516v-123h-1516v123z" />
    <glyph glyph-name="quoteleft" unicode="&#x2018;" horiz-adv-x="512" 
d="M190 854q-39 0 -63.5 26t-24.5 60q0 9 2 18.5t7 21.5t9.5 22t14 26.5t16 27.5t20 33.5t22.5 36.5l188 314q28 -16 45 -17l-131 -465q-30 -104 -105 -104z" />
    <glyph glyph-name="quoteright" unicode="&#x2019;" horiz-adv-x="512" 
d="M322 1423q39 0 63.5 -26t24.5 -60q0 -9 -2 -18.5t-7 -21.5t-9.5 -22t-14 -26.5t-16 -27.5t-20 -33.5t-22.5 -36.5l-188 -313q-26 14 -45 16l131 465q30 104 105 104z" />
    <glyph glyph-name="quotesinglbase" unicode="&#x201a;" horiz-adv-x="512" 
d="M315 231q39 0 63.5 -26t24.5 -60q0 -9 -1.5 -18.5t-7 -22t-9.5 -21.5t-14 -26.5t-16 -27.5t-20 -33.5t-22 -36.5l-188 -313q-26 14 -45 16l131 465q16 57 42 80.5t62 23.5z" />
    <glyph glyph-name="quotedblleft" unicode="&#x201c;" 
d="M281 854q-39 0 -63.5 26t-24.5 60q0 9 1.5 18.5t7 22t9.5 21.5t14 26.5t16 27.5t20 33.5t22 36.5l188 314q28 -16 45 -17l-131 -465q-16 -57 -42 -80.5t-62 -23.5zM614 854q-39 0 -63.5 26t-24.5 60q0 9 1.5 18.5t7 22t9.5 21.5t14 26.5t16 27.5t20 33.5t22 36.5l189 314
q28 -16 45 -17l-131 -465q-30 -104 -105 -104z" />
    <glyph glyph-name="quotedblright" unicode="&#x201d;" 
d="M410 1423q39 0 63.5 -26t24.5 -60q0 -9 -1.5 -18.5t-7 -22t-9.5 -21.5t-14 -26.5t-16 -27.5t-20 -33.5t-22 -36.5l-189 -313q-26 14 -45 16l131 465q30 104 105 104zM741 1423q39 0 63.5 -26t24.5 -60q0 -9 -1.5 -18.5t-7 -22t-9.5 -21.5t-14 -26.5t-16 -27.5t-20 -33.5
t-22 -36.5l-188 -313q-26 14 -45 16l131 465q16 57 42 80.5t62 23.5z" />
    <glyph glyph-name="quotedblbase" unicode="&#x201e;" 
d="M408 231q39 0 63.5 -26t24.5 -60q0 -9 -1.5 -18.5t-7 -22t-9.5 -21.5t-14 -26.5t-16 -27.5t-20 -33.5t-22 -36.5l-189 -313q-26 14 -45 16l131 465q30 104 105 104zM739 231q39 0 63.5 -26t24.5 -60q0 -9 -1.5 -18.5t-7 -22t-9.5 -21.5t-14 -26.5t-16 -27.5t-20 -33.5
t-22 -36.5l-188 -313q-26 14 -45 16l131 465q16 57 42 80.5t62 23.5z" />
    <glyph glyph-name="dagger" unicode="&#x2020;" 
d="M420 1407q40 -12 96 -12q58 0 98 12q-24 -212 -24 -473q284 0 364 14q-8 -44 -8 -74q0 -44 8 -77q-134 18 -364 18q2 -449 20 -825q-58 12 -102 12q-56 0 -96 -12q14 230 18 381t4 444q-206 0 -364 -14q8 33 8 71q0 35 -8 76q39 -5 174 -9.5t190 -4.5q0 246 -14 473z" />
    <glyph glyph-name="daggerdbl" unicode="&#x2021;" 
d="M422 1432q76 -13 96 -13q34 0 88 13q-18 -247 -18 -381h51q121 0 301 20q-8 -41 -8 -82q0 -35 8 -71q-109 14 -352 14v-475q153 0 352 20q-8 -44 -8 -80q0 -7 8 -71q-182 14 -352 14q0 -59 2.5 -122t7 -149.5t6.5 -121.5q-58 12 -94 12q-41 0 -90 -12q16 232 16 393
q-190 0 -352 -14q8 57 8 75q0 11 -8 76q147 -18 352 -18v473q-19 0 -56 -1t-48.5 -1t-37.5 -0.5t-34.5 -1t-27.5 -1t-28 -1.5t-24.5 -2t-29 -2.5t-29.5 -3t-37 -3.5q8 41 8 78q0 35 -8 76q66 -12 135.5 -15t216.5 -3q0 189 -14 381z" />
    <glyph glyph-name="bullet" unicode="&#x2022;" 
d="M512 1044q144 0 246 -102.5t102 -245.5q0 -144 -102.5 -246t-245.5 -102q-142 0 -245 101.5t-103 246.5q0 142 103 245t245 103z" />
    <glyph glyph-name="ellipsis" unicode="&#x2026;" horiz-adv-x="2048" 
d="M342 221q52 0 89.5 -37t37.5 -90q0 -51 -38 -88t-89 -37t-88 37t-37 88q0 54 36.5 90.5t88.5 36.5zM1024 221q52 0 89.5 -37t37.5 -90q0 -51 -38 -88t-89 -37t-88 37t-37 88q0 54 36.5 90.5t88.5 36.5zM1706 221q52 0 89.5 -37t37.5 -90q0 -51 -38 -88t-89 -37t-88 37
t-37 88q0 54 36.5 90.5t88.5 36.5z" />
    <glyph glyph-name="perthousand" unicode="&#x2030;" horiz-adv-x="2048" 
d="M223 -86l819 1548q21 -6 43 -6q8 0 25.5 2.5t22.5 3.5l-822 -1548q-30 6 -41 6q-8 0 -16 -1t-17 -2.5t-14 -2.5zM371 1436q129 0 206.5 -85.5t77.5 -228.5q0 -151 -84.5 -248.5t-220.5 -97.5q-127 0 -205.5 85.5t-78.5 221.5q0 162 84 257.5t221 95.5zM211 1094
q0 -133 38.5 -201t108.5 -68q152 0 152 289q0 272 -137 272q-75 0 -118.5 -74.5t-43.5 -217.5zM1016 633q129 0 206.5 -85.5t77.5 -228.5q0 -151 -84.5 -248.5t-220.5 -97.5q-127 0 -205.5 86t-78.5 222q0 162 84 257t221 95zM856 291q0 -133 39 -200.5t109 -67.5
q151 0 151 288q0 273 -137 273q-75 0 -118.5 -75t-43.5 -218zM1698 633q129 0 206.5 -85.5t77.5 -228.5q0 -151 -84.5 -248.5t-220.5 -97.5q-127 0 -205.5 86t-78.5 222q0 162 84 257t221 95zM1538 291q0 -133 39 -200.5t109 -67.5q151 0 151 288q0 273 -137 273
q-75 0 -118.5 -75t-43.5 -218z" />
    <glyph glyph-name="guilsinglleft" unicode="&#x2039;" horiz-adv-x="681" 
d="M430 899q57 -51 98 -61q-151 -178 -252 -336q115 -183 238 -338q-60 -17 -104 -64q-19 34 -37.5 66t-39.5 65l-35 55t-38 58t-33.5 50.5t-37.5 55t-35 50.5q48 54 139.5 187.5t136.5 211.5z" />
    <glyph glyph-name="guilsinglright" unicode="&#x203a;" horiz-adv-x="681" 
d="M250 899q45 -78 136.5 -211.5t139.5 -187.5q-7 -10 -35 -50.5t-37.5 -55t-33.5 -50.5t-38 -58l-35 -55t-39.5 -65t-37.5 -66q-44 47 -104 64q118 149 237 338q-105 163 -251 336q41 10 98 61z" />
    <glyph glyph-name="fraction" unicode="&#x2044;" horiz-adv-x="342" 
d="M-336 -35l897 1413q30 -6 60 -6q33 0 57 6l-901 -1413q-35 6 -53 6q-22 0 -60 -6z" />
    <glyph glyph-name="Euro" unicode="&#x20ac;" 
d="M664 1386q202 0 378 -110q-34 -82 -45 -158l-16 -2q-63 90 -150 138.5t-186 48.5q-150 0 -254 -129q-90 -115 -115 -334l678 8l-39 -94l-647 6q-2 -37 -2 -66q0 -55 4 -114l586 4l-35 -88l-545 8q15 -207 122 -329t264 -122q174 0 358 172l14 -10l-26 -135
q-73 -53 -169.5 -82t-197.5 -29q-226 0 -385 150t-190 385l-168 -10l32 88l127 -2q-4 35 -4 90q0 56 4 92l-159 -8l32 90l136 -4q37 256 193 401t405 145z" />
    <glyph glyph-name="afii61289" unicode="&#x2113;" horiz-adv-x="1112" 
d="M600 1540q131 0 211 -93.5t80 -248.5q0 -189 -109.5 -374t-355.5 -398v-25q0 -144 51 -204t146 -60q72 0 144.5 32t115.5 93q30 -32 98 -90q-72 -99 -164.5 -145.5t-214.5 -46.5q-326 0 -350 337q-70 -55 -123 -86l-57 107q105 68 178 131v514q0 557 350 557zM426 1106
v-504q307 307 307 594q0 104 -38 158.5t-107 54.5q-72 0 -117 -83.5t-45 -219.5z" />
    <glyph glyph-name="trademark" unicode="&#x2122;" horiz-adv-x="1910" 
d="M186 1356q0 23 -6 47q65 -10 201 -10h156q139 0 221 10q-6 -48 -6 -49q0 -7 6 -49q-80 14 -221 14l-2 -287q0 -233 10 -338q-44 8 -80 8q-25 0 -66 -8q11 121 11 332v293q-162 0 -230 -12q6 24 6 49zM901 1403q6 -2 31 -2q20 0 24 2q12 -32 128.5 -241.5t160.5 -278.5
q81 141 174 311t111 209q8 -2 26 -2q19 0 27 2l55 -453q30 -242 41 -256q-9 1 -37 4.5t-36 3.5q-33 0 -74 -8q0 41 -14 206t-27 278q-190 -332 -252 -484q-1 0 -6.5 2t-13.5 2t-14 -2t-7 -2q-63 139 -256 475q-14 -98 -25.5 -243.5t-11.5 -231.5q-31 8 -49 8q-13 0 -34 -3.5
t-31 -4.5q25 116 58 330t52 379z" />
    <glyph glyph-name="Omega" unicode="&#x2126;" horiz-adv-x="1470" 
d="M743 1419q181 0 327.5 -85.5t229 -237t82.5 -340.5q0 -186 -72 -345.5t-212 -271.5v-6h311v-133h-526v106q150 100 236.5 264t86.5 349q0 242 -135.5 402.5t-329.5 160.5q-142 0 -252.5 -82t-166.5 -206.5t-56 -264.5q0 -183 90 -358.5t232 -264.5v-106h-527v133h308v6
q-133 109 -207 264.5t-74 327.5q0 195 86.5 353t236 246.5t332.5 88.5z" />
    <glyph glyph-name="estimated" unicode="&#x212e;" horiz-adv-x="1490" 
d="M743 1386q190 0 341 -90t235 -250t84 -362h-1026v-463q148 -151 366 -151q160 0 278.5 73.5t211.5 233.5l88 -53q-116 -183 -248 -263.5t-330 -80.5q-191 0 -341.5 92t-232 250t-81.5 352q0 207 80.5 368.5t230.5 252.5t344 91zM377 1143v-367h739v367q-162 153 -377 153
q-218 0 -362 -153z" />
    <glyph glyph-name="onethird" unicode="&#x2153;" horiz-adv-x="1673" 
d="M449 1397l28 -8q-16 -70 -16 -693l2 -151q-33 6 -76 6q-1 0 -82 -6q5 34 8 65.5t5 59.5t2.5 88.5t1 109t1 169t1.5 223.5q-161 -83 -226 -127q-14 23 -26.5 35.5t-34.5 23.5v14q118 39 245.5 98.5t166.5 92.5zM336 -35l897 1413q30 -6 59 -6q34 0 58 6l-901 -1413
q-35 6 -54 6q-21 0 -59 -6zM1333 834q110 0 185 -49t75 -138q0 -70 -47 -126t-147 -79v-8q107 -2 172 -53.5t65 -140.5q0 -112 -97 -184t-255 -72q-113 0 -211 49q17 43 17 102l24 2q26 -42 72.5 -67t105.5 -25q91 0 143 53t52 131q0 82 -53 127t-142 45q-32 0 -63 -8
q4 10 4 37q0 15 -4 43q44 -8 65 -8q72 0 115 46.5t43 117.5q0 63 -41 103t-104 40q-55 0 -97.5 -33.5t-48.5 -83.5l-24 2q-9 46 -39 93q99 84 235 84z" />
    <glyph glyph-name="twothirds" unicode="&#x2154;" horiz-adv-x="1673" 
d="M319 1389q122 0 196.5 -61.5t74.5 -158.5q0 -143 -154 -288l-233 -222h254q97 0 168 9q-7 -31 -7 -58q0 -17 7 -61q-82 6 -176 6q-48 0 -118 -1t-161 -2.5t-145 -2.5v41q99 83 225 209q95 95 142.5 168t47.5 166q0 88 -39.5 139t-111.5 51q-68 0 -113 -43.5t-45 -116.5
v-8l-25 -4q-6 18 -16 32.5t-26.5 33.5t-18.5 22q85 150 274 150zM369 -35l897 1413q30 -6 59 -6q33 0 57 6l-901 -1413q-35 6 -53 6q-22 0 -59 -6zM1346 834q110 0 185 -49t75 -138q0 -70 -47.5 -126t-147.5 -79v-8q108 -2 173 -53.5t65 -140.5q0 -112 -97.5 -184
t-255.5 -72q-113 0 -211 49q17 43 17 102l24 2q26 -41 73 -66.5t106 -25.5q91 0 142.5 53t51.5 131q0 82 -52.5 127t-141.5 45q-33 0 -64 -8q4 10 4 37q0 15 -4 43q44 -8 66 -8q72 0 114.5 46.5t42.5 117.5q0 63 -41 103t-104 40q-55 0 -97 -33.5t-48 -83.5l-25 2
q-9 46 -39 93q99 84 236 84z" />
    <glyph glyph-name="oneeighth" unicode="&#x215b;" horiz-adv-x="1673" 
d="M1370 858q111 0 174.5 -51t63.5 -135q0 -71 -41.5 -125t-130.5 -70q104 -3 158.5 -65.5t54.5 -161.5q0 -129 -76 -201t-207 -72q-129 0 -202.5 68.5t-73.5 185.5q0 201 202 246q-157 36 -157 180q0 88 63.5 144.5t171.5 56.5zM1257 651q0 -73 28 -114t81 -41
q56 0 88.5 44t32.5 122q0 73 -29.5 111t-85.5 38q-115 0 -115 -160zM1219 240q0 -101 38 -157t109 -56q73 0 114.5 57.5t41.5 157.5q0 102 -39 154.5t-113 52.5q-72 0 -111.5 -54t-39.5 -155zM436 1397l29 -8q-16 -70 -16 -693l2 -151q-33 6 -76 6q-1 0 -82 -6q5 34 8 65
t4.5 60t2.5 87.5t1 110.5t0.5 168t1.5 224q-157 -81 -225 -127q-14 23 -26.5 35.5t-34.5 23.5v14q118 39 244.5 98.5t166.5 92.5zM324 -35l897 1413q30 -6 59 -6q33 0 57 6l-901 -1413q-34 6 -53 6q-21 0 -59 -6z" />
    <glyph glyph-name="threeeighths" unicode="&#x215c;" horiz-adv-x="1673" 
d="M287 1386q110 0 185 -48.5t75 -137.5q0 -70 -47.5 -126t-147.5 -79v-8q108 -2 173 -53.5t65 -140.5q0 -112 -97 -184t-255 -72q-113 0 -211 49q16 40 16 102l25 2q26 -42 72.5 -67t105.5 -25q91 0 142.5 53t51.5 131q0 82 -52.5 127t-141.5 45q-33 0 -64 -8q4 10 4 37
q0 15 -4 43q44 -8 66 -8q72 0 115 46.5t43 117.5q0 63 -41.5 103t-104.5 40q-55 0 -97 -33.5t-48 -83.5l-25 2q-9 46 -39 93q98 83 236 83zM334 -35l897 1413q30 -6 59 -6q34 0 58 6l-902 -1413q-34 6 -53 6q-21 0 -59 -6zM1368 858q111 0 174.5 -51t63.5 -135
q0 -71 -41.5 -125t-130.5 -70q104 -3 158.5 -65.5t54.5 -161.5q0 -129 -76 -201t-207 -72q-129 0 -203 68.5t-74 185.5q0 201 203 246q-157 36 -157 180q0 88 63.5 144.5t171.5 56.5zM1255 651q0 -73 28 -114t81 -41q56 0 88.5 44t32.5 122q0 73 -29.5 111t-85.5 38
q-115 0 -115 -160zM1217 240q0 -101 38 -157t109 -56q73 0 114.5 57.5t41.5 157.5q0 102 -39 154.5t-113 52.5q-72 0 -111.5 -54t-39.5 -155z" />
    <glyph glyph-name="fiveeighths" unicode="&#x215d;" horiz-adv-x="1673" 
d="M92 1393q144 -7 207 -7q68 0 229 7q0 -7 -3 -26t-3 -34q0 -26 6 -53q-138 12 -319 12h-43q-8 -124 -8 -270q43 19 66 25t63 6q125 0 196.5 -61.5t71.5 -174.5q0 -130 -94 -211.5t-244 -81.5q-114 0 -199 58q16 61 19 96l12 2q28 -50 76 -76t102 -26q89 0 143 59.5
t54 161.5q0 90 -52 142t-132 52q-71 0 -129 -49l-17 10q6 144 6 240q0 90 -8 199zM1374 858q111 0 174.5 -51t63.5 -135q0 -71 -41.5 -125t-130.5 -70q104 -3 158.5 -65.5t54.5 -161.5q0 -129 -76 -201t-207 -72q-129 0 -202.5 68.5t-73.5 185.5q0 201 202 246
q-157 36 -157 180q0 88 63.5 144.5t171.5 56.5zM1262 651q0 -73 27.5 -114t80.5 -41q56 0 88.5 44t32.5 122q0 73 -29.5 111t-85.5 38q-114 0 -114 -160zM1223 240q0 -101 38 -157t109 -56q73 0 114.5 57.5t41.5 157.5q0 102 -39 154.5t-113 52.5q-72 0 -111.5 -54
t-39.5 -155zM338 -35l897 1413q30 -6 59 -6q34 0 58 6l-901 -1413q-34 6 -54 6q-21 0 -59 -6z" />
    <glyph glyph-name="seveneighths" unicode="&#x215e;" horiz-adv-x="1673" 
d="M121 1401q142 -15 301 -15q30 0 142 3t128 4l2 -13q-20 -34 -81 -137t-79.5 -134.5t-65 -112t-67 -119.5t-54.5 -102.5t-59 -117t-50 -110.5q-24 8 -54 8t-57 -8l-4 10q119 177 272 433t170 296h-256q-101 0 -188 -10q6 33 6 63q0 31 -6 62zM1274 858q111 0 174 -51
t63 -135q0 -71 -41.5 -125t-130.5 -70q104 -3 158.5 -65.5t54.5 -161.5q0 -129 -76 -201t-206 -72q-129 0 -203 68.5t-74 185.5q0 201 203 246q-158 36 -158 180q0 88 64 144.5t172 56.5zM1161 651q0 -73 28 -114t81 -41q56 0 88.5 44t32.5 122q0 73 -29.5 111t-85.5 38
q-115 0 -115 -160zM1122 240q0 -101 38.5 -157t109.5 -56q73 0 114 57.5t41 157.5q0 102 -38.5 154.5t-112.5 52.5q-72 0 -112 -54t-40 -155zM238 -35l897 1413q30 -6 59 -6q33 0 57 6l-901 -1413q-34 6 -53 6q-21 0 -59 -6z" />
    <glyph glyph-name="partialdiff" unicode="&#x2202;" horiz-adv-x="1118" 
d="M489 1546q107 0 205 -57.5t172 -157t118 -244.5t44 -311q0 -191 -43 -344t-118.5 -250.5t-176 -149.5t-217.5 -52q-186 0 -294.5 117t-108.5 306q0 135 60 249.5t163.5 181.5t226.5 67q116 0 213.5 -49.5t149.5 -136.5v55q0 129 -25 238t-65.5 183.5t-93.5 127t-109 76.5
t-111 24q-96 0 -171.5 -24t-119.5 -58q-21 44 -51 101q146 108 352 108zM221 410q0 -141 72.5 -223.5t195.5 -82.5q143 0 245.5 131.5t129.5 335.5q-38 94 -124.5 150.5t-194.5 56.5q-135 0 -229.5 -106.5t-94.5 -261.5z" />
    <glyph glyph-name="Delta" unicode="&#x2206;" horiz-adv-x="1290" 
d="M553 1393h186q417 -1095 422 -1108l74 -211v-74h-1182v96zM643 1253h-6q-27 -79 -133 -354l-295 -772h862l-293 758q-10 26 -135 368z" />
    <glyph glyph-name="product" unicode="&#x220f;" horiz-adv-x="1396" 
d="M119 1532h1159v-1798h-156v1669h-848v-1669h-155v1798z" />
    <glyph glyph-name="summation" unicode="&#x2211;" horiz-adv-x="1259" 
d="M45 1532h1163v-129h-958v-8l479 -762l-502 -764v-6h1051v-129h-1262v90l533 803l-504 800v105z" />
    <glyph glyph-name="minus" unicode="&#x2212;" horiz-adv-x="1214" 
d="M92 563h1028v-123h-1028v123z" />
    <glyph glyph-name="uni2215" unicode="&#x2215;" horiz-adv-x="342" 
d="M-336 -35l897 1413q30 -6 60 -6q33 0 57 6l-901 -1413q-35 6 -53 6q-22 0 -60 -6z" />
    <glyph glyph-name="uni2219" unicode="&#x2219;" horiz-adv-x="512" 
d="M258 635q53 0 91 -38.5t38 -90.5q0 -55 -38.5 -93t-90.5 -38q-54 0 -92.5 37.5t-38.5 91.5t38 92.5t93 38.5z" />
    <glyph glyph-name="radical" unicode="&#x221a;" horiz-adv-x="1079" 
d="M594 152l340 1486h127q-13 -56 -45.5 -195t-139 -590t-243.5 -1037h-121l-303 833l-143 -55l-35 92l266 105l160 -451q58 -166 75.5 -224t30.5 -124h2q7 69 29 160z" />
    <glyph glyph-name="infinity" unicode="&#x221e;" horiz-adv-x="1511" 
d="M393 840q53 0 103 -17.5t102.5 -57t79 -63.5t80.5 -77q124 125 207.5 170t171.5 45q128 0 208 -84t80 -215q0 -126 -90 -212.5t-217 -86.5q-85 0 -165.5 48.5t-196.5 168.5q-120 -125 -204 -171t-175 -46q-128 0 -209.5 84.5t-81.5 214.5q0 125 90 212t217 87zM209 541
q0 -78 51.5 -130.5t126.5 -52.5q41 0 83 16.5t81.5 47t67.5 57t61 62.5q-13 12 -47 46t-55 52t-53.5 41.5t-66 34t-69.5 10.5q-73 0 -126.5 -55t-53.5 -129zM834 543l71 -72q113 -113 215 -113q74 0 128.5 54t54.5 129q0 80 -50.5 132t-128.5 52q-62 0 -130 -42t-160 -140z
" />
    <glyph glyph-name="integral" unicode="&#x222b;" horiz-adv-x="653" 
d="M541 1550q59 0 90 -14l-23 -111q-27 9 -61 9q-88 0 -123 -88.5t-35 -311.5q0 -99 11.5 -380.5t11.5 -432.5q0 -126 -15.5 -219.5t-41 -150t-64 -90.5t-78 -46t-88.5 -12q-59 0 -107 21q4 14 7.5 30.5t8.5 39t9 38.5q38 -10 80 -10q31 0 56 15t40.5 36.5t26.5 58
t16.5 64.5t8 73t3 67t0.5 61q0 134 -12 427t-12 390q0 283 68.5 409.5t222.5 126.5z" />
    <glyph glyph-name="approxequal" unicode="&#x2248;" horiz-adv-x="1214" 
d="M373 874q59 0 110.5 -14.5t90 -36t76.5 -42.5t87.5 -35.5t106.5 -14.5q60 0 122 33.5t103 87.5l76 -80q-47 -72 -130 -116t-171 -44q-62 0 -115 15t-92 36t-76.5 42t-86 36t-103.5 15q-65 0 -126 -32.5t-106 -88.5q-16 19 -40 46t-31 36q52 71 134 114t171 43zM373 469
q59 0 110.5 -14.5t90 -35.5t76.5 -42.5t87.5 -36t106.5 -14.5q60 0 122 33t103 87l76 -79q-47 -72 -130 -116t-171 -44q-62 0 -115 14.5t-92 35.5t-76.5 42.5t-86 36t-103.5 14.5q-65 0 -126 -32.5t-106 -88.5q-16 19 -40 46t-31 36q52 71 134 114.5t171 43.5z" />
    <glyph glyph-name="notequal" unicode="&#x2260;" horiz-adv-x="1214" 
d="M868 1065h127l-159 -252h284v-119h-360l-185 -284h545v-119h-620l-158 -252h-127l162 252h-283v119h359l182 284h-541v119h617z" />
    <glyph glyph-name="lessequal" unicode="&#x2264;" horiz-adv-x="1214" 
d="M1110 1110v-131l-831 -322v-4l831 -319v-133l-1008 397v115zM102 115h1008v-115h-1008v115z" />
    <glyph glyph-name="greaterequal" unicode="&#x2265;" horiz-adv-x="1214" 
d="M102 979v131l1008 -397v-115l-1008 -397v133l832 319v4zM102 115h1008v-115h-1008v115z" />
    <glyph glyph-name="lozenge" unicode="&#x25ca;" horiz-adv-x="1089" 
d="M477 1419h133l381 -743l-381 -737h-133l-381 737zM543 1288h-4l-297 -610l301 -610h6l297 606z" />
    <glyph glyph-name="grave.cap" unicode="&#xe000;" horiz-adv-x="569" 
d="M53 1835q22 0 37.5 -11.5t67.5 -62.5l276 -272h-72l-315 197q-3 2 -12.5 7.5t-13 8t-11 8t-11 10t-8 11.5t-6 15t-1.5 17q0 28 20 50t49 22z" />
    <glyph glyph-name="acute.cap" unicode="&#xe002;" horiz-adv-x="569" 
d="M516 1835q29 0 49.5 -22t20.5 -50q0 -11 -3 -20.5t-6.5 -15.5t-12 -13t-12.5 -9.5t-15.5 -9.5t-14.5 -9l-315 -197h-72l277 272q52 52 67 63t37 11z" />
    <glyph glyph-name="circumflex.cap" unicode="&#xe004;" horiz-adv-x="569" 
d="M-25 1489l252 342h115l250 -342h-68l-239 215l-240 -215h-70z" />
    <glyph glyph-name="caron.cap" unicode="&#xe006;" horiz-adv-x="569" 
d="M227 1489l-252 342h70l240 -215l239 215h68l-250 -342h-115z" />
    <glyph glyph-name="caron.alt" unicode="&#xe008;" horiz-adv-x="681" 
d="M385 1489q28 0 48 -14t20 -39q0 -34 -21 -66l-174 -242q-20 17 -45 17l68 254q13 48 38 69t66 21z" />
    <glyph glyph-name="tilde.cap" unicode="&#xe009;" horiz-adv-x="569" 
d="M559 1749h59q-23 -93 -79.5 -151t-137.5 -58q-49 0 -101.5 23.5t-99 47t-79.5 23.5q-43 0 -74 -25t-41 -69h-55q15 90 75.5 145.5t143.5 55.5q39 0 137 -47t131 -47q43 0 72 24t49 78z" />
    <glyph glyph-name="dieresis.cap" unicode="&#xe00b;" horiz-adv-x="569" 
d="M82 1718q40 0 68 -28t28 -66q0 -41 -28.5 -68.5t-67.5 -27.5q-38 0 -66 27t-28 69q0 38 28 66t66 28zM483 1718q40 0 68.5 -28t28.5 -66q0 -40 -29 -68t-68 -28q-38 0 -66 27t-28 69q0 38 28 66t66 28z" />
    <glyph glyph-name="macron.cap" unicode="&#xe00d;" horiz-adv-x="569" 
d="M12 1675h545v-102h-545v102z" />
    <glyph glyph-name="breve.cap" unicode="&#xe00f;" horiz-adv-x="569" 
d="M0 1796v10h55q17 -97 76.5 -149.5t155.5 -52.5q185 0 225 202h57q-12 -154 -88.5 -235.5t-204.5 -81.5q-125 0 -200.5 81t-75.5 226z" />
    <glyph glyph-name="ring.cap" unicode="&#xe011;" horiz-adv-x="569" 
d="M285 1833q76 0 131 -54.5t55 -131.5q0 -78 -55.5 -133.5t-130.5 -55.5q-78 0 -133.5 55.5t-55.5 133.5q0 75 55.5 130.5t133.5 55.5zM152 1647q0 -57 38.5 -95.5t94.5 -38.5q54 0 92.5 38.5t38.5 95.5q0 55 -38.5 93t-94.5 38q-54 0 -92.5 -38t-38.5 -93z" />
    <glyph glyph-name="hungarumlaut.cap" unicode="&#xe013;" horiz-adv-x="569" 
d="M377 1831q27 0 45 -18.5t18 -43.5q0 -39 -43 -73q-10 -9 -40 -35.5t-87 -77.5t-120 -106h-50l199 301q35 53 78 53zM618 1831q27 0 45.5 -18.5t18.5 -43.5q0 -39 -43 -73q-11 -9 -40.5 -35.5t-87.5 -77.5t-120 -106h-49l199 301q35 53 77 53z" />
    <glyph glyph-name="dotaccent.cap" unicode="&#xe015;" horiz-adv-x="569" 
d="M285 1743q41 0 69.5 -29t28.5 -72q0 -39 -28.5 -68.5t-69.5 -29.5q-43 0 -72 28.5t-29 69.5t30 71t71 30z" />
    <glyph glyph-name="commaaccent" unicode="&#xe017;" horiz-adv-x="681" 
d="M385 -72q29 0 48.5 -14t19.5 -41q0 -19 -11 -45q-12 -27 -184 -260q-19 16 -45 16l66 246q13 53 38.5 75.5t67.5 22.5z" />
    <glyph glyph-name="commaaccent.alt" unicode="&#xe01a;" horiz-adv-x="681" 
d="M283 1124q-29 0 -48.5 14t-19.5 42q0 22 10 45q10 24 185 260q20 -17 45 -17l-66 -245q-13 -53 -38.5 -76t-67.5 -23z" />
    <glyph glyph-name="uniF8FF" unicode="&#xf8ff;" horiz-adv-x="993" 
d="M0 1393h993v-1393h-993v1393zM96 96h801v1198h-801v-1198zM502 1182q107 0 174 -69.5t67 -184.5q0 -68 -26.5 -118.5t-93.5 -111.5q-69 -63 -83 -93t-14 -113v-37h-94v30q0 94 19 147t77 105q62 55 88.5 95t26.5 88q0 67 -43 115t-104 48q-67 0 -108.5 -48.5
t-49.5 -135.5l-98 16q13 130 81 198.5t181 68.5zM430 227v129h109v-129h-109z" />
    </font>
</defs>
</svg>
